<svg width="148" height="141" viewBox="0 0 148 141" fill="none" xmlns="http://www.w3.org/2000/svg">
<g clip-path="url(#clip0_72_18028)">
<path d="M7.0479 42.2998H0V49.3501H7.0479V42.2998Z" fill="#CE716F"/>
<path d="M7.0479 49.3501H0V56.4004H7.0479V49.3501Z" fill="#CE716F"/>
<path d="M7.0479 56.4004H0V63.4507H7.0479V56.4004Z" fill="#CE716F"/>
<path d="M7.0479 63.4497H0V70.5H7.0479V63.4497Z" fill="#CE716F"/>
<path d="M14.0958 28.2002H7.04785V35.2505H14.0958V28.2002Z" fill="#FF9593"/>
<path d="M14.0958 35.2505H7.04785V42.3008H14.0958V35.2505Z" fill="#FF9593"/>
<path d="M14.0958 42.2998H7.04785V49.3501H14.0958V42.2998Z" fill="#FF9593"/>
<path d="M14.0958 49.3501H7.04785V56.4004H14.0958V49.3501Z" fill="#FF9593"/>
<path d="M14.0958 56.4004H7.04785V63.4507H14.0958V56.4004Z" fill="#FF9593"/>
<path d="M14.0958 63.4497H7.04785V70.5H14.0958V63.4497Z" fill="#FF9593"/>
<path d="M14.0958 70.5H7.04785V77.5503H14.0958V70.5Z" fill="#CE716F"/>
<path d="M14.0958 77.5503H7.04785V84.6006H14.0958V77.5503Z" fill="#CE716F"/>
<path d="M21.1428 21.1499H14.0948V28.2002H21.1428V21.1499Z" fill="#FF9593"/>
<path d="M21.1428 28.2002H14.0948V35.2505H21.1428V28.2002Z" fill="#FF9593"/>
<path d="M21.1428 35.2505H14.0948V42.3008H21.1428V35.2505Z" fill="#FF9593"/>
<path d="M21.1428 42.2998H14.0948V49.3501H21.1428V42.2998Z" fill="#4B4B4B"/>
<path d="M21.1428 49.3501H14.0948V56.4004H21.1428V49.3501Z" fill="#4B4B4B"/>
<path d="M21.1428 56.4004H14.0948V63.4507H21.1428V56.4004Z" fill="#4B4B4B"/>
<path d="M21.1428 63.4497H14.0948V70.5H21.1428V63.4497Z" fill="#4B4B4B"/>
<path d="M21.1428 70.5H14.0948V77.5503H21.1428V70.5Z" fill="#DB8785"/>
<path d="M21.1428 77.5503H14.0948V84.6006H21.1428V77.5503Z" fill="#CE716F"/>
<path d="M21.1428 84.5996H14.0948V91.6499H21.1428V84.5996Z" fill="#CE716F"/>
<path d="M21.1428 91.6499H14.0948V98.7002H21.1428V91.6499Z" fill="#CE716F"/>
<path d="M28.1906 14.0996H21.1427V21.1499H28.1906V14.0996Z" fill="#FF9593"/>
<path d="M28.1906 21.1499H21.1427V28.2002H28.1906V21.1499Z" fill="#FF9593"/>
<path d="M28.1906 28.2002H21.1427V35.2505H28.1906V28.2002Z" fill="#FF9593"/>
<path d="M28.1906 35.2505H21.1427V42.3008H28.1906V35.2505Z" fill="#4B4B4B"/>
<path d="M28.1906 42.2998H21.1427V49.3501H28.1906V42.2998Z" fill="#4B4B4B"/>
<path d="M28.1906 49.3501H21.1427V56.4004H28.1906V49.3501Z" fill="#4B4B4B"/>
<path d="M28.1906 56.4004H21.1427V63.4507H28.1906V56.4004Z" fill="#4B4B4B"/>
<path d="M28.1906 63.4497H21.1427V70.5H28.1906V63.4497Z" fill="#4B4B4B"/>
<path d="M28.1906 70.5H21.1427V77.5503H28.1906V70.5Z" fill="#4B4B4B"/>
<path d="M28.1906 77.5503H21.1427V84.6006H28.1906V77.5503Z" fill="#FF9593"/>
<path d="M28.1906 84.5996H21.1427V91.6499H28.1906V84.5996Z" fill="#FF9593"/>
<path d="M28.1906 91.6499H21.1427V98.7002H28.1906V91.6499Z" fill="#CE716F"/>
<path d="M28.1906 98.7002H21.1427V105.75H28.1906V98.7002Z" fill="#CE716F"/>
<path d="M35.2386 14.0996H28.1907V21.1499H35.2386V14.0996Z" fill="#FF9593"/>
<path d="M35.2386 21.1499H28.1907V28.2002H35.2386V21.1499Z" fill="#FF9593"/>
<path d="M35.2386 28.2002H28.1907V35.2505H35.2386V28.2002Z" fill="#4B4B4B"/>
<path d="M35.2386 35.2505H28.1907V42.3008H35.2386V35.2505Z" fill="#4B4B4B"/>
<path d="M35.2386 42.2998H28.1907V49.3501H35.2386V42.2998Z" fill="#4B4B4B"/>
<path d="M35.2386 49.3501H28.1907V56.4004H35.2386V49.3501Z" fill="#4B4B4B"/>
<path d="M35.2386 56.4004H28.1907V63.4507H35.2386V56.4004Z" fill="#4B4B4B"/>
<path d="M35.2386 63.4497H28.1907V70.5H35.2386V63.4497Z" fill="#4B4B4B"/>
<path d="M35.2386 70.5H28.1907V77.5503H35.2386V70.5Z" fill="#4B4B4B"/>
<path d="M35.2386 77.5503H28.1907V84.6006H35.2386V77.5503Z" fill="#4B4B4B"/>
<path d="M35.2386 84.5996H28.1907V91.6499H35.2386V84.5996Z" fill="#FF9593"/>
<path d="M35.2386 91.6499H28.1907V98.7002H35.2386V91.6499Z" fill="#FF9593"/>
<path d="M35.2386 98.7002H28.1907V105.75H35.2386V98.7002Z" fill="#CE716F"/>
<path d="M35.2386 105.75H28.1907V112.801H35.2386V105.75Z" fill="#CE716F"/>
<path d="M42.2864 7.05029H35.2385V14.1006H42.2864V7.05029Z" fill="#FF9593"/>
<path d="M42.2864 14.0996H35.2385V21.1499H42.2864V14.0996Z" fill="#FF9593"/>
<path d="M42.2864 21.1499H35.2385V28.2002H42.2864V21.1499Z" fill="#FF9593"/>
<path d="M42.2864 28.2002H35.2385V35.2505H42.2864V28.2002Z" fill="#4B4B4B"/>
<path d="M42.2864 35.2505H35.2385V42.3008H42.2864V35.2505Z" fill="#4B4B4B"/>
<path d="M42.2864 42.2998H35.2385V49.3501H42.2864V42.2998Z" fill="#4B4B4B"/>
<path d="M42.2864 49.3501H35.2385V56.4004H42.2864V49.3501Z" fill="#4B4B4B"/>
<path d="M42.2864 56.4004H35.2385V63.4507H42.2864V56.4004Z" fill="#4B4B4B"/>
<path d="M42.2864 63.4497H35.2385V70.5H42.2864V63.4497Z" fill="#4B4B4B"/>
<path d="M42.2864 70.5H35.2385V77.5503H42.2864V70.5Z" fill="#4B4B4B"/>
<path d="M42.2864 77.5503H35.2385V84.6006H42.2864V77.5503Z" fill="#4B4B4B"/>
<path d="M42.2864 84.5996H35.2385V91.6499H42.2864V84.5996Z" fill="#FF9593"/>
<path d="M42.2864 91.6499H35.2385V98.7002H42.2864V91.6499Z" fill="#FF9593"/>
<path d="M42.2864 98.7002H35.2385V105.75H42.2864V98.7002Z" fill="#FF9593"/>
<path d="M42.2864 105.75H35.2385V112.801H42.2864V105.75Z" fill="#CE716F"/>
<path d="M42.2864 112.8H35.2385V119.85H42.2864V112.8Z" fill="#CE716F"/>
<path d="M49.3333 7.05029H42.2854V14.1006H49.3333V7.05029Z" fill="#FF9593"/>
<path d="M49.3333 14.0996H42.2854V21.1499H49.3333V14.0996Z" fill="#FF9593"/>
<path d="M49.3333 21.1499H42.2854V28.2002H49.3333V21.1499Z" fill="#FF9593"/>
<path d="M49.3333 28.2002H42.2854V35.2505H49.3333V28.2002Z" fill="#4B4B4B"/>
<path d="M49.3333 35.2505H42.2854V42.3008H49.3333V35.2505Z" fill="white"/>
<path d="M49.3333 42.2998H42.2854V49.3501H49.3333V42.2998Z" fill="#4B4B4B"/>
<path d="M49.3333 49.3501H42.2854V56.4004H49.3333V49.3501Z" fill="#4B4B4B"/>
<path d="M49.3333 56.4004H42.2854V63.4507H49.3333V56.4004Z" fill="#4B4B4B"/>
<path d="M49.3333 63.4497H42.2854V70.5H49.3333V63.4497Z" fill="#4B4B4B"/>
<path d="M49.3333 70.5H42.2854V77.5503H49.3333V70.5Z" fill="#4B4B4B"/>
<path d="M49.3333 77.5503H42.2854V84.6006H49.3333V77.5503Z" fill="#4B4B4B"/>
<path d="M49.3333 84.5996H42.2854V91.6499H49.3333V84.5996Z" fill="#FF9593"/>
<path d="M49.3333 91.6499H42.2854V98.7002H49.3333V91.6499Z" fill="#FF9593"/>
<path d="M49.3333 98.7002H42.2854V105.75H49.3333V98.7002Z" fill="#FF9593"/>
<path d="M49.3333 105.75H42.2854V112.801H49.3333V105.75Z" fill="#FF9593"/>
<path d="M49.3333 112.8H42.2854V119.85H49.3333V112.8Z" fill="#CE716F"/>
<path d="M49.3333 119.85H42.2854V126.9H49.3333V119.85Z" fill="#CE716F"/>
<path d="M56.3813 0H49.3334V7.0503H56.3813V0Z" fill="#FF9593"/>
<path d="M56.3813 7.05029H49.3334V14.1006H56.3813V7.05029Z" fill="#FF9593"/>
<path d="M56.3813 14.0996H49.3334V21.1499H56.3813V14.0996Z" fill="#FF9593"/>
<path d="M56.3813 21.1499H49.3334V28.2002H56.3813V21.1499Z" fill="#FF9593"/>
<path d="M56.3813 28.2002H49.3334V35.2505H56.3813V28.2002Z" fill="#FF9593"/>
<path d="M56.3813 35.2505H49.3334V42.3008H56.3813V35.2505Z" fill="white"/>
<path d="M56.3813 42.2998H49.3334V49.3501H56.3813V42.2998Z" fill="white"/>
<path d="M56.3813 49.3501H49.3334V56.4004H56.3813V49.3501Z" fill="#4B4B4B"/>
<path d="M56.3813 56.4004H49.3334V63.4507H56.3813V56.4004Z" fill="#4B4B4B"/>
<path d="M56.3813 63.4497H49.3334V70.5H56.3813V63.4497Z" fill="#4B4B4B"/>
<path d="M56.3813 70.5H49.3334V77.5503H56.3813V70.5Z" fill="#4B4B4B"/>
<path d="M56.3813 77.5503H49.3334V84.6006H56.3813V77.5503Z" fill="#FF9593"/>
<path d="M56.3813 84.5996H49.3334V91.6499H56.3813V84.5996Z" fill="#FF9593"/>
<path d="M56.3813 91.6499H49.3334V98.7002H56.3813V91.6499Z" fill="#FF9593"/>
<path d="M56.3813 98.7002H49.3334V105.75H56.3813V98.7002Z" fill="#FF9593"/>
<path d="M56.3813 105.75H49.3334V112.801H56.3813V105.75Z" fill="#FF9593"/>
<path d="M56.3813 112.8H49.3334V119.85H56.3813V112.8Z" fill="#FF9593"/>
<path d="M56.3813 119.85H49.3334V126.9H56.3813V119.85Z" fill="#CE716F"/>
<path d="M56.3813 126.9H49.3334V133.951H56.3813V126.9Z" fill="#CE716F"/>
<path d="M63.4291 0H56.3812V7.0503H63.4291V0Z" fill="#FF9593"/>
<path d="M63.4291 7.05029H56.3812V14.1006H63.4291V7.05029Z" fill="#FF9593"/>
<path d="M63.4291 14.0996H56.3812V21.1499H63.4291V14.0996Z" fill="#FF9593"/>
<path d="M63.4291 21.1499H56.3812V28.2002H63.4291V21.1499Z" fill="#FF9593"/>
<path d="M63.4291 28.2002H56.3812V35.2505H63.4291V28.2002Z" fill="#FF9593"/>
<path d="M63.4291 35.2505H56.3812V42.3008H63.4291V35.2505Z" fill="#FF9593"/>
<path d="M63.4291 42.2998H56.3812V49.3501H63.4291V42.2998Z" fill="white"/>
<path d="M63.4291 49.3501H56.3812V56.4004H63.4291V49.3501Z" fill="white"/>
<path d="M63.4291 56.4004H56.3812V63.4507H63.4291V56.4004Z" fill="#4B4B4B"/>
<path d="M63.4291 63.4497H56.3812V70.5H63.4291V63.4497Z" fill="#4B4B4B"/>
<path d="M63.4291 70.5H56.3812V77.5503H63.4291V70.5Z" fill="#FF9593"/>
<path d="M63.4291 77.5503H56.3812V84.6006H63.4291V77.5503Z" fill="#FF9593"/>
<path d="M63.4291 84.5996H56.3812V91.6499H63.4291V84.5996Z" fill="#FF9593"/>
<path d="M63.4291 91.6499H56.3812V98.7002H63.4291V91.6499Z" fill="#FF9593"/>
<path d="M63.4291 98.7002H56.3812V105.75H63.4291V98.7002Z" fill="#FF9593"/>
<path d="M63.4291 105.75H56.3812V112.801H63.4291V105.75Z" fill="#FF9593"/>
<path d="M63.4291 112.8H56.3812V119.85H63.4291V112.8Z" fill="#FF9593"/>
<path d="M63.4291 119.85H56.3812V126.9H63.4291V119.85Z" fill="#FF9593"/>
<path d="M63.4291 126.9H56.3812V133.951H63.4291V126.9Z" fill="#CE716F"/>
<path d="M70.476 0H63.4281V7.0503H70.476V0Z" fill="#FF9593"/>
<path d="M70.476 7.05029H63.4281V14.1006H70.476V7.05029Z" fill="#FF9593"/>
<path d="M70.476 14.0996H63.4281V21.1499H70.476V14.0996Z" fill="#FF9593"/>
<path d="M70.476 21.1499H63.4281V28.2002H70.476V21.1499Z" fill="#FF9593"/>
<path d="M70.476 28.2002H63.4281V35.2505H70.476V28.2002Z" fill="#FF9593"/>
<path d="M70.476 35.2505H63.4281V42.3008H70.476V35.2505Z" fill="#FF9593"/>
<path d="M70.476 42.2998H63.4281V49.3501H70.476V42.2998Z" fill="#FF9593"/>
<path d="M70.476 49.3501H63.4281V56.4004H70.476V49.3501Z" fill="#FF9593"/>
<path d="M70.476 56.4004H63.4281V63.4507H70.476V56.4004Z" fill="#FF9593"/>
<path d="M70.476 63.4497H63.4281V70.5H70.476V63.4497Z" fill="#FF9593"/>
<path d="M70.476 70.5H63.4281V77.5503H70.476V70.5Z" fill="#FF9593"/>
<path d="M70.476 77.5503H63.4281V84.6006H70.476V77.5503Z" fill="#FF9593"/>
<path d="M70.476 84.5996H63.4281V91.6499H70.476V84.5996Z" fill="#4B4B4B"/>
<path d="M70.476 91.6499H63.4281V98.7002H70.476V91.6499Z" fill="#FF9593"/>
<path d="M70.476 98.7002H63.4281V105.75H70.476V98.7002Z" fill="#FF9593"/>
<path d="M70.476 105.75H63.4281V112.801H70.476V105.75Z" fill="#4B4B4B"/>
<path d="M70.476 112.8H63.4281V119.85H70.476V112.8Z" fill="#FF9593"/>
<path d="M70.476 119.85H63.4281V126.9H70.476V119.85Z" fill="#FF9593"/>
<path d="M70.476 126.9H63.4281V133.951H70.476V126.9Z" fill="#FF9593"/>
<path d="M70.476 133.95H63.4281V141H70.476V133.95Z" fill="#FF9593"/>
<path d="M77.524 0H70.4761V7.0503H77.524V0Z" fill="#FF9593"/>
<path d="M77.524 7.05029H70.4761V14.1006H77.524V7.05029Z" fill="#FF9593"/>
<path d="M77.524 14.0996H70.4761V21.1499H77.524V14.0996Z" fill="#FF9593"/>
<path d="M77.524 21.1499H70.4761V28.2002H77.524V21.1499Z" fill="#FF9593"/>
<path d="M77.524 28.2002H70.4761V35.2505H77.524V28.2002Z" fill="#FF9593"/>
<path d="M77.524 35.2505H70.4761V42.3008H77.524V35.2505Z" fill="#FF9593"/>
<path d="M77.524 42.2998H70.4761V49.3501H77.524V42.2998Z" fill="#FF9593"/>
<path d="M77.524 49.3501H70.4761V56.4004H77.524V49.3501Z" fill="#FF9593"/>
<path d="M77.524 56.4004H70.4761V63.4507H77.524V56.4004Z" fill="#FF9593"/>
<path d="M77.524 63.4497H70.4761V70.5H77.524V63.4497Z" fill="#FF9593"/>
<path d="M77.524 70.5H70.4761V77.5503H77.524V70.5Z" fill="#FF9593"/>
<path d="M77.524 77.5503H70.4761V84.6006H77.524V77.5503Z" fill="#FF9593"/>
<path d="M77.524 84.5996H70.4761V91.6499H77.524V84.5996Z" fill="#FF9593"/>
<path d="M77.524 91.6499H70.4761V98.7002H77.524V91.6499Z" fill="#FF9593"/>
<path d="M77.524 98.7002H70.4761V105.75H77.524V98.7002Z" fill="#FF9593"/>
<path d="M77.524 105.75H70.4761V112.801H77.524V105.75Z" fill="#4B4B4B"/>
<path d="M77.524 112.8H70.4761V119.85H77.524V112.8Z" fill="#FF9593"/>
<path d="M77.524 119.85H70.4761V126.9H77.524V119.85Z" fill="#FF9593"/>
<path d="M77.524 126.9H70.4761V133.951H77.524V126.9Z" fill="#FF9593"/>
<path d="M77.524 133.95H70.4761V141H77.524V133.95Z" fill="#FF9593"/>
<path d="M84.5718 0H77.5239V7.0503H84.5718V0Z" fill="#FF9593"/>
<path d="M84.5718 7.05029H77.5239V14.1006H84.5718V7.05029Z" fill="#FF9593"/>
<path d="M84.5718 14.0996H77.5239V21.1499H84.5718V14.0996Z" fill="#FF9593"/>
<path d="M84.5718 21.1499H77.5239V28.2002H84.5718V21.1499Z" fill="#FF9593"/>
<path d="M84.5718 28.2002H77.5239V35.2505H84.5718V28.2002Z" fill="#FF9593"/>
<path d="M84.5718 35.2505H77.5239V42.3008H84.5718V35.2505Z" fill="#FF9593"/>
<path d="M84.5718 42.2998H77.5239V49.3501H84.5718V42.2998Z" fill="#FF9593"/>
<path d="M84.5718 49.3501H77.5239V56.4004H84.5718V49.3501Z" fill="#FF9593"/>
<path d="M84.5718 56.4004H77.5239V63.4507H84.5718V56.4004Z" fill="#FF9593"/>
<path d="M84.5718 63.4497H77.5239V70.5H84.5718V63.4497Z" fill="#FF9593"/>
<path d="M84.5718 70.5H77.5239V77.5503H84.5718V70.5Z" fill="#FF9593"/>
<path d="M84.5718 77.5503H77.5239V84.6006H84.5718V77.5503Z" fill="#FF9593"/>
<path d="M84.5718 84.5996H77.5239V91.6499H84.5718V84.5996Z" fill="#4B4B4B"/>
<path d="M84.5718 91.6499H77.5239V98.7002H84.5718V91.6499Z" fill="#FF9593"/>
<path d="M84.5718 98.7002H77.5239V105.75H84.5718V98.7002Z" fill="#FF9593"/>
<path d="M84.5718 105.75H77.5239V112.801H84.5718V105.75Z" fill="#4B4B4B"/>
<path d="M84.5718 112.8H77.5239V119.85H84.5718V112.8Z" fill="#FF9593"/>
<path d="M84.5718 119.85H77.5239V126.9H84.5718V119.85Z" fill="#FF9593"/>
<path d="M84.5718 126.9H77.5239V133.951H84.5718V126.9Z" fill="#FF9593"/>
<path d="M84.5718 133.95H77.5239V141H84.5718V133.95Z" fill="#FF9593"/>
<path d="M91.6187 0H84.5708V7.0503H91.6187V0Z" fill="#FF9593"/>
<path d="M91.6187 7.05029H84.5708V14.1006H91.6187V7.05029Z" fill="#FF9593"/>
<path d="M91.6187 14.0996H84.5708V21.1499H91.6187V14.0996Z" fill="#FF9593"/>
<path d="M91.6187 21.1499H84.5708V28.2002H91.6187V21.1499Z" fill="#FF9593"/>
<path d="M91.6187 28.2002H84.5708V35.2505H91.6187V28.2002Z" fill="#FF9593"/>
<path d="M91.6187 35.2505H84.5708V42.3008H91.6187V35.2505Z" fill="#FF9593"/>
<path d="M91.6187 42.2998H84.5708V49.3501H91.6187V42.2998Z" fill="#4B4B4B"/>
<path d="M91.6187 49.3501H84.5708V56.4004H91.6187V49.3501Z" fill="#4B4B4B"/>
<path d="M91.6187 56.4004H84.5708V63.4507H91.6187V56.4004Z" fill="#4B4B4B"/>
<path d="M91.6187 63.4497H84.5708V70.5H91.6187V63.4497Z" fill="#4B4B4B"/>
<path d="M91.6187 70.5H84.5708V77.5503H91.6187V70.5Z" fill="#FF9593"/>
<path d="M91.6187 77.5503H84.5708V84.6006H91.6187V77.5503Z" fill="#FF9593"/>
<path d="M91.6187 84.5996H84.5708V91.6499H91.6187V84.5996Z" fill="#FF9593"/>
<path d="M91.6187 91.6499H84.5708V98.7002H91.6187V91.6499Z" fill="#FF9593"/>
<path d="M91.6187 98.7002H84.5708V105.75H91.6187V98.7002Z" fill="#FF9593"/>
<path d="M91.6187 105.75H84.5708V112.801H91.6187V105.75Z" fill="#FF9593"/>
<path d="M91.6187 112.8H84.5708V119.85H91.6187V112.8Z" fill="#FF9593"/>
<path d="M91.6187 119.85H84.5708V126.9H91.6187V119.85Z" fill="#FF9593"/>
<path d="M91.6187 126.9H84.5708V133.951H91.6187V126.9Z" fill="#CE716F"/>
<path d="M98.6667 0H91.6188V7.0503H98.6667V0Z" fill="#FF9593"/>
<path d="M98.6667 7.05029H91.6188V14.1006H98.6667V7.05029Z" fill="#FF9593"/>
<path d="M98.6667 14.0996H91.6188V21.1499H98.6667V14.0996Z" fill="#FF9593"/>
<path d="M98.6667 21.1499H91.6188V28.2002H98.6667V21.1499Z" fill="#FF9593"/>
<path d="M98.6667 28.2002H91.6188V35.2505H98.6667V28.2002Z" fill="#FF9593"/>
<path d="M98.6667 35.2505H91.6188V42.3008H98.6667V35.2505Z" fill="#4B4B4B"/>
<path d="M98.6667 42.2998H91.6188V49.3501H98.6667V42.2998Z" fill="#4B4B4B"/>
<path d="M98.6667 49.3501H91.6188V56.4004H98.6667V49.3501Z" fill="#4B4B4B"/>
<path d="M98.6667 56.4004H91.6188V63.4507H98.6667V56.4004Z" fill="#4B4B4B"/>
<path d="M98.6667 63.4497H91.6188V70.5H98.6667V63.4497Z" fill="#4B4B4B"/>
<path d="M98.6667 70.5H91.6188V77.5503H98.6667V70.5Z" fill="#4B4B4B"/>
<path d="M98.6667 77.5503H91.6188V84.6006H98.6667V77.5503Z" fill="#FF9593"/>
<path d="M98.6667 84.5996H91.6188V91.6499H98.6667V84.5996Z" fill="#FF9593"/>
<path d="M98.6667 91.6499H91.6188V98.7002H98.6667V91.6499Z" fill="#FF9593"/>
<path d="M98.6667 98.7002H91.6188V105.75H98.6667V98.7002Z" fill="#FF9593"/>
<path d="M98.6667 105.75H91.6188V112.801H98.6667V105.75Z" fill="#FF9593"/>
<path d="M98.6667 112.8H91.6188V119.85H98.6667V112.8Z" fill="#FF9593"/>
<path d="M98.6667 119.85H91.6188V126.9H98.6667V119.85Z" fill="#FF9593"/>
<path d="M98.6667 126.9H91.6188V133.951H98.6667V126.9Z" fill="#CE716F"/>
<path d="M105.715 7.05029H98.6666V14.1006H105.715V7.05029Z" fill="#FF9593"/>
<path d="M105.715 14.0996H98.6666V21.1499H105.715V14.0996Z" fill="#FF9593"/>
<path d="M105.715 21.1499H98.6666V28.2002H105.715V21.1499Z" fill="#FF9593"/>
<path d="M105.715 28.2002H98.6666V35.2505H105.715V28.2002Z" fill="#4B4B4B"/>
<path d="M105.715 35.2505H98.6666V42.3008H105.715V35.2505Z" fill="#4B4B4B"/>
<path d="M105.715 42.2998H98.6666V49.3501H105.715V42.2998Z" fill="#4B4B4B"/>
<path d="M105.715 49.3501H98.6666V56.4004H105.715V49.3501Z" fill="#4B4B4B"/>
<path d="M105.715 56.4004H98.6666V63.4507H105.715V56.4004Z" fill="#4B4B4B"/>
<path d="M105.715 63.4497H98.6666V70.5H105.715V63.4497Z" fill="#4B4B4B"/>
<path d="M105.715 70.5H98.6666V77.5503H105.715V70.5Z" fill="#4B4B4B"/>
<path d="M105.715 77.5503H98.6666V84.6006H105.715V77.5503Z" fill="#4B4B4B"/>
<path d="M105.715 84.5996H98.6666V91.6499H105.715V84.5996Z" fill="#FF9593"/>
<path d="M105.715 91.6499H98.6666V98.7002H105.715V91.6499Z" fill="#FF9593"/>
<path d="M105.715 98.7002H98.6666V105.75H105.715V98.7002Z" fill="#FF9593"/>
<path d="M105.715 105.75H98.6666V112.801H105.715V105.75Z" fill="#FF9593"/>
<path d="M105.715 112.8H98.6666V119.85H105.715V112.8Z" fill="#FF9593"/>
<path d="M105.715 119.85H98.6666V126.9H105.715V119.85Z" fill="#CE716F"/>
<path d="M112.763 7.05029H105.715V14.1006H112.763V7.05029Z" fill="#FF9593"/>
<path d="M112.763 14.0996H105.715V21.1499H112.763V14.0996Z" fill="#FF9593"/>
<path d="M112.763 21.1499H105.715V28.2002H112.763V21.1499Z" fill="#FF9593"/>
<path d="M112.763 28.2002H105.715V35.2505H112.763V28.2002Z" fill="#4B4B4B"/>
<path d="M112.763 35.2505H105.715V42.3008H112.763V35.2505Z" fill="#4B4B4B"/>
<path d="M112.763 42.2998H105.715V49.3501H112.763V42.2998Z" fill="#4B4B4B"/>
<path d="M112.763 49.3501H105.715V56.4004H112.763V49.3501Z" fill="#4B4B4B"/>
<path d="M112.763 56.4004H105.715V63.4507H112.763V56.4004Z" fill="#4B4B4B"/>
<path d="M112.763 63.4497H105.715V70.5H112.763V63.4497Z" fill="#4B4B4B"/>
<path d="M112.763 70.5H105.715V77.5503H112.763V70.5Z" fill="#4B4B4B"/>
<path d="M112.763 77.5503H105.715V84.6006H112.763V77.5503Z" fill="#4B4B4B"/>
<path d="M112.763 84.5996H105.715V91.6499H112.763V84.5996Z" fill="#FF9593"/>
<path d="M112.763 91.6499H105.715V98.7002H112.763V91.6499Z" fill="#FF9593"/>
<path d="M112.763 98.7002H105.715V105.75H112.763V98.7002Z" fill="#FF9593"/>
<path d="M112.763 105.75H105.715V112.801H112.763V105.75Z" fill="#FF9593"/>
<path d="M112.763 112.8H105.715V119.85H112.763V112.8Z" fill="#CE716F"/>
<path d="M119.809 14.0996H112.761V21.1499H119.809V14.0996Z" fill="#FF9593"/>
<path d="M119.809 21.1499H112.761V28.2002H119.809V21.1499Z" fill="#FF9593"/>
<path d="M119.809 28.2002H112.761V35.2505H119.809V28.2002Z" fill="#4B4B4B"/>
<path d="M119.809 35.2505H112.761V42.3008H119.809V35.2505Z" fill="white"/>
<path d="M119.809 42.2998H112.761V49.3501H119.809V42.2998Z" fill="#4B4B4B"/>
<path d="M119.809 49.3501H112.761V56.4004H119.809V49.3501Z" fill="#4B4B4B"/>
<path d="M119.809 56.4004H112.761V63.4507H119.809V56.4004Z" fill="#4B4B4B"/>
<path d="M119.809 63.4497H112.761V70.5H119.809V63.4497Z" fill="#4B4B4B"/>
<path d="M119.809 70.5H112.761V77.5503H119.809V70.5Z" fill="#4B4B4B"/>
<path d="M119.809 77.5503H112.761V84.6006H119.809V77.5503Z" fill="#4B4B4B"/>
<path d="M119.809 84.5996H112.761V91.6499H119.809V84.5996Z" fill="#FF9593"/>
<path d="M119.809 91.6499H112.761V98.7002H119.809V91.6499Z" fill="#FF9593"/>
<path d="M119.809 98.7002H112.761V105.75H119.809V98.7002Z" fill="#FF9593"/>
<path d="M119.809 105.75H112.761V112.801H119.809V105.75Z" fill="#CE716F"/>
<path d="M126.857 14.0996H119.809V21.1499H126.857V14.0996Z" fill="#FF9593"/>
<path d="M126.857 21.1499H119.809V28.2002H126.857V21.1499Z" fill="#FF9593"/>
<path d="M126.857 28.2002H119.809V35.2505H126.857V28.2002Z" fill="#FF9593"/>
<path d="M126.857 35.2505H119.809V42.3008H126.857V35.2505Z" fill="white"/>
<path d="M126.857 42.2998H119.809V49.3501H126.857V42.2998Z" fill="white"/>
<path d="M126.857 49.3501H119.809V56.4004H126.857V49.3501Z" fill="#4B4B4B"/>
<path d="M126.857 56.4004H119.809V63.4507H126.857V56.4004Z" fill="#4B4B4B"/>
<path d="M126.857 63.4497H119.809V70.5H126.857V63.4497Z" fill="#4B4B4B"/>
<path d="M126.857 70.5H119.809V77.5503H126.857V70.5Z" fill="#4B4B4B"/>
<path d="M126.857 77.5503H119.809V84.6006H126.857V77.5503Z" fill="#FF9593"/>
<path d="M126.857 84.5996H119.809V91.6499H126.857V84.5996Z" fill="#FF9593"/>
<path d="M126.857 91.6499H119.809V98.7002H126.857V91.6499Z" fill="#FF9593"/>
<path d="M126.857 98.7002H119.809V105.75H126.857V98.7002Z" fill="#CE716F"/>
<path d="M133.905 21.1499H126.857V28.2002H133.905V21.1499Z" fill="#FF9593"/>
<path d="M133.905 28.2002H126.857V35.2505H133.905V28.2002Z" fill="#FF9593"/>
<path d="M133.905 35.2505H126.857V42.3008H133.905V35.2505Z" fill="#FF9593"/>
<path d="M133.905 42.2998H126.857V49.3501H133.905V42.2998Z" fill="white"/>
<path d="M133.905 49.3501H126.857V56.4004H133.905V49.3501Z" fill="white"/>
<path d="M133.905 56.4004H126.857V63.4507H133.905V56.4004Z" fill="#4B4B4B"/>
<path d="M133.905 63.4497H126.857V70.5H133.905V63.4497Z" fill="#4B4B4B"/>
<path d="M133.905 70.5H126.857V77.5503H133.905V70.5Z" fill="#FF9593"/>
<path d="M133.905 77.5503H126.857V84.6006H133.905V77.5503Z" fill="#FF9593"/>
<path d="M133.905 84.5996H126.857V91.6499H133.905V84.5996Z" fill="#FF9593"/>
<path d="M133.905 91.6499H126.857V98.7002H133.905V91.6499Z" fill="#CE716F"/>
<path d="M140.952 28.2002H133.904V35.2505H140.952V28.2002Z" fill="#FF9593"/>
<path d="M140.952 35.2505H133.904V42.3008H140.952V35.2505Z" fill="#FF9593"/>
<path d="M140.952 42.2998H133.904V49.3501H140.952V42.2998Z" fill="#FF9593"/>
<path d="M140.952 49.3501H133.904V56.4004H140.952V49.3501Z" fill="#FF9593"/>
<path d="M140.952 56.4004H133.904V63.4507H140.952V56.4004Z" fill="#FF9593"/>
<path d="M140.952 63.4497H133.904V70.5H140.952V63.4497Z" fill="#FF9593"/>
<path d="M140.952 70.5H133.904V77.5503H140.952V70.5Z" fill="#FF9593"/>
<path d="M140.952 77.5503H133.904V84.6006H140.952V77.5503Z" fill="#FF9593"/>
<path d="M148 42.2998H140.952V49.3501H148V42.2998Z" fill="#FF9593"/>
<path d="M148 49.3501H140.952V56.4004H148V49.3501Z" fill="#FF9593"/>
<path d="M148 56.4004H140.952V63.4507H148V56.4004Z" fill="#FF9593"/>
<path d="M148 63.4497H140.952V70.5H148V63.4497Z" fill="#FF9593"/>
</g>
<defs>
<clipPath id="clip0_72_18028">
<rect width="148" height="141" fill="white"/>
</clipPath>
</defs>
</svg>
