<svg width="60" height="60" viewBox="0 0 60 60" fill="none" xmlns="http://www.w3.org/2000/svg">
<path d="M11.2508 0H7.5V3.7508H11.2508V0Z" fill="black"/>
<path d="M14.9998 0H11.249V3.7508H14.9998V0Z" fill="black"/>
<path d="M18.7498 0H14.999V3.7508H18.7498V0Z" fill="black"/>
<path d="M22.4998 0H18.749V3.7508H22.4998V0Z" fill="black"/>
<path d="M26.2498 0H22.499V3.7508H26.2498V0Z" fill="black"/>
<path d="M30.0008 0H26.25V3.7508H30.0008V0Z" fill="black"/>
<path d="M33.7498 0H29.999V3.7508H33.7498V0Z" fill="black"/>
<path d="M37.5008 0H33.75V3.7508H37.5008V0Z" fill="black"/>
<path d="M41.2498 0H37.499V3.7508H41.2498V0Z" fill="black"/>
<path d="M44.9998 0H41.249V3.7508H44.9998V0Z" fill="black"/>
<path d="M48.7498 0H44.999V3.7508H48.7498V0Z" fill="black"/>
<path d="M52.4998 0H48.749V3.7508H52.4998V0Z" fill="black"/>
<path d="M7.49982 3.75085H3.74902V7.50166H7.49982V3.75085Z" fill="black"/>
<path d="M11.2508 3.75085H7.5V7.50166H11.2508V3.75085Z" fill="white"/>
<path d="M14.9998 3.75085H11.249V7.50166H14.9998V3.75085Z" fill="white"/>
<path d="M18.7498 3.75085H14.999V7.50166H18.7498V3.75085Z" fill="white"/>
<path d="M22.4998 3.75085H18.749V7.50166H22.4998V3.75085Z" fill="white"/>
<path d="M26.2498 3.75085H22.499V7.50166H26.2498V3.75085Z" fill="white"/>
<path d="M30.0008 3.75085H26.25V7.50166H30.0008V3.75085Z" fill="white"/>
<path d="M33.7498 3.75085H29.999V7.50166H33.7498V3.75085Z" fill="white"/>
<path d="M37.5008 3.75085H33.75V7.50166H37.5008V3.75085Z" fill="white"/>
<path d="M41.2498 3.75085H37.499V7.50166H41.2498V3.75085Z" fill="white"/>
<path d="M44.9998 3.75085H41.249V7.50166H44.9998V3.75085Z" fill="white"/>
<path d="M48.7498 3.75085H44.999V7.50166H48.7498V3.75085Z" fill="white"/>
<path d="M52.4998 3.75085H48.749V7.50166H52.4998V3.75085Z" fill="white"/>
<path d="M56.2488 3.75085H52.498V7.50166H56.2488V3.75085Z" fill="black"/>
<path d="M3.7508 7.49976H0V11.2506H3.7508V7.49976Z" fill="black"/>
<path d="M7.49982 7.49976H3.74902V11.2506H7.49982V7.49976Z" fill="white"/>
<path d="M11.2508 7.49976H7.5V11.2506H11.2508V7.49976Z" fill="white"/>
<path d="M14.9998 7.49976H11.249V11.2506H14.9998V7.49976Z" fill="white"/>
<path d="M18.7498 7.49976H14.999V11.2506H18.7498V7.49976Z" fill="white"/>
<path d="M22.4998 7.49976H18.749V11.2506H22.4998V7.49976Z" fill="white"/>
<path d="M26.2498 7.49976H22.499V11.2506H26.2498V7.49976Z" fill="white"/>
<path d="M30.0008 7.49976H26.25V11.2506H30.0008V7.49976Z" fill="white"/>
<path d="M33.7498 7.49976H29.999V11.2506H33.7498V7.49976Z" fill="white"/>
<path d="M37.5008 7.49976H33.75V11.2506H37.5008V7.49976Z" fill="white"/>
<path d="M41.2498 7.49976H37.499V11.2506H41.2498V7.49976Z" fill="white"/>
<path d="M44.9998 7.49976H41.249V11.2506H44.9998V7.49976Z" fill="white"/>
<path d="M48.7498 7.49976H44.999V11.2506H48.7498V7.49976Z" fill="white"/>
<path d="M52.4998 7.49976H48.749V11.2506H52.4998V7.49976Z" fill="white"/>
<path d="M56.2488 7.49976H52.498V11.2506H56.2488V7.49976Z" fill="white"/>
<path d="M59.9998 7.49976H56.249V11.2506H59.9998V7.49976Z" fill="black"/>
<path d="M3.7508 11.2505H0V15.0013H3.7508V11.2505Z" fill="black"/>
<path d="M7.49982 11.2505H3.74902V15.0013H7.49982V11.2505Z" fill="white"/>
<path d="M11.2508 11.2505H7.5V15.0013H11.2508V11.2505Z" fill="white"/>
<path d="M14.9998 11.2505H11.249V15.0013H14.9998V11.2505Z" fill="white"/>
<path d="M18.7498 11.2505H14.999V15.0013H18.7498V11.2505Z" fill="white"/>
<path d="M22.4998 11.2505H18.749V15.0013H22.4998V11.2505Z" fill="white"/>
<path d="M26.2498 11.2505H22.499V15.0013H26.2498V11.2505Z" fill="white"/>
<path d="M30.0008 11.2505H26.25V15.0013H30.0008V11.2505Z" fill="white"/>
<path d="M33.7498 11.2505H29.999V15.0013H33.7498V11.2505Z" fill="white"/>
<path d="M37.5008 11.2505H33.75V15.0013H37.5008V11.2505Z" fill="white"/>
<path d="M41.2498 11.2505H37.499V15.0013H41.2498V11.2505Z" fill="white"/>
<path d="M44.9998 11.2505H41.249V15.0013H44.9998V11.2505Z" fill="white"/>
<path d="M48.7498 11.2505H44.999V15.0013H48.7498V11.2505Z" fill="white"/>
<path d="M52.4998 11.2505H48.749V15.0013H52.4998V11.2505Z" fill="white"/>
<path d="M56.2488 11.2505H52.498V15.0013H56.2488V11.2505Z" fill="white"/>
<path d="M59.9998 11.2505H56.249V15.0013H59.9998V11.2505Z" fill="black"/>
<path d="M3.7508 15.0013H0V18.7521H3.7508V15.0013Z" fill="black"/>
<path d="M7.49982 15.0013H3.74902V18.7521H7.49982V15.0013Z" fill="white"/>
<path d="M11.2508 15.0013H7.5V18.7521H11.2508V15.0013Z" fill="white"/>
<path d="M14.9998 15.0013H11.249V18.7521H14.9998V15.0013Z" fill="white"/>
<path d="M18.7498 15.0013H14.999V18.7521H18.7498V15.0013Z" fill="white"/>
<path d="M22.4998 15.0013H18.749V18.7521H22.4998V15.0013Z" fill="white"/>
<path d="M26.2498 15.0013H22.499V18.7521H26.2498V15.0013Z" fill="white"/>
<path d="M30.0008 15.0013H26.25V18.7521H30.0008V15.0013Z" fill="white"/>
<path d="M33.7498 15.0013H29.999V18.7521H33.7498V15.0013Z" fill="white"/>
<path d="M37.5008 15.0013H33.75V18.7521H37.5008V15.0013Z" fill="white"/>
<path d="M41.2498 15.0013H37.499V18.7521H41.2498V15.0013Z" fill="white"/>
<path d="M44.9998 15.0013H41.249V18.7521H44.9998V15.0013Z" fill="white"/>
<path d="M48.7498 15.0013H44.999V18.7521H48.7498V15.0013Z" fill="white"/>
<path d="M52.4998 15.0013H48.749V18.7521H52.4998V15.0013Z" fill="white"/>
<path d="M56.2488 15.0013H52.498V18.7521H56.2488V15.0013Z" fill="white"/>
<path d="M59.9998 15.0013H56.249V18.7521H59.9998V15.0013Z" fill="black"/>
<path d="M3.7508 18.7504H0V22.5012H3.7508V18.7504Z" fill="black"/>
<path d="M7.49982 18.7504H3.74902V22.5012H7.49982V18.7504Z" fill="white"/>
<path d="M11.2508 18.7504H7.5V22.5012H11.2508V18.7504Z" fill="white"/>
<path d="M14.9998 18.7504H11.249V22.5012H14.9998V18.7504Z" fill="white"/>
<path d="M18.7498 18.7504H14.999V22.5012H18.7498V18.7504Z" fill="white"/>
<path d="M22.4998 18.7504H18.749V22.5012H22.4998V18.7504Z" fill="white"/>
<path d="M26.2498 18.7504H22.499V22.5012H26.2498V18.7504Z" fill="white"/>
<path d="M30.0008 18.7504H26.25V22.5012H30.0008V18.7504Z" fill="white"/>
<path d="M33.7498 18.7504H29.999V22.5012H33.7498V18.7504Z" fill="white"/>
<path d="M37.5008 18.7504H33.75V22.5012H37.5008V18.7504Z" fill="white"/>
<path d="M41.2498 18.7504H37.499V22.5012H41.2498V18.7504Z" fill="white"/>
<path d="M44.9998 18.7504H41.249V22.5012H44.9998V18.7504Z" fill="white"/>
<path d="M48.7498 18.7504H44.999V22.5012H48.7498V18.7504Z" fill="white"/>
<path d="M52.4998 18.7504H48.749V22.5012H52.4998V18.7504Z" fill="white"/>
<path d="M56.2488 18.7504H52.498V22.5012H56.2488V18.7504Z" fill="white"/>
<path d="M59.9998 18.7504H56.249V22.5012H59.9998V18.7504Z" fill="black"/>
<path d="M3.7508 22.5012H0V26.252H3.7508V22.5012Z" fill="black"/>
<path d="M7.49982 22.5012H3.74902V26.252H7.49982V22.5012Z" fill="white"/>
<path d="M11.2508 22.5012H7.5V26.252H11.2508V22.5012Z" fill="white"/>
<path d="M14.9998 22.5012H11.249V26.252H14.9998V22.5012Z" fill="white"/>
<path d="M18.7498 22.5012H14.999V26.252H18.7498V22.5012Z" fill="white"/>
<path d="M22.4998 22.5012H18.749V26.252H22.4998V22.5012Z" fill="white"/>
<path d="M26.2498 22.5012H22.499V26.252H26.2498V22.5012Z" fill="white"/>
<path d="M30.0008 22.5012H26.25V26.252H30.0008V22.5012Z" fill="white"/>
<path d="M33.7498 22.5012H29.999V26.252H33.7498V22.5012Z" fill="white"/>
<path d="M37.5008 22.5012H33.75V26.252H37.5008V22.5012Z" fill="white"/>
<path d="M41.2498 22.5012H37.499V26.252H41.2498V22.5012Z" fill="white"/>
<path d="M44.9998 22.5012H41.249V26.252H44.9998V22.5012Z" fill="white"/>
<path d="M48.7498 22.5012H44.999V26.252H48.7498V22.5012Z" fill="white"/>
<path d="M52.4998 22.5012H48.749V26.252H52.4998V22.5012Z" fill="white"/>
<path d="M56.2488 22.5012H52.498V26.252H56.2488V22.5012Z" fill="white"/>
<path d="M59.9998 22.5012H56.249V26.252H59.9998V22.5012Z" fill="black"/>
<path d="M3.7508 26.2502H0V30.001H3.7508V26.2502Z" fill="black"/>
<path d="M7.49982 26.2502H3.74902V30.001H7.49982V26.2502Z" fill="white"/>
<path d="M11.2508 26.2502H7.5V30.001H11.2508V26.2502Z" fill="white"/>
<path d="M14.9998 26.2502H11.249V30.001H14.9998V26.2502Z" fill="white"/>
<path d="M18.7498 26.2502H14.999V30.001H18.7498V26.2502Z" fill="white"/>
<path d="M22.4998 26.2502H18.749V30.001H22.4998V26.2502Z" fill="white"/>
<path d="M26.2498 26.2502H22.499V30.001H26.2498V26.2502Z" fill="white"/>
<path d="M30.0008 26.2502H26.25V30.001H30.0008V26.2502Z" fill="white"/>
<path d="M33.7498 26.2502H29.999V30.001H33.7498V26.2502Z" fill="white"/>
<path d="M37.5008 26.2502H33.75V30.001H37.5008V26.2502Z" fill="white"/>
<path d="M41.2498 26.2502H37.499V30.001H41.2498V26.2502Z" fill="white"/>
<path d="M44.9998 26.2502H41.249V30.001H44.9998V26.2502Z" fill="white"/>
<path d="M48.7498 26.2502H44.999V30.001H48.7498V26.2502Z" fill="white"/>
<path d="M52.4998 26.2502H48.749V30.001H52.4998V26.2502Z" fill="white"/>
<path d="M56.2488 26.2502H52.498V30.001H56.2488V26.2502Z" fill="white"/>
<path d="M59.9998 26.2502H56.249V30.001H59.9998V26.2502Z" fill="black"/>
<path d="M3.7508 30.001H0V33.7518H3.7508V30.001Z" fill="black"/>
<path d="M7.49982 30.001H3.74902V33.7518H7.49982V30.001Z" fill="white"/>
<path d="M11.2508 30.001H7.5V33.7518H11.2508V30.001Z" fill="white"/>
<path d="M14.9998 30.001H11.249V33.7518H14.9998V30.001Z" fill="white"/>
<path d="M18.7498 30.001H14.999V33.7518H18.7498V30.001Z" fill="white"/>
<path d="M22.4998 30.001H18.749V33.7518H22.4998V30.001Z" fill="white"/>
<path d="M26.2498 30.001H22.499V33.7518H26.2498V30.001Z" fill="white"/>
<path d="M30.0008 30.001H26.25V33.7518H30.0008V30.001Z" fill="white"/>
<path d="M33.7498 30.001H29.999V33.7518H33.7498V30.001Z" fill="white"/>
<path d="M37.5008 30.001H33.75V33.7518H37.5008V30.001Z" fill="white"/>
<path d="M41.2498 30.001H37.499V33.7518H41.2498V30.001Z" fill="white"/>
<path d="M44.9998 30.001H41.249V33.7518H44.9998V30.001Z" fill="white"/>
<path d="M48.7498 30.001H44.999V33.7518H48.7498V30.001Z" fill="white"/>
<path d="M52.4998 30.001H48.749V33.7518H52.4998V30.001Z" fill="white"/>
<path d="M56.2488 30.001H52.498V33.7518H56.2488V30.001Z" fill="white"/>
<path d="M59.9998 30.001H56.249V33.7518H59.9998V30.001Z" fill="black"/>
<path d="M3.7508 33.7498H0V37.5006H3.7508V33.7498Z" fill="black"/>
<path d="M7.49982 33.7498H3.74902V37.5006H7.49982V33.7498Z" fill="white"/>
<path d="M11.2508 33.7498H7.5V37.5006H11.2508V33.7498Z" fill="white"/>
<path d="M14.9998 33.7498H11.249V37.5006H14.9998V33.7498Z" fill="white"/>
<path d="M18.7498 33.7498H14.999V37.5006H18.7498V33.7498Z" fill="white"/>
<path d="M22.4998 33.7498H18.749V37.5006H22.4998V33.7498Z" fill="white"/>
<path d="M26.2498 33.7498H22.499V37.5006H26.2498V33.7498Z" fill="white"/>
<path d="M30.0008 33.7498H26.25V37.5006H30.0008V33.7498Z" fill="white"/>
<path d="M33.7498 33.7498H29.999V37.5006H33.7498V33.7498Z" fill="white"/>
<path d="M37.5008 33.7498H33.75V37.5006H37.5008V33.7498Z" fill="white"/>
<path d="M41.2498 33.7498H37.499V37.5006H41.2498V33.7498Z" fill="white"/>
<path d="M44.9998 33.7498H41.249V37.5006H44.9998V33.7498Z" fill="white"/>
<path d="M48.7498 33.7498H44.999V37.5006H48.7498V33.7498Z" fill="white"/>
<path d="M52.4998 33.7498H48.749V37.5006H52.4998V33.7498Z" fill="white"/>
<path d="M56.2488 33.7498H52.498V37.5006H56.2488V33.7498Z" fill="white"/>
<path d="M59.9998 33.7498H56.249V37.5006H59.9998V33.7498Z" fill="black"/>
<path d="M3.7508 37.5006H0V41.2514H3.7508V37.5006Z" fill="black"/>
<path d="M7.49982 37.5006H3.74902V41.2514H7.49982V37.5006Z" fill="white"/>
<path d="M11.2508 37.5006H7.5V41.2514H11.2508V37.5006Z" fill="white"/>
<path d="M14.9998 37.5006H11.249V41.2514H14.9998V37.5006Z" fill="white"/>
<path d="M18.7498 37.5006H14.999V41.2514H18.7498V37.5006Z" fill="white"/>
<path d="M22.4998 37.5006H18.749V41.2514H22.4998V37.5006Z" fill="white"/>
<path d="M26.2498 37.5006H22.499V41.2514H26.2498V37.5006Z" fill="white"/>
<path d="M30.0008 37.5006H26.25V41.2514H30.0008V37.5006Z" fill="white"/>
<path d="M33.7498 37.5006H29.999V41.2514H33.7498V37.5006Z" fill="white"/>
<path d="M37.5008 37.5006H33.75V41.2514H37.5008V37.5006Z" fill="white"/>
<path d="M41.2498 37.5006H37.499V41.2514H41.2498V37.5006Z" fill="white"/>
<path d="M44.9998 37.5006H41.249V41.2514H44.9998V37.5006Z" fill="white"/>
<path d="M48.7498 37.5006H44.999V41.2514H48.7498V37.5006Z" fill="white"/>
<path d="M52.4998 37.5006H48.749V41.2514H52.4998V37.5006Z" fill="white"/>
<path d="M56.2488 37.5006H52.498V41.2514H56.2488V37.5006Z" fill="white"/>
<path d="M59.9998 37.5006H56.249V41.2514H59.9998V37.5006Z" fill="black"/>
<path d="M3.7508 41.2496H0V45.0004H3.7508V41.2496Z" fill="black"/>
<path d="M7.49982 41.2496H3.74902V45.0004H7.49982V41.2496Z" fill="white"/>
<path d="M11.2508 41.2496H7.5V45.0004H11.2508V41.2496Z" fill="white"/>
<path d="M14.9998 41.2496H11.249V45.0004H14.9998V41.2496Z" fill="white"/>
<path d="M18.7498 41.2496H14.999V45.0004H18.7498V41.2496Z" fill="white"/>
<path d="M22.4998 41.2496H18.749V45.0004H22.4998V41.2496Z" fill="white"/>
<path d="M26.2498 41.2496H22.499V45.0004H26.2498V41.2496Z" fill="white"/>
<path d="M30.0008 41.2496H26.25V45.0004H30.0008V41.2496Z" fill="white"/>
<path d="M33.7498 41.2496H29.999V45.0004H33.7498V41.2496Z" fill="white"/>
<path d="M37.5008 41.2496H33.75V45.0004H37.5008V41.2496Z" fill="white"/>
<path d="M41.2498 41.2496H37.499V45.0004H41.2498V41.2496Z" fill="white"/>
<path d="M44.9998 41.2496H41.249V45.0004H44.9998V41.2496Z" fill="white"/>
<path d="M48.7498 41.2496H44.999V45.0004H48.7498V41.2496Z" fill="white"/>
<path d="M52.4998 41.2496H48.749V45.0004H52.4998V41.2496Z" fill="white"/>
<path d="M56.2488 41.2496H52.498V45.0004H56.2488V41.2496Z" fill="white"/>
<path d="M59.9998 41.2496H56.249V45.0004H59.9998V41.2496Z" fill="black"/>
<path d="M3.7508 45.0005H0V48.7513H3.7508V45.0005Z" fill="black"/>
<path d="M7.49982 45.0005H3.74902V48.7513H7.49982V45.0005Z" fill="white"/>
<path d="M11.2508 45.0005H7.5V48.7513H11.2508V45.0005Z" fill="white"/>
<path d="M14.9998 45.0005H11.249V48.7513H14.9998V45.0005Z" fill="white"/>
<path d="M18.7498 45.0005H14.999V48.7513H18.7498V45.0005Z" fill="white"/>
<path d="M22.4998 45.0005H18.749V48.7513H22.4998V45.0005Z" fill="white"/>
<path d="M26.2498 45.0005H22.499V48.7513H26.2498V45.0005Z" fill="white"/>
<path d="M30.0008 45.0005H26.25V48.7513H30.0008V45.0005Z" fill="white"/>
<path d="M33.7498 45.0005H29.999V48.7513H33.7498V45.0005Z" fill="white"/>
<path d="M37.5008 45.0005H33.75V48.7513H37.5008V45.0005Z" fill="white"/>
<path d="M41.2498 45.0005H37.499V48.7513H41.2498V45.0005Z" fill="white"/>
<path d="M44.9998 45.0005H41.249V48.7513H44.9998V45.0005Z" fill="white"/>
<path d="M48.7498 45.0005H44.999V48.7513H48.7498V45.0005Z" fill="white"/>
<path d="M52.4998 45.0005H48.749V48.7513H52.4998V45.0005Z" fill="white"/>
<path d="M56.2488 45.0005H52.498V48.7513H56.2488V45.0005Z" fill="white"/>
<path d="M59.9998 45.0005H56.249V48.7513H59.9998V45.0005Z" fill="black"/>
<path d="M3.7508 48.7495H0V52.5003H3.7508V48.7495Z" fill="black"/>
<path d="M7.49982 48.7495H3.74902V52.5003H7.49982V48.7495Z" fill="white"/>
<path d="M11.2508 48.7495H7.5V52.5003H11.2508V48.7495Z" fill="white"/>
<path d="M14.9998 48.7495H11.249V52.5003H14.9998V48.7495Z" fill="white"/>
<path d="M18.7498 48.7495H14.999V52.5003H18.7498V48.7495Z" fill="white"/>
<path d="M22.4998 48.7495H18.749V52.5003H22.4998V48.7495Z" fill="white"/>
<path d="M26.2498 48.7495H22.499V52.5003H26.2498V48.7495Z" fill="white"/>
<path d="M30.0008 48.7495H26.25V52.5003H30.0008V48.7495Z" fill="white"/>
<path d="M33.7498 48.7495H29.999V52.5003H33.7498V48.7495Z" fill="white"/>
<path d="M37.5008 48.7495H33.75V52.5003H37.5008V48.7495Z" fill="white"/>
<path d="M41.2498 48.7495H37.499V52.5003H41.2498V48.7495Z" fill="white"/>
<path d="M44.9998 48.7495H41.249V52.5003H44.9998V48.7495Z" fill="white"/>
<path d="M48.7498 48.7495H44.999V52.5003H48.7498V48.7495Z" fill="white"/>
<path d="M52.4998 48.7495H48.749V52.5003H52.4998V48.7495Z" fill="white"/>
<path d="M56.2488 48.7495H52.498V52.5003H56.2488V48.7495Z" fill="white"/>
<path d="M59.9998 48.7495H56.249V52.5003H59.9998V48.7495Z" fill="black"/>
<path d="M7.49982 52.5002H3.74902V56.251H7.49982V52.5002Z" fill="black"/>
<path d="M11.2508 52.5002H7.5V56.251H11.2508V52.5002Z" fill="white"/>
<path d="M14.9998 52.5002H11.249V56.251H14.9998V52.5002Z" fill="white"/>
<path d="M18.7498 52.5002H14.999V56.251H18.7498V52.5002Z" fill="white"/>
<path d="M22.4998 52.5002H18.749V56.251H22.4998V52.5002Z" fill="white"/>
<path d="M26.2498 52.5002H22.499V56.251H26.2498V52.5002Z" fill="white"/>
<path d="M30.0008 52.5002H26.25V56.251H30.0008V52.5002Z" fill="white"/>
<path d="M33.7498 52.5002H29.999V56.251H33.7498V52.5002Z" fill="white"/>
<path d="M37.5008 52.5002H33.75V56.251H37.5008V52.5002Z" fill="white"/>
<path d="M41.2498 52.5002H37.499V56.251H41.2498V52.5002Z" fill="white"/>
<path d="M44.9998 52.5002H41.249V56.251H44.9998V52.5002Z" fill="white"/>
<path d="M48.7498 52.5002H44.999V56.251H48.7498V52.5002Z" fill="white"/>
<path d="M52.4998 52.5002H48.749V56.251H52.4998V52.5002Z" fill="white"/>
<path d="M56.2488 52.5002H52.498V56.251H56.2488V52.5002Z" fill="black"/>
<path d="M11.2508 56.2491H7.5V59.9999H11.2508V56.2491Z" fill="black"/>
<path d="M14.9998 56.2491H11.249V59.9999H14.9998V56.2491Z" fill="black"/>
<path d="M18.7498 56.2491H14.999V59.9999H18.7498V56.2491Z" fill="black"/>
<path d="M22.4998 56.2491H18.749V59.9999H22.4998V56.2491Z" fill="black"/>
<path d="M26.2498 56.2491H22.499V59.9999H26.2498V56.2491Z" fill="black"/>
<path d="M30.0008 56.2491H26.25V59.9999H30.0008V56.2491Z" fill="black"/>
<path d="M33.7498 56.2491H29.999V59.9999H33.7498V56.2491Z" fill="black"/>
<path d="M37.5008 56.2491H33.75V59.9999H37.5008V56.2491Z" fill="black"/>
<path d="M41.2498 56.2491H37.499V59.9999H41.2498V56.2491Z" fill="black"/>
<path d="M44.9998 56.2491H41.249V59.9999H44.9998V56.2491Z" fill="black"/>
<path d="M48.7498 56.2491H44.999V59.9999H48.7498V56.2491Z" fill="black"/>
<path d="M52.4998 56.2491H48.749V59.9999H52.4998V56.2491Z" fill="black"/>
<path d="M38.0903 48.151H42.1055V52.1661H38.0903V48.151Z" fill="black"/>
<path d="M26.0449 48.151H30.0601V52.1661H26.0449V48.151Z" fill="black"/>
<path d="M34.0752 48.151H38.0903V52.1661H34.0752V48.151Z" fill="black"/>
<path d="M30.0605 48.151H34.0757V52.1661H30.0605V48.151Z" fill="black"/>
<path d="M22.0303 48.151H26.0454V52.1661H22.0303V48.151Z" fill="black"/>
<path d="M18.0151 48.151H22.0303V52.1661H18.0151V48.151Z" fill="black"/>
<path d="M38.0903 16.0302H42.1055V20.0453H38.0903V16.0302Z" fill="black"/>
<path d="M26.0449 16.0302H30.0601V20.0453H26.0449V16.0302Z" fill="black"/>
<path d="M34.0752 16.0302H38.0903V20.0453H34.0752V16.0302Z" fill="black"/>
<path d="M30.0605 16.0302H34.0757V20.0453H30.0605V16.0302Z" fill="black"/>
<path d="M22.0303 16.0302H26.0454V20.0453H22.0303V16.0302Z" fill="black"/>
<path d="M18.0151 16.0302H22.0303V20.0453H18.0151V16.0302Z" fill="black"/>
<path d="M34.0752 12.015H38.0903V16.0302H34.0752V12.015Z" fill="black"/>
<path d="M14 36.1057H18.0151V40.1209H14V36.1057Z" fill="black"/>
<path d="M14 40.1207H18.0151V44.1359H14V40.1207Z" fill="black"/>
<path d="M14 32.0906H18.0151V36.1057H14V32.0906Z" fill="black"/>
<path d="M14 28.0754H18.0151V32.0906H14V28.0754Z" fill="black"/>
<path d="M42.1055 36.1057H46.1206V40.1209H42.1055V36.1057Z" fill="black"/>
<path d="M42.1055 40.1207H46.1206V44.1359H42.1055V40.1207Z" fill="black"/>
<path d="M14 44.1359H18.0151V48.151H14V44.1359Z" fill="black"/>
<path d="M42.1055 44.1359H46.1206V48.151H42.1055V44.1359Z" fill="black"/>
<path d="M42.1055 32.0906H46.1206V36.1057H42.1055V32.0906Z" fill="black"/>
<path d="M42.1055 28.0754H46.1206V32.0906H42.1055V28.0754Z" fill="black"/>
<path d="M14 24.0603H18.0151V28.0754H14V24.0603Z" fill="black"/>
<path d="M42.1055 24.0603H46.1206V28.0754H42.1055V24.0603Z" fill="black"/>
<path d="M14 20.0453H18.0151V24.0604H14V20.0453Z" fill="black"/>
<path d="M42.1055 20.0453H46.1206V24.0604H42.1055V20.0453Z" fill="black"/>
<path d="M26.0449 8H30.0601V12.0151H26.0449V8Z" fill="black"/>
<path d="M22.0303 12.015H26.0454V16.0302H22.0303V12.015Z" fill="black"/>
<path d="M34.0752 20.0453H38.0903V24.0604H34.0752V20.0453Z" fill="black"/>
<path d="M22.0303 20.0453H26.0454V24.0604H22.0303V20.0453Z" fill="black"/>
<path d="M34.0752 24.0603H38.0903V28.0754H34.0752V24.0603Z" fill="black"/>
<path d="M22.0303 24.0603H26.0454V28.0754H22.0303V24.0603Z" fill="black"/>
<path d="M30.0605 8H34.0757V12.0151H30.0605V8Z" fill="black"/>
</svg>
