<svg width="1756" height="1053" viewBox="0 0 1756 1053" fill="none" xmlns="http://www.w3.org/2000/svg">
<g clip-path="url(#clip0_437_119110)">
<rect width="1756" height="1053" fill="#17102A"/>
<path d="M277.548 13.0888H0V553H1755V13.0888H1721.83V31.3195H1564.36V13.0888H1511.09V0H1324.19V13.0888H1252.24V31.3195H1201.31V49.0828H1080.29V31.3195H816.757V13.0888H642.472V31.3195H592.476V49.0828H313.059V31.3195H277.548V13.0888Z" fill="#17102A"/>
<path d="M70.539 194.079H0V873H1756V51H1736.85V71.5734H1716.29V166.024H1705.08V187.532H1648.56V206.236H1617.72V226.341H1586.43V239.433H1564.94V254.396H1251.48V274.034H1231.86V254.396H1162.26V274.034H1128.62V291.334H1098.26V304.427H936.627V291.334H920.744V265.618H606.355V245.044H369.512V226.341H345.221V211.846H290.565V194.079H262.069V175.375H204.61V155.737H104.173V175.375H70.539V194.079Z" fill="#1D1631"/>
<path d="M34.6588 340H1V993H1755V367.111H1565.67V360.099H1441.32V341.87H1426.36V360.099H1395.97V376.927H1375.87V393.754H1357.64V413.854H1338.47V432.084H1318.84V447.509H1285.65V393.754H1269.75V376.927H1218.33V400.298H1180.46V413.854H1165.97V393.754H1092.11V420.398H1074.34V435.823H1059.38V447.509H954.2V432.084H906.984V413.854H847.614V400.298H817.227V380.666H779.828V367.111H695.681V380.666H660.62V413.854H642.388V432.084H503.078V413.854H414.723V400.298H363.3V376.927H347.873V370.85H315.617V380.666H241.754V400.298H225.392V376.927H102.912V400.298H83.7447V376.927H50.0858V359.165H34.6588V340Z" fill="#221938"/>
<path d="M277.548 645.089H0V1053H1755V645.089H1721.83V663.32H1564.36V645.089H1511.09V632H1324.19V645.089H1252.24V663.32H1201.31V681.083H1080.29V663.32H816.757V645.089H642.472V663.32H592.476V681.083H313.059V663.32H277.548V645.089Z" fill="#271D40"/>
<path d="M435.89 110.33H432.11V121.67H435.89V110.33Z" fill="white"/>
<path d="M439.68 117.889V114.109H428.34V117.889H439.68Z" fill="white"/>
<path d="M435.889 102.77H432.109V110.33H435.889V102.77Z" fill="#BCBEC0"/>
<path d="M435.89 121.67H432.11V129.23H435.89V121.67Z" fill="#BCBEC0"/>
<path d="M439.67 114.12V117.9H447.23V114.12H439.67Z" fill="#BCBEC0"/>
<path d="M420.77 114.111V117.891H428.33V114.111H420.77Z" fill="#BCBEC0"/>
<path d="M451.01 114.109H447.23V117.889H451.01V114.109Z" fill="#808284"/>
<path d="M420.78 114.109H417V117.889H420.78V114.109Z" fill="#808284"/>
<path d="M435.889 129.23H432.109V133.01H435.889V129.23Z" fill="#808284"/>
<path d="M435.89 99H432.11V102.78H435.89V99Z" fill="#808284"/>
<path d="M432.11 110.33H428.33V114.11H432.11V110.33Z" fill="#808284"/>
<path d="M439.67 110.33H435.89V114.11H439.67V110.33Z" fill="#808284"/>
<path d="M432.11 117.891H428.33V121.671H432.11V117.891Z" fill="#808284"/>
<path d="M439.671 117.891H435.891V121.671H439.671V117.891Z" fill="#808284"/>
<path d="M1059.89 291.34H1056.11V302.68H1059.89V291.34Z" fill="white"/>
<path d="M1063.67 298.899V295.119H1052.33V298.899H1063.67Z" fill="white"/>
<path d="M1059.89 283.781H1056.11V291.341H1059.89V283.781Z" fill="#BCBEC0"/>
<path d="M1059.89 302.67H1056.11V310.23H1059.89V302.67Z" fill="#BCBEC0"/>
<path d="M1063.68 295.12V298.9H1071.24V295.12H1063.68Z" fill="#BCBEC0"/>
<path d="M1044.78 295.111V298.891H1052.34V295.111H1044.78Z" fill="#BCBEC0"/>
<path d="M1075.01 295.109H1071.23V298.889H1075.01V295.109Z" fill="#808284"/>
<path d="M1044.78 295.109H1041V298.889H1044.78V295.109Z" fill="#808284"/>
<path d="M1059.89 310.23H1056.11V314.01H1059.89V310.23Z" fill="#808284"/>
<path d="M1059.89 280H1056.11V283.78H1059.89V280Z" fill="#808284"/>
<path d="M1056.12 291.34H1052.34V295.12H1056.12V291.34Z" fill="#808284"/>
<path d="M1063.67 291.34H1059.89V295.12H1063.67V291.34Z" fill="#808284"/>
<path d="M1056.12 298.891H1052.34V302.671H1056.12V298.891Z" fill="#808284"/>
<path d="M1063.67 298.891H1059.89V302.671H1063.67V298.891Z" fill="#808284"/>
<path d="M1475.89 62.3398H1472.11V73.6799H1475.89V62.3398Z" fill="white"/>
<path d="M1479.67 69.8991V66.1191H1468.33V69.8991H1479.67Z" fill="white"/>
<path d="M1475.89 54.7812H1472.11V62.3412H1475.89V54.7812Z" fill="#BCBEC0"/>
<path d="M1475.89 73.6699H1472.11V81.2299H1475.89V73.6699Z" fill="#BCBEC0"/>
<path d="M1479.68 66.1204V69.9004H1487.24V66.1204H1479.68Z" fill="#BCBEC0"/>
<path d="M1460.78 66.1106V69.8906H1468.34V66.1106H1460.78Z" fill="#BCBEC0"/>
<path d="M1491.01 66.1094H1487.23V69.8893H1491.01V66.1094Z" fill="#808284"/>
<path d="M1460.78 66.1094H1457V69.8893H1460.78V66.1094Z" fill="#808284"/>
<path d="M1475.89 81.2305H1472.11V85.0105H1475.89V81.2305Z" fill="#808284"/>
<path d="M1475.89 51H1472.11V54.78H1475.89V51Z" fill="#808284"/>
<path d="M1472.12 62.3398H1468.34V66.1199H1472.12V62.3398Z" fill="#808284"/>
<path d="M1479.67 62.3398H1475.89V66.1199H1479.67V62.3398Z" fill="#808284"/>
<path d="M1472.12 69.8906H1468.34V73.6707H1472.12V69.8906Z" fill="#808284"/>
<path d="M1479.67 69.8906H1475.89V73.6707H1479.67V69.8906Z" fill="#808284"/>
<path d="M454.56 289.781H450.78V293.561H454.56V289.781Z" fill="white"/>
<path d="M454.56 286H450.78V289.78H454.56V286Z" fill="#939598"/>
<path d="M458.341 289.781H454.561V293.561H458.341V289.781Z" fill="#939598"/>
<path d="M450.78 289.781H447V293.561H450.78V289.781Z" fill="#939598"/>
<path d="M454.56 293.559H450.78V297.339H454.56V293.559Z" fill="#939598"/>
<path d="M732.56 374.781H728.78V378.561H732.56V374.781Z" fill="white"/>
<path d="M732.56 371H728.78V374.78H732.56V371Z" fill="#939598"/>
<path d="M736.341 374.781H732.561V378.561H736.341V374.781Z" fill="#939598"/>
<path d="M728.78 374.781H725V378.561H728.78V374.781Z" fill="#939598"/>
<path d="M732.56 378.559H728.78V382.339H732.56V378.559Z" fill="#939598"/>
<path d="M668.56 216.781H664.78V220.561H668.56V216.781Z" fill="white"/>
<path d="M668.56 213H664.78V216.78H668.56V213Z" fill="#939598"/>
<path d="M672.341 216.781H668.561V220.561H672.341V216.781Z" fill="#939598"/>
<path d="M664.78 216.781H661V220.561H664.78V216.781Z" fill="#939598"/>
<path d="M668.56 220.559H664.78V224.339H668.56V220.559Z" fill="#939598"/>
<path d="M1276.56 210.781H1272.78V214.561H1276.56V210.781Z" fill="white"/>
<path d="M1276.56 207H1272.78V210.78H1276.56V207Z" fill="#939598"/>
<path d="M1280.34 210.781H1276.56V214.561H1280.34V210.781Z" fill="#939598"/>
<path d="M1272.78 210.781H1269V214.561H1272.78V210.781Z" fill="#939598"/>
<path d="M1276.56 214.559H1272.78V218.339H1276.56V214.559Z" fill="#939598"/>
<path d="M1453.56 374.781H1449.78V378.561H1453.56V374.781Z" fill="white"/>
<path d="M1453.56 371H1449.78V374.78H1453.56V371Z" fill="#939598"/>
<path d="M1457.34 374.781H1453.56V378.561H1457.34V374.781Z" fill="#939598"/>
<path d="M1449.78 374.781H1446V378.561H1449.78V374.781Z" fill="#939598"/>
<path d="M1453.56 378.559H1449.78V382.339H1453.56V378.559Z" fill="#939598"/>
<path d="M1456.56 178.781H1452.78V182.561H1456.56V178.781Z" fill="white"/>
<path d="M1456.56 175H1452.78V178.78H1456.56V175Z" fill="#939598"/>
<path d="M1460.34 178.781H1456.56V182.561H1460.34V178.781Z" fill="#939598"/>
<path d="M1452.78 178.781H1449V182.561H1452.78V178.781Z" fill="#939598"/>
<path d="M1456.56 182.559H1452.78V186.339H1456.56V182.559Z" fill="#939598"/>
<path d="M1362.56 100.781H1358.78V104.561H1362.56V100.781Z" fill="white"/>
<path d="M1362.56 97H1358.78V100.78H1362.56V97Z" fill="#939598"/>
<path d="M1366.34 100.781H1362.56V104.561H1366.34V100.781Z" fill="#939598"/>
<path d="M1358.78 100.781H1355V104.561H1358.78V100.781Z" fill="#939598"/>
<path d="M1362.56 104.559H1358.78V108.339H1362.56V104.559Z" fill="#939598"/>
<path d="M1106.56 141.781H1102.78V145.561H1106.56V141.781Z" fill="white"/>
<path d="M1106.56 138H1102.78V141.78H1106.56V138Z" fill="#939598"/>
<path d="M1110.34 141.781H1106.56V145.561H1110.34V141.781Z" fill="#939598"/>
<path d="M1102.78 141.781H1099V145.561H1102.78V141.781Z" fill="#939598"/>
<path d="M1106.56 145.559H1102.78V149.339H1106.56V145.559Z" fill="#939598"/>
<path d="M1244.56 258.781H1240.78V262.561H1244.56V258.781Z" fill="white"/>
<path d="M1244.56 255H1240.78V258.78H1244.56V255Z" fill="#939598"/>
<path d="M1248.34 258.781H1244.56V262.561H1248.34V258.781Z" fill="#939598"/>
<path d="M1240.78 258.781H1237V262.561H1240.78V258.781Z" fill="#939598"/>
<path d="M1244.56 262.559H1240.78V266.339H1244.56V262.559Z" fill="#939598"/>
<path d="M952.56 426.781H948.78V430.561H952.56V426.781Z" fill="white"/>
<path d="M952.56 423H948.78V426.78H952.56V423Z" fill="#939598"/>
<path d="M956.341 426.781H952.561V430.561H956.341V426.781Z" fill="#939598"/>
<path d="M948.78 426.781H945V430.561H948.78V426.781Z" fill="#939598"/>
<path d="M952.56 430.559H948.78V434.339H952.56V430.559Z" fill="#939598"/>
<path d="M855.56 286.781H851.78V290.561H855.56V286.781Z" fill="white"/>
<path d="M855.56 283H851.78V286.78H855.56V283Z" fill="#939598"/>
<path d="M859.341 286.781H855.561V290.561H859.341V286.781Z" fill="#939598"/>
<path d="M851.78 286.781H848V290.561H851.78V286.781Z" fill="#939598"/>
<path d="M855.56 290.559H851.78V294.339H855.56V290.559Z" fill="#939598"/>
<path d="M296.56 176.781H292.78V180.561H296.56V176.781Z" fill="white"/>
<path d="M296.56 173H292.78V176.78H296.56V173Z" fill="#939598"/>
<path d="M300.341 176.781H296.561V180.561H300.341V176.781Z" fill="#939598"/>
<path d="M292.78 176.781H289V180.561H292.78V176.781Z" fill="#939598"/>
<path d="M296.56 180.559H292.78V184.339H296.56V180.559Z" fill="#939598"/>
<path d="M307.56 151.781H303.78V155.561H307.56V151.781Z" fill="white"/>
<path d="M307.56 148H303.78V151.78H307.56V148Z" fill="#939598"/>
<path d="M311.341 151.781H307.561V155.561H311.341V151.781Z" fill="#939598"/>
<path d="M303.78 151.781H300V155.561H303.78V151.781Z" fill="#939598"/>
<path d="M307.56 155.559H303.78V159.339H307.56V155.559Z" fill="#939598"/>
<path d="M217.56 77.7812H213.78V81.5612H217.56V77.7812Z" fill="white"/>
<path d="M217.56 74H213.78V77.78H217.56V74Z" fill="#939598"/>
<path d="M221.341 77.7812H217.561V81.5612H221.341V77.7812Z" fill="#939598"/>
<path d="M213.78 77.7812H210V81.5612H213.78V77.7812Z" fill="#939598"/>
<path d="M217.56 81.5586H213.78V85.3386H217.56V81.5586Z" fill="#939598"/>
<path d="M379.56 340.781H375.78V344.561H379.56V340.781Z" fill="white"/>
<path d="M379.56 337H375.78V340.78H379.56V337Z" fill="#939598"/>
<path d="M383.341 340.781H379.561V344.561H383.341V340.781Z" fill="#939598"/>
<path d="M375.78 340.781H372V344.561H375.78V340.781Z" fill="#939598"/>
<path d="M379.56 344.559H375.78V348.339H379.56V344.559Z" fill="#939598"/>
<path d="M230.56 461.781H226.78V465.561H230.56V461.781Z" fill="white"/>
<path d="M230.56 458H226.78V461.78H230.56V458Z" fill="#939598"/>
<path d="M234.341 461.781H230.561V465.561H234.341V461.781Z" fill="#939598"/>
<path d="M226.78 461.781H223V465.561H226.78V461.781Z" fill="#939598"/>
<path d="M230.56 465.559H226.78V469.339H230.56V465.559Z" fill="#939598"/>
<path d="M626.56 450.781H622.78V454.561H626.56V450.781Z" fill="white"/>
<path d="M626.56 447H622.78V450.78H626.56V447Z" fill="#939598"/>
<path d="M630.341 450.781H626.561V454.561H630.341V450.781Z" fill="#939598"/>
<path d="M622.78 450.781H619V454.561H622.78V450.781Z" fill="#939598"/>
<path d="M626.56 454.559H622.78V458.339H626.56V454.559Z" fill="#939598"/>
<path d="M507.56 392.781H503.78V396.561H507.56V392.781Z" fill="white"/>
<path d="M507.56 389H503.78V392.78H507.56V389Z" fill="#939598"/>
<path d="M511.341 392.781H507.561V396.561H511.341V392.781Z" fill="#939598"/>
<path d="M503.78 392.781H500V396.561H503.78V392.781Z" fill="#939598"/>
<path d="M507.56 396.559H503.78V400.339H507.56V396.559Z" fill="#939598"/>
<path d="M919.03 130.77H915.25V134.549H919.03V130.77Z" fill="white"/>
<path d="M919.03 127H915.25V130.78H919.03V127Z" fill="#939598"/>
<path d="M922.809 130.77H919.029V134.549H922.809V130.77Z" fill="#939598"/>
<path d="M915.25 130.77H911.47V134.549H915.25V130.77Z" fill="#939598"/>
<path d="M919.03 134.551H915.25V138.331H919.03V134.551Z" fill="#939598"/>
<path d="M1645.56 176.781H1641.78V180.561H1645.56V176.781Z" fill="white"/>
<path d="M1645.56 173H1641.78V176.78H1645.56V173Z" fill="#939598"/>
<path d="M1649.34 176.781H1645.56V180.561H1649.34V176.781Z" fill="#939598"/>
<path d="M1641.78 176.781H1638V180.561H1641.78V176.781Z" fill="#939598"/>
<path d="M1645.56 180.559H1641.78V184.339H1645.56V180.559Z" fill="#939598"/>
<path d="M1656.56 151.781H1652.78V155.561H1656.56V151.781Z" fill="white"/>
<path d="M1656.56 148H1652.78V151.78H1656.56V148Z" fill="#939598"/>
<path d="M1660.34 151.781H1656.56V155.561H1660.34V151.781Z" fill="#939598"/>
<path d="M1652.78 151.781H1649V155.561H1652.78V151.781Z" fill="#939598"/>
<path d="M1656.56 155.559H1652.78V159.339H1656.56V155.559Z" fill="#939598"/>
<path d="M1566.56 77.7812H1562.78V81.5612H1566.56V77.7812Z" fill="white"/>
<path d="M1566.56 74H1562.78V77.78H1566.56V74Z" fill="#939598"/>
<path d="M1570.34 77.7812H1566.56V81.5612H1570.34V77.7812Z" fill="#939598"/>
<path d="M1562.78 77.7812H1559V81.5612H1562.78V77.7812Z" fill="#939598"/>
<path d="M1566.56 81.5586H1562.78V85.3386H1566.56V81.5586Z" fill="#939598"/>
<path d="M1728.56 340.781H1724.78V344.561H1728.56V340.781Z" fill="white"/>
<path d="M1728.56 337H1724.78V340.78H1728.56V337Z" fill="#939598"/>
<path d="M1732.34 340.781H1728.56V344.561H1732.34V340.781Z" fill="#939598"/>
<path d="M1724.78 340.781H1721V344.561H1724.78V340.781Z" fill="#939598"/>
<path d="M1728.56 344.559H1724.78V348.339H1728.56V344.559Z" fill="#939598"/>
<path d="M1579.56 461.781H1575.78V465.561H1579.56V461.781Z" fill="white"/>
<path d="M1579.56 458H1575.78V461.78H1579.56V458Z" fill="#939598"/>
<path d="M1583.34 461.781H1579.56V465.561H1583.34V461.781Z" fill="#939598"/>
<path d="M1575.78 461.781H1572V465.561H1575.78V461.781Z" fill="#939598"/>
<path d="M1579.56 465.559H1575.78V469.339H1579.56V465.559Z" fill="#939598"/>
<path d="M96.8904 62.3398H93.1104V73.6799H96.8904V62.3398Z" fill="white"/>
<path d="M100.67 69.8991V66.1191H89.3299V69.8991H100.67Z" fill="white"/>
<path d="M96.8904 54.7812H93.1104V62.3412H96.8904V54.7812Z" fill="#BCBEC0"/>
<path d="M96.8904 73.6699H93.1104V81.2299H96.8904V73.6699Z" fill="#BCBEC0"/>
<path d="M100.68 66.1204V69.9004H108.24V66.1204H100.68Z" fill="#BCBEC0"/>
<path d="M81.7803 66.1106V69.8906H89.3403V66.1106H81.7803Z" fill="#BCBEC0"/>
<path d="M112.01 66.1094H108.23V69.8893H112.01V66.1094Z" fill="#808284"/>
<path d="M81.78 66.1094H78V69.8893H81.78V66.1094Z" fill="#808284"/>
<path d="M96.8904 81.2305H93.1104V85.0105H96.8904V81.2305Z" fill="#808284"/>
<path d="M96.8904 51H93.1104V54.78H96.8904V51Z" fill="#808284"/>
<path d="M93.1199 62.3398H89.3398V66.1199H93.1199V62.3398Z" fill="#808284"/>
<path d="M100.67 62.3398H96.8896V66.1199H100.67V62.3398Z" fill="#808284"/>
<path d="M93.1199 69.8906H89.3398V73.6707H93.1199V69.8906Z" fill="#808284"/>
<path d="M100.67 69.8906H96.8896V73.6707H100.67V69.8906Z" fill="#808284"/>
<path d="M74.5602 374.781H70.7803V378.561H74.5602V374.781Z" fill="white"/>
<path d="M74.5602 371H70.7803V374.78H74.5602V371Z" fill="#939598"/>
<path d="M78.3396 374.781H74.5596V378.561H78.3396V374.781Z" fill="#939598"/>
<path d="M70.78 374.781H67V378.561H70.78V374.781Z" fill="#939598"/>
<path d="M74.5602 378.559H70.7803V382.339H74.5602V378.559Z" fill="#939598"/>
<path d="M77.5602 178.781H73.7803V182.561H77.5602V178.781Z" fill="white"/>
<path d="M77.5602 175H73.7803V178.78H77.5602V175Z" fill="#939598"/>
<path d="M81.3396 178.781H77.5596V182.561H81.3396V178.781Z" fill="#939598"/>
<path d="M73.78 178.781H70V182.561H73.78V178.781Z" fill="#939598"/>
<path d="M77.5602 182.559H73.7803V186.339H77.5602V182.559Z" fill="#939598"/>
<path d="M435.89 550.33H432.11V561.67H435.89V550.33Z" fill="white"/>
<path d="M439.68 557.889V554.109H428.34V557.889H439.68Z" fill="white"/>
<path d="M435.889 542.77H432.109V550.33H435.889V542.77Z" fill="#BCBEC0"/>
<path d="M435.89 561.67H432.11V569.23H435.89V561.67Z" fill="#BCBEC0"/>
<path d="M439.67 554.12V557.9H447.23V554.12H439.67Z" fill="#BCBEC0"/>
<path d="M420.77 554.111V557.891H428.33V554.111H420.77Z" fill="#BCBEC0"/>
<path d="M451.01 554.109H447.23V557.889H451.01V554.109Z" fill="#808284"/>
<path d="M420.78 554.109H417V557.889H420.78V554.109Z" fill="#808284"/>
<path d="M435.889 569.23H432.109V573.01H435.889V569.23Z" fill="#808284"/>
<path d="M435.89 539H432.11V542.78H435.89V539Z" fill="#808284"/>
<path d="M432.11 550.33H428.33V554.11H432.11V550.33Z" fill="#808284"/>
<path d="M439.67 550.33H435.89V554.11H439.67V550.33Z" fill="#808284"/>
<path d="M432.11 557.891H428.33V561.671H432.11V557.891Z" fill="#808284"/>
<path d="M439.671 557.891H435.891V561.671H439.671V557.891Z" fill="#808284"/>
<path d="M1059.89 731.34H1056.11V742.68H1059.89V731.34Z" fill="white"/>
<path d="M1063.67 738.899V735.119H1052.33V738.899H1063.67Z" fill="white"/>
<path d="M1059.89 723.781H1056.11V731.341H1059.89V723.781Z" fill="#BCBEC0"/>
<path d="M1059.89 742.67H1056.11V750.23H1059.89V742.67Z" fill="#BCBEC0"/>
<path d="M1063.68 735.12V738.9H1071.24V735.12H1063.68Z" fill="#BCBEC0"/>
<path d="M1044.78 735.111V738.891H1052.34V735.111H1044.78Z" fill="#BCBEC0"/>
<path d="M1075.01 735.109H1071.23V738.889H1075.01V735.109Z" fill="#808284"/>
<path d="M1044.78 735.109H1041V738.889H1044.78V735.109Z" fill="#808284"/>
<path d="M1059.89 750.23H1056.11V754.01H1059.89V750.23Z" fill="#808284"/>
<path d="M1059.89 720H1056.11V723.78H1059.89V720Z" fill="#808284"/>
<path d="M1056.12 731.34H1052.34V735.12H1056.12V731.34Z" fill="#808284"/>
<path d="M1063.67 731.34H1059.89V735.12H1063.67V731.34Z" fill="#808284"/>
<path d="M1056.12 738.891H1052.34V742.671H1056.12V738.891Z" fill="#808284"/>
<path d="M1063.67 738.891H1059.89V742.671H1063.67V738.891Z" fill="#808284"/>
<path d="M1475.89 502.34H1472.11V513.68H1475.89V502.34Z" fill="white"/>
<path d="M1479.67 509.899V506.119H1468.33V509.899H1479.67Z" fill="white"/>
<path d="M1475.89 494.781H1472.11V502.341H1475.89V494.781Z" fill="#BCBEC0"/>
<path d="M1475.89 513.67H1472.11V521.23H1475.89V513.67Z" fill="#BCBEC0"/>
<path d="M1479.68 506.12V509.9H1487.24V506.12H1479.68Z" fill="#BCBEC0"/>
<path d="M1460.78 506.111V509.891H1468.34V506.111H1460.78Z" fill="#BCBEC0"/>
<path d="M1491.01 506.109H1487.23V509.889H1491.01V506.109Z" fill="#808284"/>
<path d="M1460.78 506.109H1457V509.889H1460.78V506.109Z" fill="#808284"/>
<path d="M1475.89 521.23H1472.11V525.01H1475.89V521.23Z" fill="#808284"/>
<path d="M1475.89 491H1472.11V494.78H1475.89V491Z" fill="#808284"/>
<path d="M1472.12 502.34H1468.34V506.12H1472.12V502.34Z" fill="#808284"/>
<path d="M1479.67 502.34H1475.89V506.12H1479.67V502.34Z" fill="#808284"/>
<path d="M1472.12 509.891H1468.34V513.671H1472.12V509.891Z" fill="#808284"/>
<path d="M1479.67 509.891H1475.89V513.671H1479.67V509.891Z" fill="#808284"/>
<path d="M454.56 729.781H450.78V733.561H454.56V729.781Z" fill="white"/>
<path d="M454.56 726H450.78V729.78H454.56V726Z" fill="#939598"/>
<path d="M458.341 729.781H454.561V733.561H458.341V729.781Z" fill="#939598"/>
<path d="M450.78 729.781H447V733.561H450.78V729.781Z" fill="#939598"/>
<path d="M454.56 733.559H450.78V737.339H454.56V733.559Z" fill="#939598"/>
<path d="M732.56 814.781H728.78V818.561H732.56V814.781Z" fill="white"/>
<path d="M732.56 811H728.78V814.78H732.56V811Z" fill="#939598"/>
<path d="M736.341 814.781H732.561V818.561H736.341V814.781Z" fill="#939598"/>
<path d="M728.78 814.781H725V818.561H728.78V814.781Z" fill="#939598"/>
<path d="M732.56 818.559H728.78V822.339H732.56V818.559Z" fill="#939598"/>
<path d="M668.56 656.781H664.78V660.561H668.56V656.781Z" fill="white"/>
<path d="M668.56 653H664.78V656.78H668.56V653Z" fill="#939598"/>
<path d="M672.341 656.781H668.561V660.561H672.341V656.781Z" fill="#939598"/>
<path d="M664.78 656.781H661V660.561H664.78V656.781Z" fill="#939598"/>
<path d="M668.56 660.559H664.78V664.339H668.56V660.559Z" fill="#939598"/>
<path d="M1276.56 650.781H1272.78V654.561H1276.56V650.781Z" fill="white"/>
<path d="M1276.56 647H1272.78V650.78H1276.56V647Z" fill="#939598"/>
<path d="M1280.34 650.781H1276.56V654.561H1280.34V650.781Z" fill="#939598"/>
<path d="M1272.78 650.781H1269V654.561H1272.78V650.781Z" fill="#939598"/>
<path d="M1276.56 654.559H1272.78V658.339H1276.56V654.559Z" fill="#939598"/>
<path d="M1453.56 814.781H1449.78V818.561H1453.56V814.781Z" fill="white"/>
<path d="M1453.56 811H1449.78V814.78H1453.56V811Z" fill="#939598"/>
<path d="M1457.34 814.781H1453.56V818.561H1457.34V814.781Z" fill="#939598"/>
<path d="M1449.78 814.781H1446V818.561H1449.78V814.781Z" fill="#939598"/>
<path d="M1453.56 818.559H1449.78V822.339H1453.56V818.559Z" fill="#939598"/>
<path d="M1456.56 618.781H1452.78V622.561H1456.56V618.781Z" fill="white"/>
<path d="M1456.56 615H1452.78V618.78H1456.56V615Z" fill="#939598"/>
<path d="M1460.34 618.781H1456.56V622.561H1460.34V618.781Z" fill="#939598"/>
<path d="M1452.78 618.781H1449V622.561H1452.78V618.781Z" fill="#939598"/>
<path d="M1456.56 622.559H1452.78V626.339H1456.56V622.559Z" fill="#939598"/>
<path d="M1362.56 540.781H1358.78V544.561H1362.56V540.781Z" fill="white"/>
<path d="M1362.56 537H1358.78V540.78H1362.56V537Z" fill="#939598"/>
<path d="M1366.34 540.781H1362.56V544.561H1366.34V540.781Z" fill="#939598"/>
<path d="M1358.78 540.781H1355V544.561H1358.78V540.781Z" fill="#939598"/>
<path d="M1362.56 544.559H1358.78V548.339H1362.56V544.559Z" fill="#939598"/>
<path d="M1106.56 581.781H1102.78V585.561H1106.56V581.781Z" fill="white"/>
<path d="M1106.56 578H1102.78V581.78H1106.56V578Z" fill="#939598"/>
<path d="M1110.34 581.781H1106.56V585.561H1110.34V581.781Z" fill="#939598"/>
<path d="M1102.78 581.781H1099V585.561H1102.78V581.781Z" fill="#939598"/>
<path d="M1106.56 585.559H1102.78V589.339H1106.56V585.559Z" fill="#939598"/>
<path d="M1244.56 698.781H1240.78V702.561H1244.56V698.781Z" fill="white"/>
<path d="M1244.56 695H1240.78V698.78H1244.56V695Z" fill="#939598"/>
<path d="M1248.34 698.781H1244.56V702.561H1248.34V698.781Z" fill="#939598"/>
<path d="M1240.78 698.781H1237V702.561H1240.78V698.781Z" fill="#939598"/>
<path d="M1244.56 702.559H1240.78V706.339H1244.56V702.559Z" fill="#939598"/>
<path d="M952.56 866.781H948.78V870.561H952.56V866.781Z" fill="white"/>
<path d="M952.56 863H948.78V866.78H952.56V863Z" fill="#939598"/>
<path d="M956.341 866.781H952.561V870.561H956.341V866.781Z" fill="#939598"/>
<path d="M948.78 866.781H945V870.561H948.78V866.781Z" fill="#939598"/>
<path d="M952.56 870.559H948.78V874.339H952.56V870.559Z" fill="#939598"/>
<path d="M855.56 726.781H851.78V730.561H855.56V726.781Z" fill="white"/>
<path d="M855.56 723H851.78V726.78H855.56V723Z" fill="#939598"/>
<path d="M859.341 726.781H855.561V730.561H859.341V726.781Z" fill="#939598"/>
<path d="M851.78 726.781H848V730.561H851.78V726.781Z" fill="#939598"/>
<path d="M855.56 730.559H851.78V734.339H855.56V730.559Z" fill="#939598"/>
<path d="M296.56 616.781H292.78V620.561H296.56V616.781Z" fill="white"/>
<path d="M296.56 613H292.78V616.78H296.56V613Z" fill="#939598"/>
<path d="M300.341 616.781H296.561V620.561H300.341V616.781Z" fill="#939598"/>
<path d="M292.78 616.781H289V620.561H292.78V616.781Z" fill="#939598"/>
<path d="M296.56 620.559H292.78V624.339H296.56V620.559Z" fill="#939598"/>
<path d="M307.56 591.781H303.78V595.561H307.56V591.781Z" fill="white"/>
<path d="M307.56 588H303.78V591.78H307.56V588Z" fill="#939598"/>
<path d="M311.341 591.781H307.561V595.561H311.341V591.781Z" fill="#939598"/>
<path d="M303.78 591.781H300V595.561H303.78V591.781Z" fill="#939598"/>
<path d="M307.56 595.559H303.78V599.339H307.56V595.559Z" fill="#939598"/>
<path d="M217.56 517.781H213.78V521.561H217.56V517.781Z" fill="white"/>
<path d="M217.56 514H213.78V517.78H217.56V514Z" fill="#939598"/>
<path d="M221.341 517.781H217.561V521.561H221.341V517.781Z" fill="#939598"/>
<path d="M213.78 517.781H210V521.561H213.78V517.781Z" fill="#939598"/>
<path d="M217.56 521.559H213.78V525.339H217.56V521.559Z" fill="#939598"/>
<path d="M379.56 780.781H375.78V784.561H379.56V780.781Z" fill="white"/>
<path d="M379.56 777H375.78V780.78H379.56V777Z" fill="#939598"/>
<path d="M383.341 780.781H379.561V784.561H383.341V780.781Z" fill="#939598"/>
<path d="M375.78 780.781H372V784.561H375.78V780.781Z" fill="#939598"/>
<path d="M379.56 784.559H375.78V788.339H379.56V784.559Z" fill="#939598"/>
<path d="M230.56 901.781H226.78V905.561H230.56V901.781Z" fill="white"/>
<path d="M230.56 898H226.78V901.78H230.56V898Z" fill="#939598"/>
<path d="M234.341 901.781H230.561V905.561H234.341V901.781Z" fill="#939598"/>
<path d="M226.78 901.781H223V905.561H226.78V901.781Z" fill="#939598"/>
<path d="M230.56 905.559H226.78V909.339H230.56V905.559Z" fill="#939598"/>
<path d="M626.56 890.781H622.78V894.561H626.56V890.781Z" fill="white"/>
<path d="M626.56 887H622.78V890.78H626.56V887Z" fill="#939598"/>
<path d="M630.341 890.781H626.561V894.561H630.341V890.781Z" fill="#939598"/>
<path d="M622.78 890.781H619V894.561H622.78V890.781Z" fill="#939598"/>
<path d="M626.56 894.559H622.78V898.339H626.56V894.559Z" fill="#939598"/>
<path d="M507.56 832.781H503.78V836.561H507.56V832.781Z" fill="white"/>
<path d="M507.56 829H503.78V832.78H507.56V829Z" fill="#939598"/>
<path d="M511.341 832.781H507.561V836.561H511.341V832.781Z" fill="#939598"/>
<path d="M503.78 832.781H500V836.561H503.78V832.781Z" fill="#939598"/>
<path d="M507.56 836.559H503.78V840.339H507.56V836.559Z" fill="#939598"/>
<path d="M919.03 570.77H915.25V574.549H919.03V570.77Z" fill="white"/>
<path d="M919.03 567H915.25V570.78H919.03V567Z" fill="#939598"/>
<path d="M922.809 570.77H919.029V574.549H922.809V570.77Z" fill="#939598"/>
<path d="M915.25 570.77H911.47V574.549H915.25V570.77Z" fill="#939598"/>
<path d="M919.03 574.551H915.25V578.331H919.03V574.551Z" fill="#939598"/>
<path d="M1645.56 616.781H1641.78V620.561H1645.56V616.781Z" fill="white"/>
<path d="M1645.56 613H1641.78V616.78H1645.56V613Z" fill="#939598"/>
<path d="M1649.34 616.781H1645.56V620.561H1649.34V616.781Z" fill="#939598"/>
<path d="M1641.78 616.781H1638V620.561H1641.78V616.781Z" fill="#939598"/>
<path d="M1645.56 620.559H1641.78V624.339H1645.56V620.559Z" fill="#939598"/>
<path d="M1656.56 591.781H1652.78V595.561H1656.56V591.781Z" fill="white"/>
<path d="M1656.56 588H1652.78V591.78H1656.56V588Z" fill="#939598"/>
<path d="M1660.34 591.781H1656.56V595.561H1660.34V591.781Z" fill="#939598"/>
<path d="M1652.78 591.781H1649V595.561H1652.78V591.781Z" fill="#939598"/>
<path d="M1656.56 595.559H1652.78V599.339H1656.56V595.559Z" fill="#939598"/>
<path d="M1566.56 517.781H1562.78V521.561H1566.56V517.781Z" fill="white"/>
<path d="M1566.56 514H1562.78V517.78H1566.56V514Z" fill="#939598"/>
<path d="M1570.34 517.781H1566.56V521.561H1570.34V517.781Z" fill="#939598"/>
<path d="M1562.78 517.781H1559V521.561H1562.78V517.781Z" fill="#939598"/>
<path d="M1566.56 521.559H1562.78V525.339H1566.56V521.559Z" fill="#939598"/>
<path d="M1728.56 780.781H1724.78V784.561H1728.56V780.781Z" fill="white"/>
<path d="M1728.56 777H1724.78V780.78H1728.56V777Z" fill="#939598"/>
<path d="M1732.34 780.781H1728.56V784.561H1732.34V780.781Z" fill="#939598"/>
<path d="M1724.78 780.781H1721V784.561H1724.78V780.781Z" fill="#939598"/>
<path d="M1728.56 784.559H1724.78V788.339H1728.56V784.559Z" fill="#939598"/>
<path d="M1579.56 901.781H1575.78V905.561H1579.56V901.781Z" fill="white"/>
<path d="M1579.56 898H1575.78V901.78H1579.56V898Z" fill="#939598"/>
<path d="M1583.34 901.781H1579.56V905.561H1583.34V901.781Z" fill="#939598"/>
<path d="M1575.78 901.781H1572V905.561H1575.78V901.781Z" fill="#939598"/>
<path d="M1579.56 905.559H1575.78V909.339H1579.56V905.559Z" fill="#939598"/>
<path d="M96.8904 502.34H93.1104V513.68H96.8904V502.34Z" fill="white"/>
<path d="M100.67 509.899V506.119H89.3299V509.899H100.67Z" fill="white"/>
<path d="M96.8904 494.781H93.1104V502.341H96.8904V494.781Z" fill="#BCBEC0"/>
<path d="M96.8904 513.67H93.1104V521.23H96.8904V513.67Z" fill="#BCBEC0"/>
<path d="M100.68 506.12V509.9H108.24V506.12H100.68Z" fill="#BCBEC0"/>
<path d="M81.7803 506.111V509.891H89.3403V506.111H81.7803Z" fill="#BCBEC0"/>
<path d="M112.01 506.109H108.23V509.889H112.01V506.109Z" fill="#808284"/>
<path d="M81.78 506.109H78V509.889H81.78V506.109Z" fill="#808284"/>
<path d="M96.8904 521.23H93.1104V525.01H96.8904V521.23Z" fill="#808284"/>
<path d="M96.8904 491H93.1104V494.78H96.8904V491Z" fill="#808284"/>
<path d="M93.1199 502.34H89.3398V506.12H93.1199V502.34Z" fill="#808284"/>
<path d="M100.67 502.34H96.8896V506.12H100.67V502.34Z" fill="#808284"/>
<path d="M93.1199 509.891H89.3398V513.671H93.1199V509.891Z" fill="#808284"/>
<path d="M100.67 509.891H96.8896V513.671H100.67V509.891Z" fill="#808284"/>
<path d="M74.5602 814.781H70.7803V818.561H74.5602V814.781Z" fill="white"/>
<path d="M74.5602 811H70.7803V814.78H74.5602V811Z" fill="#939598"/>
<path d="M78.3396 814.781H74.5596V818.561H78.3396V814.781Z" fill="#939598"/>
<path d="M70.78 814.781H67V818.561H70.78V814.781Z" fill="#939598"/>
<path d="M74.5602 818.559H70.7803V822.339H74.5602V818.559Z" fill="#939598"/>
<path d="M77.5602 618.781H73.7803V622.561H77.5602V618.781Z" fill="white"/>
<path d="M77.5602 615H73.7803V618.78H77.5602V615Z" fill="#939598"/>
<path d="M81.3396 618.781H77.5596V622.561H81.3396V618.781Z" fill="#939598"/>
<path d="M73.78 618.781H70V622.561H73.78V618.781Z" fill="#939598"/>
<path d="M77.5602 622.559H73.7803V626.339H77.5602V622.559Z" fill="#939598"/>
<g clip-path="url(#clip1_437_119110)">
<path d="M276.548 1016.09H-1V1556H1754V1016.09H1720.83V1034.32H1563.36V1016.09H1510.09V1003H1323.19V1016.09H1251.24V1034.32H1200.31V1052.08H1079.29V1034.32H815.757V1016.09H641.472V1034.32H591.476V1052.08H312.059V1034.32H276.548V1016.09Z" fill="#17102A"/>
</g>
</g>
<defs>
<clipPath id="clip0_437_119110">
<rect width="1756" height="1053" fill="white"/>
</clipPath>
<clipPath id="clip1_437_119110">
<rect width="1756" height="1053" fill="white" transform="translate(-1 1003)"/>
</clipPath>
</defs>
</svg>
