<svg width="105" height="75" viewBox="0 0 105 75" fill="none" xmlns="http://www.w3.org/2000/svg">
<g clip-path="url(#clip0_602_741)">
<path d="M13.1972 44H8.80286V48.4225H13.1972V44Z" fill="#515859"/>
<path d="M17.5915 44H13.1971V48.4225H17.5915V44Z" fill="#515859"/>
<path d="M22 44H17.6056V48.4225H22V44Z" fill="#303435"/>
<path d="M8.78879 48.4226H4.39441V52.8593H8.78879V48.4226Z" fill="#7A8485"/>
<path d="M13.1972 48.4226H8.80286V52.8593H13.1972V48.4226Z" fill="#515859"/>
<path d="M17.5915 48.4226H13.1971V52.8593H17.5915V48.4226Z" fill="#424748"/>
<path d="M22 48.4226H17.6056V52.8593H22V48.4226Z" fill="#424748"/>
<path d="M26.3944 48.4226H22V52.8593H26.3944V48.4226Z" fill="#303435"/>
<path d="M30.8028 48.4226H26.4084V52.8593H30.8028V48.4226Z" fill="#303435"/>
<path d="M35.2113 48.4226H30.8029V52.8593H35.2113V48.4226Z" fill="#202225"/>
<path d="M4.39438 52.8591H0V57.2816H4.39438V52.8591Z" fill="#7A8485"/>
<path d="M8.78879 52.8591H4.39441V57.2816H8.78879V52.8591Z" fill="#515859"/>
<path d="M13.1972 52.8591H8.80286V57.2816H13.1972V52.8591Z" fill="#424748"/>
<path d="M17.5915 52.8591H13.1971V57.2816H17.5915V52.8591Z" fill="#515859"/>
<path d="M22 52.8591H17.6056V57.2816H22V52.8591Z" fill="#424748"/>
<path d="M26.3944 52.8591H22V57.2816H26.3944V52.8591Z" fill="#515859"/>
<path d="M30.8028 52.8591H26.4084V57.2816H30.8028V52.8591Z" fill="#303435"/>
<path d="M35.2113 52.8591H30.8029V57.2816H35.2113V52.8591Z" fill="#303435"/>
<path d="M39.6056 52.8591H35.2112V57.2816H39.6056V52.8591Z" fill="#202225"/>
<path d="M4.39438 57.2817H0V61.7043H4.39438V57.2817Z" fill="#515859"/>
<path d="M8.78879 57.2817H4.39441V61.7043H8.78879V57.2817Z" fill="#424748"/>
<path d="M13.1972 57.2817H8.80286V61.7043H13.1972V57.2817Z" fill="#515859"/>
<path d="M17.5915 57.2817H13.1971V61.7043H17.5915V57.2817Z" fill="#424748"/>
<path d="M22 57.2817H17.6056V61.7043H22V57.2817Z" fill="#515859"/>
<path d="M26.3944 57.2817H22V61.7043H26.3944V57.2817Z" fill="#202225"/>
<path d="M30.8028 57.2817H26.4084V61.7043H30.8028V57.2817Z" fill="#303435"/>
<path d="M35.2113 57.2817H30.8029V61.7043H35.2113V57.2817Z" fill="#202225"/>
<path d="M39.6056 57.2817H35.2112V61.7043H39.6056V57.2817Z" fill="#202225"/>
<path d="M44 57.2817H39.6056V61.7043H44V57.2817Z" fill="#303435"/>
<path d="M8.78879 61.7183H4.39441V66.1408H8.78879V61.7183Z" fill="#424748"/>
<path d="M13.1972 61.7183H8.80286V66.1408H13.1972V61.7183Z" fill="#202225"/>
<path d="M17.5915 61.7183H13.1971V66.1408H17.5915V61.7183Z" fill="#303435"/>
<path d="M22 61.7183H17.6056V66.1408H22V61.7183Z" fill="#202225"/>
<path d="M26.3944 61.7183H22V66.1408H26.3944V61.7183Z" fill="#303435"/>
<path d="M30.8028 61.7183H26.4084V66.1408H30.8028V61.7183Z" fill="#202225"/>
<path d="M35.2113 61.7183H30.8029V66.1408H35.2113V61.7183Z" fill="#202225"/>
<path d="M39.6056 61.7183H35.2112V66.1408H39.6056V61.7183Z" fill="#202225"/>
<path d="M44 61.7183H39.6056V66.1408H44V61.7183Z" fill="#424748"/>
<path d="M13.1972 66.1409H8.80286V70.5775H13.1972V66.1409Z" fill="#303435"/>
<path d="M17.5915 66.1409H13.1971V70.5775H17.5915V66.1409Z" fill="#202225"/>
<path d="M22 66.1409H17.6056V70.5775H22V66.1409Z" fill="#202225"/>
<path d="M26.3944 66.1409H22V70.5775H26.3944V66.1409Z" fill="#202225"/>
<path d="M30.8028 66.1409H26.4084V70.5775H30.8028V66.1409Z" fill="#202225"/>
<path d="M35.2113 66.1409H30.8029V70.5775H35.2113V66.1409Z" fill="#7A8485"/>
<path d="M39.6056 66.1409H35.2112V70.5775H39.6056V66.1409Z" fill="#515859"/>
<path d="M17.5915 70.5774H13.1971V74.9999H17.5915V70.5774Z" fill="#303435"/>
<path d="M22 70.5774H17.6056V74.9999H22V70.5774Z" fill="#303435"/>
<path d="M26.3944 70.5774H22V74.9999H26.3944V70.5774Z" fill="#424748"/>
<path d="M30.8028 70.5774H26.4084V74.9999H30.8028V70.5774Z" fill="#515859"/>
</g>
<g clip-path="url(#clip1_602_741)">
<path d="M31.6615 0H26.7795V4.8112H31.6615V0Z" fill="#7A8485"/>
<path d="M36.5591 0H31.6615V4.8112H36.5591V0Z" fill="#7A8485"/>
<path d="M41.441 0H36.5591V4.8112H41.441V0Z" fill="#7A8485"/>
<path d="M46.3229 0H41.4409V4.8112H46.3229V0Z" fill="#515859"/>
<path d="M51.2205 0H46.3385V4.8112H51.2205V0Z" fill="#424748"/>
<path d="M56.1024 0H51.2205V4.8112H56.1024V0Z" fill="#303435"/>
<path d="M61 0H56.118V4.8112H61V0Z" fill="#303435"/>
<path d="M26.7639 4.81128H21.882V9.62247H26.7639V4.81128Z" fill="#7A8485"/>
<path d="M31.6615 4.81128H26.7795V9.62247H31.6615V4.81128Z" fill="#515859"/>
<path d="M36.5591 4.81128H31.6615V9.62247H36.5591V4.81128Z" fill="#515859"/>
<path d="M41.441 4.81128H36.5591V9.62247H41.441V4.81128Z" fill="#515859"/>
<path d="M46.3229 4.81128H41.4409V9.62247H46.3229V4.81128Z" fill="#515859"/>
<path d="M51.2205 4.81128H46.3385V9.62247H51.2205V4.81128Z" fill="#515859"/>
<path d="M56.1024 4.81128H51.2205V9.62247H56.1024V4.81128Z" fill="#303435"/>
<path d="M61 4.81128H56.118V9.62247H61V4.81128Z" fill="#424748"/>
<path d="M21.882 9.6377H17V14.4489H21.882V9.6377Z" fill="#7A8485"/>
<path d="M26.7639 9.6377H21.882V14.4489H26.7639V9.6377Z" fill="#515859"/>
<path d="M31.6615 9.6377H26.7795V14.4489H31.6615V9.6377Z" fill="#515859"/>
<path d="M36.5591 9.6377H31.6615V14.4489H36.5591V9.6377Z" fill="#424748"/>
<path d="M41.441 9.6377H36.5591V14.4489H41.441V9.6377Z" fill="#515859"/>
<path d="M46.3229 9.6377H41.4409V14.4489H46.3229V9.6377Z" fill="#424748"/>
<path d="M51.2205 9.6377H46.3385V14.4489H51.2205V9.6377Z" fill="#7A8485"/>
<path d="M56.1024 9.6377H51.2205V14.4489H56.1024V9.6377Z" fill="#515859"/>
<path d="M61 9.6377H56.118V14.4489H61V9.6377Z" fill="#303435"/>
<path d="M65.882 9.6377H61V14.4489H65.882V9.6377Z" fill="#202225"/>
<path d="M70.7795 9.6377H65.8976V14.4489H70.7795V9.6377Z" fill="#424748"/>
<path d="M21.882 14.449H17V19.2602H21.882V14.449Z" fill="#515859"/>
<path d="M26.7639 14.449H21.882V19.2602H26.7639V14.449Z" fill="#515859"/>
<path d="M31.6615 14.449H26.7795V19.2602H31.6615V14.449Z" fill="#424748"/>
<path d="M36.5591 14.449H31.6615V19.2602H36.5591V14.449Z" fill="#424748"/>
<path d="M41.441 14.449H36.5591V19.2602H41.441V14.449Z" fill="#424748"/>
<path d="M46.3229 14.449H41.4409V19.2602H46.3229V14.449Z" fill="#7A8485"/>
<path d="M51.2205 14.449H46.3385V19.2602H51.2205V14.449Z" fill="#515859"/>
<path d="M56.1024 14.449H51.2205V19.2602H56.1024V14.449Z" fill="#202225"/>
<path d="M61 14.449H56.118V19.2602H61V14.449Z" fill="#7A8485"/>
<path d="M65.882 14.449H61V19.2602H65.882V14.449Z" fill="#303435"/>
<path d="M70.7795 14.449H65.8976V19.2602H70.7795V14.449Z" fill="#515859"/>
<path d="M75.6615 14.449H70.7795V19.2602H75.6615V14.449Z" fill="#424748"/>
<path d="M21.882 19.2756H17V24.0868H21.882V19.2756Z" fill="#424748"/>
<path d="M26.7639 19.2756H21.882V24.0868H26.7639V19.2756Z" fill="#303435"/>
<path d="M31.6615 19.2756H26.7795V24.0868H31.6615V19.2756Z" fill="#202225"/>
<path d="M36.5591 19.2756H31.6615V24.0868H36.5591V19.2756Z" fill="#515859"/>
<path d="M41.441 19.2756H36.5591V24.0868H41.441V19.2756Z" fill="#424748"/>
<path d="M46.3229 19.2756H41.4409V24.0868H46.3229V19.2756Z" fill="#515859"/>
<path d="M51.2205 19.2756H46.3385V24.0868H51.2205V19.2756Z" fill="#202225"/>
<path d="M56.1024 19.2756H51.2205V24.0868H56.1024V19.2756Z" fill="#303435"/>
<path d="M61 19.2756H56.118V24.0868H61V19.2756Z" fill="#303435"/>
<path d="M65.882 19.2756H61V24.0868H65.882V19.2756Z" fill="#7A8485"/>
<path d="M70.7795 19.2756H65.8976V24.0868H70.7795V19.2756Z" fill="#424748"/>
<path d="M75.6615 19.2756H70.7795V24.0868H75.6615V19.2756Z" fill="#515859"/>
<path d="M80.5591 19.2756H75.6771V24.0868H80.5591V19.2756Z" fill="#515859"/>
<path d="M85.441 19.2756H80.5591V24.0868H85.441V19.2756Z" fill="#303435"/>
<path d="M90.3229 19.2756H85.4409V24.0868H90.3229V19.2756Z" fill="#202225"/>
<path d="M26.7639 24.0867H21.882V28.8979H26.7639V24.0867Z" fill="#303435"/>
<path d="M31.6615 24.0867H26.7795V28.8979H31.6615V24.0867Z" fill="#202225"/>
<path d="M36.5591 24.0867H31.6615V28.8979H36.5591V24.0867Z" fill="#202225"/>
<path d="M41.441 24.0867H36.5591V28.8979H41.441V24.0867Z" fill="#202225"/>
<path d="M46.3229 24.0867H41.4409V28.8979H46.3229V24.0867Z" fill="#202225"/>
<path d="M51.2205 24.0867H46.3385V28.8979H51.2205V24.0867Z" fill="#202225"/>
<path d="M56.1024 24.0867H51.2205V28.8979H56.1024V24.0867Z" fill="#202225"/>
<path d="M61 24.0867H56.118V28.8979H61V24.0867Z" fill="#303435"/>
<path d="M65.882 24.0867H61V28.8979H65.882V24.0867Z" fill="#303435"/>
<path d="M70.7795 24.0867H65.8976V28.8979H70.7795V24.0867Z" fill="#202225"/>
<path d="M75.6615 24.0867H70.7795V28.8979H75.6615V24.0867Z" fill="#424748"/>
<path d="M80.5591 24.0867H75.6771V28.8979H80.5591V24.0867Z" fill="#515859"/>
<path d="M85.441 24.0867H80.5591V28.8979H85.441V24.0867Z" fill="#202225"/>
<path d="M90.3229 24.0867H85.4409V28.8979H90.3229V24.0867Z" fill="#303435"/>
<path d="M95.2205 24.0867H90.3385V28.8979H95.2205V24.0867Z" fill="#202225"/>
<path d="M100.102 24.0867H95.2205V28.8979H100.102V24.0867Z" fill="#303435"/>
<path d="M36.5591 28.9133H31.6615V33.7245H36.5591V28.9133Z" fill="#202225"/>
<path d="M41.441 28.9133H36.5591V33.7245H41.441V28.9133Z" fill="#202225"/>
<path d="M46.3229 28.9133H41.4409V33.7245H46.3229V28.9133Z" fill="#202225"/>
<path d="M51.2205 28.9133H46.3385V33.7245H51.2205V28.9133Z" fill="#202225"/>
<path d="M56.1024 28.9133H51.2205V33.7245H56.1024V28.9133Z" fill="#303435"/>
<path d="M61 28.9133H56.118V33.7245H61V28.9133Z" fill="#202225"/>
<path d="M65.882 28.9133H61V33.7245H65.882V28.9133Z" fill="#303435"/>
<path d="M70.7795 28.9133H65.8976V33.7245H70.7795V28.9133Z" fill="#303435"/>
<path d="M75.6615 28.9133H70.7795V33.7245H75.6615V28.9133Z" fill="#202225"/>
<path d="M80.5591 28.9133H75.6771V33.7245H80.5591V28.9133Z" fill="#424748"/>
<path d="M85.441 28.9133H80.5591V33.7245H85.441V28.9133Z" fill="#424748"/>
<path d="M90.3229 28.9133H85.4409V33.7245H90.3229V28.9133Z" fill="#303435"/>
<path d="M95.2205 28.9133H90.3385V33.7245H95.2205V28.9133Z" fill="#202225"/>
<path d="M100.102 28.9133H95.2205V33.7245H100.102V28.9133Z" fill="#202225"/>
<path d="M105 28.9133H100.118V33.7245H105V28.9133Z" fill="#424748"/>
<path d="M41.441 33.7244H36.5591V38.5509H41.441V33.7244Z" fill="#424748"/>
<path d="M46.3229 33.7244H41.4409V38.5509H46.3229V33.7244Z" fill="#202225"/>
<path d="M51.2205 33.7244H46.3385V38.5509H51.2205V33.7244Z" fill="#202225"/>
<path d="M56.1024 33.7244H51.2205V38.5509H56.1024V33.7244Z" fill="#202225"/>
<path d="M61 33.7244H56.118V38.5509H61V33.7244Z" fill="#202225"/>
<path d="M65.882 33.7244H61V38.5509H65.882V33.7244Z" fill="#202225"/>
<path d="M70.7795 33.7244H65.8976V38.5509H70.7795V33.7244Z" fill="#202225"/>
<path d="M75.6615 33.7244H70.7795V38.5509H75.6615V33.7244Z" fill="#202225"/>
<path d="M80.5591 33.7244H75.6771V38.5509H80.5591V33.7244Z" fill="#202225"/>
<path d="M85.441 33.7244H80.5591V38.5509H85.441V33.7244Z" fill="#202225"/>
<path d="M90.3229 33.7244H85.4409V38.5509H90.3229V33.7244Z" fill="#202225"/>
<path d="M95.2205 33.7244H90.3385V38.5509H95.2205V33.7244Z" fill="#303435"/>
<path d="M100.102 33.7244H95.2205V38.5509H100.102V33.7244Z" fill="#202225"/>
<path d="M105 33.7244H100.118V38.5509H105V33.7244Z" fill="#515859"/>
<path d="M46.3229 38.551H41.4409V43.3622H46.3229V38.551Z" fill="#424748"/>
<path d="M51.2205 38.551H46.3385V43.3622H51.2205V38.551Z" fill="#202225"/>
<path d="M56.1024 38.551H51.2205V43.3622H56.1024V38.551Z" fill="#202225"/>
<path d="M61 38.551H56.118V43.3622H61V38.551Z" fill="#202225"/>
<path d="M65.882 38.551H61V43.3622H65.882V38.551Z" fill="#303435"/>
<path d="M70.7795 38.551H65.8976V43.3622H70.7795V38.551Z" fill="#202225"/>
<path d="M75.6615 38.551H70.7795V43.3622H75.6615V38.551Z" fill="#202225"/>
<path d="M80.5591 38.551H75.6771V43.3622H80.5591V38.551Z" fill="#202225"/>
<path d="M85.441 38.551H80.5591V43.3622H85.441V38.551Z" fill="#202225"/>
<path d="M90.3229 38.551H85.4409V43.3622H90.3229V38.551Z" fill="#202225"/>
<path d="M95.2205 38.551H90.3385V43.3622H95.2205V38.551Z" fill="#202225"/>
<path d="M100.102 38.551H95.2205V43.3622H100.102V38.551Z" fill="#7A8485"/>
<path d="M105 38.551H100.118V43.3622H105V38.551Z" fill="#424748"/>
<path d="M51.2205 43.3623H46.3385V48.1735H51.2205V43.3623Z" fill="#515859"/>
<path d="M56.1024 43.3623H51.2205V48.1735H56.1024V43.3623Z" fill="#424748"/>
<path d="M61 43.3623H56.118V48.1735H61V43.3623Z" fill="#424748"/>
<path d="M65.882 43.3623H61V48.1735H65.882V43.3623Z" fill="#202225"/>
<path d="M70.7795 43.3623H65.8976V48.1735H70.7795V43.3623Z" fill="#303435"/>
<path d="M75.6615 43.3623H70.7795V48.1735H75.6615V43.3623Z" fill="#202225"/>
<path d="M80.5591 43.3623H75.6771V48.1735H80.5591V43.3623Z" fill="#303435"/>
<path d="M85.441 43.3623H80.5591V48.1735H85.441V43.3623Z" fill="#424748"/>
<path d="M90.3229 43.3623H85.4409V48.1735H90.3229V43.3623Z" fill="#7A8485"/>
<path d="M95.2205 43.3623H90.3385V48.1735H95.2205V43.3623Z" fill="#515859"/>
<path d="M100.102 43.3623H95.2205V48.1735H100.102V43.3623Z" fill="#424748"/>
<path d="M65.882 48.1887H61V52.9999H65.882V48.1887Z" fill="#424748"/>
<path d="M70.7795 48.1887H65.8976V52.9999H70.7795V48.1887Z" fill="#515859"/>
<path d="M75.6615 48.1887H70.7795V52.9999H75.6615V48.1887Z" fill="#7A8485"/>
<path d="M80.5591 48.1887H75.6771V52.9999H80.5591V48.1887Z" fill="#7A8485"/>
<path d="M85.441 48.1887H80.5591V52.9999H85.441V48.1887Z" fill="#515859"/>
</g>
<defs>
<clipPath id="clip0_602_741">
<rect width="44" height="31" fill="white" transform="translate(0 44)"/>
</clipPath>
<clipPath id="clip1_602_741">
<rect width="88" height="53" fill="white" transform="translate(17)"/>
</clipPath>
</defs>
</svg>
