<svg width="51" height="51" viewBox="0 0 51 51" fill="none" xmlns="http://www.w3.org/2000/svg">
<path d="M20.3055 0H16.9209V3.38275H20.3055V0Z" fill="#5DFFFF"/>
<path d="M23.69 0H20.3054V3.38275H23.69V0Z" fill="#7AFFFF"/>
<path d="M27.0748 0H23.6902V3.38275H27.0748V0Z" fill="#5DFFFF"/>
<path d="M30.4593 0H27.0747V3.38275H30.4593V0Z" fill="#5DFFFF"/>
<path d="M33.8438 0H30.4592V3.38275H33.8438V0Z" fill="#7AFFFF"/>
<path d="M13.5384 3.38281H10.1538V6.76737H13.5384V3.38281Z" fill="#7AFFFF"/>
<path d="M16.9229 3.38281H13.5383V6.76737H16.9229V3.38281Z" fill="#5DFFFF"/>
<path d="M20.3055 3.38281H16.9209V6.76737H20.3055V3.38281Z" fill="#5DFFFF"/>
<path d="M23.69 3.38281H20.3054V6.76737H23.69V3.38281Z" fill="#3BFFFF"/>
<path d="M27.0748 3.38281H23.6902V6.76737H27.0748V3.38281Z" fill="#3BFFFF"/>
<path d="M30.4593 3.38281H27.0747V6.76737H30.4593V3.38281Z" fill="#49FFFF"/>
<path d="M33.8438 3.38281H30.4592V6.76737H33.8438V3.38281Z" fill="#49FFFF"/>
<path d="M37.2283 3.38281H33.8438V6.76737H37.2283V3.38281Z" fill="#7AFFFF"/>
<path d="M40.6111 3.38281H37.2266V6.76737H40.6111V3.38281Z" fill="#52FFFF"/>
<path d="M10.1539 6.76904H6.76929V10.1518H10.1539V6.76904Z" fill="#5DFFFF"/>
<path d="M13.5384 6.76904H10.1538V10.1518H13.5384V6.76904Z" fill="#0EFEFF"/>
<path d="M16.9229 6.76904H13.5383V10.1518H16.9229V6.76904Z" fill="#0EFEFF"/>
<path d="M20.3055 6.76904H16.9209V10.1518H20.3055V6.76904Z" fill="#05E9FF"/>
<path d="M23.69 6.76904H20.3054V10.1518H23.69V6.76904Z" fill="#05E9FF"/>
<path d="M27.0748 6.76904H23.6902V10.1518H27.0748V6.76904Z" fill="#05E9FF"/>
<path d="M30.4593 6.76904H27.0747V10.1518H30.4593V6.76904Z" fill="#05D7FF"/>
<path d="M33.8438 6.76904H30.4592V10.1518H33.8438V6.76904Z" fill="#05E9FF"/>
<path d="M37.2283 6.76904H33.8438V10.1518H37.2283V6.76904Z" fill="#0EFEFF"/>
<path d="M40.6111 6.76904H37.2266V10.1518H40.6111V6.76904Z" fill="#0EFEFF"/>
<path d="M43.9959 6.76904H40.6113V10.1518H43.9959V6.76904Z" fill="#3BFFFF"/>
<path d="M6.76907 10.1519H3.38452V13.5364H6.76907V10.1519Z" fill="#7AFFFF"/>
<path d="M10.1539 10.1519H6.76929V13.5364H10.1539V10.1519Z" fill="#3BFFFF"/>
<path d="M13.5384 10.1519H10.1538V13.5364H13.5384V10.1519Z" fill="#0EFEFF"/>
<path d="M16.9229 10.1519H13.5383V13.5364H16.9229V10.1519Z" fill="#05E9FF"/>
<path d="M20.3055 10.1519H16.9209V13.5364H20.3055V10.1519Z" fill="#05E9FF"/>
<path d="M23.69 10.1519H20.3054V13.5364H23.69V10.1519Z" fill="#05D7FF"/>
<path d="M27.0748 10.1519H23.6902V13.5364H27.0748V10.1519Z" fill="#05D7FF"/>
<path d="M30.4593 10.1519H27.0747V13.5364H30.4593V10.1519Z" fill="#05D7FF"/>
<path d="M33.8438 10.1519H30.4592V13.5364H33.8438V10.1519Z" fill="#05D7FF"/>
<path d="M37.2283 10.1519H33.8438V13.5364H37.2283V10.1519Z" fill="#05D7FF"/>
<path d="M40.6111 10.1519H37.2266V13.5364H40.6111V10.1519Z" fill="#05D7FF"/>
<path d="M43.9959 10.1519H40.6113V13.5364H43.9959V10.1519Z" fill="#05E9FF"/>
<path d="M47.3804 10.1519H43.9958V13.5364H47.3804V10.1519Z" fill="#3BFFFF"/>
<path d="M6.76907 13.5366H3.38452V16.9194H6.76907V13.5366Z" fill="#05E9FF"/>
<path d="M10.1539 13.5366H6.76929V16.9194H10.1539V13.5366Z" fill="#05D7FF"/>
<path d="M13.5384 13.5366H10.1538V16.9194H13.5384V13.5366Z" fill="#05D7FF"/>
<path d="M16.9229 13.5366H13.5383V16.9194H16.9229V13.5366Z" fill="#05D7FF"/>
<path d="M20.3055 13.5366H16.9209V16.9194H20.3055V13.5366Z" fill="#05D7FF"/>
<path d="M23.69 13.5366H20.3054V16.9194H23.69V13.5366Z" fill="#05D7FF"/>
<path d="M27.0748 13.5366H23.6902V16.9194H27.0748V13.5366Z" fill="#05D7FF"/>
<path d="M30.4593 13.5366H27.0747V16.9194H30.4593V13.5366Z" fill="#05D7FF"/>
<path d="M33.8438 13.5366H30.4592V16.9194H33.8438V13.5366Z" fill="#05D7FF"/>
<path d="M37.2283 13.5366H33.8438V16.9194H37.2283V13.5366Z" fill="#05D7FF"/>
<path d="M40.6111 13.5366H37.2266V16.9194H40.6111V13.5366Z" fill="#05D7FF"/>
<path d="M43.9959 13.5366H40.6113V16.9194H43.9959V13.5366Z" fill="#05D7FF"/>
<path d="M47.3804 13.5366H43.9958V16.9194H47.3804V13.5366Z" fill="#21FEFF"/>
<path d="M3.38457 16.9209H0V20.3055H3.38457V16.9209Z" fill="#05D7FF"/>
<path d="M6.76907 16.9209H3.38452V20.3055H6.76907V16.9209Z" fill="#05D7FF"/>
<path d="M10.1539 16.9209H6.76929V20.3055H10.1539V16.9209Z" fill="#05B7F4"/>
<path d="M13.5384 16.9209H10.1538V20.3055H13.5384V16.9209Z" fill="#05D7FF"/>
<path d="M16.9229 16.9209H13.5383V20.3055H16.9229V16.9209Z" fill="#05D7FF"/>
<path d="M20.3055 16.9209H16.9209V20.3055H20.3055V16.9209Z" fill="#05C6FC"/>
<path d="M23.69 16.9209H20.3054V20.3055H23.69V16.9209Z" fill="#05C6FC"/>
<path d="M27.0748 16.9209H23.6902V20.3055H27.0748V16.9209Z" fill="#05C6FC"/>
<path d="M30.4593 16.9209H27.0747V20.3055H30.4593V16.9209Z" fill="#05B7F4"/>
<path d="M33.8438 16.9209H30.4592V20.3055H33.8438V16.9209Z" fill="#05C6FC"/>
<path d="M37.2283 16.9209H33.8438V20.3055H37.2283V16.9209Z" fill="#05C6FC"/>
<path d="M40.6111 16.9209H37.2266V20.3055H40.6111V16.9209Z" fill="#05D7FF"/>
<path d="M43.9959 16.9209H40.6113V20.3055H43.9959V16.9209Z" fill="#05C6FC"/>
<path d="M47.3804 16.9209H43.9958V20.3055H47.3804V16.9209Z" fill="#05D7FF"/>
<path d="M50.7631 16.9209H47.3804V20.3055H50.7631V16.9209Z" fill="#05D7FF"/>
<path d="M3.38457 20.3057H0V23.6902H3.38457V20.3057Z" fill="#05B7F4"/>
<path d="M6.76907 20.3057H3.38452V23.6902H6.76907V20.3057Z" fill="#05B7F4"/>
<path d="M10.1539 20.3057H6.76929V23.6902H10.1539V20.3057Z" fill="#05A7EA"/>
<path d="M13.5384 20.3057H10.1538V23.6902H13.5384V20.3057Z" fill="#05C6FC"/>
<path d="M16.9229 20.3057H13.5383V23.6902H16.9229V20.3057Z" fill="#05B7F4"/>
<path d="M20.3055 20.3057H16.9209V23.6902H20.3055V20.3057Z" fill="#05B7F4"/>
<path d="M23.69 20.3057H20.3054V23.6902H23.69V20.3057Z" fill="#05B7F4"/>
<path d="M27.0748 20.3057H23.6902V23.6902H27.0748V20.3057Z" fill="#05B7F4"/>
<path d="M30.4593 20.3057H27.0747V23.6902H30.4593V20.3057Z" fill="#05C6FC"/>
<path d="M33.8438 20.3057H30.4592V23.6902H33.8438V20.3057Z" fill="#05B7F4"/>
<path d="M37.2283 20.3057H33.8438V23.6902H37.2283V20.3057Z" fill="#05A0D7"/>
<path d="M40.6111 20.3057H37.2266V23.6902H40.6111V20.3057Z" fill="#05D7FF"/>
<path d="M43.9959 20.3057H40.6113V23.6902H43.9959V20.3057Z" fill="#05C6FC"/>
<path d="M47.3804 20.3057H43.9958V23.6902H47.3804V20.3057Z" fill="#05B7F4"/>
<path d="M50.7631 20.3057H47.3804V23.6902H50.7631V20.3057Z" fill="#05B7F4"/>
<path d="M3.38457 23.6885H0V27.073H3.38457V23.6885Z" fill="#05A7EA"/>
<path d="M6.76907 23.6885H3.38452V27.073H6.76907V23.6885Z" fill="#05A7EA"/>
<path d="M10.1539 23.6885H6.76929V27.073H10.1539V23.6885Z" fill="#05B7F4"/>
<path d="M13.5384 23.6885H10.1538V27.073H13.5384V23.6885Z" fill="#05B7F4"/>
<path d="M16.9229 23.6885H13.5383V27.073H16.9229V23.6885Z" fill="#05A7EA"/>
<path d="M20.3055 23.6885H16.9209V27.073H20.3055V23.6885Z" fill="#05B7F4"/>
<path d="M23.69 23.6885H20.3054V27.073H23.69V23.6885Z" fill="#05A7EA"/>
<path d="M27.0748 23.6885H23.6902V27.073H27.0748V23.6885Z" fill="#05B7F4"/>
<path d="M30.4593 23.6885H27.0747V27.073H30.4593V23.6885Z" fill="#05C6FC"/>
<path d="M33.8438 23.6885H30.4592V27.073H33.8438V23.6885Z" fill="#05A0D7"/>
<path d="M37.2283 23.6885H33.8438V27.073H37.2283V23.6885Z" fill="#05B7F4"/>
<path d="M40.6111 23.6885H37.2266V27.073H40.6111V23.6885Z" fill="#05C6FC"/>
<path d="M43.9959 23.6885H40.6113V27.073H43.9959V23.6885Z" fill="#05B7F4"/>
<path d="M47.3804 23.6885H43.9958V27.073H47.3804V23.6885Z" fill="#05B7F4"/>
<path d="M50.7631 23.6885H47.3804V27.073H50.7631V23.6885Z" fill="#05A0D7"/>
<path d="M3.38457 27.0747H0V30.4593H3.38457V27.0747Z" fill="#05A0D7"/>
<path d="M6.76907 27.0747H3.38452V30.4593H6.76907V27.0747Z" fill="#05A0D7"/>
<path d="M10.1539 27.0747H6.76929V30.4593H10.1539V27.0747Z" fill="#0585C5"/>
<path d="M13.5384 27.0747H10.1538V30.4593H13.5384V27.0747Z" fill="#05A7EA"/>
<path d="M20.3055 27.0747H16.9209V30.4593H20.3055V27.0747Z" fill="#05A7EA"/>
<path d="M16.9229 27.0747H13.5383V30.4593H16.9229V27.0747Z" fill="#05B7F4"/>
<path d="M23.69 27.0747H20.3054V30.4593H23.69V27.0747Z" fill="#0585C5"/>
<path d="M27.0748 27.0747H23.6902V30.4593H27.0748V27.0747Z" fill="#05A0D7"/>
<path d="M30.4593 27.0747H27.0747V30.4593H30.4593V27.0747Z" fill="#05B7F4"/>
<path d="M33.8438 27.0747H30.4592V30.4593H33.8438V27.0747Z" fill="#05B7F4"/>
<path d="M37.2283 27.0747H33.8438V30.4593H37.2283V27.0747Z" fill="#05B7F4"/>
<path d="M40.6111 27.0747H37.2266V30.4593H40.6111V27.0747Z" fill="#05B7F4"/>
<path d="M43.9959 27.0747H40.6113V30.4593H43.9959V27.0747Z" fill="#05C6FC"/>
<path d="M47.3804 27.0747H43.9958V30.4593H47.3804V27.0747Z" fill="#05A0D7"/>
<path d="M50.7631 27.0747H47.3804V30.4593H50.7631V27.0747Z" fill="#0585C5"/>
<path d="M3.38457 30.4575H0V33.8421H3.38457V30.4575Z" fill="#05A0D7"/>
<path d="M6.76907 30.4575H3.38452V33.8421H6.76907V30.4575Z" fill="#0585C5"/>
<path d="M10.1539 30.4575H6.76929V33.8421H10.1539V30.4575Z" fill="#05A7EA"/>
<path d="M13.5384 30.4575H10.1538V33.8421H13.5384V30.4575Z" fill="#05A7EA"/>
<path d="M16.9229 30.4575H13.5383V33.8421H16.9229V30.4575Z" fill="#05B7F4"/>
<path d="M20.3055 30.4575H16.9209V33.8421H20.3055V30.4575Z" fill="#0585C5"/>
<path d="M23.69 30.4575H20.3054V33.8421H23.69V30.4575Z" fill="#05A7EA"/>
<path d="M27.0748 30.4575H23.6902V33.8421H27.0748V30.4575Z" fill="#05A0D7"/>
<path d="M30.4593 30.4575H27.0747V33.8421H30.4593V30.4575Z" fill="#05A0D7"/>
<path d="M33.8438 30.4575H30.4592V33.8421H33.8438V30.4575Z" fill="#05C6FC"/>
<path d="M37.2283 30.4575H33.8438V33.8421H37.2283V30.4575Z" fill="#05D7FF"/>
<path d="M40.6111 30.4575H37.2266V33.8421H40.6111V30.4575Z" fill="#05B7F4"/>
<path d="M43.9959 30.4575H40.6113V33.8421H43.9959V30.4575Z" fill="#0585C5"/>
<path d="M47.3804 30.4575H43.9958V33.8421H47.3804V30.4575Z" fill="#0585C5"/>
<path d="M50.7631 30.4575H47.3804V33.8421H50.7631V30.4575Z" fill="#055981"/>
<path d="M6.76907 33.8418H3.38452V37.2246H6.76907V33.8418Z" fill="#05A7EA"/>
<path d="M10.1539 33.8418H6.76929V37.2246H10.1539V33.8418Z" fill="#05B7F4"/>
<path d="M13.5384 33.8418H10.1538V37.2246H13.5384V33.8418Z" fill="#05A7EA"/>
<path d="M16.9229 33.8418H13.5383V37.2246H16.9229V33.8418Z" fill="#0585C5"/>
<path d="M20.3055 33.8418H16.9209V37.2246H20.3055V33.8418Z" fill="#05A0D7"/>
<path d="M23.69 33.8418H20.3054V37.2246H23.69V33.8418Z" fill="#05B7F4"/>
<path d="M27.0748 33.8418H23.6902V37.2246H27.0748V33.8418Z" fill="#05A0D7"/>
<path d="M30.4593 33.8418H27.0747V37.2246H30.4593V33.8418Z" fill="#05A0D7"/>
<path d="M33.8438 33.8418H30.4592V37.2246H33.8438V33.8418Z" fill="#05B7F4"/>
<path d="M37.2283 33.8418H33.8438V37.2246H37.2283V33.8418Z" fill="#05C6FC"/>
<path d="M40.6111 33.8418H37.2266V37.2246H40.6111V33.8418Z" fill="#0585C5"/>
<path d="M43.9959 33.8418H40.6113V37.2246H43.9959V33.8418Z" fill="#05A0D7"/>
<path d="M47.3804 33.8418H43.9958V37.2246H47.3804V33.8418Z" fill="#0565A1"/>
<path d="M6.76907 37.2266H3.38452V40.6111H6.76907V37.2266Z" fill="#05A0D7"/>
<path d="M10.1539 37.2266H6.76929V40.6111H10.1539V37.2266Z" fill="#05C6FC"/>
<path d="M13.5384 37.2266H10.1538V40.6111H13.5384V37.2266Z" fill="#05B7F4"/>
<path d="M16.9229 37.2266H13.5383V40.6111H16.9229V37.2266Z" fill="#05B7F4"/>
<path d="M20.3055 37.2266H16.9209V40.6111H20.3055V37.2266Z" fill="#05A7EA"/>
<path d="M23.69 37.2266H20.3054V40.6111H23.69V37.2266Z" fill="#05B7F4"/>
<path d="M27.0748 37.2266H23.6902V40.6111H27.0748V37.2266Z" fill="#0585C5"/>
<path d="M30.4593 37.2266H27.0747V40.6111H30.4593V37.2266Z" fill="#05A0D7"/>
<path d="M33.8438 37.2266H30.4592V40.6111H33.8438V37.2266Z" fill="#05C6FC"/>
<path d="M37.2283 37.2266H33.8438V40.6111H37.2283V37.2266Z" fill="#05B7F4"/>
<path d="M40.6111 37.2266H37.2266V40.6111H40.6111V37.2266Z" fill="#05C6FC"/>
<path d="M43.9959 37.2266H40.6113V40.6111H43.9959V37.2266Z" fill="#05A7EA"/>
<path d="M47.3804 37.2266H43.9958V40.6111H47.3804V37.2266Z" fill="#055981"/>
<path d="M10.1539 40.6094H6.76929V43.9939H10.1539V40.6094Z" fill="#05A7EA"/>
<path d="M13.5384 40.6094H10.1538V43.9939H13.5384V40.6094Z" fill="#05B7F4"/>
<path d="M16.9229 40.6094H13.5383V43.9939H16.9229V40.6094Z" fill="#05C6FC"/>
<path d="M20.3055 40.6094H16.9209V43.9939H20.3055V40.6094Z" fill="#05B7F4"/>
<path d="M23.69 40.6094H20.3054V43.9939H23.69V40.6094Z" fill="#05A0D7"/>
<path d="M27.0748 40.6094H23.6902V43.9939H27.0748V40.6094Z" fill="#05B7F4"/>
<path d="M30.4593 40.6094H27.0747V43.9939H30.4593V40.6094Z" fill="#05C6FC"/>
<path d="M33.8438 40.6094H30.4592V43.9939H33.8438V40.6094Z" fill="#05B7F4"/>
<path d="M37.2283 40.6094H33.8438V43.9939H37.2283V40.6094Z" fill="#05C6FC"/>
<path d="M40.6111 40.6094H37.2266V43.9939H40.6111V40.6094Z" fill="#05B7F4"/>
<path d="M43.9959 40.6094H40.6113V43.9939H43.9959V40.6094Z" fill="#05A0D7"/>
<path d="M13.5384 43.9937H10.1538V47.3782H13.5384V43.9937Z" fill="#05C6FC"/>
<path d="M16.9229 43.9937H13.5383V47.3782H16.9229V43.9937Z" fill="#05B7F4"/>
<path d="M20.3055 43.9937H16.9209V47.3782H20.3055V43.9937Z" fill="#0585C5"/>
<path d="M23.69 43.9937H20.3054V47.3782H23.69V43.9937Z" fill="#05B7F4"/>
<path d="M27.0748 43.9937H23.6902V47.3782H27.0748V43.9937Z" fill="#05A0D7"/>
<path d="M30.4593 43.9937H27.0747V47.3782H30.4593V43.9937Z" fill="#05A7EA"/>
<path d="M33.8438 43.9937H30.4592V47.3782H33.8438V43.9937Z" fill="#05A7EA"/>
<path d="M37.2283 43.9937H33.8438V47.3782H37.2283V43.9937Z" fill="#0585C5"/>
<path d="M40.6111 43.9937H37.2266V47.3782H40.6111V43.9937Z" fill="#05A7EA"/>
<path d="M20.3055 47.3784H16.9209V50.763H20.3055V47.3784Z" fill="#05A0D7"/>
<path d="M23.69 47.3784H20.3054V50.763H23.69V47.3784Z" fill="#05B7F4"/>
<path d="M27.0748 47.3784H23.6902V50.763H27.0748V47.3784Z" fill="#05B7F4"/>
<path d="M30.4593 47.3784H27.0747V50.763H30.4593V47.3784Z" fill="#05A0D7"/>
<path d="M33.8438 47.3784H30.4592V50.763H33.8438V47.3784Z" fill="#0585C5"/>
</svg>
