<svg width="120" height="33" viewBox="0 0 120 33" fill="none" xmlns="http://www.w3.org/2000/svg">
<path d="M32.0906 0H36.6729V4.58467H32.0906V0Z" fill="#05243E"/>
<path d="M27.5059 0H32.0906V4.58467H27.5059V0Z" fill="#053F70"/>
<path d="M22.9212 0H27.5059V4.58467H22.9212V0Z" fill="#053F70"/>
<path d="M18.3367 0H22.9214V4.58467H18.3367V0Z" fill="#05243E"/>
<path d="M13.7518 0H18.3364V4.58467H13.7518V0Z" fill="#05243E"/>
<path d="M9.17194 0H13.7542V4.58467H9.17194V0Z" fill="#053F70"/>
<path d="M4.58476 0H9.16943V4.58467H4.58476V0Z" fill="#053F70"/>
<path d="M-1.52588e-05 0H4.58472V4.58467H-1.52588e-05V0Z" fill="#05243E"/>
<path d="M68.7632 4.58472H73.3479V9.16942H68.7632V4.58472Z" fill="#053F70"/>
<path d="M64.1809 4.58472H68.7656V9.16942H64.1809V4.58472Z" fill="#05243E"/>
<path d="M59.5962 4.58472H64.1785V9.16942H59.5962V4.58472Z" fill="#05243E"/>
<path d="M55.0115 4.58472H59.5962V9.16942H55.0115V4.58472Z" fill="#053F70"/>
<path d="M50.4292 4.58472H55.0115V9.16942H50.4292V4.58472Z" fill="#053F70"/>
<path d="M45.8423 4.58472H50.427V9.16942H45.8423V4.58472Z" fill="#053F70"/>
<path d="M41.2598 4.58472H45.842V9.16942H41.2598V4.58472Z" fill="#053F70"/>
<path d="M36.6753 4.58472H41.26V9.16942H36.6753V4.58472Z" fill="#05243E"/>
<path d="M32.0906 4.58472H36.6729V9.16942H32.0906V4.58472Z" fill="#053F70"/>
<path d="M27.5059 4.58472H32.0906V9.16942H27.5059V4.58472Z" fill="#05243E"/>
<path d="M22.9212 4.58472H27.5059V9.16942H22.9212V4.58472Z" fill="#053F70"/>
<path d="M18.3367 4.58472H22.9214V9.16942H18.3367V4.58472Z" fill="#05243E"/>
<path d="M13.7518 4.58472H18.3364V9.16942H13.7518V4.58472Z" fill="#053F70"/>
<path d="M9.17194 4.58472H13.7542V9.16942H9.17194V4.58472Z" fill="#053F70"/>
<path d="M4.58476 4.58472H9.16943V9.16942H4.58476V4.58472Z" fill="#05243E"/>
<path d="M100.854 9.16943H105.438V13.7541H100.854V9.16943Z" fill="#05243E"/>
<path d="M96.2715 9.16943H100.854V13.7541H96.2715V9.16943Z" fill="#053F70"/>
<path d="M91.6865 9.16943H96.2712V13.7541H91.6865V9.16943Z" fill="#065C9E"/>
<path d="M87.1018 9.16943H91.6865V13.7541H87.1018V9.16943Z" fill="#054482"/>
<path d="M82.5171 9.16943H87.1018V13.7541H82.5171V9.16943Z" fill="#1F9BE6"/>
<path d="M77.9324 9.16943H82.5171V13.7541H77.9324V9.16943Z" fill="#065C9E"/>
<path d="M73.3477 9.16943H77.9324V13.7541H73.3477V9.16943Z" fill="#1D80C1"/>
<path d="M68.7632 9.16943H73.3479V13.7541H68.7632V9.16943Z" fill="#1D80C1"/>
<path d="M64.1809 9.16943H68.7656V13.7541H64.1809V9.16943Z" fill="#065C9E"/>
<path d="M59.5962 9.16943H64.1785V13.7541H59.5962V9.16943Z" fill="#1D80C1"/>
<path d="M55.0115 9.16943H59.5962V13.7541H55.0115V9.16943Z" fill="#065C9E"/>
<path d="M50.4292 9.16943H55.0115V13.7541H50.4292V9.16943Z" fill="#065C9E"/>
<path d="M45.8423 9.16943H50.427V13.7541H45.8423V9.16943Z" fill="#054482"/>
<path d="M41.2598 9.16943H45.842V13.7541H41.2598V9.16943Z" fill="#053F70"/>
<path d="M36.6753 9.16943H41.26V13.7541H36.6753V9.16943Z" fill="#053F70"/>
<path d="M32.0906 9.16943H36.6729V13.7541H32.0906V9.16943Z" fill="#053F70"/>
<path d="M27.5059 9.16943H32.0906V13.7541H27.5059V9.16943Z" fill="#05243E"/>
<path d="M22.9212 9.16943H27.5059V13.7541H22.9212V9.16943Z" fill="#054482"/>
<path d="M105.441 13.7542H110.023V18.3364H105.441V13.7542Z" fill="#D8FFFF"/>
<path d="M100.854 13.7542H105.438V18.3364H100.854V13.7542Z" fill="#137FD8"/>
<path d="M96.2715 13.7542H100.854V18.3364H96.2715V13.7542Z" fill="#1F9BE6"/>
<path d="M91.6865 13.7542H96.2712V18.3364H91.6865V13.7542Z" fill="#2EB3FF"/>
<path d="M87.1018 13.7542H91.6865V18.3364H87.1018V13.7542Z" fill="#4ACFFF"/>
<path d="M82.5171 13.7542H87.1018V18.3364H82.5171V13.7542Z" fill="#4ACFFF"/>
<path d="M77.9324 13.7542H82.5171V18.3364H77.9324V13.7542Z" fill="#4ACFFF"/>
<path d="M73.3477 13.7542H77.9324V18.3364H73.3477V13.7542Z" fill="#1D80C1"/>
<path d="M68.7632 13.7542H73.3479V18.3364H68.7632V13.7542Z" fill="#1F9BE6"/>
<path d="M64.1809 13.7542H68.7656V18.3364H64.1809V13.7542Z" fill="#137FD8"/>
<path d="M59.5962 13.7542H64.1785V18.3364H59.5962V13.7542Z" fill="#053F70"/>
<path d="M55.0115 13.7542H59.5962V18.3364H55.0115V13.7542Z" fill="#053F70"/>
<path d="M50.4292 13.7542H55.0115V18.3364H50.4292V13.7542Z" fill="#053F70"/>
<path d="M45.8423 13.7542H50.427V18.3364H45.8423V13.7542Z" fill="#053F70"/>
<path d="M41.2598 13.7542H45.842V18.3364H41.2598V13.7542Z" fill="#053F70"/>
<path d="M114.608 18.3362H119.19V22.9209H114.608V18.3362Z" fill="#8BD7F8"/>
<path d="M110.023 18.3362H114.608V22.9209H110.023V18.3362Z" fill="#A0FFFF"/>
<path d="M105.441 18.3362H110.023V22.9209H105.441V18.3362Z" fill="white"/>
<path d="M96.2715 18.3362H100.854V22.9209H96.2715V18.3362Z" fill="#8BD7F8"/>
<path d="M100.854 18.3362H105.438V22.9209H100.854V18.3362Z" fill="#A0FFFF"/>
<path d="M91.6865 18.3362H96.2712V22.9209H91.6865V18.3362Z" fill="#2EB3FF"/>
<path d="M87.1018 18.3362H91.6865V22.9209H87.1018V18.3362Z" fill="#065C9E"/>
<path d="M82.5171 18.3362H87.1018V22.9209H82.5171V18.3362Z" fill="#065C9E"/>
<path d="M77.9324 18.3362H82.5171V22.9209H77.9324V18.3362Z" fill="#053F70"/>
<path d="M73.3477 18.3362H77.9324V22.9209H73.3477V18.3362Z" fill="#053F70"/>
<path d="M68.7632 18.3362H73.3479V22.9209H68.7632V18.3362Z" fill="#05243E"/>
<path d="M64.1809 18.3362H68.7656V22.9209H64.1809V18.3362Z" fill="#05243E"/>
<path d="M59.5962 18.3362H64.1785V22.9209H59.5962V18.3362Z" fill="#05243E"/>
<path d="M55.0115 18.3362H59.5962V22.9209H55.0115V18.3362Z" fill="#05243E"/>
<path d="M114.608 22.9236H119.19V27.5058H114.608V22.9236Z" fill="#065C9E"/>
<path d="M110.023 22.9236H114.608V27.5058H110.023V22.9236Z" fill="#2EB3FF"/>
<path d="M105.441 22.9236H110.023V27.5058H105.441V22.9236Z" fill="#D8FFFF"/>
<path d="M110.023 13.7542H114.608V18.3364H110.023V13.7542Z" fill="#4ACFFF"/>
<path d="M114.608 13.7542H119.19V18.3364H114.608V13.7542Z" fill="#065C9E"/>
<path d="M110.023 9.16943H114.608V13.7541H110.023V9.16943Z" fill="#065C9E"/>
<path d="M105.441 9.16943H110.023V13.7541H105.441V9.16943Z" fill="#054482"/>
<path d="M100.854 22.9236H105.438V27.5058H100.854V22.9236Z" fill="#2EB3FF"/>
<path d="M96.2715 22.9236H100.854V27.5058H96.2715V22.9236Z" fill="#053F70"/>
<path d="M91.6865 22.9236H96.2712V27.5058H91.6865V22.9236Z" fill="#053F70"/>
<path d="M87.1018 22.9236H91.6865V27.5058H87.1018V22.9236Z" fill="#053F70"/>
<path d="M82.5171 22.9236H87.1018V27.5058H82.5171V22.9236Z" fill="#05243E"/>
<path d="M77.9324 22.9236H82.5171V27.5058H77.9324V22.9236Z" fill="#05243E"/>
<path d="M110.023 27.5056H114.608V32.0903H110.023V27.5056Z" fill="#05243E"/>
<path d="M105.441 27.5056H110.023V32.0903H105.441V27.5056Z" fill="#065C9E"/>
<path d="M100.854 27.5056H105.438V32.0903H100.854V27.5056Z" fill="#05243E"/>
<path d="M96.2715 27.5056H100.854V32.0903H96.2715V27.5056Z" fill="#053F70"/>
</svg>
