<svg width="22" height="22" viewBox="0 0 22 22" fill="none" xmlns="http://www.w3.org/2000/svg">
<path d="M0 3.14258H1.57143V18.8569H0V3.14258Z" fill="#FFD776"/>
<path d="M20.4287 3.14258H22.0001V18.8569H20.4287V3.14258Z" fill="#FFD776"/>
<path d="M1.57129 1.57129H3.14272V3.14272H1.57129V1.57129Z" fill="#FFD776"/>
<path d="M1.57129 3.14258H3.14272V18.8564H1.57129V3.14258Z" fill="white"/>
<path d="M18.8574 3.14258H20.4289V18.8564H18.8574V3.14258Z" fill="white"/>
<path d="M3.14258 1.57129H18.8567V3.14272H3.14258V1.57129Z" fill="white"/>
<path d="M3.14258 18.8574H18.8567V20.4289H3.14258V18.8574Z" fill="white"/>
<path d="M3.14258 0H18.8569V1.57143H3.14258V0Z" fill="#FFD776"/>
<path d="M3.14258 20.4287H18.8569V22.0001H3.14258V20.4287Z" fill="#FFD776"/>
<path d="M18.8574 1.57129H20.4289V3.14272H18.8574V1.57129Z" fill="#FFD776"/>
<path d="M1.57129 18.8574H3.14272V20.4289H1.57129V18.8574Z" fill="#FFD776"/>
<path d="M18.8574 18.8574H20.4289V20.4289H18.8574V18.8574Z" fill="#FFD776"/>
<rect x="3.14258" y="3.0791" width="15.7144" height="15.7783" fill="white"/>
</svg>
