<svg width="163" height="57" viewBox="0 0 163 57" fill="none" xmlns="http://www.w3.org/2000/svg">
<g clip-path="url(#clip0_602_740)">
<path d="M123.401 0H119.007V4.37816H123.401V0Z" fill="#515859"/>
<path d="M127.794 0H123.401V4.37816H127.794V0Z" fill="#303435"/>
<path d="M132.202 0H127.808V4.37816H132.202V0Z" fill="#303435"/>
<path d="M136.596 0H132.202V4.37816H136.596V0Z" fill="#303435"/>
<path d="M140.99 0H136.596V4.37816H140.99V0Z" fill="#202225"/>
<path d="M92.6028 4.37793H88.1951V8.75609H92.6028V4.37793Z" fill="#7A8485"/>
<path d="M96.9965 4.37793H92.6028V8.75609H96.9965V4.37793Z" fill="#515859"/>
<path d="M101.39 4.37793H96.9965V8.75609H101.39V4.37793Z" fill="#424748"/>
<path d="M105.798 4.37793H101.404V8.75609H105.798V4.37793Z" fill="#303435"/>
<path d="M110.192 4.37793H105.798V8.75609H110.192V4.37793Z" fill="#202225"/>
<path d="M118.993 4.37793H114.599V8.75609H118.993V4.37793Z" fill="#515859"/>
<path d="M123.401 4.37793H119.007V8.75609H123.401V4.37793Z" fill="#424748"/>
<path d="M127.794 4.37793H123.401V8.75609H127.794V4.37793Z" fill="#303435"/>
<path d="M132.202 4.37793H127.808V8.75609H132.202V4.37793Z" fill="#202225"/>
<path d="M136.596 4.37793H132.202V8.75609H136.596V4.37793Z" fill="#202225"/>
<path d="M140.99 4.37793H136.596V8.75609H140.99V4.37793Z" fill="#303435"/>
<path d="M145.411 4.37793H141.004V8.75609H145.411V4.37793Z" fill="#202225"/>
<path d="M88.1951 8.77051H83.8014V13.1487H88.1951V8.77051Z" fill="#7A8485"/>
<path d="M92.6028 8.77051H88.1951V13.1487H92.6028V8.77051Z" fill="#515859"/>
<path d="M96.9965 8.77051H92.6028V13.1487H96.9965V8.77051Z" fill="#515859"/>
<path d="M101.39 8.77051H96.9965V13.1487H101.39V8.77051Z" fill="#424748"/>
<path d="M105.798 8.77051H101.404V13.1487H105.798V8.77051Z" fill="#424748"/>
<path d="M110.192 8.77051H105.798V13.1487H110.192V8.77051Z" fill="#515859"/>
<path d="M114.599 8.77051H110.206V13.1487H114.599V8.77051Z" fill="#515859"/>
<path d="M118.993 8.77051H114.599V13.1487H118.993V8.77051Z" fill="#424748"/>
<path d="M123.401 8.77051H119.007V13.1487H123.401V8.77051Z" fill="#303435"/>
<path d="M127.794 8.77051H123.401V13.1487H127.794V8.77051Z" fill="#424748"/>
<path d="M132.202 8.77051H127.808V13.1487H132.202V8.77051Z" fill="#303435"/>
<path d="M136.596 8.77051H132.202V13.1487H136.596V8.77051Z" fill="#303435"/>
<path d="M140.99 8.77051H136.596V13.1487H140.99V8.77051Z" fill="#202225"/>
<path d="M145.411 8.77051H141.004V13.1487H145.411V8.77051Z" fill="#303435"/>
<path d="M83.7874 13.1484H79.3937V17.5266H83.7874V13.1484Z" fill="#7A8485"/>
<path d="M88.1951 13.1484H83.8014V17.5266H88.1951V13.1484Z" fill="#515859"/>
<path d="M92.6028 13.1484H88.1951V17.5266H92.6028V13.1484Z" fill="#424748"/>
<path d="M96.9965 13.1484H92.6028V17.5266H96.9965V13.1484Z" fill="#424748"/>
<path d="M101.39 13.1484H96.9965V17.5266H101.39V13.1484Z" fill="#515859"/>
<path d="M105.798 13.1484H101.404V17.5266H105.798V13.1484Z" fill="#424748"/>
<path d="M110.192 13.1484H105.798V17.5266H110.192V13.1484Z" fill="#424748"/>
<path d="M114.599 13.1484H110.206V17.5266H114.599V13.1484Z" fill="#515859"/>
<path d="M118.993 13.1484H114.599V17.5266H118.993V13.1484Z" fill="#515859"/>
<path d="M123.401 13.1484H119.007V17.5266H123.401V13.1484Z" fill="#424748"/>
<path d="M127.794 13.1484H123.401V17.5266H127.794V13.1484Z" fill="#303435"/>
<path d="M132.202 13.1484H127.808V17.5266H132.202V13.1484Z" fill="#303435"/>
<path d="M136.596 13.1484H132.202V17.5266H136.596V13.1484Z" fill="#303435"/>
<path d="M140.99 13.1484H136.596V17.5266H140.99V13.1484Z" fill="#303435"/>
<path d="M145.411 13.1484H141.004V17.5266H145.411V13.1484Z" fill="#202225"/>
<path d="M83.7874 17.5405H79.3937V21.9327H83.7874V17.5405Z" fill="#515859"/>
<path d="M88.1951 17.5405H83.8014V21.9327H88.1951V17.5405Z" fill="#515859"/>
<path d="M92.6028 17.5405H88.1951V21.9327H92.6028V17.5405Z" fill="#424748"/>
<path d="M96.9965 17.5405H92.6028V21.9327H96.9965V17.5405Z" fill="#515859"/>
<path d="M101.39 17.5405H96.9965V21.9327H101.39V17.5405Z" fill="#424748"/>
<path d="M105.798 17.5405H101.404V21.9327H105.798V17.5405Z" fill="#515859"/>
<path d="M110.192 17.5405H105.798V21.9327H110.192V17.5405Z" fill="#7A8485"/>
<path d="M114.599 17.5405H110.206V21.9327H114.599V17.5405Z" fill="#515859"/>
<path d="M118.993 17.5405H114.599V21.9327H118.993V17.5405Z" fill="#202225"/>
<path d="M123.401 17.5405H119.007V21.9327H123.401V17.5405Z" fill="#7A8485"/>
<path d="M127.794 17.5405H123.401V21.9327H127.794V17.5405Z" fill="#515859"/>
<path d="M132.202 17.5405H127.808V21.9327H132.202V17.5405Z" fill="#424748"/>
<path d="M136.596 17.5405H132.202V21.9327H136.596V17.5405Z" fill="#202225"/>
<path d="M140.99 17.5405H136.596V21.9327H140.99V17.5405Z" fill="#303435"/>
<path d="M145.411 17.5405H141.004V21.9327H145.411V17.5405Z" fill="#303435"/>
<path d="M149.791 17.5405H145.397V21.9327H149.791V17.5405Z" fill="#202225"/>
<path d="M154.199 17.5405H149.805V21.9327H154.199V17.5405Z" fill="#202225"/>
<path d="M79.3937 21.9189H75V26.2971H79.3937V21.9189Z" fill="#515859"/>
<path d="M83.7874 21.9189H79.3937V26.2971H83.7874V21.9189Z" fill="#515859"/>
<path d="M88.1951 21.9189H83.8014V26.2971H88.1951V21.9189Z" fill="#424748"/>
<path d="M92.6028 21.9189H88.1951V26.2971H92.6028V21.9189Z" fill="#515859"/>
<path d="M96.9965 21.9189H92.6028V26.2971H96.9965V21.9189Z" fill="#424748"/>
<path d="M101.39 21.9189H96.9965V26.2971H101.39V21.9189Z" fill="#515859"/>
<path d="M105.798 21.9189H101.404V26.2971H105.798V21.9189Z" fill="#7A8485"/>
<path d="M110.192 21.9189H105.798V26.2971H110.192V21.9189Z" fill="#515859"/>
<path d="M114.599 21.9189H110.206V26.2971H114.599V21.9189Z" fill="#202225"/>
<path d="M118.993 21.9189H114.599V26.2971H118.993V21.9189Z" fill="#303435"/>
<path d="M123.401 21.9189H119.007V26.2971H123.401V21.9189Z" fill="#424748"/>
<path d="M127.794 21.9189H123.401V26.2971H127.794V21.9189Z" fill="#515859"/>
<path d="M132.202 21.9189H127.808V26.2971H132.202V21.9189Z" fill="#515859"/>
<path d="M136.596 21.9189H132.202V26.2971H136.596V21.9189Z" fill="#424748"/>
<path d="M140.99 21.9189H136.596V26.2971H140.99V21.9189Z" fill="#303435"/>
<path d="M145.411 21.9189H141.004V26.2971H145.411V21.9189Z" fill="#303435"/>
<path d="M149.791 21.9189H145.397V26.2971H149.791V21.9189Z" fill="#202225"/>
<path d="M154.199 21.9189H149.805V26.2971H154.199V21.9189Z" fill="#303435"/>
<path d="M158.592 21.9189H154.199V26.2971H158.592V21.9189Z" fill="#202225"/>
<path d="M163.014 21.9189H158.606V26.2971H163.014V21.9189Z" fill="#202225"/>
<path d="M79.3937 26.311H75V30.6892H79.3937V26.311Z" fill="#424748"/>
<path d="M83.7874 26.311H79.3937V30.6892H83.7874V26.311Z" fill="#515859"/>
<path d="M88.1951 26.311H83.8014V30.6892H88.1951V26.311Z" fill="#515859"/>
<path d="M92.6028 26.311H88.1951V30.6892H92.6028V26.311Z" fill="#424748"/>
<path d="M96.9965 26.311H92.6028V30.6892H96.9965V26.311Z" fill="#202225"/>
<path d="M101.39 26.311H96.9965V30.6892H101.39V26.311Z" fill="#424748"/>
<path d="M105.798 26.311H101.404V30.6892H105.798V26.311Z" fill="#515859"/>
<path d="M110.192 26.311H105.798V30.6892H110.192V26.311Z" fill="#424748"/>
<path d="M114.599 26.311H110.206V30.6892H114.599V26.311Z" fill="#202225"/>
<path d="M118.993 26.311H114.599V30.6892H118.993V26.311Z" fill="#202225"/>
<path d="M123.401 26.311H119.007V30.6892H123.401V26.311Z" fill="#202225"/>
<path d="M127.794 26.311H123.401V30.6892H127.794V26.311Z" fill="#202225"/>
<path d="M132.202 26.311H127.808V30.6892H132.202V26.311Z" fill="#202225"/>
<path d="M136.596 26.311H132.202V30.6892H136.596V26.311Z" fill="#202225"/>
<path d="M140.99 26.311H136.596V30.6892H140.99V26.311Z" fill="#303435"/>
<path d="M145.411 26.311H141.004V30.6892H145.411V26.311Z" fill="#424748"/>
<path d="M149.791 26.311H145.397V30.6892H149.791V26.311Z" fill="#303435"/>
<path d="M154.199 26.311H149.805V30.6892H154.199V26.311Z" fill="#202225"/>
<path d="M158.592 26.311H154.199V30.6892H158.592V26.311Z" fill="#303435"/>
<path d="M163.014 26.311H158.606V30.6892H163.014V26.311Z" fill="#202225"/>
<path d="M79.3937 30.689H75V35.0671H79.3937V30.689Z" fill="#303435"/>
<path d="M83.7874 30.689H79.3937V35.0671H83.7874V30.689Z" fill="#424748"/>
<path d="M88.1951 30.689H83.8014V35.0671H88.1951V30.689Z" fill="#424748"/>
<path d="M92.6028 30.689H88.1951V35.0671H92.6028V30.689Z" fill="#303435"/>
<path d="M96.9965 30.689H92.6028V35.0671H96.9965V30.689Z" fill="#424748"/>
<path d="M101.39 30.689H96.9965V35.0671H101.39V30.689Z" fill="#202225"/>
<path d="M105.798 30.689H101.404V35.0671H105.798V30.689Z" fill="#202225"/>
<path d="M110.192 30.689H105.798V35.0671H110.192V30.689Z" fill="#202225"/>
<path d="M114.599 30.689H110.206V35.0671H114.599V30.689Z" fill="#202225"/>
<path d="M118.993 30.689H114.599V35.0671H118.993V30.689Z" fill="#202225"/>
<path d="M123.401 30.689H119.007V35.0671H123.401V30.689Z" fill="#202225"/>
<path d="M127.794 30.689H123.401V35.0671H127.794V30.689Z" fill="#202225"/>
<path d="M132.202 30.689H127.808V35.0671H132.202V30.689Z" fill="#202225"/>
<path d="M136.596 30.689H132.202V35.0671H136.596V30.689Z" fill="#303435"/>
<path d="M140.99 30.689H136.596V35.0671H140.99V30.689Z" fill="#202225"/>
<path d="M145.411 30.689H141.004V35.0671H145.411V30.689Z" fill="#202225"/>
<path d="M149.791 30.689H145.397V35.0671H149.791V30.689Z" fill="#303435"/>
<path d="M154.199 30.689H149.805V35.0671H154.199V30.689Z" fill="#303435"/>
<path d="M158.592 30.689H154.199V35.0671H158.592V30.689Z" fill="#202225"/>
<path d="M163.014 30.689H158.606V35.0671H163.014V30.689Z" fill="#303435"/>
<path d="M88.1951 35.0811H83.8014V39.4592H88.1951V35.0811Z" fill="#303435"/>
<path d="M92.6028 35.0811H88.1951V39.4592H92.6028V35.0811Z" fill="#202225"/>
<path d="M96.9965 35.0811H92.6028V39.4592H96.9965V35.0811Z" fill="#202225"/>
<path d="M101.39 35.0811H96.9965V39.4592H101.39V35.0811Z" fill="#202225"/>
<path d="M105.798 35.0811H101.404V39.4592H105.798V35.0811Z" fill="#202225"/>
<path d="M110.192 35.0811H105.798V39.4592H110.192V35.0811Z" fill="#202225"/>
<path d="M114.599 35.0811H110.206V39.4592H114.599V35.0811Z" fill="#202225"/>
<path d="M118.993 35.0811H114.599V39.4592H118.993V35.0811Z" fill="#303435"/>
<path d="M123.401 35.0811H119.007V39.4592H123.401V35.0811Z" fill="#202225"/>
<path d="M127.794 35.0811H123.401V39.4592H127.794V35.0811Z" fill="#202225"/>
<path d="M132.202 35.0811H127.808V39.4592H132.202V35.0811Z" fill="#202225"/>
<path d="M136.596 35.0811H132.202V39.4592H136.596V35.0811Z" fill="#202225"/>
<path d="M140.99 35.0811H136.596V39.4592H140.99V35.0811Z" fill="#202225"/>
<path d="M145.411 35.0811H141.004V39.4592H145.411V35.0811Z" fill="#202225"/>
<path d="M149.791 35.0811H145.397V39.4592H149.791V35.0811Z" fill="#202225"/>
<path d="M154.199 35.0811H149.805V39.4592H154.199V35.0811Z" fill="#303435"/>
<path d="M158.592 35.0811H154.199V39.4592H158.592V35.0811Z" fill="#303435"/>
<path d="M163.014 35.0811H158.606V39.4592H163.014V35.0811Z" fill="#303435"/>
<path d="M105.798 39.4595H101.404V43.8376H105.798V39.4595Z" fill="#202225"/>
<path d="M110.192 39.4595H105.798V43.8376H110.192V39.4595Z" fill="#303435"/>
<path d="M114.599 39.4595H110.206V43.8376H114.599V39.4595Z" fill="#202225"/>
<path d="M118.993 39.4595H114.599V43.8376H118.993V39.4595Z" fill="#202225"/>
<path d="M123.401 39.4595H119.007V43.8376H123.401V39.4595Z" fill="#202225"/>
<path d="M127.794 39.4595H123.401V43.8376H127.794V39.4595Z" fill="#202225"/>
<path d="M132.202 39.4595H127.808V43.8376H132.202V39.4595Z" fill="#202225"/>
<path d="M136.596 39.4595H132.202V43.8376H136.596V39.4595Z" fill="#303435"/>
<path d="M140.99 39.4595H136.596V43.8376H140.99V39.4595Z" fill="#202225"/>
<path d="M145.411 39.4595H141.004V43.8376H145.411V39.4595Z" fill="#202225"/>
<path d="M149.791 39.4595H145.397V43.8376H149.791V39.4595Z" fill="#303435"/>
<path d="M154.199 39.4595H149.805V43.8376H154.199V39.4595Z" fill="#202225"/>
<path d="M158.592 39.4595H154.199V43.8376H158.592V39.4595Z" fill="#202225"/>
<path d="M163.014 39.4595H158.606V43.8376H163.014V39.4595Z" fill="#202225"/>
<path d="M114.599 43.8374H110.206V48.2156H114.599V43.8374Z" fill="#424748"/>
<path d="M118.993 43.8374H114.599V48.2156H118.993V43.8374Z" fill="#424748"/>
<path d="M123.401 43.8374H119.007V48.2156H123.401V43.8374Z" fill="#303435"/>
<path d="M127.794 43.8374H123.401V48.2156H127.794V43.8374Z" fill="#303435"/>
<path d="M132.202 43.8374H127.808V48.2156H132.202V43.8374Z" fill="#202225"/>
<path d="M136.596 43.8374H132.202V48.2156H136.596V43.8374Z" fill="#202225"/>
<path d="M140.99 43.8374H136.596V48.2156H140.99V43.8374Z" fill="#202225"/>
<path d="M145.411 43.8374H141.004V48.2156H145.411V43.8374Z" fill="#202225"/>
<path d="M149.791 43.8374H145.397V48.2156H149.791V43.8374Z" fill="#202225"/>
<path d="M154.199 43.8374H149.805V48.2156H154.199V43.8374Z" fill="#202225"/>
<path d="M158.592 43.8374H154.199V48.2156H158.592V43.8374Z" fill="#303435"/>
<path d="M123.401 48.2295H119.007V52.6077H123.401V48.2295Z" fill="#515859"/>
<path d="M127.794 48.2295H123.401V52.6077H127.794V48.2295Z" fill="#7A8485"/>
<path d="M132.202 48.2295H127.808V52.6077H132.202V48.2295Z" fill="#303435"/>
<path d="M136.596 48.2295H132.202V52.6077H136.596V48.2295Z" fill="#303435"/>
<path d="M140.99 48.2295H136.596V52.6077H140.99V48.2295Z" fill="#202225"/>
<path d="M145.411 48.2295H141.004V52.6077H145.411V48.2295Z" fill="#202225"/>
<path d="M149.791 48.2295H145.397V52.6077H149.791V48.2295Z" fill="#303435"/>
<path d="M154.199 48.2295H149.805V52.6077H154.199V48.2295Z" fill="#202225"/>
<path d="M132.202 52.6079H127.808V57.0001H132.202V52.6079Z" fill="#7A8485"/>
<path d="M136.596 52.6079H132.202V57.0001H136.596V52.6079Z" fill="#424748"/>
<path d="M140.99 52.6079H136.596V57.0001H140.99V52.6079Z" fill="#424748"/>
<path d="M145.411 52.6079H141.004V57.0001H145.411V52.6079Z" fill="#303435"/>
</g>
<g clip-path="url(#clip1_602_740)">
<path d="M12.53 8H9.40002V11.13H12.53V8Z" fill="#515859"/>
<path d="M15.67 8H12.54V11.13H15.67V8Z" fill="#424748"/>
<path d="M18.8 8H15.67V11.13H18.8V8Z" fill="#303435"/>
<path d="M9.40002 11.1299H6.27002V14.2599H9.40002V11.1299Z" fill="#7A8485"/>
<path d="M12.53 11.1299H9.40002V14.2599H12.53V11.1299Z" fill="#424748"/>
<path d="M15.67 11.1299H12.54V14.2599H15.67V11.1299Z" fill="#303435"/>
<path d="M18.8 11.1299H15.67V14.2599H18.8V11.1299Z" fill="#202225"/>
<path d="M21.9401 11.1299H18.8101V14.2599H21.9401V11.1299Z" fill="#202225"/>
<path d="M6.27 14.27H3.13V17.4H6.27V14.27Z" fill="#7A8485"/>
<path d="M9.40002 14.27H6.27002V17.4H9.40002V14.27Z" fill="#515859"/>
<path d="M12.53 14.27H9.40002V17.4H12.53V14.27Z" fill="#424748"/>
<path d="M15.67 14.27H12.54V17.4H15.67V14.27Z" fill="#202225"/>
<path d="M18.8 14.27H15.67V17.4H18.8V14.27Z" fill="#303435"/>
<path d="M21.9401 14.27H18.8101V17.4H21.9401V14.27Z" fill="#202225"/>
<path d="M3.13 17.3999H0V20.5299H3.13V17.3999Z" fill="#515859"/>
<path d="M6.27 17.3999H3.13V20.5299H6.27V17.3999Z" fill="#515859"/>
<path d="M9.40002 17.3999H6.27002V20.5299H9.40002V17.3999Z" fill="#424748"/>
<path d="M12.53 17.3999H9.40002V20.5299H12.53V17.3999Z" fill="#202225"/>
<path d="M15.67 17.3999H12.54V20.5299H15.67V17.3999Z" fill="#202225"/>
<path d="M18.8 17.3999H15.67V20.5299H18.8V17.3999Z" fill="#202225"/>
<path d="M21.9401 17.3999H18.8101V20.5299H21.9401V17.3999Z" fill="#303435"/>
<path d="M3.13 20.54H0V23.67H3.13V20.54Z" fill="#303435"/>
<path d="M6.27 20.54H3.13V23.67H6.27V20.54Z" fill="#515859"/>
<path d="M9.40002 20.54H6.27002V23.67H9.40002V20.54Z" fill="#202225"/>
<path d="M12.53 20.54H9.40002V23.67H12.53V20.54Z" fill="#303435"/>
<path d="M15.67 20.54H12.54V23.67H15.67V20.54Z" fill="#202225"/>
<path d="M18.8 20.54H15.67V23.67H18.8V20.54Z" fill="#424748"/>
<path d="M3.13 23.6699H0V26.8099H3.13V23.6699Z" fill="#202225"/>
<path d="M6.27 23.6699H3.13V26.8099H6.27V23.6699Z" fill="#202225"/>
<path d="M9.40002 23.6699H6.27002V26.8099H9.40002V23.6699Z" fill="#202225"/>
<path d="M12.53 23.6699H9.40002V26.8099H12.53V23.6699Z" fill="#202225"/>
<path d="M15.67 23.6699H12.54V26.8099H15.67V23.6699Z" fill="#515859"/>
<path d="M6.27 26.8101H3.13V29.9401H6.27V26.8101Z" fill="#303435"/>
<path d="M9.40002 26.8101H6.27002V29.9401H9.40002V26.8101Z" fill="#424748"/>
<path d="M12.53 26.8101H9.40002V29.9401H12.53V26.8101Z" fill="#515859"/>
</g>
<defs>
<clipPath id="clip0_602_740">
<rect width="88" height="57" fill="white" transform="translate(75)"/>
</clipPath>
<clipPath id="clip1_602_740">
<rect width="21.94" height="21.94" fill="white" transform="translate(0 8)"/>
</clipPath>
</defs>
</svg>
