<svg width="377" height="170" viewBox="0 0 377 170" fill="none" xmlns="http://www.w3.org/2000/svg">
<path d="M-28.7578 36.8188H-21.3811H-14.0044H-6.66015H0.716518H8.0608H15.4375H22.7819V44.1632H30.1585H37.5352V51.5399H44.8795V58.8841H52.2561V66.2608H59.6005V73.6375H66.9772H74.3215V66.2608V58.8841H66.9772V51.5399H59.6005V44.1632V36.8188H52.2561V29.4421H44.8795H37.5352V22.0979H30.1585H22.7819V14.7212H15.4375H8.0608H0.716518H-6.66015V22.0979H-14.0044H-21.3811H-28.7578V29.4421H-36.1022H-43.4788V36.8188H-36.1022H-28.7578Z" fill="#F5C1FB"/>
<path d="M354.118 139.898H346.741V132.521H339.396V125.145H332.02V117.8H324.676H317.299H309.922V110.424H302.578H295.201H287.857H280.48H273.136H265.759V117.8H258.383V125.145H265.759V132.521H273.136V139.898H280.48V132.521V125.145H287.857H295.201H302.578H309.922H317.299V132.521H324.676H332.02V139.898H339.396V147.242H346.741V154.619H354.118V147.242V139.898Z" fill="#F5C1FB"/>
<path d="M96.4192 117.801H89.0749V110.424H81.6982V103.08H74.3216H66.9773H59.6006H52.2562V110.424H59.6006H66.9773V117.801H74.3216V125.145V132.522H66.9773H59.6006H52.2562H44.8796H37.5353H30.1586H22.7819V139.898H15.4376V147.243H8.0609V154.619H0.716614V161.964H8.0609V169.34H15.4376H22.7819H30.1586H37.5353H44.8796H52.2562H59.6006H66.9773H74.3216H81.6982V161.964V154.619H89.0749V147.243H96.4192V139.898H103.796V132.522V125.145H96.4192V117.801Z" fill="#F5C1FB"/>
<path d="M162.68 125.145H170.057H177.401H184.778H192.122V117.8H199.499H206.875H214.22V110.424H206.875H199.499V103.079H192.122H184.778V95.7027H177.401H170.057H162.68H155.336H147.959V88.3584H140.582H133.238H125.861H118.517V95.7027V103.079H125.861V110.424H133.238V117.8V125.145H140.582H147.959H155.336H162.68Z" fill="#F5C1FB"/>
<path d="M354.117 154.619V161.964V169.34H361.462V161.964V154.619H354.117Z" fill="#F5C1FB"/>
<path d="M280.48 154.619H287.857V161.963V169.34H295.201H302.578H309.922H317.299H324.675V161.963H317.299V154.619H309.922H302.578V147.242H295.201H287.857V139.898H280.48V147.242V154.619Z" fill="#F5C1FB"/>
<path d="M243.662 147.242H236.317V139.898H228.941H221.596V132.521H214.22H206.875V139.898H214.22V147.242V154.619H206.875H199.499V147.242H192.122H184.778H177.401H170.057H162.68V154.619H155.336V161.963V169.34H162.68H170.057H177.401H184.778H192.122H199.499H206.875H214.22H221.596H228.941H236.317H243.662H251.038V161.963V154.619H243.662V147.242Z" fill="#F5C1FB"/>
<path d="M8.06091 95.7028V88.3585V80.9818H0.716629V73.6374H-6.66004H-14.0043V66.2607H-21.381H-28.7577H-36.102H-43.4787H-50.823V58.8841V51.5398H-58.1997V58.8841H-65.544V66.2607V73.6374H-72.9207V80.9818V88.3585V95.7028H-65.544V88.3585H-58.1997V80.9818H-50.823H-43.4787H-36.102V73.6374H-28.7577H-21.381V80.9818V88.3585H-28.7577V95.7028H-36.102V103.079H-43.4787V110.424V117.8H-36.102V110.424H-28.7577V103.079H-21.381H-14.0043V95.7028H-6.66004H0.716629H8.06091Z" fill="#F5C1FB"/>
<path d="M273.136 132.521H265.759V125.145H258.383V117.8H251.038H243.661H236.317V110.424H228.941H221.596H214.22V117.8H206.875H199.499H192.122V125.145H184.778H177.401H170.057H162.68H155.336H147.959H140.582H133.238V117.8V110.424H125.861V103.079H118.517V95.7026V88.3583H111.14H103.796H96.4192H89.0749V80.9817H81.6982V73.6373H74.3216H66.9773H59.6006V66.2606H52.2562V58.8839H44.8796V51.5397H37.5353V44.163H30.1586H22.7819V36.8186H15.4376H8.06088H0.716599H-6.66006H-14.0043H-21.381H-28.7577H-36.1021H-43.4787V44.163H-50.823V51.5397H-43.4787H-36.1021H-28.7577H-21.381H-14.0043H-6.66006H0.716599V58.8839H8.06088H15.4376H22.7819V66.2606H30.1586V73.6373H37.5353V80.9817H44.8796V88.3583V95.7026H37.5353H30.1586H22.7819H15.4376H8.06088H0.716599H-6.66006H-14.0043V103.079H-21.381H-28.7577V110.424H-36.1021V117.8H-43.4787V110.424V103.079H-36.1021V95.7026H-28.7577V88.3583H-21.381V80.9817V73.6373H-28.7577H-36.1021V80.9817H-43.4787H-50.823H-58.1997V88.3583H-65.5441V95.7026H-72.9207V103.079H-80.265V110.424H-87.6417H-95.0184V117.8H-102.363H-109.739V125.145H-117.084V132.521V139.898H-124.46H-131.805H-139.181H-146.558H-153.902V147.242H-161.279H-168.623V154.619H-176V161.963V169.34H-168.623H-161.279H-153.902H-146.558H-139.181H-131.805H-124.46H-117.084V161.963H-109.739V154.619H-102.363V161.963H-95.0184H-87.6417V154.619V147.242H-95.0184V139.898V132.521H-87.6417H-80.265H-72.9207H-65.5441V139.898H-58.1997V147.242V154.619V161.963V169.34H-50.823H-43.4787H-36.1021H-28.7577V161.963V154.619V147.242H-21.381V139.898H-14.0043V132.521H-6.66006V125.145H0.716599H8.06088H15.4376V117.8H22.7819H30.1586H37.5353H44.8796H52.2562H59.6006H66.9773V110.424H59.6006H52.2562V103.079H59.6006H66.9773H74.3216H81.6982V110.424H89.0749V117.8H96.4192V125.145H103.796V132.521V139.898H96.4192V147.242H89.0749V154.619H81.6982V161.963V169.34H89.0749H96.4192H103.796H111.14H118.517H125.861V161.963V154.619H133.238V147.242V139.898H140.582V132.521H147.959H155.336H162.68H170.057H177.401H184.778H192.122V139.898V147.242H199.499V154.619H206.875H214.22V147.242V139.898H206.875V132.521H214.22H221.596V139.898H228.941H236.317V147.242H243.661V154.619H251.038V161.963V169.34H258.383H265.759H273.136H280.48H287.857V161.963V154.619H280.48V147.242V139.898H273.136V132.521Z" fill="white"/>
<path d="M66.9772 132.521H74.3215V125.145V117.8H66.9772V125.145V132.521Z" fill="white"/>
<path d="M346.741 154.619V147.242H339.396V139.898H332.02V132.521H324.675H317.299V125.145H309.922H302.578H295.201H287.857H280.48V132.521V139.898H287.857V147.242H295.201H302.578V154.619H309.922H317.299V161.963H324.675V169.34H332.02H339.396H346.741H354.117V161.963V154.619H346.741Z" fill="white"/>
<path d="M177.401 132.521H170.057H162.68H155.336H147.959H140.582V139.898H133.238V147.242V154.619H125.861V161.963V169.34H133.238H140.582H147.959H155.336V161.963V154.619H162.68V147.242H170.057H177.401H184.778H192.122V139.898V132.521H184.778H177.401Z" fill="#DEAEFA"/>
<path d="M52.2562 117.8H44.8796H37.5353H30.1586H22.7819H15.4376V125.145H8.06089H0.716602H-6.66007V132.521H-14.0044V139.898H-21.381V147.242H-28.7577V154.619V161.963V169.34H-21.381H-14.0044H-6.66007H0.716602H8.06089V161.963H0.716602V154.619H8.06089V147.242H15.4376V139.898H22.7819V132.521H30.1586H37.5353H44.8796H52.2562H59.6006H66.9773V125.145V117.8H59.6006H52.2562Z" fill="#DEAEFA"/>
<path d="M368.839 154.619V147.242V139.898H361.462V132.521H354.118V125.145H346.741V117.8H339.397V110.424H332.02V103.079H324.676H317.299H309.922V95.7027H302.578H295.201H287.857H280.48V103.079H273.136H265.759H258.383H251.038H243.662H236.317H228.941H221.596V95.7027H214.22H206.875V88.3584H199.499V80.9817H192.122H184.778H177.401H170.057H162.68H155.336H147.959H140.582H133.238H125.861H118.517H111.14H103.796H96.4193V73.6373H89.075V66.2607V58.884H81.6983V51.5397V44.1631V36.8187H74.3217V29.442V22.0977H66.9774V14.7211H59.6007V7.34438H52.2563V0H44.8797H37.5354H30.1587H22.782H15.4377H8.06097H0.71669H-6.65997H-14.0043V7.34438H-21.3809H-28.7576H-36.102V14.7211H-43.4786V22.0977H-50.8229V29.442H-58.1996V36.8187H-65.544V44.1631H-72.9206V51.5397V58.884H-80.2649V66.2607V73.6373H-87.6416V80.9817V88.3584H-95.0183V95.7027H-102.363V103.079H-109.739H-117.084V110.424H-124.46H-131.805H-139.181V117.8H-146.558H-153.902V125.145H-161.279V132.521H-168.623V139.898V147.242H-161.279V139.898H-153.902H-146.558V132.521H-139.181H-131.805H-124.46V125.145H-117.084V117.8H-109.739H-102.363V110.424H-95.0183H-87.6416V103.079H-80.2649V95.7027H-72.9206V88.3584V80.9817V73.6373H-65.544V66.2607V58.884H-58.1996V51.5397H-50.8229V44.1631V36.8187H-43.4786V29.442H-36.102H-28.7576V22.0977H-21.3809H-14.0043H-6.65997V14.7211H0.71669H8.06097H15.4377H22.782V22.0977H30.1587H37.5354V29.442H44.8797H52.2563V36.8187H59.6007V44.1631V51.5397H66.9774V58.884H74.3217V66.2607V73.6373H81.6983V80.9817H89.075V88.3584H96.4193H103.796H111.14H118.517H125.861H133.238H140.582H147.959V95.7027H155.336H162.68H170.057H177.401H184.778V103.079H192.122H199.499V110.424H206.875H214.22H221.596H228.941H236.317V117.8H243.662H251.038H258.383H265.759V110.424H273.136H280.48H287.857H295.201H302.578H309.922V117.8H317.299H324.676H332.02V125.145H339.397V132.521H346.741V139.898H354.118V147.242V154.619H361.462V161.963V169.34H368.839H376.215V161.963V154.619H368.839Z" fill="#DEAEFA"/>
<path d="M-50.8228 66.2607H-43.4785H-36.1019H-28.7575H-21.3808H-14.0041V73.6374H-6.65985H0.716812V80.9818H8.0611V88.3585V95.7028H15.4378H22.7822H30.1588H37.5355H44.8798V88.3585V80.9818H37.5355V73.6374H30.1588V66.2607H22.7822V58.8841H15.4378H8.0611H0.716812V51.5398H-6.65985H-14.0041H-21.3808H-28.7575H-36.1019H-43.4785H-50.8228V58.8841V66.2607Z" fill="#DEAEFA"/>
</svg>
