<svg width="160" height="175" viewBox="0 0 160 175" fill="none" xmlns="http://www.w3.org/2000/svg">
<g clip-path="url(#clip0_50_13323)">
<path d="M82.5933 175L87.7472 175L87.7472 169.861L82.5933 169.861L82.5933 175Z" fill="#F0FFFF"/>
<path d="M77.423 175L82.5769 175L82.5769 169.861L77.423 169.861L77.423 175Z" fill="#D0E1E9"/>
<path d="M72.2692 175L77.4231 175L77.4231 169.861L72.2692 169.861L72.2692 175Z" fill="#809AA7"/>
<path d="M87.7308 169.861L92.9011 169.861L92.9011 164.721L87.7308 164.721L87.7308 169.861Z" fill="#F0FFFF"/>
<path d="M82.5933 169.861L87.7472 169.861L87.7472 164.721L82.5933 164.721L82.5933 169.861Z" fill="#D0E1E9"/>
<path d="M77.423 169.861L82.5769 169.861L82.5769 164.721L77.423 164.721L77.423 169.861Z" fill="#D0E1E9"/>
<path d="M72.2692 169.861L77.4231 169.861L77.4231 164.721L72.2692 164.721L72.2692 169.861Z" fill="#D0E1E9"/>
<path d="M67.0825 169.861L72.2528 169.861L72.2528 164.721L67.0825 164.721L67.0825 169.861Z" fill="#809AA7"/>
<path d="M92.9011 164.705L98.0549 164.705L98.0549 159.566L92.9011 159.566L92.9011 164.705Z" fill="#F0FFFF"/>
<path d="M87.7308 164.705L92.9011 164.705L92.9011 159.566L87.7308 159.566L87.7308 164.705Z" fill="#D0E1E9"/>
<path d="M82.5933 164.705L87.7472 164.705L87.7472 159.566L82.5933 159.566L82.5933 164.705Z" fill="#D0E1E9"/>
<path d="M77.423 164.705L82.5769 164.705L82.5769 159.566L77.423 159.566L77.423 164.705Z" fill="#D0E1E9"/>
<path d="M72.2692 164.705L77.4231 164.705L77.4231 159.566L72.2692 159.566L72.2692 164.705Z" fill="#D0E1E9"/>
<path d="M67.0825 164.705L72.2528 164.705L72.2528 159.566L67.0825 159.566L67.0825 164.705Z" fill="#D0E1E9"/>
<path d="M61.945 164.705L67.0989 164.705L67.0989 159.566L61.945 159.566L61.945 164.705Z" fill="#809AA7"/>
<path d="M92.9011 159.566L98.0549 159.566L98.0549 154.41L92.9011 154.41L92.9011 159.566Z" fill="#FFAD32"/>
<path d="M87.7308 159.566L92.9011 159.566L92.9011 154.41L87.7308 154.41L87.7308 159.566Z" fill="#F7852F"/>
<path d="M82.5933 159.566L87.7472 159.566L87.7472 154.41L82.5933 154.41L82.5933 159.566Z" fill="#F7852F"/>
<path d="M77.423 159.566L82.5769 159.566L82.5769 154.41L77.423 154.41L77.423 159.566Z" fill="#F7852F"/>
<path d="M72.2692 159.566L77.4231 159.566L77.4231 154.41L72.2692 154.41L72.2692 159.566Z" fill="#F7852F"/>
<path d="M67.0825 159.566L72.2528 159.566L72.2528 154.41L67.0825 154.41L67.0825 159.566Z" fill="#F7852F"/>
<path d="M61.945 159.566L67.0989 159.566L67.0989 154.41L61.945 154.41L61.945 159.566Z" fill="#D8531A"/>
<path d="M92.9011 154.41L98.0549 154.41L98.0549 149.271L92.9011 149.271L92.9011 154.41Z" fill="#F0FFFF"/>
<path d="M87.7308 154.41L92.9011 154.41L92.9011 149.271L87.7308 149.271L87.7308 154.41Z" fill="#D0E1E9"/>
<path d="M82.5933 154.41L87.7472 154.41L87.7472 149.271L82.5933 149.271L82.5933 154.41Z" fill="#D0E1E9"/>
<path d="M77.423 154.41L82.5769 154.41L82.5769 149.271L77.423 149.271L77.423 154.41Z" fill="#D0E1E9"/>
<path d="M72.2692 154.41L77.4231 154.41L77.4231 149.271L72.2692 149.271L72.2692 154.41Z" fill="#D0E1E9"/>
<path d="M67.0825 154.41L72.2528 154.41L72.2528 149.271L67.0825 149.271L67.0825 154.41Z" fill="#D0E1E9"/>
<path d="M61.945 154.41L67.0989 154.41L67.0989 149.271L61.945 149.271L61.945 154.41Z" fill="#809AA7"/>
<path d="M92.9011 149.271L98.0549 149.271L98.0549 144.131L92.9011 144.131L92.9011 149.271Z" fill="#F0FFFF"/>
<path d="M87.7308 149.271L92.9011 149.271L92.9011 144.131L87.7308 144.131L87.7308 149.271Z" fill="#D0E1E9"/>
<path d="M82.5933 149.271L87.7472 149.271L87.7472 144.131L82.5933 144.131L82.5933 149.271Z" fill="#D0E1E9"/>
<path d="M77.423 149.271L82.5769 149.271L82.5769 144.131L77.423 144.131L77.423 149.271Z" fill="#394B53"/>
<path d="M72.2692 149.271L77.4231 149.271L77.4231 144.131L72.2692 144.131L72.2692 149.271Z" fill="#D0E1E9"/>
<path d="M67.0825 149.271L72.2528 149.271L72.2528 144.131L67.0825 144.131L67.0825 149.271Z" fill="#D0E1E9"/>
<path d="M61.945 149.271L67.0989 149.271L67.0989 144.131L61.945 144.131L61.945 149.271Z" fill="#809AA7"/>
<path d="M98.0714 144.115L103.225 144.115L103.225 138.975L98.0714 138.975L98.0714 144.115Z" fill="#F0FFFF"/>
<path d="M92.9011 144.115L98.0549 144.115L98.0549 138.975L92.9011 138.975L92.9011 144.115Z" fill="#F0FFFF"/>
<path d="M87.7308 144.115L92.9011 144.115L92.9011 138.975L87.7308 138.975L87.7308 144.115Z" fill="#D0E1E9"/>
<path d="M82.5933 144.115L87.7472 144.115L87.7472 138.975L82.5933 138.975L82.5933 144.115Z" fill="#394B53"/>
<path d="M77.423 144.115L82.5769 144.115L82.5769 138.975L77.423 138.975L77.423 144.115Z" fill="#394B53"/>
<path d="M72.2692 144.115L77.4231 144.115L77.4231 138.975L72.2692 138.975L72.2692 144.115Z" fill="#394B53"/>
<path d="M67.0825 144.115L72.2528 144.115L72.2528 138.975L67.0825 138.975L67.0825 144.115Z" fill="#D0E1E9"/>
<path d="M61.945 144.115L67.0989 144.115L67.0989 138.975L61.945 138.975L61.945 144.115Z" fill="#809AA7"/>
<path d="M56.7747 144.115L61.9286 144.115L61.9286 138.975L56.7747 138.975L56.7747 144.115Z" fill="#809AA7"/>
<path d="M144.522 138.975L149.676 138.975L149.676 133.82L144.522 133.82L144.522 138.975Z" fill="#373B3E"/>
<path d="M139.368 138.975L144.522 138.975L144.522 133.82L139.368 133.82L139.368 138.975Z" fill="#26282A"/>
<path d="M103.225 138.975L108.379 138.975L108.379 133.82L103.225 133.82L103.225 138.975Z" fill="#F0FFFF"/>
<path d="M98.0714 138.975L103.225 138.975L103.225 133.82L98.0714 133.82L98.0714 138.975Z" fill="#D0E1E9"/>
<path d="M92.9011 138.975L98.0549 138.975L98.0549 133.82L92.9011 133.82L92.9011 138.975Z" fill="#F0FFFF"/>
<path d="M87.7308 138.975L92.9011 138.975L92.9011 133.82L87.7308 133.82L87.7308 138.975Z" fill="#D0E1E9"/>
<path d="M82.5933 138.975L87.7472 138.975L87.7472 133.82L82.5933 133.82L82.5933 138.975Z" fill="#394B53"/>
<path d="M77.423 138.975L82.5769 138.975L82.5769 133.82L77.423 133.82L77.423 138.975Z" fill="#51DFF2"/>
<path d="M72.2692 138.975L77.4231 138.975L77.4231 133.82L72.2692 133.82L72.2692 138.975Z" fill="#394B53"/>
<path d="M67.0825 138.975L72.2528 138.975L72.2528 133.82L67.0825 133.82L67.0825 138.975Z" fill="#D0E1E9"/>
<path d="M61.945 138.975L67.0989 138.975L67.0989 133.82L61.945 133.82L61.945 138.975Z" fill="#809AA7"/>
<path d="M56.7747 138.975L61.9286 138.975L61.9286 133.82L56.7747 133.82L56.7747 138.975Z" fill="#D0E1E9"/>
<path d="M51.6209 138.975L56.7748 138.975L56.7748 133.82L51.6209 133.82L51.6209 138.975Z" fill="#809AA7"/>
<path d="M15.4945 138.975L20.6483 138.975L20.6483 133.82L15.4945 133.82L15.4945 138.975Z" fill="#373B3E"/>
<path d="M10.3242 138.975L15.478 138.975L15.478 133.82L10.3242 133.82L10.3242 138.975Z" fill="#26282A"/>
<path d="M144.522 133.82L149.676 133.82L149.676 128.68L144.522 128.68L144.522 133.82Z" fill="#43484B"/>
<path d="M139.368 133.82L144.522 133.82L144.522 128.68L139.368 128.68L139.368 133.82Z" fill="#373B3E"/>
<path d="M108.396 133.82L113.549 133.82L113.549 128.68L108.396 128.68L108.396 133.82Z" fill="#F0FFFF"/>
<path d="M103.225 133.82L108.379 133.82L108.379 128.68L103.225 128.68L103.225 133.82Z" fill="#9AB0BB"/>
<path d="M98.0714 133.82L103.225 133.82L103.225 128.68L98.0714 128.68L98.0714 133.82Z" fill="#D0E1E9"/>
<path d="M92.9011 133.82L98.0549 133.82L98.0549 128.68L92.9011 128.68L92.9011 133.82Z" fill="#F0FFFF"/>
<path d="M87.7308 133.82L92.9011 133.82L92.9011 128.68L87.7308 128.68L87.7308 133.82Z" fill="#D0E1E9"/>
<path d="M82.5933 133.82L87.7472 133.82L87.7472 128.68L82.5933 128.68L82.5933 133.82Z" fill="#394B53"/>
<path d="M77.423 133.82L82.5769 133.82L82.5769 128.68L77.423 128.68L77.423 133.82Z" fill="#05B8CF"/>
<path d="M72.2692 133.82L77.4231 133.82L77.4231 128.68L72.2692 128.68L72.2692 133.82Z" fill="#394B53"/>
<path d="M67.0825 133.82L72.2528 133.82L72.2528 128.68L67.0825 128.68L67.0825 133.82Z" fill="#D0E1E9"/>
<path d="M61.945 133.82L67.0989 133.82L67.0989 128.68L61.945 128.68L61.945 133.82Z" fill="#809AA7"/>
<path d="M56.7747 133.82L61.9286 133.82L61.9286 128.68L56.7747 128.68L56.7747 133.82Z" fill="#D0E1E9"/>
<path d="M51.6209 133.82L56.7748 133.82L56.7748 128.68L51.6209 128.68L51.6209 133.82Z" fill="#F0FFFF"/>
<path d="M46.4341 133.82L51.6044 133.82L51.6044 128.68L46.4341 128.68L46.4341 133.82Z" fill="#809AA7"/>
<path d="M15.4945 133.82L20.6483 133.82L20.6483 128.68L15.4945 128.68L15.4945 133.82Z" fill="#43484B"/>
<path d="M10.3242 133.82L15.478 133.82L15.478 128.68L10.3242 128.68L10.3242 133.82Z" fill="#373B3E"/>
<path d="M144.522 128.68L149.676 128.68L149.676 123.541L144.522 123.541L144.522 128.68Z" fill="#373B3E"/>
<path d="M139.368 128.68L144.522 128.68L144.522 123.541L139.368 123.541L139.368 128.68Z" fill="#26282A"/>
<path d="M113.549 128.68L118.703 128.68L118.703 123.541L113.549 123.541L113.549 128.68Z" fill="#F0FFFF"/>
<path d="M108.396 128.68L113.549 128.68L113.549 123.541L108.396 123.541L108.396 128.68Z" fill="#D0E1E9"/>
<path d="M103.225 128.68L108.379 128.68L108.379 123.541L103.225 123.541L103.225 128.68Z" fill="#9AB0BB"/>
<path d="M98.0714 128.68L103.225 128.68L103.225 123.541L98.0714 123.541L98.0714 128.68Z" fill="#D0E1E9"/>
<path d="M92.9011 128.68L98.0549 128.68L98.0549 123.541L92.9011 123.541L92.9011 128.68Z" fill="#F0FFFF"/>
<path d="M87.7308 128.68L92.9011 128.68L92.9011 123.541L87.7308 123.541L87.7308 128.68Z" fill="#D0E1E9"/>
<path d="M82.5933 128.68L87.7472 128.68L87.7472 123.541L82.5933 123.541L82.5933 128.68Z" fill="#394B53"/>
<path d="M77.423 128.68L82.5769 128.68L82.5769 123.541L77.423 123.541L77.423 128.68Z" fill="#51DFF2"/>
<path d="M72.2692 128.68L77.4231 128.68L77.4231 123.541L72.2692 123.541L72.2692 128.68Z" fill="#394B53"/>
<path d="M67.0825 128.68L72.2528 128.68L72.2528 123.541L67.0825 123.541L67.0825 128.68Z" fill="#D0E1E9"/>
<path d="M61.945 128.68L67.0989 128.68L67.0989 123.541L61.945 123.541L61.945 128.68Z" fill="#809AA7"/>
<path d="M56.7747 128.68L61.9286 128.68L61.9286 123.541L56.7747 123.541L56.7747 128.68Z" fill="#D0E1E9"/>
<path d="M51.6209 128.68L56.7748 128.68L56.7748 123.541L51.6209 123.541L51.6209 128.68Z" fill="#F0FFFF"/>
<path d="M46.4341 128.68L51.6044 128.68L51.6044 123.541L46.4341 123.541L46.4341 128.68Z" fill="#D0E1E9"/>
<path d="M41.2967 128.68L46.4506 128.68L46.4506 123.541L41.2967 123.541L41.2967 128.68Z" fill="#809AA7"/>
<path d="M15.4945 128.68L20.6483 128.68L20.6483 123.541L15.4945 123.541L15.4945 128.68Z" fill="#373B3E"/>
<path d="M10.3242 128.68L15.478 128.68L15.478 123.541L10.3242 123.541L10.3242 128.68Z" fill="#26282A"/>
<path d="M144.522 123.525L149.676 123.525L149.676 118.385L144.522 118.385L144.522 123.525Z" fill="#373B3E"/>
<path d="M139.368 123.525L144.522 123.525L144.522 118.385L139.368 118.385L139.368 123.525Z" fill="#26282A"/>
<path d="M113.549 123.525L118.703 123.525L118.703 118.385L113.549 118.385L113.549 123.525Z" fill="#F0FFFF"/>
<path d="M108.396 123.525L113.549 123.525L113.549 118.385L108.396 118.385L108.396 123.525Z" fill="#D0E1E9"/>
<path d="M103.225 123.525L108.379 123.525L108.379 118.385L103.225 118.385L103.225 123.525Z" fill="#9AB0BB"/>
<path d="M98.0714 123.525L103.225 123.525L103.225 118.385L98.0714 118.385L98.0714 123.525Z" fill="#D0E1E9"/>
<path d="M92.9011 123.525L98.0549 123.525L98.0549 118.385L92.9011 118.385L92.9011 123.525Z" fill="#F0FFFF"/>
<path d="M87.7308 123.525L92.9011 123.525L92.9011 118.385L87.7308 118.385L87.7308 123.525Z" fill="#D0E1E9"/>
<path d="M82.5933 123.525L87.7472 123.525L87.7472 118.385L82.5933 118.385L82.5933 123.525Z" fill="#394B53"/>
<path d="M77.423 123.525L82.5769 123.525L82.5769 118.385L77.423 118.385L77.423 123.525Z" fill="#05B8CF"/>
<path d="M72.2692 123.525L77.4231 123.525L77.4231 118.385L72.2692 118.385L72.2692 123.525Z" fill="#394B53"/>
<path d="M67.0825 123.525L72.2528 123.525L72.2528 118.385L67.0825 118.385L67.0825 123.525Z" fill="#D0E1E9"/>
<path d="M61.945 123.525L67.0989 123.525L67.0989 118.385L61.945 118.385L61.945 123.525Z" fill="#809AA7"/>
<path d="M56.7747 123.525L61.9286 123.525L61.9286 118.385L56.7747 118.385L56.7747 123.525Z" fill="#D0E1E9"/>
<path d="M51.6209 123.525L56.7748 123.525L56.7748 118.385L51.6209 118.385L51.6209 123.525Z" fill="#F0FFFF"/>
<path d="M46.4341 123.525L51.6044 123.525L51.6044 118.385L46.4341 118.385L46.4341 123.525Z" fill="#D0E1E9"/>
<path d="M41.2967 123.525L46.4506 123.525L46.4506 118.385L41.2967 118.385L41.2967 123.525Z" fill="#809AA7"/>
<path d="M15.4945 123.525L20.6483 123.525L20.6483 118.385L15.4945 118.385L15.4945 123.525Z" fill="#373B3E"/>
<path d="M10.3242 123.525L15.478 123.525L15.478 118.385L10.3242 118.385L10.3242 123.525Z" fill="#26282A"/>
<path d="M144.522 118.385L149.676 118.385L149.676 113.23L144.522 113.23L144.522 118.385Z" fill="#373B3E"/>
<path d="M139.368 118.385L144.522 118.385L144.522 113.23L139.368 113.23L139.368 118.385Z" fill="#26282A"/>
<path d="M113.549 118.385L118.703 118.385L118.703 113.23L113.549 113.23L113.549 118.385Z" fill="#F0FFFF"/>
<path d="M108.396 118.385L113.549 118.385L113.549 113.23L108.396 113.23L108.396 118.385Z" fill="#D0E1E9"/>
<path d="M103.225 118.385L108.379 118.385L108.379 113.23L103.225 113.23L103.225 118.385Z" fill="#9AB0BB"/>
<path d="M98.0714 118.385L103.225 118.385L103.225 113.23L98.0714 113.23L98.0714 118.385Z" fill="#D0E1E9"/>
<path d="M92.9011 118.385L98.0549 118.385L98.0549 113.23L92.9011 113.23L92.9011 118.385Z" fill="#F0FFFF"/>
<path d="M87.7308 118.385L92.9011 118.385L92.9011 113.23L87.7308 113.23L87.7308 118.385Z" fill="#D0E1E9"/>
<path d="M82.5933 118.385L87.7472 118.385L87.7472 113.23L82.5933 113.23L82.5933 118.385Z" fill="#394B53"/>
<path d="M77.423 118.385L82.5769 118.385L82.5769 113.23L77.423 113.23L77.423 118.385Z" fill="#058499"/>
<path d="M72.2692 118.385L77.4231 118.385L77.4231 113.23L72.2692 113.23L72.2692 118.385Z" fill="#394B53"/>
<path d="M67.0825 118.385L72.2528 118.385L72.2528 113.23L67.0825 113.23L67.0825 118.385Z" fill="#D0E1E9"/>
<path d="M61.945 118.385L67.0989 118.385L67.0989 113.23L61.945 113.23L61.945 118.385Z" fill="#809AA7"/>
<path d="M56.7747 118.385L61.9286 118.385L61.9286 113.23L56.7747 113.23L56.7747 118.385Z" fill="#D0E1E9"/>
<path d="M51.6209 118.385L56.7748 118.385L56.7748 113.23L51.6209 113.23L51.6209 118.385Z" fill="#F0FFFF"/>
<path d="M46.4341 118.385L51.6044 118.385L51.6044 113.23L46.4341 113.23L46.4341 118.385Z" fill="#D0E1E9"/>
<path d="M41.2967 118.385L46.4506 118.385L46.4506 113.23L41.2967 113.23L41.2967 118.385Z" fill="#809AA7"/>
<path d="M15.4945 118.385L20.6483 118.385L20.6483 113.23L15.4945 113.23L15.4945 118.385Z" fill="#373B3E"/>
<path d="M10.3242 118.385L15.478 118.385L15.478 113.23L10.3242 113.23L10.3242 118.385Z" fill="#26282A"/>
<path d="M144.522 113.229L149.676 113.229L149.676 108.09L144.522 108.09L144.522 113.229Z" fill="#373B3E"/>
<path d="M139.368 113.229L144.522 113.229L144.522 108.09L139.368 108.09L139.368 113.229Z" fill="#26282A"/>
<path d="M113.549 113.229L118.703 113.229L118.703 108.09L113.549 108.09L113.549 113.229Z" fill="#F0FFFF"/>
<path d="M108.396 113.229L113.549 113.229L113.549 108.09L108.396 108.09L108.396 113.229Z" fill="#D0E1E9"/>
<path d="M103.225 113.229L108.379 113.229L108.379 108.09L103.225 108.09L103.225 113.229Z" fill="#9AB0BB"/>
<path d="M98.0714 113.229L103.225 113.229L103.225 108.09L98.0714 108.09L98.0714 113.229Z" fill="#D0E1E9"/>
<path d="M92.9011 113.229L98.0549 113.229L98.0549 108.09L92.9011 108.09L92.9011 113.229Z" fill="#F0FFFF"/>
<path d="M87.7308 113.229L92.9011 113.229L92.9011 108.09L87.7308 108.09L87.7308 113.229Z" fill="#D0E1E9"/>
<path d="M82.5933 113.229L87.7472 113.229L87.7472 108.09L82.5933 108.09L82.5933 113.229Z" fill="#394B53"/>
<path d="M77.423 113.229L82.5769 113.229L82.5769 108.09L77.423 108.09L77.423 113.229Z" fill="#394B53"/>
<path d="M72.2692 113.229L77.4231 113.229L77.4231 108.09L72.2692 108.09L72.2692 113.229Z" fill="#394B53"/>
<path d="M67.0825 113.229L72.2528 113.229L72.2528 108.09L67.0825 108.09L67.0825 113.229Z" fill="#D0E1E9"/>
<path d="M61.945 113.229L67.0989 113.229L67.0989 108.09L61.945 108.09L61.945 113.229Z" fill="#809AA7"/>
<path d="M56.7747 113.229L61.9286 113.229L61.9286 108.09L56.7747 108.09L56.7747 113.229Z" fill="#D0E1E9"/>
<path d="M51.6209 113.229L56.7748 113.229L56.7748 108.09L51.6209 108.09L51.6209 113.229Z" fill="#F0FFFF"/>
<path d="M46.4341 113.229L51.6044 113.229L51.6044 108.09L46.4341 108.09L46.4341 113.229Z" fill="#D0E1E9"/>
<path d="M41.2967 113.229L46.4506 113.229L46.4506 108.09L41.2967 108.09L41.2967 113.229Z" fill="#809AA7"/>
<path d="M15.4945 113.229L20.6483 113.229L20.6483 108.09L15.4945 108.09L15.4945 113.229Z" fill="#373B3E"/>
<path d="M10.3242 113.229L15.478 113.229L15.478 108.09L10.3242 108.09L10.3242 113.229Z" fill="#26282A"/>
<path d="M144.522 108.09L149.676 108.09L149.676 102.951L144.522 102.951L144.522 108.09Z" fill="#373B3E"/>
<path d="M139.368 108.09L144.522 108.09L144.522 102.951L139.368 102.951L139.368 108.09Z" fill="#26282A"/>
<path d="M118.72 108.09L123.874 108.09L123.874 102.951L118.72 102.951L118.72 108.09Z" fill="#F0FFFF"/>
<path d="M113.549 108.09L118.703 108.09L118.703 102.951L113.549 102.951L113.549 108.09Z" fill="#D0E1E9"/>
<path d="M108.396 108.09L113.549 108.09L113.549 102.951L108.396 102.951L108.396 108.09Z" fill="#D0E1E9"/>
<path d="M103.225 108.09L108.379 108.09L108.379 102.951L103.225 102.951L103.225 108.09Z" fill="#9AB0BB"/>
<path d="M98.0714 108.09L103.225 108.09L103.225 102.951L98.0714 102.951L98.0714 108.09Z" fill="#D0E1E9"/>
<path d="M92.9011 108.09L98.0549 108.09L98.0549 102.951L92.9011 102.951L92.9011 108.09Z" fill="#F0FFFF"/>
<path d="M87.7308 108.09L92.9011 108.09L92.9011 102.951L87.7308 102.951L87.7308 108.09Z" fill="#D0E1E9"/>
<path d="M82.5933 108.09L87.7472 108.09L87.7472 102.951L82.5933 102.951L82.5933 108.09Z" fill="#D0E1E9"/>
<path d="M77.423 108.09L82.5769 108.09L82.5769 102.951L77.423 102.951L77.423 108.09Z" fill="#D0E1E9"/>
<path d="M72.2692 108.09L77.4231 108.09L77.4231 102.951L72.2692 102.951L72.2692 108.09Z" fill="#D0E1E9"/>
<path d="M67.0825 108.09L72.2528 108.09L72.2528 102.951L67.0825 102.951L67.0825 108.09Z" fill="#D0E1E9"/>
<path d="M61.945 108.09L67.0989 108.09L67.0989 102.951L61.945 102.951L61.945 108.09Z" fill="#809AA7"/>
<path d="M56.7747 108.09L61.9286 108.09L61.9286 102.951L56.7747 102.951L56.7747 108.09Z" fill="#D0E1E9"/>
<path d="M51.6209 108.09L56.7748 108.09L56.7748 102.951L51.6209 102.951L51.6209 108.09Z" fill="#F0FFFF"/>
<path d="M46.4341 108.09L51.6044 108.09L51.6044 102.951L46.4341 102.951L46.4341 108.09Z" fill="#D0E1E9"/>
<path d="M41.2967 108.09L46.4506 108.09L46.4506 102.951L41.2967 102.951L41.2967 108.09Z" fill="#D0E1E9"/>
<path d="M36.1264 108.09L41.2803 108.09L41.2803 102.951L36.1264 102.951L36.1264 108.09Z" fill="#809AA7"/>
<path d="M15.4945 108.09L20.6483 108.09L20.6483 102.951L15.4945 102.951L15.4945 108.09Z" fill="#373B3E"/>
<path d="M10.3242 108.09L15.478 108.09L15.478 102.951L10.3242 102.951L10.3242 108.09Z" fill="#26282A"/>
<path d="M144.522 102.951L149.676 102.951L149.676 97.7952L144.522 97.7952L144.522 102.951Z" fill="#373B3E"/>
<path d="M139.368 102.951L144.522 102.951L144.522 97.7952L139.368 97.7952L139.368 102.951Z" fill="#26282A"/>
<path d="M123.874 102.951L129.027 102.951L129.027 97.7952L123.874 97.7952L123.874 102.951Z" fill="#F0FFFF"/>
<path d="M118.72 102.951L123.874 102.951L123.874 97.7952L118.72 97.7952L118.72 102.951Z" fill="#F0FFFF"/>
<path d="M113.549 102.951L118.703 102.951L118.703 97.7952L113.549 97.7952L113.549 102.951Z" fill="#D0E1E9"/>
<path d="M108.396 102.951L113.549 102.951L113.549 97.7952L108.396 97.7952L108.396 102.951Z" fill="#D0E1E9"/>
<path d="M103.225 102.951L108.379 102.951L108.379 97.7952L103.225 97.7952L103.225 102.951Z" fill="#9AB0BB"/>
<path d="M98.0714 102.951L103.225 102.951L103.225 97.7952L98.0714 97.7952L98.0714 102.951Z" fill="#F0FFFF"/>
<path d="M92.9011 102.951L98.0549 102.951L98.0549 97.7952L92.9011 97.7952L92.9011 102.951Z" fill="#D0E1E9"/>
<path d="M87.7308 102.951L92.9011 102.951L92.9011 97.7952L87.7308 97.7952L87.7308 102.951Z" fill="#D0E1E9"/>
<path d="M82.5933 102.951L87.7472 102.951L87.7472 97.7952L82.5933 97.7952L82.5933 102.951Z" fill="#394B53"/>
<path d="M77.423 102.951L82.5769 102.951L82.5769 97.7952L77.423 97.7952L77.423 102.951Z" fill="#394B53"/>
<path d="M72.2692 102.951L77.4231 102.951L77.4231 97.7952L72.2692 97.7952L72.2692 102.951Z" fill="#394B53"/>
<path d="M67.0825 102.951L72.2528 102.951L72.2528 97.7952L67.0825 97.7952L67.0825 102.951Z" fill="#D0E1E9"/>
<path d="M61.945 102.951L67.0989 102.951L67.0989 97.7952L61.945 97.7952L61.945 102.951Z" fill="#D0E1E9"/>
<path d="M56.7747 102.951L61.9286 102.951L61.9286 97.7952L56.7747 97.7952L56.7747 102.951Z" fill="#809AA7"/>
<path d="M51.6209 102.951L56.7748 102.951L56.7748 97.7952L51.6209 97.7952L51.6209 102.951Z" fill="#F0FFFF"/>
<path d="M46.4341 102.951L51.6044 102.951L51.6044 97.7952L46.4341 97.7952L46.4341 102.951Z" fill="#D0E1E9"/>
<path d="M41.2967 102.951L46.4506 102.951L46.4506 97.7952L41.2967 97.7952L41.2967 102.951Z" fill="#D0E1E9"/>
<path d="M36.1264 102.951L41.2803 102.951L41.2803 97.7952L36.1264 97.7952L36.1264 102.951Z" fill="#9AB0BB"/>
<path d="M30.9725 102.951L36.1263 102.951L36.1263 97.7952L30.9725 97.7952L30.9725 102.951Z" fill="#809AA7"/>
<path d="M15.4945 102.951L20.6483 102.951L20.6483 97.7952L15.4945 97.7952L15.4945 102.951Z" fill="#373B3E"/>
<path d="M10.3242 102.951L15.478 102.951L15.478 97.7952L10.3242 97.7952L10.3242 102.951Z" fill="#26282A"/>
<path d="M154.846 97.7952L160 97.7952L160 92.6558L154.846 92.6558L154.846 97.7952Z" fill="#F0FFFF"/>
<path d="M144.522 97.7952L149.676 97.7952L149.676 92.6558L144.522 92.6558L144.522 97.7952Z" fill="#373B3E"/>
<path d="M139.368 97.7952L144.522 97.7952L144.522 92.6558L139.368 92.6558L139.368 97.7952Z" fill="#26282A"/>
<path d="M129.044 97.7952L134.198 97.7952L134.198 92.6558L129.044 92.6558L129.044 97.7952Z" fill="#F0FFFF"/>
<path d="M123.874 97.7952L129.027 97.7952L129.027 92.6558L123.874 92.6558L123.874 97.7952Z" fill="#D0E1E9"/>
<path d="M118.72 97.7952L123.874 97.7952L123.874 92.6558L118.72 92.6558L118.72 97.7952Z" fill="#F0FFFF"/>
<path d="M113.549 97.7952L118.703 97.7952L118.703 92.6558L113.549 92.6558L113.549 97.7952Z" fill="#D0E1E9"/>
<path d="M108.396 97.7952L113.549 97.7952L113.549 92.6558L108.396 92.6558L108.396 97.7952Z" fill="#D0E1E9"/>
<path d="M103.225 97.7952L108.379 97.7952L108.379 92.6558L103.225 92.6558L103.225 97.7952Z" fill="#9AB0BB"/>
<path d="M98.0714 97.7952L103.225 97.7952L103.225 92.6558L98.0714 92.6558L98.0714 97.7952Z" fill="#F0FFFF"/>
<path d="M92.9011 97.7952L98.0549 97.7952L98.0549 92.6558L92.9011 92.6558L92.9011 97.7952Z" fill="#D0E1E9"/>
<path d="M87.7308 97.7952L92.9011 97.7952L92.9011 92.6558L87.7308 92.6558L87.7308 97.7952Z" fill="#D0E1E9"/>
<path d="M82.5933 97.7952L87.7472 97.7952L87.7472 92.6558L82.5933 92.6558L82.5933 97.7952Z" fill="#394B53"/>
<path d="M77.423 97.7952L82.5769 97.7952L82.5769 92.6558L77.423 92.6558L77.423 97.7952Z" fill="#51DFF2"/>
<path d="M72.2692 97.7952L77.4231 97.7952L77.4231 92.6558L72.2692 92.6558L72.2692 97.7952Z" fill="#394B53"/>
<path d="M67.0825 97.7952L72.2528 97.7952L72.2528 92.6558L67.0825 92.6558L67.0825 97.7952Z" fill="#D0E1E9"/>
<path d="M61.945 97.7952L67.0989 97.7952L67.0989 92.6558L61.945 92.6558L61.945 97.7952Z" fill="#D0E1E9"/>
<path d="M56.7747 97.7952L61.9286 97.7952L61.9286 92.6558L56.7747 92.6558L56.7747 97.7952Z" fill="#809AA7"/>
<path d="M51.6209 97.7952L56.7748 97.7952L56.7748 92.6558L51.6209 92.6558L51.6209 97.7952Z" fill="#F0FFFF"/>
<path d="M46.4341 97.7952L51.6044 97.7952L51.6044 92.6558L46.4341 92.6558L46.4341 97.7952Z" fill="#D0E1E9"/>
<path d="M41.2967 97.7952L46.4506 97.7952L46.4506 92.6558L41.2967 92.6558L41.2967 97.7952Z" fill="#D0E1E9"/>
<path d="M36.1264 97.7952L41.2803 97.7952L41.2803 92.6558L36.1264 92.6558L36.1264 97.7952Z" fill="#9AB0BB"/>
<path d="M30.9725 97.7952L36.1263 97.7952L36.1263 92.6558L30.9725 92.6558L30.9725 97.7952Z" fill="#D0E1E9"/>
<path d="M25.8022 97.7952L30.9561 97.7952L30.9561 92.6558L25.8022 92.6558L25.8022 97.7952Z" fill="#809AA7"/>
<path d="M15.4945 97.7952L20.6483 97.7952L20.6483 92.6558L15.4945 92.6558L15.4945 97.7952Z" fill="#373B3E"/>
<path d="M10.3242 97.7952L15.478 97.7952L15.478 92.6558L10.3242 92.6558L10.3242 97.7952Z" fill="#26282A"/>
<path d="M-4.14848e-05 97.7952L5.15381 97.7952L5.15381 92.6558L-4.10355e-05 92.6558L-4.14848e-05 97.7952Z" fill="#F0FFFF"/>
<path d="M154.846 92.6558L160 92.6558L160 87.5164L154.846 87.5164L154.846 92.6558Z" fill="#D0E1E9"/>
<path d="M144.522 92.6558L149.676 92.6558L149.676 87.5164L144.522 87.5164L144.522 92.6558Z" fill="#D0E1E9"/>
<path d="M139.368 92.6558L144.522 92.6558L144.522 87.5164L139.368 87.5164L139.368 92.6558Z" fill="#9AB0BB"/>
<path d="M134.198 92.6558L139.352 92.6558L139.352 87.5164L134.198 87.5164L134.198 92.6558Z" fill="#809AA7"/>
<path d="M129.044 92.6558L134.198 92.6558L134.198 87.5164L129.044 87.5164L129.044 92.6558Z" fill="#D0E1E9"/>
<path d="M123.874 92.6558L129.027 92.6558L129.027 87.5164L123.874 87.5164L123.874 92.6558Z" fill="#D0E1E9"/>
<path d="M118.72 92.6558L123.874 92.6558L123.874 87.5164L118.72 87.5164L118.72 92.6558Z" fill="#F0FFFF"/>
<path d="M113.549 92.6558L118.703 92.6558L118.703 87.5164L113.549 87.5164L113.549 92.6558Z" fill="#D0E1E9"/>
<path d="M108.396 92.6558L113.549 92.6558L113.549 87.5164L108.396 87.5164L108.396 92.6558Z" fill="#D0E1E9"/>
<path d="M103.225 92.6558L108.379 92.6558L108.379 87.5164L103.225 87.5164L103.225 92.6558Z" fill="#9AB0BB"/>
<path d="M98.0714 92.6558L103.225 92.6558L103.225 87.5164L98.0714 87.5164L98.0714 92.6558Z" fill="#F0FFFF"/>
<path d="M92.9011 92.6558L98.0549 92.6558L98.0549 87.5164L92.9011 87.5164L92.9011 92.6558Z" fill="#D0E1E9"/>
<path d="M87.7308 92.6558L92.9011 92.6558L92.9011 87.5164L87.7308 87.5164L87.7308 92.6558Z" fill="#394B53"/>
<path d="M82.5933 92.6558L87.7472 92.6558L87.7472 87.5164L82.5933 87.5164L82.5933 92.6558Z" fill="#51DFF2"/>
<path d="M77.423 92.6558L82.5769 92.6558L82.5769 87.5164L77.423 87.5164L77.423 92.6558Z" fill="#05B8CF"/>
<path d="M72.2692 92.6558L77.4231 92.6558L77.4231 87.5164L72.2692 87.5164L72.2692 92.6558Z" fill="#058499"/>
<path d="M67.0825 92.6558L72.2528 92.6558L72.2528 87.5164L67.0825 87.5164L67.0825 92.6558Z" fill="#394B53"/>
<path d="M61.945 92.6558L67.0989 92.6558L67.0989 87.5164L61.945 87.5164L61.945 92.6558Z" fill="#D0E1E9"/>
<path d="M56.7747 92.6558L61.9286 92.6558L61.9286 87.5164L56.7747 87.5164L56.7747 92.6558Z" fill="#809AA7"/>
<path d="M51.6209 92.6558L56.7748 92.6558L56.7748 87.5164L51.6209 87.5164L51.6209 92.6558Z" fill="#F0FFFF"/>
<path d="M46.4341 92.6558L51.6044 92.6558L51.6044 87.5164L46.4341 87.5164L46.4341 92.6558Z" fill="#D0E1E9"/>
<path d="M41.2967 92.6558L46.4506 92.6558L46.4506 87.5164L41.2967 87.5164L41.2967 92.6558Z" fill="#D0E1E9"/>
<path d="M36.1264 92.6558L41.2803 92.6558L41.2803 87.5164L36.1264 87.5164L36.1264 92.6558Z" fill="#9AB0BB"/>
<path d="M30.9725 92.6558L36.1263 92.6558L36.1263 87.5164L30.9725 87.5164L30.9725 92.6558Z" fill="#D0E1E9"/>
<path d="M25.8022 92.6558L30.9561 92.6558L30.9561 87.5164L25.8022 87.5164L25.8022 92.6558Z" fill="#D0E1E9"/>
<path d="M20.6484 92.6558L25.8022 92.6558L25.8022 87.5164L20.6484 87.5164L20.6484 92.6558Z" fill="#F0FFFF"/>
<path d="M15.4945 92.6558L20.6483 92.6558L20.6483 87.5164L15.4945 87.5164L15.4945 92.6558Z" fill="#D0E1E9"/>
<path d="M10.3242 92.6558L15.478 92.6558L15.478 87.5164L10.3242 87.5164L10.3242 92.6558Z" fill="#9AB0BB"/>
<path d="M-4.14848e-05 92.6558L5.15381 92.6558L5.15381 87.5164L-4.10355e-05 87.5164L-4.14848e-05 92.6558Z" fill="#D0E1E9"/>
<path d="M154.846 87.5L160 87.5L160 82.3607L154.846 82.3607L154.846 87.5Z" fill="#D0E1E9"/>
<path d="M149.692 87.5L154.846 87.5L154.846 82.3607L149.692 82.3607L149.692 87.5Z" fill="#F0FFFF"/>
<path d="M144.522 87.5L149.676 87.5L149.676 82.3607L144.522 82.3607L144.522 87.5Z" fill="#D0E1E9"/>
<path d="M139.368 87.5L144.522 87.5L144.522 82.3607L139.368 82.3607L139.368 87.5Z" fill="#D0E1E9"/>
<path d="M134.198 87.5L139.352 87.5L139.352 82.3607L134.198 82.3607L134.198 87.5Z" fill="#809AA7"/>
<path d="M129.044 87.5L134.198 87.5L134.198 82.3607L129.044 82.3607L129.044 87.5Z" fill="#D8531A"/>
<path d="M123.874 87.5L129.027 87.5L129.027 82.3607L123.874 82.3607L123.874 87.5Z" fill="#F7852F"/>
<path d="M118.72 87.5L123.874 87.5L123.874 82.3607L118.72 82.3607L118.72 87.5Z" fill="#F7852F"/>
<path d="M113.55 87.5L118.703 87.5L118.703 82.3607L113.55 82.3607L113.55 87.5Z" fill="#F7852F"/>
<path d="M108.396 87.5L113.549 87.5L113.549 82.3607L108.396 82.3607L108.396 87.5Z" fill="#F7852F"/>
<path d="M103.225 87.5L108.379 87.5L108.379 82.3607L103.225 82.3607L103.225 87.5Z" fill="#FFAD32"/>
<path d="M98.0714 87.5L103.225 87.5L103.225 82.3607L98.0714 82.3607L98.0714 87.5Z" fill="#F0FFFF"/>
<path d="M92.9011 87.5L98.0549 87.5L98.0549 82.3607L92.9011 82.3607L92.9011 87.5Z" fill="#D0E1E9"/>
<path d="M87.7308 87.5L92.9011 87.5L92.9011 82.3607L87.7308 82.3607L87.7308 87.5Z" fill="#394B53"/>
<path d="M82.5933 87.5L87.7472 87.5L87.7472 82.3607L82.5933 82.3607L82.5933 87.5Z" fill="#51DFF2"/>
<path d="M77.423 87.5L82.5769 87.5L82.5769 82.3607L77.423 82.3607L77.423 87.5Z" fill="#05B8CF"/>
<path d="M72.2692 87.5L77.4231 87.5L77.4231 82.3607L72.2692 82.3607L72.2692 87.5Z" fill="#05B8CF"/>
<path d="M67.0825 87.5L72.2528 87.5L72.2528 82.3607L67.0825 82.3607L67.0825 87.5Z" fill="#394B53"/>
<path d="M61.945 87.5L67.0989 87.5L67.0989 82.3607L61.945 82.3607L61.945 87.5Z" fill="#D0E1E9"/>
<path d="M56.7747 87.5L61.9286 87.5L61.9286 82.3607L56.7747 82.3607L56.7747 87.5Z" fill="#809AA7"/>
<path d="M51.6209 87.5L56.7748 87.5L56.7748 82.3607L51.6209 82.3607L51.6209 87.5Z" fill="#D8531A"/>
<path d="M46.4341 87.5L51.6044 87.5L51.6044 82.3607L46.4341 82.3607L46.4341 87.5Z" fill="#F7852F"/>
<path d="M41.2967 87.5L46.4506 87.5L46.4506 82.3607L41.2967 82.3607L41.2967 87.5Z" fill="#F7852F"/>
<path d="M36.1264 87.5L41.2803 87.5L41.2803 82.3607L36.1264 82.3607L36.1264 87.5Z" fill="#F7852F"/>
<path d="M30.9725 87.5L36.1263 87.5L36.1263 82.3607L30.9725 82.3607L30.9725 87.5Z" fill="#F7852F"/>
<path d="M25.8022 87.5L30.9561 87.5L30.9561 82.3607L25.8022 82.3607L25.8022 87.5Z" fill="#FFAD32"/>
<path d="M20.6484 87.5L25.8022 87.5L25.8022 82.3607L20.6484 82.3607L20.6484 87.5Z" fill="#F0FFFF"/>
<path d="M15.4945 87.5L20.6483 87.5L20.6483 82.3607L15.4945 82.3607L15.4945 87.5Z" fill="#D0E1E9"/>
<path d="M10.3242 87.5L15.478 87.5L15.478 82.3607L10.3242 82.3607L10.3242 87.5Z" fill="#D0E1E9"/>
<path d="M5.1539 87.5L10.3242 87.5L10.3242 82.3607L5.1539 82.3607L5.1539 87.5Z" fill="#809AA7"/>
<path d="M-4.14848e-05 87.5L5.15381 87.5L5.15381 82.3607L-4.10355e-05 82.3607L-4.14848e-05 87.5Z" fill="#D0E1E9"/>
<path d="M154.846 82.3606L160 82.3606L160 77.2213L154.846 77.2213L154.846 82.3606Z" fill="#D0E1E9"/>
<path d="M149.692 82.3606L154.846 82.3606L154.846 77.2213L149.692 77.2213L149.692 82.3606Z" fill="#F0FFFF"/>
<path d="M144.522 82.3606L149.676 82.3606L149.676 77.2213L144.522 77.2213L144.522 82.3606Z" fill="#D0E1E9"/>
<path d="M139.368 82.3606L144.522 82.3606L144.522 77.2213L139.368 77.2213L139.368 82.3606Z" fill="#D0E1E9"/>
<path d="M134.198 82.3606L139.352 82.3606L139.352 77.2213L134.198 77.2213L134.198 82.3606Z" fill="#809AA7"/>
<path d="M129.044 82.3606L134.198 82.3606L134.198 77.2213L129.044 77.2213L129.044 82.3606Z" fill="#D0E1E9"/>
<path d="M123.874 82.3606L129.027 82.3606L129.027 77.2213L123.874 77.2213L123.874 82.3606Z" fill="#D0E1E9"/>
<path d="M118.72 82.3606L123.874 82.3606L123.874 77.2213L118.72 77.2213L118.72 82.3606Z" fill="#D0E1E9"/>
<path d="M113.55 82.3606L118.703 82.3606L118.703 77.2213L113.55 77.2213L113.55 82.3606Z" fill="#D0E1E9"/>
<path d="M108.396 82.3606L113.549 82.3606L113.549 77.2213L108.396 77.2213L108.396 82.3606Z" fill="#D0E1E9"/>
<path d="M103.225 82.3606L108.379 82.3606L108.379 77.2213L103.225 77.2213L103.225 82.3606Z" fill="#D0E1E9"/>
<path d="M98.0714 82.3606L103.225 82.3606L103.225 77.2213L98.0714 77.2213L98.0714 82.3606Z" fill="#F0FFFF"/>
<path d="M92.9011 82.3606L98.0549 82.3606L98.0549 77.2213L92.9011 77.2213L92.9011 82.3606Z" fill="#D0E1E9"/>
<path d="M87.7308 82.3606L92.9011 82.3606L92.9011 77.2213L87.7308 77.2213L87.7308 82.3606Z" fill="#394B53"/>
<path d="M82.5933 82.3606L87.7472 82.3606L87.7472 77.2213L82.5933 77.2213L82.5933 82.3606Z" fill="#51DFF2"/>
<path d="M77.423 82.3606L82.5769 82.3606L82.5769 77.2213L77.423 77.2213L77.423 82.3606Z" fill="#05B8CF"/>
<path d="M72.2692 82.3606L77.4231 82.3606L77.4231 77.2213L72.2692 77.2213L72.2692 82.3606Z" fill="#058499"/>
<path d="M67.0825 82.3606L72.2528 82.3606L72.2528 77.2213L67.0825 77.2213L67.0825 82.3606Z" fill="#394B53"/>
<path d="M61.945 82.3606L67.0989 82.3606L67.0989 77.2213L61.945 77.2213L61.945 82.3606Z" fill="#D0E1E9"/>
<path d="M56.7747 82.3606L61.9286 82.3606L61.9286 77.2213L56.7747 77.2213L56.7747 82.3606Z" fill="#809AA7"/>
<path d="M51.6209 82.3606L56.7748 82.3606L56.7748 77.2213L51.6209 77.2213L51.6209 82.3606Z" fill="#D0E1E9"/>
<path d="M46.4341 82.3606L51.6044 82.3606L51.6044 77.2213L46.4341 77.2213L46.4341 82.3606Z" fill="#D0E1E9"/>
<path d="M41.2967 82.3606L46.4506 82.3606L46.4506 77.2213L41.2967 77.2213L41.2967 82.3606Z" fill="#D0E1E9"/>
<path d="M36.1264 82.3606L41.2803 82.3606L41.2803 77.2213L36.1264 77.2213L36.1264 82.3606Z" fill="#D0E1E9"/>
<path d="M30.9725 82.3606L36.1263 82.3606L36.1263 77.2213L30.9725 77.2213L30.9725 82.3606Z" fill="#D0E1E9"/>
<path d="M25.8022 82.3606L30.9561 82.3606L30.9561 77.2213L25.8022 77.2213L25.8022 82.3606Z" fill="#D0E1E9"/>
<path d="M20.6484 82.3606L25.8022 82.3606L25.8022 77.2213L20.6484 77.2213L20.6484 82.3606Z" fill="#F0FFFF"/>
<path d="M15.4945 82.3606L20.6483 82.3606L20.6483 77.2213L15.4945 77.2213L15.4945 82.3606Z" fill="#D0E1E9"/>
<path d="M10.3242 82.3606L15.478 82.3606L15.478 77.2213L10.3242 77.2213L10.3242 82.3606Z" fill="#D0E1E9"/>
<path d="M5.1539 82.3606L10.3242 82.3606L10.3242 77.2213L5.1539 77.2213L5.1539 82.3606Z" fill="#809AA7"/>
<path d="M-4.14848e-05 82.3606L5.15381 82.3606L5.15381 77.2213L-4.10355e-05 77.2213L-4.14848e-05 82.3606Z" fill="#D0E1E9"/>
<path d="M154.846 77.2048L160 77.2048L160 72.0655L154.846 72.0655L154.846 77.2048Z" fill="#D0E1E9"/>
<path d="M149.692 77.2048L154.846 77.2048L154.846 72.0655L149.692 72.0655L149.692 77.2048Z" fill="#F0FFFF"/>
<path d="M144.522 77.2048L149.676 77.2048L149.676 72.0655L144.522 72.0655L144.522 77.2048Z" fill="#D0E1E9"/>
<path d="M139.368 77.2048L144.522 77.2048L144.522 72.0655L139.368 72.0655L139.368 77.2048Z" fill="#D0E1E9"/>
<path d="M134.198 77.2048L139.352 77.2048L139.352 72.0655L134.198 72.0655L134.198 77.2048Z" fill="#809AA7"/>
<path d="M129.044 77.2048L134.198 77.2048L134.198 72.0655L129.044 72.0655L129.044 77.2048Z" fill="#D8531A"/>
<path d="M123.874 77.2048L129.027 77.2048L129.027 72.0655L123.874 72.0655L123.874 77.2048Z" fill="#F7852F"/>
<path d="M118.72 77.2048L123.874 77.2048L123.874 72.0655L118.72 72.0655L118.72 77.2048Z" fill="#F7852F"/>
<path d="M113.55 77.2048L118.703 77.2048L118.703 72.0655L113.55 72.0655L113.55 77.2048Z" fill="#F7852F"/>
<path d="M108.396 77.2048L113.549 77.2048L113.549 72.0655L108.396 72.0655L108.396 77.2048Z" fill="#F7852F"/>
<path d="M103.225 77.2048L108.379 77.2048L108.379 72.0655L103.225 72.0655L103.225 77.2048Z" fill="#FFAD32"/>
<path d="M98.0714 77.2048L103.225 77.2048L103.225 72.0655L98.0714 72.0655L98.0714 77.2048Z" fill="#F0FFFF"/>
<path d="M92.9011 77.2048L98.0549 77.2048L98.0549 72.0655L92.9011 72.0655L92.9011 77.2048Z" fill="#D0E1E9"/>
<path d="M87.7308 77.2048L92.9011 77.2048L92.9011 72.0655L87.7308 72.0655L87.7308 77.2048Z" fill="#394B53"/>
<path d="M82.5933 77.2048L87.7472 77.2048L87.7472 72.0655L82.5933 72.0655L82.5933 77.2048Z" fill="#05B8CF"/>
<path d="M77.423 77.2048L82.5769 77.2048L82.5769 72.0655L77.423 72.0655L77.423 77.2048Z" fill="#05B8CF"/>
<path d="M72.2692 77.2048L77.4231 77.2048L77.4231 72.0655L72.2692 72.0655L72.2692 77.2048Z" fill="#058499"/>
<path d="M67.0825 77.2048L72.2528 77.2048L72.2528 72.0655L67.0825 72.0655L67.0825 77.2048Z" fill="#394B53"/>
<path d="M61.945 77.2048L67.0989 77.2048L67.0989 72.0655L61.945 72.0655L61.945 77.2048Z" fill="#D0E1E9"/>
<path d="M56.7747 77.2048L61.9286 77.2048L61.9286 72.0655L56.7747 72.0655L56.7747 77.2048Z" fill="#809AA7"/>
<path d="M51.6209 77.2048L56.7748 77.2048L56.7748 72.0655L51.6209 72.0655L51.6209 77.2048Z" fill="#D8531A"/>
<path d="M46.4341 77.2048L51.6044 77.2048L51.6044 72.0655L46.4341 72.0655L46.4341 77.2048Z" fill="#F7852F"/>
<path d="M41.2967 77.2048L46.4506 77.2048L46.4506 72.0655L41.2967 72.0655L41.2967 77.2048Z" fill="#F7852F"/>
<path d="M36.1264 77.2048L41.2803 77.2048L41.2803 72.0655L36.1264 72.0655L36.1264 77.2048Z" fill="#F7852F"/>
<path d="M30.9725 77.2048L36.1263 77.2048L36.1263 72.0655L30.9725 72.0655L30.9725 77.2048Z" fill="#F7852F"/>
<path d="M25.8022 77.2048L30.9561 77.2048L30.9561 72.0655L25.8022 72.0655L25.8022 77.2048Z" fill="#FFAD32"/>
<path d="M20.6484 77.2048L25.8022 77.2048L25.8022 72.0655L20.6484 72.0655L20.6484 77.2048Z" fill="#F0FFFF"/>
<path d="M15.4945 77.2048L20.6483 77.2048L20.6483 72.0655L15.4945 72.0655L15.4945 77.2048Z" fill="#D0E1E9"/>
<path d="M10.3242 77.2048L15.478 77.2048L15.478 72.0655L10.3242 72.0655L10.3242 77.2048Z" fill="#D0E1E9"/>
<path d="M5.1539 77.2048L10.3242 77.2048L10.3242 72.0655L5.1539 72.0655L5.1539 77.2048Z" fill="#809AA7"/>
<path d="M-4.14848e-05 77.2048L5.15381 77.2048L5.15381 72.0655L-4.10355e-05 72.0655L-4.14848e-05 77.2048Z" fill="#D0E1E9"/>
<path d="M154.846 72.0657L160 72.0657L160 66.9263L154.846 66.9263L154.846 72.0657Z" fill="#D0E1E9"/>
<path d="M149.692 72.0657L154.846 72.0657L154.846 66.9263L149.692 66.9263L149.692 72.0657Z" fill="#F0FFFF"/>
<path d="M144.522 72.0657L149.676 72.0657L149.676 66.9263L144.522 66.9263L144.522 72.0657Z" fill="#D0E1E9"/>
<path d="M139.368 72.0657L144.522 72.0657L144.522 66.9263L139.368 66.9263L139.368 72.0657Z" fill="#D0E1E9"/>
<path d="M134.198 72.0657L139.352 72.0657L139.352 66.9263L134.198 66.9263L134.198 72.0657Z" fill="#D0E1E9"/>
<path d="M129.044 72.0657L134.198 72.0657L134.198 66.9263L129.044 66.9263L129.044 72.0657Z" fill="#D0E1E9"/>
<path d="M123.874 72.0657L129.027 72.0657L129.027 66.9263L123.874 66.9263L123.874 72.0657Z" fill="#D0E1E9"/>
<path d="M118.72 72.0657L123.874 72.0657L123.874 66.9263L118.72 66.9263L118.72 72.0657Z" fill="#F0FFFF"/>
<path d="M113.55 72.0657L118.703 72.0657L118.703 66.9263L113.55 66.9263L113.55 72.0657Z" fill="#D0E1E9"/>
<path d="M108.396 72.0657L113.549 72.0657L113.549 66.9263L108.396 66.9263L108.396 72.0657Z" fill="#D0E1E9"/>
<path d="M103.225 72.0657L108.379 72.0657L108.379 66.9263L103.225 66.9263L103.225 72.0657Z" fill="#D0E1E9"/>
<path d="M98.0714 72.0657L103.225 72.0657L103.225 66.9263L98.0714 66.9263L98.0714 72.0657Z" fill="#F0FFFF"/>
<path d="M92.9011 72.0657L98.0549 72.0657L98.0549 66.9263L92.9011 66.9263L92.9011 72.0657Z" fill="#D0E1E9"/>
<path d="M87.7308 72.0657L92.9011 72.0657L92.9011 66.9263L87.7308 66.9263L87.7308 72.0657Z" fill="#394B53"/>
<path d="M82.5933 72.0657L87.7472 72.0657L87.7472 66.9263L82.5933 66.9263L82.5933 72.0657Z" fill="#51DFF2"/>
<path d="M77.423 72.0657L82.5769 72.0657L82.5769 66.9263L77.423 66.9263L77.423 72.0657Z" fill="#05B8CF"/>
<path d="M72.2692 72.0657L77.4231 72.0657L77.4231 66.9263L72.2692 66.9263L72.2692 72.0657Z" fill="#058499"/>
<path d="M67.0825 72.0657L72.2528 72.0657L72.2528 66.9263L67.0825 66.9263L67.0825 72.0657Z" fill="#394B53"/>
<path d="M61.945 72.0657L67.0989 72.0657L67.0989 66.9263L61.945 66.9263L61.945 72.0657Z" fill="#D0E1E9"/>
<path d="M56.7747 72.0657L61.9286 72.0657L61.9286 66.9263L56.7747 66.9263L56.7747 72.0657Z" fill="#809AA7"/>
<path d="M51.6209 72.0657L56.7748 72.0657L56.7748 66.9263L51.6209 66.9263L51.6209 72.0657Z" fill="#D0E1E9"/>
<path d="M46.4341 72.0657L51.6044 72.0657L51.6044 66.9263L46.4341 66.9263L46.4341 72.0657Z" fill="#D0E1E9"/>
<path d="M41.2967 72.0657L46.4506 72.0657L46.4506 66.9263L41.2967 66.9263L41.2967 72.0657Z" fill="#D0E1E9"/>
<path d="M36.1264 72.0657L41.2803 72.0657L41.2803 66.9263L36.1264 66.9263L36.1264 72.0657Z" fill="#9AB0BB"/>
<path d="M30.9725 72.0657L36.1263 72.0657L36.1263 66.9263L30.9725 66.9263L30.9725 72.0657Z" fill="#D0E1E9"/>
<path d="M25.8022 72.0657L30.9561 72.0657L30.9561 66.9263L25.8022 66.9263L25.8022 72.0657Z" fill="#D0E1E9"/>
<path d="M20.6484 72.0657L25.8022 72.0657L25.8022 66.9263L20.6484 66.9263L20.6484 72.0657Z" fill="#D0E1E9"/>
<path d="M15.4945 72.0657L20.6483 72.0657L20.6483 66.9263L15.4945 66.9263L15.4945 72.0657Z" fill="#D0E1E9"/>
<path d="M10.3242 72.0657L15.478 72.0657L15.478 66.9263L10.3242 66.9263L10.3242 72.0657Z" fill="#D0E1E9"/>
<path d="M5.1539 72.0657L10.3242 72.0657L10.3242 66.9263L5.1539 66.9263L5.1539 72.0657Z" fill="#809AA7"/>
<path d="M-4.14848e-05 72.0657L5.15381 72.0657L5.15381 66.9263L-4.10355e-05 66.9263L-4.14848e-05 72.0657Z" fill="#D0E1E9"/>
<path d="M154.846 66.9099L160 66.9099L160 61.7706L154.846 61.7706L154.846 66.9099Z" fill="#D0E1E9"/>
<path d="M144.522 66.9099L149.676 66.9099L149.676 61.7706L144.522 61.7706L144.522 66.9099Z" fill="#9AB0BB"/>
<path d="M139.368 66.9099L144.522 66.9099L144.522 61.7706L139.368 61.7706L139.368 66.9099Z" fill="#9AB0BB"/>
<path d="M134.198 66.9099L139.352 66.9099L139.352 61.7706L134.198 61.7706L134.198 66.9099Z" fill="#D0E1E9"/>
<path d="M129.044 66.9099L134.198 66.9099L134.198 61.7706L129.044 61.7706L129.044 66.9099Z" fill="#D0E1E9"/>
<path d="M123.874 66.9099L129.027 66.9099L129.027 61.7706L123.874 61.7706L123.874 66.9099Z" fill="#D0E1E9"/>
<path d="M118.72 66.9099L123.874 66.9099L123.874 61.7706L118.72 61.7706L118.72 66.9099Z" fill="#F0FFFF"/>
<path d="M113.55 66.9099L118.703 66.9099L118.703 61.7706L113.55 61.7706L113.55 66.9099Z" fill="#D0E1E9"/>
<path d="M108.396 66.9099L113.549 66.9099L113.549 61.7706L108.396 61.7706L108.396 66.9099Z" fill="#D0E1E9"/>
<path d="M103.225 66.9099L108.379 66.9099L108.379 61.7706L103.225 61.7706L103.225 66.9099Z" fill="#D0E1E9"/>
<path d="M98.0714 66.9099L103.225 66.9099L103.225 61.7706L98.0714 61.7706L98.0714 66.9099Z" fill="#809AA7"/>
<path d="M92.9011 66.9099L98.0549 66.9099L98.0549 61.7706L92.9011 61.7706L92.9011 66.9099Z" fill="#D0E1E9"/>
<path d="M87.7308 66.9099L92.9011 66.9099L92.9011 61.7706L87.7308 61.7706L87.7308 66.9099Z" fill="#D0E1E9"/>
<path d="M82.5933 66.9099L87.7472 66.9099L87.7472 61.7706L82.5933 61.7706L82.5933 66.9099Z" fill="#394B53"/>
<path d="M77.423 66.9099L82.5769 66.9099L82.5769 61.7706L77.423 61.7706L77.423 66.9099Z" fill="#058499"/>
<path d="M72.2692 66.9099L77.4231 66.9099L77.4231 61.7706L72.2692 61.7706L72.2692 66.9099Z" fill="#394B53"/>
<path d="M67.0825 66.9099L72.2528 66.9099L72.2528 61.7706L67.0825 61.7706L67.0825 66.9099Z" fill="#D0E1E9"/>
<path d="M61.945 66.9099L67.0989 66.9099L67.0989 61.7706L61.945 61.7706L61.945 66.9099Z" fill="#D0E1E9"/>
<path d="M56.7747 66.9099L61.9286 66.9099L61.9286 61.7706L56.7747 61.7706L56.7747 66.9099Z" fill="#809AA7"/>
<path d="M51.6209 66.9099L56.7748 66.9099L56.7748 61.7706L51.6209 61.7706L51.6209 66.9099Z" fill="#D0E1E9"/>
<path d="M46.4341 66.9099L51.6044 66.9099L51.6044 61.7706L46.4341 61.7706L46.4341 66.9099Z" fill="#D0E1E9"/>
<path d="M41.2967 66.9099L46.4506 66.9099L46.4506 61.7706L41.2967 61.7706L41.2967 66.9099Z" fill="#D0E1E9"/>
<path d="M36.1264 66.9099L41.2803 66.9099L41.2803 61.7706L36.1264 61.7706L36.1264 66.9099Z" fill="#9AB0BB"/>
<path d="M30.9725 66.9099L36.1263 66.9099L36.1263 61.7706L30.9725 61.7706L30.9725 66.9099Z" fill="#D0E1E9"/>
<path d="M25.8022 66.9099L30.9561 66.9099L30.9561 61.7706L25.8022 61.7706L25.8022 66.9099Z" fill="#D0E1E9"/>
<path d="M20.6484 66.9099L25.8022 66.9099L25.8022 61.7706L20.6484 61.7706L20.6484 66.9099Z" fill="#D0E1E9"/>
<path d="M15.4945 66.9099L20.6483 66.9099L20.6483 61.7706L15.4945 61.7706L15.4945 66.9099Z" fill="#809AA7"/>
<path d="M10.3242 66.9099L15.478 66.9099L15.478 61.7706L10.3242 61.7706L10.3242 66.9099Z" fill="#809AA7"/>
<path d="M-4.14848e-05 66.9099L5.15381 66.9099L5.15381 61.7706L-4.10355e-05 61.7706L-4.14848e-05 66.9099Z" fill="#D0E1E9"/>
<path d="M154.846 61.7705L160 61.7705L160 56.6148L154.846 56.6148L154.846 61.7705Z" fill="#809AA7"/>
<path d="M134.198 61.7705L139.352 61.7705L139.352 56.6148L134.198 56.6148L134.198 61.7705Z" fill="#9AB0BB"/>
<path d="M129.044 61.7705L134.198 61.7705L134.198 56.6148L129.044 56.6148L129.044 61.7705Z" fill="#9AB0BB"/>
<path d="M123.874 61.7705L129.027 61.7705L129.027 56.6148L123.874 56.6148L123.874 61.7705Z" fill="#D0E1E9"/>
<path d="M118.72 61.7705L123.874 61.7705L123.874 56.6148L118.72 56.6148L118.72 61.7705Z" fill="#F0FFFF"/>
<path d="M113.55 61.7705L118.703 61.7705L118.703 56.6148L113.55 56.6148L113.55 61.7705Z" fill="#D0E1E9"/>
<path d="M108.396 61.7705L113.549 61.7705L113.549 56.6148L108.396 56.6148L108.396 61.7705Z" fill="#D0E1E9"/>
<path d="M103.225 61.7705L108.379 61.7705L108.379 56.6148L103.225 56.6148L103.225 61.7705Z" fill="#809AA7"/>
<path d="M92.9011 61.7705L98.0549 61.7705L98.0549 56.6148L92.9011 56.6148L92.9011 61.7705Z" fill="#F0FFFF"/>
<path d="M87.7308 61.7705L92.9011 61.7705L92.9011 56.6148L87.7308 56.6148L87.7308 61.7705Z" fill="#D0E1E9"/>
<path d="M82.5933 61.7705L87.7472 61.7705L87.7472 56.6148L82.5933 56.6148L82.5933 61.7705Z" fill="#394B53"/>
<path d="M77.423 61.7705L82.5769 61.7705L82.5769 56.6148L77.423 56.6148L77.423 61.7705Z" fill="#394B53"/>
<path d="M72.2692 61.7705L77.4231 61.7705L77.4231 56.6148L72.2692 56.6148L72.2692 61.7705Z" fill="#394B53"/>
<path d="M67.0825 61.7705L72.2528 61.7705L72.2528 56.6148L67.0825 56.6148L67.0825 61.7705Z" fill="#D0E1E9"/>
<path d="M61.945 61.7705L67.0989 61.7705L67.0989 56.6148L61.945 56.6148L61.945 61.7705Z" fill="#809AA7"/>
<path d="M51.6209 61.7705L56.7748 61.7705L56.7748 56.6148L51.6209 56.6148L51.6209 61.7705Z" fill="#809AA7"/>
<path d="M46.4341 61.7705L51.6044 61.7705L51.6044 56.6148L46.4341 56.6148L46.4341 61.7705Z" fill="#D0E1E9"/>
<path d="M41.2967 61.7705L46.4506 61.7705L46.4506 56.6148L41.2967 56.6148L41.2967 61.7705Z" fill="#D0E1E9"/>
<path d="M36.1264 61.7705L41.2803 61.7705L41.2803 56.6148L36.1264 56.6148L36.1264 61.7705Z" fill="#9AB0BB"/>
<path d="M30.9725 61.7705L36.1263 61.7705L36.1263 56.6148L30.9725 56.6148L30.9725 61.7705Z" fill="#D0E1E9"/>
<path d="M25.8022 61.7705L30.9561 61.7705L30.9561 56.6148L25.8022 56.6148L25.8022 61.7705Z" fill="#809AA7"/>
<path d="M20.6484 61.7705L25.8022 61.7705L25.8022 56.6148L20.6484 56.6148L20.6484 61.7705Z" fill="#809AA7"/>
<path d="M-4.14848e-05 61.7705L5.15381 61.7705L5.15381 56.6148L-4.10341e-05 56.6148L-4.14848e-05 61.7705Z" fill="#809AA7"/>
<path d="M123.874 56.6147L129.027 56.6147L129.027 51.4754L123.874 51.4754L123.874 56.6147Z" fill="#9AB0BB"/>
<path d="M118.72 56.6147L123.874 56.6147L123.874 51.4754L118.72 51.4754L118.72 56.6147Z" fill="#9AB0BB"/>
<path d="M113.55 56.6147L118.703 56.6147L118.703 51.4754L113.55 51.4754L113.55 56.6147Z" fill="#9AB0BB"/>
<path d="M108.396 56.6147L113.549 56.6147L113.549 51.4754L108.396 51.4754L108.396 56.6147Z" fill="#809AA7"/>
<path d="M92.9011 56.6147L98.0549 56.6147L98.0549 51.4754L92.9011 51.4754L92.9011 56.6147Z" fill="#F0FFFF"/>
<path d="M87.7308 56.6147L92.9011 56.6147L92.9011 51.4754L87.7308 51.4754L87.7308 56.6147Z" fill="#D0E1E9"/>
<path d="M82.5933 56.6147L87.7472 56.6147L87.7472 51.4754L82.5933 51.4754L82.5933 56.6147Z" fill="#D0E1E9"/>
<path d="M77.423 56.6147L82.5769 56.6147L82.5769 51.4754L77.423 51.4754L77.423 56.6147Z" fill="#D0E1E9"/>
<path d="M72.2692 56.6147L77.4231 56.6147L77.4231 51.4754L72.2692 51.4754L72.2692 56.6147Z" fill="#D0E1E9"/>
<path d="M67.0825 56.6147L72.2528 56.6147L72.2528 51.4754L67.0825 51.4754L67.0825 56.6147Z" fill="#D0E1E9"/>
<path d="M61.945 56.6147L67.0989 56.6147L67.0989 51.4754L61.945 51.4754L61.945 56.6147Z" fill="#809AA7"/>
<path d="M46.4341 56.6147L51.6044 56.6147L51.6044 51.4754L46.4341 51.4754L46.4341 56.6147Z" fill="#809AA7"/>
<path d="M41.2967 56.6147L46.4506 56.6147L46.4506 51.4754L41.2967 51.4754L41.2967 56.6147Z" fill="#809AA7"/>
<path d="M36.1264 56.6147L41.2803 56.6147L41.2803 51.4754L36.1264 51.4754L36.1264 56.6147Z" fill="#809AA7"/>
<path d="M30.9725 56.6147L36.1263 56.6147L36.1263 51.4754L30.9725 51.4754L30.9725 56.6147Z" fill="#809AA7"/>
<path d="M92.9011 51.4753L98.0549 51.4753L98.0549 46.336L92.9011 46.336L92.9011 51.4753Z" fill="#F0FFFF"/>
<path d="M87.7308 51.4753L92.9011 51.4753L92.9011 46.336L87.7308 46.336L87.7308 51.4753Z" fill="#D0E1E9"/>
<path d="M82.5933 51.4753L87.7472 51.4753L87.7472 46.336L82.5933 46.336L82.5933 51.4753Z" fill="#D0E1E9"/>
<path d="M77.423 51.4753L82.5769 51.4753L82.5769 46.336L77.423 46.336L77.423 51.4753Z" fill="#D0E1E9"/>
<path d="M72.2692 51.4753L77.4231 51.4753L77.4231 46.336L72.2692 46.336L72.2692 51.4753Z" fill="#D0E1E9"/>
<path d="M67.0825 51.4753L72.2528 51.4753L72.2528 46.336L67.0825 46.336L67.0825 51.4753Z" fill="#D0E1E9"/>
<path d="M61.945 51.4753L67.0989 51.4753L67.0989 46.336L61.945 46.336L61.945 51.4753Z" fill="#809AA7"/>
<path d="M87.7308 46.3196L92.9011 46.3196L92.9011 41.1803L87.7308 41.1803L87.7308 46.3196Z" fill="#9AB0BB"/>
<path d="M82.5933 46.3196L87.7472 46.3196L87.7472 41.1803L82.5933 41.1803L82.5933 46.3196Z" fill="#9AB0BB"/>
<path d="M77.423 46.3196L82.5769 46.3196L82.5769 41.1803L77.423 41.1803L77.423 46.3196Z" fill="#9AB0BB"/>
<path d="M72.2692 46.3196L77.4231 46.3196L77.4231 41.1803L72.2692 41.1803L72.2692 46.3196Z" fill="#9AB0BB"/>
<path d="M67.0825 46.3196L72.2528 46.3196L72.2528 41.1803L67.0825 41.1803L67.0825 46.3196Z" fill="#809AA7"/>
<path d="M87.7308 41.1804L92.9011 41.1804L92.9011 36.0411L87.7308 36.0411L87.7308 41.1804Z" fill="#43484B"/>
<path d="M82.5933 41.1804L87.7472 41.1804L87.7472 36.0411L82.5933 36.0411L82.5933 41.1804Z" fill="#43484B"/>
<path d="M77.423 41.1804L82.5769 41.1804L82.5769 36.0411L77.423 36.0411L77.423 41.1804Z" fill="#373B3E"/>
<path d="M72.2692 41.1804L77.4231 41.1804L77.4231 36.0411L72.2692 36.0411L72.2692 41.1804Z" fill="#373B3E"/>
<path d="M67.0825 41.1804L72.2528 41.1804L72.2528 36.0411L67.0825 36.0411L67.0825 41.1804Z" fill="#26282A"/>
<path d="M87.7308 36.041L92.9011 36.041L92.9011 30.9017L87.7308 30.9017L87.7308 36.041Z" fill="#373B3E"/>
<path d="M82.5933 36.041L87.7472 36.041L87.7472 30.9017L82.5933 30.9017L82.5933 36.041Z" fill="#43484B"/>
<path d="M77.423 36.041L82.5769 36.041L82.5769 30.9017L77.423 30.9017L77.423 36.041Z" fill="#373B3E"/>
<path d="M72.2692 36.041L77.4231 36.041L77.4231 30.9017L72.2692 30.9017L72.2692 36.041Z" fill="#373B3E"/>
<path d="M67.0825 36.041L72.2528 36.041L72.2528 30.9017L67.0825 30.9017L67.0825 36.041Z" fill="#26282A"/>
<path d="M87.7308 30.8853L92.9011 30.8853L92.9011 25.7459L87.7308 25.7459L87.7308 30.8853Z" fill="#FFCA34"/>
<path d="M82.5933 30.8853L87.7472 30.8853L87.7472 25.7459L82.5933 25.7459L82.5933 30.8853Z" fill="#FFAD32"/>
<path d="M77.423 30.8853L82.5769 30.8853L82.5769 25.7459L77.423 25.7459L77.423 30.8853Z" fill="#FFCA34"/>
<path d="M72.2692 30.8853L77.4231 30.8853L77.4231 25.7459L72.2692 25.7459L72.2692 30.8853Z" fill="#FFAD32"/>
<path d="M67.0825 30.8853L72.2528 30.8853L72.2528 25.7459L67.0825 25.7459L67.0825 30.8853Z" fill="#FFCA34"/>
<path d="M87.7308 25.7458L92.9011 25.7458L92.9011 20.6065L87.7308 20.6065L87.7308 25.7458Z" fill="#FFAD32"/>
<path d="M82.5933 25.7458L87.7472 25.7458L87.7472 20.6065L82.5933 20.6065L82.5933 25.7458Z" fill="#F7852F"/>
<path d="M77.423 25.7458L82.5769 25.7458L82.5769 20.6065L77.423 20.6065L77.423 25.7458Z" fill="#FFAD32"/>
<path d="M72.2692 25.7458L77.4231 25.7458L77.4231 20.6065L72.2692 20.6065L72.2692 25.7458Z" fill="#F7852F"/>
<path d="M67.0825 25.7458L72.2528 25.7458L72.2528 20.6065L67.0825 20.6065L67.0825 25.7458Z" fill="#FFAD32"/>
<path d="M87.7308 20.5901L92.9011 20.5901L92.9011 15.4343L87.7308 15.4343L87.7308 20.5901Z" fill="#F7852F"/>
<path d="M82.5933 20.5901L87.7472 20.5901L87.7472 15.4343L82.5933 15.4343L82.5933 20.5901Z" fill="#FFAD32"/>
<path d="M77.423 20.5901L82.5769 20.5901L82.5769 15.4343L77.423 15.4343L77.423 20.5901Z" fill="#D8531A"/>
<path d="M72.2692 20.5901L77.4231 20.5901L77.4231 15.4343L72.2692 15.4343L72.2692 20.5901Z" fill="#FFAD32"/>
<path d="M67.0825 20.5901L72.2528 20.5901L72.2528 15.4343L67.0825 15.4343L67.0825 20.5901Z" fill="#F7852F"/>
<path d="M82.5933 15.4509L87.7472 15.4509L87.7472 10.3116L82.5933 10.3116L82.5933 15.4509Z" fill="#D8531A"/>
<path d="M77.423 15.4509L82.5769 15.4509L82.5769 10.3116L77.423 10.3116L77.423 15.4509Z" fill="#F7852F"/>
<path d="M72.2692 15.4509L77.4231 15.4509L77.4231 10.3116L72.2692 10.3116L72.2692 15.4509Z" fill="#D8531A"/>
<path d="M82.5933 10.2952L87.7472 10.2952L87.7472 5.15583L82.5933 5.15583L82.5933 10.2952Z" fill="#D8531A"/>
<path d="M77.423 10.2952L82.5769 10.2952L82.5769 5.15583L77.423 5.15583L77.423 10.2952Z" fill="#D8531A"/>
<path d="M72.2692 10.2952L77.4231 10.2952L77.4231 5.15583L72.2692 5.15583L72.2692 10.2952Z" fill="#D8531A"/>
<path d="M77.423 5.15576L82.5769 5.15576L82.5769 0.0164347L77.423 0.0164342L77.423 5.15576Z" fill="#D8531A"/>
</g>
<defs>
<clipPath id="clip0_50_13323">
<rect width="160" height="175" fill="white" transform="translate(160 175) rotate(-180)"/>
</clipPath>
</defs>
</svg>
