<svg viewBox="0 0 99 99" fill="none" xmlns="http://www.w3.org/2000/svg">
<path d="M99.0023 60.1086H95.4652V63.6429H99.0023V60.1086Z" fill="#408AF4"/>
<path d="M99.0023 56.5745H95.4652V60.1116H99.0023V56.5745Z" fill="#408AF4"/>
<path d="M99.0023 53.0369H95.4652V56.5712H99.0023V53.0369Z" fill="#408AF4"/>
<path d="M99.0023 49.5027H95.4652V53.0398H99.0023V49.5027Z" fill="#408AF4"/>
<path d="M99.0023 45.9658H95.4652V49.5001H99.0023V45.9658Z" fill="#7AC752"/>
<path d="M99.0023 42.4316H95.4652V45.9688H99.0023V42.4316Z" fill="#7AC752"/>
<path d="M99.0023 38.894H95.4652V42.4283H99.0023V38.894Z" fill="#7AC752"/>
<path d="M99.0023 35.3599H95.4652V38.897H99.0023V35.3599Z" fill="#7AC752"/>
<path d="M95.4658 67.1802H91.9315V70.7173H95.4658V67.1802Z" fill="#408AF4"/>
<path d="M95.4658 63.6455H91.9315V67.1826H95.4658V63.6455Z" fill="#408AF4"/>
<path d="M95.4658 60.1086H91.9315V63.6429H95.4658V60.1086Z" fill="#408AF4"/>
<path d="M95.4658 56.5745H91.9315V60.1116H95.4658V56.5745Z" fill="#7AC752"/>
<path d="M95.4658 53.0369H91.9315V56.5712H95.4658V53.0369Z" fill="#7AC752"/>
<path d="M95.4658 49.5027H91.9315V53.0398H95.4658V49.5027Z" fill="#7AC752"/>
<path d="M95.4658 45.9658H91.9315V49.5001H95.4658V45.9658Z" fill="#408AF4"/>
<path d="M95.4658 42.4316H91.9315V45.9688H95.4658V42.4316Z" fill="#7AC752"/>
<path d="M95.4658 38.894H91.9315V42.4283H95.4658V38.894Z" fill="#7AC752"/>
<path d="M95.4658 35.3599H91.9315V38.897H95.4658V35.3599Z" fill="#7AC752"/>
<path d="M95.4658 31.823H91.9315V35.3601H95.4658V31.823Z" fill="#7AC752"/>
<path d="M95.4658 28.2886H91.9315V31.8229H95.4658V28.2886Z" fill="#8FE340"/>
<path d="M91.9318 70.717H88.3947V74.2513H91.9318V70.717Z" fill="#408AF4"/>
<path d="M91.9318 67.1802H88.3947V70.7173H91.9318V67.1802Z" fill="#408AF4"/>
<path d="M91.9318 63.6455H88.3947V67.1826H91.9318V63.6455Z" fill="#408AF4"/>
<path d="M91.9318 60.1086H88.3947V63.6429H91.9318V60.1086Z" fill="#408AF4"/>
<path d="M91.9318 56.5745H88.3947V60.1116H91.9318V56.5745Z" fill="#7AC752"/>
<path d="M91.9318 53.0369H88.3947V56.5712H91.9318V53.0369Z" fill="#7AC752"/>
<path d="M91.9318 49.5027H88.3947V53.0398H91.9318V49.5027Z" fill="#7AC752"/>
<path d="M91.9318 45.9658H88.3947V49.5001H91.9318V45.9658Z" fill="#408AF4"/>
<path d="M91.9318 42.4316H88.3947V45.9688H91.9318V42.4316Z" fill="#7AC752"/>
<path d="M91.9318 38.894H88.3947V42.4283H91.9318V38.894Z" fill="#7AC752"/>
<path d="M91.9318 35.3599H88.3947V38.897H91.9318V35.3599Z" fill="#7AC752"/>
<path d="M91.9318 31.823H88.3947V35.3601H91.9318V31.823Z" fill="#8FE340"/>
<path d="M91.9318 28.2886H88.3947V31.8229H91.9318V28.2886Z" fill="#8FE340"/>
<path d="M91.9318 24.7515H88.3947V28.2886H91.9318V24.7515Z" fill="#7AC752"/>
<path d="M88.3938 77.7888H84.8567V81.3231H88.3938V77.7888Z" fill="#408AF4"/>
<path d="M88.3938 74.2512H84.8567V77.7884H88.3938V74.2512Z" fill="#408AF4"/>
<path d="M88.3938 70.717H84.8567V74.2513H88.3938V70.717Z" fill="#408AF4"/>
<path d="M88.3938 67.1802H84.8567V70.7173H88.3938V67.1802Z" fill="#408AF4"/>
<path d="M88.3938 63.6455H84.8567V67.1826H88.3938V63.6455Z" fill="#7AC752"/>
<path d="M88.3938 60.1086H84.8567V63.6429H88.3938V60.1086Z" fill="#7AC752"/>
<path d="M88.3938 56.5745H84.8567V60.1116H88.3938V56.5745Z" fill="#7AC752"/>
<path d="M88.3938 53.0369H84.8567V56.5712H88.3938V53.0369Z" fill="#7AC752"/>
<path d="M88.3938 49.5027H84.8567V53.0398H88.3938V49.5027Z" fill="#7AC752"/>
<path d="M88.3938 45.9658H84.8567V49.5001H88.3938V45.9658Z" fill="#408AF4"/>
<path d="M88.3938 42.4316H84.8567V45.9688H88.3938V42.4316Z" fill="#7AC752"/>
<path d="M88.3938 38.894H84.8567V42.4283H88.3938V38.894Z" fill="#7AC752"/>
<path d="M88.3938 35.3599H84.8567V38.897H88.3938V35.3599Z" fill="#7AC752"/>
<path d="M88.3938 31.823H84.8567V35.3601H88.3938V31.823Z" fill="#8FE340"/>
<path d="M88.3938 28.2886H84.8567V31.8229H88.3938V28.2886Z" fill="#8FE340"/>
<path d="M88.3938 24.7515H84.8567V28.2886H88.3938V24.7515Z" fill="#7AC752"/>
<path d="M88.3938 21.2173H84.8567V24.7516H88.3938V21.2173Z" fill="#7AC752"/>
<path d="M88.3938 17.6804H84.8567V21.2176H88.3938V17.6804Z" fill="#7AC752"/>
<path d="M84.8573 81.323H81.323V84.8601H84.8573V81.323Z" fill="#408AF4"/>
<path d="M84.8573 77.7888H81.323V81.3231H84.8573V77.7888Z" fill="#408AF4"/>
<path d="M84.8573 74.2512H81.323V77.7884H84.8573V74.2512Z" fill="#408AF4"/>
<path d="M84.8573 70.717H81.323V74.2513H84.8573V70.717Z" fill="#408AF4"/>
<path d="M84.8573 67.1802H81.323V70.7173H84.8573V67.1802Z" fill="#408AF4"/>
<path d="M84.8573 63.6455H81.323V67.1826H84.8573V63.6455Z" fill="#7AC752"/>
<path d="M84.8573 60.1086H81.323V63.6429H84.8573V60.1086Z" fill="#7AC752"/>
<path d="M84.8573 56.5745H81.323V60.1116H84.8573V56.5745Z" fill="#7AC752"/>
<path d="M84.8573 53.0369H81.323V56.5712H84.8573V53.0369Z" fill="#7AC752"/>
<path d="M84.8573 49.5027H81.323V53.0398H84.8573V49.5027Z" fill="#408AF4"/>
<path d="M84.8573 45.9658H81.323V49.5001H84.8573V45.9658Z" fill="#408AF4"/>
<path d="M84.8573 42.4316H81.323V45.9688H84.8573V42.4316Z" fill="#7AC752"/>
<path d="M84.8573 38.894H81.323V42.4283H84.8573V38.894Z" fill="#8FE340"/>
<path d="M84.8573 35.3599H81.323V38.897H84.8573V35.3599Z" fill="#8FE340"/>
<path d="M84.8573 31.823H81.323V35.3601H84.8573V31.823Z" fill="#8FE340"/>
<path d="M84.8573 28.2886H81.323V31.8229H84.8573V28.2886Z" fill="#8FE340"/>
<path d="M84.8573 24.7515H81.323V28.2886H84.8573V24.7515Z" fill="#7AC752"/>
<path d="M84.8573 21.2173H81.323V24.7516H84.8573V21.2173Z" fill="#8FE340"/>
<path d="M84.8573 17.6804H81.323V21.2176H84.8573V17.6804Z" fill="#7AC752"/>
<path d="M84.8573 14.1455H81.323V17.6798H84.8573V14.1455Z" fill="#7AC752"/>
<path d="M81.322 84.8599H77.7849V88.3942H81.322V84.8599Z" fill="#408AF4"/>
<path d="M81.322 81.323H77.7849V84.8601H81.322V81.323Z" fill="#408AF4"/>
<path d="M81.322 77.7888H77.7849V81.3231H81.322V77.7888Z" fill="#64ABFF"/>
<path d="M81.322 74.2512H77.7849V77.7884H81.322V74.2512Z" fill="#408AF4"/>
<path d="M81.322 70.717H77.7849V74.2513H81.322V70.717Z" fill="#7AC752"/>
<path d="M81.322 67.1802H77.7849V70.7173H81.322V67.1802Z" fill="#7AC752"/>
<path d="M81.322 63.6455H77.7849V67.1826H81.322V63.6455Z" fill="#7AC752"/>
<path d="M81.322 60.1086H77.7849V63.6429H81.322V60.1086Z" fill="#8FE340"/>
<path d="M81.322 56.5745H77.7849V60.1116H81.322V56.5745Z" fill="#8FE340"/>
<path d="M81.322 53.0369H77.7849V56.5712H81.322V53.0369Z" fill="#7AC752"/>
<path d="M81.322 49.5027H77.7849V53.0398H81.322V49.5027Z" fill="#7AC752"/>
<path d="M81.322 45.9658H77.7849V49.5001H81.322V45.9658Z" fill="#7AC752"/>
<path d="M81.322 42.4316H77.7849V45.9688H81.322V42.4316Z" fill="#7AC752"/>
<path d="M81.322 38.894H77.7849V42.4283H81.322V38.894Z" fill="#8FE340"/>
<path d="M81.322 35.3599H77.7849V38.897H81.322V35.3599Z" fill="#8FE340"/>
<path d="M81.322 31.823H77.7849V35.3601H81.322V31.823Z" fill="#8FE340"/>
<path d="M81.322 28.2886H77.7849V31.8229H81.322V28.2886Z" fill="#7AC752"/>
<path d="M81.322 24.7515H77.7849V28.2886H81.322V24.7515Z" fill="#8FE340"/>
<path d="M81.322 21.2173H77.7849V24.7516H81.322V21.2173Z" fill="#8FE340"/>
<path d="M81.322 17.6804H77.7849V21.2176H81.322V17.6804Z" fill="#64ABFF"/>
<path d="M81.322 14.1455H77.7849V17.6798H81.322V14.1455Z" fill="#64ABFF"/>
<path d="M81.322 10.6089H77.7849V14.146H81.322V10.6089Z" fill="#64ABFF"/>
<path d="M77.7858 84.8599H74.2515V88.3942H77.7858V84.8599Z" fill="#408AF4"/>
<path d="M77.7858 81.323H74.2515V84.8601H77.7858V81.323Z" fill="#64ABFF"/>
<path d="M77.7858 77.7888H74.2515V81.3231H77.7858V77.7888Z" fill="#64ABFF"/>
<path d="M77.7858 74.2512H74.2515V77.7884H77.7858V74.2512Z" fill="#7AC752"/>
<path d="M77.7858 70.717H74.2515V74.2513H77.7858V70.717Z" fill="#7AC752"/>
<path d="M77.7858 67.1802H74.2515V70.7173H77.7858V67.1802Z" fill="#7AC752"/>
<path d="M77.7858 63.6455H74.2515V67.1826H77.7858V63.6455Z" fill="#7AC752"/>
<path d="M77.7858 60.1086H74.2515V63.6429H77.7858V60.1086Z" fill="#8FE340"/>
<path d="M77.7858 56.5745H74.2515V60.1116H77.7858V56.5745Z" fill="#8FE340"/>
<path d="M77.7858 53.0369H74.2515V56.5712H77.7858V53.0369Z" fill="#7AC752"/>
<path d="M77.7858 49.5027H74.2515V53.0398H77.7858V49.5027Z" fill="#7AC752"/>
<path d="M77.7858 45.9658H74.2515V49.5001H77.7858V45.9658Z" fill="#408AF4"/>
<path d="M77.7858 42.4316H74.2515V45.9688H77.7858V42.4316Z" fill="#7AC752"/>
<path d="M77.7858 38.894H74.2515V42.4283H77.7858V38.894Z" fill="#8FE340"/>
<path d="M77.7858 35.3599H74.2515V38.897H77.7858V35.3599Z" fill="#8FE340"/>
<path d="M77.7858 31.823H74.2515V35.3601H77.7858V31.823Z" fill="#8FE340"/>
<path d="M77.7858 28.2886H74.2515V31.8229H77.7858V28.2886Z" fill="#7AC752"/>
<path d="M77.7858 24.7515H74.2515V28.2886H77.7858V24.7515Z" fill="#8FE340"/>
<path d="M77.7858 21.2173H74.2515V24.7516H77.7858V21.2173Z" fill="#7AC752"/>
<path d="M77.7858 17.6804H74.2515V21.2176H77.7858V17.6804Z" fill="#64ABFF"/>
<path d="M77.7858 14.1455H74.2515V17.6798H77.7858V14.1455Z" fill="#64ABFF"/>
<path d="M77.7858 10.6089H74.2515V14.146H77.7858V10.6089Z" fill="#408AF4"/>
<path d="M74.2516 88.394H70.7145V91.9312H74.2516V88.394Z" fill="#408AF4"/>
<path d="M74.2516 84.8599H70.7145V88.3942H74.2516V84.8599Z" fill="#408AF4"/>
<path d="M74.2516 81.323H70.7145V84.8601H74.2516V81.323Z" fill="#64ABFF"/>
<path d="M74.2516 77.7888H70.7145V81.3231H74.2516V77.7888Z" fill="#7AC752"/>
<path d="M74.2516 74.2512H70.7145V77.7884H74.2516V74.2512Z" fill="#7AC752"/>
<path d="M74.2516 70.717H70.7145V74.2513H74.2516V70.717Z" fill="#7AC752"/>
<path d="M74.2516 67.1802H70.7145V70.7173H74.2516V67.1802Z" fill="#8FE340"/>
<path d="M74.2516 63.6455H70.7145V67.1826H74.2516V63.6455Z" fill="#8FE340"/>
<path d="M74.2516 60.1086H70.7145V63.6429H74.2516V60.1086Z" fill="#8FE340"/>
<path d="M74.2516 56.5745H70.7145V60.1116H74.2516V56.5745Z" fill="#8FE340"/>
<path d="M74.2516 53.0369H70.7145V56.5712H74.2516V53.0369Z" fill="#8FE340"/>
<path d="M74.2516 49.5027H70.7145V53.0398H74.2516V49.5027Z" fill="#7AC752"/>
<path d="M74.2516 45.9658H70.7145V49.5001H74.2516V45.9658Z" fill="#408AF4"/>
<path d="M74.2516 42.4316H70.7145V45.9688H74.2516V42.4316Z" fill="#7AC752"/>
<path d="M74.2516 38.894H70.7145V42.4283H74.2516V38.894Z" fill="#7AC752"/>
<path d="M74.2516 35.3599H70.7145V38.897H74.2516V35.3599Z" fill="#8FE340"/>
<path d="M74.2516 31.823H70.7145V35.3601H74.2516V31.823Z" fill="#8FE340"/>
<path d="M74.2516 28.2886H70.7145V31.8229H74.2516V28.2886Z" fill="#7AC752"/>
<path d="M74.2516 24.7515H70.7145V28.2886H74.2516V24.7515Z" fill="#8FE340"/>
<path d="M74.2516 21.2173H70.7145V24.7516H74.2516V21.2173Z" fill="#64ABFF"/>
<path d="M74.2516 17.6804H70.7145V21.2176H74.2516V17.6804Z" fill="#64ABFF"/>
<path d="M74.2516 14.1455H70.7145V17.6798H74.2516V14.1455Z" fill="#408AF4"/>
<path d="M74.2516 10.6089H70.7145V14.146H74.2516V10.6089Z" fill="#408AF4"/>
<path d="M74.2516 7.07153H70.7145V10.6087H74.2516V7.07153Z" fill="#408AF4"/>
<path d="M70.714 91.9314H67.1797V95.4685H70.714V91.9314Z" fill="#D7E9FF"/>
<path d="M70.714 88.394H67.1797V91.9312H70.714V88.394Z" fill="#408AF4"/>
<path d="M70.714 84.8599H67.1797V88.3942H70.714V84.8599Z" fill="#408AF4"/>
<path d="M70.714 81.323H67.1797V84.8601H70.714V81.323Z" fill="#64ABFF"/>
<path d="M70.714 77.7888H67.1797V81.3231H70.714V77.7888Z" fill="#7AC752"/>
<path d="M70.714 74.2512H67.1797V77.7884H70.714V74.2512Z" fill="#7AC752"/>
<path d="M70.714 70.717H67.1797V74.2513H70.714V70.717Z" fill="#7AC752"/>
<path d="M70.714 67.1802H67.1797V70.7173H70.714V67.1802Z" fill="#8FE340"/>
<path d="M70.714 63.6455H67.1797V67.1826H70.714V63.6455Z" fill="#8FE340"/>
<path d="M70.714 60.1086H67.1797V63.6429H70.714V60.1086Z" fill="#8FE340"/>
<path d="M70.714 56.5745H67.1797V60.1116H70.714V56.5745Z" fill="#8FE340"/>
<path d="M70.714 53.0369H67.1797V56.5712H70.714V53.0369Z" fill="#8FE340"/>
<path d="M70.714 49.5027H67.1797V53.0398H70.714V49.5027Z" fill="#8FE340"/>
<path d="M70.714 45.9658H67.1797V49.5001H70.714V45.9658Z" fill="#408AF4"/>
<path d="M70.714 42.4316H67.1797V45.9688H70.714V42.4316Z" fill="#64ABFF"/>
<path d="M70.714 38.894H67.1797V42.4283H70.714V38.894Z" fill="#7AC752"/>
<path d="M70.714 35.3599H67.1797V38.897H70.714V35.3599Z" fill="#8FE340"/>
<path d="M70.714 31.823H67.1797V35.3601H70.714V31.823Z" fill="#8FE340"/>
<path d="M70.714 28.2886H67.1797V31.8229H70.714V28.2886Z" fill="#8FE340"/>
<path d="M70.714 24.7515H67.1797V28.2886H70.714V24.7515Z" fill="#8FE340"/>
<path d="M70.714 21.2173H67.1797V24.7516H70.714V21.2173Z" fill="#64ABFF"/>
<path d="M70.714 17.6804H67.1797V21.2176H70.714V17.6804Z" fill="#64ABFF"/>
<path d="M70.714 14.1455H67.1797V17.6798H70.714V14.1455Z" fill="#408AF4"/>
<path d="M70.714 10.6089H67.1797V14.146H70.714V10.6089Z" fill="#408AF4"/>
<path d="M70.714 7.07153H67.1797V10.6087H70.714V7.07153Z" fill="#408AF4"/>
<path d="M70.714 3.53687H67.1797V7.07115H70.714V3.53687Z" fill="#D7E9FF"/>
<path d="M67.182 91.9314H63.6449V95.4685H67.182V91.9314Z" fill="#D7E9FF"/>
<path d="M67.182 88.394H63.6449V91.9312H67.182V88.394Z" fill="#64ABFF"/>
<path d="M67.182 84.8599H63.6449V88.3942H67.182V84.8599Z" fill="#64ABFF"/>
<path d="M67.182 81.323H63.6449V84.8601H67.182V81.323Z" fill="#7AC752"/>
<path d="M67.182 77.7888H63.6449V81.3231H67.182V77.7888Z" fill="#7AC752"/>
<path d="M67.182 74.2512H63.6449V77.7884H67.182V74.2512Z" fill="#7AC752"/>
<path d="M67.182 70.717H63.6449V74.2513H67.182V70.717Z" fill="#7AC752"/>
<path d="M67.182 67.1802H63.6449V70.7173H67.182V67.1802Z" fill="#8FE340"/>
<path d="M67.182 63.6455H63.6449V67.1826H67.182V63.6455Z" fill="#8FE340"/>
<path d="M67.182 60.1086H63.6449V63.6429H67.182V60.1086Z" fill="#8FE340"/>
<path d="M67.182 56.5745H63.6449V60.1116H67.182V56.5745Z" fill="#8FE340"/>
<path d="M67.182 53.0369H63.6449V56.5712H67.182V53.0369Z" fill="#8FE340"/>
<path d="M67.182 49.5027H63.6449V53.0398H67.182V49.5027Z" fill="#8FE340"/>
<path d="M67.182 45.9658H63.6449V49.5001H67.182V45.9658Z" fill="#408AF4"/>
<path d="M67.182 42.4316H63.6449V45.9688H67.182V42.4316Z" fill="#64ABFF"/>
<path d="M67.182 38.894H63.6449V42.4283H67.182V38.894Z" fill="#7AC752"/>
<path d="M67.182 35.3599H63.6449V38.897H67.182V35.3599Z" fill="#8FE340"/>
<path d="M67.182 31.823H63.6449V35.3601H67.182V31.823Z" fill="#8FE340"/>
<path d="M67.182 28.2886H63.6449V31.8229H67.182V28.2886Z" fill="#8FE340"/>
<path d="M67.182 24.7515H63.6449V28.2886H67.182V24.7515Z" fill="#7AC752"/>
<path d="M67.182 21.2173H63.6449V24.7516H67.182V21.2173Z" fill="#64ABFF"/>
<path d="M67.182 17.6804H63.6449V21.2176H67.182V17.6804Z" fill="#64ABFF"/>
<path d="M67.182 14.1455H63.6449V17.6798H67.182V14.1455Z" fill="#408AF4"/>
<path d="M67.182 10.6089H63.6449V14.146H67.182V10.6089Z" fill="#408AF4"/>
<path d="M67.182 7.07153H63.6449V10.6087H67.182V7.07153Z" fill="#408AF4"/>
<path d="M67.182 3.53687H63.6449V7.07115H67.182V3.53687Z" fill="#408AF4"/>
<path d="M63.6452 95.4658H60.108V99.0001H63.6452V95.4658Z" fill="#D7E9FF"/>
<path d="M63.6452 91.9314H60.108V95.4685H63.6452V91.9314Z" fill="#D7E9FF"/>
<path d="M63.6452 88.394H60.108V91.9312H63.6452V88.394Z" fill="#D7E9FF"/>
<path d="M63.6452 84.8599H60.108V88.3942H63.6452V84.8599Z" fill="#64ABFF"/>
<path d="M63.6452 81.323H60.108V84.8601H63.6452V81.323Z" fill="#7AC752"/>
<path d="M63.6452 77.7888H60.108V81.3231H63.6452V77.7888Z" fill="#7AC752"/>
<path d="M63.6452 74.2512H60.108V77.7884H63.6452V74.2512Z" fill="#7AC752"/>
<path d="M63.6452 70.717H60.108V74.2513H63.6452V70.717Z" fill="#8FE340"/>
<path d="M63.6452 67.1802H60.108V70.7173H63.6452V67.1802Z" fill="#8FE340"/>
<path d="M63.6452 63.6455H60.108V67.1826H63.6452V63.6455Z" fill="#8FE340"/>
<path d="M63.6452 60.1086H60.108V63.6429H63.6452V60.1086Z" fill="#8FE340"/>
<path d="M63.6452 56.5745H60.108V60.1116H63.6452V56.5745Z" fill="#8FE340"/>
<path d="M63.6452 53.0369H60.108V56.5712H63.6452V53.0369Z" fill="#8FE340"/>
<path d="M63.6452 49.5027H60.108V53.0398H63.6452V49.5027Z" fill="#8FE340"/>
<path d="M63.6452 45.9658H60.108V49.5001H63.6452V45.9658Z" fill="#408AF4"/>
<path d="M63.6452 42.4316H60.108V45.9688H63.6452V42.4316Z" fill="#64ABFF"/>
<path d="M63.6452 38.894H60.108V42.4283H63.6452V38.894Z" fill="#64ABFF"/>
<path d="M63.6452 35.3599H60.108V38.897H63.6452V35.3599Z" fill="#7AC752"/>
<path d="M63.6452 31.823H60.108V35.3601H63.6452V31.823Z" fill="#8FE340"/>
<path d="M63.6452 28.2886H60.108V31.8229H63.6452V28.2886Z" fill="#7AC752"/>
<path d="M63.6452 24.7515H60.108V28.2886H63.6452V24.7515Z" fill="#408AF4"/>
<path d="M63.6452 21.2173H60.108V24.7516H63.6452V21.2173Z" fill="#64ABFF"/>
<path d="M63.6452 17.6804H60.108V21.2176H63.6452V17.6804Z" fill="#64ABFF"/>
<path d="M63.6452 14.1455H60.108V17.6798H63.6452V14.1455Z" fill="#408AF4"/>
<path d="M63.6452 10.6089H60.108V14.146H63.6452V10.6089Z" fill="#408AF4"/>
<path d="M63.6452 7.07153H60.108V10.6087H63.6452V7.07153Z" fill="#408AF4"/>
<path d="M63.6452 3.53687H60.108V7.07115H63.6452V3.53687Z" fill="#408AF4"/>
<path d="M63.6452 0H60.108V3.53714H63.6452V0Z" fill="#D7E9FF"/>
<path d="M60.1086 95.4658H56.5743V99.0001H60.1086V95.4658Z" fill="#D7E9FF"/>
<path d="M60.1086 91.9314H56.5743V95.4685H60.1086V91.9314Z" fill="#D7E9FF"/>
<path d="M60.1086 88.394H56.5743V91.9312H60.1086V88.394Z" fill="#D7E9FF"/>
<path d="M60.1086 84.8599H56.5743V88.3942H60.1086V84.8599Z" fill="#408AF4"/>
<path d="M60.1086 81.323H56.5743V84.8601H60.1086V81.323Z" fill="#408AF4"/>
<path d="M60.1086 77.7888H56.5743V81.3231H60.1086V77.7888Z" fill="#7AC752"/>
<path d="M60.1086 74.2512H56.5743V77.7884H60.1086V74.2512Z" fill="#7AC752"/>
<path d="M60.1086 70.717H56.5743V74.2513H60.1086V70.717Z" fill="#8FE340"/>
<path d="M60.1086 67.1802H56.5743V70.7173H60.1086V67.1802Z" fill="#8FE340"/>
<path d="M60.1086 63.6455H56.5743V67.1826H60.1086V63.6455Z" fill="#8FE340"/>
<path d="M60.1086 60.1086H56.5743V63.6429H60.1086V60.1086Z" fill="#8FE340"/>
<path d="M60.1086 56.5745H56.5743V60.1116H60.1086V56.5745Z" fill="#8FE340"/>
<path d="M60.1086 53.0369H56.5743V56.5712H60.1086V53.0369Z" fill="#8FE340"/>
<path d="M60.1086 49.5027H56.5743V53.0398H60.1086V49.5027Z" fill="#8FE340"/>
<path d="M60.1086 45.9658H56.5743V49.5001H60.1086V45.9658Z" fill="#408AF4"/>
<path d="M60.1086 42.4316H56.5743V45.9688H60.1086V42.4316Z" fill="#64ABFF"/>
<path d="M60.1086 38.894H56.5743V42.4283H60.1086V38.894Z" fill="#64ABFF"/>
<path d="M60.1086 35.3599H56.5743V38.897H60.1086V35.3599Z" fill="#408AF4"/>
<path d="M60.1086 31.823H56.5743V35.3601H60.1086V31.823Z" fill="#408AF4"/>
<path d="M60.1086 28.2886H56.5743V31.8229H60.1086V28.2886Z" fill="#408AF4"/>
<path d="M60.1086 24.7515H56.5743V28.2886H60.1086V24.7515Z" fill="#408AF4"/>
<path d="M60.1086 21.2173H56.5743V24.7516H60.1086V21.2173Z" fill="#64ABFF"/>
<path d="M60.1086 17.6804H56.5743V21.2176H60.1086V17.6804Z" fill="#64ABFF"/>
<path d="M60.1086 14.1455H56.5743V17.6798H60.1086V14.1455Z" fill="#408AF4"/>
<path d="M60.1086 10.6089H56.5743V14.146H60.1086V10.6089Z" fill="#408AF4"/>
<path d="M60.1086 7.07153H56.5743V10.6087H60.1086V7.07153Z" fill="#408AF4"/>
<path d="M60.1086 3.53687H56.5743V7.07115H60.1086V3.53687Z" fill="#D7E9FF"/>
<path d="M60.1086 0H56.5743V3.53714H60.1086V0Z" fill="#D7E9FF"/>
<path d="M56.5746 95.4658H53.0375V99.0001H56.5746V95.4658Z" fill="#D7E9FF"/>
<path d="M56.5746 91.9314H53.0375V95.4685H56.5746V91.9314Z" fill="#D7E9FF"/>
<path d="M56.5746 88.394H53.0375V91.9312H56.5746V88.394Z" fill="#D7E9FF"/>
<path d="M56.5746 84.8599H53.0375V88.3942H56.5746V84.8599Z" fill="#408AF4"/>
<path d="M56.5746 81.323H53.0375V84.8601H56.5746V81.323Z" fill="#408AF4"/>
<path d="M56.5746 77.7888H53.0375V81.3231H56.5746V77.7888Z" fill="#7AC752"/>
<path d="M56.5746 74.2512H53.0375V77.7884H56.5746V74.2512Z" fill="#7AC752"/>
<path d="M56.5746 70.717H53.0375V74.2513H56.5746V70.717Z" fill="#7AC752"/>
<path d="M56.5746 67.1802H53.0375V70.7173H56.5746V67.1802Z" fill="#7AC752"/>
<path d="M56.5746 63.6455H53.0375V67.1826H56.5746V63.6455Z" fill="#8FE340"/>
<path d="M56.5746 60.1086H53.0375V63.6429H56.5746V60.1086Z" fill="#8FE340"/>
<path d="M56.5746 56.5745H53.0375V60.1116H56.5746V56.5745Z" fill="#8FE340"/>
<path d="M56.5746 53.0369H53.0375V56.5712H56.5746V53.0369Z" fill="#8FE340"/>
<path d="M56.5746 49.5027H53.0375V53.0398H56.5746V49.5027Z" fill="#7AC752"/>
<path d="M56.5746 45.9658H53.0375V49.5001H56.5746V45.9658Z" fill="#408AF4"/>
<path d="M56.5746 42.4316H53.0375V45.9688H56.5746V42.4316Z" fill="#64ABFF"/>
<path d="M56.5746 38.894H53.0375V42.4283H56.5746V38.894Z" fill="#64ABFF"/>
<path d="M56.5746 35.3599H53.0375V38.897H56.5746V35.3599Z" fill="#408AF4"/>
<path d="M56.5746 31.823H53.0375V35.3601H56.5746V31.823Z" fill="#408AF4"/>
<path d="M56.5746 28.2886H53.0375V31.8229H56.5746V28.2886Z" fill="#408AF4"/>
<path d="M56.5746 24.7515H53.0375V28.2886H56.5746V24.7515Z" fill="#408AF4"/>
<path d="M56.5746 21.2173H53.0375V24.7516H56.5746V21.2173Z" fill="#64ABFF"/>
<path d="M56.5746 17.6804H53.0375V21.2176H56.5746V17.6804Z" fill="#64ABFF"/>
<path d="M56.5746 14.1455H53.0375V17.6798H56.5746V14.1455Z" fill="#408AF4"/>
<path d="M56.5746 10.6089H53.0375V14.146H56.5746V10.6089Z" fill="#408AF4"/>
<path d="M56.5746 7.07153H53.0375V10.6087H56.5746V7.07153Z" fill="#408AF4"/>
<path d="M56.5746 3.53687H53.0375V7.07115H56.5746V3.53687Z" fill="#D7E9FF"/>
<path d="M56.5746 0H53.0375V3.53714H56.5746V0Z" fill="#D7E9FF"/>
<path d="M53.0371 95.4658H49.5028V99.0001H53.0371V95.4658Z" fill="#D7E9FF"/>
<path d="M53.0371 91.9314H49.5028V95.4685H53.0371V91.9314Z" fill="#D7E9FF"/>
<path d="M53.0371 88.394H49.5028V91.9312H53.0371V88.394Z" fill="#D7E9FF"/>
<path d="M53.0371 84.8599H49.5028V88.3942H53.0371V84.8599Z" fill="#408AF4"/>
<path d="M53.0371 81.323H49.5028V84.8601H53.0371V81.323Z" fill="#64ABFF"/>
<path d="M53.0371 77.7888H49.5028V81.3231H53.0371V77.7888Z" fill="#64ABFF"/>
<path d="M53.0371 74.2512H49.5028V77.7884H53.0371V74.2512Z" fill="#64ABFF"/>
<path d="M53.0371 70.717H49.5028V74.2513H53.0371V70.717Z" fill="#64ABFF"/>
<path d="M53.0371 67.1802H49.5028V70.7173H53.0371V67.1802Z" fill="#64ABFF"/>
<path d="M53.0371 63.6455H49.5028V67.1826H53.0371V63.6455Z" fill="#7AC752"/>
<path d="M53.0371 60.1086H49.5028V63.6429H53.0371V60.1086Z" fill="#7AC752"/>
<path d="M53.0371 56.5745H49.5028V60.1116H53.0371V56.5745Z" fill="#8FE340"/>
<path d="M53.0371 53.0369H49.5028V56.5712H53.0371V53.0369Z" fill="#8FE340"/>
<path d="M53.0371 49.5027H49.5028V53.0398H53.0371V49.5027Z" fill="#408AF4"/>
<path d="M53.0371 45.9658H49.5028V49.5001H53.0371V45.9658Z" fill="#408AF4"/>
<path d="M53.0371 42.4316H49.5028V45.9688H53.0371V42.4316Z" fill="#64ABFF"/>
<path d="M53.0371 38.894H49.5028V42.4283H53.0371V38.894Z" fill="#408AF4"/>
<path d="M53.0371 35.3599H49.5028V38.897H53.0371V35.3599Z" fill="#408AF4"/>
<path d="M53.0371 31.823H49.5028V35.3601H53.0371V31.823Z" fill="#408AF4"/>
<path d="M53.0371 28.2886H49.5028V31.8229H53.0371V28.2886Z" fill="#408AF4"/>
<path d="M53.0371 24.7515H49.5028V28.2886H53.0371V24.7515Z" fill="#408AF4"/>
<path d="M53.0371 21.2173H49.5028V24.7516H53.0371V21.2173Z" fill="#64ABFF"/>
<path d="M53.0371 17.6804H49.5028V21.2176H53.0371V17.6804Z" fill="#64ABFF"/>
<path d="M53.0371 14.1455H49.5028V17.6798H53.0371V14.1455Z" fill="#408AF4"/>
<path d="M53.0371 10.6089H49.5028V14.146H53.0371V10.6089Z" fill="#408AF4"/>
<path d="M53.0371 7.07153H49.5028V10.6087H53.0371V7.07153Z" fill="#408AF4"/>
<path d="M53.0371 3.53687H49.5028V7.07115H53.0371V3.53687Z" fill="#D7E9FF"/>
<path d="M53.0371 0H49.5028V3.53714H53.0371V0Z" fill="#D7E9FF"/>
<path d="M49.503 95.4658H45.9658V99.0001H49.503V95.4658Z" fill="#D7E9FF"/>
<path d="M49.503 91.9314H45.9658V95.4685H49.503V91.9314Z" fill="#D7E9FF"/>
<path d="M49.503 88.394H45.9658V91.9312H49.503V88.394Z" fill="#D7E9FF"/>
<path d="M49.503 84.8599H45.9658V88.3942H49.503V84.8599Z" fill="#408AF4"/>
<path d="M49.503 81.323H45.9658V84.8601H49.503V81.323Z" fill="#408AF4"/>
<path d="M49.503 77.7888H45.9658V81.3231H49.503V77.7888Z" fill="#408AF4"/>
<path d="M49.503 74.2512H45.9658V77.7884H49.503V74.2512Z" fill="#64ABFF"/>
<path d="M49.503 70.717H45.9658V74.2513H49.503V70.717Z" fill="#408AF4"/>
<path d="M49.503 67.1802H45.9658V70.7173H49.503V67.1802Z" fill="#64ABFF"/>
<path d="M49.503 63.6455H45.9658V67.1826H49.503V63.6455Z" fill="#408AF4"/>
<path d="M49.503 60.1086H45.9658V63.6429H49.503V60.1086Z" fill="#408AF4"/>
<path d="M49.503 56.5745H45.9658V60.1116H49.503V56.5745Z" fill="#7AC752"/>
<path d="M49.503 53.0369H45.9658V56.5712H49.503V53.0369Z" fill="#408AF4"/>
<path d="M49.503 49.5027H45.9658V53.0398H49.503V49.5027Z" fill="#408AF4"/>
<path d="M49.503 45.9658H45.9658V49.5001H49.503V45.9658Z" fill="#408AF4"/>
<path d="M49.503 42.4316H45.9658V45.9688H49.503V42.4316Z" fill="#408AF4"/>
<path d="M49.503 38.894H45.9658V42.4283H49.503V38.894Z" fill="#408AF4"/>
<path d="M49.503 35.3599H45.9658V38.897H49.503V35.3599Z" fill="#408AF4"/>
<path d="M49.503 31.823H45.9658V35.3601H49.503V31.823Z" fill="#408AF4"/>
<path d="M49.503 28.2886H45.9658V31.8229H49.503V28.2886Z" fill="#408AF4"/>
<path d="M49.503 24.7515H45.9658V28.2886H49.503V24.7515Z" fill="#408AF4"/>
<path d="M49.503 21.2173H45.9658V24.7516H49.503V21.2173Z" fill="#64ABFF"/>
<path d="M49.503 17.6804H45.9658V21.2176H49.503V17.6804Z" fill="#64ABFF"/>
<path d="M49.503 14.1455H45.9658V17.6798H49.503V14.1455Z" fill="#408AF4"/>
<path d="M49.503 10.6089H45.9658V14.146H49.503V10.6089Z" fill="#408AF4"/>
<path d="M49.503 7.07153H45.9658V10.6087H49.503V7.07153Z" fill="#408AF4"/>
<path d="M49.503 3.53687H45.9658V7.07115H49.503V3.53687Z" fill="#D7E9FF"/>
<path d="M49.503 0H45.9658V3.53714H49.503V0Z" fill="#D7E9FF"/>
<path d="M45.9656 95.4658H42.4313V99.0001H45.9656V95.4658Z" fill="#D7E9FF"/>
<path d="M45.9656 91.9314H42.4313V95.4685H45.9656V91.9314Z" fill="#408AF4"/>
<path d="M45.9656 88.394H42.4313V91.9312H45.9656V88.394Z" fill="#D7E9FF"/>
<path d="M45.9656 84.8599H42.4313V88.3942H45.9656V84.8599Z" fill="#408AF4"/>
<path d="M45.9656 81.323H42.4313V84.8601H45.9656V81.323Z" fill="#408AF4"/>
<path d="M45.9656 77.7888H42.4313V81.3231H45.9656V77.7888Z" fill="#408AF4"/>
<path d="M45.9656 74.2512H42.4313V77.7884H45.9656V74.2512Z" fill="#64ABFF"/>
<path d="M45.9656 70.717H42.4313V74.2513H45.9656V70.717Z" fill="#64ABFF"/>
<path d="M45.9656 67.1802H42.4313V70.7173H45.9656V67.1802Z" fill="#64ABFF"/>
<path d="M45.9656 63.6455H42.4313V67.1826H45.9656V63.6455Z" fill="#64ABFF"/>
<path d="M45.9656 60.1086H42.4313V63.6429H45.9656V60.1086Z" fill="#408AF4"/>
<path d="M45.9656 56.5745H42.4313V60.1116H45.9656V56.5745Z" fill="#408AF4"/>
<path d="M45.9656 53.0369H42.4313V56.5712H45.9656V53.0369Z" fill="#408AF4"/>
<path d="M45.9656 49.5027H42.4313V53.0398H45.9656V49.5027Z" fill="#408AF4"/>
<path d="M45.9656 45.9658H42.4313V49.5001H45.9656V45.9658Z" fill="#408AF4"/>
<path d="M45.9656 42.4316H42.4313V45.9688H45.9656V42.4316Z" fill="#408AF4"/>
<path d="M45.9656 38.894H42.4313V42.4283H45.9656V38.894Z" fill="#408AF4"/>
<path d="M45.9656 35.3599H42.4313V38.897H45.9656V35.3599Z" fill="#408AF4"/>
<path d="M45.9656 31.823H42.4313V35.3601H45.9656V31.823Z" fill="#408AF4"/>
<path d="M45.9656 28.2886H42.4313V31.8229H45.9656V28.2886Z" fill="#408AF4"/>
<path d="M45.9656 24.7515H42.4313V28.2886H45.9656V24.7515Z" fill="#408AF4"/>
<path d="M45.9656 21.2173H42.4313V24.7516H45.9656V21.2173Z" fill="#64ABFF"/>
<path d="M45.9656 17.6804H42.4313V21.2176H45.9656V17.6804Z" fill="#408AF4"/>
<path d="M45.9656 14.1455H42.4313V17.6798H45.9656V14.1455Z" fill="#408AF4"/>
<path d="M45.9656 10.6089H42.4313V14.146H45.9656V10.6089Z" fill="#408AF4"/>
<path d="M45.9656 7.07153H42.4313V10.6087H45.9656V7.07153Z" fill="#408AF4"/>
<path d="M45.9656 3.53687H42.4313V7.07115H45.9656V3.53687Z" fill="#408AF4"/>
<path d="M45.9656 0H42.4313V3.53714H45.9656V0Z" fill="#D7E9FF"/>
<path d="M42.4314 95.4658H38.8943V99.0001H42.4314V95.4658Z" fill="#D7E9FF"/>
<path d="M42.4314 91.9314H38.8943V95.4685H42.4314V91.9314Z" fill="#408AF4"/>
<path d="M42.4314 88.394H38.8943V91.9312H42.4314V88.394Z" fill="#408AF4"/>
<path d="M42.4314 84.8599H38.8943V88.3942H42.4314V84.8599Z" fill="#408AF4"/>
<path d="M42.4314 81.323H38.8943V84.8601H42.4314V81.323Z" fill="#408AF4"/>
<path d="M42.4314 77.7888H38.8943V81.3231H42.4314V77.7888Z" fill="#408AF4"/>
<path d="M42.4314 74.2512H38.8943V77.7884H42.4314V74.2512Z" fill="#64ABFF"/>
<path d="M42.4314 70.717H38.8943V74.2513H42.4314V70.717Z" fill="#64ABFF"/>
<path d="M42.4314 67.1802H38.8943V70.7173H42.4314V67.1802Z" fill="#408AF4"/>
<path d="M42.4314 63.6455H38.8943V67.1826H42.4314V63.6455Z" fill="#408AF4"/>
<path d="M42.4314 60.1086H38.8943V63.6429H42.4314V60.1086Z" fill="#408AF4"/>
<path d="M42.4314 56.5745H38.8943V60.1116H42.4314V56.5745Z" fill="#408AF4"/>
<path d="M42.4314 53.0369H38.8943V56.5712H42.4314V53.0369Z" fill="#408AF4"/>
<path d="M42.4314 49.5027H38.8943V53.0398H42.4314V49.5027Z" fill="#408AF4"/>
<path d="M42.4314 45.9658H38.8943V49.5001H42.4314V45.9658Z" fill="#408AF4"/>
<path d="M42.4314 42.4316H38.8943V45.9688H42.4314V42.4316Z" fill="#408AF4"/>
<path d="M42.4314 38.894H38.8943V42.4283H42.4314V38.894Z" fill="#408AF4"/>
<path d="M42.4314 35.3599H38.8943V38.897H42.4314V35.3599Z" fill="#408AF4"/>
<path d="M42.4314 31.823H38.8943V35.3601H42.4314V31.823Z" fill="#408AF4"/>
<path d="M42.4314 28.2886H38.8943V31.8229H42.4314V28.2886Z" fill="#408AF4"/>
<path d="M42.4314 24.7515H38.8943V28.2886H42.4314V24.7515Z" fill="#7AC752"/>
<path d="M42.4314 21.2173H38.8943V24.7516H42.4314V21.2173Z" fill="#7AC752"/>
<path d="M42.4314 17.6804H38.8943V21.2176H42.4314V17.6804Z" fill="#7AC752"/>
<path d="M42.4314 14.1455H38.8943V17.6798H42.4314V14.1455Z" fill="#408AF4"/>
<path d="M42.4314 10.6089H38.8943V14.146H42.4314V10.6089Z" fill="#408AF4"/>
<path d="M42.4314 7.07153H38.8943V10.6087H42.4314V7.07153Z" fill="#408AF4"/>
<path d="M42.4314 3.53687H38.8943V7.07115H42.4314V3.53687Z" fill="#408AF4"/>
<path d="M42.4314 0H38.8943V3.53714H42.4314V0Z" fill="#D7E9FF"/>
<path d="M38.8938 95.4658H35.3595V99.0001H38.8938V95.4658Z" fill="#D7E9FF"/>
<path d="M38.8938 91.9314H35.3595V95.4685H38.8938V91.9314Z" fill="#408AF4"/>
<path d="M38.8938 88.394H35.3595V91.9312H38.8938V88.394Z" fill="#408AF4"/>
<path d="M38.8938 84.8599H35.3595V88.3942H38.8938V84.8599Z" fill="#408AF4"/>
<path d="M38.8938 81.323H35.3595V84.8601H38.8938V81.323Z" fill="#408AF4"/>
<path d="M38.8938 77.7888H35.3595V81.3231H38.8938V77.7888Z" fill="#408AF4"/>
<path d="M38.8938 74.2512H35.3595V77.7884H38.8938V74.2512Z" fill="#64ABFF"/>
<path d="M38.8938 70.717H35.3595V74.2513H38.8938V70.717Z" fill="#408AF4"/>
<path d="M38.8938 67.1802H35.3595V70.7173H38.8938V67.1802Z" fill="#408AF4"/>
<path d="M38.8938 63.6455H35.3595V67.1826H38.8938V63.6455Z" fill="#408AF4"/>
<path d="M38.8938 60.1086H35.3595V63.6429H38.8938V60.1086Z" fill="#408AF4"/>
<path d="M38.8938 56.5745H35.3595V60.1116H38.8938V56.5745Z" fill="#408AF4"/>
<path d="M38.8938 53.0369H35.3595V56.5712H38.8938V53.0369Z" fill="#408AF4"/>
<path d="M38.8938 49.5027H35.3595V53.0398H38.8938V49.5027Z" fill="#408AF4"/>
<path d="M38.8938 45.9658H35.3595V49.5001H38.8938V45.9658Z" fill="#408AF4"/>
<path d="M38.8938 42.4316H35.3595V45.9688H38.8938V42.4316Z" fill="#408AF4"/>
<path d="M38.8938 38.894H35.3595V42.4283H38.8938V38.894Z" fill="#408AF4"/>
<path d="M38.8938 35.3599H35.3595V38.897H38.8938V35.3599Z" fill="#408AF4"/>
<path d="M38.8938 31.823H35.3595V35.3601H38.8938V31.823Z" fill="#408AF4"/>
<path d="M38.8938 28.2886H35.3595V31.8229H38.8938V28.2886Z" fill="#408AF4"/>
<path d="M38.8938 24.7515H35.3595V28.2886H38.8938V24.7515Z" fill="#7AC752"/>
<path d="M38.8938 21.2173H35.3595V24.7516H38.8938V21.2173Z" fill="#7AC752"/>
<path d="M38.8938 17.6804H35.3595V21.2176H38.8938V17.6804Z" fill="#7AC752"/>
<path d="M38.8938 14.1455H35.3595V17.6798H38.8938V14.1455Z" fill="#7AC752"/>
<path d="M38.8938 10.6089H35.3595V14.146H38.8938V10.6089Z" fill="#408AF4"/>
<path d="M38.8938 7.07153H35.3595V10.6087H38.8938V7.07153Z" fill="#408AF4"/>
<path d="M38.8938 3.53687H35.3595V7.07115H38.8938V3.53687Z" fill="#408AF4"/>
<path d="M38.8938 0H35.3595V3.53714H38.8938V0Z" fill="#408AF4"/>
<path d="M35.3596 91.9314H31.8225V95.4685H35.3596V91.9314Z" fill="#D7E9FF"/>
<path d="M35.3596 88.394H31.8225V91.9312H35.3596V88.394Z" fill="#408AF4"/>
<path d="M35.3596 84.8599H31.8225V88.3942H35.3596V84.8599Z" fill="#408AF4"/>
<path d="M35.3596 81.323H31.8225V84.8601H35.3596V81.323Z" fill="#408AF4"/>
<path d="M35.3596 77.7888H31.8225V81.3231H35.3596V77.7888Z" fill="#64ABFF"/>
<path d="M35.3596 74.2512H31.8225V77.7884H35.3596V74.2512Z" fill="#64ABFF"/>
<path d="M35.3596 70.717H31.8225V74.2513H35.3596V70.717Z" fill="#408AF4"/>
<path d="M35.3596 67.1802H31.8225V70.7173H35.3596V67.1802Z" fill="#408AF4"/>
<path d="M35.3596 63.6455H31.8225V67.1826H35.3596V63.6455Z" fill="#408AF4"/>
<path d="M35.3596 60.1086H31.8225V63.6429H35.3596V60.1086Z" fill="#408AF4"/>
<path d="M35.3596 56.5745H31.8225V60.1116H35.3596V56.5745Z" fill="#408AF4"/>
<path d="M35.3596 53.0369H31.8225V56.5712H35.3596V53.0369Z" fill="#408AF4"/>
<path d="M35.3596 49.5027H31.8225V53.0398H35.3596V49.5027Z" fill="#408AF4"/>
<path d="M35.3596 45.9658H31.8225V49.5001H35.3596V45.9658Z" fill="#408AF4"/>
<path d="M35.3596 42.4316H31.8225V45.9688H35.3596V42.4316Z" fill="#408AF4"/>
<path d="M35.3596 38.894H31.8225V42.4283H35.3596V38.894Z" fill="#408AF4"/>
<path d="M35.3596 35.3599H31.8225V38.897H35.3596V35.3599Z" fill="#408AF4"/>
<path d="M35.3596 31.823H31.8225V35.3601H35.3596V31.823Z" fill="#408AF4"/>
<path d="M35.3596 28.2886H31.8225V31.8229H35.3596V28.2886Z" fill="#7AC752"/>
<path d="M35.3596 24.7515H31.8225V28.2886H35.3596V24.7515Z" fill="#7AC752"/>
<path d="M35.3596 21.2173H31.8225V24.7516H35.3596V21.2173Z" fill="#7AC752"/>
<path d="M35.3596 17.6804H31.8225V21.2176H35.3596V17.6804Z" fill="#8FE340"/>
<path d="M35.3596 14.1455H31.8225V17.6798H35.3596V14.1455Z" fill="#7AC752"/>
<path d="M35.3596 10.6089H31.8225V14.146H35.3596V10.6089Z" fill="#408AF4"/>
<path d="M35.3596 7.07153H31.8225V10.6087H35.3596V7.07153Z" fill="#408AF4"/>
<path d="M35.3596 3.53687H31.8225V7.07115H35.3596V3.53687Z" fill="#408AF4"/>
<path d="M31.8229 91.9314H28.2858V95.4685H31.8229V91.9314Z" fill="#D7E9FF"/>
<path d="M31.8229 88.394H28.2858V91.9312H31.8229V88.394Z" fill="#408AF4"/>
<path d="M31.8229 84.8599H28.2858V88.3942H31.8229V84.8599Z" fill="#408AF4"/>
<path d="M31.8229 81.323H28.2858V84.8601H31.8229V81.323Z" fill="#408AF4"/>
<path d="M31.8229 77.7888H28.2858V81.3231H31.8229V77.7888Z" fill="#64ABFF"/>
<path d="M31.8229 74.2512H28.2858V77.7884H31.8229V74.2512Z" fill="#64ABFF"/>
<path d="M31.8229 70.717H28.2858V74.2513H31.8229V70.717Z" fill="#408AF4"/>
<path d="M31.8229 67.1802H28.2858V70.7173H31.8229V67.1802Z" fill="#408AF4"/>
<path d="M31.8229 63.6455H28.2858V67.1826H31.8229V63.6455Z" fill="#408AF4"/>
<path d="M31.8229 60.1086H28.2858V63.6429H31.8229V60.1086Z" fill="#408AF4"/>
<path d="M31.8229 56.5745H28.2858V60.1116H31.8229V56.5745Z" fill="#408AF4"/>
<path d="M31.8229 53.0369H28.2858V56.5712H31.8229V53.0369Z" fill="#408AF4"/>
<path d="M31.8229 49.5027H28.2858V53.0398H31.8229V49.5027Z" fill="#408AF4"/>
<path d="M31.8229 45.9658H28.2858V49.5001H31.8229V45.9658Z" fill="#408AF4"/>
<path d="M31.8229 42.4316H28.2858V45.9688H31.8229V42.4316Z" fill="#408AF4"/>
<path d="M31.8229 38.894H28.2858V42.4283H31.8229V38.894Z" fill="#408AF4"/>
<path d="M31.8229 35.3599H28.2858V38.897H31.8229V35.3599Z" fill="#408AF4"/>
<path d="M31.8229 31.823H28.2858V35.3601H31.8229V31.823Z" fill="#408AF4"/>
<path d="M31.8229 28.2886H28.2858V31.8229H31.8229V28.2886Z" fill="#7AC752"/>
<path d="M31.8229 24.7515H28.2858V28.2886H31.8229V24.7515Z" fill="#7AC752"/>
<path d="M31.8229 21.2173H28.2858V24.7516H31.8229V21.2173Z" fill="#8FE340"/>
<path d="M31.8229 17.6804H28.2858V21.2176H31.8229V17.6804Z" fill="#8FE340"/>
<path d="M31.8229 14.1455H28.2858V17.6798H31.8229V14.1455Z" fill="#8FE340"/>
<path d="M31.8229 10.6089H28.2858V14.146H31.8229V10.6089Z" fill="#408AF4"/>
<path d="M31.8229 7.07153H28.2858V10.6087H31.8229V7.07153Z" fill="#408AF4"/>
<path d="M31.8229 3.53687H28.2858V7.07115H31.8229V3.53687Z" fill="#408AF4"/>
<path d="M28.2851 88.394H24.7509V91.9312H28.2851V88.394Z" fill="#408AF4"/>
<path d="M28.2851 84.8599H24.7509V88.3942H28.2851V84.8599Z" fill="#408AF4"/>
<path d="M28.2851 81.323H24.7509V84.8601H28.2851V81.323Z" fill="#408AF4"/>
<path d="M28.2851 77.7888H24.7509V81.3231H28.2851V77.7888Z" fill="#64ABFF"/>
<path d="M28.2851 74.2512H24.7509V77.7884H28.2851V74.2512Z" fill="#408AF4"/>
<path d="M28.2851 70.717H24.7509V74.2513H28.2851V70.717Z" fill="#408AF4"/>
<path d="M28.2851 67.1802H24.7509V70.7173H28.2851V67.1802Z" fill="#408AF4"/>
<path d="M28.2851 63.6455H24.7509V67.1826H28.2851V63.6455Z" fill="#408AF4"/>
<path d="M28.2851 60.1086H24.7509V63.6429H28.2851V60.1086Z" fill="#408AF4"/>
<path d="M28.2851 56.5745H24.7509V60.1116H28.2851V56.5745Z" fill="#408AF4"/>
<path d="M28.2851 53.0369H24.7509V56.5712H28.2851V53.0369Z" fill="#408AF4"/>
<path d="M28.2851 49.5027H24.7509V53.0398H28.2851V49.5027Z" fill="#408AF4"/>
<path d="M28.2851 45.9658H24.7509V49.5001H28.2851V45.9658Z" fill="#408AF4"/>
<path d="M28.2851 42.4316H24.7509V45.9688H28.2851V42.4316Z" fill="#408AF4"/>
<path d="M28.2851 38.894H24.7509V42.4283H28.2851V38.894Z" fill="#408AF4"/>
<path d="M28.2851 35.3599H24.7509V38.897H28.2851V35.3599Z" fill="#408AF4"/>
<path d="M28.2851 31.823H24.7509V35.3601H28.2851V31.823Z" fill="#7AC752"/>
<path d="M28.2851 28.2886H24.7509V31.8229H28.2851V28.2886Z" fill="#7AC752"/>
<path d="M28.2851 24.7515H24.7509V28.2886H28.2851V24.7515Z" fill="#8FE340"/>
<path d="M28.2851 21.2173H24.7509V24.7516H28.2851V21.2173Z" fill="#8FE340"/>
<path d="M28.2851 17.6804H24.7509V21.2176H28.2851V17.6804Z" fill="#8FE340"/>
<path d="M28.2851 14.1455H24.7509V17.6798H28.2851V14.1455Z" fill="#8FE340"/>
<path d="M28.2851 10.6089H24.7509V14.146H28.2851V10.6089Z" fill="#8FE340"/>
<path d="M28.2851 7.07153H24.7509V10.6087H28.2851V7.07153Z" fill="#408AF4"/>
<path d="M24.751 84.8599H21.2139V88.3942H24.751V84.8599Z" fill="#408AF4"/>
<path d="M24.751 81.323H21.2139V84.8601H24.751V81.323Z" fill="#64ABFF"/>
<path d="M24.751 77.7888H21.2139V81.3231H24.751V77.7888Z" fill="#64ABFF"/>
<path d="M24.751 74.2512H21.2139V77.7884H24.751V74.2512Z" fill="#408AF4"/>
<path d="M24.751 70.717H21.2139V74.2513H24.751V70.717Z" fill="#408AF4"/>
<path d="M24.751 67.1802H21.2139V70.7173H24.751V67.1802Z" fill="#408AF4"/>
<path d="M24.751 63.6455H21.2139V67.1826H24.751V63.6455Z" fill="#408AF4"/>
<path d="M24.751 60.1086H21.2139V63.6429H24.751V60.1086Z" fill="#408AF4"/>
<path d="M24.751 56.5745H21.2139V60.1116H24.751V56.5745Z" fill="#408AF4"/>
<path d="M24.751 53.0369H21.2139V56.5712H24.751V53.0369Z" fill="#408AF4"/>
<path d="M24.751 49.5027H21.2139V53.0398H24.751V49.5027Z" fill="#408AF4"/>
<path d="M24.751 45.9658H21.2139V49.5001H24.751V45.9658Z" fill="#408AF4"/>
<path d="M24.751 42.4316H21.2139V45.9688H24.751V42.4316Z" fill="#408AF4"/>
<path d="M24.751 38.894H21.2139V42.4283H24.751V38.894Z" fill="#408AF4"/>
<path d="M24.751 35.3599H21.2139V38.897H24.751V35.3599Z" fill="#408AF4"/>
<path d="M24.751 31.823H21.2139V35.3601H24.751V31.823Z" fill="#7AC752"/>
<path d="M24.751 28.2886H21.2139V31.8229H24.751V28.2886Z" fill="#7AC752"/>
<path d="M24.751 24.7515H21.2139V28.2886H24.751V24.7515Z" fill="#8FE340"/>
<path d="M24.751 21.2173H21.2139V24.7516H24.751V21.2173Z" fill="#8FE340"/>
<path d="M24.751 17.6804H21.2139V21.2176H24.751V17.6804Z" fill="#8FE340"/>
<path d="M24.751 14.1455H21.2139V17.6798H24.751V14.1455Z" fill="#8FE340"/>
<path d="M24.751 10.6089H21.2139V14.146H24.751V10.6089Z" fill="#8FE340"/>
<path d="M21.2147 84.8599H17.6804V88.3942H21.2147V84.8599Z" fill="#408AF4"/>
<path d="M21.2147 81.323H17.6804V84.8601H21.2147V81.323Z" fill="#408AF4"/>
<path d="M21.2147 77.7888H17.6804V81.3231H21.2147V77.7888Z" fill="#7AC752"/>
<path d="M21.2147 74.2512H17.6804V77.7884H21.2147V74.2512Z" fill="#7AC752"/>
<path d="M21.2147 70.717H17.6804V74.2513H21.2147V70.717Z" fill="#7AC752"/>
<path d="M21.2147 67.1802H17.6804V70.7173H21.2147V67.1802Z" fill="#7AC752"/>
<path d="M21.2147 63.6455H17.6804V67.1826H21.2147V63.6455Z" fill="#7AC752"/>
<path d="M21.2147 60.1086H17.6804V63.6429H21.2147V60.1086Z" fill="#408AF4"/>
<path d="M21.2147 56.5745H17.6804V60.1116H21.2147V56.5745Z" fill="#408AF4"/>
<path d="M21.2147 53.0369H17.6804V56.5712H21.2147V53.0369Z" fill="#408AF4"/>
<path d="M21.2147 49.5027H17.6804V53.0398H21.2147V49.5027Z" fill="#408AF4"/>
<path d="M21.2147 45.9658H17.6804V49.5001H21.2147V45.9658Z" fill="#408AF4"/>
<path d="M21.2147 42.4316H17.6804V45.9688H21.2147V42.4316Z" fill="#408AF4"/>
<path d="M21.2147 38.894H17.6804V42.4283H21.2147V38.894Z" fill="#64ABFF"/>
<path d="M21.2147 35.3599H17.6804V38.897H21.2147V35.3599Z" fill="#408AF4"/>
<path d="M21.2147 31.823H17.6804V35.3601H21.2147V31.823Z" fill="#7AC752"/>
<path d="M21.2147 28.2886H17.6804V31.8229H21.2147V28.2886Z" fill="#8FE340"/>
<path d="M21.2147 24.7515H17.6804V28.2886H21.2147V24.7515Z" fill="#8FE340"/>
<path d="M21.2147 21.2173H17.6804V24.7516H21.2147V21.2173Z" fill="#8FE340"/>
<path d="M21.2147 17.6804H17.6804V21.2176H21.2147V17.6804Z" fill="#8FE340"/>
<path d="M21.2147 14.1455H17.6804V17.6798H21.2147V14.1455Z" fill="#8FE340"/>
<path d="M21.2147 10.6089H17.6804V14.146H21.2147V10.6089Z" fill="#8FE340"/>
<path d="M17.6806 81.323H14.1434V84.8601H17.6806V81.323Z" fill="#7AC752"/>
<path d="M17.6806 77.7888H14.1434V81.3231H17.6806V77.7888Z" fill="#7AC752"/>
<path d="M17.6806 74.2512H14.1434V77.7884H17.6806V74.2512Z" fill="#7AC752"/>
<path d="M17.6806 70.717H14.1434V74.2513H17.6806V70.717Z" fill="#7AC752"/>
<path d="M17.6806 67.1802H14.1434V70.7173H17.6806V67.1802Z" fill="#8FE340"/>
<path d="M17.6806 63.6455H14.1434V67.1826H17.6806V63.6455Z" fill="#8FE340"/>
<path d="M17.6806 60.1086H14.1434V63.6429H17.6806V60.1086Z" fill="#7AC752"/>
<path d="M17.6806 56.5745H14.1434V60.1116H17.6806V56.5745Z" fill="#408AF4"/>
<path d="M17.6806 53.0369H14.1434V56.5712H17.6806V53.0369Z" fill="#408AF4"/>
<path d="M17.6806 49.5027H14.1434V53.0398H17.6806V49.5027Z" fill="#64ABFF"/>
<path d="M17.6806 45.9658H14.1434V49.5001H17.6806V45.9658Z" fill="#408AF4"/>
<path d="M17.6806 42.4316H14.1434V45.9688H17.6806V42.4316Z" fill="#64ABFF"/>
<path d="M17.6806 38.894H14.1434V42.4283H17.6806V38.894Z" fill="#64ABFF"/>
<path d="M17.6806 35.3599H14.1434V38.897H17.6806V35.3599Z" fill="#408AF4"/>
<path d="M17.6806 31.823H14.1434V35.3601H17.6806V31.823Z" fill="#7AC752"/>
<path d="M17.6806 28.2886H14.1434V31.8229H17.6806V28.2886Z" fill="#8FE340"/>
<path d="M17.6806 24.7515H14.1434V28.2886H17.6806V24.7515Z" fill="#8FE340"/>
<path d="M17.6806 21.2173H14.1434V24.7516H17.6806V21.2173Z" fill="#8FE340"/>
<path d="M17.6806 17.6804H14.1434V21.2176H17.6806V17.6804Z" fill="#8FE340"/>
<path d="M17.6806 14.1455H14.1434V17.6798H17.6806V14.1455Z" fill="#8FE340"/>
<path d="M14.1429 77.7888H10.6086V81.3231H14.1429V77.7888Z" fill="#7AC752"/>
<path d="M14.1429 74.2512H10.6086V77.7884H14.1429V74.2512Z" fill="#8FE340"/>
<path d="M14.1429 70.717H10.6086V74.2513H14.1429V70.717Z" fill="#8FE340"/>
<path d="M14.1429 67.1802H10.6086V70.7173H14.1429V67.1802Z" fill="#8FE340"/>
<path d="M14.1429 63.6455H10.6086V67.1826H14.1429V63.6455Z" fill="#8FE340"/>
<path d="M14.1429 60.1086H10.6086V63.6429H14.1429V60.1086Z" fill="#8FE340"/>
<path d="M14.1429 56.5745H10.6086V60.1116H14.1429V56.5745Z" fill="#8FE340"/>
<path d="M14.1429 53.0369H10.6086V56.5712H14.1429V53.0369Z" fill="#8FE340"/>
<path d="M14.1429 49.5027H10.6086V53.0398H14.1429V49.5027Z" fill="#64ABFF"/>
<path d="M14.1429 45.9658H10.6086V49.5001H14.1429V45.9658Z" fill="#64ABFF"/>
<path d="M14.1429 42.4316H10.6086V45.9688H14.1429V42.4316Z" fill="#64ABFF"/>
<path d="M14.1429 38.894H10.6086V42.4283H14.1429V38.894Z" fill="#64ABFF"/>
<path d="M14.1429 35.3599H10.6086V38.897H14.1429V35.3599Z" fill="#408AF4"/>
<path d="M14.1429 31.823H10.6086V35.3601H14.1429V31.823Z" fill="#7AC752"/>
<path d="M14.1429 28.2886H10.6086V31.8229H14.1429V28.2886Z" fill="#8FE340"/>
<path d="M14.1429 24.7515H10.6086V28.2886H14.1429V24.7515Z" fill="#8FE340"/>
<path d="M14.1429 21.2173H10.6086V24.7516H14.1429V21.2173Z" fill="#8FE340"/>
<path d="M14.1429 17.6804H10.6086V21.2176H14.1429V17.6804Z" fill="#8FE340"/>
<path d="M10.6089 70.717H7.07178V74.2513H10.6089V70.717Z" fill="#8FE340"/>
<path d="M10.6089 67.1802H7.07178V70.7173H10.6089V67.1802Z" fill="#8FE340"/>
<path d="M10.6089 63.6455H7.07178V67.1826H10.6089V63.6455Z" fill="#8FE340"/>
<path d="M10.6089 60.1086H7.07178V63.6429H10.6089V60.1086Z" fill="#8FE340"/>
<path d="M10.6089 56.5745H7.07178V60.1116H10.6089V56.5745Z" fill="#8FE340"/>
<path d="M10.6089 53.0369H7.07178V56.5712H10.6089V53.0369Z" fill="#8FE340"/>
<path d="M10.6089 49.5027H7.07178V53.0398H10.6089V49.5027Z" fill="#64ABFF"/>
<path d="M10.6089 45.9658H7.07178V49.5001H10.6089V45.9658Z" fill="#64ABFF"/>
<path d="M10.6089 42.4316H7.07178V45.9688H10.6089V42.4316Z" fill="#64ABFF"/>
<path d="M10.6089 38.894H7.07178V42.4283H10.6089V38.894Z" fill="#64ABFF"/>
<path d="M10.6089 35.3599H7.07178V38.897H10.6089V35.3599Z" fill="#64ABFF"/>
<path d="M10.6089 31.823H7.07178V35.3601H10.6089V31.823Z" fill="#7AC752"/>
<path d="M10.6089 28.2886H7.07178V31.8229H10.6089V28.2886Z" fill="#7AC752"/>
<path d="M10.6089 24.7515H7.07178V28.2886H10.6089V24.7515Z" fill="#7AC752"/>
<path d="M7.07424 67.1802H3.53711V70.7173H7.07424V67.1802Z" fill="#8FE340"/>
<path d="M7.07424 63.6455H3.53711V67.1826H7.07424V63.6455Z" fill="#8FE340"/>
<path d="M7.07424 60.1086H3.53711V63.6429H7.07424V60.1086Z" fill="#8FE340"/>
<path d="M7.07424 56.5745H3.53711V60.1116H7.07424V56.5745Z" fill="#8FE340"/>
<path d="M7.07424 53.0369H3.53711V56.5712H7.07424V53.0369Z" fill="#8FE340"/>
<path d="M7.07424 49.5027H3.53711V53.0398H7.07424V49.5027Z" fill="#8FE340"/>
<path d="M7.07424 45.9658H3.53711V49.5001H7.07424V45.9658Z" fill="#8FE340"/>
<path d="M7.07424 42.4316H3.53711V45.9688H7.07424V42.4316Z" fill="#64ABFF"/>
<path d="M7.07424 38.894H3.53711V42.4283H7.07424V38.894Z" fill="#64ABFF"/>
<path d="M7.07424 35.3599H3.53711V38.897H7.07424V35.3599Z" fill="#7AC752"/>
<path d="M7.07424 31.823H3.53711V35.3601H7.07424V31.823Z" fill="#7AC752"/>
<path d="M7.07424 28.2886H3.53711V31.8229H7.07424V28.2886Z" fill="#7AC752"/>
<path d="M3.53429 60.1086H0V63.6429H3.53429V60.1086Z" fill="#8FE340"/>
<path d="M3.53429 56.5745H0V60.1116H3.53429V56.5745Z" fill="#8FE340"/>
<path d="M3.53429 53.0369H0V56.5712H3.53429V53.0369Z" fill="#8FE340"/>
<path d="M3.53429 49.5027H0V53.0398H3.53429V49.5027Z" fill="#8FE340"/>
<path d="M3.53429 45.9658H0V49.5001H3.53429V45.9658Z" fill="#8FE340"/>
<path d="M3.53429 42.4316H0V45.9688H3.53429V42.4316Z" fill="#64ABFF"/>
<path d="M3.53429 38.894H0V42.4283H3.53429V38.894Z" fill="#64ABFF"/>
<path d="M3.53429 35.3599H0V38.897H3.53429V35.3599Z" fill="#7AC752"/>
<g style="mix-blend-mode:multiply">
<path d="M81.322 53.0369H77.7849V56.5712H81.322V53.0369Z" fill="#ACB8CC"/>
<path d="M81.322 49.5027H77.7849V53.0398H81.322V49.5027Z" fill="#ACB8CC"/>
<path d="M81.322 45.9658H77.7849V49.5001H81.322V45.9658Z" fill="#ACB8CC"/>
<path d="M77.7858 56.5745H74.2515V60.1116H77.7858V56.5745Z" fill="#ACB8CC"/>
<path d="M70.714 63.6455H67.1797V67.1826H70.714V63.6455Z" fill="#ACB8CC"/>
<path d="M70.714 60.1086H67.1797V63.6429H70.714V60.1086Z" fill="#ACB8CC"/>
<path d="M77.7858 53.0369H74.2515V56.5712H77.7858V53.0369Z" fill="#ACB8CC"/>
<path d="M77.7858 49.5027H74.2515V53.0398H77.7858V49.5027Z" fill="#ACB8CC"/>
<path d="M77.7858 35.3599H74.2515V38.897H77.7858V35.3599Z" fill="#ACB8CC"/>
<path d="M74.2516 60.1086H70.7145V63.6429H74.2516V60.1086Z" fill="#ACB8CC"/>
<path d="M74.2516 56.5745H70.7145V60.1116H74.2516V56.5745Z" fill="#ACB8CC"/>
<path d="M67.182 63.6455H63.6449V67.1826H67.182V63.6455Z" fill="#ACB8CC"/>
<path d="M63.6452 67.1802H60.108V70.7173H63.6452V67.1802Z" fill="#ACB8CC"/>
<path d="M70.714 70.717H67.1797V74.2513H70.714V70.717Z" fill="#ACB8CC"/>
<path d="M53.0371 74.2512H49.5028V77.7884H53.0371V74.2512Z" fill="#ACB8CC"/>
<path d="M60.1086 70.717H56.5743V74.2513H60.1086V70.717Z" fill="#ACB8CC"/>
<path d="M56.5746 70.717H53.0375V74.2513H56.5746V70.717Z" fill="#ACB8CC"/>
<path d="M53.0371 70.717H49.5028V74.2513H53.0371V70.717Z" fill="#ACB8CC"/>
<path d="M70.714 67.1802H67.1797V70.7173H70.714V67.1802Z" fill="#ACB8CC"/>
<path d="M67.182 67.1802H63.6449V70.7173H67.182V67.1802Z" fill="#ACB8CC"/>
<path d="M67.182 70.717H63.6449V74.2513H67.182V70.717Z" fill="#ACB8CC"/>
<path d="M81.322 56.5745H77.7849V60.1116H81.322V56.5745Z" fill="#ACB8CC"/>
<path d="M77.7858 63.6455H74.2515V67.1826H77.7858V63.6455Z" fill="#ACB8CC"/>
<path d="M77.7858 60.1086H74.2515V63.6429H77.7858V60.1086Z" fill="#ACB8CC"/>
<path d="M74.2516 63.6455H70.7145V67.1826H74.2516V63.6455Z" fill="#ACB8CC"/>
<path d="M49.503 74.2512H45.9658V77.7884H49.503V74.2512Z" fill="#ACB8CC"/>
<path d="M45.9656 74.2512H42.4313V77.7884H45.9656V74.2512Z" fill="#ACB8CC"/>
<path d="M42.4314 74.2512H38.8943V77.7884H42.4314V74.2512Z" fill="#ACB8CC"/>
<path d="M38.8938 74.2512H35.3595V77.7884H38.8938V74.2512Z" fill="#ACB8CC"/>
<path d="M74.2516 67.1802H70.7145V70.7173H74.2516V67.1802Z" fill="#ACB8CC"/>
<path d="M60.1086 77.7888H56.5743V81.3231H60.1086V77.7888Z" fill="#ACB8CC"/>
<path d="M63.6452 77.7888H60.108V81.3231H63.6452V77.7888Z" fill="#ACB8CC"/>
<path d="M67.182 74.2512H63.6449V77.7884H67.182V74.2512Z" fill="#ACB8CC"/>
<path d="M49.503 77.7888H45.9658V81.3231H49.503V77.7888Z" fill="#ACB8CC"/>
<path d="M45.9656 77.7888H42.4313V81.3231H45.9656V77.7888Z" fill="#ACB8CC"/>
<path d="M28.2851 70.717H24.7509V74.2513H28.2851V70.717Z" fill="#ACB8CC"/>
<path d="M35.3596 74.2512H31.8225V77.7884H35.3596V74.2512Z" fill="#ACB8CC"/>
<path d="M42.4314 77.7888H38.8943V81.3231H42.4314V77.7888Z" fill="#ACB8CC"/>
<path d="M38.8938 77.7888H35.3595V81.3231H38.8938V77.7888Z" fill="#ACB8CC"/>
<path d="M49.503 81.323H45.9658V84.8601H49.503V81.323Z" fill="#ACB8CC"/>
<path d="M10.6089 63.6455H7.07178V67.1826H10.6089V63.6455Z" fill="#ACB8CC"/>
<path d="M17.6806 67.1802H14.1434V70.7173H17.6806V67.1802Z" fill="#ACB8CC"/>
<path d="M14.1429 67.1802H10.6086V70.7173H14.1429V67.1802Z" fill="#ACB8CC"/>
<path d="M24.751 70.717H21.2139V74.2513H24.751V70.717Z" fill="#ACB8CC"/>
<path d="M21.2147 70.717H17.6804V74.2513H21.2147V70.717Z" fill="#ACB8CC"/>
<path d="M17.6806 70.717H14.1434V74.2513H17.6806V70.717Z" fill="#ACB8CC"/>
<path d="M31.8229 74.2512H28.2858V77.7884H31.8229V74.2512Z" fill="#ACB8CC"/>
<path d="M35.3596 77.7888H31.8225V81.3231H35.3596V77.7888Z" fill="#ACB8CC"/>
<path d="M60.1086 74.2512H56.5743V77.7884H60.1086V74.2512Z" fill="#ACB8CC"/>
<path d="M56.5746 74.2512H53.0375V77.7884H56.5746V74.2512Z" fill="#ACB8CC"/>
<path d="M53.0371 77.7888H49.5028V81.3231H53.0371V77.7888Z" fill="#ACB8CC"/>
<path d="M63.6452 70.717H60.108V74.2513H63.6452V70.717Z" fill="#ACB8CC"/>
<path d="M81.322 28.2886H77.7849V31.8229H81.322V28.2886Z" fill="#ACB8CC"/>
<path d="M56.5746 77.7888H53.0375V81.3231H56.5746V77.7888Z" fill="#ACB8CC"/>
<path d="M74.2516 24.7515H70.7145V28.2886H74.2516V24.7515Z" fill="#ACB8CC"/>
<path d="M74.2516 21.2173H70.7145V24.7516H74.2516V21.2173Z" fill="#ACB8CC"/>
<path d="M70.714 17.6804H67.1797V21.2176H70.714V17.6804Z" fill="#ACB8CC"/>
<path d="M63.6452 10.6089H60.108V14.146H63.6452V10.6089Z" fill="#ACB8CC"/>
<path d="M63.6452 74.2512H60.108V77.7884H63.6452V74.2512Z" fill="#ACB8CC"/>
<path d="M67.182 14.1455H63.6449V17.6798H67.182V14.1455Z" fill="#ACB8CC"/>
<path d="M84.8573 53.0369H81.323V56.5712H84.8573V53.0369Z" fill="#ACB8CC"/>
<path d="M84.8573 49.5027H81.323V53.0398H84.8573V49.5027Z" fill="#ACB8CC"/>
<path d="M84.8573 45.9658H81.323V49.5001H84.8573V45.9658Z" fill="#ACB8CC"/>
<path d="M84.8573 42.4316H81.323V45.9688H84.8573V42.4316Z" fill="#ACB8CC"/>
<path d="M81.322 42.4316H77.7849V45.9688H81.322V42.4316Z" fill="#ACB8CC"/>
<path d="M81.322 38.894H77.7849V42.4283H81.322V38.894Z" fill="#ACB8CC"/>
<path d="M81.322 35.3599H77.7849V38.897H81.322V35.3599Z" fill="#ACB8CC"/>
<path d="M81.322 31.823H77.7849V35.3601H81.322V31.823Z" fill="#ACB8CC"/>
<path d="M77.7858 31.823H74.2515V35.3601H77.7858V31.823Z" fill="#ACB8CC"/>
<path d="M77.7858 28.2886H74.2515V31.8229H77.7858V28.2886Z" fill="#ACB8CC"/>
<path d="M77.7858 24.7515H74.2515V28.2886H77.7858V24.7515Z" fill="#ACB8CC"/>
<path d="M74.2516 70.717H70.7145V74.2513H74.2516V70.717Z" fill="#ACB8CC"/>
<path d="M53.0371 81.323H49.5028V84.8601H53.0371V81.323Z" fill="#ACB8CC"/>
<path d="M56.5746 3.53687H53.0375V7.07115H56.5746V3.53687Z" fill="#ACB8CC"/>
<path d="M60.1086 81.323H56.5743V84.8601H60.1086V81.323Z" fill="#ACB8CC"/>
<path d="M56.5746 84.8599H53.0375V88.3942H56.5746V84.8599Z" fill="#ACB8CC"/>
<path d="M56.5746 81.323H53.0375V84.8601H56.5746V81.323Z" fill="#ACB8CC"/>
<path d="M53.0371 84.8599H49.5028V88.3942H53.0371V84.8599Z" fill="#ACB8CC"/>
<path d="M88.3938 53.0369H84.8567V56.5712H88.3938V53.0369Z" fill="#ACB8CC"/>
<path d="M88.3938 49.5027H84.8567V53.0398H88.3938V49.5027Z" fill="#ACB8CC"/>
<path d="M88.3938 45.9658H84.8567V49.5001H88.3938V45.9658Z" fill="#ACB8CC"/>
<path d="M88.3938 42.4316H84.8567V45.9688H88.3938V42.4316Z" fill="#ACB8CC"/>
<path d="M74.2516 17.6804H70.7145V21.2176H74.2516V17.6804Z" fill="#ACB8CC"/>
<path d="M70.714 77.7888H67.1797V81.3231H70.714V77.7888Z" fill="#ACB8CC"/>
<path d="M70.714 74.2512H67.1797V77.7884H70.714V74.2512Z" fill="#ACB8CC"/>
<path d="M70.714 14.1455H67.1797V17.6798H70.714V14.1455Z" fill="#ACB8CC"/>
<path d="M67.182 10.6089H63.6449V14.146H67.182V10.6089Z" fill="#ACB8CC"/>
<path d="M67.182 77.7888H63.6449V81.3231H67.182V77.7888Z" fill="#ACB8CC"/>
<path d="M84.8573 60.1086H81.323V63.6429H84.8573V60.1086Z" fill="#ACB8CC"/>
<path d="M84.8573 56.5745H81.323V60.1116H84.8573V56.5745Z" fill="#ACB8CC"/>
<path d="M84.8573 38.894H81.323V42.4283H84.8573V38.894Z" fill="#ACB8CC"/>
<path d="M84.8573 35.3599H81.323V38.897H84.8573V35.3599Z" fill="#ACB8CC"/>
<path d="M84.8573 31.823H81.323V35.3601H84.8573V31.823Z" fill="#ACB8CC"/>
<path d="M81.322 67.1802H77.7849V70.7173H81.322V67.1802Z" fill="#ACB8CC"/>
<path d="M81.322 63.6455H77.7849V67.1826H81.322V63.6455Z" fill="#ACB8CC"/>
<path d="M81.322 60.1086H77.7849V63.6429H81.322V60.1086Z" fill="#ACB8CC"/>
<path d="M77.7858 70.717H74.2515V74.2513H77.7858V70.717Z" fill="#ACB8CC"/>
<path d="M77.7858 67.1802H74.2515V70.7173H77.7858V67.1802Z" fill="#ACB8CC"/>
<path d="M77.7858 21.2173H74.2515V24.7516H77.7858V21.2173Z" fill="#ACB8CC"/>
<path d="M77.7858 17.6804H74.2515V21.2176H77.7858V17.6804Z" fill="#ACB8CC"/>
<path d="M74.2516 74.2512H70.7145V77.7884H74.2516V74.2512Z" fill="#ACB8CC"/>
<path d="M35.3596 81.323H31.8225V84.8601H35.3596V81.323Z" fill="#ACB8CC"/>
<path d="M49.503 84.8599H45.9658V88.3942H49.503V84.8599Z" fill="#ACB8CC"/>
<path d="M45.9656 84.8599H42.4313V88.3942H45.9656V84.8599Z" fill="#ACB8CC"/>
<path d="M45.9656 81.323H42.4313V84.8601H45.9656V81.323Z" fill="#ACB8CC"/>
<path d="M42.4314 81.323H38.8943V84.8601H42.4314V81.323Z" fill="#ACB8CC"/>
<path d="M38.8938 81.323H35.3595V84.8601H38.8938V81.323Z" fill="#ACB8CC"/>
<path d="M31.8229 77.7888H28.2858V81.3231H31.8229V77.7888Z" fill="#ACB8CC"/>
<path d="M28.2851 74.2512H24.7509V77.7884H28.2851V74.2512Z" fill="#ACB8CC"/>
<path d="M24.751 74.2512H21.2139V77.7884H24.751V74.2512Z" fill="#ACB8CC"/>
<path d="M21.2147 74.2512H17.6804V77.7884H21.2147V74.2512Z" fill="#ACB8CC"/>
<path d="M99.0023 60.1086H95.4652V63.6429H99.0023V60.1086Z" fill="#ACB8CC"/>
<path d="M99.0023 56.5745H95.4652V60.1116H99.0023V56.5745Z" fill="#ACB8CC"/>
<path d="M99.0023 53.0369H95.4652V56.5712H99.0023V53.0369Z" fill="#ACB8CC"/>
<path d="M99.0023 49.5027H95.4652V53.0398H99.0023V49.5027Z" fill="#ACB8CC"/>
<path d="M99.0023 45.9658H95.4652V49.5001H99.0023V45.9658Z" fill="#ACB8CC"/>
<path d="M99.0023 42.4316H95.4652V45.9688H99.0023V42.4316Z" fill="#ACB8CC"/>
<path d="M99.0023 38.894H95.4652V42.4283H99.0023V38.894Z" fill="#ACB8CC"/>
<path d="M99.0023 35.3599H95.4652V38.897H99.0023V35.3599Z" fill="#ACB8CC"/>
<path d="M95.4658 67.1802H91.9315V70.7173H95.4658V67.1802Z" fill="#ACB8CC"/>
<path d="M95.4658 63.6455H91.9315V67.1826H95.4658V63.6455Z" fill="#ACB8CC"/>
<path d="M95.4658 60.1086H91.9315V63.6429H95.4658V60.1086Z" fill="#ACB8CC"/>
<path d="M95.4658 56.5745H91.9315V60.1116H95.4658V56.5745Z" fill="#ACB8CC"/>
<path d="M95.4658 53.0369H91.9315V56.5712H95.4658V53.0369Z" fill="#ACB8CC"/>
<path d="M95.4658 49.5027H91.9315V53.0398H95.4658V49.5027Z" fill="#ACB8CC"/>
<path d="M95.4658 45.9658H91.9315V49.5001H95.4658V45.9658Z" fill="#ACB8CC"/>
<path d="M95.4658 42.4316H91.9315V45.9688H95.4658V42.4316Z" fill="#ACB8CC"/>
<path d="M95.4658 38.894H91.9315V42.4283H95.4658V38.894Z" fill="#ACB8CC"/>
<path d="M95.4658 35.3599H91.9315V38.897H95.4658V35.3599Z" fill="#ACB8CC"/>
<path d="M95.4658 31.823H91.9315V35.3601H95.4658V31.823Z" fill="#ACB8CC"/>
<path d="M95.4658 28.2886H91.9315V31.8229H95.4658V28.2886Z" fill="#ACB8CC"/>
<path d="M91.9318 70.717H88.3947V74.2513H91.9318V70.717Z" fill="#ACB8CC"/>
<path d="M91.9318 67.1802H88.3947V70.7173H91.9318V67.1802Z" fill="#ACB8CC"/>
<path d="M91.9318 63.6455H88.3947V67.1826H91.9318V63.6455Z" fill="#ACB8CC"/>
<path d="M91.9318 60.1086H88.3947V63.6429H91.9318V60.1086Z" fill="#ACB8CC"/>
<path d="M91.9318 56.5745H88.3947V60.1116H91.9318V56.5745Z" fill="#ACB8CC"/>
<path d="M91.9318 53.0369H88.3947V56.5712H91.9318V53.0369Z" fill="#ACB8CC"/>
<path d="M91.9318 49.5027H88.3947V53.0398H91.9318V49.5027Z" fill="#ACB8CC"/>
<path d="M91.9318 45.9658H88.3947V49.5001H91.9318V45.9658Z" fill="#ACB8CC"/>
<path d="M91.9318 42.4316H88.3947V45.9688H91.9318V42.4316Z" fill="#ACB8CC"/>
<path d="M91.9318 38.894H88.3947V42.4283H91.9318V38.894Z" fill="#ACB8CC"/>
<path d="M91.9318 35.3599H88.3947V38.897H91.9318V35.3599Z" fill="#ACB8CC"/>
<path d="M91.9318 31.823H88.3947V35.3601H91.9318V31.823Z" fill="#ACB8CC"/>
<path d="M91.9318 28.2886H88.3947V31.8229H91.9318V28.2886Z" fill="#ACB8CC"/>
<path d="M91.9318 24.7515H88.3947V28.2886H91.9318V24.7515Z" fill="#ACB8CC"/>
<path d="M88.3938 77.7888H84.8567V81.3231H88.3938V77.7888Z" fill="#ACB8CC"/>
<path d="M88.3938 74.2512H84.8567V77.7884H88.3938V74.2512Z" fill="#ACB8CC"/>
<path d="M88.3938 70.717H84.8567V74.2513H88.3938V70.717Z" fill="#ACB8CC"/>
<path d="M88.3938 67.1802H84.8567V70.7173H88.3938V67.1802Z" fill="#ACB8CC"/>
<path d="M88.3938 63.6455H84.8567V67.1826H88.3938V63.6455Z" fill="#ACB8CC"/>
<path d="M88.3938 60.1086H84.8567V63.6429H88.3938V60.1086Z" fill="#ACB8CC"/>
<path d="M88.3938 56.5745H84.8567V60.1116H88.3938V56.5745Z" fill="#ACB8CC"/>
<path d="M88.3938 38.894H84.8567V42.4283H88.3938V38.894Z" fill="#ACB8CC"/>
<path d="M88.3938 35.3599H84.8567V38.897H88.3938V35.3599Z" fill="#ACB8CC"/>
<path d="M88.3938 31.823H84.8567V35.3601H88.3938V31.823Z" fill="#ACB8CC"/>
<path d="M88.3938 28.2886H84.8567V31.8229H88.3938V28.2886Z" fill="#ACB8CC"/>
<path d="M88.3938 24.7515H84.8567V28.2886H88.3938V24.7515Z" fill="#ACB8CC"/>
<path d="M88.3938 21.2173H84.8567V24.7516H88.3938V21.2173Z" fill="#ACB8CC"/>
<path d="M88.3938 17.6804H84.8567V21.2176H88.3938V17.6804Z" fill="#ACB8CC"/>
<path d="M84.8573 81.323H81.323V84.8601H84.8573V81.323Z" fill="#ACB8CC"/>
<path d="M84.8573 77.7888H81.323V81.3231H84.8573V77.7888Z" fill="#ACB8CC"/>
<path d="M84.8573 74.2512H81.323V77.7884H84.8573V74.2512Z" fill="#ACB8CC"/>
<path d="M84.8573 70.717H81.323V74.2513H84.8573V70.717Z" fill="#ACB8CC"/>
<path d="M84.8573 67.1802H81.323V70.7173H84.8573V67.1802Z" fill="#ACB8CC"/>
<path d="M84.8573 63.6455H81.323V67.1826H84.8573V63.6455Z" fill="#ACB8CC"/>
<path d="M84.8573 28.2886H81.323V31.8229H84.8573V28.2886Z" fill="#ACB8CC"/>
<path d="M84.8573 24.7515H81.323V28.2886H84.8573V24.7515Z" fill="#ACB8CC"/>
<path d="M84.8573 21.2173H81.323V24.7516H84.8573V21.2173Z" fill="#ACB8CC"/>
<path d="M84.8573 17.6804H81.323V21.2176H84.8573V17.6804Z" fill="#ACB8CC"/>
<path d="M84.8573 14.1455H81.323V17.6798H84.8573V14.1455Z" fill="#ACB8CC"/>
<path d="M81.322 84.8599H77.7849V88.3942H81.322V84.8599Z" fill="#ACB8CC"/>
<path d="M81.322 81.323H77.7849V84.8601H81.322V81.323Z" fill="#ACB8CC"/>
<path d="M81.322 77.7888H77.7849V81.3231H81.322V77.7888Z" fill="#ACB8CC"/>
<path d="M81.322 74.2512H77.7849V77.7884H81.322V74.2512Z" fill="#ACB8CC"/>
<path d="M81.322 70.717H77.7849V74.2513H81.322V70.717Z" fill="#ACB8CC"/>
<path d="M81.322 24.7515H77.7849V28.2886H81.322V24.7515Z" fill="#ACB8CC"/>
<path d="M81.322 21.2173H77.7849V24.7516H81.322V21.2173Z" fill="#ACB8CC"/>
<path d="M81.322 17.6804H77.7849V21.2176H81.322V17.6804Z" fill="#ACB8CC"/>
<path d="M81.322 14.1455H77.7849V17.6798H81.322V14.1455Z" fill="#ACB8CC"/>
<path d="M81.322 10.6089H77.7849V14.146H81.322V10.6089Z" fill="#ACB8CC"/>
<path d="M77.7858 84.8599H74.2515V88.3942H77.7858V84.8599Z" fill="#ACB8CC"/>
<path d="M77.7858 81.323H74.2515V84.8601H77.7858V81.323Z" fill="#ACB8CC"/>
<path d="M77.7858 77.7888H74.2515V81.3231H77.7858V77.7888Z" fill="#ACB8CC"/>
<path d="M77.7858 74.2512H74.2515V77.7884H77.7858V74.2512Z" fill="#ACB8CC"/>
<path d="M77.7858 14.1455H74.2515V17.6798H77.7858V14.1455Z" fill="#ACB8CC"/>
<path d="M77.7858 10.6089H74.2515V14.146H77.7858V10.6089Z" fill="#ACB8CC"/>
<path d="M74.2516 88.394H70.7145V91.9312H74.2516V88.394Z" fill="#ACB8CC"/>
<path d="M74.2516 84.8599H70.7145V88.3942H74.2516V84.8599Z" fill="#ACB8CC"/>
<path d="M74.2516 81.323H70.7145V84.8601H74.2516V81.323Z" fill="#ACB8CC"/>
<path d="M74.2516 77.7888H70.7145V81.3231H74.2516V77.7888Z" fill="#ACB8CC"/>
<path d="M74.2516 14.1455H70.7145V17.6798H74.2516V14.1455Z" fill="#ACB8CC"/>
<path d="M74.2516 10.6089H70.7145V14.146H74.2516V10.6089Z" fill="#ACB8CC"/>
<path d="M74.2516 7.07153H70.7145V10.6087H74.2516V7.07153Z" fill="#ACB8CC"/>
<path d="M70.714 91.9314H67.1797V95.4685H70.714V91.9314Z" fill="#ACB8CC"/>
<path d="M70.714 88.394H67.1797V91.9312H70.714V88.394Z" fill="#ACB8CC"/>
<path d="M70.714 84.8599H67.1797V88.3942H70.714V84.8599Z" fill="#ACB8CC"/>
<path d="M70.714 81.323H67.1797V84.8601H70.714V81.323Z" fill="#ACB8CC"/>
<path d="M70.714 10.6089H67.1797V14.146H70.714V10.6089Z" fill="#ACB8CC"/>
<path d="M70.714 7.07153H67.1797V10.6087H70.714V7.07153Z" fill="#ACB8CC"/>
<path d="M70.714 3.53687H67.1797V7.07115H70.714V3.53687Z" fill="#ACB8CC"/>
<path d="M67.182 91.9314H63.6449V95.4685H67.182V91.9314Z" fill="#ACB8CC"/>
<path d="M67.182 88.394H63.6449V91.9312H67.182V88.394Z" fill="#ACB8CC"/>
<path d="M67.182 84.8599H63.6449V88.3942H67.182V84.8599Z" fill="#ACB8CC"/>
<path d="M67.182 81.323H63.6449V84.8601H67.182V81.323Z" fill="#ACB8CC"/>
<path d="M67.182 7.07153H63.6449V10.6087H67.182V7.07153Z" fill="#ACB8CC"/>
<path d="M67.182 3.53687H63.6449V7.07115H67.182V3.53687Z" fill="#ACB8CC"/>
<path d="M63.6452 95.4658H60.108V99.0001H63.6452V95.4658Z" fill="#ACB8CC"/>
<path d="M63.6452 91.9314H60.108V95.4685H63.6452V91.9314Z" fill="#ACB8CC"/>
<path d="M63.6452 88.394H60.108V91.9312H63.6452V88.394Z" fill="#ACB8CC"/>
<path d="M63.6452 84.8599H60.108V88.3942H63.6452V84.8599Z" fill="#ACB8CC"/>
<path d="M63.6452 81.323H60.108V84.8601H63.6452V81.323Z" fill="#ACB8CC"/>
<path d="M63.6452 7.07153H60.108V10.6087H63.6452V7.07153Z" fill="#ACB8CC"/>
<path d="M63.6452 3.53687H60.108V7.07115H63.6452V3.53687Z" fill="#ACB8CC"/>
<path d="M63.6452 0H60.108V3.53714H63.6452V0Z" fill="#ACB8CC"/>
<path d="M60.1086 95.4658H56.5743V99.0001H60.1086V95.4658Z" fill="#ACB8CC"/>
<path d="M60.1086 91.9314H56.5743V95.4685H60.1086V91.9314Z" fill="#ACB8CC"/>
<path d="M60.1086 88.394H56.5743V91.9312H60.1086V88.394Z" fill="#ACB8CC"/>
<path d="M60.1086 84.8599H56.5743V88.3942H60.1086V84.8599Z" fill="#ACB8CC"/>
<path d="M60.1086 3.53687H56.5743V7.07115H60.1086V3.53687Z" fill="#ACB8CC"/>
<path d="M60.1086 0H56.5743V3.53714H60.1086V0Z" fill="#ACB8CC"/>
<path d="M56.5746 95.4658H53.0375V99.0001H56.5746V95.4658Z" fill="#ACB8CC"/>
<path d="M56.5746 91.9314H53.0375V95.4685H56.5746V91.9314Z" fill="#ACB8CC"/>
<path d="M56.5746 88.394H53.0375V91.9312H56.5746V88.394Z" fill="#ACB8CC"/>
<path d="M56.5746 0H53.0375V3.53714H56.5746V0Z" fill="#ACB8CC"/>
<path d="M53.0371 95.4658H49.5028V99.0001H53.0371V95.4658Z" fill="#ACB8CC"/>
<path d="M53.0371 91.9314H49.5028V95.4685H53.0371V91.9314Z" fill="#ACB8CC"/>
<path d="M53.0371 88.394H49.5028V91.9312H53.0371V88.394Z" fill="#ACB8CC"/>
<path d="M53.0371 0H49.5028V3.53714H53.0371V0Z" fill="#ACB8CC"/>
<path d="M49.503 95.4658H45.9658V99.0001H49.503V95.4658Z" fill="#ACB8CC"/>
<path d="M49.503 91.9314H45.9658V95.4685H49.503V91.9314Z" fill="#ACB8CC"/>
<path d="M49.503 88.394H45.9658V91.9312H49.503V88.394Z" fill="#ACB8CC"/>
<path d="M45.9656 95.4658H42.4313V99.0001H45.9656V95.4658Z" fill="#ACB8CC"/>
<path d="M45.9656 91.9314H42.4313V95.4685H45.9656V91.9314Z" fill="#ACB8CC"/>
<path d="M45.9656 88.394H42.4313V91.9312H45.9656V88.394Z" fill="#ACB8CC"/>
<path d="M42.4314 95.4658H38.8943V99.0001H42.4314V95.4658Z" fill="#ACB8CC"/>
<path d="M42.4314 91.9314H38.8943V95.4685H42.4314V91.9314Z" fill="#ACB8CC"/>
<path d="M42.4314 88.394H38.8943V91.9312H42.4314V88.394Z" fill="#ACB8CC"/>
<path d="M42.4314 84.8599H38.8943V88.3942H42.4314V84.8599Z" fill="#ACB8CC"/>
<path d="M38.8938 95.4658H35.3595V99.0001H38.8938V95.4658Z" fill="#ACB8CC"/>
<path d="M38.8938 91.9314H35.3595V95.4685H38.8938V91.9314Z" fill="#ACB8CC"/>
<path d="M38.8938 88.394H35.3595V91.9312H38.8938V88.394Z" fill="#ACB8CC"/>
<path d="M38.8938 84.8599H35.3595V88.3942H38.8938V84.8599Z" fill="#ACB8CC"/>
<path d="M35.3596 91.9314H31.8225V95.4685H35.3596V91.9314Z" fill="#ACB8CC"/>
<path d="M35.3596 88.394H31.8225V91.9312H35.3596V88.394Z" fill="#ACB8CC"/>
<path d="M35.3596 84.8599H31.8225V88.3942H35.3596V84.8599Z" fill="#ACB8CC"/>
<path d="M31.8229 91.9314H28.2858V95.4685H31.8229V91.9314Z" fill="#ACB8CC"/>
<path d="M31.8229 88.394H28.2858V91.9312H31.8229V88.394Z" fill="#ACB8CC"/>
<path d="M31.8229 84.8599H28.2858V88.3942H31.8229V84.8599Z" fill="#ACB8CC"/>
<path d="M31.8229 81.323H28.2858V84.8601H31.8229V81.323Z" fill="#ACB8CC"/>
<path d="M28.2851 88.394H24.7509V91.9312H28.2851V88.394Z" fill="#ACB8CC"/>
<path d="M28.2851 84.8599H24.7509V88.3942H28.2851V84.8599Z" fill="#ACB8CC"/>
<path d="M28.2851 81.323H24.7509V84.8601H28.2851V81.323Z" fill="#ACB8CC"/>
<path d="M28.2851 77.7888H24.7509V81.3231H28.2851V77.7888Z" fill="#ACB8CC"/>
<path d="M24.751 84.8599H21.2139V88.3942H24.751V84.8599Z" fill="#ACB8CC"/>
<path d="M24.751 81.323H21.2139V84.8601H24.751V81.323Z" fill="#ACB8CC"/>
<path d="M24.751 77.7888H21.2139V81.3231H24.751V77.7888Z" fill="#ACB8CC"/>
<path d="M21.2147 84.8599H17.6804V88.3942H21.2147V84.8599Z" fill="#ACB8CC"/>
<path d="M21.2147 81.323H17.6804V84.8601H21.2147V81.323Z" fill="#ACB8CC"/>
<path d="M21.2147 77.7888H17.6804V81.3231H21.2147V77.7888Z" fill="#ACB8CC"/>
<path d="M17.6806 81.323H14.1434V84.8601H17.6806V81.323Z" fill="#ACB8CC"/>
<path d="M17.6806 77.7888H14.1434V81.3231H17.6806V77.7888Z" fill="#ACB8CC"/>
<path d="M17.6806 74.2512H14.1434V77.7884H17.6806V74.2512Z" fill="#ACB8CC"/>
<path d="M14.1429 77.7888H10.6086V81.3231H14.1429V77.7888Z" fill="#ACB8CC"/>
<path d="M14.1429 74.2512H10.6086V77.7884H14.1429V74.2512Z" fill="#ACB8CC"/>
<path d="M14.1429 70.717H10.6086V74.2513H14.1429V70.717Z" fill="#ACB8CC"/>
<path d="M10.6089 70.717H7.07178V74.2513H10.6089V70.717Z" fill="#ACB8CC"/>
<path d="M10.6089 67.1802H7.07178V70.7173H10.6089V67.1802Z" fill="#ACB8CC"/>
<path d="M7.07424 67.1802H3.53711V70.7173H7.07424V67.1802Z" fill="#ACB8CC"/>
<path d="M7.07424 63.6455H3.53711V67.1826H7.07424V63.6455Z" fill="#ACB8CC"/>
<path d="M3.53429 60.1086H0V63.6429H3.53429V60.1086Z" fill="#ACB8CC"/>
</g>
<path d="M99.0007 7.07153H95.4664V10.6058H99.0007V7.07153Z" fill="#91A1BC"/>
<path d="M99.0007 3.53687H95.4664V7.074H99.0007V3.53687Z" fill="#91A1BC"/>
<path d="M95.4689 10.6084H91.9318V14.1455H95.4689V10.6084Z" fill="#91A1BC"/>
<path d="M95.4689 7.07153H91.9318V10.6058H95.4689V7.07153Z" fill="#91A1BC"/>
<path d="M95.4689 3.53687H91.9318V7.074H95.4689V3.53687Z" fill="#D0D4DB"/>
<path d="M95.4689 0H91.9318V3.53429H95.4689V0Z" fill="#D0D4DB"/>
<path d="M91.9291 10.6084H88.3948V14.1455H91.9291V10.6084Z" fill="#91A1BC"/>
<path d="M91.9291 7.07153H88.3948V10.6058H91.9291V7.07153Z" fill="#D0D4DB"/>
<path d="M91.9291 3.53687H88.3948V7.074H91.9291V3.53687Z" fill="#D0D4DB"/>
<path d="M91.9291 0H88.3948V3.53429H91.9291V0Z" fill="#D0D4DB"/>
<path d="M88.3974 7.07153H84.8602V10.6058H88.3974V7.07153Z" fill="#D0D4DB"/>
<path d="M88.3974 3.53687H84.8602V7.074H88.3974V3.53687Z" fill="#D0D4DB"/>
</svg>
