<svg width="232" height="270" viewBox="0 0 232 270" fill="none" xmlns="http://www.w3.org/2000/svg">
<path d="M7.15355 128.834H14.3046V135.985H21.4557V143.139H135.893V171.745H143.044V164.594H150.197V157.443H157.348V150.29H164.499V143.139H200.262V135.985H207.413V128.834H214.567V121.683H221.72V28.7018H214.567V21.5507H207.413V14.3996H200.262V7.24609H21.4557V14.3996H14.3046V21.5507H7.15355V28.7018H0V121.683H7.15355V128.834Z" fill="black"/>
<path d="M217.407 21.4557V14.3046H210.256V7.15356H31.4501V14.3046H24.299V21.4557H17.1479V114.437H24.299V121.588H31.4501V128.739H153.038V150.197H160.192V143.044H167.343V135.893H174.494V128.739H210.256V121.588H217.407V114.437H224.561V21.4557H217.407Z" fill="white"/>
<path d="M39.4456 128.739V128.584H32.2946V121.433H25.1435V28.4518H32.2946V21.3008H39.4456V14.1497H210.256V7.15356H31.4501V14.3046H24.299V21.4557H17.1479V114.437H24.299V121.588H31.4501V128.739H39.4456Z" fill="#F2F2F2"/>
<path d="M224.561 21.4556V114.437H231.715V21.4556H224.561Z" fill="black"/>
<path d="M217.407 121.588H224.561V114.437H217.407V121.588Z" fill="black"/>
<path d="M224.561 21.4557V14.3047H217.407V21.4557H224.561Z" fill="black"/>
<path d="M210.256 128.739H217.407V121.588H210.256V128.739Z" fill="black"/>
<path d="M217.407 14.3046V7.15356H210.256V14.3046H217.407Z" fill="black"/>
<path d="M195.952 128.739H174.494V135.893H210.256V128.739H195.952Z" fill="black"/>
<path d="M167.343 143.044H174.494V135.893H167.343V143.044Z" fill="black"/>
<path d="M160.192 150.197H167.343V143.043H160.192V150.197Z" fill="black"/>
<path d="M153.038 143.044V128.739H31.45V135.893H145.887V164.499H153.038V157.348H160.191V150.197H153.038V143.044Z" fill="black"/>
<path d="M45.7546 7.15355H210.256V0H31.45V7.15355H45.7546Z" fill="black"/>
<path d="M24.2991 121.588V128.739H31.4501V121.588H24.2991Z" fill="black"/>
<path d="M31.4501 7.15356H24.2991V14.3046H31.4501V7.15356Z" fill="black"/>
<path d="M17.1479 114.437V121.588H24.299V114.437H17.1479Z" fill="black"/>
<path d="M24.299 14.3047H17.1479V21.4557H24.299V14.3047Z" fill="black"/>
<path d="M17.1479 100.132V21.4556H9.99438V114.437H17.1479V100.132Z" fill="black"/>
<g clip-path="url(#clip0_169_10052)">
<path d="M52.3334 156.154C54.3847 156.153 56.4373 156.153 58.4891 156.154C58.4891 157.179 58.4917 158.206 58.4904 159.231C56.4378 159.232 54.3851 159.232 52.3334 159.231C52.3321 158.204 52.3334 157.179 52.3334 156.154ZM98.5097 159.231C100.561 159.232 102.614 159.231 104.667 159.23C104.665 158.204 104.665 157.179 104.667 156.154C102.614 156.153 100.563 156.153 98.5097 156.154C98.5084 157.179 98.5058 158.206 98.5097 159.231ZM58.4887 174.614C56.4373 174.617 54.3868 174.614 52.3355 174.617C52.3329 175.642 52.3316 176.666 52.3308 177.693H40.0219C40.0193 176.666 40.018 175.641 40.0172 174.616C37.9658 174.614 35.9154 174.614 33.8653 174.616C33.8627 175.641 33.8615 176.665 33.8606 177.69C32.8347 177.691 31.8106 177.693 30.7847 177.695C30.7834 179.744 30.7834 181.793 30.7847 183.844C31.8106 183.845 32.8373 183.846 33.8632 183.848C33.8619 184.872 33.8619 185.897 33.8632 186.921C29.7592 186.925 25.6548 186.92 21.5509 186.924C21.5483 188.974 21.5509 191.025 21.5483 193.075C19.4957 193.078 17.4443 193.075 15.3926 193.078V196.154C21.5483 196.154 27.704 196.154 33.8606 196.152C33.8619 195.127 33.8632 194.102 33.8653 193.078C38.9952 193.074 44.1237 193.078 49.254 193.075C49.2566 191.025 49.254 188.974 49.2566 186.924C68.7531 186.923 88.2478 186.923 107.744 186.924C107.747 188.974 107.743 191.025 107.747 193.075C112.875 193.078 118.005 193.074 123.136 193.078C123.136 194.102 123.137 195.127 123.14 196.152C128.269 196.155 133.399 196.151 138.529 196.155C138.53 198.205 138.528 200.256 138.532 202.308C139.555 202.306 140.581 202.306 141.607 202.308C141.609 199.231 141.609 196.155 141.607 193.078C139.555 193.075 137.504 193.078 135.453 193.075C135.449 191.025 135.452 188.974 135.45 186.924C131.347 186.92 127.242 186.925 123.138 186.921C123.137 185.896 123.137 184.872 123.138 183.848C124.163 183.846 125.188 183.844 126.217 183.844V177.695C125.19 177.692 124.164 177.691 123.141 177.69C123.137 176.665 123.136 175.641 123.136 174.616C121.085 174.614 119.034 174.614 116.984 174.616C116.98 175.641 116.979 176.666 116.979 177.693H104.671C104.668 176.666 104.666 175.642 104.666 174.617C102.613 174.614 100.563 174.617 98.5114 174.614C98.5088 169.487 98.5127 164.358 98.5114 159.231C97.4842 159.23 96.4575 159.23 95.4342 159.232C95.4303 164.36 95.4342 169.487 95.4316 174.616H89.2759C89.2759 171.539 89.2746 168.463 89.2759 165.387C88.2487 165.386 87.2233 165.383 86.1987 165.382C86.1948 163.332 86.1987 161.281 86.1961 159.232C81.0662 159.23 75.9364 159.23 70.8066 159.232C70.8027 161.281 70.8066 163.332 70.804 165.382C69.7768 165.384 68.7514 165.386 67.7268 165.387C67.7268 168.463 67.7255 171.539 67.7268 174.616H61.571C61.5672 169.487 61.571 164.36 61.5697 159.231C60.5426 159.231 59.5158 159.228 58.4912 159.231C58.4899 164.358 58.4925 169.487 58.4899 174.614H58.4887ZM15.3921 211.538C17.4448 211.54 19.4961 211.538 21.5491 211.538C21.5504 209.487 21.5491 207.436 21.5479 205.384C19.4965 205.383 17.4448 205.383 15.3921 205.384C15.3908 207.435 15.3908 209.486 15.3921 211.538ZM135.451 211.538C137.502 211.54 139.554 211.538 141.608 211.537V205.384C139.554 205.383 137.503 205.383 135.451 205.384C135.45 207.435 135.448 209.486 135.451 211.538ZM21.5504 214.615C22.5763 214.614 23.6018 214.614 24.6277 214.615C24.6277 213.589 24.6277 212.564 24.6289 211.538C23.6018 211.537 22.575 211.534 21.5491 211.538C21.5479 212.564 21.5479 213.589 21.5504 214.615ZM132.373 214.615C133.397 214.614 134.423 214.614 135.451 214.617C135.45 213.59 135.451 212.564 135.451 211.538C134.424 211.537 133.396 211.537 132.373 211.54C132.372 212.564 132.372 213.589 132.373 214.615ZM30.7847 220.769C31.8106 220.768 32.836 220.768 33.8632 220.769V214.615H30.7847C30.7834 216.666 30.7834 218.717 30.7847 220.769ZM123.138 220.769C124.162 220.768 125.188 220.768 126.216 220.769V214.615H123.138C123.136 216.666 123.136 218.717 123.138 220.769ZM40.0202 223.845C43.0987 223.848 46.1772 223.848 49.2553 223.845C49.254 222.82 49.254 221.795 49.2553 220.771C46.1768 220.768 43.0983 220.768 40.0202 220.771V223.845ZM107.746 223.845C110.824 223.848 113.903 223.848 116.981 223.845C116.978 222.82 116.978 221.795 116.981 220.771C113.902 220.768 110.824 220.768 107.746 220.771C107.744 221.795 107.744 222.82 107.746 223.845ZM21.5496 229.998C22.5755 229.998 23.6009 229.999 24.6268 230.002C24.6268 231.027 24.6281 232.051 24.6281 233.077C26.6794 233.079 28.7312 233.076 30.7825 233.077C30.7838 232.051 30.7851 231.027 30.7872 230.003C31.8118 230 32.8373 229.998 33.8632 229.998V223.847C29.7579 223.845 25.6535 223.845 21.5496 223.847C21.5483 225.897 21.5483 227.948 21.5496 229.998V229.998ZM123.138 229.998C124.162 229.998 125.187 230 126.214 230.002C126.214 231.027 126.215 232.051 126.218 233.077C128.269 233.078 130.321 233.077 132.373 233.077C132.373 232.052 132.372 231.025 132.375 230.002C133.399 230 134.424 229.998 135.452 229.998V223.846C131.347 223.845 127.242 223.845 123.138 223.846C123.137 225.897 123.137 227.947 123.138 229.998H123.138ZM12.3132 239.23C10.2619 239.232 8.20924 239.228 6.15747 239.232V242.307C8.20881 242.309 10.2614 242.305 12.3132 242.309C12.3158 244.36 12.3132 246.41 12.3158 248.461C15.393 248.463 18.4715 248.463 21.5487 248.461C21.5513 246.41 21.5487 244.36 21.5513 242.31C22.5772 242.308 23.6013 242.307 24.6285 242.307C24.6298 239.23 24.6298 236.153 24.6285 233.077C20.5246 233.076 16.4202 233.076 12.3162 233.078C12.3136 235.127 12.3162 237.178 12.3136 239.23H12.3132ZM132.375 242.305C133.398 242.305 134.424 242.308 135.45 242.31C135.452 244.359 135.449 246.41 135.453 248.46C137.503 248.463 139.555 248.459 141.606 248.463C141.606 249.487 141.607 250.512 141.611 251.538C142.634 251.537 143.66 251.537 144.687 251.538C144.686 248.461 144.687 245.384 144.687 242.309C146.738 242.305 148.791 242.309 150.844 242.306C150.841 241.28 150.841 240.256 150.844 239.232C148.791 239.228 146.74 239.232 144.688 239.229C144.684 237.178 144.687 235.127 144.686 233.076C140.582 233.075 136.477 233.075 132.373 233.076C132.372 236.152 132.372 239.228 132.375 242.305V242.305Z" fill="#AFDA2B"/>
<path d="M40.021 156.155C44.125 156.153 48.2294 156.153 52.3333 156.155C52.332 157.181 52.3346 158.206 52.3333 159.231H40.0197C40.0184 158.206 40.0171 157.181 40.021 156.155ZM104.667 159.231H116.98C116.98 158.206 116.978 157.181 116.98 156.155C112.875 156.153 108.771 156.153 104.668 156.155C104.664 157.181 104.664 158.206 104.667 159.231ZM33.864 174.614C35.9153 174.617 37.9671 174.617 40.0197 174.616V159.231C37.9684 159.229 35.9158 159.228 33.864 159.233C33.8614 164.359 33.8614 169.486 33.864 174.614ZM52.3333 174.616C54.3847 174.617 56.4364 174.618 58.489 174.614C58.4916 169.487 58.4916 164.36 58.489 159.232C56.4377 159.228 54.3851 159.228 52.3333 159.231V174.616ZM98.5109 174.614C100.562 174.617 102.614 174.617 104.667 174.616V159.231C102.614 159.229 100.563 159.228 98.5109 159.233C98.5083 164.359 98.5083 169.486 98.5109 174.614ZM116.98 174.616C119.032 174.617 121.083 174.618 123.136 174.614C123.139 169.487 123.137 164.36 123.136 159.232C121.083 159.228 119.032 159.228 116.98 159.231V174.616ZM40.0193 177.691C44.1232 177.694 48.2276 177.694 52.3329 177.691C52.3342 176.666 52.3316 175.641 52.3329 174.616H40.0193C40.018 175.641 40.018 176.665 40.0193 177.691ZM104.666 177.691C108.77 177.694 112.875 177.694 116.98 177.691C116.981 176.666 116.977 175.641 116.98 174.616H104.666C104.665 175.641 104.664 176.665 104.666 177.691Z" fill="#FFC54F"/>
<path d="M61.5685 211.54C72.8567 211.538 84.1431 211.538 95.4313 211.54C95.43 212.564 95.43 213.589 95.4313 214.614C84.1431 214.615 72.8567 214.615 61.5685 214.614V211.54ZM67.7255 230C68.7514 230 69.7769 229.999 70.8041 230C70.8053 227.948 70.8041 225.897 70.8028 223.846C69.7769 223.845 68.7514 223.845 67.7255 223.846C67.7243 225.896 67.7243 227.948 67.7255 230ZM86.1962 230C87.222 230.001 88.2462 229.999 89.2747 230V223.846C88.2475 223.845 87.222 223.845 86.1962 223.846C86.1949 225.896 86.1949 227.948 86.1962 230ZM70.8041 233.076C72.8554 233.077 74.908 233.076 76.9611 233.078C76.9624 238.205 76.9585 243.334 76.9611 248.461C77.9869 248.46 79.0124 248.46 80.0396 248.461C80.0409 243.333 80.037 238.205 80.0396 233.078C82.0909 233.076 84.1435 233.077 86.1966 233.077C86.1966 232.05 86.1953 231.024 86.1966 230C81.0655 229.999 75.9356 230 70.8045 230C70.8032 231.025 70.8032 232.049 70.8045 233.076H70.8041ZM33.8628 239.23C35.9154 239.232 37.9668 239.23 40.0198 239.229V233.076C37.9672 233.075 35.9159 233.075 33.8641 233.076C33.8615 235.127 33.8615 237.178 33.8628 239.23ZM116.98 239.229C119.032 239.232 121.084 239.23 123.137 239.23C123.139 237.179 123.137 235.127 123.136 233.076C121.083 233.075 119.032 233.075 116.98 233.076C116.979 235.127 116.979 237.178 116.98 239.229ZM30.7843 242.307C31.8102 242.306 32.8356 242.306 33.8628 242.307V239.23C32.8369 239.229 31.8102 239.228 30.7843 239.23V242.307ZM123.137 242.307C124.162 242.306 125.187 242.306 126.216 242.307C126.215 241.281 126.215 240.256 126.216 239.23C125.189 239.229 124.162 239.228 123.137 239.23C123.136 240.256 123.135 241.279 123.137 242.307ZM49.2549 248.461C50.2808 248.46 51.3063 248.46 52.3334 248.461V242.307C51.3063 242.306 50.2808 242.306 49.2549 242.307C49.2536 244.358 49.2536 246.409 49.2549 248.461ZM104.667 248.461C105.691 248.46 106.717 248.46 107.745 248.461V242.307C106.717 242.306 105.691 242.306 104.667 242.307C104.665 244.358 104.665 246.409 104.667 248.461ZM30.7843 251.538C31.8102 251.538 32.8356 251.537 33.8628 251.538C33.8641 250.512 33.8628 249.485 33.8628 248.461C32.8356 248.46 31.8102 248.46 30.7843 248.461V251.538ZM61.5685 251.538H67.7255C67.7243 250.511 67.7243 249.485 67.7255 248.461C65.6729 248.46 63.6203 248.46 61.5685 248.461V251.538ZM89.2742 251.538H95.4313C95.43 250.511 95.43 249.485 95.4313 248.461C93.3786 248.46 91.326 248.46 89.2742 248.461C89.2729 249.485 89.2729 250.51 89.2742 251.538ZM123.137 251.538C124.163 251.538 125.187 251.537 126.215 251.538C126.213 250.511 126.213 249.485 126.215 248.461C125.188 248.46 124.162 248.46 123.137 248.461C123.136 249.487 123.134 250.51 123.137 251.538ZM33.8624 257.691C35.915 257.694 37.9664 257.692 40.0194 257.692C40.0207 255.641 40.0194 253.589 40.0194 251.54C37.9668 251.537 35.9142 251.537 33.8624 251.538C33.8611 253.589 33.8611 255.639 33.8624 257.691ZM52.333 257.692H58.49V251.538C56.4374 251.537 54.3861 251.537 52.333 251.538C52.3317 253.589 52.3317 255.64 52.333 257.692ZM70.8036 257.692H76.9606V251.538C74.908 251.537 72.8554 251.537 70.8036 251.538C70.8023 253.589 70.8023 255.64 70.8036 257.692ZM80.0387 257.692H86.1957V251.538C84.1431 251.537 82.0905 251.537 80.0387 251.538C80.0374 253.589 80.0374 255.64 80.0387 257.692ZM98.5093 257.692H104.666V251.538C102.614 251.537 100.561 251.537 98.5093 251.538C98.508 253.589 98.508 255.64 98.5093 257.692ZM116.98 257.692C119.031 257.694 121.083 257.692 123.136 257.692C123.137 255.641 123.137 253.589 123.137 251.538C121.084 251.536 119.032 251.537 116.981 251.538C116.977 253.589 116.977 255.64 116.98 257.692ZM40.019 260.768C43.0975 260.771 46.176 260.771 49.2541 260.768C49.2528 259.741 49.2528 258.716 49.2541 257.692C46.1756 257.691 43.0971 257.691 40.019 257.692C40.0177 258.718 40.0177 259.741 40.019 260.768ZM61.5681 260.769C63.6194 260.771 65.6721 260.769 67.7251 260.769C67.7264 259.743 67.7238 258.716 67.7251 257.692C65.6725 257.691 63.6199 257.691 61.5681 257.692C61.5668 258.718 61.5668 259.741 61.5681 260.769ZM89.2738 260.769H95.4308C95.4308 259.743 95.4295 258.716 95.4308 257.692C93.3782 257.691 91.3256 257.691 89.2738 257.692C89.2725 258.718 89.2712 259.741 89.2738 260.769ZM107.744 260.768C110.822 260.769 113.9 260.769 116.98 260.769C116.98 259.743 116.978 258.716 116.98 257.692C113.901 257.691 110.823 257.691 107.744 257.694C107.743 258.716 107.743 259.742 107.744 260.768ZM15.3913 266.922C18.4699 266.925 21.5484 266.925 24.6264 266.922V260.771C21.5479 260.768 18.4694 260.768 15.3913 260.771C15.3901 262.82 15.3901 264.87 15.3913 266.922ZM52.3326 266.922C55.4111 266.923 58.4896 266.923 61.5668 266.923C61.5694 264.87 61.5694 262.82 61.5681 260.769C58.4896 260.768 55.4111 260.768 52.333 260.771C52.3317 262.82 52.3317 264.87 52.333 266.922H52.3326ZM67.726 266.923C68.7506 266.922 69.776 266.922 70.8032 266.923V260.769C69.776 260.768 68.7493 260.767 67.7247 260.769C67.7234 262.82 67.7234 264.871 67.726 266.923ZM86.1953 266.923C87.2199 266.922 88.2453 266.922 89.2738 266.923C89.2751 264.872 89.2738 262.82 89.2738 260.769C88.2466 260.768 87.2199 260.767 86.1953 260.769C86.194 262.82 86.194 264.871 86.1953 266.923ZM95.4317 266.922C98.5089 266.925 101.587 266.925 104.666 266.922V260.769C101.587 260.768 98.5089 260.768 95.4308 260.769C95.4282 262.82 95.4295 264.87 95.4321 266.922H95.4317ZM132.372 266.922C135.45 266.925 138.527 266.925 141.607 266.922V260.771C138.527 260.768 135.45 260.768 132.372 260.771C132.37 262.82 132.37 264.87 132.372 266.922Z" fill="#A3BB5E"/>
<path d="M40.0198 159.23H43.0983V165.384H40.0198V159.23ZM104.667 165.384H107.745C107.744 163.333 107.744 161.283 107.745 159.23H104.667C104.665 161.282 104.665 163.332 104.667 165.384ZM52.3334 248.461C54.3847 248.46 56.4373 248.46 58.4904 248.461V242.307H52.3334V248.461ZM98.5097 248.461C100.561 248.46 102.614 248.46 104.667 248.461C104.665 246.41 104.665 244.358 104.667 242.307H98.5097C98.5084 244.358 98.5084 246.409 98.5097 248.461ZM58.49 257.692C59.5158 257.691 60.5413 257.691 61.5685 257.692V251.538C60.5413 251.537 59.5158 251.537 58.49 251.538V257.692ZM95.4312 257.692C96.4558 257.691 97.4825 257.691 98.5097 257.692C98.5084 255.64 98.5084 253.589 98.5097 251.538C97.4825 251.537 96.4558 251.537 95.4312 251.538C95.4299 253.588 95.4299 255.64 95.4312 257.692Z" fill="#89A141"/>
<path d="M40.0198 159.23H43.0983V165.384H40.0198V159.23ZM104.667 165.384H107.745C107.744 163.333 107.744 161.283 107.745 159.23H104.667C104.665 161.282 104.665 163.332 104.667 165.384Z" fill="#F6F1ED"/>
<path d="M49.2562 186.923H107.744C107.744 188.975 107.744 191.025 107.747 193.077C112.875 193.077 118.005 193.076 123.135 193.077C123.135 194.102 123.137 195.127 123.14 196.154C128.27 196.154 133.4 196.153 138.529 196.154C138.528 198.204 138.528 200.256 138.529 202.308H116.98C116.979 200.256 116.979 198.206 116.98 196.154C112.875 196.153 108.769 196.154 104.665 196.154C104.668 198.204 104.668 200.256 104.665 202.308H116.98C116.978 203.333 116.982 204.358 116.98 205.385C123.137 205.385 129.294 205.384 135.451 205.385C135.45 207.435 135.45 209.486 135.451 211.537C134.424 211.538 133.398 211.539 132.375 211.541C132.371 212.565 132.37 213.59 132.37 214.616C129.292 214.612 126.215 214.618 123.139 214.616C123.136 216.666 123.136 218.718 123.136 220.77C118.006 220.77 112.875 220.768 107.745 220.77C107.744 221.795 107.744 222.82 107.745 223.847C110.823 223.843 113.901 223.849 116.98 223.847C116.98 225.897 116.98 227.948 116.982 229.999C119.033 230.001 121.085 230.001 123.138 230.002C123.137 231.026 123.137 232.051 123.138 233.076C121.085 233.078 119.033 233.078 116.981 233.079C116.98 235.128 116.98 237.18 116.981 239.23C119.031 239.232 121.083 239.23 123.135 239.233C123.135 240.256 123.137 241.281 123.14 242.306C124.163 242.306 125.189 242.309 126.216 242.311C126.215 244.36 126.215 246.409 126.216 248.46C125.189 248.46 124.163 248.461 123.14 248.464C123.136 249.487 123.135 250.513 123.135 251.538C121.084 251.538 119.032 251.538 116.982 251.54C116.98 253.59 116.98 255.641 116.98 257.693C113.902 257.689 110.825 257.695 107.748 257.693C107.744 258.717 107.743 259.742 107.743 260.77H95.4317C95.4304 259.742 95.4304 258.717 95.4317 257.693C98.5102 257.695 101.589 257.689 104.667 257.693C104.665 255.641 104.665 253.591 104.667 251.54C102.614 251.538 100.562 251.538 98.5098 251.538C98.5085 250.511 98.5111 249.487 98.5098 248.462C101.588 248.464 104.667 248.459 107.746 248.462C107.742 246.41 107.742 244.36 107.746 242.309C104.666 242.307 101.588 242.307 98.5098 242.309C98.5111 244.359 98.5085 246.41 98.5098 248.462C95.4313 248.461 92.354 248.463 89.2755 248.462C89.2729 249.486 89.2717 250.512 89.2717 251.539C86.1944 251.535 83.1172 251.541 80.04 251.539C80.0387 253.589 80.0387 255.641 80.0374 257.693C79.0116 257.692 77.9861 257.692 76.9615 257.693C76.9602 255.641 76.9602 253.59 76.9589 251.539C73.8817 251.541 70.8045 251.535 67.7273 251.539C67.7247 250.512 67.7234 249.486 67.7225 248.462C64.644 248.463 61.5668 248.461 58.4896 248.462V242.308C55.4098 242.305 52.3313 242.307 49.2532 242.309C49.2558 244.359 49.2558 246.41 49.2532 248.462C52.3317 248.459 55.4102 248.464 58.4896 248.462C58.4883 249.486 58.4909 250.512 58.4896 251.538C56.437 251.538 54.3843 251.539 52.3326 251.54V257.693C55.4111 257.689 58.4896 257.695 61.5677 257.693C61.5664 258.717 61.5664 259.742 61.5677 260.77H49.2562C49.2536 259.742 49.2524 258.717 49.2515 257.693C46.1743 257.695 43.0971 257.689 40.0198 257.693C40.0186 255.641 40.0186 253.591 40.0173 251.54C37.9659 251.538 35.9155 251.538 33.8641 251.538C33.8615 250.512 33.8603 249.487 33.8594 248.464C32.8335 248.461 31.8081 248.46 30.7835 248.46V242.311C31.8081 242.308 32.8335 242.306 33.8594 242.306C33.8607 241.281 33.862 240.256 33.8641 239.233C35.9155 239.23 37.9672 239.232 40.0186 239.23V233.079C37.9659 233.078 35.9146 233.078 33.8615 233.076V230.002C35.9129 230.001 37.9655 230.001 40.0173 229.999C40.0186 227.948 40.0186 225.897 40.0198 223.847C43.0971 223.849 46.1756 223.843 49.2541 223.847V220.77C44.1229 220.768 38.9931 220.77 33.8633 220.77C33.862 218.718 33.862 216.666 33.8607 214.616C30.7835 214.618 27.7062 214.612 24.629 214.616C24.6264 213.59 24.6252 212.565 24.6243 211.541C23.5984 211.539 22.573 211.537 21.5484 211.537V205.385C26.6795 205.384 31.8093 205.385 36.9405 205.385V202.308C29.758 202.307 22.5743 202.309 15.3914 202.308V196.154C21.5471 196.153 27.7037 196.155 33.8594 196.154C33.8607 195.127 33.862 194.102 33.8641 193.077C38.994 193.076 44.1225 193.077 49.2528 193.077C49.2541 191.025 49.2541 188.975 49.2554 186.923H49.2562ZM52.3334 193.077C52.3322 194.102 52.3322 195.127 52.3334 196.154H101.588C101.587 195.127 101.587 194.102 101.588 193.077H52.3334ZM40.0198 196.154V202.308H52.3334C52.3347 200.256 52.3334 198.205 52.3334 196.154C48.2295 196.153 44.1238 196.154 40.0198 196.154ZM61.569 211.539C61.5677 212.564 61.5677 213.589 61.569 214.616H95.4317C95.4304 213.589 95.4304 212.564 95.4317 211.539H61.569ZM67.726 223.846C67.726 225.897 67.7247 227.948 67.726 230C68.7519 229.999 69.7773 229.999 70.8045 230C70.8019 227.949 70.8071 225.897 70.8032 223.846C69.776 223.845 68.7506 223.845 67.726 223.846ZM86.1966 223.846C86.1953 225.897 86.1953 227.948 86.1966 230C87.2225 229.998 88.2466 229.999 89.2751 230.002C89.2738 227.949 89.2738 225.897 89.2751 223.846C88.2479 223.845 87.2225 223.845 86.1966 223.846ZM70.8045 230C70.8058 231.026 70.8019 232.049 70.8045 233.076C72.8558 233.077 74.9084 233.077 76.9615 233.079C76.9615 238.206 76.9602 243.333 76.9615 248.462C77.9874 248.461 79.0128 248.461 80.04 248.462C80.04 243.333 80.0387 238.206 80.04 233.079C82.0913 233.077 84.144 233.076 86.197 233.076C86.197 232.051 86.1957 231.024 86.197 230C81.0659 229.999 75.936 230 70.8049 230H70.8045Z" fill="#D6E0B7"/>
<path d="M43.0978 159.23H52.3329V174.615H40.0193V165.384C41.0452 165.383 42.0706 165.386 43.0978 165.384C43.0991 163.333 43.0965 161.283 43.0978 159.23ZM107.745 165.384C106.718 165.386 105.692 165.383 104.666 165.384V174.615H116.98V159.23H107.745C107.743 161.282 107.745 163.332 107.745 165.384Z" fill="#171019"/>
<path d="M58.4905 156.154H61.569C61.5677 157.179 61.5677 158.206 61.569 159.231C60.5418 159.23 59.5163 159.23 58.4905 159.231V156.154ZM95.4317 159.231C96.4563 159.23 97.483 159.23 98.5102 159.231C98.5089 158.206 98.5089 157.179 98.5102 156.154H95.4317C95.4304 157.179 95.4304 158.206 95.4317 159.231ZM67.726 165.385C68.7519 165.384 69.7773 165.385 70.8045 165.386C70.8032 163.333 70.8032 161.283 70.8045 159.231H67.726C67.726 161.281 67.7247 163.333 67.726 165.385ZM86.1966 165.385H89.2751C89.2738 163.333 89.2751 161.282 89.2751 159.231H86.1966V165.385ZM61.569 174.616H67.726C67.726 171.539 67.7273 168.462 67.726 165.385C65.6733 165.386 63.6207 165.382 61.569 165.385C61.5677 168.462 61.5677 171.539 61.569 174.616ZM89.2747 174.616H95.4317V165.385H89.2747C89.2721 168.462 89.2747 171.539 89.2747 174.616ZM21.5492 186.923H33.8628C33.8615 185.897 33.8615 184.872 33.8628 183.846H21.5492V186.923ZM123.137 186.923H135.451C135.448 185.897 135.448 184.872 135.451 183.846H123.137C123.136 184.872 123.136 185.897 123.137 186.923ZM24.6277 223.846C27.7062 223.842 30.7847 223.849 33.8628 223.846C33.8602 225.897 33.8641 227.948 33.8628 230C35.9154 229.999 37.9668 230.002 40.0198 230V220.77C36.9413 220.772 33.8628 220.766 30.7856 220.77C30.7843 218.718 30.7843 216.667 30.783 214.616H24.6273C24.626 217.693 24.626 220.77 24.6273 223.846H24.6277ZM126.216 220.769C128.267 220.768 130.32 220.771 132.373 220.769C132.372 218.718 132.372 216.666 132.373 214.615H126.216C126.215 216.666 126.215 218.717 126.216 220.769ZM116.981 230H123.138C123.134 227.948 123.14 225.898 123.138 223.847C124.162 223.846 125.188 223.845 126.216 223.845C126.215 222.819 126.214 221.793 126.216 220.769C123.138 220.766 120.059 220.769 116.981 220.769C116.98 223.846 116.98 226.923 116.981 229.999L116.981 230ZM15.3926 233.077C18.4711 233.077 21.5497 233.078 24.6277 233.077C24.6252 232.052 24.6264 231.025 24.629 230.002C23.6019 230 22.5764 229.999 21.5505 229.998C21.5492 227.947 21.5492 225.897 21.5479 223.846H15.3922C15.3922 226.923 15.3909 229.999 15.3922 233.077H15.3926ZM135.45 229.999C134.423 229.999 133.398 229.999 132.373 230.001C132.373 231.027 132.37 232.05 132.373 233.077C135.45 233.078 138.529 233.076 141.608 233.077V223.846H135.452C135.45 225.897 135.45 227.947 135.45 229.999L135.45 229.999ZM30.7847 233.077C31.8106 233.074 32.8361 233.076 33.8633 233.077C33.8633 232.052 33.862 231.024 33.8633 230C32.8374 230.001 31.8106 229.999 30.7847 229.999V233.077ZM123.137 233.077C124.162 233.077 125.188 233.076 126.216 233.077C126.214 232.05 126.214 231.024 126.218 230C125.19 230 124.162 229.999 123.138 230C123.139 231.025 123.137 232.049 123.137 233.077ZM6.15712 239.231C8.20846 239.228 10.2611 239.232 12.3141 239.231V233.077H6.15712C6.15712 235.127 6.15583 237.179 6.15712 239.231ZM24.6277 242.308C26.6804 242.305 28.7317 242.309 30.7847 242.308C30.7847 239.231 30.786 236.154 30.7847 233.077C28.7321 233.077 26.6808 233.075 24.6277 233.077C24.6277 236.154 24.6264 239.231 24.6277 242.308ZM126.216 239.231C128.267 239.23 130.32 239.23 132.373 239.231C132.373 237.179 132.372 235.128 132.373 233.077C130.32 233.076 128.268 233.076 126.216 233.077C126.216 235.127 126.213 237.179 126.216 239.231ZM144.687 239.231C146.738 239.231 148.79 239.23 150.845 239.231C150.842 237.179 150.844 235.128 150.844 233.077H144.687C144.685 235.127 144.685 237.179 144.687 239.231ZM3.07861 251.537C5.12995 251.537 7.18171 251.538 9.23434 251.54C9.23434 252.563 9.23563 253.588 9.23821 254.614C10.2628 254.613 11.2874 254.614 12.3116 254.617C12.3128 255.641 12.3141 256.666 12.3154 257.691C14.3668 257.691 16.4185 257.692 18.4686 257.694C18.4699 258.718 18.4711 259.743 18.4724 260.769C19.4983 260.767 20.5225 260.767 21.5484 260.769C21.5484 259.743 21.5497 258.718 21.5522 257.694C22.5768 257.691 23.6023 257.691 24.6282 257.691V242.308C23.6023 242.309 22.5755 242.305 21.5509 242.307C21.5497 244.358 21.5497 246.409 21.5484 248.462H12.3154C12.3141 246.41 12.3141 244.359 12.3128 242.308C10.2615 242.308 8.20974 242.307 6.15841 242.308C6.15712 241.281 6.15712 240.255 6.15712 239.231C5.12995 239.232 4.1045 239.228 3.07861 239.23V251.537ZM150.842 242.307C148.79 242.307 146.738 242.308 144.688 242.309C144.685 244.358 144.685 246.41 144.685 248.462H135.452C135.45 246.409 135.45 244.359 135.45 242.308C134.423 242.307 133.397 242.307 132.372 242.308V257.692H144.685C144.685 255.641 144.685 253.589 144.687 251.538C147.765 251.541 150.843 251.535 153.922 251.538V239.231C152.894 239.231 151.868 239.23 150.844 239.231C150.842 240.256 150.84 241.28 150.842 242.307H150.842ZM67.726 257.692C68.7519 257.691 69.7773 257.69 70.8045 257.692C70.8032 255.641 70.8058 253.589 70.8045 251.538C69.7773 251.537 68.7506 251.537 67.726 251.538V257.692ZM86.1966 257.692C87.2225 257.69 88.2466 257.69 89.2751 257.694C89.2738 255.641 89.2738 253.589 89.2751 251.538C88.2479 251.537 87.2225 251.537 86.1966 251.538C86.1953 253.589 86.1966 255.64 86.1966 257.692ZM27.7028 260.766C26.6769 260.767 25.6528 260.769 24.6282 260.773C24.6307 263.847 24.6256 266.924 24.6282 270H30.7826C30.7839 268.973 30.7865 267.95 30.7852 266.926C31.8123 266.922 32.8378 266.921 33.8663 266.92C33.8615 264.871 33.8615 262.821 33.8663 260.773C32.8391 260.769 31.8136 260.767 30.789 260.766C30.7865 259.741 30.7843 258.716 30.7817 257.693C29.7571 257.692 28.7338 257.692 27.7105 257.693C27.7067 258.716 27.7058 259.741 27.7032 260.766L27.7028 260.766ZM70.8032 260.769H86.1966C86.1953 259.743 86.1953 258.717 86.1966 257.692C81.0655 257.691 75.9356 257.692 70.8045 257.692C70.8058 258.718 70.8032 259.742 70.8032 260.769ZM12.3141 266.923C13.34 266.921 14.3668 266.921 15.3926 266.923V260.769C14.3668 260.768 13.34 260.768 12.3141 260.769V266.923ZM123.138 266.923H132.373C132.372 264.872 132.372 262.82 132.373 260.769C129.294 260.768 126.215 260.768 123.138 260.769V266.923ZM141.608 266.923C142.633 266.921 143.658 266.921 144.687 266.923C144.686 264.872 144.686 262.82 144.687 260.769C143.659 260.768 142.633 260.768 141.608 260.769V266.923Z" fill="#6E891A"/>
<path d="M61.5696 156.155C63.621 156.153 65.6727 156.153 67.7241 156.155C67.7266 159.231 67.7266 162.308 67.7241 165.384C65.6727 165.386 63.621 165.386 61.5696 165.384C61.5658 162.308 61.5658 159.231 61.5696 156.155ZM89.2753 165.384C91.3267 165.386 93.3772 165.386 95.4298 165.384C95.4324 162.308 95.4324 159.231 95.4298 156.155C93.3772 156.153 91.3267 156.153 89.2753 156.155C89.2715 159.231 89.2715 162.308 89.2753 165.384ZM30.7841 177.692C31.81 177.693 32.8355 177.692 33.8626 177.692C33.8613 176.665 33.8613 175.64 33.8626 174.615H30.7841C30.7828 175.64 30.7816 176.665 30.7841 177.692ZM123.137 177.692C124.162 177.692 125.187 177.693 126.216 177.692C126.216 176.667 126.214 175.64 126.216 174.615H123.137C123.136 175.64 123.136 176.665 123.137 177.692ZM24.6284 183.845C26.6797 183.847 28.7315 183.847 30.7828 183.846C30.7854 181.794 30.7854 179.744 30.7841 177.692C28.7315 177.691 26.6802 177.691 24.6284 177.693C24.6258 179.744 24.6258 181.794 24.6284 183.845ZM126.217 183.845C128.267 183.847 130.318 183.847 132.371 183.845C132.372 181.794 132.372 179.744 132.372 177.693C130.32 177.691 128.267 177.691 126.215 177.692C126.213 179.744 126.213 181.794 126.217 183.845ZM52.3328 196.154H104.666C104.666 195.128 104.665 194.102 104.666 193.078C87.2214 193.075 69.7776 193.077 52.3328 193.077C52.3315 194.102 52.3302 195.127 52.3328 196.154ZM40.0192 202.308H52.3315C52.3341 200.256 52.3341 198.204 52.3328 196.154C48.2289 196.152 44.1245 196.152 40.0205 196.154C40.0179 198.205 40.0179 200.256 40.0192 202.308ZM104.667 202.308C108.771 202.309 112.875 202.308 116.98 202.308C116.981 200.256 116.981 198.206 116.978 196.154C112.875 196.152 108.77 196.154 104.666 196.154C104.664 198.204 104.664 200.256 104.667 202.308ZM12.3135 205.383C21.5486 205.386 30.7841 205.385 40.0192 205.385C40.0192 204.358 40.0205 203.332 40.0192 202.308C30.7841 202.308 21.5486 202.306 12.3135 202.309V205.383ZM116.98 205.383C125.19 205.386 133.398 205.386 141.608 205.383C141.605 204.358 141.605 203.333 141.609 202.308C133.398 202.306 125.19 202.308 116.981 202.308C116.979 203.333 116.978 204.357 116.981 205.383H116.98ZM21.5478 220.768C19.4951 220.769 17.4438 220.768 15.392 220.771V223.845C20.5232 223.848 25.653 223.848 30.7841 223.845C30.7828 222.82 30.7828 221.795 30.7841 220.771C28.7328 220.768 26.6802 220.769 24.6284 220.768C24.6258 218.716 24.6284 216.666 24.6258 214.615C23.5999 214.614 22.5758 214.614 21.5499 214.615C21.5473 216.666 21.5499 218.716 21.5473 220.768H21.5478ZM132.371 220.768C130.319 220.769 128.266 220.768 126.216 220.771C126.214 221.795 126.214 222.82 126.216 223.845C131.346 223.848 136.477 223.848 141.608 223.845C141.605 222.82 141.605 221.795 141.608 220.771C139.555 220.768 137.504 220.769 135.452 220.768C135.448 218.716 135.451 216.666 135.45 214.615C134.422 214.614 133.397 214.614 132.374 214.615C132.37 216.666 132.372 218.716 132.371 220.768H132.371ZM30.7846 239.231C31.8104 239.231 32.8359 239.23 33.8618 239.231C33.8644 237.179 33.8644 235.128 33.8618 233.077C32.8359 233.076 31.8104 233.076 30.7859 233.076C30.7833 235.127 30.782 237.179 30.7846 239.23V239.231ZM123.138 239.231H126.216C126.217 237.179 126.216 235.128 126.215 233.077C125.188 233.076 124.162 233.076 123.139 233.077C123.135 235.127 123.135 237.179 123.138 239.231ZM24.6293 251.537C26.6806 251.538 28.7324 251.538 30.785 251.538C30.7863 247.435 30.785 243.333 30.785 239.231C28.7324 239.228 26.681 239.228 24.6293 239.232C24.6267 243.334 24.6267 247.435 24.6293 251.538V251.537ZM126.217 251.537C128.267 251.538 130.319 251.538 132.372 251.537C132.373 247.435 132.373 243.333 132.373 239.232C130.321 239.228 128.268 239.228 126.216 239.23C126.215 243.332 126.215 247.435 126.217 251.537V251.537ZM3.07886 251.538H6.15736C6.15865 250.512 6.15865 249.485 6.15736 248.461C5.13019 248.46 4.10474 248.46 3.07886 248.461V251.538ZM150.843 251.538C151.869 251.538 152.893 251.537 153.922 251.538C153.919 250.511 153.919 249.485 153.922 248.461C152.894 248.46 151.868 248.46 150.843 248.461C150.842 249.487 150.839 250.51 150.843 251.538ZM6.15779 257.691C8.20913 257.692 10.2609 257.692 12.3122 257.691C12.3148 255.639 12.3148 253.589 12.3135 251.54C10.2609 251.536 8.20956 251.536 6.15651 251.538C6.15522 253.589 6.15522 255.639 6.15779 257.691ZM144.687 257.691C146.737 257.692 148.789 257.692 150.842 257.692C150.844 255.641 150.843 253.589 150.843 251.538C148.79 251.536 146.738 251.536 144.687 251.54C144.683 253.59 144.683 255.641 144.687 257.691ZM15.392 260.768C18.4705 260.771 21.549 260.771 24.6271 260.768V257.694C21.5486 257.69 18.4701 257.69 15.392 257.694V260.768ZM33.8626 260.768C35.914 260.769 37.9666 260.769 40.0197 260.768C40.0184 259.741 40.0184 258.716 40.0197 257.694C37.967 257.69 35.9144 257.69 33.8626 257.694V260.768ZM116.98 260.768C119.032 260.769 121.084 260.769 123.137 260.768C123.135 259.741 123.135 258.716 123.137 257.694C121.085 257.69 119.032 257.69 116.98 257.694C116.979 258.716 116.979 259.742 116.98 260.768ZM132.372 260.768C135.45 260.771 138.529 260.771 141.607 260.768C141.605 259.741 141.605 258.718 141.607 257.694C138.529 257.69 135.449 257.69 132.372 257.694C132.371 258.718 132.371 259.742 132.372 260.768ZM43.099 266.922C46.1762 266.925 49.2547 266.925 52.332 266.922C52.3345 264.87 52.3345 262.82 52.332 260.771C49.2547 260.767 46.1762 260.767 43.099 260.771C43.0964 262.82 43.0964 264.87 43.099 266.922ZM104.667 266.922C107.745 266.925 110.822 266.925 113.9 266.922C113.902 264.87 113.902 262.82 113.9 260.771C110.822 260.767 107.745 260.767 104.667 260.771C104.665 262.82 104.665 264.87 104.667 266.922Z" fill="#687E26"/>
<path d="M43.0978 159.23H52.3329V174.615H40.0193V165.384C41.0452 165.383 42.0706 165.386 43.0978 165.384C43.0991 163.333 43.0965 161.283 43.0978 159.23ZM107.745 165.384C106.718 165.386 105.692 165.383 104.666 165.384V174.615H116.98V159.23H107.745C107.743 161.282 107.745 163.332 107.745 165.384Z" fill="#171019"/>
<path d="M58.4905 156.154H61.569C61.5677 157.179 61.5677 158.206 61.569 159.231C60.5418 159.23 59.5163 159.23 58.4905 159.231V156.154ZM95.4317 159.231C96.4563 159.23 97.483 159.23 98.5102 159.231C98.5089 158.206 98.5089 157.179 98.5102 156.154H95.4317C95.4304 157.179 95.4304 158.206 95.4317 159.231ZM67.726 165.385C68.7519 165.384 69.7773 165.385 70.8045 165.386C70.8032 163.333 70.8032 161.283 70.8045 159.231H67.726C67.726 161.281 67.7247 163.333 67.726 165.385ZM86.1966 165.385H89.2751C89.2738 163.333 89.2751 161.282 89.2751 159.231H86.1966V165.385ZM61.569 174.616H67.726C67.726 171.539 67.7273 168.462 67.726 165.385C65.6733 165.386 63.6207 165.382 61.569 165.385C61.5677 168.462 61.5677 171.539 61.569 174.616ZM89.2747 174.616H95.4317V165.385H89.2747C89.2721 168.462 89.2747 171.539 89.2747 174.616ZM21.5492 186.923H33.8628C33.8615 185.897 33.8615 184.872 33.8628 183.846H21.5492V186.923ZM123.137 186.923H135.451C135.448 185.897 135.448 184.872 135.451 183.846H123.137C123.136 184.872 123.136 185.897 123.137 186.923ZM24.6277 223.846C27.7062 223.842 30.7847 223.849 33.8628 223.846C33.8602 225.897 33.8641 227.948 33.8628 230C35.9154 229.999 37.9668 230.002 40.0198 230V220.77C36.9413 220.772 33.8628 220.766 30.7856 220.77C30.7843 218.718 30.7843 216.667 30.783 214.616H24.6273C24.626 217.693 24.626 220.77 24.6273 223.846H24.6277ZM126.216 220.769C128.267 220.768 130.32 220.771 132.373 220.769C132.372 218.718 132.372 216.666 132.373 214.615H126.216C126.215 216.666 126.215 218.717 126.216 220.769ZM116.981 230H123.138C123.134 227.948 123.14 225.898 123.138 223.847C124.162 223.846 125.188 223.845 126.216 223.845C126.215 222.819 126.214 221.793 126.216 220.769C123.138 220.766 120.059 220.769 116.981 220.769C116.98 223.846 116.98 226.923 116.981 229.999L116.981 230ZM15.3926 233.077C18.4711 233.077 21.5497 233.078 24.6277 233.077C24.6252 232.052 24.6264 231.025 24.629 230.002C23.6019 230 22.5764 229.999 21.5505 229.998C21.5492 227.947 21.5492 225.897 21.5479 223.846H15.3922C15.3922 226.923 15.3909 229.999 15.3922 233.077H15.3926ZM135.45 229.999C134.423 229.999 133.398 229.999 132.373 230.001C132.373 231.027 132.37 232.05 132.373 233.077C135.45 233.078 138.529 233.076 141.608 233.077V223.846H135.452C135.45 225.897 135.45 227.947 135.45 229.999L135.45 229.999ZM30.7847 233.077C31.8106 233.074 32.8361 233.076 33.8633 233.077C33.8633 232.052 33.862 231.024 33.8633 230C32.8374 230.001 31.8106 229.999 30.7847 229.999V233.077ZM123.137 233.077C124.162 233.077 125.188 233.076 126.216 233.077C126.214 232.05 126.214 231.024 126.218 230C125.19 230 124.162 229.999 123.138 230C123.139 231.025 123.137 232.049 123.137 233.077ZM6.15712 239.231C8.20846 239.228 10.2611 239.232 12.3141 239.231V233.077H6.15712C6.15712 235.127 6.15583 237.179 6.15712 239.231ZM24.6277 242.308C26.6804 242.305 28.7317 242.309 30.7847 242.308C30.7847 239.231 30.786 236.154 30.7847 233.077C28.7321 233.077 26.6808 233.075 24.6277 233.077C24.6277 236.154 24.6264 239.231 24.6277 242.308ZM126.216 239.231C128.267 239.23 130.32 239.23 132.373 239.231C132.373 237.179 132.372 235.128 132.373 233.077C130.32 233.076 128.268 233.076 126.216 233.077C126.216 235.127 126.213 237.179 126.216 239.231ZM144.687 239.231C146.738 239.231 148.79 239.23 150.845 239.231C150.842 237.179 150.844 235.128 150.844 233.077H144.687C144.685 235.127 144.685 237.179 144.687 239.231ZM3.07861 251.537C5.12995 251.537 7.18171 251.538 9.23434 251.54C9.23434 252.563 9.23563 253.588 9.23821 254.614C10.2628 254.613 11.2874 254.614 12.3116 254.617C12.3128 255.641 12.3141 256.666 12.3154 257.691C14.3668 257.691 16.4185 257.692 18.4686 257.694C18.4699 258.718 18.4711 259.743 18.4724 260.769C19.4983 260.767 20.5225 260.767 21.5484 260.769C21.5484 259.743 21.5497 258.718 21.5522 257.694C22.5768 257.691 23.6023 257.691 24.6282 257.691V242.308C23.6023 242.309 22.5755 242.305 21.5509 242.307C21.5497 244.358 21.5497 246.409 21.5484 248.462H12.3154C12.3141 246.41 12.3141 244.359 12.3128 242.308C10.2615 242.308 8.20974 242.307 6.15841 242.308C6.15712 241.281 6.15712 240.255 6.15712 239.231C5.12995 239.232 4.1045 239.228 3.07861 239.23V251.537ZM150.842 242.307C148.79 242.307 146.738 242.308 144.688 242.309C144.685 244.358 144.685 246.41 144.685 248.462H135.452C135.45 246.409 135.45 244.359 135.45 242.308C134.423 242.307 133.397 242.307 132.372 242.308V257.692H144.685C144.685 255.641 144.685 253.589 144.687 251.538C147.765 251.541 150.843 251.535 153.922 251.538V239.231C152.894 239.231 151.868 239.23 150.844 239.231C150.842 240.256 150.84 241.28 150.842 242.307H150.842ZM67.726 257.692C68.7519 257.691 69.7773 257.69 70.8045 257.692C70.8032 255.641 70.8058 253.589 70.8045 251.538C69.7773 251.537 68.7506 251.537 67.726 251.538V257.692ZM86.1966 257.692C87.2225 257.69 88.2466 257.69 89.2751 257.694C89.2738 255.641 89.2738 253.589 89.2751 251.538C88.2479 251.537 87.2225 251.537 86.1966 251.538C86.1953 253.589 86.1966 255.64 86.1966 257.692ZM27.7028 260.766C26.6769 260.767 25.6528 260.769 24.6282 260.773C24.6307 263.847 24.6256 266.924 24.6282 270H30.7826C30.7839 268.973 30.7865 267.95 30.7852 266.926C31.8123 266.922 32.8378 266.921 33.8663 266.92C33.8615 264.871 33.8615 262.821 33.8663 260.773C32.8391 260.769 31.8136 260.767 30.789 260.766C30.7865 259.741 30.7843 258.716 30.7817 257.693C29.7571 257.692 28.7338 257.692 27.7105 257.693C27.7067 258.716 27.7058 259.741 27.7032 260.766L27.7028 260.766ZM70.8032 260.769H86.1966C86.1953 259.743 86.1953 258.717 86.1966 257.692C81.0655 257.691 75.9356 257.692 70.8045 257.692C70.8058 258.718 70.8032 259.742 70.8032 260.769ZM12.3141 266.923C13.34 266.921 14.3668 266.921 15.3926 266.923V260.769C14.3668 260.768 13.34 260.768 12.3141 260.769V266.923ZM123.138 266.923H132.373C132.372 264.872 132.372 262.82 132.373 260.769C129.294 260.768 126.215 260.768 123.138 260.769V266.923ZM141.608 266.923C142.633 266.921 143.658 266.921 144.687 266.923C144.686 264.872 144.686 262.82 144.687 260.769C143.659 260.768 142.633 260.768 141.608 260.769V266.923Z" fill="#6E891A"/>
<path d="M61.5696 156.155C63.621 156.153 65.6727 156.153 67.7241 156.155C67.7266 159.231 67.7266 162.308 67.7241 165.384C65.6727 165.386 63.621 165.386 61.5696 165.384C61.5658 162.308 61.5658 159.231 61.5696 156.155ZM89.2753 165.384C91.3267 165.386 93.3772 165.386 95.4298 165.384C95.4324 162.308 95.4324 159.231 95.4298 156.155C93.3772 156.153 91.3267 156.153 89.2753 156.155C89.2715 159.231 89.2715 162.308 89.2753 165.384ZM30.7841 177.692C31.81 177.693 32.8355 177.692 33.8626 177.692C33.8613 176.665 33.8613 175.64 33.8626 174.615H30.7841C30.7828 175.64 30.7816 176.665 30.7841 177.692ZM123.137 177.692C124.162 177.692 125.187 177.693 126.216 177.692C126.216 176.667 126.214 175.64 126.216 174.615H123.137C123.136 175.64 123.136 176.665 123.137 177.692ZM24.6284 183.845C26.6797 183.847 28.7315 183.847 30.7828 183.846C30.7854 181.794 30.7854 179.744 30.7841 177.692C28.7315 177.691 26.6802 177.691 24.6284 177.693C24.6258 179.744 24.6258 181.794 24.6284 183.845ZM126.217 183.845C128.267 183.847 130.318 183.847 132.371 183.845C132.372 181.794 132.372 179.744 132.372 177.693C130.32 177.691 128.267 177.691 126.215 177.692C126.213 179.744 126.213 181.794 126.217 183.845ZM52.3328 196.154H104.666C104.666 195.128 104.665 194.102 104.666 193.078C87.2214 193.075 69.7776 193.077 52.3328 193.077C52.3315 194.102 52.3302 195.127 52.3328 196.154ZM40.0192 202.308H52.3315C52.3341 200.256 52.3341 198.204 52.3328 196.154C48.2289 196.152 44.1245 196.152 40.0205 196.154C40.0179 198.205 40.0179 200.256 40.0192 202.308ZM104.667 202.308C108.771 202.309 112.875 202.308 116.98 202.308C116.981 200.256 116.981 198.206 116.978 196.154C112.875 196.152 108.77 196.154 104.666 196.154C104.664 198.204 104.664 200.256 104.667 202.308ZM12.3135 205.383C21.5486 205.386 30.7841 205.385 40.0192 205.385C40.0192 204.358 40.0205 203.332 40.0192 202.308C30.7841 202.308 21.5486 202.306 12.3135 202.309V205.383ZM116.98 205.383C125.19 205.386 133.398 205.386 141.608 205.383C141.605 204.358 141.605 203.333 141.609 202.308C133.398 202.306 125.19 202.308 116.981 202.308C116.979 203.333 116.978 204.357 116.981 205.383H116.98ZM21.5478 220.768C19.4951 220.769 17.4438 220.768 15.392 220.771V223.845C20.5232 223.848 25.653 223.848 30.7841 223.845C30.7828 222.82 30.7828 221.795 30.7841 220.771C28.7328 220.768 26.6802 220.769 24.6284 220.768C24.6258 218.716 24.6284 216.666 24.6258 214.615C23.5999 214.614 22.5758 214.614 21.5499 214.615C21.5473 216.666 21.5499 218.716 21.5473 220.768H21.5478ZM132.371 220.768C130.319 220.769 128.266 220.768 126.216 220.771C126.214 221.795 126.214 222.82 126.216 223.845C131.346 223.848 136.477 223.848 141.608 223.845C141.605 222.82 141.605 221.795 141.608 220.771C139.555 220.768 137.504 220.769 135.452 220.768C135.448 218.716 135.451 216.666 135.45 214.615C134.422 214.614 133.397 214.614 132.374 214.615C132.37 216.666 132.372 218.716 132.371 220.768H132.371ZM30.7846 239.231C31.8104 239.231 32.8359 239.23 33.8618 239.231C33.8644 237.179 33.8644 235.128 33.8618 233.077C32.8359 233.076 31.8104 233.076 30.7859 233.076C30.7833 235.127 30.782 237.179 30.7846 239.23V239.231ZM123.138 239.231H126.216C126.217 237.179 126.216 235.128 126.215 233.077C125.188 233.076 124.162 233.076 123.139 233.077C123.135 235.127 123.135 237.179 123.138 239.231ZM24.6293 251.537C26.6806 251.538 28.7324 251.538 30.785 251.538C30.7863 247.435 30.785 243.333 30.785 239.231C28.7324 239.228 26.681 239.228 24.6293 239.232C24.6267 243.334 24.6267 247.435 24.6293 251.538V251.537ZM126.217 251.537C128.267 251.538 130.319 251.538 132.372 251.537C132.373 247.435 132.373 243.333 132.373 239.232C130.321 239.228 128.268 239.228 126.216 239.23C126.215 243.332 126.215 247.435 126.217 251.537V251.537ZM3.07886 251.538H6.15736C6.15865 250.512 6.15865 249.485 6.15736 248.461C5.13019 248.46 4.10474 248.46 3.07886 248.461V251.538ZM150.843 251.538C151.869 251.538 152.893 251.537 153.922 251.538C153.919 250.511 153.919 249.485 153.922 248.461C152.894 248.46 151.868 248.46 150.843 248.461C150.842 249.487 150.839 250.51 150.843 251.538ZM6.15779 257.691C8.20913 257.692 10.2609 257.692 12.3122 257.691C12.3148 255.639 12.3148 253.589 12.3135 251.54C10.2609 251.536 8.20956 251.536 6.15651 251.538C6.15522 253.589 6.15522 255.639 6.15779 257.691ZM144.687 257.691C146.737 257.692 148.789 257.692 150.842 257.692C150.844 255.641 150.843 253.589 150.843 251.538C148.79 251.536 146.738 251.536 144.687 251.54C144.683 253.59 144.683 255.641 144.687 257.691ZM15.392 260.768C18.4705 260.771 21.549 260.771 24.6271 260.768V257.694C21.5486 257.69 18.4701 257.69 15.392 257.694V260.768ZM33.8626 260.768C35.914 260.769 37.9666 260.769 40.0197 260.768C40.0184 259.741 40.0184 258.716 40.0197 257.694C37.967 257.69 35.9144 257.69 33.8626 257.694V260.768ZM116.98 260.768C119.032 260.769 121.084 260.769 123.137 260.768C123.135 259.741 123.135 258.716 123.137 257.694C121.085 257.69 119.032 257.69 116.98 257.694C116.979 258.716 116.979 259.742 116.98 260.768ZM132.372 260.768C135.45 260.771 138.529 260.771 141.607 260.768C141.605 259.741 141.605 258.718 141.607 257.694C138.529 257.69 135.449 257.69 132.372 257.694C132.371 258.718 132.371 259.742 132.372 260.768ZM43.099 266.922C46.1762 266.925 49.2547 266.925 52.332 266.922C52.3345 264.87 52.3345 262.82 52.332 260.771C49.2547 260.767 46.1762 260.767 43.099 260.771C43.0964 262.82 43.0964 264.87 43.099 266.922ZM104.667 266.922C107.745 266.925 110.822 266.925 113.9 266.922C113.902 264.87 113.902 262.82 113.9 260.771C110.822 260.767 107.745 260.767 104.667 260.771C104.665 262.82 104.665 264.87 104.667 266.922Z" fill="#687E26"/>
<path d="M43.0991 150H64.6456C64.6456 151.025 64.6469 152.049 64.6482 153.074C65.6728 153.077 66.6974 153.078 67.7229 153.08C67.7242 154.105 67.7254 155.129 67.7254 156.154C58.4903 156.154 49.2548 156.155 40.0197 156.154C40.0197 155.128 40.0184 154.105 40.0223 153.08C41.0469 153.078 42.0715 153.077 43.097 153.074C43.0982 152.049 43.0982 151.025 43.0995 150H43.0991ZM92.3513 153.074C91.3255 153.077 90.3 153.078 89.2767 153.08C89.2728 154.105 89.2728 155.129 89.2741 156.154H116.98C116.98 155.128 116.979 154.105 116.977 153.08C115.95 153.078 114.926 153.077 113.903 153.074C113.9 152.049 113.899 151.025 113.9 150H92.3535C92.3509 151.025 92.3509 152.049 92.3509 153.074H92.3513ZM33.8627 159.231C35.9141 159.229 37.9658 159.229 40.0184 159.231C40.021 158.205 40.0197 157.179 40.0197 156.154C37.9671 156.156 35.9158 156.152 33.864 156.154C33.8614 157.18 33.8614 158.205 33.8627 159.231ZM67.7267 159.231H89.272C89.272 158.204 89.2758 157.179 89.2746 156.154H67.7254C67.7241 157.179 67.7242 158.205 67.7267 159.231ZM116.982 159.231C119.033 159.231 121.085 159.229 123.137 159.231C123.135 158.205 123.136 157.179 123.136 156.154C121.083 156.152 119.032 156.155 116.98 156.154C116.978 157.179 116.979 158.205 116.982 159.231ZM30.7842 174.616C31.8101 174.614 32.8355 174.614 33.8627 174.614C33.864 169.487 33.8627 164.36 33.8627 159.231C32.8355 159.231 31.8101 159.231 30.7842 159.232C30.7829 164.36 30.7842 169.487 30.7842 174.616ZM123.137 174.614C124.162 174.616 125.189 174.616 126.216 174.616C126.216 169.487 126.217 164.36 126.216 159.232C125.188 159.231 124.163 159.231 123.137 159.231C123.137 164.358 123.136 169.487 123.137 174.614ZM24.6276 177.693C26.679 177.691 28.7316 177.693 30.7834 177.693C30.7846 176.666 30.7846 175.641 30.7846 174.616C28.732 174.617 26.6807 174.616 24.6289 174.616C24.6263 175.641 24.6276 176.667 24.6276 177.693ZM70.8039 177.693H76.961V174.616H70.8039C70.8014 175.641 70.8014 176.666 70.8039 177.693ZM80.039 177.693H86.1961V174.616H80.039C80.0365 175.641 80.0365 176.666 80.039 177.693ZM126.217 177.693C128.267 177.693 130.32 177.691 132.372 177.693C132.37 176.666 132.371 175.641 132.371 174.616C130.318 174.614 128.267 174.617 126.215 174.616C126.213 175.641 126.215 176.667 126.217 177.693ZM21.5491 183.846C22.575 183.846 23.6005 183.846 24.6276 183.845C24.6276 181.795 24.6263 179.743 24.6276 177.692C23.6005 177.692 22.575 177.692 21.5491 177.693C21.5491 179.744 21.5504 181.795 21.5491 183.846ZM132.373 183.845C133.397 183.845 134.425 183.847 135.453 183.846C135.449 181.795 135.45 179.744 135.451 177.693C134.422 177.691 133.399 177.692 132.373 177.692V183.845ZM18.4667 186.919C17.4422 186.922 16.4167 186.924 15.3921 186.927C15.3908 188.977 15.3947 191.026 15.3921 193.077C17.4434 193.075 19.4961 193.077 21.5491 193.077C21.5478 190 21.5517 186.923 21.5491 183.846C20.5232 183.845 19.4978 183.846 18.4732 183.847C18.4706 184.872 18.4693 185.894 18.4672 186.919H18.4667ZM135.451 193.077C137.502 193.077 139.555 193.075 141.609 193.077C141.605 191.026 141.608 188.976 141.608 186.925C140.581 186.923 139.557 186.921 138.533 186.919C138.529 185.895 138.526 184.871 138.526 183.849C137.499 183.846 136.476 183.845 135.453 183.846C135.448 186.923 135.453 190 135.451 193.077H135.451ZM12.3136 211.537C13.3395 211.537 14.3662 211.537 15.3921 211.539V193.077C14.3649 193.077 13.3395 193.077 12.3136 193.078V211.537ZM141.607 211.539C142.631 211.537 143.659 211.537 144.686 211.537V193.078C143.657 193.076 142.633 193.077 141.609 193.077C141.606 199.231 141.607 205.385 141.607 211.539ZM15.3921 220.769C17.4434 220.768 19.4961 220.769 21.5491 220.769C21.5504 217.692 21.5504 214.615 21.5478 211.539C19.4965 211.539 17.4439 211.54 15.3921 211.539V220.769ZM135.452 220.769C137.502 220.768 139.555 220.767 141.608 220.769C141.607 217.692 141.608 214.615 141.608 211.539C139.555 211.54 137.503 211.539 135.451 211.539C135.45 214.616 135.45 217.693 135.452 220.769ZM12.3136 229.999C10.2623 229.999 8.2105 230 6.15787 230.001C6.15658 231.025 6.15658 232.05 6.15658 233.077C9.23509 233.078 12.3136 233.077 15.3917 233.076V220.769C14.3645 220.768 13.3391 220.769 12.3132 220.771C12.3157 223.846 12.3093 226.922 12.3132 229.999L12.3136 229.999ZM141.607 233.077C144.686 233.077 147.764 233.078 150.843 233.077C150.839 232.05 150.841 231.025 150.843 230.001C148.789 229.999 146.737 230 144.686 229.999C144.688 226.922 144.682 223.846 144.686 220.77C143.656 220.768 142.633 220.769 141.607 220.769C141.606 224.871 141.606 228.973 141.607 233.076L141.607 233.077ZM3.07851 239.231C4.10439 239.23 5.13113 239.231 6.15701 239.23C6.15701 237.178 6.15573 235.128 6.15701 233.077C5.13113 233.074 4.10439 233.076 3.07851 233.078C3.07722 235.128 3.0798 237.18 3.07851 239.231ZM150.843 239.23C151.866 239.23 152.894 239.231 153.921 239.231C153.919 237.179 153.921 235.129 153.921 233.078C152.892 233.074 151.869 233.076 150.843 233.077C150.843 235.127 150.842 237.178 150.843 239.23ZM0 251.538C1.02588 251.537 2.05134 251.536 3.07851 251.538V239.231C2.05134 239.228 1.02588 239.23 0 239.231V251.538ZM153.921 251.538C154.947 251.537 155.971 251.537 157 251.538V239.231C155.972 239.23 154.947 239.23 153.921 239.231C153.92 243.333 153.92 247.435 153.921 251.538ZM58.4903 251.537C59.5162 251.536 60.5417 251.537 61.5689 251.538C61.5676 250.511 61.5676 249.487 61.5676 248.461C60.5417 248.459 59.5162 248.459 58.4903 248.461C58.4891 249.486 58.4891 250.51 58.4903 251.537ZM95.4316 251.538C96.4562 251.536 97.4829 251.537 98.5101 251.537V248.461C97.4829 248.459 96.4575 248.459 95.4329 248.461C95.429 249.486 95.4316 250.512 95.4316 251.538ZM3.07851 257.691C4.10568 257.691 5.13113 257.692 6.1583 257.692C6.15572 255.641 6.15701 253.59 6.15701 251.54C5.12984 251.536 4.10439 251.537 3.07851 251.538C3.0798 253.589 3.07722 255.64 3.07851 257.691ZM24.6289 260.769C27.7061 260.767 30.7846 260.771 33.8631 260.769C33.8657 257.692 33.8619 254.615 33.8619 251.539C30.7846 251.538 27.7061 251.538 24.6289 251.54C24.6263 254.616 24.6263 257.693 24.6289 260.77V260.769ZM61.5689 257.692C63.6202 257.692 65.6728 257.69 67.7259 257.692C67.7233 255.641 67.7272 253.589 67.7259 251.538C65.6732 251.537 63.6206 251.54 61.5689 251.538C61.5701 253.589 61.5689 255.64 61.5689 257.692ZM89.2746 257.692C91.3259 257.69 93.3785 257.691 95.4316 257.692C95.4316 255.641 95.429 253.589 95.4316 251.538H89.2746C89.2733 253.589 89.2758 255.64 89.2746 257.692ZM123.137 260.769C126.216 260.771 129.293 260.768 132.372 260.769C132.372 257.692 132.372 254.615 132.371 251.54C129.293 251.537 126.215 251.537 123.137 251.54C123.138 254.615 123.134 257.692 123.137 260.769H123.137ZM150.843 257.692C151.868 257.692 152.892 257.691 153.921 257.691C153.921 255.64 153.918 253.588 153.921 251.538C152.893 251.537 151.869 251.536 150.843 251.54C150.842 253.59 150.843 255.641 150.843 257.692ZM6.15701 266.92C7.1829 266.92 8.20835 266.923 9.23423 266.926C9.23552 267.948 9.23423 268.975 9.23681 270H33.8627V266.923C26.679 266.921 19.4965 266.924 12.3123 266.923C12.3149 264.871 12.3149 262.821 12.3123 260.772C13.3382 260.769 14.3649 260.766 15.3921 260.765V257.693C12.3136 257.692 9.23509 257.691 6.15787 257.692C6.15315 260.768 6.15787 263.843 6.15658 266.92H6.15701ZM67.7254 260.769C68.7513 260.768 69.7768 260.766 70.8052 260.769C70.8039 259.741 70.8039 258.717 70.8027 257.693C69.7755 257.689 68.7513 257.692 67.7254 257.692C67.7241 258.716 67.7254 259.742 67.7254 260.769ZM86.1961 260.769C87.2219 260.768 88.2461 260.766 89.2746 260.769C89.272 259.741 89.2733 258.717 89.2746 257.692C88.2474 257.691 87.2232 257.692 86.1973 257.693C86.1948 258.716 86.1948 259.742 86.1961 260.769ZM141.609 260.765C142.634 260.766 143.659 260.769 144.688 260.772C144.684 262.821 144.683 264.871 144.688 266.923C137.504 266.924 130.321 266.921 123.137 266.923C123.136 267.948 123.135 268.972 123.137 270H147.764C147.762 268.973 147.764 267.949 147.766 266.925C148.79 266.921 149.815 266.92 150.843 266.919C150.841 263.843 150.846 260.768 150.843 257.692C147.764 257.691 144.686 257.692 141.608 257.693C141.606 258.716 141.606 259.74 141.61 260.765H141.609ZM33.8627 266.923H43.0978C43.0952 264.871 43.0991 262.819 43.0978 260.769C40.0193 260.77 36.9408 260.766 33.8627 260.769C33.8614 262.819 33.8627 264.871 33.8627 266.923ZM61.5684 266.923C63.6198 266.923 65.6724 266.921 67.7254 266.923V260.769C65.6728 260.77 63.6202 260.766 61.5684 260.769C61.5671 262.819 61.5697 264.871 61.5684 266.923ZM70.8027 266.921C69.7755 266.92 68.7513 266.923 67.7254 266.923C67.7254 267.948 67.7241 268.972 67.7254 270H73.8812C73.8825 268.973 73.8812 267.947 73.8837 266.924C76.961 266.921 80.0395 266.921 83.1167 266.923C83.1167 267.948 83.1167 268.972 83.1193 270H89.275C89.275 268.973 89.2737 267.947 89.275 266.923C88.2491 266.923 87.2211 266.92 86.1978 266.921C86.1939 264.87 86.1978 262.819 86.1965 260.769H70.8057C70.8018 262.819 70.807 264.87 70.8031 266.921H70.8027ZM89.2746 266.923C91.3259 266.921 93.3785 266.923 95.4316 266.923C95.429 264.871 95.4329 262.819 95.4316 260.769C93.379 260.767 91.3263 260.77 89.2746 260.769C89.2733 262.819 89.2746 264.871 89.2746 266.923ZM113.902 266.923H123.137C123.136 264.871 123.137 262.819 123.137 260.769C120.059 260.766 116.98 260.77 113.902 260.769C113.901 262.819 113.903 264.871 113.902 266.923ZM43.0982 270H61.5689C61.5676 268.973 61.5676 267.947 61.5689 266.923H43.0982V270ZM95.4316 270H113.902C113.901 268.973 113.9 267.947 113.902 266.923H95.4316C95.4303 267.947 95.4316 268.973 95.4316 270Z" fill="#303C0E"/>
</g>
<path d="M37 53V51H39V41H37V39H43V41H41V51H43V53H37ZM51 53V41H47V39H57V41H53V53H51ZM63 42V39H65V42H63ZM73 53V52H72V51H71V49H73V50H74V51H78V50H79V48H78V47H73V46H72V45H71V41H72V40H73V39H79V40H80V41H81V43H79V42H78V41H74V42H73V44H74V45H79V46H80V47H81V51H80V52H79V53H73ZM97 53V52H96V51H95V39H97V50H99V45H101V50H103V39H105V51H104V52H103V53H101V52H99V53H97ZM107 53V39H117V41H109V45H115V47H109V51H117V53H107ZM126 51V50H127V42H126V41H121V51H126ZM119 53V39H127V40H128V41H129V51H128V52H127V53H119ZM131 53V39H133V42H134V43H135V44H136V45H137V46H138V47H139V39H141V53H139V50H138V49H137V48H136V47H135V46H134V45H133V53H131ZM143 53V39H153V41H145V45H151V47H145V51H153V53H143ZM157 53V52H156V51H155V49H157V50H158V51H162V50H163V48H162V47H157V46H156V45H155V41H156V40H157V39H163V40H164V41H165V43H163V42H162V41H158V42H157V44H158V45H163V46H164V47H165V51H164V52H163V53H157ZM174 51V50H175V42H174V41H169V51H174ZM167 53V39H175V40H176V41H177V51H176V52H175V53H167ZM187 47V41H183V42H182V43H181V47H187ZM179 53V43H180V41H181V40H182V39H189V53H187V49H181V53H179ZM195 53V47H194V45H193V43H192V41H191V39H193V41H194V43H195V45H197V43H198V41H199V39H201V41H200V43H199V45H198V47H197V53H195ZM206 54V53H207V51H209V53H208V54H206ZM71 74V60H73V62H74V64H75V66H77V64H78V62H79V60H81V74H79V66H78V68H77V70H75V68H74V66H73V74H71ZM87 74V68H86V66H85V64H84V62H83V60H85V62H86V64H87V66H89V64H90V62H91V60H93V62H92V64H91V66H90V68H89V74H87ZM114 72V71H115V63H114V62H109V72H114ZM107 74V60H115V61H116V62H117V72H116V73H115V74H107ZM121 74V73H120V72H119V60H121V71H122V72H126V71H127V60H129V72H128V73H127V74H121ZM138 72V71H139V63H138V62H133V72H138ZM131 74V60H139V61H140V62H141V72H140V73H139V74H131ZM143 74V60H153V62H145V66H151V68H145V72H153V74H143ZM157 74V73H156V72H155V70H157V71H158V72H162V71H163V69H162V68H157V67H156V66H155V62H156V61H157V60H163V61H164V62H165V64H163V63H162V62H158V63H157V65H158V66H163V67H164V68H165V72H164V73H163V74H157ZM171 74V72H173V74H171ZM171 70V60H173V70H171ZM41 95V81H43V87H44V86H45V85H46V84H47V83H48V82H49V81H51V83H50V84H49V85H48V86H47V87H46V89H47V90H48V91H49V92H50V93H51V95H49V94H48V93H47V92H46V91H45V90H44V89H43V95H41ZM53 95V93H54V83H55V82H56V81H63V95H61V83H57V84H56V94H55V95H53ZM65 95V81H67V91H68V90H69V89H70V88H71V87H72V86H73V81H75V95H73V89H72V90H71V91H70V92H69V93H68V94H67V95H65ZM77 95V81H79V87H80V86H81V85H82V84H83V83H84V82H85V81H87V83H86V84H85V85H84V86H83V87H82V89H83V90H84V91H85V92H86V93H87V95H85V94H84V93H83V92H82V91H81V90H80V89H79V95H77ZM89 95V81H91V87H97V81H99V95H97V89H91V95H89ZM101 95V81H103V91H104V90H105V89H106V88H107V87H108V86H109V81H111V95H109V89H108V90H107V91H106V92H105V93H104V94H103V95H101ZM125 95V81H127V87H133V81H135V95H133V89H127V95H125ZM145 89V83H141V84H140V85H139V89H145ZM137 95V85H138V83H139V82H140V81H147V95H145V91H139V95H137ZM161 95V81H163V83H164V85H165V87H167V85H168V83H169V81H171V95H169V87H168V89H167V91H165V89H164V87H163V95H161ZM173 95V81H183V83H175V87H181V89H175V93H183V95H173ZM185 95V81H187V87H193V81H195V95H193V89H187V95H185ZM205 88V83H200V84H199V87H200V88H205ZM197 95V93H198V92H199V91H200V90H199V89H198V88H197V83H198V82H199V81H207V95H205V90H203V91H202V92H201V93H200V94H199V95H197Z" fill="black"/>
<defs>
<clipPath id="clip0_169_10052">
<rect width="157" height="120" fill="white" transform="translate(0 150)"/>
</clipPath>
</defs>
</svg>
