<svg width="452" height="210" viewBox="0 0 452 210" fill="none" xmlns="http://www.w3.org/2000/svg">
<path d="M25.4689 171.804H19.1017V178.171H25.4689V171.804Z" fill="#DEAEFA"/>
<path d="M572.633 120.894V127.261V133.628H566.266V139.968H559.926V146.335H553.559H547.192V152.702H540.825H534.457V159.069H528.09H521.751H515.383H509.016V165.437H502.649H496.282H489.915V159.069H483.575H477.208V152.702H470.841V146.335H464.474V139.968V133.628V127.261V120.894H470.841V114.527H477.208V108.159H483.575H489.915V114.527H496.282V120.894V127.261H489.915V133.628V139.968H496.282H502.649V133.628H509.016H515.383V127.261H521.751V120.894V114.527H528.09V108.159V101.792V95.4527H521.751V89.0855H515.383V82.7183H509.016H502.649V76.3511H496.282H489.915H483.575H477.208V69.9838H470.841V63.6166V57.2772H464.474V50.91H458.106H451.739H445.372V44.5428H439.032H432.665H426.298V50.91H419.931V57.2772H426.298H432.665H439.032V63.6166H445.372H451.739V69.9838H458.106V76.3511V82.7183H464.474V89.0855V95.4527V101.792H458.106H451.739V108.159V114.527H445.372V120.894V127.261V133.628V139.968H439.032V146.335V152.702H432.665V159.069H426.298V165.437H419.931H413.564H407.196H400.857V171.804H394.49H388.122H381.755H375.388H369.021H362.681V165.437H356.314H349.947H343.58V159.069H337.213V152.702H330.845V146.335V139.968V133.628H337.213V127.261H343.58H349.947V133.628H356.314H362.681H369.021V127.261V120.894V114.527V108.159V101.792H362.681V95.4527H356.314V89.0855H349.947H343.58V82.7183H337.213V76.3511V69.9838H330.845V63.6166V57.2772H324.506V50.91H318.139H311.771V44.5428H305.404H299.037H292.67H286.33H279.963H273.596V50.91V57.2772H279.963H286.33H292.67V63.6166H299.037H305.404V69.9838H311.771V76.3511H318.139V82.7183V89.0855H324.506V95.4527V101.792V108.159H318.139V114.527H311.771H305.404V120.894V127.261V133.628H299.037V139.968H292.67V146.335H286.33H279.963V152.702H273.596V146.335V139.968V133.628V127.261V120.894V114.527V108.159H267.229V101.792V95.4527H260.861V89.0855H254.494H248.155V82.7183H241.788V76.3511V69.9838V63.6166H248.155V57.2772V50.91H254.494V44.5428H248.155V38.1755H241.788H235.42H229.053V44.5428H222.686V50.91H216.319H209.979V44.5428H203.612H197.245H190.878H184.51H178.143H171.804H165.437V50.91H159.069V57.2772H152.702V63.6166V69.9838H159.069H165.437H171.804V63.6166H178.143H184.51H190.878H197.245V69.9838H203.612H209.979V76.3511V82.7183H203.612V89.0855H197.245V95.4527H203.612H209.979H216.319H222.686V101.792H229.053H235.42V108.159V114.527H241.788V120.894V127.261H248.155V133.628V139.968V146.335V152.702V159.069V165.437H241.788V171.804H235.42V178.143H229.053V184.51H222.686H216.319H209.979V190.878H203.612H197.245H190.878H184.51H178.143H171.804H165.437H159.069H152.702V184.51H146.335H139.968H133.628V178.143H127.261H120.894V171.804V165.437H114.527V159.069V152.702H120.894V146.335V139.968H127.261H133.628V146.335V152.702H139.968H146.335V146.335V139.968V133.628V127.261H139.968V120.894H133.628H127.261H120.894V114.527V108.159H114.527V101.792V95.4527H108.159V89.0855H101.792H95.4528H89.0856H82.7183H76.3511V95.4527H69.9839V101.792H76.3511V108.159H82.7183V114.527H89.0856V120.894V127.261V133.628V139.968H82.7183V146.335V152.702H76.3511V159.069H69.9839V165.437H63.6167V171.804H57.2773V178.143H50.91H44.5428H38.1756H31.8084H25.4412V184.51H31.8084H38.1756V190.878H44.5428H50.91H57.2773H63.6167V184.51H69.9839H76.3511V178.143H82.7183H89.0856V184.51H95.4528H101.792H108.159V190.878H114.527H120.894V197.245H127.261H133.628V203.612H139.968H146.335H152.702H159.069V209.979H165.437H171.804H178.143H184.51H190.878H197.245H203.612H209.979H216.319H222.686H229.053H235.42V203.612H241.788H248.155V197.245H254.494H260.861V190.878H267.229H273.596V184.51H279.963V178.143H286.33H292.67V171.804H299.037H305.404H311.771H318.139V178.143H324.506H330.845H337.213V184.51H343.58H349.947H356.314H362.681V190.878H369.021H375.388H381.755H388.122H394.49H400.857V184.51H407.196H413.564V178.143H419.931H426.298V171.804H432.665H439.032H445.372V165.437H451.739V171.804H458.106H464.474H470.841V178.143H477.208H483.575H489.915V184.51H496.282H502.649H509.016H515.383H521.751H528.09H534.457H540.825V178.143H547.192H553.559V171.804H559.926V165.437H566.266V159.069H572.633V152.702H579V146.335V139.968V133.628V127.261V120.894H572.633Z" fill="#DEAEFA"/>
<path d="M241.788 120.894V114.527H235.42V108.16V101.793H229.053H222.686V95.4531H216.319H209.979H203.612H197.245H190.878H184.51V101.793V108.16H190.878H197.245V114.527H203.612V120.894H209.979V127.261V133.629V139.968V146.335H203.612V152.702H197.245V159.07H190.878V165.437H184.51H178.143V171.804H171.804H165.437H159.069H152.702H146.335H139.968V165.437H133.628H127.261H120.894V171.804V178.144H127.261H133.628V184.511H139.968H146.335H152.702V190.878H159.069H165.437H171.804H178.143H184.51H190.878H197.245H203.612H209.979V184.511H216.319H222.686H229.053V178.144H235.42V171.804H241.788V165.437H248.155V159.07V152.702V146.335V139.968V133.629V127.261H241.788V120.894Z" fill="#F5C1FB"/>
<path d="M458.106 76.3512V69.984H451.739V63.6168H445.372H439.032V57.2774H432.665H426.298H419.931V50.9102H413.564H407.196H400.857H394.49V57.2774H388.122H381.755H375.388V63.6168H369.021V69.984V76.3512H375.388H381.755H388.122V69.984H394.49H400.857V76.3512H407.196H413.564V82.7185H419.931H426.298V89.0857H432.665V95.4529V101.792H439.032V108.16H432.665V114.527H426.298V120.894H419.931V127.261V133.628V139.968V146.335H413.564V152.702H407.196V159.069V165.437H413.564H419.931H426.298V159.069H432.665V152.702H439.032V146.335V139.968H445.372V133.628V127.261V120.894V114.527H451.739V108.16V101.792H458.106H464.473V95.4529V89.0857V82.7185H458.106V76.3512Z" fill="#F5C1FB"/>
<path d="M318.139 82.7185V76.3512H311.771V69.984H305.404V63.6168H299.037H292.67V57.2774H286.33H279.963H273.596V50.9102H267.229H260.861H254.494H248.155V57.2774V63.6168H254.494H260.861V69.984H267.229H273.596H279.963V76.3512H286.33V82.7185H292.67V89.0857V95.4529H299.037V101.792V108.16V114.527H305.404H311.771H318.139V108.16H324.506V101.792V95.4529V89.0857H318.139V82.7185Z" fill="#F5C1FB"/>
<path d="M572.633 108.159V101.792V95.4527V89.0855H566.266V82.7183H559.926V76.351H553.559H547.192V69.9838H540.824V63.6166H534.457H528.09H521.751H515.383H509.016H502.649H496.282V57.2772H489.914V50.91H483.575V44.5427H477.208V38.1755V31.8083H470.841V25.4411H464.473H458.106V19.0739H451.739H445.372V12.7344H439.032H432.665H426.298H419.931H413.563H407.196H400.857H394.49H388.122V19.0739H381.755H375.388V25.4411H369.021H362.681V31.8083H356.314V38.1755H349.947H343.58H337.212V31.8083H330.845H324.506V25.4411H318.139H311.771V19.0739H305.404H299.037V12.7344H292.67H286.33H279.963V19.0739H273.596H267.229H260.861H254.494H248.155H241.788H235.42V12.7344H229.053H222.686H216.319V6.36722H209.979H203.612H197.245H190.878V0H184.51H178.143H171.804H165.437V6.36722H159.069H152.702H146.335H139.968V12.7344H133.628H127.261V19.0739H120.894V25.4411H114.527V31.8083H108.159V38.1755V44.5427H101.792V50.91V57.2772H95.4527V63.6166H89.0855V69.9838H82.7183H76.351H69.9838H63.6166V76.351H57.2772H50.91H44.5427V82.7183H38.1755H31.8083V89.0855H25.4411V95.4527V101.792H19.1017V108.159H12.7344V114.527V120.894H6.36722V127.261V133.628H0V139.968V146.335V152.702V159.069H6.36722V165.437V171.804H12.7344V178.143H19.1017V171.804V165.437H12.7344V159.069V152.702H19.1017V146.335V139.968V133.628H25.4411V127.261V120.894H31.8083V114.527H38.1755V108.159H44.5427V101.792H50.91H57.2772H63.6166H69.9838V95.4527H76.351V89.0855H82.7183H89.0855H95.4527H101.792H108.159H114.527H120.894V95.4527H127.261H133.628V101.792H139.968H146.335V95.4527V89.0855H139.968V82.7183V76.351H133.628V69.9838H127.261H120.894H114.527V63.6166V57.2772H120.894V50.91V44.5427H127.261V38.1755H133.628H139.968V31.8083H146.335H152.702V25.4411H159.069H165.437H171.804V19.0739H178.143V25.4411H184.51H190.878H197.245H203.612V31.8083H209.979H216.319H222.686H229.053H235.42H241.788H248.155H254.494V25.4411H260.861H267.229H273.596H279.963V31.8083H286.33H292.67H299.037H305.404H311.771V38.1755H318.139H324.506V44.5427H330.845H337.212V50.91H343.58H349.947H356.314H362.681H369.021H375.388H381.755H388.122V44.5427H394.49H400.857V38.1755H407.196H413.563H419.931V31.8083H426.298H432.665V38.1755H439.032H445.372H451.739V44.5427H458.106V50.91H464.473V57.2772H470.841V63.6166H477.208V69.9838H483.575V76.351H489.914H496.282H502.649H509.016H515.383H521.751V82.7183H528.09H534.457V89.0855H540.824H547.192V95.4527H553.559V101.792H559.926H566.266V108.159V114.527H572.633V120.894H579V114.527V108.159H572.633Z" fill="#F5C1FB"/>
<path d="M451.739 38.1759H445.372H439.032H432.665V31.8087H426.298H419.931V38.1759H413.563H407.196H400.857V44.5431H394.489H388.122V50.9103H381.755H375.388H369.021H362.681H356.314H349.947H343.579H337.212V44.5431H330.845H324.506V38.1759H318.138H311.771V31.8087H305.404H299.037H292.67H286.33H279.963V25.4414H273.596H267.228H260.861H254.494V31.8087H248.155H241.787H235.42H229.053H222.686H216.319H209.979H203.612V25.4414H197.245H190.877H184.51H178.143V19.0742H171.804V25.4414H165.436H159.069H152.702V31.8087H146.335H139.967V38.1759H133.628H127.261V44.5431H120.894V50.9103V57.2775H114.526V63.617V69.9842H120.894H127.261H133.628V76.3514H139.967V82.7186V89.0858H146.335V95.4531V101.792H139.967H133.628V95.4531H127.261H120.894V89.0858H114.526H108.159V95.4531H114.526V101.792V108.16H120.894V114.527V120.894H127.261H133.628H139.967V127.261H146.335V133.629V139.968V146.335V152.702H139.967H133.628V146.335V139.968H127.261H120.894V146.335V152.702H114.526V159.07V165.437H120.894H127.261H133.628H139.967V171.804H146.335H152.702H159.069H165.436H171.804H178.143V165.437H184.51H190.877V159.07H197.245V152.702H203.612V146.335H209.979V139.968V133.629V127.261V120.894H203.612V114.527H197.245V108.16H190.877H184.51V101.792V95.4531H190.877H197.245V89.0858H203.612V82.7186H209.979V76.3514V69.9842H203.612H197.245V63.617H190.877H184.51H178.143H171.804V69.9842H165.436H159.069H152.702V63.617V57.2775H159.069V50.9103H165.436V44.5431H171.804H178.143H184.51H190.877H197.245H203.612H209.979V50.9103H216.319H222.686V44.5431H229.053V38.1759H235.42H241.787H248.155V44.5431H254.494V50.9103H260.861H267.228H273.596V44.5431H279.963H286.33H292.67H299.037H305.404H311.771V50.9103H318.138H324.506V57.2775H330.845V63.617V69.9842H337.212V76.3514V82.7186H343.579V89.0858H349.947H356.314V95.4531H362.681V101.792H369.021V108.16V114.527V120.894V127.261V133.629H362.681H356.314H349.947V127.261H343.579H337.212V133.629H330.845V139.968V146.335V152.702H337.212V159.07H343.579V165.437H349.947H356.314H362.681V171.804H369.021H375.388H381.755H388.122H394.489H400.857V165.437H407.196V159.07V152.702H413.563V146.335H419.931V139.968V133.629V127.261V120.894H426.298V114.527H432.665V108.16H439.032V101.792H432.665V95.4531V89.0858H426.298V82.7186H419.931H413.563V76.3514H407.196H400.857V69.9842H394.489H388.122V76.3514H381.755H375.388H369.021V69.9842V63.617H375.388V57.2775H381.755H388.122H394.489V50.9103H400.857H407.196H413.563H419.931H426.298V44.5431H432.665H439.032H445.372V50.9103H451.739H458.106V44.5431H451.739V38.1759Z" fill="white"/>
<path d="M299.037 108.16V101.792V95.4531H292.67V89.0858V82.7186H286.33V76.3514H279.963V69.9842H273.596H267.228H260.861V63.6169H254.494H248.155H241.787V69.9842V76.3514V82.7186H248.155V89.0858H254.494H260.861V95.4531H267.228V101.792V108.16H273.596V114.527V120.894V127.261V133.629V139.968V146.335V152.702H279.963V146.335H286.33H292.67V139.968H299.037V133.629H305.404V127.261V120.894V114.527H299.037V108.16Z" fill="white"/>
<path d="M82.7182 108.16H76.351V101.792H69.9837H63.6165H57.2771H50.9099H44.5427V108.16H38.1755V114.527H31.8082V120.894H25.441V127.261V133.629H19.1016V139.968V146.335V152.702H12.7344V159.07V165.437H19.1016V171.804H25.441V178.144H31.8082H38.1755H44.5427H50.9099H57.2771V171.804H63.6165V165.437H69.9837V159.07H76.351V152.702H82.7182V146.335V139.968H89.0854V133.629V127.261V120.894V114.527H82.7182V108.16Z" fill="white"/>
</svg>
