<svg width="111" height="33" viewBox="0 0 111 33" fill="none" xmlns="http://www.w3.org/2000/svg">
<path d="M91.6841 4.00805e-07L96.2688 0L96.2688 4.58223L91.6841 4.58223L91.6841 4.00805e-07Z" fill="#6A2916"/>
<path d="M87.0994 4.00807e-07L91.6841 0L91.6841 4.58223L87.0994 4.58223L87.0994 4.00807e-07Z" fill="#EC5305"/>
<path d="M82.5147 4.00807e-07L87.0994 0L87.0994 4.58223L82.5147 4.58223L82.5147 4.00807e-07Z" fill="#BA3F0C"/>
<path d="M77.9324 4.00807e-07L82.5171 0L82.5171 4.58223L77.9324 4.58223L77.9324 4.00807e-07Z" fill="#EC5305"/>
<path d="M73.3477 4.00807e-07L77.9324 0L77.9324 4.58223L73.3477 4.58223L73.3477 4.00807e-07Z" fill="#FF6A05"/>
<path d="M68.763 4.00807e-07L73.3477 0L73.3477 4.58223L68.763 4.58223L68.763 4.00807e-07Z" fill="#EC5305"/>
<path d="M64.1807 4.0059e-07L68.7629 0L68.7629 4.58223L64.1807 4.58223L64.1807 4.0059e-07Z" fill="#BA3F0C"/>
<path d="M59.5961 4.00807e-07L64.1808 0L64.1808 4.58223L59.5961 4.58223L59.5961 4.00807e-07Z" fill="#6A2916"/>
<path d="M96.2687 4.58228L100.853 4.58228L100.853 9.16697L96.2687 9.16697L96.2687 4.58228Z" fill="#EC5305"/>
<path d="M91.6841 4.58228L96.2688 4.58228L96.2688 9.16697L91.6841 9.16697L91.6841 4.58228Z" fill="#FF6A05"/>
<path d="M87.0994 4.58228L91.6841 4.58228L91.6841 9.16697L87.0994 9.16697L87.0994 4.58228Z" fill="#FF8005"/>
<path d="M82.5147 4.58228L87.0994 4.58228L87.0994 9.16697L82.5147 9.16697L82.5147 4.58228Z" fill="#FF8005"/>
<path d="M73.3477 4.58228L77.9324 4.58228L77.9324 9.16697L73.3477 9.16697L73.3477 4.58228Z" fill="#FF8005"/>
<path d="M77.9324 4.58228L82.5171 4.58228L82.5171 9.16697L77.9324 9.16697L77.9324 4.58228Z" fill="#FF6A05"/>
<path d="M64.1807 4.58228L68.7629 4.58228L68.7629 9.16697L64.1807 9.16697L64.1807 4.58228Z" fill="#EC5305"/>
<path d="M68.763 4.58228L73.3477 4.58228L73.3477 9.16697L68.763 9.16697L68.763 4.58228Z" fill="#BA3F0C"/>
<path d="M59.5961 4.58228L64.1808 4.58228L64.1808 9.16697L59.5961 9.16697L59.5961 4.58228Z" fill="#6A2916"/>
<path d="M55.0115 4.58228L59.5938 4.58228L59.5938 9.16697L55.0115 9.16697L55.0115 4.58228Z" fill="#2F1A27"/>
<path d="M50.4267 4.58228L55.0114 4.58228L55.0114 9.16697L50.4267 9.16697L50.4267 4.58228Z" fill="#2F1A27"/>
<path d="M100.853 9.16699L105.436 9.16699L105.436 13.7492L100.853 13.7492L100.853 9.16699Z" fill="#EC5305"/>
<path d="M96.2687 9.16699L100.853 9.16699L100.853 13.7492L96.2687 13.7492L96.2687 9.16699Z" fill="#FFB945"/>
<path d="M91.6841 9.16699L96.2688 9.16699L96.2688 13.7492L91.6841 13.7492L91.6841 9.16699Z" fill="#FFEDAC"/>
<path d="M87.0994 9.16699L91.6841 9.16699L91.6841 13.7492L87.0994 13.7492L87.0994 9.16699Z" fill="#FFEDAC"/>
<path d="M82.5147 9.16699L87.0994 9.16699L87.0994 13.7492L82.5147 13.7492L82.5147 9.16699Z" fill="#FFEDAC"/>
<path d="M77.9324 9.16699L82.5171 9.16699L82.5171 13.7492L77.9324 13.7492L77.9324 9.16699Z" fill="#FFEDAC"/>
<path d="M73.3477 9.16699L77.9324 9.16699L77.9324 13.7492L73.3477 13.7492L73.3477 9.16699Z" fill="#FFD17D"/>
<path d="M68.763 9.16699L73.3477 9.16699L73.3477 13.7492L68.763 13.7492L68.763 9.16699Z" fill="#FFD17D"/>
<path d="M64.1807 9.16699L68.7629 9.16699L68.7629 13.7492L64.1807 13.7492L64.1807 9.16699Z" fill="#FFB945"/>
<path d="M59.5961 9.16699L64.1808 9.16699L64.1808 13.7492L59.5961 13.7492L59.5961 9.16699Z" fill="#FFA31C"/>
<path d="M55.0115 9.16699L59.5938 9.16699L59.5938 13.7492L55.0115 13.7492L55.0115 9.16699Z" fill="#FFA31C"/>
<path d="M50.4267 9.16699L55.0114 9.16699L55.0114 13.7492L50.4267 13.7492L50.4267 9.16699Z" fill="#FF6A05"/>
<path d="M45.8421 9.16699L50.4243 9.16699L50.4243 13.7492L45.8421 13.7492L45.8421 9.16699Z" fill="#EC5305"/>
<path d="M41.2572 9.16699L45.8419 9.16699L45.8419 13.7492L41.2572 13.7492L41.2572 9.16699Z" fill="#6A2916"/>
<path d="M36.6727 9.16699L41.2574 9.16699L41.2574 13.7492L36.6727 13.7492L36.6727 9.16699Z" fill="#441B1E"/>
<path d="M32.0878 9.16699L36.6725 9.16699L36.6725 13.7492L32.0878 13.7492L32.0878 9.16699Z" fill="#181635"/>
<path d="M105.436 13.7517L110.02 13.7517L110.02 18.3364L105.436 18.3364L105.436 13.7517Z" fill="#EC5305"/>
<path d="M100.853 13.7517L105.436 13.7517L105.436 18.3364L100.853 18.3364L100.853 13.7517Z" fill="#FF8005"/>
<path d="M96.2687 13.7517L100.853 13.7517L100.853 18.3364L96.2687 18.3364L96.2687 13.7517Z" fill="#FFEDAC"/>
<path d="M91.6841 13.7517L96.2688 13.7517L96.2688 18.3364L91.6841 18.3364L91.6841 13.7517Z" fill="#FFEDAC"/>
<path d="M87.0994 13.7517L91.6841 13.7517L91.6841 18.3364L87.0994 18.3364L87.0994 13.7517Z" fill="#FFEDAC"/>
<path d="M82.5147 13.7517L87.0994 13.7517L87.0994 18.3364L82.5147 18.3364L82.5147 13.7517Z" fill="#FFEDAC"/>
<path d="M77.9324 13.7517L82.5171 13.7517L82.5171 18.3364L77.9324 18.3364L77.9324 13.7517Z" fill="#FFEDAC"/>
<path d="M73.3477 13.7517L77.9324 13.7517L77.9324 18.3364L73.3477 18.3364L73.3477 13.7517Z" fill="#FFD17D"/>
<path d="M68.763 13.7517L73.3477 13.7517L73.3477 18.3364L68.763 18.3364L68.763 13.7517Z" fill="#FFD17D"/>
<path d="M64.1807 13.7517L68.7629 13.7517L68.7629 18.3364L64.1807 18.3364L64.1807 13.7517Z" fill="#FFB945"/>
<path d="M59.5961 13.7517L64.1808 13.7517L64.1808 18.3364L59.5961 18.3364L59.5961 13.7517Z" fill="#FFA31C"/>
<path d="M55.0115 13.7517L59.5938 13.7517L59.5938 18.3364L55.0115 18.3364L55.0115 13.7517Z" fill="#FFA31C"/>
<path d="M50.4267 13.7517L55.0114 13.7517L55.0114 18.3364L50.4267 18.3364L50.4267 13.7517Z" fill="#FF8005"/>
<path d="M45.8421 13.7517L50.4243 13.7517L50.4243 18.3364L45.8421 18.3364L45.8421 13.7517Z" fill="#FF8005"/>
<path d="M41.2572 13.7517L45.8419 13.7517L45.8419 18.3364L41.2572 18.3364L41.2572 13.7517Z" fill="#FF8005"/>
<path d="M36.6727 13.7517L41.2574 13.7517L41.2574 18.3364L36.6727 18.3364L36.6727 13.7517Z" fill="#FF8005"/>
<path d="M32.0878 13.7517L36.6725 13.7517L36.6725 18.3364L32.0878 18.3364L32.0878 13.7517Z" fill="#FF6A05"/>
<path d="M27.5033 13.7517L32.088 13.7517L32.088 18.3364L27.5033 18.3364L27.5033 13.7517Z" fill="#EC5305"/>
<path d="M22.9209 13.7517L27.5056 13.7517L27.5056 18.3364L22.9209 18.3364L22.9209 13.7517Z" fill="#BA3F0C"/>
<path d="M18.3362 13.7517L22.9209 13.7517L22.9209 18.3364L18.3362 18.3364L18.3362 13.7517Z" fill="#2B1C35"/>
<path d="M13.7514 13.7517L18.3362 13.7517L18.3362 18.3364L13.7514 18.3364L13.7514 13.7517Z" fill="#2B1C35"/>
<path d="M105.436 18.3362L110.02 18.3362L110.02 22.9209L105.436 22.9209L105.436 18.3362Z" fill="#FF6A05"/>
<path d="M100.853 18.3362L105.436 18.3362L105.436 22.9209L100.853 22.9209L100.853 18.3362Z" fill="#FF8005"/>
<path d="M96.2687 18.3362L100.853 18.3362L100.853 22.9209L96.2687 22.9209L96.2687 18.3362Z" fill="#FFB945"/>
<path d="M91.6841 18.3362L96.2688 18.3362L96.2688 22.9209L91.6841 22.9209L91.6841 18.3362Z" fill="#FFEDAC"/>
<path d="M87.0994 18.3362L91.6841 18.3362L91.6841 22.9209L87.0994 22.9209L87.0994 18.3362Z" fill="#FFEDAC"/>
<path d="M82.5147 18.3362L87.0994 18.3362L87.0994 22.9209L82.5147 22.9209L82.5147 18.3362Z" fill="#FFEDAC"/>
<path d="M77.9324 18.3362L82.5171 18.3362L82.5171 22.9209L77.9324 22.9209L77.9324 18.3362Z" fill="#FFD17D"/>
<path d="M73.3477 18.3362L77.9324 18.3362L77.9324 22.9209L73.3477 22.9209L73.3477 18.3362Z" fill="#FFB945"/>
<path d="M68.763 18.3362L73.3477 18.3362L73.3477 22.9209L68.763 22.9209L68.763 18.3362Z" fill="#FFA31C"/>
<path d="M64.1807 18.3362L68.7629 18.3362L68.7629 22.9209L64.1807 22.9209L64.1807 18.3362Z" fill="#FF8005"/>
<path d="M59.5961 18.3362L64.1808 18.3362L64.1808 22.9209L59.5961 22.9209L59.5961 18.3362Z" fill="#FF8005"/>
<path d="M55.0115 18.3362L59.5938 18.3362L59.5938 22.9209L55.0115 22.9209L55.0115 18.3362Z" fill="#FFA31C"/>
<path d="M50.4267 18.3362L55.0114 18.3362L55.0114 22.9209L50.4267 22.9209L50.4267 18.3362Z" fill="#FF8005"/>
<path d="M45.8421 18.3362L50.4243 18.3362L50.4243 22.9209L45.8421 22.9209L45.8421 18.3362Z" fill="#FF6A05"/>
<path d="M41.2572 18.3362L45.8419 18.3362L45.8419 22.9209L41.2572 22.9209L41.2572 18.3362Z" fill="#FF6A05"/>
<path d="M36.6727 18.3362L41.2574 18.3362L41.2574 22.9209L36.6727 22.9209L36.6727 18.3362Z" fill="#FF6A05"/>
<path d="M32.0878 18.3362L36.6725 18.3362L36.6725 22.9209L32.0878 22.9209L32.0878 18.3362Z" fill="#FF6A05"/>
<path d="M27.5033 18.3362L32.088 18.3362L32.088 22.9209L27.5033 22.9209L27.5033 18.3362Z" fill="#FF6A05"/>
<path d="M22.9209 18.3362L27.5056 18.3362L27.5056 22.9209L22.9209 22.9209L22.9209 18.3362Z" fill="#EC5305"/>
<path d="M18.3362 18.3362L22.9209 18.3362L22.9209 22.9209L18.3362 22.9209L18.3362 18.3362Z" fill="#EC5305"/>
<path d="M13.7514 18.3362L18.3362 18.3362L18.3362 22.9209L13.7514 22.9209L13.7514 18.3362Z" fill="#441B1E"/>
<path d="M9.16925 18.3362L13.7515 18.3362L13.7515 22.9209L9.16925 22.9209L9.16925 18.3362Z" fill="#271727"/>
<path d="M105.436 22.9187L110.02 22.9187L110.02 27.5034L105.436 27.5034L105.436 22.9187Z" fill="#BA3F0C"/>
<path d="M100.853 22.9187L105.436 22.9187L105.436 27.5034L100.853 27.5034L100.853 22.9187Z" fill="#EC5305"/>
<path d="M96.2687 22.9187L100.853 22.9187L100.853 27.5034L96.2687 27.5034L96.2687 22.9187Z" fill="#FF6A05"/>
<path d="M91.6841 22.9187L96.2688 22.9187L96.2688 27.5034L91.6841 27.5034L91.6841 22.9187Z" fill="#FF8005"/>
<path d="M87.0994 22.9187L91.6841 22.9187L91.6841 27.5034L87.0994 27.5034L87.0994 22.9187Z" fill="#FF6A05"/>
<path d="M82.5147 22.9187L87.0994 22.9187L87.0994 27.5034L82.5147 27.5034L82.5147 22.9187Z" fill="#FF6A05"/>
<path d="M77.9324 22.9187L82.5171 22.9187L82.5171 27.5034L77.9324 27.5034L77.9324 22.9187Z" fill="#EC5305"/>
<path d="M73.3477 22.9187L77.9324 22.9187L77.9324 27.5034L73.3477 27.5034L73.3477 22.9187Z" fill="#BA3F0C"/>
<path d="M68.763 22.9187L73.3477 22.9187L73.3477 27.5034L68.763 27.5034L68.763 22.9187Z" fill="#EC5305"/>
<path d="M64.1807 22.9187L68.7629 22.9187L68.7629 27.5034L64.1807 27.5034L64.1807 22.9187Z" fill="#BA3F0C"/>
<path d="M59.5961 22.9187L64.1808 22.9187L64.1808 27.5034L59.5961 27.5034L59.5961 22.9187Z" fill="#441B1E"/>
<path d="M55.0115 22.9187L59.5938 22.9187L59.5938 27.5034L55.0115 27.5034L55.0115 22.9187Z" fill="#181635"/>
<path d="M50.4267 22.9187L55.0114 22.9187L55.0114 27.5034L50.4267 27.5034L50.4267 22.9187Z" fill="#181635"/>
<path d="M45.8421 22.9187L50.4243 22.9187L50.4243 27.5034L45.8421 27.5034L45.8421 22.9187Z" fill="#27182D"/>
<path d="M41.2572 22.9187L45.8419 22.9187L45.8419 27.5034L41.2572 27.5034L41.2572 22.9187Z" fill="#2B1A2E"/>
<path d="M36.6727 22.9187L41.2574 22.9187L41.2574 27.5034L36.6727 27.5034L36.6727 22.9187Z" fill="#2F1A27"/>
<path d="M32.0878 22.9187L36.6725 22.9187L36.6725 27.5034L32.0878 27.5034L32.0878 22.9187Z" fill="#441B1E"/>
<path d="M27.5033 22.9187L32.088 22.9187L32.088 27.5034L27.5033 27.5034L27.5033 22.9187Z" fill="#6A2916"/>
<path d="M22.9209 22.9187L27.5056 22.9187L27.5056 27.5034L22.9209 27.5034L22.9209 22.9187Z" fill="#441B1E"/>
<path d="M18.3362 22.9187L22.9209 22.9187L22.9209 27.5034L18.3362 27.5034L18.3362 22.9187Z" fill="#6A2916"/>
<path d="M13.7514 22.9187L18.3362 22.9187L18.3362 27.5034L13.7514 27.5034L13.7514 22.9187Z" fill="#441B1E"/>
<path d="M9.16925 22.9187L13.7515 22.9187L13.7515 27.5034L9.16925 27.5034L9.16925 22.9187Z" fill="#441B1E"/>
<path d="M4.29153e-06 22.9187L4.58228 22.9187L4.58228 27.5034L4.69234e-06 27.5034L4.29153e-06 22.9187Z" fill="#441B1E"/>
<path d="M4.58476 22.9187L9.16943 22.9187L9.16943 27.5034L4.58476 27.5034L4.58476 22.9187Z" fill="#6A2916"/>
<path d="M100.853 27.5032L105.436 27.5032L105.436 32.0879L100.853 32.0879L100.853 27.5032Z" fill="#6A2916"/>
<path d="M96.2687 27.5032L100.853 27.5032L100.853 32.0879L96.2687 32.0879L96.2687 27.5032Z" fill="#BA3F0C"/>
<path d="M91.6841 27.5032L96.2688 27.5032L96.2688 32.0879L91.6841 32.0879L91.6841 27.5032Z" fill="#EC5305"/>
<path d="M87.0994 27.5032L91.6841 27.5032L91.6841 32.0879L87.0994 32.0879L87.0994 27.5032Z" fill="#EC5305"/>
<path d="M82.5147 27.5032L87.0994 27.5032L87.0994 32.0879L82.5147 32.0879L82.5147 27.5032Z" fill="#BA3F0C"/>
<path d="M77.9324 27.5032L82.5171 27.5032L82.5171 32.0879L77.9324 32.0879L77.9324 27.5032Z" fill="#2F1A27"/>
<path d="M73.3477 27.5032L77.9324 27.5032L77.9324 32.0879L73.3477 32.0879L73.3477 27.5032Z" fill="#2F1A27"/>
<path d="M68.763 27.5032L73.3477 27.5032L73.3477 32.0879L68.763 32.0879L68.763 27.5032Z" fill="#2F1A27"/>
<path d="M64.1807 27.5032L68.7629 27.5032L68.7629 32.0879L64.1807 32.0879L64.1807 27.5032Z" fill="#2B1C35"/>
<path d="M59.5961 27.5032L64.1808 27.5032L64.1808 32.0879L59.5961 32.0879L59.5961 27.5032Z" fill="#441B1E"/>
</svg>
