<svg width="110" height="110" viewBox="0 0 110 110" fill="none" xmlns="http://www.w3.org/2000/svg">
<path d="M43.9428 0H36.6183V7.32055H43.9428V0Z" fill="#FFB8CB"/>
<path d="M51.2672 0H43.9427V7.32055H51.2672V0Z" fill="#FF8A91"/>
<path d="M58.5917 0H51.2672V7.32055H58.5917V0Z" fill="#FF8A91"/>
<path d="M65.9161 0H58.5917V7.32055H65.9161V0Z" fill="#FF8A91"/>
<path d="M73.2407 0H65.9163V7.32055H73.2407V0Z" fill="#FF8A91"/>
<path d="M29.298 7.32056H21.9735V14.645H29.298V7.32056Z" fill="#FF8A91"/>
<path d="M36.6224 7.32056H29.298V14.645H36.6224V7.32056Z" fill="#FF8A91"/>
<path d="M43.9428 7.32056H36.6183V14.645H43.9428V7.32056Z" fill="#FF8A91"/>
<path d="M51.2672 7.32056H43.9427V14.645H51.2672V7.32056Z" fill="#FF8A91"/>
<path d="M58.5917 7.32056H51.2672V14.645H58.5917V7.32056Z" fill="#FF653A"/>
<path d="M65.9161 7.32056H58.5917V14.645H65.9161V7.32056Z" fill="#E02508"/>
<path d="M73.2407 7.32056H65.9163V14.645H73.2407V7.32056Z" fill="#FF653A"/>
<path d="M80.5653 7.32056H73.2408V14.645H80.5653V7.32056Z" fill="#FF8A91"/>
<path d="M87.8859 7.32056H80.5614V14.645H87.8859V7.32056Z" fill="#FFB8CB"/>
<path d="M21.9735 14.6489H14.649V21.9695H21.9735V14.6489Z" fill="#FF8A91"/>
<path d="M29.298 14.6489H21.9735V21.9695H29.298V14.6489Z" fill="#FFB8CB"/>
<path d="M36.6224 14.6489H29.298V21.9695H36.6224V14.6489Z" fill="#FF6B6F"/>
<path d="M43.9428 14.6489H36.6183V21.9695H43.9428V14.6489Z" fill="#FF653A"/>
<path d="M51.2672 14.6489H43.9427V21.9695H51.2672V14.6489Z" fill="#FF6B6F"/>
<path d="M58.5917 14.6489H51.2672V21.9695H58.5917V14.6489Z" fill="#FF653A"/>
<path d="M65.9161 14.6489H58.5917V21.9695H65.9161V14.6489Z" fill="#FF6B6F"/>
<path d="M73.2407 14.6489H65.9163V21.9695H73.2407V14.6489Z" fill="#D52533"/>
<path d="M80.5653 14.6489H73.2408V21.9695H80.5653V14.6489Z" fill="#D52533"/>
<path d="M87.8859 14.6489H80.5614V21.9695H87.8859V14.6489Z" fill="#FF6B6F"/>
<path d="M95.2103 14.6489H87.8859V21.9695H95.2103V14.6489Z" fill="#FFB8CB"/>
<path d="M14.6489 21.9695H7.32446V29.294H14.6489V21.9695Z" fill="#FF8A91"/>
<path d="M21.9735 21.9695H14.649V29.294H21.9735V21.9695Z" fill="#FFB8CB"/>
<path d="M29.298 21.9695H21.9735V29.294H29.298V21.9695Z" fill="#FF653A"/>
<path d="M36.6224 21.9695H29.298V29.294H36.6224V21.9695Z" fill="#E02508"/>
<path d="M43.9428 21.9695H36.6183V29.294H43.9428V21.9695Z" fill="#FF653A"/>
<path d="M51.2672 21.9695H43.9427V29.294H51.2672V21.9695Z" fill="#FF6B6F"/>
<path d="M58.5917 21.9695H51.2672V29.294H58.5917V21.9695Z" fill="#FF6B6F"/>
<path d="M65.9161 21.9695H58.5917V29.294H65.9161V21.9695Z" fill="#D52533"/>
<path d="M73.2407 21.9695H65.9163V29.294H73.2407V21.9695Z" fill="#D64598"/>
<path d="M80.5653 21.9695H73.2408V29.294H80.5653V21.9695Z" fill="#D64598"/>
<path d="M87.8859 21.9695H80.5614V29.294H87.8859V21.9695Z" fill="#D52533"/>
<path d="M95.2103 21.9695H87.8859V29.294H95.2103V21.9695Z" fill="#C122A7"/>
<path d="M102.535 21.9695H95.2104V29.294H102.535V21.9695Z" fill="#9536C2"/>
<path d="M14.6489 29.2939H7.32446V36.6184H14.6489V29.2939Z" fill="#FFB8CB"/>
<path d="M21.9735 29.2939H14.649V36.6184H21.9735V29.2939Z" fill="#FF8A91"/>
<path d="M29.298 29.2939H21.9735V36.6184H29.298V29.2939Z" fill="#FF653A"/>
<path d="M36.6224 29.2939H29.298V36.6184H36.6224V29.2939Z" fill="#FF653A"/>
<path d="M43.9428 29.2939H36.6183V36.6184H43.9428V29.2939Z" fill="#FFB8CB"/>
<path d="M51.2672 29.2939H43.9427V36.6184H51.2672V29.2939Z" fill="#FF6B6F"/>
<path d="M58.5917 29.2939H51.2672V36.6184H58.5917V29.2939Z" fill="#FF6B6F"/>
<path d="M65.9161 29.2939H58.5917V36.6184H65.9161V29.2939Z" fill="#D64598"/>
<path d="M73.2407 29.2939H65.9163V36.6184H73.2407V29.2939Z" fill="#D52533"/>
<path d="M80.5653 29.2939H73.2408V36.6184H80.5653V29.2939Z" fill="#C122A7"/>
<path d="M87.8859 29.2939H80.5614V36.6184H87.8859V29.2939Z" fill="#C122A7"/>
<path d="M95.2103 29.2939H87.8859V36.6184H95.2103V29.2939Z" fill="#A40578"/>
<path d="M102.535 29.2939H95.2104V36.6184H102.535V29.2939Z" fill="#870FB9"/>
<path d="M7.32447 36.6187H0V43.9431H7.32447V36.6187Z" fill="#FFB8CB"/>
<path d="M21.9735 36.6187H14.649V43.9431H21.9735V36.6187Z" fill="#FFB8CB"/>
<path d="M14.6489 36.6187H7.32446V43.9431H14.6489V36.6187Z" fill="#FF8A91"/>
<path d="M29.298 36.6187H21.9735V43.9431H29.298V36.6187Z" fill="#FF6B6F"/>
<path d="M36.6224 36.6187H29.298V43.9431H36.6224V36.6187Z" fill="#D52533"/>
<path d="M43.9428 36.6187H36.6183V43.9431H43.9428V36.6187Z" fill="#D52533"/>
<path d="M51.2672 36.6187H43.9427V43.9431H51.2672V36.6187Z" fill="#D52533"/>
<path d="M58.5917 36.6187H51.2672V43.9431H58.5917V36.6187Z" fill="#D52533"/>
<path d="M65.9161 36.6187H58.5917V43.9431H65.9161V36.6187Z" fill="#C122A7"/>
<path d="M73.2407 36.6187H65.9163V43.9431H73.2407V36.6187Z" fill="#C122A7"/>
<path d="M80.5653 36.6187H73.2408V43.9431H80.5653V36.6187Z" fill="#C122A7"/>
<path d="M87.8859 36.6187H80.5614V43.9431H87.8859V36.6187Z" fill="#A224C1"/>
<path d="M95.2103 36.6187H87.8859V43.9431H95.2103V36.6187Z" fill="#870FB9"/>
<path d="M102.535 36.6187H95.2104V43.9431H102.535V36.6187Z" fill="#540595"/>
<path d="M109.859 36.6187H102.535V43.9431H109.859V36.6187Z" fill="#3A05BF"/>
<path d="M7.32447 43.9429H0V51.2674H7.32447V43.9429Z" fill="#FFB8CB"/>
<path d="M14.6489 43.9429H7.32446V51.2674H14.6489V43.9429Z" fill="#FFB8CB"/>
<path d="M21.9735 43.9429H14.649V51.2674H21.9735V43.9429Z" fill="#FFB8CB"/>
<path d="M29.298 43.9429H21.9735V51.2674H29.298V43.9429Z" fill="#FF6B6F"/>
<path d="M36.6224 43.9429H29.298V51.2674H36.6224V43.9429Z" fill="#D52533"/>
<path d="M43.9428 43.9429H36.6183V51.2674H43.9428V43.9429Z" fill="#D52533"/>
<path d="M51.2672 43.9429H43.9427V51.2674H51.2672V43.9429Z" fill="#A60526"/>
<path d="M58.5917 43.9429H51.2672V51.2674H58.5917V43.9429Z" fill="#D52533"/>
<path d="M65.9161 43.9429H58.5917V51.2674H65.9161V43.9429Z" fill="#A40578"/>
<path d="M73.2407 43.9429H65.9163V51.2674H73.2407V43.9429Z" fill="#A40578"/>
<path d="M80.5653 43.9429H73.2408V51.2674H80.5653V43.9429Z" fill="#C122A7"/>
<path d="M87.8859 43.9429H80.5614V51.2674H87.8859V43.9429Z" fill="#8A0B97"/>
<path d="M95.2103 43.9429H87.8859V51.2674H95.2103V43.9429Z" fill="#A224C1"/>
<path d="M102.535 43.9429H95.2104V51.2674H102.535V43.9429Z" fill="#540595"/>
<path d="M109.859 43.9429H102.535V51.2674H109.859V43.9429Z" fill="#3A05BF"/>
<path d="M7.32447 51.2637H0V58.5882H7.32447V51.2637Z" fill="#FF8A91"/>
<path d="M14.6489 51.2637H7.32446V58.5882H14.6489V51.2637Z" fill="#FFB8CB"/>
<path d="M21.9735 51.2637H14.649V58.5882H21.9735V51.2637Z" fill="#FF6B6F"/>
<path d="M29.298 51.2637H21.9735V58.5882H29.298V51.2637Z" fill="#FF6B6F"/>
<path d="M36.6224 51.2637H29.298V58.5882H36.6224V51.2637Z" fill="#D52533"/>
<path d="M43.9428 51.2637H36.6183V58.5882H43.9428V51.2637Z" fill="#A60526"/>
<path d="M51.2672 58.592H43.9427V65.9165H51.2672V58.592Z" fill="#A60526"/>
<path d="M58.5917 51.2637H51.2672V58.5882H58.5917V51.2637Z" fill="#A60526"/>
<path d="M65.9161 51.2637H58.5917V58.5882H65.9161V51.2637Z" fill="#C122A7"/>
<path d="M73.2407 51.2637H65.9163V58.5882H73.2407V51.2637Z" fill="#7F0548"/>
<path d="M80.5653 51.2637H73.2408V58.5882H80.5653V51.2637Z" fill="#8A0B97"/>
<path d="M87.8859 51.2637H80.5614V58.5882H87.8859V51.2637Z" fill="#A224C1"/>
<path d="M95.2103 51.2637H87.8859V58.5882H95.2103V51.2637Z" fill="#870FB9"/>
<path d="M102.535 51.2637H95.2104V58.5882H102.535V51.2637Z" fill="#9536C2"/>
<path d="M109.859 51.2637H102.535V58.5882H109.859V51.2637Z" fill="#3A05BF"/>
<path d="M7.32447 58.592H0V65.9165H7.32447V58.592Z" fill="#FFB8CB"/>
<path d="M14.6489 58.592H7.32446V65.9165H14.6489V58.592Z" fill="#FF8A91"/>
<path d="M21.9735 58.592H14.649V65.9165H21.9735V58.592Z" fill="#FF6B6F"/>
<path d="M29.298 58.592H21.9735V65.9165H29.298V58.592Z" fill="#D64598"/>
<path d="M36.6224 58.592H29.298V65.9165H36.6224V58.592Z" fill="#D64598"/>
<path d="M43.9428 58.592H36.6183V65.9165H43.9428V58.592Z" fill="#C122A7"/>
<path d="M51.2672 51.2637H43.9427V58.5882H51.2672V51.2637Z" fill="#C122A7"/>
<path d="M58.5917 58.592H51.2672V65.9165H58.5917V58.592Z" fill="#C122A7"/>
<path d="M80.5653 58.592H73.2408V65.9165H80.5653V58.592Z" fill="#C122A7"/>
<path d="M73.2407 58.592H65.9163V65.9165H73.2407V58.592Z" fill="#C122A7"/>
<path d="M65.9161 58.592H58.5917V65.9165H65.9161V58.592Z" fill="#8A0B97"/>
<path d="M87.8859 58.592H80.5614V65.9165H87.8859V58.592Z" fill="#870FB9"/>
<path d="M95.2103 58.592H87.8859V65.9165H95.2103V58.592Z" fill="#870FB9"/>
<path d="M102.535 58.592H95.2104V65.9165H102.535V58.592Z" fill="#9536C2"/>
<path d="M109.859 58.592H102.535V65.9165H109.859V58.592Z" fill="#540595"/>
<path d="M7.32447 65.9124H0V73.2368H7.32447V65.9124Z" fill="#FF8A91"/>
<path d="M14.6489 65.9124H7.32446V73.2368H14.6489V65.9124Z" fill="#E02508"/>
<path d="M21.9735 65.9124H14.649V73.2368H21.9735V65.9124Z" fill="#FF6B6F"/>
<path d="M29.298 65.9124H21.9735V73.2368H29.298V65.9124Z" fill="#A60526"/>
<path d="M36.6224 65.9124H29.298V73.2368H36.6224V65.9124Z" fill="#A60526"/>
<path d="M43.9428 65.9124H36.6183V73.2368H43.9428V65.9124Z" fill="#A40578"/>
<path d="M51.2672 65.9124H43.9427V73.2368H51.2672V65.9124Z" fill="#C122A7"/>
<path d="M58.5917 65.9124H51.2672V73.2368H58.5917V65.9124Z" fill="#A40578"/>
<path d="M65.9161 65.9124H58.5917V73.2368H65.9161V65.9124Z" fill="#C122A7"/>
<path d="M73.2407 65.9124H65.9163V73.2368H73.2407V65.9124Z" fill="#A40578"/>
<path d="M80.5653 65.9124H73.2408V73.2368H80.5653V65.9124Z" fill="#A224C1"/>
<path d="M87.8859 65.9124H80.5614V73.2368H87.8859V65.9124Z" fill="#8A0B97"/>
<path d="M95.2103 65.9124H87.8859V73.2368H95.2103V65.9124Z" fill="#A224C1"/>
<path d="M102.535 65.9124H95.2104V73.2368H102.535V65.9124Z" fill="#3A05BF"/>
<path d="M109.859 65.9124H102.535V73.2368H109.859V65.9124Z" fill="#3A05BF"/>
<path d="M14.6489 73.2368H7.32446V80.5574H14.6489V73.2368Z" fill="#FFB8CB"/>
<path d="M21.9735 73.2368H14.649V80.5574H21.9735V73.2368Z" fill="#E02508"/>
<path d="M29.298 80.561H21.9735V87.8855H29.298V80.561Z" fill="#D52533"/>
<path d="M36.6224 73.2368H29.298V80.5574H36.6224V73.2368Z" fill="#D52533"/>
<path d="M43.9428 73.2368H36.6183V80.5574H43.9428V73.2368Z" fill="#A60526"/>
<path d="M51.2672 73.2368H43.9427V80.5574H51.2672V73.2368Z" fill="#7F0548"/>
<path d="M65.9161 73.2368H58.5917V80.5574H65.9161V73.2368Z" fill="#7F0548"/>
<path d="M58.5917 73.2368H51.2672V80.5574H58.5917V73.2368Z" fill="#A40578"/>
<path d="M73.2407 73.2368H65.9163V80.5574H73.2407V73.2368Z" fill="#A40578"/>
<path d="M80.5653 73.2368H73.2408V80.5574H80.5653V73.2368Z" fill="#870FB9"/>
<path d="M87.8859 73.2368H80.5614V80.5574H87.8859V73.2368Z" fill="#870FB9"/>
<path d="M95.2103 73.2368H87.8859V80.5574H95.2103V73.2368Z" fill="#870FB9"/>
<path d="M102.535 73.2368H95.2104V80.5574H102.535V73.2368Z" fill="#540595"/>
<path d="M14.6489 80.561H7.32446V87.8855H14.6489V80.561Z" fill="#FF8A91"/>
<path d="M21.9735 80.561H14.649V87.8855H21.9735V80.561Z" fill="#E02508"/>
<path d="M29.298 73.2368H21.9735V80.5574H29.298V73.2368Z" fill="#A60526"/>
<path d="M36.6224 80.561H29.298V87.8855H36.6224V80.561Z" fill="#A60526"/>
<path d="M43.9428 80.561H36.6183V87.8855H43.9428V80.561Z" fill="#7F0548"/>
<path d="M51.2672 80.561H43.9427V87.8855H51.2672V80.561Z" fill="#A40578"/>
<path d="M58.5917 80.561H51.2672V87.8855H58.5917V80.561Z" fill="#7F0548"/>
<path d="M65.9161 80.561H58.5917V87.8855H65.9161V80.561Z" fill="#A40578"/>
<path d="M73.2407 80.561H65.9163V87.8855H73.2407V80.561Z" fill="#C122A7"/>
<path d="M80.5653 80.561H73.2408V87.8855H80.5653V80.561Z" fill="#870FB9"/>
<path d="M87.8859 80.561H80.5614V87.8855H87.8859V80.561Z" fill="#540595"/>
<path d="M95.2103 80.561H87.8859V87.8855H95.2103V80.561Z" fill="#5507C2"/>
<path d="M102.535 80.561H95.2104V87.8855H102.535V80.561Z" fill="#540595"/>
<path d="M21.9735 87.886H14.649V95.2065H21.9735V87.886Z" fill="#FF6B6F"/>
<path d="M29.298 87.886H21.9735V95.2065H29.298V87.886Z" fill="#FF6B6F"/>
<path d="M36.6224 87.886H29.298V95.2065H36.6224V87.886Z" fill="#FF6B6F"/>
<path d="M43.9428 87.886H36.6183V95.2065H43.9428V87.886Z" fill="#A60526"/>
<path d="M51.2672 87.886H43.9427V95.2065H51.2672V87.886Z" fill="#7F0548"/>
<path d="M58.5917 87.886H51.2672V95.2065H58.5917V87.886Z" fill="#A40578"/>
<path d="M65.9161 87.886H58.5917V95.2065H65.9161V87.886Z" fill="#C122A7"/>
<path d="M73.2407 87.886H65.9163V95.2065H73.2407V87.886Z" fill="#A224C1"/>
<path d="M80.5653 87.886H73.2408V95.2065H80.5653V87.886Z" fill="#5507C2"/>
<path d="M87.8859 87.886H80.5614V95.2065H87.8859V87.886Z" fill="#3A05BF"/>
<path d="M95.2103 87.886H87.8859V95.2065H95.2103V87.886Z" fill="#540595"/>
<path d="M29.298 95.2063H21.9735V102.531H29.298V95.2063Z" fill="#FFB8CB"/>
<path d="M36.6224 95.2063H29.298V102.531H36.6224V95.2063Z" fill="#C122A7"/>
<path d="M43.9428 95.2063H36.6183V102.531H43.9428V95.2063Z" fill="#A40578"/>
<path d="M51.2672 95.2063H43.9427V102.531H51.2672V95.2063Z" fill="#C122A7"/>
<path d="M58.5917 95.2063H51.2672V102.531H58.5917V95.2063Z" fill="#C122A7"/>
<path d="M65.9161 95.2063H58.5917V102.531H65.9161V95.2063Z" fill="#A224C1"/>
<path d="M73.2407 95.2063H65.9163V102.531H73.2407V95.2063Z" fill="#5507C2"/>
<path d="M80.5653 95.2063H73.2408V102.531H80.5653V95.2063Z" fill="#3A05BF"/>
<path d="M87.8859 95.2063H80.5614V102.531H87.8859V95.2063Z" fill="#540595"/>
<path d="M43.9428 102.535H36.6183V109.855H43.9428V102.535Z" fill="#FFB8CB"/>
<path d="M51.2672 102.535H43.9427V109.855H51.2672V102.535Z" fill="#B051C9"/>
<path d="M58.5917 102.535H51.2672V109.855H58.5917V102.535Z" fill="#B051C9"/>
<path d="M65.9161 102.535H58.5917V109.855H65.9161V102.535Z" fill="#540595"/>
<path d="M73.2407 102.535H65.9163V109.855H73.2407V102.535Z" fill="#540595"/>
</svg>
