<svg width="130" height="28" viewBox="0 0 130 28" fill="none" xmlns="http://www.w3.org/2000/svg">
<path d="M119.737 0H116.316V3.38816H119.737V0Z" fill="#FF2722"/>
<path d="M116.316 0H112.895V3.38816H116.316V0Z" fill="#FF2722"/>
<path d="M112.895 0H109.474V3.38816H112.895V0Z" fill="#FF5854"/>
<path d="M109.474 0H106.053V3.38816H109.474V0Z" fill="#FF2722"/>
<path d="M106.053 0H102.631V3.38816H106.053V0Z" fill="#FF2722"/>
<path d="M102.631 0H99.2103V3.38816H102.631V0Z" fill="#FF2722"/>
<path d="M99.211 0H95.7899V3.38816H99.211V0Z" fill="#FF2722"/>
<path d="M95.7898 0H92.3688V3.38816H95.7898V0Z" fill="#FF2722"/>
<path d="M92.3687 0H88.9476V3.38816H92.3687V0Z" fill="#FF2722"/>
<path d="M88.9475 0H85.5265V3.38816H88.9475V0Z" fill="#FF2722"/>
<path d="M85.5262 0H82.1051V3.38816H85.5262V0Z" fill="#FF2722"/>
<path d="M82.105 0H78.684V3.38816H82.105V0Z" fill="#FF2722"/>
<path d="M78.6839 0H75.2628V3.38816H78.6839V0Z" fill="#FF2722"/>
<path d="M75.2633 0H71.8423V3.38816H75.2633V0Z" fill="#FF2722"/>
<path d="M71.8422 0H68.4211V3.38816H71.8422V0Z" fill="#FF2722"/>
<path d="M68.4211 0H65V3.38816H68.4211V0Z" fill="#FF5854"/>
<path d="M64.9999 0H61.5789V3.38816H64.9999V0Z" fill="#FF2722"/>
<path d="M61.5788 0H58.1577V3.38816H61.5788V0Z" fill="#FF2722"/>
<path d="M58.1576 0H54.7366V3.38816H58.1576V0Z" fill="#FF2722"/>
<path d="M54.7372 0H51.3162V3.38816H54.7372V0Z" fill="#FF2722"/>
<path d="M51.316 0H47.8949V3.38816H51.316V0Z" fill="#FF2722"/>
<path d="M47.8948 0H44.4738V3.38816H47.8948V0Z" fill="#FF2722"/>
<path d="M44.4737 0H41.0526V3.38816H44.4737V0Z" fill="#FF2722"/>
<path d="M41.0525 0H37.6315V3.38816H41.0525V0Z" fill="#FF2722"/>
<path d="M37.6313 0H34.2102V3.38816H37.6313V0Z" fill="#FF5854"/>
<path d="M34.211 0H30.7899V3.38816H34.211V0Z" fill="#FF5854"/>
<path d="M30.7898 0H27.3688V3.38816H30.7898V0Z" fill="#FB7E7B"/>
<path d="M27.3686 0H23.9475V3.38816H27.3686V0Z" fill="#FF7673"/>
<path d="M23.9473 0H20.5262V3.38816H23.9473V0Z" fill="#FF2722"/>
<path d="M20.5262 0H17.1051V3.38816H20.5262V0Z" fill="#FF2722"/>
<path d="M17.105 0H13.684V3.38816H17.105V0Z" fill="#FF2722"/>
<path d="M123.158 3.38818H119.737V6.77634H123.158V3.38818Z" fill="#FF2722"/>
<path d="M13.6845 3.38818H10.2634V6.77634H13.6845V3.38818Z" fill="#FF2722"/>
<path d="M126.579 6.77661H123.158V10.1648H126.579V6.77661Z" fill="#FF2722"/>
<path d="M116.316 6.77661H112.895V10.1648H116.316V6.77661Z" fill="#710F0D"/>
<path d="M112.895 6.77661H109.474V10.1648H112.895V6.77661Z" fill="#FFBAB9"/>
<path d="M109.474 6.77661H106.053V10.1648H109.474V6.77661Z" fill="#FFDDDC"/>
<path d="M106.053 6.77661H102.631V10.1648H106.053V6.77661Z" fill="#F5FEFF"/>
<path d="M99.211 6.77661H95.7899V10.1648H99.211V6.77661Z" fill="#710F0D"/>
<path d="M95.7898 6.77661H92.3688V10.1648H95.7898V6.77661Z" fill="#FFBAB9"/>
<path d="M92.3687 6.77661H88.9476V10.1648H92.3687V6.77661Z" fill="#FFDDDC"/>
<path d="M88.9475 6.77661H85.5265V10.1648H88.9475V6.77661Z" fill="#F5FEFF"/>
<path d="M82.105 6.77661H78.684V10.1648H82.105V6.77661Z" fill="#710F0D"/>
<path d="M78.6839 6.77661H75.2628V10.1648H78.6839V6.77661Z" fill="#FFBAB9"/>
<path d="M75.2633 6.77661H71.8423V10.1648H75.2633V6.77661Z" fill="#FFDDDC"/>
<path d="M71.8422 6.77661H68.4211V10.1648H71.8422V6.77661Z" fill="#F5FEFF"/>
<path d="M64.9999 6.77661H61.5789V10.1648H64.9999V6.77661Z" fill="#710F0D"/>
<path d="M61.5788 6.77661H58.1577V10.1648H61.5788V6.77661Z" fill="#FFBAB9"/>
<path d="M58.1576 6.77661H54.7366V10.1648H58.1576V6.77661Z" fill="#FFDDDC"/>
<path d="M54.7372 6.77661H51.3162V10.1648H54.7372V6.77661Z" fill="#F5FEFF"/>
<path d="M47.8948 6.77661H44.4738V10.1648H47.8948V6.77661Z" fill="#710F0D"/>
<path d="M44.4737 6.77661H41.0526V10.1648H44.4737V6.77661Z" fill="#FFBAB9"/>
<path d="M41.0525 6.77661H37.6315V10.1648H41.0525V6.77661Z" fill="#FFDDDC"/>
<path d="M37.6313 6.77661H34.2102V10.1648H37.6313V6.77661Z" fill="#F5FEFF"/>
<path d="M30.7898 6.77661H27.3688V10.1648H30.7898V6.77661Z" fill="#710F0D"/>
<path d="M27.3686 6.77661H23.9475V10.1648H27.3686V6.77661Z" fill="#FFBAB9"/>
<path d="M23.9473 6.77661H20.5262V10.1648H23.9473V6.77661Z" fill="#FFDDDC"/>
<path d="M20.5262 6.77661H17.1051V10.1648H20.5262V6.77661Z" fill="#F5FEFF"/>
<path d="M10.2633 6.77661H6.84229V10.1648H10.2633V6.77661Z" fill="#FF2722"/>
<path d="M130 10.1643H126.579V13.5525H130V10.1643Z" fill="#BA1C19"/>
<path d="M126.579 10.1643H123.158V13.5525H126.579V10.1643Z" fill="#710F0D"/>
<path d="M123.158 10.1643H119.737V13.5525H123.158V10.1643Z" fill="#FB7E7B"/>
<path d="M112.895 10.1643H109.474V13.5525H112.895V10.1643Z" fill="#710F0D"/>
<path d="M109.474 10.1643H106.053V13.5525H109.474V10.1643Z" fill="#FE514D"/>
<path d="M106.053 10.1643H102.631V13.5525H106.053V10.1643Z" fill="#FF8A87"/>
<path d="M102.631 10.1643H99.2103V13.5525H102.631V10.1643Z" fill="#FF8A87"/>
<path d="M95.7898 10.1643H92.3688V13.5525H95.7898V10.1643Z" fill="#710F0D"/>
<path d="M92.3687 10.1643H88.9476V13.5525H92.3687V10.1643Z" fill="#FE514D"/>
<path d="M88.9475 10.1643H85.5265V13.5525H88.9475V10.1643Z" fill="#FF8A87"/>
<path d="M85.5262 10.1643H82.1051V13.5525H85.5262V10.1643Z" fill="#FF8A87"/>
<path d="M78.6839 10.1643H75.2628V13.5525H78.6839V10.1643Z" fill="#710F0D"/>
<path d="M75.2633 10.1643H71.8423V13.5525H75.2633V10.1643Z" fill="#FE514D"/>
<path d="M71.8422 10.1643H68.4211V13.5525H71.8422V10.1643Z" fill="#FF8A87"/>
<path d="M68.4211 10.1643H65V13.5525H68.4211V10.1643Z" fill="#FF8A87"/>
<path d="M61.5788 10.1643H58.1577V13.5525H61.5788V10.1643Z" fill="#710F0D"/>
<path d="M58.1576 10.1643H54.7366V13.5525H58.1576V10.1643Z" fill="#FE514D"/>
<path d="M54.7372 10.1643H51.3162V13.5525H54.7372V10.1643Z" fill="#FF8A87"/>
<path d="M51.316 10.1643H47.8949V13.5525H51.316V10.1643Z" fill="#FF8A87"/>
<path d="M44.4737 10.1643H41.0526V13.5525H44.4737V10.1643Z" fill="#710F0D"/>
<path d="M41.0525 10.1643H37.6315V13.5525H41.0525V10.1643Z" fill="#FE514D"/>
<path d="M37.6313 10.1643H34.2102V13.5525H37.6313V10.1643Z" fill="#FF8A87"/>
<path d="M34.211 10.1643H30.7899V13.5525H34.211V10.1643Z" fill="#FF8A87"/>
<path d="M27.3686 10.1643H23.9475V13.5525H27.3686V10.1643Z" fill="#710F0D"/>
<path d="M23.9473 10.1643H20.5262V13.5525H23.9473V10.1643Z" fill="#FE514D"/>
<path d="M20.5262 10.1643H17.1051V13.5525H20.5262V10.1643Z" fill="#FF8A87"/>
<path d="M17.105 10.1643H13.684V13.5525H17.105V10.1643Z" fill="#FF8A87"/>
<path d="M6.8422 10.1643H3.42114V13.5525H6.8422V10.1643Z" fill="#FB7E7B"/>
<path d="M126.579 13.5527H123.158V16.9409H126.579V13.5527Z" fill="#BA1C19"/>
<path d="M123.158 13.5527H119.737V16.9409H123.158V13.5527Z" fill="#710F0D"/>
<path d="M119.737 13.5527H116.316V16.9409H119.737V13.5527Z" fill="#FF2722"/>
<path d="M109.474 13.5527H106.053V16.9409H109.474V13.5527Z" fill="#710F0D"/>
<path d="M106.053 13.5527H102.631V16.9409H106.053V13.5527Z" fill="#FE6C69"/>
<path d="M102.631 13.5527H99.2103V16.9409H102.631V13.5527Z" fill="#FE514D"/>
<path d="M99.211 13.5527H95.7899V16.9409H99.211V13.5527Z" fill="#FE514D"/>
<path d="M92.3687 13.5527H88.9476V16.9409H92.3687V13.5527Z" fill="#710F0D"/>
<path d="M88.9475 13.5527H85.5265V16.9409H88.9475V13.5527Z" fill="#FE6C69"/>
<path d="M85.5262 13.5527H82.1051V16.9409H85.5262V13.5527Z" fill="#FE514D"/>
<path d="M82.105 13.5527H78.684V16.9409H82.105V13.5527Z" fill="#FE514D"/>
<path d="M75.2633 13.5527H71.8423V16.9409H75.2633V13.5527Z" fill="#710F0D"/>
<path d="M71.8422 13.5527H68.4211V16.9409H71.8422V13.5527Z" fill="#FE6C69"/>
<path d="M68.4211 13.5527H65V16.9409H68.4211V13.5527Z" fill="#FE514D"/>
<path d="M64.9999 13.5527H61.5789V16.9409H64.9999V13.5527Z" fill="#FE514D"/>
<path d="M58.1576 13.5527H54.7366V16.9409H58.1576V13.5527Z" fill="#710F0D"/>
<path d="M54.7372 13.5527H51.3162V16.9409H54.7372V13.5527Z" fill="#FE6C69"/>
<path d="M51.316 13.5527H47.8949V16.9409H51.316V13.5527Z" fill="#FE514D"/>
<path d="M47.8948 13.5527H44.4738V16.9409H47.8948V13.5527Z" fill="#FE514D"/>
<path d="M41.0525 13.5527H37.6315V16.9409H41.0525V13.5527Z" fill="#710F0D"/>
<path d="M37.6313 13.5527H34.2102V16.9409H37.6313V13.5527Z" fill="#FE6C69"/>
<path d="M34.211 13.5527H30.7899V16.9409H34.211V13.5527Z" fill="#FE514D"/>
<path d="M30.7898 13.5527H27.3688V16.9409H30.7898V13.5527Z" fill="#FE514D"/>
<path d="M23.9473 13.5527H20.5262V16.9409H23.9473V13.5527Z" fill="#710F0D"/>
<path d="M20.5262 13.5527H17.1051V16.9409H20.5262V13.5527Z" fill="#FE6C69"/>
<path d="M17.105 13.5527H13.684V16.9409H17.105V13.5527Z" fill="#FE514D"/>
<path d="M13.6845 13.5527H10.2634V16.9409H13.6845V13.5527Z" fill="#FE514D"/>
<path d="M3.42105 13.5527H0V16.9409H3.42105V13.5527Z" fill="#FF2722"/>
<path d="M123.158 16.9409H119.737V20.3291H123.158V16.9409Z" fill="#710F0D"/>
<path d="M119.737 16.9409H116.316V20.3291H119.737V16.9409Z" fill="#710F0D"/>
<path d="M116.316 16.9409H112.895V20.3291H116.316V16.9409Z" fill="#FF2722"/>
<path d="M6.8422 16.9409H3.42114V20.3291H6.8422V16.9409Z" fill="#FF2722"/>
<path d="M119.737 20.3291H116.316V23.7173H119.737V20.3291Z" fill="#710F0D"/>
<path d="M116.316 20.3291H112.895V23.7173H116.316V20.3291Z" fill="#710F0D"/>
<path d="M112.895 20.3291H109.474V23.7173H112.895V20.3291Z" fill="#FF2722"/>
<path d="M109.474 20.3291H106.053V23.7173H109.474V20.3291Z" fill="#FF2722"/>
<path d="M106.053 20.3291H102.631V23.7173H106.053V20.3291Z" fill="#FF2722"/>
<path d="M102.631 20.3291H99.2103V23.7173H102.631V20.3291Z" fill="#FB7E7B"/>
<path d="M99.211 20.3291H95.7899V23.7173H99.211V20.3291Z" fill="#FF2722"/>
<path d="M95.7898 20.3291H92.3688V23.7173H95.7898V20.3291Z" fill="#FF2722"/>
<path d="M92.3687 20.3291H88.9476V23.7173H92.3687V20.3291Z" fill="#FF2722"/>
<path d="M88.9475 20.3291H85.5265V23.7173H88.9475V20.3291Z" fill="#FF2722"/>
<path d="M85.5262 20.3291H82.1051V23.7173H85.5262V20.3291Z" fill="#FF2722"/>
<path d="M82.105 20.3291H78.684V23.7173H82.105V20.3291Z" fill="#FF5854"/>
<path d="M78.6839 20.3291H75.2628V23.7173H78.6839V20.3291Z" fill="#FF2722"/>
<path d="M75.2633 20.3291H71.8423V23.7173H75.2633V20.3291Z" fill="#FF2722"/>
<path d="M71.8422 20.3291H68.4211V23.7173H71.8422V20.3291Z" fill="#FF2722"/>
<path d="M68.4211 20.3291H65V23.7173H68.4211V20.3291Z" fill="#FF2722"/>
<path d="M64.9999 20.3291H61.5789V23.7173H64.9999V20.3291Z" fill="#FF2722"/>
<path d="M61.5788 20.3291H58.1577V23.7173H61.5788V20.3291Z" fill="#FF2722"/>
<path d="M58.1576 20.3291H54.7366V23.7173H58.1576V20.3291Z" fill="#FF5854"/>
<path d="M54.7372 20.3291H51.3162V23.7173H54.7372V20.3291Z" fill="#FF2722"/>
<path d="M51.316 20.3291H47.8949V23.7173H51.316V20.3291Z" fill="#FF2722"/>
<path d="M47.8948 20.3291H44.4738V23.7173H47.8948V20.3291Z" fill="#FF2722"/>
<path d="M44.4737 20.3291H41.0526V23.7173H44.4737V20.3291Z" fill="#FF2722"/>
<path d="M41.0525 20.3291H37.6315V23.7173H41.0525V20.3291Z" fill="#FF2722"/>
<path d="M37.6313 20.3291H34.2102V23.7173H37.6313V20.3291Z" fill="#FF2722"/>
<path d="M34.211 20.3291H30.7899V23.7173H34.211V20.3291Z" fill="#FF2722"/>
<path d="M30.7898 20.3291H27.3688V23.7173H30.7898V20.3291Z" fill="#FF2722"/>
<path d="M27.3686 20.3291H23.9475V23.7173H27.3686V20.3291Z" fill="#FF2722"/>
<path d="M23.9473 20.3291H20.5262V23.7173H23.9473V20.3291Z" fill="#FF2722"/>
<path d="M20.5262 20.3291H17.1051V23.7173H20.5262V20.3291Z" fill="#FF5854"/>
<path d="M17.105 20.3291H13.684V23.7173H17.105V20.3291Z" fill="#FF5854"/>
<path d="M13.6845 20.3291H10.2634V23.7173H13.6845V20.3291Z" fill="#FB7E7B"/>
<path d="M10.2633 20.3291H6.84229V23.7173H10.2633V20.3291Z" fill="#FF7673"/>
<path d="M116.316 23.717H112.895V27.1052H116.316V23.717Z" fill="#BA1C19"/>
<path d="M112.895 23.717H109.474V27.1052H112.895V23.717Z" fill="#BA1C19"/>
<path d="M109.474 23.717H106.053V27.1052H109.474V23.717Z" fill="#BA1C19"/>
<path d="M106.053 23.717H102.631V27.1052H106.053V23.717Z" fill="#BA1C19"/>
<path d="M102.631 23.717H99.2103V27.1052H102.631V23.717Z" fill="#C93E3B"/>
<path d="M99.211 23.717H95.7899V27.1052H99.211V23.717Z" fill="#C93E3B"/>
<path d="M95.7898 23.717H92.3688V27.1052H95.7898V23.717Z" fill="#C93E3B"/>
<path d="M92.3687 23.717H88.9476V27.1052H92.3687V23.717Z" fill="#C93E3B"/>
<path d="M88.9475 23.717H85.5265V27.1052H88.9475V23.717Z" fill="#BA1C19"/>
<path d="M85.5262 23.717H82.1051V27.1052H85.5262V23.717Z" fill="#BA1C19"/>
<path d="M82.105 23.717H78.684V27.1052H82.105V23.717Z" fill="#BA1C19"/>
<path d="M78.6839 23.717H75.2628V27.1052H78.6839V23.717Z" fill="#BA1C19"/>
<path d="M75.2633 23.717H71.8423V27.1052H75.2633V23.717Z" fill="#BA1C19"/>
<path d="M71.8422 23.717H68.4211V27.1052H71.8422V23.717Z" fill="#BA1C19"/>
<path d="M68.4211 23.717H65V27.1052H68.4211V23.717Z" fill="#BA1C19"/>
<path d="M64.9999 23.717H61.5789V27.1052H64.9999V23.717Z" fill="#C93E3B"/>
<path d="M61.5788 23.717H58.1577V27.1052H61.5788V23.717Z" fill="#BA1C19"/>
<path d="M58.1576 23.717H54.7366V27.1052H58.1576V23.717Z" fill="#BA1C19"/>
<path d="M54.7372 23.717H51.3162V27.1052H54.7372V23.717Z" fill="#BA1C19"/>
<path d="M51.316 23.717H47.8949V27.1052H51.316V23.717Z" fill="#BA1C19"/>
<path d="M47.8948 23.717H44.4738V27.1052H47.8948V23.717Z" fill="#BA1C19"/>
<path d="M44.4737 23.717H41.0526V27.1052H44.4737V23.717Z" fill="#BA1C19"/>
<path d="M41.0525 23.717H37.6315V27.1052H41.0525V23.717Z" fill="#BA1C19"/>
<path d="M37.6313 23.717H34.2102V27.1052H37.6313V23.717Z" fill="#BA1C19"/>
<path d="M34.211 23.717H30.7899V27.1052H34.211V23.717Z" fill="#BA1C19"/>
<path d="M30.7898 23.717H27.3688V27.1052H30.7898V23.717Z" fill="#C93E3B"/>
<path d="M27.3686 23.717H23.9475V27.1052H27.3686V23.717Z" fill="#BA1C19"/>
<path d="M23.9473 23.717H20.5262V27.1052H23.9473V23.717Z" fill="#BA1C19"/>
<path d="M20.5262 23.717H17.1051V27.1052H20.5262V23.717Z" fill="#BA1C19"/>
<path d="M17.105 23.717H13.684V27.1052H17.105V23.717Z" fill="#C93E3B"/>
<path d="M13.6845 23.717H10.2634V27.1052H13.6845V23.717Z" fill="#C93E3B"/>
</svg>
