<svg width="89" height="63" viewBox="0 0 89 63" fill="none" xmlns="http://www.w3.org/2000/svg">
<g clip-path="url(#clip0_602_742)">
<path d="M21.9401 19H18.8101V22.13H21.9401V19Z" fill="#7A8485"/>
<path d="M25.0799 19H21.9399V22.13H25.0799V19Z" fill="#515859"/>
<path d="M28.2101 19H25.0801V22.13H28.2101V19Z" fill="#424748"/>
<path d="M31.34 19H28.21V22.13H31.34V19Z" fill="#303435"/>
<path d="M34.4801 19H31.3501V22.13H34.4801V19Z" fill="#303435"/>
<path d="M18.7999 22.1299H15.6699V25.2699H18.7999V22.1299Z" fill="#7A8485"/>
<path d="M21.9401 22.1299H18.8101V25.2699H21.9401V22.1299Z" fill="#515859"/>
<path d="M25.0799 22.1299H21.9399V25.2699H25.0799V22.1299Z" fill="#424748"/>
<path d="M28.2101 22.1299H25.0801V25.2699H28.2101V22.1299Z" fill="#424748"/>
<path d="M31.34 22.1299H28.21V25.2699H31.34V22.1299Z" fill="#515859"/>
<path d="M34.4801 22.1299H31.3501V25.2699H34.4801V22.1299Z" fill="#515859"/>
<path d="M37.62 22.1299H34.48V25.2699H37.62V22.1299Z" fill="#424748"/>
<path d="M15.67 25.27H12.54V28.4H15.67V25.27Z" fill="#7A8485"/>
<path d="M18.7999 25.27H15.6699V28.4H18.7999V25.27Z" fill="#515859"/>
<path d="M21.9401 25.27H18.8101V28.4H21.9401V25.27Z" fill="#515859"/>
<path d="M25.0799 25.27H21.9399V28.4H25.0799V25.27Z" fill="#424748"/>
<path d="M28.2101 25.27H25.0801V28.4H28.2101V25.27Z" fill="#515859"/>
<path d="M31.34 25.27H28.21V28.4H31.34V25.27Z" fill="#515859"/>
<path d="M34.4801 25.27H31.3501V28.4H34.4801V25.27Z" fill="#515859"/>
<path d="M37.62 25.27H34.48V28.4H37.62V25.27Z" fill="#424748"/>
<path d="M40.7501 25.27H37.6201V28.4H40.7501V25.27Z" fill="#515859"/>
<path d="M9.40002 28.3999H6.27002V31.5299H9.40002V28.3999Z" fill="#7A8485"/>
<path d="M12.5299 28.3999H9.3999V31.5299H12.5299V28.3999Z" fill="#7A8485"/>
<path d="M15.67 28.3999H12.54V31.5299H15.67V28.3999Z" fill="#515859"/>
<path d="M18.7999 28.3999H15.6699V31.5299H18.7999V28.3999Z" fill="#424748"/>
<path d="M21.9401 28.3999H18.8101V31.5299H21.9401V28.3999Z" fill="#424748"/>
<path d="M25.0799 28.3999H21.9399V31.5299H25.0799V28.3999Z" fill="#515859"/>
<path d="M28.2101 28.3999H25.0801V31.5299H28.2101V28.3999Z" fill="#424748"/>
<path d="M31.34 28.3999H28.21V31.5299H31.34V28.3999Z" fill="#424748"/>
<path d="M34.4801 28.3999H31.3501V31.5299H34.4801V28.3999Z" fill="#424748"/>
<path d="M37.62 28.3999H34.48V31.5299H37.62V28.3999Z" fill="#515859"/>
<path d="M40.7501 28.3999H37.6201V31.5299H40.7501V28.3999Z" fill="#424748"/>
<path d="M6.25988 31.54H3.12988V34.67H6.25988V31.54Z" fill="#424748"/>
<path d="M9.40002 31.54H6.27002V34.67H9.40002V31.54Z" fill="#515859"/>
<path d="M12.5299 31.54H9.3999V34.67H12.5299V31.54Z" fill="#515859"/>
<path d="M15.67 31.54H12.54V34.67H15.67V31.54Z" fill="#515859"/>
<path d="M18.7999 31.54H15.6699V34.67H18.7999V31.54Z" fill="#424748"/>
<path d="M21.9401 31.54H18.8101V34.67H21.9401V31.54Z" fill="#7A8485"/>
<path d="M25.0799 31.54H21.9399V34.67H25.0799V31.54Z" fill="#424748"/>
<path d="M28.2101 31.54H25.0801V34.67H28.2101V31.54Z" fill="#515859"/>
<path d="M31.34 31.54H28.21V34.67H31.34V31.54Z" fill="#515859"/>
<path d="M34.4801 31.54H31.3501V34.67H34.4801V31.54Z" fill="#515859"/>
<path d="M37.62 31.54H34.48V34.67H37.62V31.54Z" fill="#424748"/>
<path d="M40.7501 31.54H37.6201V34.67H40.7501V31.54Z" fill="#303435"/>
<path d="M43.88 31.54H40.75V34.67H43.88V31.54Z" fill="#515859"/>
<path d="M3.13 34.6699H0V37.7999H3.13V34.6699Z" fill="#424748"/>
<path d="M6.25988 34.6699H3.12988V37.7999H6.25988V34.6699Z" fill="#515859"/>
<path d="M9.40002 34.6699H6.27002V37.7999H9.40002V34.6699Z" fill="#424748"/>
<path d="M12.5299 34.6699H9.3999V37.7999H12.5299V34.6699Z" fill="#515859"/>
<path d="M15.67 34.6699H12.54V37.7999H15.67V34.6699Z" fill="#7A8485"/>
<path d="M18.7999 34.6699H15.6699V37.7999H18.7999V34.6699Z" fill="#515859"/>
<path d="M21.9401 34.6699H18.8101V37.7999H21.9401V34.6699Z" fill="#515859"/>
<path d="M25.0799 34.6699H21.9399V37.7999H25.0799V34.6699Z" fill="#7A8485"/>
<path d="M28.2101 34.6699H25.0801V37.7999H28.2101V34.6699Z" fill="#7A8485"/>
<path d="M31.34 34.6699H28.21V37.7999H31.34V34.6699Z" fill="#424748"/>
<path d="M34.4801 34.6699H31.3501V37.7999H34.4801V34.6699Z" fill="#424748"/>
<path d="M37.62 34.6699H34.48V37.7999H37.62V34.6699Z" fill="#424748"/>
<path d="M40.7501 34.6699H37.6201V37.7999H40.7501V34.6699Z" fill="#303435"/>
<path d="M43.88 34.6699H40.75V37.7999H43.88V34.6699Z" fill="#202225"/>
<path d="M47.0099 34.6699H43.8799V37.7999H47.0099V34.6699Z" fill="#7A8485"/>
<path d="M3.13 37.8101H0V40.9401H3.13V37.8101Z" fill="#303435"/>
<path d="M6.25988 37.8101H3.12988V40.9401H6.25988V37.8101Z" fill="#515859"/>
<path d="M9.40002 37.8101H6.27002V40.9401H9.40002V37.8101Z" fill="#515859"/>
<path d="M12.5299 37.8101H9.3999V40.9401H12.5299V37.8101Z" fill="#515859"/>
<path d="M15.67 37.8101H12.54V40.9401H15.67V37.8101Z" fill="#424748"/>
<path d="M18.7999 37.8101H15.6699V40.9401H18.7999V37.8101Z" fill="#202225"/>
<path d="M21.9401 37.8101H18.8101V40.9401H21.9401V37.8101Z" fill="#424748"/>
<path d="M25.0799 37.8101H21.9399V40.9401H25.0799V37.8101Z" fill="#515859"/>
<path d="M28.2101 37.8101H25.0801V40.9401H28.2101V37.8101Z" fill="#515859"/>
<path d="M31.34 37.8101H28.21V40.9401H31.34V37.8101Z" fill="#424748"/>
<path d="M34.4801 37.8101H31.3501V40.9401H34.4801V37.8101Z" fill="#202225"/>
<path d="M37.62 37.8101H34.48V40.9401H37.62V37.8101Z" fill="#303435"/>
<path d="M40.7501 37.8101H37.6201V40.9401H40.7501V37.8101Z" fill="#202225"/>
<path d="M43.88 37.8101H40.75V40.9401H43.88V37.8101Z" fill="#303435"/>
<path d="M47.0099 37.8101H43.8799V40.9401H47.0099V37.8101Z" fill="#424748"/>
<path d="M50.15 37.8101H47.02V40.9401H50.15V37.8101Z" fill="#7A8485"/>
<path d="M3.13 40.9399H0V44.0699H3.13V40.9399Z" fill="#303435"/>
<path d="M6.25988 40.9399H3.12988V44.0699H6.25988V40.9399Z" fill="#515859"/>
<path d="M9.40002 40.9399H6.27002V44.0699H9.40002V40.9399Z" fill="#424748"/>
<path d="M12.5299 40.9399H9.3999V44.0699H12.5299V40.9399Z" fill="#424748"/>
<path d="M15.67 40.9399H12.54V44.0699H15.67V40.9399Z" fill="#202225"/>
<path d="M18.7999 40.9399H15.6699V44.0699H18.7999V40.9399Z" fill="#202225"/>
<path d="M21.9401 40.9399H18.8101V44.0699H21.9401V40.9399Z" fill="#202225"/>
<path d="M25.0799 40.9399H21.9399V44.0699H25.0799V40.9399Z" fill="#202225"/>
<path d="M28.2101 40.9399H25.0801V44.0699H28.2101V40.9399Z" fill="#424748"/>
<path d="M31.34 40.9399H28.21V44.0699H31.34V40.9399Z" fill="#202225"/>
<path d="M34.4801 40.9399H31.3501V44.0699H34.4801V40.9399Z" fill="#303435"/>
<path d="M37.62 40.9399H34.48V44.0699H37.62V40.9399Z" fill="#303435"/>
<path d="M40.7501 40.9399H37.6201V44.0699H40.7501V40.9399Z" fill="#202225"/>
<path d="M43.88 40.9399H40.75V44.0699H43.88V40.9399Z" fill="#202225"/>
<path d="M47.0099 40.9399H43.8799V44.0699H47.0099V40.9399Z" fill="#515859"/>
<path d="M50.15 40.9399H47.02V44.0699H50.15V40.9399Z" fill="#515859"/>
<path d="M53.2799 40.9399H50.1499V44.0699H53.2799V40.9399Z" fill="#515859"/>
<path d="M56.42 40.9399H53.29V44.0699H56.42V40.9399Z" fill="#424748"/>
<path d="M59.5499 40.9399H56.4199V44.0699H59.5499V40.9399Z" fill="#303435"/>
<path d="M3.13 44.0801H0V47.2101H3.13V44.0801Z" fill="#303435"/>
<path d="M6.25988 44.0801H3.12988V47.2101H6.25988V44.0801Z" fill="#303435"/>
<path d="M9.40002 44.0801H6.27002V47.2101H9.40002V44.0801Z" fill="#202225"/>
<path d="M12.5299 44.0801H9.3999V47.2101H12.5299V44.0801Z" fill="#202225"/>
<path d="M15.67 44.0801H12.54V47.2101H15.67V44.0801Z" fill="#202225"/>
<path d="M18.7999 44.0801H15.6699V47.2101H18.7999V44.0801Z" fill="#202225"/>
<path d="M21.9401 44.0801H18.8101V47.2101H21.9401V44.0801Z" fill="#202225"/>
<path d="M25.0799 44.0801H21.9399V47.2101H25.0799V44.0801Z" fill="#202225"/>
<path d="M28.2101 44.0801H25.0801V47.2101H28.2101V44.0801Z" fill="#202225"/>
<path d="M31.34 44.0801H28.21V47.2101H31.34V44.0801Z" fill="#424748"/>
<path d="M34.4801 44.0801H31.3501V47.2101H34.4801V44.0801Z" fill="#303435"/>
<path d="M37.62 44.0801H34.48V47.2101H37.62V44.0801Z" fill="#202225"/>
<path d="M40.7501 44.0801H37.6201V47.2101H40.7501V44.0801Z" fill="#303435"/>
<path d="M43.88 44.0801H40.75V47.2101H43.88V44.0801Z" fill="#202225"/>
<path d="M47.0099 44.0801H43.8799V47.2101H47.0099V44.0801Z" fill="#424748"/>
<path d="M50.15 44.0801H47.02V47.2101H50.15V44.0801Z" fill="#515859"/>
<path d="M53.2799 44.0801H50.1499V47.2101H53.2799V44.0801Z" fill="#424748"/>
<path d="M56.42 44.0801H53.29V47.2101H56.42V44.0801Z" fill="#515859"/>
<path d="M59.5499 44.0801H56.4199V47.2101H59.5499V44.0801Z" fill="#424748"/>
<path d="M6.25988 47.21H3.12988V50.34H6.25988V47.21Z" fill="#202225"/>
<path d="M9.40002 47.21H6.27002V50.34H9.40002V47.21Z" fill="#202225"/>
<path d="M12.5299 47.21H9.3999V50.34H12.5299V47.21Z" fill="#303435"/>
<path d="M15.67 47.21H12.54V50.34H15.67V47.21Z" fill="#202225"/>
<path d="M18.7999 47.21H15.6699V50.34H18.7999V47.21Z" fill="#202225"/>
<path d="M21.9401 47.21H18.8101V50.34H21.9401V47.21Z" fill="#202225"/>
<path d="M25.0799 47.21H21.9399V50.34H25.0799V47.21Z" fill="#202225"/>
<path d="M28.2101 47.21H25.0801V50.34H28.2101V47.21Z" fill="#303435"/>
<path d="M31.34 47.21H28.21V50.34H31.34V47.21Z" fill="#202225"/>
<path d="M34.4801 47.21H31.3501V50.34H34.4801V47.21Z" fill="#202225"/>
<path d="M37.62 47.21H34.48V50.34H37.62V47.21Z" fill="#303435"/>
<path d="M40.7501 47.21H37.6201V50.34H40.7501V47.21Z" fill="#202225"/>
<path d="M43.88 47.21H40.75V50.34H43.88V47.21Z" fill="#424748"/>
<path d="M47.0099 47.21H43.8799V50.34H47.0099V47.21Z" fill="#424748"/>
<path d="M50.15 47.21H47.02V50.34H50.15V47.21Z" fill="#515859"/>
<path d="M53.2799 47.21H50.1499V50.34H53.2799V47.21Z" fill="#424748"/>
<path d="M56.42 47.21H53.29V50.34H56.42V47.21Z" fill="#202225"/>
<path d="M59.5499 47.21H56.4199V50.34H59.5499V47.21Z" fill="#202225"/>
<path d="M6.25988 50.3501H3.12988V53.4801H6.25988V50.3501Z" fill="#303435"/>
<path d="M9.40002 50.3501H6.27002V53.4801H9.40002V50.3501Z" fill="#202225"/>
<path d="M12.5299 50.3501H9.3999V53.4801H12.5299V50.3501Z" fill="#202225"/>
<path d="M15.67 50.3501H12.54V53.4801H15.67V50.3501Z" fill="#303435"/>
<path d="M18.7999 50.3501H15.6699V53.4801H18.7999V50.3501Z" fill="#202225"/>
<path d="M21.9401 50.3501H18.8101V53.4801H21.9401V50.3501Z" fill="#202225"/>
<path d="M25.0799 50.3501H21.9399V53.4801H25.0799V50.3501Z" fill="#202225"/>
<path d="M28.2101 50.3501H25.0801V53.4801H28.2101V50.3501Z" fill="#202225"/>
<path d="M31.34 50.3501H28.21V53.4801H31.34V50.3501Z" fill="#303435"/>
<path d="M34.4801 50.3501H31.3501V53.4801H34.4801V50.3501Z" fill="#202225"/>
<path d="M37.62 50.3501H34.48V53.4801H37.62V50.3501Z" fill="#202225"/>
<path d="M40.7501 50.3501H37.6201V53.4801H40.7501V50.3501Z" fill="#202225"/>
<path d="M43.88 50.3501H40.75V53.4801H43.88V50.3501Z" fill="#515859"/>
<path d="M47.0099 50.3501H43.8799V53.4801H47.0099V50.3501Z" fill="#424748"/>
<path d="M50.15 50.3501H47.02V53.4801H50.15V50.3501Z" fill="#202225"/>
<path d="M53.2799 50.3501H50.1499V53.4801H53.2799V50.3501Z" fill="#202225"/>
<path d="M56.42 50.3501H53.29V53.4801H56.42V50.3501Z" fill="#202225"/>
<path d="M9.40002 53.48H6.27002V56.61H9.40002V53.48Z" fill="#303435"/>
<path d="M12.5299 53.48H9.3999V56.61H12.5299V53.48Z" fill="#303435"/>
<path d="M15.67 53.48H12.54V56.61H15.67V53.48Z" fill="#424748"/>
<path d="M18.7999 53.48H15.6699V56.61H18.7999V53.48Z" fill="#515859"/>
<path d="M21.9401 53.48H18.8101V56.61H21.9401V53.48Z" fill="#424748"/>
<path d="M25.0799 53.48H21.9399V56.61H25.0799V53.48Z" fill="#202225"/>
<path d="M28.2101 53.48H25.0801V56.61H28.2101V53.48Z" fill="#202225"/>
<path d="M31.34 53.48H28.21V56.61H31.34V53.48Z" fill="#202225"/>
<path d="M34.4801 53.48H31.3501V56.61H34.4801V53.48Z" fill="#202225"/>
<path d="M37.62 53.48H34.48V56.61H37.62V53.48Z" fill="#202225"/>
<path d="M40.7501 53.48H37.6201V56.61H40.7501V53.48Z" fill="#202225"/>
<path d="M43.88 53.48H40.75V56.61H43.88V53.48Z" fill="#202225"/>
<path d="M47.0099 53.48H43.8799V56.61H47.0099V53.48Z" fill="#202225"/>
<path d="M50.15 53.48H47.02V56.61H50.15V53.48Z" fill="#303435"/>
<path d="M53.2799 53.48H50.1499V56.61H53.2799V53.48Z" fill="#202225"/>
<path d="M56.42 53.48H53.29V56.61H56.42V53.48Z" fill="#303435"/>
<path d="M25.0799 56.6101H21.9399V59.7501H25.0799V56.6101Z" fill="#515859"/>
<path d="M28.2101 56.6101H25.0801V59.7501H28.2101V56.6101Z" fill="#7A8485"/>
<path d="M31.34 56.6101H28.21V59.7501H31.34V56.6101Z" fill="#7A8485"/>
<path d="M34.4801 56.6101H31.3501V59.7501H34.4801V56.6101Z" fill="#7A8485"/>
<path d="M37.62 56.6101H34.48V59.7501H37.62V56.6101Z" fill="#202225"/>
<path d="M40.7501 56.6101H37.6201V59.7501H40.7501V56.6101Z" fill="#202225"/>
<path d="M43.88 56.6101H40.75V59.7501H43.88V56.6101Z" fill="#515859"/>
<path d="M47.0099 56.6101H43.8799V59.7501H47.0099V56.6101Z" fill="#424748"/>
<path d="M50.15 56.6101H47.02V59.7501H50.15V56.6101Z" fill="#424748"/>
<path d="M53.2799 56.6101H50.1499V59.7501H53.2799V56.6101Z" fill="#303435"/>
<path d="M34.4801 59.75H31.3501V62.88H34.4801V59.75Z" fill="#515859"/>
<path d="M37.62 59.75H34.48V62.88H37.62V59.75Z" fill="#515859"/>
<path d="M40.7501 59.75H37.6201V62.88H40.7501V59.75Z" fill="#424748"/>
</g>
<g clip-path="url(#clip1_602_742)">
<path d="M66.4 0H63.27V3.13H66.4V0Z" fill="#7A8485"/>
<path d="M69.5299 0H66.3999V3.13H69.5299V0Z" fill="#515859"/>
<path d="M72.67 0H69.54V3.13H72.67V0Z" fill="#424748"/>
<path d="M75.7999 0H72.6699V3.13H75.7999V0Z" fill="#303435"/>
<path d="M78.9401 0H75.8101V3.13H78.9401V0Z" fill="#303435"/>
<path d="M63.2599 3.12988H60.1299V6.25988H63.2599V3.12988Z" fill="#7A8485"/>
<path d="M66.4 3.12988H63.27V6.25988H66.4V3.12988Z" fill="#515859"/>
<path d="M69.5299 3.12988H66.3999V6.25988H69.5299V3.12988Z" fill="#515859"/>
<path d="M72.67 3.12988H69.54V6.25988H72.67V3.12988Z" fill="#424748"/>
<path d="M75.7999 3.12988H72.6699V6.25988H75.7999V3.12988Z" fill="#515859"/>
<path d="M78.9401 3.12988H75.8101V6.25988H78.9401V3.12988Z" fill="#515859"/>
<path d="M82.0699 3.12988H78.9399V6.25988H82.0699V3.12988Z" fill="#303435"/>
<path d="M60.13 6.27002H57V9.40002H60.13V6.27002Z" fill="#515859"/>
<path d="M63.2599 6.27002H60.1299V9.40002H63.2599V6.27002Z" fill="#26282A"/>
<path d="M66.4 6.27002H63.27V9.40002H66.4V6.27002Z" fill="#424748"/>
<path d="M69.5299 6.27002H66.3999V9.40002H69.5299V6.27002Z" fill="#7A8485"/>
<path d="M72.67 6.27002H69.54V9.40002H72.67V6.27002Z" fill="#515859"/>
<path d="M75.7999 6.27002H72.6699V9.40002H75.7999V6.27002Z" fill="#424748"/>
<path d="M78.9401 6.27002H75.8101V9.40002H78.9401V6.27002Z" fill="#515859"/>
<path d="M82.0699 6.27002H78.9399V9.40002H82.0699V6.27002Z" fill="#303435"/>
<path d="M85.2101 6.27002H82.0801V9.40002H85.2101V6.27002Z" fill="#202225"/>
<path d="M60.13 9.3999H57V12.5299H60.13V9.3999Z" fill="#424748"/>
<path d="M63.2599 9.3999H60.1299V12.5299H63.2599V9.3999Z" fill="#424748"/>
<path d="M66.4 9.3999H63.27V12.5299H66.4V9.3999Z" fill="#515859"/>
<path d="M69.5299 9.3999H66.3999V12.5299H69.5299V9.3999Z" fill="#424748"/>
<path d="M72.67 9.3999H69.54V12.5299H72.67V9.3999Z" fill="#515859"/>
<path d="M75.7999 9.3999H72.6699V12.5299H75.7999V9.3999Z" fill="#7A8485"/>
<path d="M78.9401 9.3999H75.8101V12.5299H78.9401V9.3999Z" fill="#515859"/>
<path d="M82.0699 9.3999H78.9399V12.5299H82.0699V9.3999Z" fill="#424748"/>
<path d="M85.2101 9.3999H82.0801V12.5299H85.2101V9.3999Z" fill="#303435"/>
<path d="M60.13 12.54H57V15.67H60.13V12.54Z" fill="#303435"/>
<path d="M63.2599 12.54H60.1299V15.67H63.2599V12.54Z" fill="#202225"/>
<path d="M66.4 12.54H63.27V15.67H66.4V12.54Z" fill="#202225"/>
<path d="M69.5299 12.54H66.3999V15.67H69.5299V12.54Z" fill="#202225"/>
<path d="M72.67 12.54H69.54V15.67H72.67V12.54Z" fill="#202225"/>
<path d="M75.7999 12.54H72.6699V15.67H75.7999V12.54Z" fill="#202225"/>
<path d="M78.9401 12.54H75.8101V15.67H78.9401V12.54Z" fill="#515859"/>
<path d="M82.0699 12.54H78.9399V15.67H82.0699V12.54Z" fill="#202225"/>
<path d="M85.2101 12.54H82.0801V15.67H85.2101V12.54Z" fill="#303435"/>
<path d="M88.34 12.54H85.21V15.67H88.34V12.54Z" fill="#202225"/>
<path d="M63.2599 15.6699H60.1299V18.7999H63.2599V15.6699Z" fill="#303435"/>
<path d="M66.4 15.6699H63.27V18.7999H66.4V15.6699Z" fill="#515859"/>
<path d="M69.5299 15.6699H66.3999V18.7999H69.5299V15.6699Z" fill="#202225"/>
<path d="M72.67 15.6699H69.54V18.7999H72.67V15.6699Z" fill="#303435"/>
<path d="M75.7999 15.6699H72.6699V18.7999H75.7999V15.6699Z" fill="#202225"/>
<path d="M78.9401 15.6699H75.8101V18.7999H78.9401V15.6699Z" fill="#303435"/>
<path d="M82.0699 15.6699H78.9399V18.7999H82.0699V15.6699Z" fill="#202225"/>
<path d="M85.2101 15.6699H82.0801V18.7999H85.2101V15.6699Z" fill="#202225"/>
<path d="M88.34 15.6699H85.21V18.7999H88.34V15.6699Z" fill="#303435"/>
<path d="M69.5299 18.8101H66.3999V21.9401H69.5299V18.8101Z" fill="#515859"/>
<path d="M72.67 18.8101H69.54V21.9401H72.67V18.8101Z" fill="#7A8485"/>
<path d="M75.7999 18.8101H72.6699V21.9401H75.7999V18.8101Z" fill="#202225"/>
<path d="M78.9401 18.8101H75.8101V21.9401H78.9401V18.8101Z" fill="#202225"/>
<path d="M82.0699 18.8101H78.9399V21.9401H82.0699V18.8101Z" fill="#202225"/>
<path d="M85.2101 18.8101H82.0801V21.9401H85.2101V18.8101Z" fill="#303435"/>
<path d="M88.34 18.8101H85.21V21.9401H88.34V18.8101Z" fill="#303435"/>
<path d="M75.7999 21.9399H72.6699V25.0699H75.7999V21.9399Z" fill="#7A8485"/>
<path d="M78.9401 21.9399H75.8101V25.0699H78.9401V21.9399Z" fill="#515859"/>
<path d="M82.0699 21.9399H78.9399V25.0699H82.0699V21.9399Z" fill="#303435"/>
</g>
<defs>
<clipPath id="clip0_602_742">
<rect width="59.56" height="43.88" fill="white" transform="translate(0 19)"/>
</clipPath>
<clipPath id="clip1_602_742">
<rect width="31.34" height="25.08" fill="white" transform="translate(57)"/>
</clipPath>
</defs>
</svg>
