<svg width="48" height="41" viewBox="0 0 48 41" fill="none" xmlns="http://www.w3.org/2000/svg">
<g clip-path="url(#clip0_305_89784)">
<path d="M15.67 0H12.54V3.13H15.67V0Z" fill="#7A8485"/>
<path d="M18.8099 0H15.6699V3.13H18.8099V0Z" fill="#515859"/>
<path d="M21.9401 0H18.8101V3.13H21.9401V0Z" fill="#424748"/>
<path d="M9.40002 3.12988H6.27002V6.25988H9.40002V3.12988Z" fill="#7A8485"/>
<path d="M12.5399 3.12988H9.3999V6.25988H12.5399V3.12988Z" fill="#7A8485"/>
<path d="M15.67 3.12988H12.54V6.25988H15.67V3.12988Z" fill="#515859"/>
<path d="M18.8099 3.12988H15.6699V6.25988H18.8099V3.12988Z" fill="#424748"/>
<path d="M21.9401 3.12988H18.8101V6.25988H21.9401V3.12988Z" fill="#515859"/>
<path d="M25.0699 3.12988H21.9399V6.25988H25.0699V3.12988Z" fill="#303435"/>
<path d="M6.25988 6.27002H3.12988V9.40002H6.25988V6.27002Z" fill="#7A8485"/>
<path d="M9.40002 6.27002H6.27002V9.40002H9.40002V6.27002Z" fill="#515859"/>
<path d="M12.5399 6.27002H9.3999V9.40002H12.5399V6.27002Z" fill="#515859"/>
<path d="M15.67 6.27002H12.54V9.40002H15.67V6.27002Z" fill="#424748"/>
<path d="M18.8099 6.27002H15.6699V9.40002H18.8099V6.27002Z" fill="#424748"/>
<path d="M21.9401 6.27002H18.8101V9.40002H21.9401V6.27002Z" fill="#515859"/>
<path d="M25.0699 6.27002H21.9399V9.40002H25.0699V6.27002Z" fill="#424748"/>
<path d="M28.2101 6.27002H25.0801V9.40002H28.2101V6.27002Z" fill="#424748"/>
<path d="M31.34 6.27002H28.21V9.40002H31.34V6.27002Z" fill="#303435"/>
<path d="M34.4801 6.27002H31.3501V9.40002H34.4801V6.27002Z" fill="#303435"/>
<path d="M3.13 9.3999H0V12.5299H3.13V9.3999Z" fill="#515859"/>
<path d="M6.25988 9.3999H3.12988V12.5299H6.25988V9.3999Z" fill="#515859"/>
<path d="M9.40002 9.3999H6.27002V12.5299H9.40002V9.3999Z" fill="#515859"/>
<path d="M12.5399 9.3999H9.3999V12.5299H12.5399V9.3999Z" fill="#424748"/>
<path d="M15.67 9.3999H12.54V12.5299H15.67V9.3999Z" fill="#515859"/>
<path d="M18.8099 9.3999H15.6699V12.5299H18.8099V9.3999Z" fill="#424748"/>
<path d="M21.9401 9.3999H18.8101V12.5299H21.9401V9.3999Z" fill="#424748"/>
<path d="M25.0699 9.3999H21.9399V12.5299H25.0699V9.3999Z" fill="#424748"/>
<path d="M28.2101 9.3999H25.0801V12.5299H28.2101V9.3999Z" fill="#424748"/>
<path d="M31.34 9.3999H28.21V12.5299H31.34V9.3999Z" fill="#303435"/>
<path d="M34.4801 9.3999H31.3501V12.5299H34.4801V9.3999Z" fill="#303435"/>
<path d="M37.61 9.3999H34.48V12.5299H37.61V9.3999Z" fill="#202225"/>
<path d="M3.13 12.54H0V15.68H3.13V12.54Z" fill="#424748"/>
<path d="M6.25988 12.54H3.12988V15.68H6.25988V12.54Z" fill="#515859"/>
<path d="M9.40002 12.54H6.27002V15.68H9.40002V12.54Z" fill="#424748"/>
<path d="M12.5399 12.54H9.3999V15.68H12.5399V12.54Z" fill="#515859"/>
<path d="M15.67 12.54H12.54V15.68H15.67V12.54Z" fill="#515859"/>
<path d="M18.8099 12.54H15.6699V15.68H18.8099V12.54Z" fill="#515859"/>
<path d="M21.9401 12.54H18.8101V15.68H21.9401V12.54Z" fill="#7A8485"/>
<path d="M25.0699 12.54H21.9399V15.68H25.0699V12.54Z" fill="#424748"/>
<path d="M28.2101 12.54H25.0801V15.68H28.2101V12.54Z" fill="#303435"/>
<path d="M31.34 12.54H28.21V15.68H31.34V12.54Z" fill="#303435"/>
<path d="M34.4801 12.54H31.3501V15.68H34.4801V12.54Z" fill="#202225"/>
<path d="M37.61 12.54H34.48V15.68H37.61V12.54Z" fill="#303435"/>
<path d="M3.13 15.6699H0V18.7999H3.13V15.6699Z" fill="#424748"/>
<path d="M6.25988 15.6699H3.12988V18.7999H6.25988V15.6699Z" fill="#424748"/>
<path d="M9.40002 15.6699H6.27002V18.7999H9.40002V15.6699Z" fill="#515859"/>
<path d="M12.5399 15.6699H9.3999V18.7999H12.5399V15.6699Z" fill="#424748"/>
<path d="M15.67 15.6699H12.54V18.7999H15.67V15.6699Z" fill="#7A8485"/>
<path d="M18.8099 15.6699H15.6699V18.7999H18.8099V15.6699Z" fill="#202225"/>
<path d="M21.9401 15.6699H18.8101V18.7999H21.9401V15.6699Z" fill="#424748"/>
<path d="M25.0699 15.6699H21.9399V18.7999H25.0699V15.6699Z" fill="#7A8485"/>
<path d="M28.2101 15.6699H25.0801V18.7999H28.2101V15.6699Z" fill="#424748"/>
<path d="M31.34 15.6699H28.21V18.7999H31.34V15.6699Z" fill="#202225"/>
<path d="M34.4801 15.6699H31.3501V18.7999H34.4801V15.6699Z" fill="#303435"/>
<path d="M37.61 15.6699H34.48V18.7999H37.61V15.6699Z" fill="#202225"/>
<path d="M40.7401 15.6699H37.6101V18.7999H40.7401V15.6699Z" fill="#202225"/>
<path d="M6.25988 18.8101H3.12988V21.9401H6.25988V18.8101Z" fill="#303435"/>
<path d="M9.40002 18.8101H6.27002V21.9401H9.40002V18.8101Z" fill="#424748"/>
<path d="M12.5399 18.8101H9.3999V21.9401H12.5399V18.8101Z" fill="#303435"/>
<path d="M15.67 18.8101H12.54V21.9401H15.67V18.8101Z" fill="#202225"/>
<path d="M18.8099 18.8101H15.6699V21.9401H18.8099V18.8101Z" fill="#202225"/>
<path d="M21.9401 18.8101H18.8101V21.9401H21.9401V18.8101Z" fill="#303435"/>
<path d="M25.0699 18.8101H21.9399V21.9401H25.0699V18.8101Z" fill="#424748"/>
<path d="M28.2101 18.8101H25.0801V21.9401H28.2101V18.8101Z" fill="#515859"/>
<path d="M31.34 18.8101H28.21V21.9401H31.34V18.8101Z" fill="#303435"/>
<path d="M34.4801 18.8101H31.3501V21.9401H34.4801V18.8101Z" fill="#303435"/>
<path d="M37.61 18.8101H34.48V21.9401H37.61V18.8101Z" fill="#202225"/>
<path d="M40.7401 18.8101H37.6101V21.9401H40.7401V18.8101Z" fill="#303435"/>
<path d="M43.88 18.8101H40.75V21.9401H43.88V18.8101Z" fill="#202225"/>
<path d="M6.25988 21.9399H3.12988V25.0699H6.25988V21.9399Z" fill="#303435"/>
<path d="M9.40002 21.9399H6.27002V25.0699H9.40002V21.9399Z" fill="#303435"/>
<path d="M12.5399 21.9399H9.3999V25.0699H12.5399V21.9399Z" fill="#202225"/>
<path d="M15.67 21.9399H12.54V25.0699H15.67V21.9399Z" fill="#202225"/>
<path d="M18.8099 21.9399H15.6699V25.0699H18.8099V21.9399Z" fill="#202225"/>
<path d="M21.9401 21.9399H18.8101V25.0699H21.9401V21.9399Z" fill="#202225"/>
<path d="M25.0699 21.9399H21.9399V25.0699H25.0699V21.9399Z" fill="#202225"/>
<path d="M28.2101 21.9399H25.0801V25.0699H28.2101V21.9399Z" fill="#202225"/>
<path d="M31.34 21.9399H28.21V25.0699H31.34V21.9399Z" fill="#202225"/>
<path d="M34.4801 21.9399H31.3501V25.0699H34.4801V21.9399Z" fill="#303435"/>
<path d="M37.61 21.9399H34.48V25.0699H37.61V21.9399Z" fill="#303435"/>
<path d="M40.7401 21.9399H37.6101V25.0699H40.7401V21.9399Z" fill="#303435"/>
<path d="M43.88 21.9399H40.75V25.0699H43.88V21.9399Z" fill="#202225"/>
<path d="M47.0099 21.9399H43.8799V25.0699H47.0099V21.9399Z" fill="#202225"/>
<path d="M9.40002 25.0801H6.27002V28.2101H9.40002V25.0801Z" fill="#424748"/>
<path d="M12.5399 25.0801H9.3999V28.2101H12.5399V25.0801Z" fill="#202225"/>
<path d="M15.67 25.0801H12.54V28.2101H15.67V25.0801Z" fill="#202225"/>
<path d="M18.8099 25.0801H15.6699V28.2101H18.8099V25.0801Z" fill="#202225"/>
<path d="M21.9401 25.0801H18.8101V28.2101H21.9401V25.0801Z" fill="#202225"/>
<path d="M25.0699 25.0801H21.9399V28.2101H25.0699V25.0801Z" fill="#202225"/>
<path d="M28.2101 25.0801H25.0801V28.2101H28.2101V25.0801Z" fill="#303435"/>
<path d="M31.34 25.0801H28.21V28.2101H31.34V25.0801Z" fill="#303435"/>
<path d="M34.4801 25.0801H31.3501V28.2101H34.4801V25.0801Z" fill="#202225"/>
<path d="M37.61 25.0801H34.48V28.2101H37.61V25.0801Z" fill="#303435"/>
<path d="M40.7401 25.0801H37.6101V28.2101H40.7401V25.0801Z" fill="#202225"/>
<path d="M43.88 25.0801H40.75V28.2101H43.88V25.0801Z" fill="#303435"/>
<path d="M47.0099 25.0801H43.8799V28.2101H47.0099V25.0801Z" fill="#202225"/>
<path d="M9.40002 28.21H6.27002V31.34H9.40002V28.21Z" fill="#303435"/>
<path d="M12.5399 28.21H9.3999V31.34H12.5399V28.21Z" fill="#202225"/>
<path d="M15.67 28.21H12.54V31.34H15.67V28.21Z" fill="#202225"/>
<path d="M18.8099 28.21H15.6699V31.34H18.8099V28.21Z" fill="#202225"/>
<path d="M21.9401 28.21H18.8101V31.34H21.9401V28.21Z" fill="#202225"/>
<path d="M25.0699 28.21H21.9399V31.34H25.0699V28.21Z" fill="#202225"/>
<path d="M28.2101 28.21H25.0801V31.34H28.2101V28.21Z" fill="#202225"/>
<path d="M31.34 28.21H28.21V31.34H31.34V28.21Z" fill="#202225"/>
<path d="M34.4801 28.21H31.3501V31.34H34.4801V28.21Z" fill="#303435"/>
<path d="M37.61 28.21H34.48V31.34H37.61V28.21Z" fill="#202225"/>
<path d="M40.7401 28.21H37.6101V31.34H40.7401V28.21Z" fill="#303435"/>
<path d="M43.88 28.21H40.75V31.34H43.88V28.21Z" fill="#303435"/>
<path d="M47.0099 28.21H43.8799V31.34H47.0099V28.21Z" fill="#303435"/>
<path d="M12.5399 31.3401H9.3999V34.4701H12.5399V31.3401Z" fill="#303435"/>
<path d="M15.67 31.3401H12.54V34.4701H15.67V31.3401Z" fill="#424748"/>
<path d="M18.8099 31.3401H15.6699V34.4701H18.8099V31.3401Z" fill="#303435"/>
<path d="M21.9401 31.3401H18.8101V34.4701H21.9401V31.3401Z" fill="#202225"/>
<path d="M25.0699 31.3401H21.9399V34.4701H25.0699V31.3401Z" fill="#202225"/>
<path d="M28.2101 31.3401H25.0801V34.4701H28.2101V31.3401Z" fill="#202225"/>
<path d="M31.34 31.3401H28.21V34.4701H31.34V31.3401Z" fill="#202225"/>
<path d="M34.4801 31.3401H31.3501V34.4701H34.4801V31.3401Z" fill="#202225"/>
<path d="M37.61 31.3401H34.48V34.4701H37.61V31.3401Z" fill="#202225"/>
<path d="M40.7401 31.3401H37.6101V34.4701H40.7401V31.3401Z" fill="#202225"/>
<path d="M43.88 31.3401H40.75V34.4701H43.88V31.3401Z" fill="#202225"/>
<path d="M47.0099 31.3401H43.8799V34.4701H47.0099V31.3401Z" fill="#424748"/>
<path d="M18.8099 34.48H15.6699V37.61H18.8099V34.48Z" fill="#424748"/>
<path d="M21.9401 34.48H18.8101V37.61H21.9401V34.48Z" fill="#515859"/>
<path d="M25.0699 34.48H21.9399V37.61H25.0699V34.48Z" fill="#515859"/>
<path d="M28.2101 34.48H25.0801V37.61H28.2101V34.48Z" fill="#303435"/>
<path d="M31.34 34.48H28.21V37.61H31.34V34.48Z" fill="#303435"/>
<path d="M34.4801 34.48H31.3501V37.61H34.4801V34.48Z" fill="#202225"/>
<path d="M37.61 34.48H34.48V37.61H37.61V34.48Z" fill="#202225"/>
<path d="M40.7401 34.48H37.6101V37.61H40.7401V34.48Z" fill="#515859"/>
<path d="M43.88 34.48H40.75V37.61H43.88V34.48Z" fill="#424748"/>
<path d="M28.2101 37.6101H25.0801V40.7401H28.2101V37.6101Z" fill="#515859"/>
<path d="M31.34 37.6101H28.21V40.7401H31.34V37.6101Z" fill="#7A8485"/>
<path d="M34.4801 37.6101H31.3501V40.7401H34.4801V37.6101Z" fill="#7A8485"/>
<path d="M37.61 37.6101H34.48V40.7401H37.61V37.6101Z" fill="#515859"/>
</g>
<defs>
<clipPath id="clip0_305_89784">
<rect width="47.02" height="40.75" fill="white"/>
</clipPath>
</defs>
</svg>
