<svg width="342" height="342" viewBox="0 0 342 342" fill="none" xmlns="http://www.w3.org/2000/svg">
<path d="M100.388 0H61.187V5.60011H100.388V0Z" fill="#BE1D2C"/>
<path d="M122.773 5.6001H100.373V11.2001H122.773V5.6001Z" fill="#BE1D2C"/>
<path d="M139.573 11.2002H122.773V16.8003H139.573V11.2002Z" fill="#BE1D2C"/>
<path d="M150.773 16.8003H139.573V22.4003H150.773V16.8003Z" fill="#BE1D2C"/>
<path d="M161.973 22.4004H150.773V28.0005H161.973V22.4004Z" fill="#BE1D2C"/>
<path d="M173.174 28.0005H161.974V33.6005H173.174V28.0005Z" fill="#BE1D2C"/>
<path d="M184.374 33.6001H173.174V39.2002H184.374V33.6001Z" fill="#BE1D2C"/>
<path d="M189.974 39.2002H184.374V44.8002H189.974V39.2002Z" fill="#BE1D2C"/>
<path d="M195.574 44.8003H189.974V50.4004H195.574V44.8003Z" fill="#BE1D2C"/>
<path d="M201.174 50.4004H195.574V56.0004H201.174V50.4004Z" fill="#BE1D2C"/>
<path d="M206.774 56.001H201.174V61.6011H206.774V56.001Z" fill="#BE1D2C"/>
<path d="M212.374 61.5859H206.774V67.186H212.374V61.5859Z" fill="#BE1D2C"/>
<path d="M217.974 67.186H212.374V78.3863H217.974V67.186Z" fill="#BE1D2C"/>
<path d="M223.559 78.3862H217.959V89.5864H223.559V78.3862Z" fill="#BE1D2C"/>
<path d="M229.159 89.5864H223.559V100.787H229.159V89.5864Z" fill="#BE1D2C"/>
<path d="M234.759 100.787H229.159V111.987H234.759V100.787Z" fill="#BE1D2C"/>
<path d="M240.359 111.987H234.759V123.187H240.359V111.987Z" fill="#BE1D2C"/>
<path d="M245.959 123.187H240.359V151.187H245.959V123.187Z" fill="#BE1D2C"/>
<path d="M38.7868 11.2002L61.187 11.2002V5.60018L38.7868 5.60018V11.2002Z" fill="#BE1D2C"/>
<path d="M21.9865 16.8003L38.7866 16.8003V11.2002L21.9865 11.2002V16.8003Z" fill="#BE1D2C"/>
<path d="M10.7864 22.4004H21.9866V16.8004H10.7864V22.4004Z" fill="#BE1D2C"/>
<path d="M-0.398859 28.0005H10.8013V22.4004H-0.398859V28.0005Z" fill="#BE1D2C"/>
<path d="M251.56 151.187H245.96V190.388H251.56V151.187Z" fill="#BE1D2C"/>
<path d="M61.1721 341.56H100.373V335.96H61.1721V341.56Z" fill="#BE1D2C"/>
<path d="M38.7868 335.959H61.187V330.359H38.7868V335.959Z" fill="#BE1D2C"/>
<path d="M21.9865 330.359H38.7866V324.759H21.9865V330.359Z" fill="#BE1D2C"/>
<path d="M10.7864 324.774H21.9866V319.174H10.7864V324.774Z" fill="#BE1D2C"/>
<path d="M-0.398859 319.174H10.8013V313.574H-0.398859V319.174Z" fill="#BE1D2C"/>
<path d="M122.773 330.359H100.373V335.959H122.773V330.359Z" fill="#BE1D2C"/>
<path d="M139.573 324.759H122.773V330.359H139.573V324.759Z" fill="#A52636"/>
<path d="M150.773 319.159H139.573V324.759H150.773V319.159Z" fill="#A52636"/>
<path d="M161.973 313.559H150.773V319.159H161.973V313.559Z" fill="#A52636"/>
<path d="M173.174 307.959H161.974V313.559H173.174V307.959Z" fill="#A52636"/>
<path d="M184.374 302.359H173.174V307.959H184.374V302.359Z" fill="#A52636"/>
<path d="M189.974 296.774H184.374V302.374H189.974V296.774Z" fill="#A52636"/>
<path d="M195.574 291.174H189.974V296.774H195.574V291.174Z" fill="#A52636"/>
<path d="M201.174 285.574H195.574V291.174H201.174V285.574Z" fill="#A52636"/>
<path d="M206.774 279.974H201.174V285.574H206.774V279.974Z" fill="#A52636"/>
<path d="M212.374 274.374H206.774V279.974H212.374V274.374Z" fill="#A52636"/>
<path d="M217.974 263.174H212.374V274.374H217.974V263.174Z" fill="#A52636"/>
<path d="M223.559 251.973H217.959V263.174H223.559V251.973Z" fill="#A52636"/>
<path d="M229.159 240.773H223.559V251.973H229.159V240.773Z" fill="#A52636"/>
<path d="M234.759 229.573H229.159V240.773H234.759V229.573Z" fill="#A52636"/>
<path d="M240.359 218.373H234.759V229.573H240.359V218.373Z" fill="#A52636"/>
<path d="M245.959 190.373H240.359V218.373H245.959V190.373Z" fill="#A52636"/>
<path d="M10.7863 207.173H5.18628V212.773H10.7863V207.173Z" fill="#FF734D"/>
<path d="M10.7863 212.773H5.18628V218.373H10.7863V212.773Z" fill="#FF734D"/>
<path d="M5.18629 218.373H-0.413818V223.973H5.18629V218.373Z" fill="#FF734D"/>
<path d="M5.18629 195.973H-0.413818V207.173H5.18629V195.973Z" fill="#FF734D"/>
<path d="M195.574 162.387H167.573V167.987H195.574V162.387Z" fill="#FF433E"/>
<path d="M212.374 156.787H195.574V162.387H212.374V156.787Z" fill="#FF433E"/>
<path d="M217.974 162.387H212.374V167.987H217.974V162.387Z" fill="#FF433E"/>
<path d="M223.559 167.987H217.959V173.587H223.559V167.987Z" fill="#FF433E"/>
<path d="M229.159 179.187H223.559V184.787H229.159V179.187Z" fill="#FF433E"/>
<path d="M223.559 173.587H217.959V179.187H223.559V173.587Z" fill="#FF433E"/>
<path d="M223.559 184.772H217.959V190.372H223.559V184.772Z" fill="#FF433E"/>
<path d="M217.974 190.373H212.374V201.573H217.974V190.373Z" fill="#FF433E"/>
<path d="M212.374 201.573H206.774V207.173H212.374V201.573Z" fill="#A52636"/>
<path d="M206.774 207.173H201.174V212.773H206.774V207.173Z" fill="#A52636"/>
<path d="M201.174 212.773H184.374V218.373H201.174V212.773Z" fill="#A52636"/>
<path d="M184.374 218.373H173.174V223.973H184.374V218.373Z" fill="#A52636"/>
<path d="M173.173 207.173H167.573V218.373H173.173V207.173Z" fill="#A52636"/>
<path d="M167.574 195.973H161.974V207.173H167.574V195.973Z" fill="#A52636"/>
<path d="M173.173 184.772H167.573V195.973H173.173V184.772Z" fill="#A52636"/>
<path d="M167.574 167.987H161.974V184.787H167.574V167.987Z" fill="#FF433E"/>
<path d="M195.574 156.787H184.374V162.387H195.574V156.787Z" fill="#7A2130"/>
<path d="M21.9867 263.174H10.7864V268.774H21.9867V263.174Z" fill="#7A2130"/>
<path d="M44.3868 257.573H33.1866V263.174H44.3868V257.573Z" fill="#7A2130"/>
<path d="M55.5868 274.374H44.3867V279.974H55.5868V274.374Z" fill="#7A2130"/>
<path d="M66.787 291.174H44.3867V296.774H66.787V291.174Z" fill="#7A2130"/>
<path d="M77.9872 263.174H66.7871V279.974H77.9872V263.174Z" fill="#3D0320"/>
<path d="M100.387 268.773H89.1873V279.974H100.387V268.773Z" fill="#3D0320"/>
<path d="M89.1873 246.373H72.3871V251.973H89.1873V246.373Z" fill="#3D0320"/>
<path d="M117.173 257.573H105.973V263.174H117.173V257.573Z" fill="#7A2130"/>
<path d="M128.373 285.574H117.173V296.774H128.373V285.574Z" fill="#7A2130"/>
<path d="M89.1873 285.574H77.9872V296.774H89.1873V285.574Z" fill="#7A2130"/>
<path d="M94.7873 257.573H89.1873V263.174H94.7873V257.573Z" fill="#7A2130"/>
<path d="M111.573 246.373H100.373V251.973H111.573V246.373Z" fill="#3D0320"/>
<path d="M128.373 240.773H117.173V246.373H128.373V240.773Z" fill="#7A2130"/>
<path d="M100.387 240.773H89.1873V251.973H100.387V240.773Z" fill="#3D0320"/>
<path d="M105.973 251.973H100.373V257.573H105.973V251.973Z" fill="#7A2130"/>
<path d="M128.373 251.973H117.173V257.573H128.373V251.973Z" fill="#7A2130"/>
<path d="M139.573 268.773H128.373V274.374H139.573V268.773Z" fill="#7A2130"/>
<path d="M117.173 268.773H105.973V274.374H117.173V268.773Z" fill="#7A2130"/>
<path d="M133.973 257.573H122.773V268.774H133.973V257.573Z" fill="#3D0320"/>
<path d="M150.773 251.973H133.973V263.174H150.773V251.973Z" fill="#7A2130"/>
<path d="M156.373 240.773H133.973V251.973H156.373V240.773Z" fill="#7A2130"/>
<path d="M27.5867 274.374H10.7864V279.974H27.5867V274.374Z" fill="#3D0320"/>
<path d="M38.7867 268.773H33.1866V274.374H38.7867V268.773Z" fill="#3D0320"/>
<path d="M44.3868 279.974H33.1866V285.574H44.3868V279.974Z" fill="#3D0320"/>
<path d="M61.1869 263.174H49.9868V268.774H61.1869V263.174Z" fill="#3D0320"/>
<path d="M150.773 229.573H139.573V235.173H150.773V229.573Z" fill="#7A2130"/>
<path d="M167.573 212.773H156.373V223.973H167.573V212.773Z" fill="#7A2130"/>
<path d="M178.773 229.573H167.573V235.173H178.773V229.573Z" fill="#7A2130"/>
<path d="M201.174 223.973H189.974V229.573H201.174V223.973Z" fill="#7A2130"/>
<path d="M201.174 218.373H184.374V223.973H201.174V218.373Z" fill="#7A2130"/>
<path d="M173.174 240.773H161.974V251.973H173.174V240.773Z" fill="#7A2130"/>
<path d="M161.973 229.573H156.373V235.173H161.973V229.573Z" fill="#7A2130"/>
<path d="M234.759 162.387H223.559V179.187H234.759V162.387Z" fill="#7A2130"/>
<path d="M229.159 151.187H223.559V167.987H229.159V151.187Z" fill="#7A2130"/>
<path d="M240.359 139.987H229.159V145.587H240.359V139.987Z" fill="#7A2130"/>
<path d="M217.974 145.587H212.374V156.787H217.974V145.587Z" fill="#7A2130"/>
<path d="M240.359 156.787H234.759V167.987H240.359V156.787Z" fill="#7A2130"/>
<path d="M223.574 207.173H212.374V212.773H223.574V207.173Z" fill="#7A2130"/>
<path d="M234.759 190.373H223.559V201.573H234.759V190.373Z" fill="#7A2130"/>
<path d="M5.18629 274.374H-0.413818V279.974H5.18629V274.374Z" fill="#7A2130"/>
<path d="M117.173 235.173H105.973V240.773H117.173V235.173Z" fill="#7A2130"/>
<path d="M122.773 11.2002H100.373V16.8003H122.773V11.2002Z" fill="#F15A28"/>
<path d="M100.388 5.6001H61.187V11.2001H100.388V5.6001Z" fill="#F15A28"/>
<path d="M139.573 16.8003H122.773V22.4003H139.573V16.8003Z" fill="#F15A28"/>
<path d="M150.773 22.4004H139.573V28.0005H150.773V22.4004Z" fill="#F15A28"/>
<path d="M161.973 28.0005H150.773V33.6005H161.973V28.0005Z" fill="#F15A28"/>
<path d="M173.173 33.6001H167.573V39.2002H173.173V33.6001Z" fill="#F15A28"/>
<path d="M167.574 33.6001H161.974V39.2002H167.574V33.6001Z" fill="#F15A28"/>
<path d="M184.374 39.2002H173.174V44.8002H184.374V39.2002Z" fill="#F15A28"/>
<path d="M189.974 44.8003H184.374V50.4004H189.974V44.8003Z" fill="#F15A28"/>
<path d="M195.574 50.4004H189.974V56.0004H195.574V50.4004Z" fill="#F15A28"/>
<path d="M201.174 56.001H195.574V61.6011H201.174V56.001Z" fill="#F15A28"/>
<path d="M206.774 61.5859H201.174V67.186H206.774V61.5859Z" fill="#F15A28"/>
<path d="M212.374 67.186H206.774V78.3863H212.374V67.186Z" fill="#F15A28"/>
<path d="M217.974 78.3862H212.374V89.5864H217.974V78.3862Z" fill="#F15A28"/>
<path d="M223.559 95.1865H217.959V100.787H223.559V95.1865Z" fill="#F15A28"/>
<path d="M223.559 89.5864H217.959V95.1864H223.559V89.5864Z" fill="#F15A28"/>
<path d="M229.159 100.787H223.559V111.987H229.159V100.787Z" fill="#F15A28"/>
<path d="M234.759 111.987H229.159V123.187H234.759V111.987Z" fill="#F15A28"/>
<path d="M240.359 123.187H234.759V139.987H240.359V123.187Z" fill="#F15A28"/>
<path d="M111.588 22.4004H94.7874V33.6005H111.588V22.4004Z" fill="#F15A28"/>
<path d="M128.373 28.0005H117.173V33.6005H128.373V28.0005Z" fill="#F15A28"/>
<path d="M145.173 33.6001H139.573V39.2002H145.173V33.6001Z" fill="#F15A28"/>
<path d="M161.973 44.8003H156.373V56.0004H161.973V44.8003Z" fill="#F15A28"/>
<path d="M173.173 56.001H167.573V61.6011H173.173V56.001Z" fill="#F15A28"/>
<path d="M184.374 56.001H178.773V61.6011H184.374V56.001Z" fill="#F15A28"/>
<path d="M201.174 67.186H195.574V78.3863H201.174V67.186Z" fill="#F15A28"/>
<path d="M189.974 72.7861H184.374V78.3862H189.974V72.7861Z" fill="#F15A28"/>
<path d="M195.574 61.5859H189.974V67.186H195.574V61.5859Z" fill="#F15A28"/>
<path d="M212.374 83.9863H201.174V89.5864H212.374V83.9863Z" fill="#F15A28"/>
<path d="M217.974 100.787H212.374V106.387H217.974V100.787Z" fill="#F15A28"/>
<path d="M83.5873 16.8003H66.7871V22.4003H83.5873V16.8003Z" fill="#F15A28"/>
<path d="M133.973 39.2002H128.373V44.8002H133.973V39.2002Z" fill="#F15A28"/>
<path d="M150.773 44.8003H145.173V50.4004H150.773V44.8003Z" fill="#F15A28"/>
<path d="M223.559 117.586H217.959V128.787H223.559V117.586Z" fill="#F15A28"/>
<path d="M234.759 134.387H229.159V139.987H234.759V134.387Z" fill="#F15A28"/>
<path d="M240.359 145.587H234.759V156.787H240.359V145.587Z" fill="#F15A28"/>
<path d="M156.373 61.5859H145.173V72.7861H156.373V61.5859Z" fill="#FF834D"/>
<path d="M178.774 78.3862H173.174V89.5864H178.774V78.3862Z" fill="#F15A28"/>
<path d="M201.174 95.1865H195.574V106.387H201.174V95.1865Z" fill="#F15A28"/>
<path d="M55.5868 22.4004H44.3867V33.6005H55.5868V22.4004Z" fill="#F15A28"/>
<path d="M122.773 67.186H111.573V72.7861H122.773V67.186Z" fill="#F15A28"/>
<path d="M145.173 78.3862H139.573V83.9862H145.173V78.3862Z" fill="#F15A28"/>
<path d="M117.173 83.9863H100.373V89.5864H117.173V83.9863Z" fill="#F15A28"/>
<path d="M150.773 95.1865H133.973V100.787H150.773V95.1865Z" fill="#F15A28"/>
<path d="M66.7871 100.787H49.9868V106.387H66.7871V100.787Z" fill="#F15A28"/>
<path d="M105.987 106.387H94.7874V111.987H105.987V106.387Z" fill="#F15A28"/>
<path d="M133.973 106.387H117.173V117.587H133.973V106.387Z" fill="#F15A28"/>
<path d="M83.5872 78.3862H72.3871V89.5864H83.5872V78.3862Z" fill="#F15A28"/>
<path d="M117.173 95.1865H105.973V100.787H117.173V95.1865Z" fill="#F15A28"/>
<path d="M139.573 72.7861H128.373V83.9863H139.573V72.7861Z" fill="#F15A28"/>
<path d="M94.7873 95.1865H83.5872V100.787H94.7873V95.1865Z" fill="#F15A28"/>
<path d="M83.5872 111.987H72.3871V123.187H83.5872V111.987Z" fill="#F15A28"/>
<path d="M49.9867 123.187H44.3867V128.787H49.9867V123.187Z" fill="#F15A28"/>
<path d="M38.7868 128.787H16.3865V139.987H38.7868V128.787Z" fill="#F15A28"/>
<path d="M38.7868 106.387H16.3865V117.587H38.7868V106.387Z" fill="#F15A28"/>
<path d="M66.7871 111.987H61.187V117.587H66.7871V111.987Z" fill="#F15A28"/>
<path d="M77.9872 89.5864H72.3871V100.787H77.9872V89.5864Z" fill="#F15A28"/>
<path d="M66.787 89.5864H55.5869V95.1864H66.787V89.5864Z" fill="#F15A28"/>
<path d="M94.7873 83.9863H89.1873V89.5864H94.7873V83.9863Z" fill="#F15A28"/>
<path d="M128.373 83.9863H117.173V89.5864H128.373V83.9863Z" fill="#F15A28"/>
<path d="M122.773 78.3862H117.173V83.9862H122.773V78.3862Z" fill="#F15A28"/>
<path d="M117.173 106.387H111.573V111.987H117.173V106.387Z" fill="#F15A28"/>
<path d="M100.387 117.586H83.5872V128.787H100.387V117.586Z" fill="#F15A28"/>
<path d="M111.573 123.187H105.973V128.787H111.573V123.187Z" fill="#F15A28"/>
<path d="M72.3871 128.787H61.187V134.387H72.3871V128.787Z" fill="#F15A28"/>
<path d="M49.9867 134.387H44.3867V145.587H49.9867V134.387Z" fill="#F15A28"/>
<path d="M61.1869 117.586H55.5869V128.787H61.1869V117.586Z" fill="#F15A28"/>
<path d="M5.18629 145.587H-0.413818V156.787H5.18629V145.587Z" fill="#F15A28"/>
<path d="M10.7863 139.987H-0.413818V151.187H10.7863V139.987Z" fill="#F15A28"/>
<path d="M16.3864 123.187H5.18628V134.387H16.3864V123.187Z" fill="#F15A28"/>
<path d="M27.5867 123.187H21.9866V128.787H27.5867V123.187Z" fill="#F15A28"/>
<path d="M10.7863 111.987H-0.413818V123.187H10.7863V111.987Z" fill="#F15A28"/>
<path d="M167.573 89.5864H156.373V95.1864H167.573V89.5864Z" fill="#F15A28"/>
<path d="M167.573 106.387H150.773V117.587H167.573V106.387Z" fill="#F15A28"/>
<path d="M156.373 123.187H139.573V134.387H156.373V123.187Z" fill="#F15A28"/>
<path d="M139.573 128.787H122.773V139.987H139.573V128.787Z" fill="#F15A28"/>
<path d="M150.773 106.387H145.173V117.587H150.773V106.387Z" fill="#F15A28"/>
<path d="M189.974 89.5864H178.773V100.787H189.974V89.5864Z" fill="#F15A28"/>
<path d="M167.573 67.186H156.373V72.7861H167.573V67.186Z" fill="#F15A28"/>
<path d="M83.5872 139.987H72.3871V145.587H83.5872V139.987Z" fill="#F15A28"/>
<path d="M105.987 134.387H94.7874V139.987H105.987V134.387Z" fill="#F15A28"/>
<path d="M105.973 95.1865H100.373V106.387H105.973V95.1865Z" fill="#F15A28"/>
<path d="M128.373 95.1865H122.773V100.787H128.373V95.1865Z" fill="#F15A28"/>
<path d="M94.7873 111.987H83.5872V117.587H94.7873V111.987Z" fill="#F15A28"/>
<path d="M156.373 89.5864H145.173V95.1864H156.373V89.5864Z" fill="#F15A28"/>
<path d="M234.759 145.587H229.159V162.387H234.759V145.587Z" fill="#93223A"/>
<path d="M217.974 156.787H212.374V162.387H217.974V156.787Z" fill="#93223A"/>
<path d="M223.559 151.187H217.959V167.987H223.559V151.187Z" fill="#93223A"/>
<path d="M229.159 139.987H223.559V151.187H229.159V139.987Z" fill="#93223A"/>
<path d="M223.559 145.587H217.959V151.187H223.559V145.587Z" fill="#93223A"/>
<path d="M212.374 151.187H184.374V156.787H212.374V151.187Z" fill="#93223A"/>
<path d="M184.373 156.787H167.573V162.387H184.373V156.787Z" fill="#93223A"/>
<path d="M167.573 162.387H156.373V167.987H167.573V162.387Z" fill="#93223A"/>
<path d="M161.973 167.987H156.373V190.388H161.973V167.987Z" fill="#93223A"/>
<path d="M167.574 184.772H161.974V195.973H167.574V184.772Z" fill="#93223A"/>
<path d="M167.573 207.173H156.373V212.773H167.573V207.173Z" fill="#93223A"/>
<path d="M161.973 195.973H156.373V207.173H161.973V195.973Z" fill="#93223A"/>
<path d="M156.373 212.773H150.773V223.973H156.373V212.773Z" fill="#93223A"/>
<path d="M173.173 218.373H167.573V229.573H173.173V218.373Z" fill="#93223A"/>
<path d="M167.573 223.973H156.373V229.573H167.573V223.973Z" fill="#93223A"/>
<path d="M189.974 223.973H173.174V229.573H189.974V223.973Z" fill="#93223A"/>
<path d="M234.759 123.187H223.559V134.387H234.759V123.187Z" fill="#BE1D2C"/>
<path d="M229.159 134.387H217.959V139.987H229.159V134.387Z" fill="#BE1D2C"/>
<path d="M223.574 139.987H212.374V145.587H223.574V139.987Z" fill="#BE1D2C"/>
<path d="M161.973 156.787H150.773V162.387H161.973V156.787Z" fill="#EF4036"/>
<path d="M178.773 151.187H167.573V156.787H178.773V151.187Z" fill="#EF4036"/>
<path d="M184.374 151.187H178.773V156.787H184.374V151.187Z" fill="#EF4036"/>
<path d="M167.574 156.787H161.974V162.387H167.574V156.787Z" fill="#EF4036"/>
<path d="M167.574 145.587H161.974V151.187H167.574V145.587Z" fill="#EF4036"/>
<path d="M201.174 139.987H178.773V145.587H201.174V139.987Z" fill="#EF4036"/>
<path d="M212.374 145.587H201.174V151.187H212.374V145.587Z" fill="#EF4036"/>
<path d="M201.174 128.787H195.574V134.387H201.174V128.787Z" fill="#EF4036"/>
<path d="M212.374 128.787H206.774V134.387H212.374V128.787Z" fill="#EF4036"/>
<path d="M184.373 117.586H167.573V128.787H184.373V117.586Z" fill="#EF4036"/>
<path d="M189.974 106.387H184.374V117.587H189.974V106.387Z" fill="#EF4036"/>
<path d="M178.774 100.787H173.174V111.987H178.774V100.787Z" fill="#EF4036"/>
<path d="M184.374 111.987H178.773V117.587H184.374V111.987Z" fill="#EF4036"/>
<path d="M189.974 117.586H184.374V128.787H189.974V117.586Z" fill="#EF4036"/>
<path d="M195.574 128.787H189.974V139.987H195.574V128.787Z" fill="#EF4036"/>
<path d="M189.974 128.787H178.773V134.387H189.974V128.787Z" fill="#EF4036"/>
<path d="M201.174 145.587H178.773V151.187H201.174V145.587Z" fill="#EF4036"/>
<path d="M173.173 111.987H167.573V117.587H173.173V111.987Z" fill="#EF4036"/>
<path d="M189.974 134.387H173.174V139.987H189.974V134.387Z" fill="#FF433E"/>
<path d="M167.574 128.787H161.974V139.987H167.574V128.787Z" fill="#EF4036"/>
<path d="M178.773 128.787H167.573V134.387H178.773V128.787Z" fill="#EF4036"/>
<path d="M173.173 134.387H167.573V139.987H173.173V134.387Z" fill="#EF4036"/>
<path d="M178.774 139.987H173.174V145.587H178.774V139.987Z" fill="#EF4036"/>
<path d="M145.173 56.001H128.373V67.2011H145.173V56.001Z" fill="#EF4036"/>
<path d="M133.973 67.186H122.773V72.7861H133.973V67.186Z" fill="#EF4036"/>
<path d="M145.173 72.7861H139.573V78.3862H145.173V72.7861Z" fill="#EF4036"/>
<path d="M145.173 67.186H133.973V72.7861H145.173V67.186Z" fill="#EF4036"/>
<path d="M133.973 50.4004H122.773V56.0004H133.973V50.4004Z" fill="#EF4036"/>
<path d="M139.573 39.2002H133.973V50.4003H139.573V39.2002Z" fill="#EF4036"/>
<path d="M122.773 16.8003H105.973V22.4003H122.773V16.8003Z" fill="#EF4036"/>
<path d="M117.173 22.4004H111.573V33.6005H117.173V22.4004Z" fill="#EF4036"/>
<path d="M139.573 22.4004H117.173V28.0005H139.573V22.4004Z" fill="#EF4036"/>
<path d="M150.773 28.0005H139.573V33.6005H150.773V28.0005Z" fill="#EF4036"/>
<path d="M161.973 33.6001H150.773V39.2002H161.973V33.6001Z" fill="#EF4036"/>
<path d="M139.573 28.0005H128.373V33.6005H139.573V28.0005Z" fill="#EF4036"/>
<path d="M100.388 11.2002H61.187V16.8003H100.388V11.2002Z" fill="#EF4036"/>
<path d="M105.987 16.8003H94.7874V22.4003H105.987V16.8003Z" fill="#EF4036"/>
<path d="M66.787 11.2002H44.3867V16.8003H66.787V11.2002Z" fill="#EF4036"/>
<path d="M94.7873 16.8003H83.5872V22.4003H94.7873V16.8003Z" fill="#EF4036"/>
<path d="M201.174 106.387H195.574V117.587H201.174V106.387Z" fill="#EF4036"/>
<path d="M217.974 89.5864H206.774V100.787H217.974V89.5864Z" fill="#EF4036"/>
<path d="M223.559 100.787H217.959V117.587H223.559V100.787Z" fill="#EF4036"/>
<path d="M229.159 111.987H223.559V123.187H229.159V111.987Z" fill="#EF4036"/>
<path d="M217.974 106.387H212.374V134.387H217.974V106.387Z" fill="#EF4036"/>
<path d="M223.559 128.787H217.959V134.387H223.559V128.787Z" fill="#EF4036"/>
<path d="M217.974 134.387H212.374V139.987H217.974V134.387Z" fill="#EF4036"/>
<path d="M212.374 139.987H201.174V145.587H212.374V139.987Z" fill="#EF4036"/>
<path d="M212.374 100.787H206.774V134.387H212.374V100.787Z" fill="#FF433E"/>
<path d="M206.774 100.787H201.174V123.187H206.774V100.787Z" fill="#FF433E"/>
<path d="M195.574 106.387H189.974V128.787H195.574V106.387Z" fill="#FF433E"/>
<path d="M201.174 117.586H195.574V128.787H201.174V117.586Z" fill="#FF433E"/>
<path d="M206.774 123.187H201.174V139.987H206.774V123.187Z" fill="#FF433E"/>
<path d="M201.174 134.387H195.574V139.987H201.174V134.387Z" fill="#FF433E"/>
<path d="M212.374 134.387H206.774V139.987H212.374V134.387Z" fill="#FF433E"/>
<path d="M94.7874 22.4004H66.7871V33.6005H94.7874V22.4004Z" fill="#FF433E"/>
<path d="M145.173 33.6001H100.373V39.2002H145.173V33.6001Z" fill="#FF734D"/>
<path d="M150.773 33.6001H145.173V39.2002H150.773V33.6001Z" fill="#FF734D"/>
<path d="M111.573 22.4004H100.373V28.0005H111.573V22.4004Z" fill="#FF734D"/>
<path d="M122.773 28.0005H105.973V33.6005H122.773V28.0005Z" fill="#FF734D"/>
<path d="M94.7873 16.8003H77.9872V22.4003H94.7873V16.8003Z" fill="#FF734D"/>
<path d="M72.3871 16.8003H66.7871V22.4003H72.3871V16.8003Z" fill="#FF734D"/>
<path d="M100.387 16.8003H94.7874V22.4003H100.387V16.8003Z" fill="#FF734D"/>
<path d="M201.174 106.387H195.574V111.987H201.174V106.387Z" fill="#FF734D"/>
<path d="M212.374 100.787H206.774V111.987H212.374V100.787Z" fill="#FF734D"/>
<path d="M206.774 111.987H201.174V134.387H206.774V111.987Z" fill="#FF734D"/>
<path d="M212.374 128.787H206.774V145.587H212.374V128.787Z" fill="#FF734D"/>
<path d="M167.573 39.2002H139.573V44.8002H167.573V39.2002Z" fill="#FF734D"/>
<path d="M145.173 44.8003H139.573V56.0004H145.173V44.8003Z" fill="#FF734D"/>
<path d="M83.5872 33.6001H72.3871V39.2002H83.5872V33.6001Z" fill="#FF734D"/>
<path d="M100.387 39.2002H89.1873V44.8002H100.387V39.2002Z" fill="#FF734D"/>
<path d="M122.773 39.2002H105.973V44.8002H122.773V39.2002Z" fill="#FF734D"/>
<path d="M139.573 44.8003H128.373V50.4004H139.573V44.8003Z" fill="#FF734D"/>
<path d="M139.573 50.4004H133.973V56.0004H139.573V50.4004Z" fill="#FF734D"/>
<path d="M122.773 50.4004H117.173V56.0004H122.773V50.4004Z" fill="#FF734D"/>
<path d="M195.574 134.387H189.974V145.587H195.574V134.387Z" fill="#FF734D"/>
<path d="M189.974 145.587H178.773V151.187H189.974V145.587Z" fill="#FF734D"/>
<path d="M206.774 145.587H201.174V151.187H206.774V145.587Z" fill="#FF734D"/>
<path d="M173.173 39.2002H167.573V44.8002H173.173V39.2002Z" fill="#FFAB15"/>
<path d="M184.374 44.8003H173.174V50.4004H184.374V44.8003Z" fill="#FFAB15"/>
<path d="M189.974 50.4004H184.374V56.0004H189.974V50.4004Z" fill="#FFAB15"/>
<path d="M195.574 56.001H189.974V61.6011H195.574V56.001Z" fill="#FFAB15"/>
<path d="M201.174 61.5859H195.574V67.186H201.174V61.5859Z" fill="#FFAB15"/>
<path d="M206.774 67.186H201.174V78.3863H206.774V67.186Z" fill="#FFAB15"/>
<path d="M212.374 78.3862H201.174V83.9862H212.374V78.3862Z" fill="#FFAB15"/>
<path d="M189.974 100.787H184.374V106.387H189.974V100.787Z" fill="#FFAB15"/>
<path d="M184.374 100.787H178.773V111.987H184.374V100.787Z" fill="#FFAB15"/>
<path d="M195.574 100.787H189.974V106.387H195.574V100.787Z" fill="#FFAB15"/>
<path d="M206.774 89.5864H201.174V100.787H206.774V89.5864Z" fill="#FFAB15"/>
<path d="M173.174 44.8003H161.974V50.4004H173.174V44.8003Z" fill="#FF834D"/>
<path d="M156.373 44.8003H150.773V56.0004H156.373V44.8003Z" fill="#FF834D"/>
<path d="M150.773 50.4004H145.173V61.6005H150.773V50.4004Z" fill="#FF834D"/>
<path d="M184.374 50.4004H161.974V56.0004H184.374V50.4004Z" fill="#FF834D"/>
<path d="M189.974 56.001H184.374V61.6011H189.974V56.001Z" fill="#FF834D"/>
<path d="M189.974 61.5859H184.374V72.7861H189.974V61.5859Z" fill="#FF834D"/>
<path d="M195.574 67.186H189.974V78.3863H195.574V67.186Z" fill="#FF834D"/>
<path d="M201.174 78.3862H195.574V95.1864H201.174V78.3862Z" fill="#FF834D"/>
<path d="M195.574 95.1865H189.974V100.787H195.574V95.1865Z" fill="#FF834D"/>
<path d="M173.173 100.787H167.573V111.987H173.173V100.787Z" fill="#FF834D"/>
<path d="M128.373 100.787H111.573V106.387H128.373V100.787Z" fill="#FF834D"/>
<path d="M128.388 89.5864H77.9872V95.1864H128.388V89.5864Z" fill="#FF834D"/>
<path d="M128.373 72.7861H122.773V89.5864H128.373V72.7861Z" fill="#FF834D"/>
<path d="M117.173 78.3862H100.373V83.9862H117.173V78.3862Z" fill="#FF834D"/>
<path d="M122.773 72.7861H117.173V78.3862H122.773V72.7861Z" fill="#FF834D"/>
<path d="M128.373 61.5859H122.773V67.186H128.373V61.5859Z" fill="#FF834D"/>
<path d="M111.573 67.186H105.973V72.7861H111.573V67.186Z" fill="#FF834D"/>
<path d="M117.173 72.7861H111.573V78.3862H117.173V72.7861Z" fill="#FF834D"/>
<path d="M100.387 83.9863H94.7874V89.5864H100.387V83.9863Z" fill="#FF834D"/>
<path d="M89.1873 78.3862H83.5872V89.5864H89.1873V78.3862Z" fill="#FF834D"/>
<path d="M72.3871 89.5864H66.7871V100.787H72.3871V89.5864Z" fill="#FF834D"/>
<path d="M139.573 117.586H122.773V128.787H139.573V117.586Z" fill="#FF834D"/>
<path d="M167.573 117.586H139.573V123.187H167.573V117.586Z" fill="#FF834D"/>
<path d="M173.174 123.187H156.373V128.787H173.174V123.187Z" fill="#FF834D"/>
<path d="M161.973 128.787H156.373V139.987H161.973V128.787Z" fill="#FF834D"/>
<path d="M178.774 111.987H173.174V117.587H178.774V111.987Z" fill="#FF834D"/>
<path d="M195.574 89.5864H189.974V95.1864H195.574V89.5864Z" fill="#FF834D"/>
<path d="M178.774 89.5864H173.174V95.1864H178.774V89.5864Z" fill="#FF834D"/>
<path d="M173.173 100.787H150.773V106.387H173.173V100.787Z" fill="#FF834D"/>
<path d="M145.173 106.387H133.973V117.587H145.173V106.387Z" fill="#FF834D"/>
<path d="M133.973 95.1865H128.373V106.387H133.973V95.1865Z" fill="#FF834D"/>
<path d="M122.773 95.1865H117.173V100.787H122.773V95.1865Z" fill="#FF834D"/>
<path d="M245.959 151.187H240.359V190.388H245.959V151.187Z" fill="#F15A28"/>
<path d="M240.359 167.987H234.759V173.587H240.359V167.987Z" fill="#F15A28"/>
<path d="M234.759 179.187H229.159V184.787H234.759V179.187Z" fill="#F15A28"/>
<path d="M229.159 184.772H223.559V190.372H229.159V184.772Z" fill="#F15A28"/>
<path d="M240.359 173.587H234.759V179.187H240.359V173.587Z" fill="#F15A28"/>
<path d="M223.559 190.373H217.959V201.573H223.559V190.373Z" fill="#F15A28"/>
<path d="M217.974 201.573H212.374V207.173H217.974V201.573Z" fill="#F15A28"/>
<path d="M212.374 207.173H206.774V212.773H212.374V207.173Z" fill="#F15A28"/>
<path d="M206.774 212.773H201.174V229.573H206.774V212.773Z" fill="#F15A28"/>
<path d="M240.359 179.187H234.759V218.388H240.359V179.187Z" fill="#FF433E"/>
<path d="M234.759 184.772H229.159V190.372H234.759V184.772Z" fill="#FF433E"/>
<path d="M234.76 201.573H217.959V207.173H234.76V201.573Z" fill="#FF433E"/>
<path d="M229.159 207.173H223.559V212.773H229.159V207.173Z" fill="#FF433E"/>
<path d="M223.574 212.773H206.774V218.373H223.574V212.773Z" fill="#FF433E"/>
<path d="M206.774 229.573H178.773V235.173H206.774V229.573Z" fill="#FF433E"/>
<path d="M212.374 218.373H206.774V235.173H212.374V218.373Z" fill="#FF433E"/>
<path d="M223.574 218.373H212.374V229.573H223.574V218.373Z" fill="#FF433E"/>
<path d="M229.159 212.773H223.559V218.373H229.159V212.773Z" fill="#FF433E"/>
<path d="M189.974 235.173H184.374V240.773H189.974V235.173Z" fill="#FF433E"/>
<path d="M178.774 235.173H173.174V240.773H178.774V235.173Z" fill="#FF433E"/>
<path d="M178.774 240.773H173.174V251.973H178.774V240.773Z" fill="#FF433E"/>
<path d="M173.173 251.973H150.773V257.573H173.173V251.973Z" fill="#FF433E"/>
<path d="M128.373 44.8003H105.973V50.4004H128.373V44.8003Z" fill="#FF433E"/>
<path d="M128.373 39.2002H122.773V44.8002H128.373V39.2002Z" fill="#FF433E"/>
<path d="M105.973 39.2002H100.373V44.8002H105.973V39.2002Z" fill="#FF433E"/>
<path d="M100.387 33.6001H83.5872V39.2002H100.387V33.6001Z" fill="#FF433E"/>
<path d="M89.1873 39.2002H83.5872V44.8002H89.1873V39.2002Z" fill="#FF433E"/>
<path d="M100.387 44.8003H89.1873V50.4004H100.387V44.8003Z" fill="#FF433E"/>
<path d="M117.173 50.4004H111.573V56.0004H117.173V50.4004Z" fill="#FF433E"/>
<path d="M128.373 56.001H117.173V61.6011H128.373V56.001Z" fill="#FF433E"/>
<path d="M122.773 61.5859H117.173V67.186H122.773V61.5859Z" fill="#FF433E"/>
<path d="M117.173 61.5859H105.973V67.186H117.173V61.5859Z" fill="#FF433E"/>
<path d="M105.973 67.186H100.373V72.7861H105.973V67.186Z" fill="#FF433E"/>
<path d="M111.588 72.7861H94.7874V78.3862H111.588V72.7861Z" fill="#FF433E"/>
<path d="M100.387 78.3862H89.1873V83.9862H100.387V78.3862Z" fill="#FF433E"/>
<path d="M94.7873 72.7861H72.3871V78.3862H94.7873V72.7861Z" fill="#FF433E"/>
<path d="M72.3871 33.6001H61.187V44.8002H72.3871V33.6001Z" fill="#FF433E"/>
<path d="M77.9872 39.2002H72.3871V44.8002H77.9872V39.2002Z" fill="#FF433E"/>
<path d="M66.7871 16.8003H61.187V28.0004H66.7871V16.8003Z" fill="#FF433E"/>
<path d="M44.3867 11.2002H38.7866V16.8003H44.3867V11.2002Z" fill="#FF433E"/>
<path d="M61.1869 16.8003H27.5865V22.4003H61.1869V16.8003Z" fill="#FF433E"/>
<path d="M27.5867 16.8003H21.9866V22.4003H27.5867V16.8003Z" fill="#FF433E"/>
<path d="M44.3867 28.0005H38.7866V39.2006H44.3867V28.0005Z" fill="#FF433E"/>
<path d="M55.5868 33.6001H44.3867V39.2002H55.5868V33.6001Z" fill="#FF433E"/>
<path d="M61.1869 22.4004H55.5869V39.2006H61.1869V22.4004Z" fill="#FF433E"/>
<path d="M83.5872 39.2002H77.9872V44.8002H83.5872V39.2002Z" fill="#FF433E"/>
<path d="M44.3867 22.4004H38.7866V28.0005H44.3867V22.4004Z" fill="#FF433E"/>
<path d="M139.573 145.587H122.773V162.387H139.573V145.587Z" fill="#FF433E"/>
<path d="M156.373 134.387H139.573V139.987H156.373V134.387Z" fill="#FF433E"/>
<path d="M161.973 145.587H150.773V151.187H161.973V145.587Z" fill="#FF433E"/>
<path d="M173.174 139.987H161.974V145.587H173.174V139.987Z" fill="#FF433E"/>
<path d="M178.773 145.587H167.573V151.187H178.773V145.587Z" fill="#FF433E"/>
<path d="M161.973 139.987H133.973V145.587H161.973V139.987Z" fill="#FF433E"/>
<path d="M150.773 151.187H145.173V156.787H150.773V151.187Z" fill="#FF433E"/>
<path d="M156.373 167.987H150.773V184.787H156.373V167.987Z" fill="#FF433E"/>
<path d="M133.973 167.987H122.773V184.787H133.973V167.987Z" fill="#FF433E"/>
<path d="M111.573 145.587H105.973V151.187H111.573V145.587Z" fill="#FF433E"/>
<path d="M122.773 139.987H117.173V151.187H122.773V139.987Z" fill="#FF433E"/>
<path d="M145.173 184.772H139.573V207.173H145.173V184.772Z" fill="#FF433E"/>
<path d="M150.773 173.587H145.173V184.787H150.773V173.587Z" fill="#FF433E"/>
<path d="M156.373 201.573H150.773V212.773H156.373V201.573Z" fill="#FF433E"/>
<path d="M128.373 201.573H122.773V218.373H128.373V201.573Z" fill="#FF433E"/>
<path d="M145.173 218.373H139.573V223.973H145.173V218.373Z" fill="#FF433E"/>
<path d="M133.973 229.573H128.373V240.773H133.973V229.573Z" fill="#FF433E"/>
<path d="M234.759 207.173H229.159V223.973H234.759V207.173Z" fill="#BE1D2C"/>
<path d="M229.159 218.373H223.559V229.573H229.159V218.373Z" fill="#BE1D2C"/>
<path d="M234.759 223.973H229.159V229.573H234.759V223.973Z" fill="#BE1D2C"/>
<path d="M223.574 229.573H212.374V235.173H223.574V229.573Z" fill="#BE1D2C"/>
<path d="M212.374 235.173H189.974V240.773H212.374V235.173Z" fill="#BE1D2C"/>
<path d="M184.374 235.173H178.773V251.973H184.374V235.173Z" fill="#BE1D2C"/>
<path d="M189.974 240.773H184.374V246.373H189.974V240.773Z" fill="#A80F22"/>
<path d="M178.774 251.973H173.174V257.573H178.774V251.973Z" fill="#A80F22"/>
<path d="M173.173 257.573H150.773V268.774H173.173V257.573Z" fill="#A80F22"/>
<path d="M66.7871 28.0005H61.187V33.6005H66.7871V28.0005Z" fill="#BE1D2C"/>
<path d="M38.7868 22.4004H10.7864V28.0005H38.7868V22.4004Z" fill="#A80F22"/>
<path d="M38.7867 28.0005H33.1866V39.2006H38.7867V28.0005Z" fill="#A80F22"/>
<path d="M61.1869 39.2002H38.7866V44.8002H61.1869V39.2002Z" fill="#BE1D2C"/>
<path d="M89.1874 44.8003H61.187V50.4004H89.1874V44.8003Z" fill="#BE1D2C"/>
<path d="M105.973 44.8003H100.373V50.4004H105.973V44.8003Z" fill="#BE1D2C"/>
<path d="M100.387 50.4004H89.1873V56.0004H100.387V50.4004Z" fill="#BE1D2C"/>
<path d="M111.573 50.4004H105.973V56.0004H111.573V50.4004Z" fill="#BE1D2C"/>
<path d="M117.173 56.001H111.573V61.6011H117.173V56.001Z" fill="#BE1D2C"/>
<path d="M105.973 61.5859H100.373V67.186H105.973V61.5859Z" fill="#BE1D2C"/>
<path d="M111.573 56.001H100.373V61.6011H111.573V56.001Z" fill="#BE1D2C"/>
<path d="M100.387 67.186H72.3871V72.7861H100.387V67.186Z" fill="#BE1D2C"/>
<path d="M72.3871 72.7861H66.7871V89.5864H72.3871V72.7861Z" fill="#A80F22"/>
<path d="M122.773 134.387H105.973V139.987H122.773V134.387Z" fill="#BE1D2C"/>
<path d="M133.973 139.987H122.773V145.587H133.973V139.987Z" fill="#BE1D2C"/>
<path d="M150.773 145.587H139.573V151.187H150.773V145.587Z" fill="#BE1D2C"/>
<path d="M167.573 151.187H150.773V156.787H167.573V151.187Z" fill="#BE1D2C"/>
<path d="M145.173 151.187H139.573V162.387H145.173V151.187Z" fill="#BE1D2C"/>
<path d="M150.773 156.787H145.173V162.387H150.773V156.787Z" fill="#BE1D2C"/>
<path d="M156.373 162.387H150.773V167.987H156.373V162.387Z" fill="#BE1D2C"/>
<path d="M150.773 167.987H145.173V173.587H150.773V167.987Z" fill="#BE1D2C"/>
<path d="M145.173 173.587H133.973V184.787H145.173V173.587Z" fill="#BE1D2C"/>
<path d="M150.773 190.373H145.173V223.973H150.773V190.373Z" fill="#BE1D2C"/>
<path d="M156.373 184.772H150.773V190.372H156.373V184.772Z" fill="#BE1D2C"/>
<path d="M156.373 190.373H150.773V201.573H156.373V190.373Z" fill="#BE1D2C"/>
<path d="M161.973 190.373H156.373V195.973H161.973V190.373Z" fill="#BE1D2C"/>
<path d="M150.773 184.772H145.173V190.372H150.773V184.772Z" fill="#BE1D2C"/>
<path d="M150.773 162.387H122.773V167.987H150.773V162.387Z" fill="#BE1D2C"/>
<path d="M139.573 167.987H133.973V173.587H139.573V167.987Z" fill="#BE1D2C"/>
<path d="M145.173 167.987H139.573V173.587H145.173V167.987Z" fill="#BE1D2C"/>
<path d="M122.773 151.187H117.173V184.787H122.773V151.187Z" fill="#BE1D2C"/>
<path d="M139.573 184.772H122.773V190.372H139.573V184.772Z" fill="#BE1D2C"/>
<path d="M189.974 251.973H184.374V257.573H189.974V251.973Z" fill="#A80F22"/>
<path d="M201.174 246.373H195.574V257.573H201.174V246.373Z" fill="#A80F22"/>
<path d="M217.974 240.773H206.774V246.373H217.974V240.773Z" fill="#BE1D2C"/>
<path d="M212.374 251.973H206.774V257.573H212.374V251.973Z" fill="#BE1D2C"/>
<path d="M184.374 263.174H178.773V274.374H184.374V263.174Z" fill="#A80F22"/>
<path d="M167.574 274.374H161.974V279.974H167.574V274.374Z" fill="#A80F22"/>
<path d="M150.773 263.174H133.973V268.774H150.773V263.174Z" fill="#3D0320"/>
<path d="M133.973 279.974H100.373V285.574H133.973V279.974Z" fill="#A80F22"/>
<path d="M139.573 274.374H128.373V279.974H139.573V274.374Z" fill="#A80F22"/>
<path d="M150.773 274.374H139.573V285.574H150.773V274.374Z" fill="#A80F22"/>
<path d="M145.173 268.773H139.573V274.374H145.173V268.773Z" fill="#A80F22"/>
<path d="M156.373 274.374H150.773V279.974H156.373V274.374Z" fill="#A80F22"/>
<path d="M178.773 285.574H167.573V291.174H178.773V285.574Z" fill="#BE1D2C"/>
<path d="M178.774 274.374H173.174V279.974H178.774V274.374Z" fill="#A80F22"/>
<path d="M150.773 291.174H145.173V296.774H150.773V291.174Z" fill="#BE1D2C"/>
<path d="M161.973 285.574H156.373V291.174H161.973V285.574Z" fill="#A80F22"/>
<path d="M195.574 268.773H189.974V274.374H195.574V268.773Z" fill="#A80F22"/>
<path d="M201.174 263.174H195.574V268.774H201.174V263.174Z" fill="#A80F22"/>
<path d="M55.5868 44.8003H44.3867V56.0004H55.5868V44.8003Z" fill="#A80F22"/>
<path d="M72.3871 50.4004H61.187V56.0004H72.3871V50.4004Z" fill="#BE1D2C"/>
<path d="M89.1873 50.4004H83.5872V61.6005H89.1873V50.4004Z" fill="#BE1D2C"/>
<path d="M105.973 50.4004H100.373V56.0004H105.973V50.4004Z" fill="#BE1D2C"/>
<path d="M100.387 56.001H94.7874V67.2011H100.387V56.001Z" fill="#BE1D2C"/>
<path d="M89.1874 61.5859H66.7871V67.186H89.1874V61.5859Z" fill="#BE1D2C"/>
<path d="M77.9872 56.001H72.3871V61.6011H77.9872V56.001Z" fill="#BE1D2C"/>
<path d="M61.1869 61.5859H55.5869V67.186H61.1869V61.5859Z" fill="#A80F22"/>
<path d="M66.787 72.7861H55.5869V83.9863H66.787V72.7861Z" fill="#A80F22"/>
<path d="M55.5869 83.9863H49.9868V89.5864H55.5869V83.9863Z" fill="#A80F22"/>
<path d="M16.3864 39.2002H-0.413818V50.4003H16.3864V39.2002Z" fill="#A80F22"/>
<path d="M27.5867 33.6001H16.3865V39.2002H27.5867V33.6001Z" fill="#A80F22"/>
<path d="M16.3864 28.0005H-0.413818V33.6005H16.3864V28.0005Z" fill="#A80F22"/>
<path d="M38.7867 61.5859H27.5865V72.7861H38.7867V61.5859Z" fill="#A80F22"/>
<path d="M49.9867 61.5859H44.3867V67.186H49.9867V61.5859Z" fill="#A80F22"/>
<path d="M44.3868 83.9863H33.1866V95.1865H44.3868V83.9863Z" fill="#A80F22"/>
<path d="M55.5869 95.1865H49.9868V100.787H55.5869V95.1865Z" fill="#A80F22"/>
<path d="M44.3868 100.787H33.1866V111.987H44.3868V100.787Z" fill="#A80F22"/>
<path d="M44.3868 50.4004H33.1866V56.0004H44.3868V50.4004Z" fill="#A80F22"/>
<path d="M33.1867 39.2002H27.5865V50.4003H33.1867V39.2002Z" fill="#A80F22"/>
<path d="M94.7873 145.587H83.5872V151.187H94.7873V145.587Z" fill="#A80F22"/>
<path d="M111.573 139.987H105.973V145.587H111.573V139.987Z" fill="#BE1D2C"/>
<path d="M139.573 190.373H128.373V201.573H139.573V190.373Z" fill="#BE1D2C"/>
<path d="M139.573 212.773H133.973V223.973H139.573V212.773Z" fill="#BE1D2C"/>
<path d="M145.173 207.173H139.573V212.773H145.173V207.173Z" fill="#BE1D2C"/>
<path d="M10.7863 307.959H-0.413818V313.559H10.7863V307.959Z" fill="#FF433E"/>
<path d="M21.9867 313.559H10.7864V319.159H21.9867V313.559Z" fill="#FF433E"/>
<path d="M38.7868 319.159H21.9866V324.759H38.7868V319.159Z" fill="#FF433E"/>
<path d="M61.1869 324.759H38.7866V330.359H61.1869V324.759Z" fill="#FF433E"/>
<path d="M122.773 324.759H100.373V330.359H122.773V324.759Z" fill="#FF433E"/>
<path d="M100.388 330.359H61.187V335.959H100.388V330.359Z" fill="#FF433E"/>
<path d="M10.7863 302.359H-0.413818V307.959H10.7863V302.359Z" fill="#FF734D"/>
<path d="M21.9867 307.959H10.7864V313.559H21.9867V307.959Z" fill="#FF734D"/>
<path d="M38.7868 313.559H21.9866V319.159H38.7868V313.559Z" fill="#FF734D"/>
<path d="M61.1869 319.159H38.7866V324.759H61.1869V319.159Z" fill="#FF734D"/>
<path d="M122.773 319.159H100.373V324.759H122.773V319.159Z" fill="#FF734D"/>
<path d="M139.573 319.159H117.173V324.759H139.573V319.159Z" fill="#FF734D"/>
<path d="M100.388 324.759H61.187V330.359H100.388V324.759Z" fill="#FF734D"/>
<path d="M10.7863 296.774H-0.413818V302.374H10.7863V296.774Z" fill="#FF433E"/>
<path d="M21.9867 302.359H10.7864V307.959H21.9867V302.359Z" fill="#FF433E"/>
<path d="M38.7868 307.959H21.9866V313.559H38.7868V307.959Z" fill="#FF433E"/>
<path d="M61.1869 313.559H38.7866V319.159H61.1869V313.559Z" fill="#FF433E"/>
<path d="M100.388 319.159H61.187V324.759H100.388V319.159Z" fill="#FF433E"/>
<path d="M150.773 313.559H100.373V319.159H150.773V313.559Z" fill="#FF433E"/>
<path d="M21.9867 291.174H10.7864V296.774H21.9867V291.174Z" fill="#FF433E"/>
<path d="M38.7867 296.774H33.1866V302.374H38.7867V296.774Z" fill="#FF433E"/>
<path d="M66.787 302.359H55.5869V307.959H66.787V302.359Z" fill="#FF433E"/>
<path d="M94.7873 302.359H77.9872V307.959H94.7873V302.359Z" fill="#FF433E"/>
<path d="M111.573 296.774H105.973V307.974H111.573V296.774Z" fill="#FF433E"/>
<path d="M133.973 302.359H122.773V307.959H133.973V302.359Z" fill="#FF433E"/>
<path d="M105.987 291.174H94.7874V296.774H105.987V291.174Z" fill="#FF433E"/>
<path d="M83.5872 313.559H72.3871V319.159H83.5872V313.559Z" fill="#FF433E"/>
<path d="M16.3864 235.173H-0.413818V246.373H16.3864V235.173Z" fill="#FF433E"/>
<path d="M61.1869 44.8003H55.5869V61.6005H61.1869V44.8003Z" fill="#560000"/>
<path d="M66.7871 56.001H61.187V61.6011H66.7871V56.001Z" fill="#560000"/>
<path d="M72.3871 56.001H66.7871V61.6011H72.3871V56.001Z" fill="#560000"/>
<path d="M66.7871 61.5859H61.187V72.7861H66.7871V61.5859Z" fill="#560000"/>
<path d="M72.3871 67.186H66.7871V72.7861H72.3871V67.186Z" fill="#560000"/>
<path d="M83.5872 50.4004H72.3871V56.0004H83.5872V50.4004Z" fill="#560000"/>
<path d="M83.5872 56.001H77.9872V61.6011H83.5872V56.001Z" fill="#560000"/>
<path d="M94.7873 56.001H89.1873V67.2011H94.7873V56.001Z" fill="#560000"/>
<path d="M38.7867 39.2002H33.1866V50.4003H38.7867V39.2002Z" fill="#560000"/>
<path d="M44.3867 44.8003H38.7866V50.4004H44.3867V44.8003Z" fill="#560000"/>
<path d="M33.1868 28.0005H16.3865V33.6005H33.1868V28.0005Z" fill="#560000"/>
<path d="M33.1867 33.6001H27.5865V39.2002H33.1867V33.6001Z" fill="#560000"/>
<path d="M27.5867 39.2002H16.3865V61.6005H27.5867V39.2002Z" fill="#560000"/>
<path d="M33.1867 50.4004H27.5865V61.6005H33.1867V50.4004Z" fill="#A80F22"/>
<path d="M55.5869 56.001H33.1866V61.6011H55.5869V56.001Z" fill="#560000"/>
<path d="M55.5869 61.5859H49.9868V83.9862H55.5869V61.5859Z" fill="#560000"/>
<path d="M61.1869 67.186H55.5869V72.7861H61.1869V67.186Z" fill="#560000"/>
<path d="M44.3867 61.5859H38.7866V67.186H44.3867V61.5859Z" fill="#560000"/>
<path d="M49.9867 67.186H38.7866V83.9863H49.9867V67.186Z" fill="#560000"/>
<path d="M16.3864 33.6001H-11.614V39.2002H16.3864V33.6001Z" fill="#560000"/>
<path d="M49.9867 83.9863H44.3867V100.787H49.9867V83.9863Z" fill="#560000"/>
<path d="M55.5869 89.5864H49.9868V95.1864H55.5869V89.5864Z" fill="#560000"/>
<path d="M66.787 83.9863H55.5869V89.5864H66.787V83.9863Z" fill="#560000"/>
<path d="M66.787 95.1865H55.5869V100.787H66.787V95.1865Z" fill="#560000"/>
<path d="M206.774 240.773H189.974V246.373H206.774V240.773Z" fill="#560000"/>
<path d="M206.774 246.373H201.174V257.573H206.774V246.373Z" fill="#560000"/>
<path d="M223.574 246.373H206.774V251.973H223.574V246.373Z" fill="#560000"/>
<path d="M223.574 235.173H212.374V240.773H223.574V235.173Z" fill="#560000"/>
<path d="M223.559 240.773H217.959V246.373H223.559V240.773Z" fill="#560000"/>
<path d="M229.159 229.573H223.559V240.773H229.159V229.573Z" fill="#560000"/>
<path d="M195.574 246.373H184.374V251.973H195.574V246.373Z" fill="#560000"/>
<path d="M184.374 251.973H178.773V257.573H184.374V251.973Z" fill="#560000"/>
<path d="M195.574 251.973H189.974V257.573H195.574V251.973Z" fill="#560000"/>
<path d="M184.374 257.573H173.174V263.174H184.374V257.573Z" fill="#560000"/>
<path d="M195.574 257.573H184.374V268.774H195.574V257.573Z" fill="#560000"/>
<path d="M178.774 263.174H173.174V274.374H178.774V263.174Z" fill="#560000"/>
<path d="M173.173 268.773H145.173V274.374H173.173V268.773Z" fill="#560000"/>
<path d="M161.973 274.374H156.373V285.574H161.973V274.374Z" fill="#560000"/>
<path d="M173.173 274.374H167.573V285.574H173.173V274.374Z" fill="#560000"/>
<path d="M139.573 279.974H133.973V285.574H139.573V279.974Z" fill="#560000"/>
<path d="M133.973 285.574H128.373V296.774H133.973V285.574Z" fill="#560000"/>
<path d="M150.773 285.574H133.973V291.174H150.773V285.574Z" fill="#560000"/>
<path d="M156.373 279.974H150.773V285.574H156.373V279.974Z" fill="#560000"/>
<path d="M117.173 291.174H105.973V296.774H117.173V291.174Z" fill="#560000"/>
<path d="M16.3864 50.4004H-0.413818V67.2005H16.3864V50.4004Z" fill="#560000"/>
<path d="M122.773 296.774H111.573V313.574H122.773V296.774Z" fill="#560000"/>
<path d="M10.7863 291.174H-0.413818V296.774H10.7863V291.174Z" fill="#560000"/>
<path d="M5.18622 279.974H-11.614V285.574H5.18622V279.974Z" fill="#560000"/>
<path d="M21.9867 279.974H10.7864V291.174H21.9867V279.974Z" fill="#560000"/>
<path d="M10.7863 285.574H-0.413818V291.174H10.7863V285.574Z" fill="#560000"/>
<path d="M21.9867 296.774H10.7864V302.374H21.9867V296.774Z" fill="#560000"/>
<path d="M33.1868 291.174H21.9866V307.974H33.1868V291.174Z" fill="#560000"/>
<path d="M38.7867 302.359H33.1866V307.959H38.7867V302.359Z" fill="#560000"/>
<path d="M61.1869 307.959H38.7866V313.559H61.1869V307.959Z" fill="#560000"/>
<path d="M72.3871 313.559H61.187V319.159H72.3871V313.559Z" fill="#560000"/>
<path d="M38.7867 72.7861H27.5865V83.9863H38.7867V72.7861Z" fill="#560000"/>
<path d="M27.5867 61.5859H21.9866V72.7861H27.5867V61.5859Z" fill="#560000"/>
<path d="M33.1868 89.5864H21.9866V95.1864H33.1868V89.5864Z" fill="#560000"/>
<path d="M44.3868 95.1865H33.1866V100.787H44.3868V95.1865Z" fill="#560000"/>
<path d="M33.1868 100.787H21.9866V106.387H33.1868V100.787Z" fill="#560000"/>
<path d="M21.9866 78.3862H16.3865V89.5864H21.9866V78.3862Z" fill="#560000"/>
<path d="M16.3865 67.186H10.7864V78.3863H16.3865V67.186Z" fill="#560000"/>
<path d="M5.18629 78.3862H-0.413818V83.9862H5.18629V78.3862Z" fill="#560000"/>
<path d="M156.373 285.574H150.773V296.774H156.373V285.574Z" fill="#560000"/>
<path d="M167.574 279.974H161.974V291.174H167.574V279.974Z" fill="#560000"/>
<path d="M167.573 291.174H156.373V302.374H167.573V291.174Z" fill="#560000"/>
<path d="M178.774 296.774H173.174V302.374H178.774V296.774Z" fill="#560000"/>
<path d="M184.374 279.974H173.174V285.574H184.374V279.974Z" fill="#A80F22"/>
<path d="M184.374 274.374H178.773V279.974H184.374V274.374Z" fill="#560000"/>
<path d="M189.974 268.773H184.374V274.374H189.974V268.773Z" fill="#560000"/>
<path d="M212.374 257.573H195.574V263.174H212.374V257.573Z" fill="#560000"/>
<path d="M206.774 263.174H201.174V268.774H206.774V263.174Z" fill="#560000"/>
<path d="M217.974 251.973H212.374V268.774H217.974V251.973Z" fill="#560000"/>
<path d="M100.387 313.559H83.5872V319.159H100.387V313.559Z" fill="#560000"/>
<path d="M89.1873 307.959H72.3871V313.559H89.1873V307.959Z" fill="#560000"/>
<path d="M83.5872 296.774H49.9868V302.374H83.5872V296.774Z" fill="#560000"/>
<path d="M72.3871 302.359H66.7871V307.959H72.3871V302.359Z" fill="#560000"/>
<path d="M49.9867 302.359H38.7866V307.959H49.9867V302.359Z" fill="#560000"/>
<path d="M100.387 296.774H94.7874V302.374H100.387V296.774Z" fill="#560000"/>
<path d="M105.973 302.359H100.373V313.56H105.973V302.359Z" fill="#560000"/>
<path d="M100.387 307.959H94.7874V313.559H100.387V307.959Z" fill="#560000"/>
<path d="M139.573 296.774H122.773V302.374H139.573V296.774Z" fill="#560000"/>
<path d="M145.173 307.959H133.973V313.559H145.173V307.959Z" fill="#560000"/>
<path d="M145.173 296.774H139.573V302.374H145.173V296.774Z" fill="#560000"/>
<path d="M156.373 296.774H150.773V307.974H156.373V296.774Z" fill="#560000"/>
<path d="M150.773 302.359H145.173V313.56H150.773V302.359Z" fill="#560000"/>
<path d="M27.5867 78.3862H21.9866V89.5864H27.5867V78.3862Z" fill="#560000"/>
<path d="M21.9866 67.186H16.3865V78.3863H21.9866V67.186Z" fill="#560000"/>
<path d="M27.5867 72.7861H21.9866V78.3862H27.5867V72.7861Z" fill="#560000"/>
<path d="M21.9866 61.5859H16.3865V67.186H21.9866V61.5859Z" fill="#560000"/>
<path d="M33.1867 83.9863H27.5865V89.5864H33.1867V83.9863Z" fill="#560000"/>
<path d="M33.1868 95.1865H21.9866V100.787H33.1868V95.1865Z" fill="#560000"/>
<path d="M16.3864 106.387H5.18628V111.987H16.3864V106.387Z" fill="#560000"/>
<path d="M10.7863 95.1865H5.18628V100.787H10.7863V95.1865Z" fill="#560000"/>
<path d="M16.3864 83.9863H5.18628V89.5864H16.3864V83.9863Z" fill="#560000"/>
<path d="M21.9866 95.1865H16.3865V100.787H21.9866V95.1865Z" fill="#560000"/>
<path d="M5.18621 95.1865H-6.01392V106.387H5.18621V95.1865Z" fill="#560000"/>
<path d="M66.787 139.987H55.5869V151.187H66.787V139.987Z" fill="#560000"/>
<path d="M83.5872 156.787H72.3871V167.987H83.5872V156.787Z" fill="#560000"/>
<path d="M77.9872 145.587H72.3871V151.187H77.9872V145.587Z" fill="#560000"/>
<path d="M105.987 139.987H94.7874V156.787H105.987V139.987Z" fill="#560000"/>
<path d="M117.173 139.987H111.573V190.387H117.173V139.987Z" fill="#560000"/>
<path d="M122.773 184.772H117.173V218.373H122.773V184.772Z" fill="#560000"/>
<path d="M128.373 190.373H122.773V201.573H128.373V190.373Z" fill="#560000"/>
<path d="M139.573 201.573H128.373V212.773H139.573V201.573Z" fill="#560000"/>
<path d="M145.173 212.773H139.573V218.373H145.173V212.773Z" fill="#560000"/>
<path d="M133.973 212.773H128.373V229.573H133.973V212.773Z" fill="#560000"/>
<path d="M122.773 218.373H117.173V235.173H122.773V218.373Z" fill="#560000"/>
<path d="M44.3868 139.987H33.1866V151.187H44.3868V139.987Z" fill="#560000"/>
<path d="M55.5869 145.587H49.9868V156.787H55.5869V145.587Z" fill="#560000"/>
<path d="M72.3871 162.387H61.187V173.587H72.3871V162.387Z" fill="#560000"/>
<path d="M72.3871 145.587H66.7871V151.187H72.3871V145.587Z" fill="#560000"/>
<path d="M94.7873 162.387H89.1873V173.587H94.7873V162.387Z" fill="#560000"/>
<path d="M94.7873 151.187H83.5872V156.787H94.7873V151.187Z" fill="#560000"/>
<path d="M105.973 162.387H100.373V167.987H105.973V162.387Z" fill="#560000"/>
<path d="M111.573 156.787H105.973V167.987H111.573V156.787Z" fill="#560000"/>
<path d="M111.573 179.187H100.373V190.387H111.573V179.187Z" fill="#560000"/>
<path d="M94.7873 179.187H89.1873V195.987H94.7873V179.187Z" fill="#560000"/>
<path d="M83.5872 173.587H77.9872V184.787H83.5872V173.587Z" fill="#560000"/>
<path d="M117.173 190.373H105.973V201.573H117.173V190.373Z" fill="#560000"/>
<path d="M105.973 207.173H100.373V218.373H105.973V207.173Z" fill="#560000"/>
<path d="M94.7873 201.573H83.5872V212.773H94.7873V201.573Z" fill="#560000"/>
<path d="M105.973 190.373H100.373V207.173H105.973V190.373Z" fill="#560000"/>
<path d="M105.987 173.587H94.7874V179.187H105.987V173.587Z" fill="#560000"/>
<path d="M94.7873 156.787H89.1873V162.387H94.7873V156.787Z" fill="#560000"/>
<path d="M100.387 156.787H94.7874V162.387H100.387V156.787Z" fill="#560000"/>
<path d="M111.573 151.187H105.973V156.787H111.573V151.187Z" fill="#560000"/>
<path d="M89.1873 156.787H83.5872V167.987H89.1873V156.787Z" fill="#560000"/>
<path d="M72.3871 151.187H61.187V156.787H72.3871V151.187Z" fill="#560000"/>
<path d="M89.1873 173.587H83.5872V184.787H89.1873V173.587Z" fill="#560000"/>
<path d="M105.987 223.973H94.7874V229.573H105.987V223.973Z" fill="#560000"/>
<path d="M117.173 223.973H111.573V229.573H117.173V223.973Z" fill="#560000"/>
<path d="M105.987 235.173H94.7874V240.773H105.987V235.173Z" fill="#560000"/>
<path d="M89.1873 223.973H77.9872V235.173H89.1873V223.973Z" fill="#560000"/>
<path d="M77.9872 212.773H72.3871V218.373H77.9872V212.773Z" fill="#560000"/>
<path d="M83.5872 195.973H72.3871V207.173H83.5872V195.973Z" fill="#560000"/>
<path d="M72.3871 179.187H66.7871V190.387H72.3871V179.187Z" fill="#560000"/>
<path d="M72.3871 240.773H66.7871V246.373H72.3871V240.773Z" fill="#560000"/>
<path d="M66.7871 246.373H61.187V257.573H66.7871V246.373Z" fill="#560000"/>
<path d="M89.1873 240.773H77.9872V246.373H89.1873V240.773Z" fill="#560000"/>
<path d="M61.1869 190.373H49.9868V212.773H61.1869V190.373Z" fill="#560000"/>
<path d="M38.7867 167.987H27.5865V184.787H38.7867V167.987Z" fill="#560000"/>
<path d="M38.7868 195.973H21.9866V212.773H38.7868V195.973Z" fill="#560000"/>
<path d="M55.5868 229.573H44.3867V246.373H55.5868V229.573Z" fill="#560000"/>
<path d="M38.7867 229.573H33.1866V235.173H38.7867V229.573Z" fill="#560000"/>
<path d="M33.1867 246.373H27.5865V263.174H33.1867V246.373Z" fill="#560000"/>
<path d="M16.3864 251.973H5.18628V263.174H16.3864V251.973Z" fill="#560000"/>
<path d="M33.1868 223.973H16.3865V235.173H33.1868V223.973Z" fill="#560000"/>
<path d="M5.18629 162.387H-0.413818V173.587H5.18629V162.387Z" fill="#560000"/>
<path d="M27.5867 151.187H21.9866V162.387H27.5867V151.187Z" fill="#560000"/>
<path d="M49.9867 156.787H38.7866V167.987H49.9867V156.787Z" fill="#560000"/>
<path d="M61.1869 162.387H55.5869V173.587H61.1869V162.387Z" fill="#560000"/>
<path d="M66.787 179.187H55.5869V190.387H66.787V179.187Z" fill="#560000"/>
<path d="M89.1873 184.772H77.9872V195.973H89.1873V184.772Z" fill="#560000"/>
<path d="M117.173 212.773H105.973V223.973H117.173V212.773Z" fill="#560000"/>
<path d="M10.7863 67.186H-0.413818V78.3863H10.7863V67.186Z" fill="#A80F22"/>
<path d="M184.374 285.574H178.773V302.374H184.374V285.574Z" fill="#A80F22"/>
<path d="M195.574 274.374H184.374V291.174H195.574V274.374Z" fill="#A80F22"/>
<path d="M189.974 291.174H184.374V296.774H189.974V291.174Z" fill="#BE1D2C"/>
<path d="M178.773 291.174H167.573V296.774H178.773V291.174Z" fill="#A80F22"/>
<path d="M173.174 302.359H156.373V307.959H173.174V302.359Z" fill="#A80F22"/>
<path d="M173.173 296.774H167.573V302.374H173.173V296.774Z" fill="#BE1D2C"/>
<path d="M145.173 291.174H133.973V296.774H145.173V291.174Z" fill="#A80F22"/>
<path d="M150.773 296.774H145.173V302.374H150.773V296.774Z" fill="#BE1D2C"/>
<path d="M145.173 302.359H133.973V307.959H145.173V302.359Z" fill="#BE1D2C"/>
<path d="M156.373 307.959H150.773V313.559H156.373V307.959Z" fill="#BE1D2C"/>
<path d="M161.973 307.959H156.373V313.559H161.973V307.959Z" fill="#BE1D2C"/>
<path d="M105.973 296.774H100.373V302.374H105.973V296.774Z" fill="#BE1D2C"/>
<path d="M100.387 302.359H94.7874V307.959H100.387V302.359Z" fill="#A80F22"/>
<path d="M117.188 285.574H89.1873V291.174H117.188V285.574Z" fill="#A80F22"/>
<path d="M94.7873 291.174H89.1873V302.374H94.7873V291.174Z" fill="#A80F22"/>
<path d="M89.1873 296.774H83.5872V302.374H89.1873V296.774Z" fill="#BE1D2C"/>
<path d="M77.9872 302.359H72.3871V307.959H77.9872V302.359Z" fill="#BE1D2C"/>
<path d="M94.7873 307.959H89.1873V313.559H94.7873V307.959Z" fill="#BE1D2C"/>
<path d="M72.3871 307.959H61.187V313.559H72.3871V307.959Z" fill="#BE1D2C"/>
<path d="M111.573 307.959H105.973V313.559H111.573V307.959Z" fill="#A80F22"/>
<path d="M133.973 307.959H122.773V313.559H133.973V307.959Z" fill="#BE1D2C"/>
<path d="M55.5869 302.359H49.9868V307.959H55.5869V302.359Z" fill="#BE1D2C"/>
<path d="M49.9867 296.774H38.7866V302.374H49.9867V296.774Z" fill="#BE1D2C"/>
<path d="M201.174 268.773H195.574V285.574H201.174V268.773Z" fill="#A80F22"/>
<path d="M206.774 268.773H201.174V279.974H206.774V268.773Z" fill="#BE1D2C"/>
<path d="M212.374 263.174H206.774V274.374H212.374V263.174Z" fill="#A80F22"/>
<path d="M100.387 162.387H94.7874V173.587H100.387V162.387Z" fill="#A80F22"/>
<path d="M105.973 156.787H100.373V162.387H105.973V156.787Z" fill="#A80F22"/>
<path d="M111.573 167.987H100.373V173.587H111.573V167.987Z" fill="#BE1D2C"/>
<path d="M111.573 173.587H105.973V179.187H111.573V173.587Z" fill="#A80F22"/>
<path d="M83.5872 145.587H77.9872V156.787H83.5872V145.587Z" fill="#A80F22"/>
<path d="M77.9872 151.187H72.3871V156.787H77.9872V151.187Z" fill="#A80F22"/>
<path d="M61.1869 151.187H55.5869V156.787H61.1869V151.187Z" fill="#A80F22"/>
<path d="M72.3871 156.787H49.9868V162.387H72.3871V156.787Z" fill="#A80F22"/>
<path d="M94.7873 167.987H72.3871V173.587H94.7873V167.987Z" fill="#A80F22"/>
<path d="M94.7873 173.587H89.1873V179.187H94.7873V173.587Z" fill="#A80F22"/>
<path d="M100.387 179.187H94.7874V218.388H100.387V179.187Z" fill="#A80F22"/>
<path d="M111.573 201.573H105.973V207.173H111.573V201.573Z" fill="#BE1D2C"/>
<path d="M117.173 201.573H111.573V207.173H117.173V201.573Z" fill="#A80F22"/>
<path d="M117.173 207.173H105.973V212.773H117.173V207.173Z" fill="#A80F22"/>
<path d="M94.7873 195.973H83.5872V201.573H94.7873V195.973Z" fill="#A80F22"/>
<path d="M128.373 218.373H122.773V240.773H128.373V218.373Z" fill="#A80F22"/>
<path d="M117.173 229.573H111.573V235.173H117.173V229.573Z" fill="#A80F22"/>
<path d="M122.773 235.173H117.173V240.773H122.773V235.173Z" fill="#A80F22"/>
<path d="M111.573 223.973H105.973V235.173H111.573V223.973Z" fill="#A80F22"/>
<path d="M105.987 229.573H89.1873V235.173H105.987V229.573Z" fill="#A80F22"/>
<path d="M105.987 218.373H94.7874V223.973H105.987V218.373Z" fill="#A80F22"/>
<path d="M94.7873 212.773H83.5872V223.973H94.7873V212.773Z" fill="#A80F22"/>
<path d="M94.7873 223.973H89.1873V229.573H94.7873V223.973Z" fill="#BE1D2C"/>
<path d="M55.5869 173.587H38.7866V190.387H55.5869V173.587Z" fill="#A80F22"/>
<path d="M55.5869 162.387H49.9868V173.587H55.5869V162.387Z" fill="#A80F22"/>
<path d="M49.9867 167.987H38.7866V173.587H49.9867V167.987Z" fill="#A80F22"/>
<path d="M49.9867 145.587H44.3867V156.787H49.9867V145.587Z" fill="#A80F22"/>
<path d="M21.9865 89.5864H-6.01392V95.1864H21.9865V89.5864Z" fill="#A80F22"/>
<path d="M16.3864 78.3862H5.18628V83.9862H16.3864V78.3862Z" fill="#A80F22"/>
<path d="M5.18629 83.9863H-0.413818V89.5864H5.18629V83.9863Z" fill="#A80F22"/>
<path d="M16.3865 95.1865H10.7864V106.387H16.3865V95.1865Z" fill="#A80F22"/>
<path d="M16.3864 100.787H5.18628V106.387H16.3864V100.787Z" fill="#A80F22"/>
<path d="M21.9866 100.787H16.3865V106.387H21.9866V100.787Z" fill="#A80F22"/>
<path d="M5.18621 106.387H-6.01392V111.987H5.18621V106.387Z" fill="#A80F22"/>
<path d="M27.5867 179.187H10.7864V201.587H27.5867V179.187Z" fill="#A80F22"/>
<path d="M33.1867 184.772H27.5865V195.973H33.1867V184.772Z" fill="#A80F22"/>
<path d="M38.7867 184.772H33.1866V195.973H38.7867V184.772Z" fill="#A80F22"/>
<path d="M49.9867 190.373H38.7866V212.773H49.9867V190.373Z" fill="#A80F22"/>
<path d="M77.9872 173.587H55.5869V179.187H77.9872V173.587Z" fill="#A80F22"/>
<path d="M77.9872 179.187H72.3871V195.987H77.9872V179.187Z" fill="#A80F22"/>
<path d="M72.3871 190.373H61.187V218.373H72.3871V190.373Z" fill="#A80F22"/>
<path d="M83.5872 207.173H72.3871V212.773H83.5872V207.173Z" fill="#A80F22"/>
<path d="M83.5872 212.773H77.9872V223.973H83.5872V212.773Z" fill="#A80F22"/>
<path d="M77.9872 218.373H72.3871V223.973H77.9872V218.373Z" fill="#A80F22"/>
<path d="M55.5869 212.773H49.9868V218.373H55.5869V212.773Z" fill="#BE1D2C"/>
<path d="M61.1869 212.773H55.5869V218.373H61.1869V212.773Z" fill="#BE1D2C"/>
<path d="M38.7868 212.773H21.9866V218.373H38.7868V212.773Z" fill="#A80F22"/>
<path d="M66.787 229.573H55.5869V246.373H66.787V229.573Z" fill="#A80F22"/>
<path d="M72.3871 218.373H33.1866V229.573H72.3871V218.373Z" fill="#A80F22"/>
<path d="M49.9867 212.773H38.7866V218.373H49.9867V212.773Z" fill="#A80F22"/>
<path d="M77.9872 229.573H66.7871V240.773H77.9872V229.573Z" fill="#A80F22"/>
<path d="M77.9872 223.973H72.3871V229.573H77.9872V223.973Z" fill="#A80F22"/>
<path d="M94.7873 235.173H77.9872V240.773H94.7873V235.173Z" fill="#A80F22"/>
<path d="M77.9872 240.773H72.3871V246.373H77.9872V240.773Z" fill="#A80F22"/>
<path d="M61.1869 246.373H33.1866V257.573H61.1869V246.373Z" fill="#A80F22"/>
<path d="M44.3867 229.573H38.7866V246.373H44.3867V229.573Z" fill="#A80F22"/>
<path d="M38.7868 235.173H16.3865V246.373H38.7868V235.173Z" fill="#A80F22"/>
<path d="M21.9867 201.573H10.7864V218.373H21.9867V201.573Z" fill="#BE1D2C"/>
<path d="M33.1868 218.373H16.3865V223.973H33.1868V218.373Z" fill="#BE1D2C"/>
<path d="M16.3864 218.373H5.18628V235.173H16.3864V218.373Z" fill="#BE1D2C"/>
<path d="M5.18629 223.973H-0.413818V235.173H5.18629V223.973Z" fill="#BE1D2C"/>
<path d="M44.3868 151.187H27.5865V156.787H44.3868V151.187Z" fill="#BE1D2C"/>
<path d="M38.7867 156.787H27.5865V167.987H38.7867V156.787Z" fill="#BE1D2C"/>
<path d="M33.1868 139.987H10.7864V151.187H33.1868V139.987Z" fill="#BE1D2C"/>
<path d="M21.9865 151.187H5.18628V162.387H21.9865V151.187Z" fill="#BE1D2C"/>
<path d="M27.5865 162.387H5.18628V179.187H27.5865V162.387Z" fill="#BE1D2C"/>
<path d="M27.5865 246.373H-6.01392V251.973H27.5865V246.373Z" fill="#BE1D2C"/>
<path d="M27.5867 251.973H16.3865V263.174H27.5867V251.973Z" fill="#BE1D2C"/>
<path d="M5.18621 263.174H-6.01392V268.774H5.18621V263.174Z" fill="#BE1D2C"/>
<path d="M5.20117 251.973H-22.7992V263.174H5.20117V251.973Z" fill="#BE1D2C"/>
<path d="M5.18621 173.587H-6.01392V184.787H5.18621V173.587Z" fill="#BE1D2C"/>
<path d="M5.18629 156.787H-0.413818V162.387H5.18629V156.787Z" fill="#BE1D2C"/>
<path d="M10.7863 190.373H5.18628V201.573H10.7863V190.373Z" fill="#BE1D2C"/>
<path d="M5.18621 207.173H-6.01392V218.373H5.18621V207.173Z" fill="#330101"/>
<path d="M10.7862 184.772H-6.01392V190.372H10.7862V184.772Z" fill="#560000"/>
<path d="M10.7863 179.187H5.18628V184.787H10.7863V179.187Z" fill="#560000"/>
<path d="M5.18629 190.373H-0.413818V195.973H5.18629V190.373Z" fill="#560000"/>
<path d="M10.7863 201.573H5.18628V207.173H10.7863V201.573Z" fill="#560000"/>
<path d="M77.9872 291.174H66.7871V296.774H77.9872V291.174Z" fill="#A80F22"/>
<path d="M16.4014 134.387H-33.9993V139.987H16.4014V134.387Z" fill="#EF8229"/>
<path d="M5.18621 123.187H-6.01392V134.387H5.18621V123.187Z" fill="#EF8229"/>
<path d="M16.3865 111.987H10.7864V123.187H16.3865V111.987Z" fill="#EF8229"/>
<path d="M21.9866 117.586H16.3865V128.787H21.9866V117.586Z" fill="#EF8229"/>
<path d="M55.587 117.586H21.9866V123.187H55.587V117.586Z" fill="#EF8229"/>
<path d="M44.3868 123.187H27.5865V128.787H44.3868V123.187Z" fill="#EF8229"/>
<path d="M44.3867 128.787H38.7866V139.987H44.3867V128.787Z" fill="#EF8229"/>
<path d="M61.1869 111.987H38.7866V117.587H61.1869V111.987Z" fill="#EF8229"/>
<path d="M49.9867 100.787H44.3867V111.987H49.9867V100.787Z" fill="#EF8229"/>
<path d="M94.7873 106.387H49.9868V111.987H94.7873V106.387Z" fill="#EF8229"/>
<path d="M83.5873 100.787H66.7871V106.387H83.5873V100.787Z" fill="#EF8229"/>
<path d="M83.5872 95.1865H77.9872V100.787H83.5872V95.1865Z" fill="#EF8229"/>
<path d="M100.387 100.787H83.5872V106.387H100.387V100.787Z" fill="#EF8229"/>
<path d="M72.3871 111.987H66.7871V128.787H72.3871V111.987Z" fill="#EF8229"/>
<path d="M66.7871 117.586H61.187V128.787H66.7871V117.586Z" fill="#EF8229"/>
<path d="M55.5869 123.187H49.9868V145.587H55.5869V123.187Z" fill="#EF8229"/>
<path d="M49.9867 128.787H44.3867V134.387H49.9867V128.787Z" fill="#EF8229"/>
<path d="M61.1869 128.787H55.5869V139.987H61.1869V128.787Z" fill="#EF8229"/>
<path d="M72.3871 134.387H61.187V139.987H72.3871V134.387Z" fill="#EF8229"/>
<path d="M72.3871 139.987H66.7871V145.587H72.3871V139.987Z" fill="#EF8229"/>
<path d="M94.7873 139.987H83.5872V145.587H94.7873V139.987Z" fill="#EF8229"/>
<path d="M77.9872 123.187H72.3871V139.987H77.9872V123.187Z" fill="#EF8229"/>
<path d="M83.5872 123.187H77.9872V139.987H83.5872V123.187Z" fill="#EF8229"/>
<path d="M94.7873 128.787H83.5872V139.987H94.7873V128.787Z" fill="#EF8229"/>
<path d="M122.788 128.787H94.7874V134.387H122.788V128.787Z" fill="#EF8229"/>
<path d="M100.387 95.1865H94.7874V100.787H100.387V95.1865Z" fill="#EF8229"/>
<path d="M184.373 61.5859H167.573V78.3862H184.373V61.5859Z" fill="#FFAB15"/>
<path d="M178.774 56.001H173.174V61.6011H178.774V56.001Z" fill="#FFAB15"/>
<path d="M156.373 56.001H150.773V61.6011H156.373V56.001Z" fill="#FFAB15"/>
<path d="M167.573 56.001H156.373V67.2011H167.573V56.001Z" fill="#FFAB15"/>
<path d="M195.574 78.3862H178.773V89.5864H195.574V78.3862Z" fill="#FFAB15"/>
<path d="M167.573 72.7861H145.173V89.5864H167.573V72.7861Z" fill="#FFAB15"/>
<path d="M173.173 78.3862H167.573V95.1864H173.173V78.3862Z" fill="#FFAB15"/>
<path d="M178.773 95.1865H150.773V100.787H178.773V95.1865Z" fill="#FFAB15"/>
<path d="M145.173 83.9863H128.373V95.1865H145.173V83.9863Z" fill="#FFAB15"/>
<path d="M150.773 100.787H133.973V106.387H150.773V100.787Z" fill="#FFAB15"/>
<path d="M117.173 111.987H100.373V123.187H117.173V111.987Z" fill="#FFAB15"/>
<path d="M122.773 117.586H111.573V128.787H122.773V117.586Z" fill="#FFAB15"/>
<path d="M111.573 100.787H105.973V111.987H111.573V100.787Z" fill="#FFAB15"/>
<path d="M100.387 111.987H94.7874V117.587H100.387V111.987Z" fill="#FFAB15"/>
<path d="M105.973 123.187H100.373V128.787H105.973V123.187Z" fill="#FFAB15"/>
<path d="M212.374 162.387H195.574V167.987H212.374V162.387Z" fill="#330101"/>
<path d="M217.974 167.987H212.374V179.187H217.974V167.987Z" fill="#330101"/>
<path d="M223.559 179.187H217.959V184.787H223.559V179.187Z" fill="#330101"/>
<path d="M195.574 167.987H167.573V173.587H195.574V167.987Z" fill="#330101"/>
<path d="M173.173 173.587H167.573V184.787H173.173V173.587Z" fill="#330101"/>
<path d="M173.173 195.973H167.573V207.173H173.173V195.973Z" fill="#330101"/>
<path d="M178.774 184.772H173.174V195.973H178.774V184.772Z" fill="#FF433E"/>
<path d="M212.374 167.987H195.574V179.187H212.374V167.987Z" fill="#560000"/>
<path d="M195.574 173.587H173.174V184.787H195.574V173.587Z" fill="#560000"/>
<path d="M217.974 179.187H201.174V190.387H217.974V179.187Z" fill="#560000"/>
<path d="M212.374 195.973H201.174V201.573H212.374V195.973Z" fill="#560000"/>
<path d="M206.774 201.573H195.574V207.173H206.774V201.573Z" fill="#560000"/>
<path d="M212.374 190.373H206.774V195.973H212.374V190.373Z" fill="#560000"/>
<path d="M201.174 207.173H184.374V212.773H201.174V207.173Z" fill="#560000"/>
<path d="M184.374 212.773H173.174V218.373H184.374V212.773Z" fill="#560000"/>
<path d="M178.774 195.973H173.174V212.773H178.774V195.973Z" fill="#560000"/>
<path d="M184.374 184.772H178.773V195.973H184.374V184.772Z" fill="#560000"/>
<path d="M195.574 184.772H189.974V190.372H195.574V184.772Z" fill="#560000"/>
<path d="M195.574 195.973H184.374V201.573H195.574V195.973Z" fill="#560000"/>
<path d="M201.174 195.973H195.574V201.573H201.174V195.973Z" fill="#560000"/>
<path d="M201.174 179.187H195.574V195.987H201.174V179.187Z" fill="#750A0A"/>
<path d="M206.774 190.373H201.174V195.973H206.774V190.373Z" fill="#750A0A"/>
<path d="M189.974 184.772H184.374V195.973H189.974V184.772Z" fill="#750A0A"/>
<path d="M195.574 190.373H189.974V195.973H195.574V190.373Z" fill="#750A0A"/>
<path d="M184.374 195.973H178.773V207.173H184.374V195.973Z" fill="#750A0A"/>
<path d="M195.574 201.573H184.374V207.173H195.574V201.573Z" fill="#750A0A"/>
<path d="M184.374 207.173H178.773V212.773H184.374V207.173Z" fill="#750A0A"/>
<path d="M33.1868 279.974H21.9866V291.174H33.1868V279.974Z" fill="#750038"/>
<path d="M10.7863 263.174H5.18628V285.574H10.7863V263.174Z" fill="#750038"/>
<path d="M33.1867 268.773H-0.413818V274.374H33.1867V268.773Z" fill="#3D0320"/>
<path d="M55.587 263.174H21.9866V268.774H55.587V263.174Z" fill="#3D0320"/>
<path d="M44.3868 274.374H27.5865V279.974H44.3868V274.374Z" fill="#3D0320"/>
<path d="M66.787 268.773H38.7866V274.374H66.787V268.773Z" fill="#750038"/>
<path d="M44.3868 285.574H33.1866V296.774H44.3868V285.574Z" fill="#750038"/>
<path d="M77.9871 279.974H44.3867V291.174H77.9871V279.974Z" fill="#3D0320"/>
<path d="M66.787 274.374H55.5869V279.974H66.787V274.374Z" fill="#3D0320"/>
<path d="M89.1872 257.573H44.3867V263.174H89.1872V257.573Z" fill="#3D0320"/>
<path d="M66.7871 263.174H61.187V268.774H66.7871V263.174Z" fill="#750038"/>
<path d="M72.3871 246.373H66.7871V257.573H72.3871V246.373Z" fill="#750038"/>
<path d="M100.387 251.973H72.3871V257.573H100.387V251.973Z" fill="#3D0320"/>
<path d="M105.987 263.174H94.7874V268.774H105.987V263.174Z" fill="#56041B"/>
<path d="M89.1873 263.174H77.9872V285.574H89.1873V263.174Z" fill="#3D0320"/>
<path d="M100.387 279.974H94.7874V285.574H100.387V279.974Z" fill="#56041B"/>
<path d="M94.7873 263.174H89.1873V268.774H94.7873V263.174Z" fill="#56041B"/>
<path d="M94.7873 279.974H89.1873V285.574H94.7873V279.974Z" fill="#56041B"/>
<path d="M105.973 268.773H100.373V279.974H105.973V268.773Z" fill="#7C052A"/>
<path d="M117.173 240.773H111.573V257.573H117.173V240.773Z" fill="#7C052A"/>
<path d="M111.573 240.773H100.373V246.373H111.573V240.773Z" fill="#3D0320"/>
<path d="M111.573 251.973H105.973V257.573H111.573V251.973Z" fill="#3D0320"/>
<path d="M111.588 257.573H94.7874V263.174H111.588V257.573Z" fill="#3D0320"/>
<path d="M122.773 257.573H117.173V268.774H122.773V257.573Z" fill="#3D0320"/>
<path d="M117.173 263.174H105.973V268.774H117.173V263.174Z" fill="#3D0320"/>
<path d="M128.373 274.374H105.973V279.974H128.373V274.374Z" fill="#3D0320"/>
<path d="M128.373 268.773H117.173V274.374H128.373V268.773Z" fill="#7C052A"/>
<path d="M55.5868 268.773H44.3867V279.974H55.5868V268.773Z" fill="#3D0320"/>
<path d="M72.3871 268.773H61.187V279.974H72.3871V268.773Z" fill="#3D0320"/>
<path d="M128.373 246.373H117.173V251.973H128.373V246.373Z" fill="#3D0320"/>
<path d="M133.973 240.773H128.373V257.573H133.973V240.773Z" fill="#3D0320"/>
<path d="M139.573 223.973H133.973V240.773H139.573V223.973Z" fill="#7C052A"/>
<path d="M173.173 235.173H139.573V240.773H173.173V235.173Z" fill="#7C052A"/>
<path d="M167.574 229.573H161.974V235.173H167.574V229.573Z" fill="#7C052A"/>
<path d="M156.373 223.973H139.573V229.573H156.373V223.973Z" fill="#7C052A"/>
<path d="M156.373 229.573H150.773V235.173H156.373V229.573Z" fill="#7C052A"/>
<path d="M161.973 240.773H156.373V251.973H161.973V240.773Z" fill="#7C052A"/>
</svg>
