<svg width="40" height="40" viewBox="0 0 40 40" fill="none" xmlns="http://www.w3.org/2000/svg">
<rect width="40" height="40" rx="10" fill="white"/>
<path d="M23.3398 29.9414H25.2456V31.8472H23.3398V29.9414Z" fill="#333333"/>
<path d="M17.623 29.9414H19.5288V31.8472H17.623V29.9414Z" fill="#333333"/>
<path d="M21.4346 29.9414H23.3403V31.8472H21.4346V29.9414Z" fill="#333333"/>
<path d="M19.5283 29.9414H21.4341V31.8472H19.5283V29.9414Z" fill="#333333"/>
<path d="M15.7168 29.9414H17.6225V31.8472H15.7168V29.9414Z" fill="#333333"/>
<path d="M13.8115 29.9414H15.7173V31.8472H13.8115V29.9414Z" fill="#333333"/>
<path d="M23.3398 14.6953H25.2456V16.6011H23.3398V14.6953Z" fill="#333333"/>
<path d="M25.1953 14.6953H27.1011V16.6011H25.1953V14.6953Z" fill="#333333"/>
<path d="M27.0508 14.6953H28.9565V16.6011H27.0508V14.6953Z" fill="#333333"/>
<path d="M17.623 14.6953H19.5288V16.6011H17.623V14.6953Z" fill="#333333"/>
<path d="M21.4346 14.6953H23.3403V16.6011H21.4346V14.6953Z" fill="#333333"/>
<path d="M19.5283 14.6953H21.4341V16.6011H19.5283V14.6953Z" fill="#333333"/>
<path d="M15.7168 14.6953H17.6225V16.6011H15.7168V14.6953Z" fill="#333333"/>
<path d="M13.8115 14.6953H15.7173V16.6011H13.8115V14.6953Z" fill="#333333"/>
<path d="M11.9053 14.6953H13.811V16.6011H11.9053V14.6953Z" fill="#333333"/>
<path d="M10 14.6953H11.9057V16.6011H10V14.6953Z" fill="#333333"/>
<path d="M10.0068 12.7969H11.9126V14.7026H10.0068V12.7969Z" fill="#333333"/>
<path d="M27.0947 12.7969H29.0005V14.7026H27.0947V12.7969Z" fill="#333333"/>
<path d="M27.0947 10.8984H29.0005V12.8042H27.0947V10.8984Z" fill="#333333"/>
<path d="M10.0068 10.8984H11.9126V12.8042H10.0068V10.8984Z" fill="#333333"/>
<path d="M11.9053 10.8984H13.811V12.8042H11.9053V10.8984Z" fill="#333333"/>
<path d="M13.8047 10.8984H15.7104V12.8042H13.8047V10.8984Z" fill="#333333"/>
<path d="M15.7031 10.8984H17.6089V12.8042H15.7031V10.8984Z" fill="#333333"/>
<path d="M17.6016 10.8984H19.5073V12.8042H17.6016V10.8984Z" fill="#333333"/>
<path d="M17.6016 9H19.5073V10.9057H17.6016V9Z" fill="#333333"/>
<path d="M19.5 10.8984H21.4057V12.8042H19.5V10.8984Z" fill="#333333"/>
<path d="M19.5 9H21.4057V10.9057H19.5V9Z" fill="#333333"/>
<path d="M21.3984 10.8984H23.3042V12.8042H21.3984V10.8984Z" fill="#333333"/>
<path d="M23.2969 10.8984H25.2026V12.8042H23.2969V10.8984Z" fill="#333333"/>
<path d="M25.1953 10.8984H27.1011V12.8042H25.1953V10.8984Z" fill="#333333"/>
<path d="M11.9053 24.2236H13.811V26.1294H11.9053V24.2236Z" fill="#333333"/>
<path d="M16.6523 24.2236H18.5581V26.1294H16.6523V24.2236Z" fill="#333333"/>
<path d="M20.9238 24.2236H22.8296V26.1294H20.9238V24.2236Z" fill="#333333"/>
<path d="M11.9053 26.1299H13.811V28.0356H11.9053V26.1299Z" fill="#333333"/>
<path d="M16.6523 26.1299H18.5581V28.0356H16.6523V26.1299Z" fill="#333333"/>
<path d="M20.9238 26.1299H22.8296V28.0356H20.9238V26.1299Z" fill="#333333"/>
<path d="M11.9062 22.3184H13.812V24.2241H11.9062V22.3184Z" fill="#333333"/>
<path d="M16.6523 22.3184H18.5581V24.2241H16.6523V22.3184Z" fill="#333333"/>
<path d="M20.9238 22.3184H22.8296V24.2241H20.9238V22.3184Z" fill="#333333"/>
<path d="M11.9053 20.4121H13.811V22.3179H11.9053V20.4121Z" fill="#333333"/>
<path d="M16.6523 20.4121H18.5581V22.3179H16.6523V20.4121Z" fill="#333333"/>
<path d="M20.9238 20.4121H22.8296V22.3179H20.9238V20.4121Z" fill="#333333"/>
<path d="M25.2461 26.1299H27.1518V28.0356H25.2461V26.1299Z" fill="#333333"/>
<path d="M25.2461 24.1892H27.1518V26.1309H25.2461V24.1892Z" fill="#333333"/>
<path d="M11.9053 28.0352H13.811V29.9409H11.9053V28.0352Z" fill="#333333"/>
<path d="M25.2461 28.0352H27.1518V29.9409H25.2461V28.0352Z" fill="#333333"/>
<path d="M25.2461 22.3184H27.1518V24.2241H25.2461V22.3184Z" fill="#333333"/>
<path d="M25.2461 20.4121H27.1518V22.3179H25.2461V20.4121Z" fill="#333333"/>
<path d="M11.9053 18.5068H13.811V20.4126H11.9053V18.5068Z" fill="#333333"/>
<path d="M16.6523 18.5068H18.5581V20.4126H16.6523V18.5068Z" fill="#333333"/>
<path d="M20.9238 18.5068H22.8296V20.4126H20.9238V18.5068Z" fill="#333333"/>
<path d="M25.2461 18.5068H27.1518V20.4126H25.2461V18.5068Z" fill="#333333"/>
<path d="M11.9053 16.6018H13.811V18.5076H11.9053V16.6018Z" fill="#333333"/>
<path d="M25.2461 16.6018H27.1518V18.5076H25.2461V16.6018Z" fill="#333333"/>
</svg>
