<svg width="101" height="101" viewBox="0 0 101 101" fill="none" xmlns="http://www.w3.org/2000/svg">
<path d="M100.591 61.0725H96.9973V64.6635H100.591V61.0725Z" fill="#FFCE99"/>
<path d="M100.591 57.4817H96.9973V61.0756H100.591V57.4817Z" fill="#FFCE99"/>
<path d="M100.591 53.8879H96.9973V57.4789H100.591V53.8879Z" fill="#F2B375"/>
<path d="M100.591 50.2971H96.9973V53.891H100.591V50.2971Z" fill="#F2B375"/>
<path d="M100.591 46.7029H96.9973V50.2939H100.591V46.7029Z" fill="#F2B375"/>
<path d="M100.591 43.1121H96.9973V46.7059H100.591V43.1121Z" fill="#F2B375"/>
<path d="M100.591 39.5186H96.9973V43.1095H100.591V39.5186Z" fill="#F2B375"/>
<path d="M100.591 35.927H96.9973V39.5209H100.591V35.927Z" fill="#F2B375"/>
<path d="M96.997 68.2576H93.406V71.8514H96.997V68.2576Z" fill="#F2B375"/>
<path d="M96.997 64.6667H93.406V68.2606H96.997V64.6667Z" fill="#E3430B"/>
<path d="M96.997 61.0725H93.406V64.6635H96.997V61.0725Z" fill="#FFCE99"/>
<path d="M96.997 57.4817H93.406V61.0756H96.997V57.4817Z" fill="#FFCE99"/>
<path d="M96.997 53.8879H93.406V57.4789H96.997V53.8879Z" fill="#F2B375"/>
<path d="M96.997 50.2971H93.406V53.891H96.997V50.2971Z" fill="#F2B375"/>
<path d="M96.997 46.7029H93.406V50.2939H96.997V46.7029Z" fill="#F2B375"/>
<path d="M96.997 43.1121H93.406V46.7059H96.997V43.1121Z" fill="#F2B375"/>
<path d="M96.997 39.5186H93.406V43.1095H96.997V39.5186Z" fill="#F2B375"/>
<path d="M96.997 35.927H93.406V39.5209H96.997V35.927Z" fill="#F2B375"/>
<path d="M96.997 32.3333H93.406V35.9271H96.997V32.3333Z" fill="#F2B375"/>
<path d="M96.997 28.7424H93.406V32.3334H96.997V28.7424Z" fill="#F2B375"/>
<path d="M93.4063 71.8513H89.8125V75.4423H93.4063V71.8513Z" fill="#F2B375"/>
<path d="M93.4063 68.2576H89.8125V71.8514H93.4063V68.2576Z" fill="#E3430B"/>
<path d="M93.4063 64.6667H89.8125V68.2606H93.4063V64.6667Z" fill="#E3430B"/>
<path d="M93.4063 61.0725H89.8125V64.6635H93.4063V61.0725Z" fill="#F2B375"/>
<path d="M93.4063 57.4817H89.8125V61.0756H93.4063V57.4817Z" fill="#F2B375"/>
<path d="M93.4063 53.8879H89.8125V57.4789H93.4063V53.8879Z" fill="#F2B375"/>
<path d="M93.4063 50.2971H89.8125V53.891H93.4063V50.2971Z" fill="#F2B375"/>
<path d="M93.4063 46.7029H89.8125V50.2939H93.4063V46.7029Z" fill="#F2B375"/>
<path d="M93.4063 43.1121H89.8125V46.7059H93.4063V43.1121Z" fill="#F2B375"/>
<path d="M93.4063 39.5186H89.8125V43.1095H93.4063V39.5186Z" fill="#F2B375"/>
<path d="M93.4063 35.927H89.8125V39.5209H93.4063V35.927Z" fill="#F2B375"/>
<path d="M93.4063 32.3333H89.8125V35.9271H93.4063V32.3333Z" fill="#F2B375"/>
<path d="M93.4063 28.7424H89.8125V32.3334H93.4063V28.7424Z" fill="#F2B375"/>
<path d="M93.4063 25.1482H89.8125V28.7421H93.4063V25.1482Z" fill="#FFCE99"/>
<path d="M89.8124 79.0364H86.2185V82.6273H89.8124V79.0364Z" fill="#F2B375"/>
<path d="M89.8124 75.4426H86.2185V79.0365H89.8124V75.4426Z" fill="#F7750B"/>
<path d="M89.8124 71.8513H86.2185V75.4423H89.8124V71.8513Z" fill="#F7750B"/>
<path d="M89.8124 68.2576H86.2185V71.8514H89.8124V68.2576Z" fill="#E3430B"/>
<path d="M89.8124 64.6667H86.2185V68.2606H89.8124V64.6667Z" fill="#F2B375"/>
<path d="M89.8124 61.0725H86.2185V64.6635H89.8124V61.0725Z" fill="#F2B375"/>
<path d="M89.8124 57.4817H86.2185V61.0756H89.8124V57.4817Z" fill="#F2B375"/>
<path d="M89.8124 53.8879H86.2185V57.4789H89.8124V53.8879Z" fill="#F2B375"/>
<path d="M89.8124 50.2971H86.2185V53.891H89.8124V50.2971Z" fill="#FFCE99"/>
<path d="M89.8124 46.7029H86.2185V50.2939H89.8124V46.7029Z" fill="#FFCE99"/>
<path d="M89.8124 43.1121H86.2185V46.7059H89.8124V43.1121Z" fill="#FFCE99"/>
<path d="M89.8124 39.5186H86.2185V43.1095H89.8124V39.5186Z" fill="#FFCE99"/>
<path d="M89.8124 35.927H86.2185V39.5209H89.8124V35.927Z" fill="#FFCE99"/>
<path d="M89.8124 32.3333H86.2185V35.9271H89.8124V32.3333Z" fill="#FFCE99"/>
<path d="M89.8124 28.7424H86.2185V32.3334H89.8124V28.7424Z" fill="#FFCE99"/>
<path d="M89.8124 25.1482H86.2185V28.7421H89.8124V25.1482Z" fill="#FFCE99"/>
<path d="M89.8124 21.5574H86.2185V25.1483H89.8124V21.5574Z" fill="#FFCE99"/>
<path d="M89.8124 17.9639H86.2185V21.5577H89.8124V17.9639Z" fill="#FFCE99"/>
<path d="M86.2182 82.6272H82.6272V86.2211H86.2182V82.6272Z" fill="#F2B375"/>
<path d="M86.2182 79.0364H82.6272V82.6273H86.2182V79.0364Z" fill="#F7750B"/>
<path d="M86.2182 75.4426H82.6272V79.0365H86.2182V75.4426Z" fill="#F7750B"/>
<path d="M86.2182 71.8513H82.6272V75.4423H86.2182V71.8513Z" fill="#F2B375"/>
<path d="M86.2182 68.2576H82.6272V71.8514H86.2182V68.2576Z" fill="#F2B375"/>
<path d="M86.2182 64.6667H82.6272V68.2606H86.2182V64.6667Z" fill="#F2B375"/>
<path d="M86.2182 61.0725H82.6272V64.6635H86.2182V61.0725Z" fill="#F2B375"/>
<path d="M86.2182 57.4817H82.6272V61.0756H86.2182V57.4817Z" fill="#F2B375"/>
<path d="M86.2182 53.8879H82.6272V57.4789H86.2182V53.8879Z" fill="#FFCE99"/>
<path d="M86.2182 50.2971H82.6272V53.891H86.2182V50.2971Z" fill="#FFCE99"/>
<path d="M86.2182 46.7029H82.6272V50.2939H86.2182V46.7029Z" fill="#FFCE99"/>
<path d="M86.2182 43.1121H82.6272V46.7059H86.2182V43.1121Z" fill="#FFCE99"/>
<path d="M86.2182 39.5186H82.6272V43.1095H86.2182V39.5186Z" fill="#FFCE99"/>
<path d="M86.2182 35.927H82.6272V39.5209H86.2182V35.927Z" fill="#FFCE99"/>
<path d="M86.2182 32.3333H82.6272V35.9271H86.2182V32.3333Z" fill="#FFCE99"/>
<path d="M86.2182 28.7424H82.6272V32.3334H86.2182V28.7424Z" fill="#FFCE99"/>
<path d="M86.2182 25.1482H82.6272V28.7421H86.2182V25.1482Z" fill="#FFCE99"/>
<path d="M86.2182 21.5574H82.6272V25.1483H86.2182V21.5574Z" fill="#FFCE99"/>
<path d="M86.2182 17.9639H82.6272V21.5577H86.2182V17.9639Z" fill="#FFCE99"/>
<path d="M86.2182 14.3728H82.6272V17.9638H86.2182V14.3728Z" fill="#FFCE99"/>
<path d="M82.6276 86.2214H79.0337V89.8124H82.6276V86.2214Z" fill="#F2B375"/>
<path d="M82.6276 82.6272H79.0337V86.2211H82.6276V82.6272Z" fill="#F2B375"/>
<path d="M82.6276 79.0364H79.0337V82.6273H82.6276V79.0364Z" fill="#F7750B"/>
<path d="M82.6276 75.4426H79.0337V79.0365H82.6276V75.4426Z" fill="#F2B375"/>
<path d="M82.6276 71.8513H79.0337V75.4423H82.6276V71.8513Z" fill="#F2B375"/>
<path d="M82.6276 68.2576H79.0337V71.8514H82.6276V68.2576Z" fill="#F2B375"/>
<path d="M82.6276 64.6667H79.0337V68.2606H82.6276V64.6667Z" fill="#F2B375"/>
<path d="M82.6276 61.0725H79.0337V64.6635H82.6276V61.0725Z" fill="#FFCE99"/>
<path d="M82.6276 57.4817H79.0337V61.0756H82.6276V57.4817Z" fill="#FFCE99"/>
<path d="M82.6276 53.8879H79.0337V57.4789H82.6276V53.8879Z" fill="#FFCE99"/>
<path d="M82.6276 50.2971H79.0337V53.891H82.6276V50.2971Z" fill="#FFCE99"/>
<path d="M82.6276 46.7029H79.0337V50.2939H82.6276V46.7029Z" fill="#FFCE99"/>
<path d="M82.6276 43.1121H79.0337V46.7059H82.6276V43.1121Z" fill="#FFCE99"/>
<path d="M82.6276 39.5186H79.0337V43.1095H82.6276V39.5186Z" fill="#FFCE99"/>
<path d="M82.6276 35.927H79.0337V39.5209H82.6276V35.927Z" fill="#FFCE99"/>
<path d="M82.6276 32.3333H79.0337V35.9271H82.6276V32.3333Z" fill="#FFCE99"/>
<path d="M82.6276 28.7424H79.0337V32.3334H82.6276V28.7424Z" fill="#FFCE99"/>
<path d="M82.6276 25.1482H79.0337V28.7421H82.6276V25.1482Z" fill="#FFCE99"/>
<path d="M82.6276 21.5574H79.0337V25.1483H82.6276V21.5574Z" fill="#FFCE99"/>
<path d="M82.6276 17.9639H79.0337V21.5577H82.6276V17.9639Z" fill="#FFCE99"/>
<path d="M82.6276 14.3728H79.0337V17.9638H82.6276V14.3728Z" fill="#FFCE99"/>
<path d="M82.6276 10.7786H79.0337V14.3724H82.6276V10.7786Z" fill="#FFCE99"/>
<path d="M79.0331 86.2214H75.4421V89.8124H79.0331V86.2214Z" fill="#E3430B"/>
<path d="M79.0331 82.6272H75.4421V86.2211H79.0331V82.6272Z" fill="#E3430B"/>
<path d="M79.0331 79.0364H75.4421V82.6273H79.0331V79.0364Z" fill="#F7750B"/>
<path d="M79.0331 75.4426H75.4421V79.0365H79.0331V75.4426Z" fill="#F2B375"/>
<path d="M79.0331 71.8513H75.4421V75.4423H79.0331V71.8513Z" fill="#FFCE99"/>
<path d="M79.0331 68.2576H75.4421V71.8514H79.0331V68.2576Z" fill="#FFCE99"/>
<path d="M79.0331 64.6667H75.4421V68.2606H79.0331V64.6667Z" fill="#FFCE99"/>
<path d="M79.0331 61.0725H75.4421V64.6635H79.0331V61.0725Z" fill="#FFCE99"/>
<path d="M79.0331 57.4817H75.4421V61.0756H79.0331V57.4817Z" fill="#FFCE99"/>
<path d="M79.0331 53.8879H75.4421V57.4789H79.0331V53.8879Z" fill="#FFCE99"/>
<path d="M79.0331 50.2971H75.4421V53.891H79.0331V50.2971Z" fill="#FFCE99"/>
<path d="M79.0331 46.7029H75.4421V50.2939H79.0331V46.7029Z" fill="#FFCE99"/>
<path d="M79.0331 43.1121H75.4421V46.7059H79.0331V43.1121Z" fill="#FFCE99"/>
<path d="M79.0331 39.5186H75.4421V43.1095H79.0331V39.5186Z" fill="#FFCE99"/>
<path d="M79.0331 35.927H75.4421V39.5209H79.0331V35.927Z" fill="#FFCE99"/>
<path d="M79.0331 32.3333H75.4421V35.9271H79.0331V32.3333Z" fill="#FFCE99"/>
<path d="M79.0331 28.7424H75.4421V32.3334H79.0331V28.7424Z" fill="#FFCE99"/>
<path d="M79.0331 25.1482H75.4421V28.7421H79.0331V25.1482Z" fill="#FFCE99"/>
<path d="M79.0331 21.5574H75.4421V25.1483H79.0331V21.5574Z" fill="#FFCE99"/>
<path d="M79.0331 17.9639H75.4421V21.5577H79.0331V17.9639Z" fill="#FFCE99"/>
<path d="M79.0331 14.3728H75.4421V17.9638H79.0331V14.3728Z" fill="#FFCE99"/>
<path d="M79.0331 10.7786H75.4421V14.3724H79.0331V10.7786Z" fill="#FFCE99"/>
<path d="M75.4423 89.8123H71.8484V93.4061H75.4423V89.8123Z" fill="#F2B375"/>
<path d="M75.4423 86.2214H71.8484V89.8124H75.4423V86.2214Z" fill="#E3430B"/>
<path d="M75.4423 82.6272H71.8484V86.2211H75.4423V82.6272Z" fill="#F7750B"/>
<path d="M75.4423 79.0364H71.8484V82.6273H75.4423V79.0364Z" fill="#F2B375"/>
<path d="M75.4423 75.4426H71.8484V79.0365H75.4423V75.4426Z" fill="#F2B375"/>
<path d="M75.4423 71.8513H71.8484V75.4423H75.4423V71.8513Z" fill="#FFCE99"/>
<path d="M75.4423 68.2576H71.8484V71.8514H75.4423V68.2576Z" fill="#FFCE99"/>
<path d="M75.4423 64.6667H71.8484V68.2606H75.4423V64.6667Z" fill="#FFCE99"/>
<path d="M75.4423 61.0725H71.8484V64.6635H75.4423V61.0725Z" fill="#FFCE99"/>
<path d="M75.4423 57.4817H71.8484V61.0756H75.4423V57.4817Z" fill="#FFCE99"/>
<path d="M75.4423 53.8879H71.8484V57.4789H75.4423V53.8879Z" fill="#FFCE99"/>
<path d="M75.4423 50.2971H71.8484V53.891H75.4423V50.2971Z" fill="#FFCE99"/>
<path d="M75.4423 46.7029H71.8484V50.2939H75.4423V46.7029Z" fill="#FFCE99"/>
<path d="M75.4423 43.1121H71.8484V46.7059H75.4423V43.1121Z" fill="#FFCE99"/>
<path d="M75.4423 39.5186H71.8484V43.1095H75.4423V39.5186Z" fill="#FFCE99"/>
<path d="M75.4423 35.927H71.8484V39.5209H75.4423V35.927Z" fill="#E3430B"/>
<path d="M75.4423 32.3333H71.8484V35.9271H75.4423V32.3333Z" fill="#E3430B"/>
<path d="M75.4423 28.7424H71.8484V32.3334H75.4423V28.7424Z" fill="#E3430B"/>
<path d="M75.4423 25.1482H71.8484V28.7421H75.4423V25.1482Z" fill="#E3430B"/>
<path d="M75.4423 21.5574H71.8484V25.1483H75.4423V21.5574Z" fill="#E3430B"/>
<path d="M75.4423 17.9639H71.8484V21.5577H75.4423V17.9639Z" fill="#E3430B"/>
<path d="M75.4423 14.3728H71.8484V17.9638H75.4423V14.3728Z" fill="#FFCE99"/>
<path d="M75.4423 10.7786H71.8484V14.3724H75.4423V10.7786Z" fill="#FFCE99"/>
<path d="M75.4423 7.18506H71.8484V10.7789H75.4423V7.18506Z" fill="#FFCE99"/>
<path d="M71.8483 93.406H68.2573V96.9999H71.8483V93.406Z" fill="#F2B375"/>
<path d="M71.8483 89.8123H68.2573V93.4061H71.8483V89.8123Z" fill="#E3430B"/>
<path d="M71.8483 86.2214H68.2573V89.8124H71.8483V86.2214Z" fill="#E3430B"/>
<path d="M71.8483 82.6272H68.2573V86.2211H71.8483V82.6272Z" fill="#F7750B"/>
<path d="M71.8483 79.0364H68.2573V82.6273H71.8483V79.0364Z" fill="#F2B375"/>
<path d="M71.8483 75.4426H68.2573V79.0365H71.8483V75.4426Z" fill="#FFCE99"/>
<path d="M71.8483 71.8513H68.2573V75.4423H71.8483V71.8513Z" fill="#FFCE99"/>
<path d="M71.8483 68.2576H68.2573V71.8514H71.8483V68.2576Z" fill="#FFCE99"/>
<path d="M71.8483 64.6667H68.2573V68.2606H71.8483V64.6667Z" fill="#FFCE99"/>
<path d="M71.8483 61.0725H68.2573V64.6635H71.8483V61.0725Z" fill="#FFCE99"/>
<path d="M71.8483 57.4817H68.2573V61.0756H71.8483V57.4817Z" fill="#FFCE99"/>
<path d="M71.8483 53.8879H68.2573V57.4789H71.8483V53.8879Z" fill="#FFCE99"/>
<path d="M71.8483 50.2971H68.2573V53.891H71.8483V50.2971Z" fill="#FFCE99"/>
<path d="M71.8483 46.7029H68.2573V50.2939H71.8483V46.7029Z" fill="#FFCE99"/>
<path d="M71.8483 43.1121H68.2573V46.7059H71.8483V43.1121Z" fill="#E3430B"/>
<path d="M71.8483 39.5186H68.2573V43.1095H71.8483V39.5186Z" fill="#E3430B"/>
<path d="M71.8483 35.927H68.2573V39.5209H71.8483V35.927Z" fill="#E3430B"/>
<path d="M71.8483 32.3333H68.2573V35.9271H71.8483V32.3333Z" fill="#F7750B"/>
<path d="M71.8483 28.7424H68.2573V32.3334H71.8483V28.7424Z" fill="#F7750B"/>
<path d="M71.8483 25.1482H68.2573V28.7421H71.8483V25.1482Z" fill="#F7750B"/>
<path d="M71.8483 21.5574H68.2573V25.1483H71.8483V21.5574Z" fill="#F7750B"/>
<path d="M71.8483 17.9639H68.2573V21.5577H71.8483V17.9639Z" fill="#F7750B"/>
<path d="M71.8483 14.3728H68.2573V17.9638H71.8483V14.3728Z" fill="#FFCE99"/>
<path d="M71.8483 10.7786H68.2573V14.3724H71.8483V10.7786Z" fill="#FFCE99"/>
<path d="M71.8483 7.18506H68.2573V10.7789H71.8483V7.18506Z" fill="#FFCE99"/>
<path d="M71.8483 3.59424H68.2573V7.18521H71.8483V3.59424Z" fill="#FFCE99"/>
<path d="M68.2572 93.406H64.6633V96.9999H68.2572V93.406Z" fill="#F2B375"/>
<path d="M68.2572 89.8123H64.6633V93.4061H68.2572V89.8123Z" fill="#E3430B"/>
<path d="M68.2572 86.2214H64.6633V89.8124H68.2572V86.2214Z" fill="#F7750B"/>
<path d="M68.2572 82.6272H64.6633V86.2211H68.2572V82.6272Z" fill="#F2B375"/>
<path d="M68.2572 79.0364H64.6633V82.6273H68.2572V79.0364Z" fill="#FFCE99"/>
<path d="M68.2572 75.4426H64.6633V79.0365H68.2572V75.4426Z" fill="#FFCE99"/>
<path d="M68.2572 71.8513H64.6633V75.4423H68.2572V71.8513Z" fill="#FFCE99"/>
<path d="M68.2572 68.2576H64.6633V71.8514H68.2572V68.2576Z" fill="#FFCE99"/>
<path d="M68.2572 64.6667H64.6633V68.2606H68.2572V64.6667Z" fill="#FFCE99"/>
<path d="M68.2572 61.0725H64.6633V64.6635H68.2572V61.0725Z" fill="#FFCE99"/>
<path d="M68.2572 57.4817H64.6633V61.0756H68.2572V57.4817Z" fill="#FFCE99"/>
<path d="M68.2572 53.8879H64.6633V57.4789H68.2572V53.8879Z" fill="#FFCE99"/>
<path d="M68.2572 50.2971H64.6633V53.891H68.2572V50.2971Z" fill="#E3430B"/>
<path d="M68.2572 46.7029H64.6633V50.2939H68.2572V46.7029Z" fill="#E3430B"/>
<path d="M68.2572 43.1121H64.6633V46.7059H68.2572V43.1121Z" fill="#E3430B"/>
<path d="M68.2572 39.5186H64.6633V43.1095H68.2572V39.5186Z" fill="#F7750B"/>
<path d="M68.2572 35.927H64.6633V39.5209H68.2572V35.927Z" fill="#F7750B"/>
<path d="M68.2572 32.3333H64.6633V35.9271H68.2572V32.3333Z" fill="#F2B375"/>
<path d="M68.2572 28.7424H64.6633V32.3334H68.2572V28.7424Z" fill="#F2B375"/>
<path d="M68.2572 25.1482H64.6633V28.7421H68.2572V25.1482Z" fill="#F2B375"/>
<path d="M68.2572 21.5574H64.6633V25.1483H68.2572V21.5574Z" fill="#F7750B"/>
<path d="M68.2572 17.9639H64.6633V21.5577H68.2572V17.9639Z" fill="#F2B375"/>
<path d="M68.2572 14.3728H64.6633V17.9638H68.2572V14.3728Z" fill="#F7750B"/>
<path d="M68.2572 10.7786H64.6633V14.3724H68.2572V10.7786Z" fill="#F7750B"/>
<path d="M68.2572 7.18506H64.6633V10.7789H68.2572V7.18506Z" fill="#F7750B"/>
<path d="M68.2572 3.59424H64.6633V7.18521H68.2572V3.59424Z" fill="#FFCE99"/>
<path d="M64.6671 96.9966H61.0732V100.588H64.6671V96.9966Z" fill="#F2B375"/>
<path d="M64.6671 93.406H61.0732V96.9999H64.6671V93.406Z" fill="#E3430B"/>
<path d="M64.6671 89.8123H61.0732V93.4061H64.6671V89.8123Z" fill="#E3430B"/>
<path d="M64.6671 86.2214H61.0732V89.8124H64.6671V86.2214Z" fill="#F2B375"/>
<path d="M64.6671 82.6272H61.0732V86.2211H64.6671V82.6272Z" fill="#FFCE99"/>
<path d="M64.6671 79.0364H61.0732V82.6273H64.6671V79.0364Z" fill="#FFCE99"/>
<path d="M64.6671 75.4426H61.0732V79.0365H64.6671V75.4426Z" fill="#FFCE99"/>
<path d="M64.6671 71.8513H61.0732V75.4423H64.6671V71.8513Z" fill="#FFCE99"/>
<path d="M64.6671 68.2576H61.0732V71.8514H64.6671V68.2576Z" fill="#FFCE99"/>
<path d="M64.6671 64.6667H61.0732V68.2606H64.6671V64.6667Z" fill="#FFCE99"/>
<path d="M64.6671 61.0725H61.0732V64.6635H64.6671V61.0725Z" fill="#FFCE99"/>
<path d="M64.6671 57.4817H61.0732V61.0756H64.6671V57.4817Z" fill="#FFCE99"/>
<path d="M64.6671 53.8879H61.0732V57.4789H64.6671V53.8879Z" fill="#E3430B"/>
<path d="M64.6671 50.2971H61.0732V53.891H64.6671V50.2971Z" fill="#E3430B"/>
<path d="M64.6671 46.7029H61.0732V50.2939H64.6671V46.7029Z" fill="#E3430B"/>
<path d="M64.6671 43.1121H61.0732V46.7059H64.6671V43.1121Z" fill="#F7750B"/>
<path d="M64.6671 39.5186H61.0732V43.1095H64.6671V39.5186Z" fill="#F7750B"/>
<path d="M64.6671 35.927H61.0732V39.5209H64.6671V35.927Z" fill="#F2B375"/>
<path d="M64.6671 32.3333H61.0732V35.9271H64.6671V32.3333Z" fill="#F2B375"/>
<path d="M64.6671 28.7424H61.0732V32.3334H64.6671V28.7424Z" fill="#F2B375"/>
<path d="M64.6671 25.1482H61.0732V28.7421H64.6671V25.1482Z" fill="#F2B375"/>
<path d="M64.6671 21.5574H61.0732V25.1483H64.6671V21.5574Z" fill="#F2B375"/>
<path d="M64.6671 17.9639H61.0732V21.5577H64.6671V17.9639Z" fill="#F2B375"/>
<path d="M64.6671 14.3728H61.0732V17.9638H64.6671V14.3728Z" fill="#F7750B"/>
<path d="M64.6671 10.7786H61.0732V14.3724H64.6671V10.7786Z" fill="#F7750B"/>
<path d="M64.6671 7.18506H61.0732V10.7789H64.6671V7.18506Z" fill="#FFCE99"/>
<path d="M64.6671 3.59424H61.0732V7.18521H64.6671V3.59424Z" fill="#FFCE99"/>
<path d="M64.6671 0H61.0732V3.59386H64.6671V0Z" fill="#FFCE99"/>
<path d="M61.0727 96.9966H57.4817V100.588H61.0727V96.9966Z" fill="#F2B375"/>
<path d="M61.0727 93.406H57.4817V96.9999H61.0727V93.406Z" fill="#E3430B"/>
<path d="M61.0727 89.8123H57.4817V93.4061H61.0727V89.8123Z" fill="#F7750B"/>
<path d="M61.0727 86.2214H57.4817V89.8124H61.0727V86.2214Z" fill="#F2B375"/>
<path d="M61.0727 82.6272H57.4817V86.2211H61.0727V82.6272Z" fill="#FFCE99"/>
<path d="M61.0727 79.0364H57.4817V82.6273H61.0727V79.0364Z" fill="#FFCE99"/>
<path d="M61.0727 75.4426H57.4817V79.0365H61.0727V75.4426Z" fill="#FFCE99"/>
<path d="M61.0727 71.8513H57.4817V75.4423H61.0727V71.8513Z" fill="#FFCE99"/>
<path d="M61.0727 68.2576H57.4817V71.8514H61.0727V68.2576Z" fill="#FFCE99"/>
<path d="M61.0727 64.6667H57.4817V68.2606H61.0727V64.6667Z" fill="#FFCE99"/>
<path d="M61.0727 61.0725H57.4817V64.6635H61.0727V61.0725Z" fill="#FFCE99"/>
<path d="M61.0727 57.4817H57.4817V61.0756H61.0727V57.4817Z" fill="#E3430B"/>
<path d="M61.0727 53.8879H57.4817V57.4789H61.0727V53.8879Z" fill="#E3430B"/>
<path d="M61.0727 50.2971H57.4817V53.891H61.0727V50.2971Z" fill="#F7750B"/>
<path d="M61.0727 46.7029H57.4817V50.2939H61.0727V46.7029Z" fill="#F7750B"/>
<path d="M61.0727 43.1121H57.4817V46.7059H61.0727V43.1121Z" fill="#F7750B"/>
<path d="M61.0727 39.5186H57.4817V43.1095H61.0727V39.5186Z" fill="#F2B375"/>
<path d="M61.0727 35.927H57.4817V39.5209H61.0727V35.927Z" fill="#F2B375"/>
<path d="M61.0727 32.3333H57.4817V35.9271H61.0727V32.3333Z" fill="#FFCE99"/>
<path d="M61.0727 28.7424H57.4817V32.3334H61.0727V28.7424Z" fill="#FFCE99"/>
<path d="M61.0727 25.1482H57.4817V28.7421H61.0727V25.1482Z" fill="#FFCE99"/>
<path d="M61.0727 21.5574H57.4817V25.1483H61.0727V21.5574Z" fill="#FFCE99"/>
<path d="M61.0727 17.9639H57.4817V21.5577H61.0727V17.9639Z" fill="#F2B375"/>
<path d="M61.0727 14.3728H57.4817V17.9638H61.0727V14.3728Z" fill="#F2B375"/>
<path d="M61.0727 10.7786H57.4817V14.3724H61.0727V10.7786Z" fill="#F2B375"/>
<path d="M61.0727 7.18506H57.4817V10.7789H61.0727V7.18506Z" fill="#FFCE99"/>
<path d="M61.0727 3.59424H57.4817V7.18521H61.0727V3.59424Z" fill="#FFCE99"/>
<path d="M61.0727 0H57.4817V3.59386H61.0727V0Z" fill="#FFCE99"/>
<path d="M57.482 96.9966H53.8882V100.588H57.482V96.9966Z" fill="#F2B375"/>
<path d="M57.482 93.406H53.8882V96.9999H57.482V93.406Z" fill="#E3430B"/>
<path d="M57.482 89.8123H53.8882V93.4061H57.482V89.8123Z" fill="#F7750B"/>
<path d="M57.482 86.2214H53.8882V89.8124H57.482V86.2214Z" fill="#F2B375"/>
<path d="M57.482 82.6272H53.8882V86.2211H57.482V82.6272Z" fill="#FFCE99"/>
<path d="M57.482 79.0364H53.8882V82.6273H57.482V79.0364Z" fill="#FFCE99"/>
<path d="M57.482 75.4426H53.8882V79.0365H57.482V75.4426Z" fill="#FFCE99"/>
<path d="M57.482 71.8513H53.8882V75.4423H57.482V71.8513Z" fill="#FFCE99"/>
<path d="M57.482 68.2576H53.8882V71.8514H57.482V68.2576Z" fill="#FFCE99"/>
<path d="M57.482 64.6667H53.8882V68.2606H57.482V64.6667Z" fill="#FFCE99"/>
<path d="M57.482 61.0725H53.8882V64.6635H57.482V61.0725Z" fill="#FFCE99"/>
<path d="M57.482 57.4817H53.8882V61.0756H57.482V57.4817Z" fill="#E3430B"/>
<path d="M57.482 53.8879H53.8882V57.4789H57.482V53.8879Z" fill="#E3430B"/>
<path d="M57.482 50.2971H53.8882V53.891H57.482V50.2971Z" fill="#F7750B"/>
<path d="M57.482 46.7029H53.8882V50.2939H57.482V46.7029Z" fill="#F2B375"/>
<path d="M57.482 43.1121H53.8882V46.7059H57.482V43.1121Z" fill="#F2B375"/>
<path d="M57.482 39.5186H53.8882V43.1095H57.482V39.5186Z" fill="#FFCE99"/>
<path d="M57.482 35.927H53.8882V39.5209H57.482V35.927Z" fill="#FFCE99"/>
<path d="M57.482 32.3333H53.8882V35.9271H57.482V32.3333Z" fill="#FFCE99"/>
<path d="M57.482 28.7424H53.8882V32.3334H57.482V28.7424Z" fill="#FFCE99"/>
<path d="M57.482 25.1482H53.8882V28.7421H57.482V25.1482Z" fill="#FFCE99"/>
<path d="M57.482 21.5574H53.8882V25.1483H57.482V21.5574Z" fill="#F2B375"/>
<path d="M57.482 17.9639H53.8882V21.5577H57.482V17.9639Z" fill="#F2B375"/>
<path d="M57.482 14.3728H53.8882V17.9638H57.482V14.3728Z" fill="#F2B375"/>
<path d="M57.482 10.7786H53.8882V14.3724H57.482V10.7786Z" fill="#FFCE99"/>
<path d="M57.482 7.18506H53.8882V10.7789H57.482V7.18506Z" fill="#FFCE99"/>
<path d="M57.482 3.59424H53.8882V7.18521H57.482V3.59424Z" fill="#FFCE99"/>
<path d="M57.482 0H53.8882V3.59386H57.482V0Z" fill="#FFCE99"/>
<path d="M53.8879 96.9966H50.2969V100.588H53.8879V96.9966Z" fill="#F2B375"/>
<path d="M53.8879 93.406H50.2969V96.9999H53.8879V93.406Z" fill="#E3430B"/>
<path d="M53.8879 89.8123H50.2969V93.4061H53.8879V89.8123Z" fill="#F7750B"/>
<path d="M53.8879 86.2214H50.2969V89.8124H53.8879V86.2214Z" fill="#F2B375"/>
<path d="M53.8879 82.6272H50.2969V86.2211H53.8879V82.6272Z" fill="#FFCE99"/>
<path d="M53.8879 79.0364H50.2969V82.6273H53.8879V79.0364Z" fill="#FFCE99"/>
<path d="M53.8879 75.4426H50.2969V79.0365H53.8879V75.4426Z" fill="#FFCE99"/>
<path d="M53.8879 71.8513H50.2969V75.4423H53.8879V71.8513Z" fill="#FFCE99"/>
<path d="M53.8879 68.2576H50.2969V71.8514H53.8879V68.2576Z" fill="#FFCE99"/>
<path d="M53.8879 64.6667H50.2969V68.2606H53.8879V64.6667Z" fill="#FFCE99"/>
<path d="M53.8879 61.0725H50.2969V64.6635H53.8879V61.0725Z" fill="#E3430B"/>
<path d="M53.8879 57.4817H50.2969V61.0756H53.8879V57.4817Z" fill="#E3430B"/>
<path d="M53.8879 53.8879H50.2969V57.4789H53.8879V53.8879Z" fill="#F7750B"/>
<path d="M53.8879 50.2971H50.2969V53.891H53.8879V50.2971Z" fill="#F7750B"/>
<path d="M53.8879 46.7029H50.2969V50.2939H53.8879V46.7029Z" fill="#F2B375"/>
<path d="M53.8879 43.1121H50.2969V46.7059H53.8879V43.1121Z" fill="#F2B375"/>
<path d="M53.8879 39.5186H50.2969V43.1095H53.8879V39.5186Z" fill="#FFCE99"/>
<path d="M53.8879 35.927H50.2969V39.5209H53.8879V35.927Z" fill="#FFCE99"/>
<path d="M53.8879 32.3333H50.2969V35.9271H53.8879V32.3333Z" fill="#FFCE99"/>
<path d="M53.8879 28.7424H50.2969V32.3334H53.8879V28.7424Z" fill="#FFCE99"/>
<path d="M53.8879 25.1482H50.2969V28.7421H53.8879V25.1482Z" fill="#E3430B"/>
<path d="M53.8879 21.5574H50.2969V25.1483H53.8879V21.5574Z" fill="#E3430B"/>
<path d="M53.8879 17.9639H50.2969V21.5577H53.8879V17.9639Z" fill="#E3430B"/>
<path d="M53.8879 14.3728H50.2969V17.9638H53.8879V14.3728Z" fill="#F2B375"/>
<path d="M53.8879 10.7786H50.2969V14.3724H53.8879V10.7786Z" fill="#F2B375"/>
<path d="M53.8879 7.18506H50.2969V10.7789H53.8879V7.18506Z" fill="#FFCE99"/>
<path d="M53.8879 3.59424H50.2969V7.18521H53.8879V3.59424Z" fill="#FFCE99"/>
<path d="M53.8879 0H50.2969V3.59386H53.8879V0Z" fill="#FFCE99"/>
<path d="M50.2967 96.9966H46.7029V100.588H50.2967V96.9966Z" fill="#F2B375"/>
<path d="M50.2967 93.406H46.7029V96.9999H50.2967V93.406Z" fill="#E3430B"/>
<path d="M50.2967 89.8123H46.7029V93.4061H50.2967V89.8123Z" fill="#F7750B"/>
<path d="M50.2967 86.2214H46.7029V89.8124H50.2967V86.2214Z" fill="#F2B375"/>
<path d="M50.2967 82.6272H46.7029V86.2211H50.2967V82.6272Z" fill="#FFCE99"/>
<path d="M50.2967 79.0364H46.7029V82.6273H50.2967V79.0364Z" fill="#FFCE99"/>
<path d="M50.2967 75.4426H46.7029V79.0365H50.2967V75.4426Z" fill="#FFCE99"/>
<path d="M50.2967 71.8513H46.7029V75.4423H50.2967V71.8513Z" fill="#FFCE99"/>
<path d="M50.2967 68.2576H46.7029V71.8514H50.2967V68.2576Z" fill="#FFCE99"/>
<path d="M50.2967 64.6667H46.7029V68.2606H50.2967V64.6667Z" fill="#FFCE99"/>
<path d="M50.2967 61.0725H46.7029V64.6635H50.2967V61.0725Z" fill="#E3430B"/>
<path d="M50.2967 57.4817H46.7029V61.0756H50.2967V57.4817Z" fill="#E3430B"/>
<path d="M50.2967 53.8879H46.7029V57.4789H50.2967V53.8879Z" fill="#F7750B"/>
<path d="M50.2967 50.2971H46.7029V53.891H50.2967V50.2971Z" fill="#F7750B"/>
<path d="M50.2967 46.7029H46.7029V50.2939H50.2967V46.7029Z" fill="#F2B375"/>
<path d="M50.2967 43.1121H46.7029V46.7059H50.2967V43.1121Z" fill="#FFCE99"/>
<path d="M50.2967 39.5186H46.7029V43.1095H50.2967V39.5186Z" fill="#FFCE99"/>
<path d="M50.2967 35.927H46.7029V39.5209H50.2967V35.927Z" fill="#FFCE99"/>
<path d="M50.2967 32.3333H46.7029V35.9271H50.2967V32.3333Z" fill="#E3430B"/>
<path d="M50.2967 28.7424H46.7029V32.3334H50.2967V28.7424Z" fill="#E3430B"/>
<path d="M50.2967 25.1482H46.7029V28.7421H50.2967V25.1482Z" fill="#F7750B"/>
<path d="M50.2967 21.5574H46.7029V25.1483H50.2967V21.5574Z" fill="#F7750B"/>
<path d="M50.2967 17.9639H46.7029V21.5577H50.2967V17.9639Z" fill="#F7750B"/>
<path d="M50.2967 14.3728H46.7029V17.9638H50.2967V14.3728Z" fill="#E3430B"/>
<path d="M50.2967 10.7786H46.7029V14.3724H50.2967V10.7786Z" fill="#F2B375"/>
<path d="M50.2967 7.18506H46.7029V10.7789H50.2967V7.18506Z" fill="#F2B375"/>
<path d="M50.2967 3.59424H46.7029V7.18521H50.2967V3.59424Z" fill="#F2B375"/>
<path d="M50.2967 0H46.7029V3.59386H50.2967V0Z" fill="#FFCE99"/>
<path d="M46.7026 96.9966H43.1116V100.588H46.7026V96.9966Z" fill="#F2B375"/>
<path d="M46.7026 93.406H43.1116V96.9999H46.7026V93.406Z" fill="#E3430B"/>
<path d="M46.7026 89.8123H43.1116V93.4061H46.7026V89.8123Z" fill="#F7750B"/>
<path d="M46.7026 86.2214H43.1116V89.8124H46.7026V86.2214Z" fill="#F2B375"/>
<path d="M46.7026 82.6272H43.1116V86.2211H46.7026V82.6272Z" fill="#FFCE99"/>
<path d="M46.7026 79.0364H43.1116V82.6273H46.7026V79.0364Z" fill="#FFCE99"/>
<path d="M46.7026 75.4426H43.1116V79.0365H46.7026V75.4426Z" fill="#FFCE99"/>
<path d="M46.7026 71.8513H43.1116V75.4423H46.7026V71.8513Z" fill="#FFCE99"/>
<path d="M46.7026 68.2576H43.1116V71.8514H46.7026V68.2576Z" fill="#FFCE99"/>
<path d="M46.7026 64.6667H43.1116V68.2606H46.7026V64.6667Z" fill="#FFCE99"/>
<path d="M46.7026 61.0725H43.1116V64.6635H46.7026V61.0725Z" fill="#E3430B"/>
<path d="M46.7026 57.4817H43.1116V61.0756H46.7026V57.4817Z" fill="#F7750B"/>
<path d="M46.7026 53.8879H43.1116V57.4789H46.7026V53.8879Z" fill="#F7750B"/>
<path d="M46.7026 50.2971H43.1116V53.891H46.7026V50.2971Z" fill="#F2B375"/>
<path d="M46.7026 46.7029H43.1116V50.2939H46.7026V46.7029Z" fill="#FFCE99"/>
<path d="M46.7026 43.1121H43.1116V46.7059H46.7026V43.1121Z" fill="#FFCE99"/>
<path d="M46.7026 39.5186H43.1116V43.1095H46.7026V39.5186Z" fill="#E3430B"/>
<path d="M46.7026 35.927H43.1116V39.5209H46.7026V35.927Z" fill="#E3430B"/>
<path d="M46.7026 32.3333H43.1116V35.9271H46.7026V32.3333Z" fill="#E3430B"/>
<path d="M46.7026 28.7424H43.1116V32.3334H46.7026V28.7424Z" fill="#F7750B"/>
<path d="M46.7026 25.1482H43.1116V28.7421H46.7026V25.1482Z" fill="#F7750B"/>
<path d="M46.7026 21.5574H43.1116V25.1483H46.7026V21.5574Z" fill="#F2B375"/>
<path d="M46.7026 17.9639H43.1116V21.5577H46.7026V17.9639Z" fill="#F7750B"/>
<path d="M46.7026 14.3728H43.1116V17.9638H46.7026V14.3728Z" fill="#F7750B"/>
<path d="M46.7026 10.7786H43.1116V14.3724H46.7026V10.7786Z" fill="#E3430B"/>
<path d="M46.7026 7.18506H43.1116V10.7789H46.7026V7.18506Z" fill="#E3430B"/>
<path d="M46.7026 3.59424H43.1116V7.18521H46.7026V3.59424Z" fill="#F2B375"/>
<path d="M46.7026 0H43.1116V3.59386H46.7026V0Z" fill="#F2B375"/>
<path d="M43.1119 96.9966H39.5181V100.588H43.1119V96.9966Z" fill="#F2B375"/>
<path d="M43.1119 93.406H39.5181V96.9999H43.1119V93.406Z" fill="#E3430B"/>
<path d="M43.1119 89.8123H39.5181V93.4061H43.1119V89.8123Z" fill="#F7750B"/>
<path d="M43.1119 86.2214H39.5181V89.8124H43.1119V86.2214Z" fill="#F2B375"/>
<path d="M43.1119 82.6272H39.5181V86.2211H43.1119V82.6272Z" fill="#FFCE99"/>
<path d="M43.1119 79.0364H39.5181V82.6273H43.1119V79.0364Z" fill="#FFCE99"/>
<path d="M43.1119 75.4426H39.5181V79.0365H43.1119V75.4426Z" fill="#FFCE99"/>
<path d="M43.1119 71.8513H39.5181V75.4423H43.1119V71.8513Z" fill="#FFCE99"/>
<path d="M43.1119 68.2576H39.5181V71.8514H43.1119V68.2576Z" fill="#FFCE99"/>
<path d="M43.1119 64.6667H39.5181V68.2606H43.1119V64.6667Z" fill="#E3430B"/>
<path d="M43.1119 61.0725H39.5181V64.6635H43.1119V61.0725Z" fill="#E3430B"/>
<path d="M43.1119 57.4817H39.5181V61.0756H43.1119V57.4817Z" fill="#F7750B"/>
<path d="M43.1119 53.8879H39.5181V57.4789H43.1119V53.8879Z" fill="#F2B375"/>
<path d="M43.1119 50.2971H39.5181V53.891H43.1119V50.2971Z" fill="#F2B375"/>
<path d="M43.1119 46.7029H39.5181V50.2939H43.1119V46.7029Z" fill="#FFCE99"/>
<path d="M43.1119 43.1121H39.5181V46.7059H43.1119V43.1121Z" fill="#FFCE99"/>
<path d="M43.1119 39.5186H39.5181V43.1095H43.1119V39.5186Z" fill="#E3430B"/>
<path d="M43.1119 35.927H39.5181V39.5209H43.1119V35.927Z" fill="#E3430B"/>
<path d="M43.1119 32.3333H39.5181V35.9271H43.1119V32.3333Z" fill="#F7750B"/>
<path d="M43.1119 28.7424H39.5181V32.3334H43.1119V28.7424Z" fill="#F7750B"/>
<path d="M43.1119 25.1482H39.5181V28.7421H43.1119V25.1482Z" fill="#F2B375"/>
<path d="M43.1119 21.5574H39.5181V25.1483H43.1119V21.5574Z" fill="#F2B375"/>
<path d="M43.1119 17.9639H39.5181V21.5577H43.1119V17.9639Z" fill="#F2B375"/>
<path d="M43.1119 14.3728H39.5181V17.9638H43.1119V14.3728Z" fill="#F2B375"/>
<path d="M43.1119 10.7786H39.5181V14.3724H43.1119V10.7786Z" fill="#F7750B"/>
<path d="M43.1119 7.18506H39.5181V10.7789H43.1119V7.18506Z" fill="#E3430B"/>
<path d="M43.1119 3.59424H39.5181V7.18521H43.1119V3.59424Z" fill="#F7750B"/>
<path d="M43.1119 0H39.5181V3.59386H43.1119V0Z" fill="#F7750B"/>
<path d="M39.5187 96.9966H35.9277V100.588H39.5187V96.9966Z" fill="#F2B375"/>
<path d="M39.5187 93.406H35.9277V96.9999H39.5187V93.406Z" fill="#E3430B"/>
<path d="M39.5187 89.8123H35.9277V93.4061H39.5187V89.8123Z" fill="#E3430B"/>
<path d="M39.5187 86.2214H35.9277V89.8124H39.5187V86.2214Z" fill="#F7750B"/>
<path d="M39.5187 82.6272H35.9277V86.2211H39.5187V82.6272Z" fill="#F2B375"/>
<path d="M39.5187 79.0364H35.9277V82.6273H39.5187V79.0364Z" fill="#FFCE99"/>
<path d="M39.5187 75.4426H35.9277V79.0365H39.5187V75.4426Z" fill="#FFCE99"/>
<path d="M39.5187 71.8513H35.9277V75.4423H39.5187V71.8513Z" fill="#FFCE99"/>
<path d="M39.5187 68.2576H35.9277V71.8514H39.5187V68.2576Z" fill="#FFCE99"/>
<path d="M39.5187 64.6667H35.9277V68.2606H39.5187V64.6667Z" fill="#E3430B"/>
<path d="M39.5187 61.0725H35.9277V64.6635H39.5187V61.0725Z" fill="#F7750B"/>
<path d="M39.5187 57.4817H35.9277V61.0756H39.5187V57.4817Z" fill="#F7750B"/>
<path d="M39.5187 53.8879H35.9277V57.4789H39.5187V53.8879Z" fill="#F2B375"/>
<path d="M39.5187 50.2971H35.9277V53.891H39.5187V50.2971Z" fill="#F2B375"/>
<path d="M39.5187 46.7029H35.9277V50.2939H39.5187V46.7029Z" fill="#FFCE99"/>
<path d="M39.5187 43.1121H35.9277V46.7059H39.5187V43.1121Z" fill="#E3430B"/>
<path d="M39.5187 39.5186H35.9277V43.1095H39.5187V39.5186Z" fill="#E3430B"/>
<path d="M39.5187 35.927H35.9277V39.5209H39.5187V35.927Z" fill="#F7750B"/>
<path d="M39.5187 32.3333H35.9277V35.9271H39.5187V32.3333Z" fill="#F2B375"/>
<path d="M39.5187 28.7424H35.9277V32.3334H39.5187V28.7424Z" fill="#F2B375"/>
<path d="M39.5187 25.1482H35.9277V28.7421H39.5187V25.1482Z" fill="#F2B375"/>
<path d="M39.5187 21.5574H35.9277V25.1483H39.5187V21.5574Z" fill="#FFCE99"/>
<path d="M39.5187 17.9639H35.9277V21.5577H39.5187V17.9639Z" fill="#FFCE99"/>
<path d="M39.5187 14.3728H35.9277V17.9638H39.5187V14.3728Z" fill="#F2B375"/>
<path d="M39.5187 10.7786H35.9277V14.3724H39.5187V10.7786Z" fill="#FFCE99"/>
<path d="M39.5187 7.18506H35.9277V10.7789H39.5187V7.18506Z" fill="#F7750B"/>
<path d="M39.5187 3.59424H35.9277V7.18521H39.5187V3.59424Z" fill="#F7750B"/>
<path d="M39.5187 0H35.9277V3.59386H39.5187V0Z" fill="#F7750B"/>
<path d="M35.9278 93.406H32.334V96.9999H35.9278V93.406Z" fill="#E3430B"/>
<path d="M35.9278 89.8123H32.334V93.4061H35.9278V89.8123Z" fill="#E3430B"/>
<path d="M35.9278 86.2214H32.334V89.8124H35.9278V86.2214Z" fill="#F7750B"/>
<path d="M35.9278 82.6272H32.334V86.2211H35.9278V82.6272Z" fill="#F2B375"/>
<path d="M35.9278 79.0364H32.334V82.6273H35.9278V79.0364Z" fill="#F2B375"/>
<path d="M35.9278 75.4426H32.334V79.0365H35.9278V75.4426Z" fill="#FFCE99"/>
<path d="M35.9278 71.8513H32.334V75.4423H35.9278V71.8513Z" fill="#FFCE99"/>
<path d="M35.9278 68.2576H32.334V71.8514H35.9278V68.2576Z" fill="#FFCE99"/>
<path d="M35.9278 64.6667H32.334V68.2606H35.9278V64.6667Z" fill="#E3430B"/>
<path d="M35.9278 61.0725H32.334V64.6635H35.9278V61.0725Z" fill="#F7750B"/>
<path d="M35.9278 57.4817H32.334V61.0756H35.9278V57.4817Z" fill="#F7750B"/>
<path d="M35.9278 53.8879H32.334V57.4789H35.9278V53.8879Z" fill="#F2B375"/>
<path d="M35.9278 50.2971H32.334V53.891H35.9278V50.2971Z" fill="#F2B375"/>
<path d="M35.9278 46.7029H32.334V50.2939H35.9278V46.7029Z" fill="#FFCE99"/>
<path d="M35.9278 43.1121H32.334V46.7059H35.9278V43.1121Z" fill="#E3430B"/>
<path d="M35.9278 39.5186H32.334V43.1095H35.9278V39.5186Z" fill="#F7750B"/>
<path d="M35.9278 35.927H32.334V39.5209H35.9278V35.927Z" fill="#F2B375"/>
<path d="M35.9278 32.3333H32.334V35.9271H35.9278V32.3333Z" fill="#F2B375"/>
<path d="M35.9278 28.7424H32.334V32.3334H35.9278V28.7424Z" fill="#F2B375"/>
<path d="M35.9278 25.1482H32.334V28.7421H35.9278V25.1482Z" fill="#FFCE99"/>
<path d="M35.9278 21.5574H32.334V25.1483H35.9278V21.5574Z" fill="#FFCE99"/>
<path d="M35.9278 17.9639H32.334V21.5577H35.9278V17.9639Z" fill="#FFCE99"/>
<path d="M35.9278 14.3728H32.334V17.9638H35.9278V14.3728Z" fill="#FFCE99"/>
<path d="M35.9278 10.7786H32.334V14.3724H35.9278V10.7786Z" fill="#FFCE99"/>
<path d="M35.9278 7.18506H32.334V10.7789H35.9278V7.18506Z" fill="#F7750B"/>
<path d="M35.9278 3.59424H32.334V7.18521H35.9278V3.59424Z" fill="#F7750B"/>
<path d="M32.3331 93.406H28.7393V96.9999H32.3331V93.406Z" fill="#F2B375"/>
<path d="M32.3331 89.8123H28.7393V93.4061H32.3331V89.8123Z" fill="#E3430B"/>
<path d="M32.3331 86.2214H28.7393V89.8124H32.3331V86.2214Z" fill="#E3430B"/>
<path d="M32.3331 82.6272H28.7393V86.2211H32.3331V82.6272Z" fill="#F7750B"/>
<path d="M32.3331 79.0364H28.7393V82.6273H32.3331V79.0364Z" fill="#F2B375"/>
<path d="M32.3331 75.4426H28.7393V79.0365H32.3331V75.4426Z" fill="#FFCE99"/>
<path d="M32.3331 71.8513H28.7393V75.4423H32.3331V71.8513Z" fill="#FFCE99"/>
<path d="M32.3331 68.2576H28.7393V71.8514H32.3331V68.2576Z" fill="#FFCE99"/>
<path d="M32.3331 64.6667H28.7393V68.2606H32.3331V64.6667Z" fill="#E3430B"/>
<path d="M32.3331 61.0725H28.7393V64.6635H32.3331V61.0725Z" fill="#F7750B"/>
<path d="M32.3331 57.4817H28.7393V61.0756H32.3331V57.4817Z" fill="#F7750B"/>
<path d="M32.3331 53.8879H28.7393V57.4789H32.3331V53.8879Z" fill="#F2B375"/>
<path d="M32.3331 50.2971H28.7393V53.891H32.3331V50.2971Z" fill="#F2B375"/>
<path d="M32.3331 46.7029H28.7393V50.2939H32.3331V46.7029Z" fill="#FFCE99"/>
<path d="M32.3331 43.1121H28.7393V46.7059H32.3331V43.1121Z" fill="#E3430B"/>
<path d="M32.3331 39.5186H28.7393V43.1095H32.3331V39.5186Z" fill="#F7750B"/>
<path d="M32.3331 35.927H28.7393V39.5209H32.3331V35.927Z" fill="#F2B375"/>
<path d="M32.3331 32.3333H28.7393V35.9271H32.3331V32.3333Z" fill="#FFCE99"/>
<path d="M32.3331 28.7424H28.7393V32.3334H32.3331V28.7424Z" fill="#FFCE99"/>
<path d="M32.3331 25.1482H28.7393V28.7421H32.3331V25.1482Z" fill="#FFCE99"/>
<path d="M32.3331 21.5574H28.7393V25.1483H32.3331V21.5574Z" fill="#FFCE99"/>
<path d="M32.3331 17.9639H28.7393V21.5577H32.3331V17.9639Z" fill="#FFCE99"/>
<path d="M32.3331 14.3728H28.7393V17.9638H32.3331V14.3728Z" fill="#FFCE99"/>
<path d="M32.3331 10.7786H28.7393V14.3724H32.3331V10.7786Z" fill="#FFCE99"/>
<path d="M32.3331 7.18506H28.7393V10.7789H32.3331V7.18506Z" fill="#FFCE99"/>
<path d="M32.3331 3.59424H28.7393V7.18521H32.3331V3.59424Z" fill="#FFCE99"/>
<path d="M28.7399 89.8123H25.1489V93.4061H28.7399V89.8123Z" fill="#F2B375"/>
<path d="M28.7399 86.2214H25.1489V89.8124H28.7399V86.2214Z" fill="#E3430B"/>
<path d="M28.7399 82.6272H25.1489V86.2211H28.7399V82.6272Z" fill="#F7750B"/>
<path d="M28.7399 79.0364H25.1489V82.6273H28.7399V79.0364Z" fill="#F2B375"/>
<path d="M28.7399 75.4426H25.1489V79.0365H28.7399V75.4426Z" fill="#F2B375"/>
<path d="M28.7399 71.8513H25.1489V75.4423H28.7399V71.8513Z" fill="#FFCE99"/>
<path d="M28.7399 68.2576H25.1489V71.8514H28.7399V68.2576Z" fill="#FFCE99"/>
<path d="M28.7399 64.6667H25.1489V68.2606H28.7399V64.6667Z" fill="#E3430B"/>
<path d="M28.7399 61.0725H25.1489V64.6635H28.7399V61.0725Z" fill="#F7750B"/>
<path d="M28.7399 57.4817H25.1489V61.0756H28.7399V57.4817Z" fill="#F7750B"/>
<path d="M28.7399 53.8879H25.1489V57.4789H28.7399V53.8879Z" fill="#F2B375"/>
<path d="M28.7399 50.2971H25.1489V53.891H28.7399V50.2971Z" fill="#F2B375"/>
<path d="M28.7399 46.7029H25.1489V50.2939H28.7399V46.7029Z" fill="#FFCE99"/>
<path d="M28.7399 43.1121H25.1489V46.7059H28.7399V43.1121Z" fill="#E3430B"/>
<path d="M28.7399 39.5186H25.1489V43.1095H28.7399V39.5186Z" fill="#F2B375"/>
<path d="M28.7399 35.927H25.1489V39.5209H28.7399V35.927Z" fill="#F2B375"/>
<path d="M28.7399 32.3333H25.1489V35.9271H28.7399V32.3333Z" fill="#FFCE99"/>
<path d="M28.7399 28.7424H25.1489V32.3334H28.7399V28.7424Z" fill="#FFCE99"/>
<path d="M28.7399 25.1482H25.1489V28.7421H28.7399V25.1482Z" fill="#FFCE99"/>
<path d="M28.7399 21.5574H25.1489V25.1483H28.7399V21.5574Z" fill="#FFCE99"/>
<path d="M28.7399 17.9639H25.1489V21.5577H28.7399V17.9639Z" fill="#FFCE99"/>
<path d="M28.7399 14.3728H25.1489V17.9638H28.7399V14.3728Z" fill="#FFCE99"/>
<path d="M28.7399 10.7786H25.1489V14.3724H28.7399V10.7786Z" fill="#FFCE99"/>
<path d="M28.7399 7.18506H25.1489V10.7789H28.7399V7.18506Z" fill="#FFCE99"/>
<path d="M25.1483 86.2214H21.5544V89.8124H25.1483V86.2214Z" fill="#E3430B"/>
<path d="M25.1483 82.6272H21.5544V86.2211H25.1483V82.6272Z" fill="#E3430B"/>
<path d="M25.1483 79.0364H21.5544V82.6273H25.1483V79.0364Z" fill="#F7750B"/>
<path d="M25.1483 75.4426H21.5544V79.0365H25.1483V75.4426Z" fill="#F2B375"/>
<path d="M25.1483 71.8513H21.5544V75.4423H25.1483V71.8513Z" fill="#FFCE99"/>
<path d="M25.1483 68.2576H21.5544V71.8514H25.1483V68.2576Z" fill="#FFCE99"/>
<path d="M25.1483 64.6667H21.5544V68.2606H25.1483V64.6667Z" fill="#E3430B"/>
<path d="M25.1483 61.0725H21.5544V64.6635H25.1483V61.0725Z" fill="#F7750B"/>
<path d="M25.1483 57.4817H21.5544V61.0756H25.1483V57.4817Z" fill="#F7750B"/>
<path d="M25.1483 53.8879H21.5544V57.4789H25.1483V53.8879Z" fill="#F7750B"/>
<path d="M25.1483 50.2971H21.5544V53.891H25.1483V50.2971Z" fill="#F2B375"/>
<path d="M25.1483 46.7029H21.5544V50.2939H25.1483V46.7029Z" fill="#FFCE99"/>
<path d="M25.1483 43.1121H21.5544V46.7059H25.1483V43.1121Z" fill="#F7750B"/>
<path d="M25.1483 39.5186H21.5544V43.1095H25.1483V39.5186Z" fill="#F2B375"/>
<path d="M25.1483 35.927H21.5544V39.5209H25.1483V35.927Z" fill="#FFCE99"/>
<path d="M25.1483 32.3333H21.5544V35.9271H25.1483V32.3333Z" fill="#FFCE99"/>
<path d="M25.1483 28.7424H21.5544V32.3334H25.1483V28.7424Z" fill="#FFCE99"/>
<path d="M25.1483 25.1482H21.5544V28.7421H25.1483V25.1482Z" fill="#FFCE99"/>
<path d="M25.1483 21.5574H21.5544V25.1483H25.1483V21.5574Z" fill="#FFCE99"/>
<path d="M25.1483 17.9639H21.5544V21.5577H25.1483V17.9639Z" fill="#FFCE99"/>
<path d="M25.1483 14.3728H21.5544V17.9638H25.1483V14.3728Z" fill="#FFCE99"/>
<path d="M25.1483 10.7786H21.5544V14.3724H25.1483V10.7786Z" fill="#FFCE99"/>
<path d="M21.5551 86.2214H17.9641V89.8124H21.5551V86.2214Z" fill="#F2B375"/>
<path d="M21.5551 82.6272H17.9641V86.2211H21.5551V82.6272Z" fill="#E3430B"/>
<path d="M21.5551 79.0364H17.9641V82.6273H21.5551V79.0364Z" fill="#F7750B"/>
<path d="M21.5551 75.4426H17.9641V79.0365H21.5551V75.4426Z" fill="#F2B375"/>
<path d="M21.5551 71.8513H17.9641V75.4423H21.5551V71.8513Z" fill="#F2B375"/>
<path d="M21.5551 68.2576H17.9641V71.8514H21.5551V68.2576Z" fill="#FFCE99"/>
<path d="M21.5551 64.6667H17.9641V68.2606H21.5551V64.6667Z" fill="#E3430B"/>
<path d="M21.5551 61.0725H17.9641V64.6635H21.5551V61.0725Z" fill="#F7750B"/>
<path d="M21.5551 57.4817H17.9641V61.0756H21.5551V57.4817Z" fill="#E3430B"/>
<path d="M21.5551 53.8879H17.9641V57.4789H21.5551V53.8879Z" fill="#F7750B"/>
<path d="M21.5551 50.2971H17.9641V53.891H21.5551V50.2971Z" fill="#F2B375"/>
<path d="M21.5551 46.7029H17.9641V50.2939H21.5551V46.7029Z" fill="#E3430B"/>
<path d="M21.5551 43.1121H17.9641V46.7059H21.5551V43.1121Z" fill="#F7750B"/>
<path d="M21.5551 39.5186H17.9641V43.1095H21.5551V39.5186Z" fill="#F2B375"/>
<path d="M21.5551 35.927H17.9641V39.5209H21.5551V35.927Z" fill="#FFCE99"/>
<path d="M21.5551 32.3333H17.9641V35.9271H21.5551V32.3333Z" fill="#FFCE99"/>
<path d="M21.5551 28.7424H17.9641V32.3334H21.5551V28.7424Z" fill="#FFCE99"/>
<path d="M21.5551 25.1482H17.9641V28.7421H21.5551V25.1482Z" fill="#FFCE99"/>
<path d="M21.5551 21.5574H17.9641V25.1483H21.5551V21.5574Z" fill="#FFCE99"/>
<path d="M21.5551 17.9639H17.9641V21.5577H21.5551V17.9639Z" fill="#FFCE99"/>
<path d="M21.5551 14.3728H17.9641V17.9638H21.5551V14.3728Z" fill="#FFCE99"/>
<path d="M21.5551 10.7786H17.9641V14.3724H21.5551V10.7786Z" fill="#FFCE99"/>
<path d="M17.964 82.6272H14.3701V86.2211H17.964V82.6272Z" fill="#F2B375"/>
<path d="M17.964 79.0364H14.3701V82.6273H17.964V79.0364Z" fill="#E3430B"/>
<path d="M17.964 75.4426H14.3701V79.0365H17.964V75.4426Z" fill="#F7750B"/>
<path d="M17.964 71.8513H14.3701V75.4423H17.964V71.8513Z" fill="#F2B375"/>
<path d="M17.964 68.2576H14.3701V71.8514H17.964V68.2576Z" fill="#F2B375"/>
<path d="M17.964 64.6667H14.3701V68.2606H17.964V64.6667Z" fill="#E3430B"/>
<path d="M17.964 61.0725H14.3701V64.6635H17.964V61.0725Z" fill="#F7750B"/>
<path d="M17.964 57.4817H14.3701V61.0756H17.964V57.4817Z" fill="#E3430B"/>
<path d="M17.964 53.8879H14.3701V57.4789H17.964V53.8879Z" fill="#F7750B"/>
<path d="M17.964 50.2971H14.3701V53.891H17.964V50.2971Z" fill="#F2B375"/>
<path d="M17.964 46.7029H14.3701V50.2939H17.964V46.7029Z" fill="#E3430B"/>
<path d="M17.964 43.1121H14.3701V46.7059H17.964V43.1121Z" fill="#F2B375"/>
<path d="M17.964 39.5186H14.3701V43.1095H17.964V39.5186Z" fill="#F2B375"/>
<path d="M17.964 35.927H14.3701V39.5209H17.964V35.927Z" fill="#FFCE99"/>
<path d="M17.964 32.3333H14.3701V35.9271H17.964V32.3333Z" fill="#FFCE99"/>
<path d="M17.964 28.7424H14.3701V32.3334H17.964V28.7424Z" fill="#FFCE99"/>
<path d="M17.964 25.1482H14.3701V28.7421H17.964V25.1482Z" fill="#FFCE99"/>
<path d="M17.964 21.5574H14.3701V25.1483H17.964V21.5574Z" fill="#FFCE99"/>
<path d="M17.964 17.9639H14.3701V21.5577H17.964V17.9639Z" fill="#FFCE99"/>
<path d="M17.964 14.3728H14.3701V17.9638H17.964V14.3728Z" fill="#FFCE99"/>
<path d="M14.3698 79.0364H10.7788V82.6273H14.3698V79.0364Z" fill="#F2B375"/>
<path d="M14.3698 75.4426H10.7788V79.0365H14.3698V75.4426Z" fill="#E3430B"/>
<path d="M14.3698 71.8513H10.7788V75.4423H14.3698V71.8513Z" fill="#F7750B"/>
<path d="M14.3698 68.2576H10.7788V71.8514H14.3698V68.2576Z" fill="#F2B375"/>
<path d="M14.3698 64.6667H10.7788V68.2606H14.3698V64.6667Z" fill="#FFCE99"/>
<path d="M14.3698 61.0725H10.7788V64.6635H14.3698V61.0725Z" fill="#F7750B"/>
<path d="M14.3698 57.4817H10.7788V61.0756H14.3698V57.4817Z" fill="#F7750B"/>
<path d="M14.3698 53.8879H10.7788V57.4789H14.3698V53.8879Z" fill="#F7750B"/>
<path d="M14.3698 50.2971H10.7788V53.891H14.3698V50.2971Z" fill="#E3430B"/>
<path d="M14.3698 46.7029H10.7788V50.2939H14.3698V46.7029Z" fill="#F7750B"/>
<path d="M14.3698 43.1121H10.7788V46.7059H14.3698V43.1121Z" fill="#F2B375"/>
<path d="M14.3698 39.5186H10.7788V43.1095H14.3698V39.5186Z" fill="#FFCE99"/>
<path d="M14.3698 35.927H10.7788V39.5209H14.3698V35.927Z" fill="#FFCE99"/>
<path d="M14.3698 32.3333H10.7788V35.9271H14.3698V32.3333Z" fill="#FFCE99"/>
<path d="M14.3698 28.7424H10.7788V32.3334H14.3698V28.7424Z" fill="#FFCE99"/>
<path d="M14.3698 25.1482H10.7788V28.7421H14.3698V25.1482Z" fill="#FFCE99"/>
<path d="M14.3698 21.5574H10.7788V25.1483H14.3698V21.5574Z" fill="#FFCE99"/>
<path d="M14.3698 17.9639H10.7788V21.5577H14.3698V17.9639Z" fill="#FFCE99"/>
<path d="M10.7792 71.8513H7.1853V75.4423H10.7792V71.8513Z" fill="#F7750B"/>
<path d="M10.7792 68.2576H7.1853V71.8514H10.7792V68.2576Z" fill="#F7750B"/>
<path d="M10.7792 64.6667H7.1853V68.2606H10.7792V64.6667Z" fill="#F2B375"/>
<path d="M10.7792 61.0725H7.1853V64.6635H10.7792V61.0725Z" fill="#FFCE99"/>
<path d="M10.7792 57.4817H7.1853V61.0756H10.7792V57.4817Z" fill="#E3430B"/>
<path d="M10.7792 53.8879H7.1853V57.4789H10.7792V53.8879Z" fill="#F7750B"/>
<path d="M10.7792 50.2971H7.1853V53.891H10.7792V50.2971Z" fill="#E3430B"/>
<path d="M10.7792 46.7029H7.1853V50.2939H10.7792V46.7029Z" fill="#F7750B"/>
<path d="M10.7792 43.1121H7.1853V46.7059H10.7792V43.1121Z" fill="#F2B375"/>
<path d="M10.7792 39.5186H7.1853V43.1095H10.7792V39.5186Z" fill="#FFCE99"/>
<path d="M10.7792 35.927H7.1853V39.5209H10.7792V35.927Z" fill="#FFCE99"/>
<path d="M10.7792 32.3333H7.1853V35.9271H10.7792V32.3333Z" fill="#FFCE99"/>
<path d="M10.7792 28.7424H7.1853V32.3334H10.7792V28.7424Z" fill="#FFCE99"/>
<path d="M10.7792 25.1482H7.1853V28.7421H10.7792V25.1482Z" fill="#FFCE99"/>
<path d="M7.18759 68.2576H3.59375V71.8514H7.18759V68.2576Z" fill="#F2B375"/>
<path d="M7.18759 64.6667H3.59375V68.2606H7.18759V64.6667Z" fill="#F2B375"/>
<path d="M7.18759 61.0725H3.59375V64.6635H7.18759V61.0725Z" fill="#F2B375"/>
<path d="M7.18759 57.4817H3.59375V61.0756H7.18759V57.4817Z" fill="#FFCE99"/>
<path d="M7.18759 53.8879H3.59375V57.4789H7.18759V53.8879Z" fill="#E3430B"/>
<path d="M7.18759 50.2971H3.59375V53.891H7.18759V50.2971Z" fill="#E3430B"/>
<path d="M7.18759 46.7029H3.59375V50.2939H7.18759V46.7029Z" fill="#E3430B"/>
<path d="M7.18759 43.1121H3.59375V46.7059H7.18759V43.1121Z" fill="#F7750B"/>
<path d="M7.18759 39.5186H3.59375V43.1095H7.18759V39.5186Z" fill="#FFCE99"/>
<path d="M7.18759 35.927H3.59375V39.5209H7.18759V35.927Z" fill="#FFCE99"/>
<path d="M7.18759 32.3333H3.59375V35.9271H7.18759V32.3333Z" fill="#FFCE99"/>
<path d="M7.18759 28.7424H3.59375V32.3334H7.18759V28.7424Z" fill="#FFCE99"/>
<path d="M3.59099 61.0725H0V64.6635H3.59099V61.0725Z" fill="#F2B375"/>
<path d="M3.59099 57.4817H0V61.0756H3.59099V57.4817Z" fill="#F2B375"/>
<path d="M3.59099 53.8879H0V57.4789H3.59099V53.8879Z" fill="#F2B375"/>
<path d="M3.59099 50.2971H0V53.891H3.59099V50.2971Z" fill="#F2B375"/>
<path d="M3.59099 46.7029H0V50.2939H3.59099V46.7029Z" fill="#E3430B"/>
<path d="M3.59099 43.1121H0V46.7059H3.59099V43.1121Z" fill="#E3430B"/>
<path d="M3.59099 39.5186H0V43.1095H3.59099V39.5186Z" fill="#E3430B"/>
<path d="M3.59099 35.927H0V39.5209H3.59099V35.927Z" fill="#F7750B"/>
<g style="mix-blend-mode:multiply">
<path d="M82.6276 53.8879H79.0337V57.4789H82.6276V53.8879Z" fill="#DBD7C1"/>
<path d="M82.6276 50.2971H79.0337V53.891H82.6276V50.2971Z" fill="#DBD7C1"/>
<path d="M82.6276 46.7029H79.0337V50.2939H82.6276V46.7029Z" fill="#DBD7C1"/>
<path d="M79.0331 57.4817H75.4421V61.0756H79.0331V57.4817Z" fill="#DBD7C1"/>
<path d="M71.8483 64.6667H68.2573V68.2606H71.8483V64.6667Z" fill="#DBD7C1"/>
<path d="M71.8483 61.0725H68.2573V64.6635H71.8483V61.0725Z" fill="#DBD7C1"/>
<path d="M79.0331 53.8879H75.4421V57.4789H79.0331V53.8879Z" fill="#DBD7C1"/>
<path d="M79.0331 50.2971H75.4421V53.891H79.0331V50.2971Z" fill="#DBD7C1"/>
<path d="M79.0331 35.927H75.4421V39.5209H79.0331V35.927Z" fill="#DBD7C1"/>
<path d="M75.4423 61.0725H71.8484V64.6635H75.4423V61.0725Z" fill="#DBD7C1"/>
<path d="M75.4423 57.4817H71.8484V61.0756H75.4423V57.4817Z" fill="#DBD7C1"/>
<path d="M68.2572 64.6667H64.6633V68.2606H68.2572V64.6667Z" fill="#DBD7C1"/>
<path d="M64.6671 68.2576H61.0732V71.8514H64.6671V68.2576Z" fill="#DBD7C1"/>
<path d="M71.8483 71.8513H68.2573V75.4423H71.8483V71.8513Z" fill="#DBD7C1"/>
<path d="M53.8879 75.4426H50.2969V79.0365H53.8879V75.4426Z" fill="#DBD7C1"/>
<path d="M61.0727 71.8513H57.4817V75.4423H61.0727V71.8513Z" fill="#DBD7C1"/>
<path d="M57.482 71.8513H53.8882V75.4423H57.482V71.8513Z" fill="#DBD7C1"/>
<path d="M53.8879 71.8513H50.2969V75.4423H53.8879V71.8513Z" fill="#DBD7C1"/>
<path d="M71.8483 68.2576H68.2573V71.8514H71.8483V68.2576Z" fill="#DBD7C1"/>
<path d="M68.2572 68.2576H64.6633V71.8514H68.2572V68.2576Z" fill="#DBD7C1"/>
<path d="M68.2572 71.8513H64.6633V75.4423H68.2572V71.8513Z" fill="#DBD7C1"/>
<path d="M82.6276 57.4817H79.0337V61.0756H82.6276V57.4817Z" fill="#DBD7C1"/>
<path d="M79.0331 64.6667H75.4421V68.2606H79.0331V64.6667Z" fill="#DBD7C1"/>
<path d="M79.0331 61.0725H75.4421V64.6635H79.0331V61.0725Z" fill="#DBD7C1"/>
<path d="M75.4423 64.6667H71.8484V68.2606H75.4423V64.6667Z" fill="#DBD7C1"/>
<path d="M50.2967 75.4426H46.7029V79.0365H50.2967V75.4426Z" fill="#DBD7C1"/>
<path d="M46.7026 75.4426H43.1116V79.0365H46.7026V75.4426Z" fill="#DBD7C1"/>
<path d="M43.1119 75.4426H39.5181V79.0365H43.1119V75.4426Z" fill="#DBD7C1"/>
<path d="M39.5187 75.4426H35.9277V79.0365H39.5187V75.4426Z" fill="#DBD7C1"/>
<path d="M75.4423 68.2576H71.8484V71.8514H75.4423V68.2576Z" fill="#DBD7C1"/>
<path d="M61.0727 79.0364H57.4817V82.6273H61.0727V79.0364Z" fill="#DBD7C1"/>
<path d="M64.6671 79.0364H61.0732V82.6273H64.6671V79.0364Z" fill="#DBD7C1"/>
<path d="M68.2572 75.4426H64.6633V79.0365H68.2572V75.4426Z" fill="#DBD7C1"/>
<path d="M50.2967 79.0364H46.7029V82.6273H50.2967V79.0364Z" fill="#DBD7C1"/>
<path d="M46.7026 79.0364H43.1116V82.6273H46.7026V79.0364Z" fill="#DBD7C1"/>
<path d="M28.7399 71.8513H25.1489V75.4423H28.7399V71.8513Z" fill="#DBD7C1"/>
<path d="M35.9278 75.4426H32.334V79.0365H35.9278V75.4426Z" fill="#DBD7C1"/>
<path d="M43.1119 79.0364H39.5181V82.6273H43.1119V79.0364Z" fill="#DBD7C1"/>
<path d="M39.5187 79.0364H35.9277V82.6273H39.5187V79.0364Z" fill="#DBD7C1"/>
<path d="M50.2967 82.6272H46.7029V86.2211H50.2967V82.6272Z" fill="#DBD7C1"/>
<path d="M10.7792 64.6667H7.1853V68.2606H10.7792V64.6667Z" fill="#DBD7C1"/>
<path d="M17.964 68.2576H14.3701V71.8514H17.964V68.2576Z" fill="#DBD7C1"/>
<path d="M14.3698 68.2576H10.7788V71.8514H14.3698V68.2576Z" fill="#DBD7C1"/>
<path d="M25.1483 71.8513H21.5544V75.4423H25.1483V71.8513Z" fill="#DBD7C1"/>
<path d="M21.5551 71.8513H17.9641V75.4423H21.5551V71.8513Z" fill="#DBD7C1"/>
<path d="M17.964 71.8513H14.3701V75.4423H17.964V71.8513Z" fill="#DBD7C1"/>
<path d="M32.3331 75.4426H28.7393V79.0365H32.3331V75.4426Z" fill="#DBD7C1"/>
<path d="M35.9278 79.0364H32.334V82.6273H35.9278V79.0364Z" fill="#DBD7C1"/>
<path d="M61.0727 75.4426H57.4817V79.0365H61.0727V75.4426Z" fill="#DBD7C1"/>
<path d="M57.482 75.4426H53.8882V79.0365H57.482V75.4426Z" fill="#DBD7C1"/>
<path d="M53.8879 79.0364H50.2969V82.6273H53.8879V79.0364Z" fill="#DBD7C1"/>
<path d="M64.6671 71.8513H61.0732V75.4423H64.6671V71.8513Z" fill="#DBD7C1"/>
<path d="M82.6276 28.7424H79.0337V32.3334H82.6276V28.7424Z" fill="#DBD7C1"/>
<path d="M57.482 79.0364H53.8882V82.6273H57.482V79.0364Z" fill="#DBD7C1"/>
<path d="M75.4423 25.1482H71.8484V28.7421H75.4423V25.1482Z" fill="#DBD7C1"/>
<path d="M75.4423 21.5574H71.8484V25.1483H75.4423V21.5574Z" fill="#DBD7C1"/>
<path d="M71.8483 17.9639H68.2573V21.5577H71.8483V17.9639Z" fill="#DBD7C1"/>
<path d="M64.6671 10.7786H61.0732V14.3724H64.6671V10.7786Z" fill="#DBD7C1"/>
<path d="M64.6671 75.4426H61.0732V79.0365H64.6671V75.4426Z" fill="#DBD7C1"/>
<path d="M68.2572 14.3728H64.6633V17.9638H68.2572V14.3728Z" fill="#DBD7C1"/>
<path d="M86.2182 53.8879H82.6272V57.4789H86.2182V53.8879Z" fill="#DBD7C1"/>
<path d="M86.2182 50.2971H82.6272V53.891H86.2182V50.2971Z" fill="#DBD7C1"/>
<path d="M86.2182 46.7029H82.6272V50.2939H86.2182V46.7029Z" fill="#DBD7C1"/>
<path d="M86.2182 43.1121H82.6272V46.7059H86.2182V43.1121Z" fill="#DBD7C1"/>
<path d="M82.6276 43.1121H79.0337V46.7059H82.6276V43.1121Z" fill="#DBD7C1"/>
<path d="M82.6276 39.5186H79.0337V43.1095H82.6276V39.5186Z" fill="#DBD7C1"/>
<path d="M82.6276 35.927H79.0337V39.5209H82.6276V35.927Z" fill="#DBD7C1"/>
<path d="M82.6276 32.3333H79.0337V35.9271H82.6276V32.3333Z" fill="#DBD7C1"/>
<path d="M79.0331 32.3333H75.4421V35.9271H79.0331V32.3333Z" fill="#DBD7C1"/>
<path d="M79.0331 28.7424H75.4421V32.3334H79.0331V28.7424Z" fill="#DBD7C1"/>
<path d="M79.0331 25.1482H75.4421V28.7421H79.0331V25.1482Z" fill="#DBD7C1"/>
<path d="M75.4423 71.8513H71.8484V75.4423H75.4423V71.8513Z" fill="#DBD7C1"/>
<path d="M53.8879 82.6272H50.2969V86.2211H53.8879V82.6272Z" fill="#DBD7C1"/>
<path d="M57.482 3.59424H53.8882V7.18521H57.482V3.59424Z" fill="#DBD7C1"/>
<path d="M61.0727 82.6272H57.4817V86.2211H61.0727V82.6272Z" fill="#DBD7C1"/>
<path d="M57.482 86.2214H53.8882V89.8124H57.482V86.2214Z" fill="#DBD7C1"/>
<path d="M57.482 82.6272H53.8882V86.2211H57.482V82.6272Z" fill="#DBD7C1"/>
<path d="M53.8879 86.2214H50.2969V89.8124H53.8879V86.2214Z" fill="#DBD7C1"/>
<path d="M89.8124 53.8879H86.2185V57.4789H89.8124V53.8879Z" fill="#DBD7C1"/>
<path d="M89.8124 50.2971H86.2185V53.891H89.8124V50.2971Z" fill="#DBD7C1"/>
<path d="M89.8124 46.7029H86.2185V50.2939H89.8124V46.7029Z" fill="#DBD7C1"/>
<path d="M89.8124 43.1121H86.2185V46.7059H89.8124V43.1121Z" fill="#DBD7C1"/>
<path d="M75.4423 17.9639H71.8484V21.5577H75.4423V17.9639Z" fill="#DBD7C1"/>
<path d="M71.8483 79.0364H68.2573V82.6273H71.8483V79.0364Z" fill="#DBD7C1"/>
<path d="M71.8483 75.4426H68.2573V79.0365H71.8483V75.4426Z" fill="#DBD7C1"/>
<path d="M71.8483 14.3728H68.2573V17.9638H71.8483V14.3728Z" fill="#DBD7C1"/>
<path d="M68.2572 10.7786H64.6633V14.3724H68.2572V10.7786Z" fill="#DBD7C1"/>
<path d="M68.2572 79.0364H64.6633V82.6273H68.2572V79.0364Z" fill="#DBD7C1"/>
<path d="M86.2182 61.0725H82.6272V64.6635H86.2182V61.0725Z" fill="#DBD7C1"/>
<path d="M86.2182 57.4817H82.6272V61.0756H86.2182V57.4817Z" fill="#DBD7C1"/>
<path d="M86.2182 39.5186H82.6272V43.1095H86.2182V39.5186Z" fill="#DBD7C1"/>
<path d="M86.2182 35.927H82.6272V39.5209H86.2182V35.927Z" fill="#DBD7C1"/>
<path d="M86.2182 32.3333H82.6272V35.9271H86.2182V32.3333Z" fill="#DBD7C1"/>
<path d="M82.6276 68.2576H79.0337V71.8514H82.6276V68.2576Z" fill="#DBD7C1"/>
<path d="M82.6276 64.6667H79.0337V68.2606H82.6276V64.6667Z" fill="#DBD7C1"/>
<path d="M82.6276 61.0725H79.0337V64.6635H82.6276V61.0725Z" fill="#DBD7C1"/>
<path d="M79.0331 71.8513H75.4421V75.4423H79.0331V71.8513Z" fill="#DBD7C1"/>
<path d="M79.0331 68.2576H75.4421V71.8514H79.0331V68.2576Z" fill="#DBD7C1"/>
<path d="M79.0331 21.5574H75.4421V25.1483H79.0331V21.5574Z" fill="#DBD7C1"/>
<path d="M79.0331 17.9639H75.4421V21.5577H79.0331V17.9639Z" fill="#DBD7C1"/>
<path d="M75.4423 75.4426H71.8484V79.0365H75.4423V75.4426Z" fill="#DBD7C1"/>
<path d="M35.9278 82.6272H32.334V86.2211H35.9278V82.6272Z" fill="#DBD7C1"/>
<path d="M50.2967 86.2214H46.7029V89.8124H50.2967V86.2214Z" fill="#DBD7C1"/>
<path d="M46.7026 86.2214H43.1116V89.8124H46.7026V86.2214Z" fill="#DBD7C1"/>
<path d="M46.7026 82.6272H43.1116V86.2211H46.7026V82.6272Z" fill="#DBD7C1"/>
<path d="M43.1119 82.6272H39.5181V86.2211H43.1119V82.6272Z" fill="#DBD7C1"/>
<path d="M39.5187 82.6272H35.9277V86.2211H39.5187V82.6272Z" fill="#DBD7C1"/>
<path d="M32.3331 79.0364H28.7393V82.6273H32.3331V79.0364Z" fill="#DBD7C1"/>
<path d="M28.7399 75.4426H25.1489V79.0365H28.7399V75.4426Z" fill="#DBD7C1"/>
<path d="M25.1483 75.4426H21.5544V79.0365H25.1483V75.4426Z" fill="#DBD7C1"/>
<path d="M21.5551 75.4426H17.9641V79.0365H21.5551V75.4426Z" fill="#DBD7C1"/>
<path d="M100.591 61.0725H96.9973V64.6635H100.591V61.0725Z" fill="#DBD7C1"/>
<path d="M100.591 57.4817H96.9973V61.0756H100.591V57.4817Z" fill="#DBD7C1"/>
<path d="M100.591 53.8879H96.9973V57.4789H100.591V53.8879Z" fill="#DBD7C1"/>
<path d="M100.591 50.2971H96.9973V53.891H100.591V50.2971Z" fill="#DBD7C1"/>
<path d="M100.591 46.7029H96.9973V50.2939H100.591V46.7029Z" fill="#DBD7C1"/>
<path d="M100.591 43.1121H96.9973V46.7059H100.591V43.1121Z" fill="#DBD7C1"/>
<path d="M100.591 39.5186H96.9973V43.1095H100.591V39.5186Z" fill="#DBD7C1"/>
<path d="M100.591 35.927H96.9973V39.5209H100.591V35.927Z" fill="#DBD7C1"/>
<path d="M96.997 68.2576H93.406V71.8514H96.997V68.2576Z" fill="#DBD7C1"/>
<path d="M96.997 64.6667H93.406V68.2606H96.997V64.6667Z" fill="#DBD7C1"/>
<path d="M96.997 61.0725H93.406V64.6635H96.997V61.0725Z" fill="#DBD7C1"/>
<path d="M96.997 57.4817H93.406V61.0756H96.997V57.4817Z" fill="#DBD7C1"/>
<path d="M96.997 53.8879H93.406V57.4789H96.997V53.8879Z" fill="#DBD7C1"/>
<path d="M96.997 50.2971H93.406V53.891H96.997V50.2971Z" fill="#DBD7C1"/>
<path d="M96.997 46.7029H93.406V50.2939H96.997V46.7029Z" fill="#DBD7C1"/>
<path d="M96.997 43.1121H93.406V46.7059H96.997V43.1121Z" fill="#DBD7C1"/>
<path d="M96.997 39.5186H93.406V43.1095H96.997V39.5186Z" fill="#DBD7C1"/>
<path d="M96.997 35.927H93.406V39.5209H96.997V35.927Z" fill="#DBD7C1"/>
<path d="M96.997 32.3333H93.406V35.9271H96.997V32.3333Z" fill="#DBD7C1"/>
<path d="M96.997 28.7424H93.406V32.3334H96.997V28.7424Z" fill="#DBD7C1"/>
<path d="M93.4063 71.8513H89.8125V75.4423H93.4063V71.8513Z" fill="#DBD7C1"/>
<path d="M93.4063 68.2576H89.8125V71.8514H93.4063V68.2576Z" fill="#DBD7C1"/>
<path d="M93.4063 64.6667H89.8125V68.2606H93.4063V64.6667Z" fill="#DBD7C1"/>
<path d="M93.4063 61.0725H89.8125V64.6635H93.4063V61.0725Z" fill="#DBD7C1"/>
<path d="M93.4063 57.4817H89.8125V61.0756H93.4063V57.4817Z" fill="#DBD7C1"/>
<path d="M93.4063 53.8879H89.8125V57.4789H93.4063V53.8879Z" fill="#DBD7C1"/>
<path d="M93.4063 50.2971H89.8125V53.891H93.4063V50.2971Z" fill="#DBD7C1"/>
<path d="M93.4063 46.7029H89.8125V50.2939H93.4063V46.7029Z" fill="#DBD7C1"/>
<path d="M93.4063 43.1121H89.8125V46.7059H93.4063V43.1121Z" fill="#DBD7C1"/>
<path d="M93.4063 39.5186H89.8125V43.1095H93.4063V39.5186Z" fill="#DBD7C1"/>
<path d="M93.4063 35.927H89.8125V39.5209H93.4063V35.927Z" fill="#DBD7C1"/>
<path d="M93.4063 32.3333H89.8125V35.9271H93.4063V32.3333Z" fill="#DBD7C1"/>
<path d="M93.4063 28.7424H89.8125V32.3334H93.4063V28.7424Z" fill="#DBD7C1"/>
<path d="M93.4063 25.1482H89.8125V28.7421H93.4063V25.1482Z" fill="#DBD7C1"/>
<path d="M89.8124 79.0364H86.2185V82.6273H89.8124V79.0364Z" fill="#DBD7C1"/>
<path d="M89.8124 75.4426H86.2185V79.0365H89.8124V75.4426Z" fill="#DBD7C1"/>
<path d="M89.8124 71.8513H86.2185V75.4423H89.8124V71.8513Z" fill="#DBD7C1"/>
<path d="M89.8124 68.2576H86.2185V71.8514H89.8124V68.2576Z" fill="#DBD7C1"/>
<path d="M89.8124 64.6667H86.2185V68.2606H89.8124V64.6667Z" fill="#DBD7C1"/>
<path d="M89.8124 61.0725H86.2185V64.6635H89.8124V61.0725Z" fill="#DBD7C1"/>
<path d="M89.8124 57.4817H86.2185V61.0756H89.8124V57.4817Z" fill="#DBD7C1"/>
<path d="M89.8124 39.5186H86.2185V43.1095H89.8124V39.5186Z" fill="#DBD7C1"/>
<path d="M89.8124 35.927H86.2185V39.5209H89.8124V35.927Z" fill="#DBD7C1"/>
<path d="M89.8124 32.3333H86.2185V35.9271H89.8124V32.3333Z" fill="#DBD7C1"/>
<path d="M89.8124 28.7424H86.2185V32.3334H89.8124V28.7424Z" fill="#DBD7C1"/>
<path d="M89.8124 25.1482H86.2185V28.7421H89.8124V25.1482Z" fill="#DBD7C1"/>
<path d="M89.8124 21.5574H86.2185V25.1483H89.8124V21.5574Z" fill="#DBD7C1"/>
<path d="M89.8124 17.9639H86.2185V21.5577H89.8124V17.9639Z" fill="#DBD7C1"/>
<path d="M86.2182 82.6272H82.6272V86.2211H86.2182V82.6272Z" fill="#DBD7C1"/>
<path d="M86.2182 79.0364H82.6272V82.6273H86.2182V79.0364Z" fill="#DBD7C1"/>
<path d="M86.2182 75.4426H82.6272V79.0365H86.2182V75.4426Z" fill="#DBD7C1"/>
<path d="M86.2182 71.8513H82.6272V75.4423H86.2182V71.8513Z" fill="#DBD7C1"/>
<path d="M86.2182 68.2576H82.6272V71.8514H86.2182V68.2576Z" fill="#DBD7C1"/>
<path d="M86.2182 64.6667H82.6272V68.2606H86.2182V64.6667Z" fill="#DBD7C1"/>
<path d="M86.2182 28.7424H82.6272V32.3334H86.2182V28.7424Z" fill="#DBD7C1"/>
<path d="M86.2182 25.1482H82.6272V28.7421H86.2182V25.1482Z" fill="#DBD7C1"/>
<path d="M86.2182 21.5574H82.6272V25.1483H86.2182V21.5574Z" fill="#DBD7C1"/>
<path d="M86.2182 17.9639H82.6272V21.5577H86.2182V17.9639Z" fill="#DBD7C1"/>
<path d="M86.2182 14.3728H82.6272V17.9638H86.2182V14.3728Z" fill="#DBD7C1"/>
<path d="M82.6276 86.2214H79.0337V89.8124H82.6276V86.2214Z" fill="#DBD7C1"/>
<path d="M82.6276 82.6272H79.0337V86.2211H82.6276V82.6272Z" fill="#DBD7C1"/>
<path d="M82.6276 79.0364H79.0337V82.6273H82.6276V79.0364Z" fill="#DBD7C1"/>
<path d="M82.6276 75.4426H79.0337V79.0365H82.6276V75.4426Z" fill="#DBD7C1"/>
<path d="M82.6276 71.8513H79.0337V75.4423H82.6276V71.8513Z" fill="#DBD7C1"/>
<path d="M82.6276 25.1482H79.0337V28.7421H82.6276V25.1482Z" fill="#DBD7C1"/>
<path d="M82.6276 21.5574H79.0337V25.1483H82.6276V21.5574Z" fill="#DBD7C1"/>
<path d="M82.6276 17.9639H79.0337V21.5577H82.6276V17.9639Z" fill="#DBD7C1"/>
<path d="M82.6276 14.3728H79.0337V17.9638H82.6276V14.3728Z" fill="#DBD7C1"/>
<path d="M82.6276 10.7786H79.0337V14.3724H82.6276V10.7786Z" fill="#DBD7C1"/>
<path d="M79.0331 86.2214H75.4421V89.8124H79.0331V86.2214Z" fill="#DBD7C1"/>
<path d="M79.0331 82.6272H75.4421V86.2211H79.0331V82.6272Z" fill="#DBD7C1"/>
<path d="M79.0331 79.0364H75.4421V82.6273H79.0331V79.0364Z" fill="#DBD7C1"/>
<path d="M79.0331 75.4426H75.4421V79.0365H79.0331V75.4426Z" fill="#DBD7C1"/>
<path d="M79.0331 14.3728H75.4421V17.9638H79.0331V14.3728Z" fill="#DBD7C1"/>
<path d="M79.0331 10.7786H75.4421V14.3724H79.0331V10.7786Z" fill="#DBD7C1"/>
<path d="M75.4423 89.8123H71.8484V93.4061H75.4423V89.8123Z" fill="#DBD7C1"/>
<path d="M75.4423 86.2214H71.8484V89.8124H75.4423V86.2214Z" fill="#DBD7C1"/>
<path d="M75.4423 82.6272H71.8484V86.2211H75.4423V82.6272Z" fill="#DBD7C1"/>
<path d="M75.4423 79.0364H71.8484V82.6273H75.4423V79.0364Z" fill="#DBD7C1"/>
<path d="M75.4423 14.3728H71.8484V17.9638H75.4423V14.3728Z" fill="#DBD7C1"/>
<path d="M75.4423 10.7786H71.8484V14.3724H75.4423V10.7786Z" fill="#DBD7C1"/>
<path d="M75.4423 7.18506H71.8484V10.7789H75.4423V7.18506Z" fill="#DBD7C1"/>
<path d="M71.8483 93.406H68.2573V96.9999H71.8483V93.406Z" fill="#DBD7C1"/>
<path d="M71.8483 89.8123H68.2573V93.4061H71.8483V89.8123Z" fill="#DBD7C1"/>
<path d="M71.8483 86.2214H68.2573V89.8124H71.8483V86.2214Z" fill="#DBD7C1"/>
<path d="M71.8483 82.6272H68.2573V86.2211H71.8483V82.6272Z" fill="#DBD7C1"/>
<path d="M71.8483 10.7786H68.2573V14.3724H71.8483V10.7786Z" fill="#DBD7C1"/>
<path d="M71.8483 7.18506H68.2573V10.7789H71.8483V7.18506Z" fill="#DBD7C1"/>
<path d="M71.8483 3.59424H68.2573V7.18521H71.8483V3.59424Z" fill="#DBD7C1"/>
<path d="M68.2572 93.406H64.6633V96.9999H68.2572V93.406Z" fill="#DBD7C1"/>
<path d="M68.2572 89.8123H64.6633V93.4061H68.2572V89.8123Z" fill="#DBD7C1"/>
<path d="M68.2572 86.2214H64.6633V89.8124H68.2572V86.2214Z" fill="#DBD7C1"/>
<path d="M68.2572 82.6272H64.6633V86.2211H68.2572V82.6272Z" fill="#DBD7C1"/>
<path d="M68.2572 7.18506H64.6633V10.7789H68.2572V7.18506Z" fill="#DBD7C1"/>
<path d="M68.2572 3.59424H64.6633V7.18521H68.2572V3.59424Z" fill="#DBD7C1"/>
<path d="M64.6671 96.9966H61.0732V100.588H64.6671V96.9966Z" fill="#DBD7C1"/>
<path d="M64.6671 93.406H61.0732V96.9999H64.6671V93.406Z" fill="#DBD7C1"/>
<path d="M64.6671 89.8123H61.0732V93.4061H64.6671V89.8123Z" fill="#DBD7C1"/>
<path d="M64.6671 86.2214H61.0732V89.8124H64.6671V86.2214Z" fill="#DBD7C1"/>
<path d="M64.6671 82.6272H61.0732V86.2211H64.6671V82.6272Z" fill="#DBD7C1"/>
<path d="M64.6671 7.18506H61.0732V10.7789H64.6671V7.18506Z" fill="#DBD7C1"/>
<path d="M64.6671 3.59424H61.0732V7.18521H64.6671V3.59424Z" fill="#DBD7C1"/>
<path d="M64.6671 0H61.0732V3.59386H64.6671V0Z" fill="#DBD7C1"/>
<path d="M61.0727 96.9966H57.4817V100.588H61.0727V96.9966Z" fill="#DBD7C1"/>
<path d="M61.0727 93.406H57.4817V96.9999H61.0727V93.406Z" fill="#DBD7C1"/>
<path d="M61.0727 89.8123H57.4817V93.4061H61.0727V89.8123Z" fill="#DBD7C1"/>
<path d="M61.0727 86.2214H57.4817V89.8124H61.0727V86.2214Z" fill="#DBD7C1"/>
<path d="M61.0727 3.59424H57.4817V7.18521H61.0727V3.59424Z" fill="#DBD7C1"/>
<path d="M61.0727 0H57.4817V3.59386H61.0727V0Z" fill="#DBD7C1"/>
<path d="M57.482 96.9966H53.8882V100.588H57.482V96.9966Z" fill="#DBD7C1"/>
<path d="M57.482 93.406H53.8882V96.9999H57.482V93.406Z" fill="#DBD7C1"/>
<path d="M57.482 89.8123H53.8882V93.4061H57.482V89.8123Z" fill="#DBD7C1"/>
<path d="M57.482 0H53.8882V3.59386H57.482V0Z" fill="#DBD7C1"/>
<path d="M53.8879 96.9966H50.2969V100.588H53.8879V96.9966Z" fill="#DBD7C1"/>
<path d="M53.8879 93.406H50.2969V96.9999H53.8879V93.406Z" fill="#DBD7C1"/>
<path d="M53.8879 89.8123H50.2969V93.4061H53.8879V89.8123Z" fill="#DBD7C1"/>
<path d="M53.8879 0H50.2969V3.59386H53.8879V0Z" fill="#DBD7C1"/>
<path d="M50.2967 96.9966H46.7029V100.588H50.2967V96.9966Z" fill="#DBD7C1"/>
<path d="M50.2967 93.406H46.7029V96.9999H50.2967V93.406Z" fill="#DBD7C1"/>
<path d="M50.2967 89.8123H46.7029V93.4061H50.2967V89.8123Z" fill="#DBD7C1"/>
<path d="M46.7026 96.9966H43.1116V100.588H46.7026V96.9966Z" fill="#DBD7C1"/>
<path d="M46.7026 93.406H43.1116V96.9999H46.7026V93.406Z" fill="#DBD7C1"/>
<path d="M46.7026 89.8123H43.1116V93.4061H46.7026V89.8123Z" fill="#DBD7C1"/>
<path d="M43.1119 96.9966H39.5181V100.588H43.1119V96.9966Z" fill="#DBD7C1"/>
<path d="M43.1119 93.406H39.5181V96.9999H43.1119V93.406Z" fill="#DBD7C1"/>
<path d="M43.1119 89.8123H39.5181V93.4061H43.1119V89.8123Z" fill="#DBD7C1"/>
<path d="M43.1119 86.2214H39.5181V89.8124H43.1119V86.2214Z" fill="#DBD7C1"/>
<path d="M39.5187 96.9966H35.9277V100.588H39.5187V96.9966Z" fill="#DBD7C1"/>
<path d="M39.5187 93.406H35.9277V96.9999H39.5187V93.406Z" fill="#DBD7C1"/>
<path d="M39.5187 89.8123H35.9277V93.4061H39.5187V89.8123Z" fill="#DBD7C1"/>
<path d="M39.5187 86.2214H35.9277V89.8124H39.5187V86.2214Z" fill="#DBD7C1"/>
<path d="M35.9278 93.406H32.334V96.9999H35.9278V93.406Z" fill="#DBD7C1"/>
<path d="M35.9278 89.8123H32.334V93.4061H35.9278V89.8123Z" fill="#DBD7C1"/>
<path d="M35.9278 86.2214H32.334V89.8124H35.9278V86.2214Z" fill="#DBD7C1"/>
<path d="M32.3331 93.406H28.7393V96.9999H32.3331V93.406Z" fill="#DBD7C1"/>
<path d="M32.3331 89.8123H28.7393V93.4061H32.3331V89.8123Z" fill="#DBD7C1"/>
<path d="M32.3331 86.2214H28.7393V89.8124H32.3331V86.2214Z" fill="#DBD7C1"/>
<path d="M32.3331 82.6272H28.7393V86.2211H32.3331V82.6272Z" fill="#DBD7C1"/>
<path d="M28.7399 89.8123H25.1489V93.4061H28.7399V89.8123Z" fill="#DBD7C1"/>
<path d="M28.7399 86.2214H25.1489V89.8124H28.7399V86.2214Z" fill="#DBD7C1"/>
<path d="M28.7399 82.6272H25.1489V86.2211H28.7399V82.6272Z" fill="#DBD7C1"/>
<path d="M28.7399 79.0364H25.1489V82.6273H28.7399V79.0364Z" fill="#DBD7C1"/>
<path d="M25.1483 86.2214H21.5544V89.8124H25.1483V86.2214Z" fill="#DBD7C1"/>
<path d="M25.1483 82.6272H21.5544V86.2211H25.1483V82.6272Z" fill="#DBD7C1"/>
<path d="M25.1483 79.0364H21.5544V82.6273H25.1483V79.0364Z" fill="#DBD7C1"/>
<path d="M21.5551 86.2214H17.9641V89.8124H21.5551V86.2214Z" fill="#DBD7C1"/>
<path d="M21.5551 82.6272H17.9641V86.2211H21.5551V82.6272Z" fill="#DBD7C1"/>
<path d="M21.5551 79.0364H17.9641V82.6273H21.5551V79.0364Z" fill="#DBD7C1"/>
<path d="M17.964 82.6272H14.3701V86.2211H17.964V82.6272Z" fill="#DBD7C1"/>
<path d="M17.964 79.0364H14.3701V82.6273H17.964V79.0364Z" fill="#DBD7C1"/>
<path d="M17.964 75.4426H14.3701V79.0365H17.964V75.4426Z" fill="#DBD7C1"/>
<path d="M14.3698 79.0364H10.7788V82.6273H14.3698V79.0364Z" fill="#DBD7C1"/>
<path d="M14.3698 75.4426H10.7788V79.0365H14.3698V75.4426Z" fill="#DBD7C1"/>
<path d="M14.3698 71.8513H10.7788V75.4423H14.3698V71.8513Z" fill="#DBD7C1"/>
<path d="M10.7792 71.8513H7.1853V75.4423H10.7792V71.8513Z" fill="#DBD7C1"/>
<path d="M10.7792 68.2576H7.1853V71.8514H10.7792V68.2576Z" fill="#DBD7C1"/>
<path d="M7.18759 68.2576H3.59375V71.8514H7.18759V68.2576Z" fill="#DBD7C1"/>
<path d="M7.18759 64.6667H3.59375V68.2606H7.18759V64.6667Z" fill="#DBD7C1"/>
<path d="M3.59099 61.0725H0V64.6635H3.59099V61.0725Z" fill="#DBD7C1"/>
</g>
</svg>
