<svg width="86" height="66" viewBox="0 0 86 66" fill="none" xmlns="http://www.w3.org/2000/svg">
<path d="M35.0403 7.71189L35.0403 3.85596L31.1469 3.85596L31.1469 7.71189L35.0403 7.71189Z" fill="#423F42"/>
<path d="M42.8274 7.71189L42.8274 3.85596L38.934 3.85596L38.934 7.71189L42.8274 7.71189Z" fill="#5A575C"/>
<path d="M46.7205 7.71189L46.7205 3.85596L42.8271 3.85596L42.8271 7.71189L46.7205 7.71189Z" fill="#757177"/>
<path d="M50.6139 7.71189L50.6139 3.85596L46.7205 3.85596L46.7205 7.71189L50.6139 7.71189Z" fill="#757177"/>
<path d="M54.5074 7.71189L54.5074 3.85596L50.6141 3.85596L50.6141 7.71189L54.5074 7.71189Z" fill="#757177"/>
<path d="M38.9338 7.71189L38.9338 3.85596L35.0405 3.85596L35.0405 7.71189L38.9338 7.71189Z" fill="#423F42"/>
<path d="M35.0403 61.6765L35.0403 57.8206L31.1469 57.8206L31.1469 61.6765L35.0403 61.6765Z" fill="#423F42"/>
<path d="M38.9338 61.6765L38.9338 57.8206L35.0405 57.8206L35.0405 61.6765L38.9338 61.6765Z" fill="#423F42"/>
<path d="M42.8274 61.6765L42.8274 57.8206L38.934 57.8206L38.934 61.6765L42.8274 61.6765Z" fill="#5A575C"/>
<path d="M46.7205 61.6765L46.7205 57.8206L42.8271 57.8206L42.8271 61.6765L46.7205 61.6765Z" fill="#757177"/>
<path d="M50.6139 61.6765L50.6139 57.8206L46.7205 57.8206L46.7205 61.6765L50.6139 61.6765Z" fill="#757177"/>
<path d="M54.5074 61.6765L54.5074 57.8206L50.6141 57.8206L50.6141 61.6765L54.5074 61.6765Z" fill="#757177"/>
<path d="M23.3602 65.5322L23.3602 61.6763L19.4668 61.6763L19.4668 65.5322L23.3602 65.5322Z" fill="#EDECEC"/>
<path d="M27.2538 65.5322L27.2538 61.6763L23.3604 61.6763L23.3604 65.5322L27.2538 65.5322Z" fill="#C4C4C4"/>
<path d="M23.3602 61.6765L23.3602 57.8206L19.4668 57.8206L19.4668 61.6765L23.3602 61.6765Z" fill="#EDECEC"/>
<path d="M27.2538 61.6765L27.2538 57.8206L23.3604 57.8206L23.3604 61.6765L27.2538 61.6765Z" fill="#EDECEC"/>
<path d="M31.1469 61.6765L31.1469 57.8206L27.2535 57.8206L27.2535 61.6765L31.1469 61.6765Z" fill="#C4C4C4"/>
<path d="M23.3602 57.8205L23.3602 53.9646L19.4668 53.9646L19.4668 57.8205L23.3602 57.8205Z" fill="#EDECEC"/>
<path d="M27.2538 57.8205L27.2538 53.9646L23.3604 53.9646L23.3604 57.8205L27.2538 57.8205Z" fill="#EDECEC"/>
<path d="M31.1469 57.8205L31.1469 53.9646L27.2535 53.9646L27.2535 57.8205L31.1469 57.8205Z" fill="#EDECEC"/>
<path d="M35.0403 57.8205L35.0403 53.9646L31.1469 53.9646L31.1469 57.8205L35.0403 57.8205Z" fill="#C4C4C4"/>
<path d="M23.3602 53.9643L23.3602 50.1084L19.4668 50.1084L19.4668 53.9643L23.3602 53.9643Z" fill="#EDECEC"/>
<path d="M27.2538 53.9643L27.2538 50.1084L23.3604 50.1084L23.3604 53.9643L27.2538 53.9643Z" fill="#EDECEC"/>
<path d="M31.1469 53.9643L31.1469 50.1084L27.2535 50.1084L27.2535 53.9643L31.1469 53.9643Z" fill="#EDECEC"/>
<path d="M35.0403 53.9643L35.0403 50.1084L31.1469 50.1084L31.1469 53.9643L35.0403 53.9643Z" fill="#999599"/>
<path d="M38.9338 53.9643L38.9338 50.1084L35.0405 50.1084L35.0405 53.9643L38.9338 53.9643Z" fill="#C4C4C4"/>
<path d="M19.4667 50.1086L19.4667 46.2527L15.5733 46.2527L15.5733 50.1086L19.4667 50.1086Z" fill="#EDECEC"/>
<path d="M23.3602 50.1086L23.3602 46.2527L19.4668 46.2527L19.4668 50.1086L23.3602 50.1086Z" fill="#EDECEC"/>
<path d="M27.2538 50.1086L27.2538 46.2527L23.3604 46.2527L23.3604 50.1086L27.2538 50.1086Z" fill="#EDECEC"/>
<path d="M31.1469 50.1086L31.1469 46.2527L27.2535 46.2527L27.2535 50.1086L31.1469 50.1086Z" fill="#999599"/>
<path d="M35.0403 50.1086L35.0403 46.2527L31.1469 46.2527L31.1469 50.1086L35.0403 50.1086Z" fill="#EDECEC"/>
<path d="M38.9338 50.1086L38.9338 46.2527L35.0405 46.2527L35.0405 50.1086L38.9338 50.1086Z" fill="#EDECEC"/>
<path d="M42.8274 50.1086L42.8274 46.2527L38.934 46.2527L38.934 50.1086L42.8274 50.1086Z" fill="#EDECEC"/>
<path d="M46.7205 50.1086L46.7205 46.2527L42.8271 46.2527L42.8271 50.1086L46.7205 50.1086Z" fill="#C4C4C4"/>
<path d="M50.6139 50.1086L50.6139 46.2527L46.7205 46.2527L46.7205 50.1086L50.6139 50.1086Z" fill="#C4C4C4"/>
<path d="M15.5736 46.2524L15.5736 42.3965L11.6802 42.3965L11.6802 46.2524L15.5736 46.2524Z" fill="#EDECEC"/>
<path d="M19.4667 46.2524L19.4667 42.3965L15.5733 42.3965L15.5733 46.2524L19.4667 46.2524Z" fill="#999599"/>
<path d="M23.3602 46.2524L23.3602 42.3965L19.4668 42.3965L19.4668 46.2524L23.3602 46.2524Z" fill="#999599"/>
<path d="M27.2538 46.2524L27.2538 42.3965L23.3604 42.3965L23.3604 46.2524L27.2538 46.2524Z" fill="#666366"/>
<path d="M31.1469 46.2524L31.1469 42.3965L27.2535 42.3965L27.2535 46.2524L31.1469 46.2524Z" fill="#EB7D73"/>
<path d="M35.0403 46.2524L35.0403 42.3965L31.1469 42.3965L31.1469 46.2524L35.0403 46.2524Z" fill="#C93427"/>
<path d="M38.9338 46.2524L38.9338 42.3965L35.0405 42.3965L35.0405 46.2524L38.9338 46.2524Z" fill="#EB7D73"/>
<path d="M42.8274 46.2524L42.8274 42.3965L38.934 42.3965L38.934 46.2524L42.8274 46.2524Z" fill="#EB7D73"/>
<path d="M46.7205 46.2524L46.7205 42.3965L42.8271 42.3965L42.8271 46.2524L46.7205 46.2524Z" fill="#EDECEC"/>
<path d="M50.6139 46.2524L50.6139 42.3965L46.7205 42.3965L46.7205 46.2524L50.6139 46.2524Z" fill="#EDECEC"/>
<path d="M54.5074 46.2524L54.5074 42.3965L50.6141 42.3965L50.6141 46.2524L54.5074 46.2524Z" fill="#EDECEC"/>
<path d="M58.4005 46.2524L58.4005 42.3965L54.5071 42.3965L54.5071 46.2524L58.4005 46.2524Z" fill="#C4C4C4"/>
<path d="M11.6802 42.397L11.6802 38.541L7.7868 38.541L7.78679 42.397L11.6802 42.397Z" fill="#EDECEC"/>
<path d="M15.5736 42.397L15.5736 38.541L11.6802 38.541L11.6802 42.397L15.5736 42.397Z" fill="#FAF9F9"/>
<path d="M19.4667 42.397L19.4667 38.541L15.5733 38.541L15.5733 42.397L19.4667 42.397Z" fill="#FAF9F9"/>
<path d="M23.3602 42.397L23.3602 38.541L19.4668 38.541L19.4668 42.397L23.3602 42.397Z" fill="#FAF9F9"/>
<path d="M27.2538 42.397L27.2538 38.541L23.3604 38.541L23.3604 42.397L27.2538 42.397Z" fill="#C4C4C4"/>
<path d="M31.1469 42.397L31.1469 38.541L27.2535 38.541L27.2535 42.397L31.1469 42.397Z" fill="#EDECEC"/>
<path d="M35.0403 42.397L35.0403 38.541L31.1469 38.541L31.1469 42.397L35.0403 42.397Z" fill="#EDECEC"/>
<path d="M38.9338 42.397L38.9338 38.541L35.0405 38.541L35.0405 42.397L38.9338 42.397Z" fill="#EDECEC"/>
<path d="M42.8274 42.397L42.8274 38.541L38.934 38.541L38.934 42.397L42.8274 42.397Z" fill="#383738"/>
<path d="M46.7205 42.397L46.7205 38.541L42.8271 38.541L42.8271 42.397L46.7205 42.397Z" fill="#383738"/>
<path d="M50.6139 42.397L50.6139 38.541L46.7205 38.541L46.7205 42.397L50.6139 42.397Z" fill="#4F4D4F"/>
<path d="M54.5074 42.397L54.5074 38.541L50.6141 38.541L50.6141 42.397L54.5074 42.397Z" fill="#4F4D4F"/>
<path d="M58.4005 42.397L58.4005 38.541L54.5071 38.541L54.5071 42.397L58.4005 42.397Z" fill="#4F4D4F"/>
<path d="M62.2941 42.397L62.2941 38.541L58.4007 38.541L58.4007 42.397L62.2941 42.397Z" fill="#EDECEC"/>
<path d="M66.1875 42.397L66.1875 38.541L62.2941 38.541L62.2941 42.397L66.1875 42.397Z" fill="#C4C4C4"/>
<path d="M70.0807 42.397L70.0807 38.541L66.1873 38.541L66.1873 42.397L70.0807 42.397Z" fill="#C4C4C4"/>
<path d="M3.89343 38.5405L3.89343 34.6846L5.19753e-05 34.6846L5.18067e-05 38.5405L3.89343 38.5405Z" fill="#424042"/>
<path d="M7.7865 38.5405L7.7865 34.6846L3.89313 34.6846L3.89313 38.5405L7.7865 38.5405Z" fill="#424042"/>
<path d="M19.4667 38.5405L19.4667 34.6846L15.5733 34.6846L15.5733 38.5405L19.4667 38.5405Z" fill="#EDECEC"/>
<path d="M23.3602 38.5405L23.3602 34.6846L19.4668 34.6846L19.4668 38.5405L23.3602 38.5405Z" fill="#EDECEC"/>
<path d="M27.2538 38.541L27.2538 34.6851L23.3604 34.6851L23.3604 38.541L27.2538 38.541Z" fill="#EDECEC"/>
<path d="M31.1469 38.541L31.1469 34.6851L27.2535 34.6851L27.2535 38.541L31.1469 38.541Z" fill="#EDECEC"/>
<path d="M35.0403 38.541L35.0403 34.6851L31.1469 34.6851L31.1469 38.541L35.0403 38.541Z" fill="#EDECEC"/>
<path d="M38.9338 38.541L38.9338 34.6851L35.0405 34.6851L35.0405 38.541L38.9338 38.541Z" fill="#383738"/>
<path d="M42.8274 38.541L42.8274 34.6851L38.934 34.6851L38.934 38.541L42.8274 38.541Z" fill="#4F4D4F"/>
<path d="M46.7205 38.541L46.7205 34.6851L42.8271 34.6851L42.8271 38.541L46.7205 38.541Z" fill="#666366"/>
<path d="M50.6139 38.541L50.6139 34.6851L46.7205 34.6851L46.7205 38.541L50.6139 38.541Z" fill="#666366"/>
<path d="M54.5074 38.541L54.5074 34.6851L50.6141 34.6851L50.6141 38.541L54.5074 38.541Z" fill="#666366"/>
<path d="M58.4005 38.5405L58.4005 34.6846L54.5071 34.6846L54.5071 38.5405L58.4005 38.5405Z" fill="#666366"/>
<path d="M62.2941 38.5405L62.2941 34.6846L58.4007 34.6846L58.4007 38.5405L62.2941 38.5405Z" fill="#666366"/>
<path d="M66.1875 38.5405L66.1875 34.6846L62.2941 34.6846L62.2941 38.5405L66.1875 38.5405Z" fill="#EDECEC"/>
<path d="M70.0807 38.5405L70.0807 34.6846L66.1873 34.6846L66.1873 38.5405L70.0807 38.5405Z" fill="#EDECEC"/>
<path d="M73.9741 38.5405L73.9741 34.6846L70.0807 34.6846L70.0807 38.5405L73.9741 38.5405Z" fill="#666366"/>
<path d="M77.8677 38.5405L77.8677 34.6846L73.9743 34.6846L73.9743 38.5405L77.8677 38.5405Z" fill="#EDECEC"/>
<path d="M81.7609 38.5405L81.7609 34.6846L77.8675 34.6846L77.8675 38.5405L81.7609 38.5405Z" fill="#A1A0A0"/>
<path d="M3.89343 34.6846L3.89343 30.8286L5.19753e-05 30.8286L5.18067e-05 34.6846L3.89343 34.6846Z" fill="#666366"/>
<path d="M7.7865 34.6846L7.7865 30.8286L3.89313 30.8286L3.89313 34.6846L7.7865 34.6846Z" fill="#666366"/>
<path d="M11.6802 34.6846L11.6802 30.8286L7.7868 30.8286L7.78679 34.6846L11.6802 34.6846Z" fill="#424042"/>
<path d="M15.5736 34.6846L15.5736 30.8286L11.6802 30.8286L11.6802 34.6846L15.5736 34.6846Z" fill="#5E5C5E"/>
<path d="M19.4667 34.6846L19.4667 30.8286L15.5733 30.8286L15.5733 34.6846L19.4667 34.6846Z" fill="#424042"/>
<path d="M23.3602 34.6846L23.3602 30.8286L19.4668 30.8286L19.4668 34.6846L23.3602 34.6846Z" fill="#EDECEC"/>
<path d="M27.2538 34.6846L27.2538 30.8286L23.3604 30.8286L23.3604 34.6846L27.2538 34.6846Z" fill="#EDECEC"/>
<path d="M31.1469 34.6846L31.1469 30.8286L27.2535 30.8286L27.2535 34.6846L31.1469 34.6846Z" fill="#EDECEC"/>
<path d="M35.0403 34.6846L35.0403 30.8286L31.1469 30.8286L31.1469 34.6846L35.0403 34.6846Z" fill="#383738"/>
<path d="M38.9338 34.6846L38.9338 30.8286L35.0405 30.8286L35.0405 34.6846L38.9338 34.6846Z" fill="#666366"/>
<path d="M42.8274 34.6846L42.8274 30.8286L38.934 30.8286L38.934 34.6846L42.8274 34.6846Z" fill="#666366"/>
<path d="M46.7205 34.6846L46.7205 30.8286L42.8271 30.8286L42.8271 34.6846L46.7205 34.6846Z" fill="#666366"/>
<path d="M50.6139 34.6846L50.6139 30.8286L46.7205 30.8286L46.7205 34.6846L50.6139 34.6846Z" fill="#666366"/>
<path d="M54.5074 34.6846L54.5074 30.8286L50.6141 30.8286L50.6141 34.6846L54.5074 34.6846Z" fill="#666366"/>
<path d="M58.4005 34.6846L58.4005 30.8286L54.5071 30.8286L54.5071 34.6846L58.4005 34.6846Z" fill="#EDECEC"/>
<path d="M62.2941 34.6846L62.2941 30.8286L58.4007 30.8286L58.4007 34.6846L62.2941 34.6846Z" fill="#EDECEC"/>
<path d="M66.1875 34.6846L66.1875 30.8286L62.2941 30.8286L62.2941 34.6846L66.1875 34.6846Z" fill="#EDECEC"/>
<path d="M70.0807 34.6846L70.0807 30.8286L66.1873 30.8286L66.1873 34.6846L70.0807 34.6846Z" fill="#EDECEC"/>
<path d="M73.9741 34.6846L73.9741 30.8286L70.0807 30.8286L70.0807 34.6846L73.9741 34.6846Z" fill="#666366"/>
<path d="M77.8677 34.6846L77.8677 30.8286L73.9743 30.8286L73.9743 34.6846L77.8677 34.6846Z" fill="#FAF9F9"/>
<path d="M81.7609 34.6846L81.7609 30.8286L77.8675 30.8286L77.8675 34.6846L81.7609 34.6846Z" fill="#A1A0A0"/>
<path d="M85.6543 34.6846L85.6543 30.8286L81.7609 30.8286L81.7609 34.6846L85.6543 34.6846Z" fill="#A1A0A0"/>
<path d="M3.89343 30.8474L3.89343 26.9915L5.19753e-05 26.9915L5.18067e-05 30.8474L3.89343 30.8474Z" fill="#5E5C5E"/>
<path d="M7.7865 30.8474L7.7865 26.9915L3.89313 26.9915L3.89313 30.8474L7.7865 30.8474Z" fill="#5E5C5E"/>
<path d="M19.4667 30.8474L19.4667 26.9915L15.5733 26.9915L15.5733 30.8474L19.4667 30.8474Z" fill="#EDECEC"/>
<path d="M23.3602 30.8474L23.3602 26.9915L19.4668 26.9915L19.4668 30.8474L23.3602 30.8474Z" fill="#EDECEC"/>
<path d="M27.2538 30.8474L27.2538 26.9915L23.3604 26.9915L23.3604 30.8474L27.2538 30.8474Z" fill="#EDECEC"/>
<path d="M31.1469 30.8474L31.1469 26.9915L27.2535 26.9915L27.2535 30.8474L31.1469 30.8474Z" fill="#EDECEC"/>
<path d="M35.0403 30.8474L35.0403 26.9915L31.1469 26.9915L31.1469 30.8474L35.0403 30.8474Z" fill="#EDECEC"/>
<path d="M38.9338 30.8474L38.9338 26.9915L35.0405 26.9915L35.0405 30.8474L38.9338 30.8474Z" fill="#999599"/>
<path d="M42.8274 30.8474L42.8274 26.9915L38.934 26.9915L38.934 30.8474L42.8274 30.8474Z" fill="#999599"/>
<path d="M46.7205 30.8474L46.7205 26.9915L42.8271 26.9915L42.8271 30.8474L46.7205 30.8474Z" fill="#999599"/>
<path d="M50.6139 30.8474L50.6139 26.9915L46.7205 26.9915L46.7205 30.8474L50.6139 30.8474Z" fill="#D6D1D6"/>
<path d="M54.5074 30.8474L54.5074 26.9915L50.6141 26.9915L50.6141 30.8474L54.5074 30.8474Z" fill="#D6D1D6"/>
<path d="M58.4005 30.8474L58.4005 26.9915L54.5071 26.9915L54.5071 30.8474L58.4005 30.8474Z" fill="#999599"/>
<path d="M62.2941 30.8474L62.2941 26.9915L58.4007 26.9915L58.4007 30.8474L62.2941 30.8474Z" fill="#999599"/>
<path d="M66.1875 30.8474L66.1875 26.9915L62.2941 26.9915L62.2941 30.8474L66.1875 30.8474Z" fill="#FAF9F9"/>
<path d="M70.0807 30.8474L70.0807 26.9915L66.1873 26.9915L66.1873 30.8474L70.0807 30.8474Z" fill="#FAF9F9"/>
<path d="M73.9741 30.8474L73.9741 26.9915L70.0807 26.9915L70.0807 30.8474L73.9741 30.8474Z" fill="#666366"/>
<path d="M77.8677 30.8474L77.8677 26.9915L73.9743 26.9915L73.9743 30.8474L77.8677 30.8474Z" fill="#EDECEC"/>
<path d="M81.7609 30.8474L81.7609 26.9915L77.8675 26.9915L77.8675 30.8474L81.7609 30.8474Z" fill="#A1A0A0"/>
<path d="M11.6802 26.9729L11.6802 23.1169L7.7868 23.1169L7.78679 26.9729L11.6802 26.9729Z" fill="#EDECEC"/>
<path d="M15.5736 26.9729L15.5736 23.1169L11.6802 23.1169L11.6802 26.9729L15.5736 26.9729Z" fill="#EDECEC"/>
<path d="M19.4667 26.9729L19.4667 23.1169L15.5733 23.1169L15.5733 26.9729L19.4667 26.9729Z" fill="#EDECEC"/>
<path d="M23.3602 26.9729L23.3602 23.1169L19.4668 23.1169L19.4668 26.9729L23.3602 26.9729Z" fill="#EDECEC"/>
<path d="M27.2538 26.9729L27.2538 23.1169L23.3604 23.1169L23.3604 26.9729L27.2538 26.9729Z" fill="#C4C4C4"/>
<path d="M31.1469 26.9729L31.1469 23.1169L27.2535 23.1169L27.2535 26.9729L31.1469 26.9729Z" fill="#EDECEC"/>
<path d="M35.0403 26.9729L35.0403 23.1169L31.1469 23.1169L31.1469 26.9729L35.0403 26.9729Z" fill="#EDECEC"/>
<path d="M38.9338 26.9729L38.9338 23.1169L35.0405 23.1169L35.0405 26.9729L38.9338 26.9729Z" fill="#EDECEC"/>
<path d="M42.8274 26.9729L42.8274 23.1169L38.934 23.1169L38.934 26.9729L42.8274 26.9729Z" fill="#666366"/>
<path d="M46.7205 26.9729L46.7205 23.1169L42.8271 23.1169L42.8271 26.9729L46.7205 26.9729Z" fill="#666366"/>
<path d="M50.6139 26.9729L50.6139 23.1169L46.7205 23.1169L46.7205 26.9729L50.6139 26.9729Z" fill="#666366"/>
<path d="M54.5074 26.9729L54.5074 23.1169L50.6141 23.1169L50.6141 26.9729L54.5074 26.9729Z" fill="#666366"/>
<path d="M58.4005 26.9729L58.4005 23.1169L54.5071 23.1169L54.5071 26.9729L58.4005 26.9729Z" fill="#666366"/>
<path d="M62.2941 26.9729L62.2941 23.1169L58.4007 23.1169L58.4007 26.9729L62.2941 26.9729Z" fill="#EDECEC"/>
<path d="M66.1875 26.9729L66.1875 23.1169L62.2941 23.1169L62.2941 26.9729L66.1875 26.9729Z" fill="#C4C4C4"/>
<path d="M70.0807 26.9729L70.0807 23.1169L66.1873 23.1169L66.1873 26.9729L70.0807 26.9729Z" fill="#C4C4C4"/>
<path d="M15.5736 23.1357L15.5736 19.2798L11.6802 19.2798L11.6802 23.1357L15.5736 23.1357Z" fill="#EDECEC"/>
<path d="M19.4667 23.1357L19.4667 19.2798L15.5733 19.2798L15.5733 23.1357L19.4667 23.1357Z" fill="#999599"/>
<path d="M23.3602 23.1357L23.3602 19.2798L19.4668 19.2798L19.4668 23.1357L23.3602 23.1357Z" fill="#999599"/>
<path d="M27.2538 23.1357L27.2538 19.2798L23.3604 19.2798L23.3604 23.1357L27.2538 23.1357Z" fill="#666366"/>
<path d="M31.1469 23.1357L31.1469 19.2798L27.2535 19.2798L27.2535 23.1357L31.1469 23.1357Z" fill="#EB7D73"/>
<path d="M35.0403 23.1357L35.0403 19.2798L31.1469 19.2798L31.1469 23.1357L35.0403 23.1357Z" fill="#C93427"/>
<path d="M38.9338 23.1357L38.9338 19.2798L35.0405 19.2798L35.0405 23.1357L38.9338 23.1357Z" fill="#EB7D73"/>
<path d="M42.8274 23.1357L42.8274 19.2798L38.934 19.2798L38.934 23.1357L42.8274 23.1357Z" fill="#EB7D73"/>
<path d="M46.7205 23.1357L46.7205 19.2798L42.8271 19.2798L42.8271 23.1357L46.7205 23.1357Z" fill="#EDECEC"/>
<path d="M50.6139 23.1357L50.6139 19.2798L46.7205 19.2798L46.7205 23.1357L50.6139 23.1357Z" fill="#EDECEC"/>
<path d="M54.5074 23.1357L54.5074 19.2798L50.6141 19.2798L50.6141 23.1357L54.5074 23.1357Z" fill="#EDECEC"/>
<path d="M58.4005 23.1357L58.4005 19.2798L54.5071 19.2798L54.5071 23.1357L58.4005 23.1357Z" fill="#C4C4C4"/>
<path d="M19.4667 19.2798L19.4667 15.4238L15.5733 15.4238L15.5733 19.2798L19.4667 19.2798Z" fill="#FAF9F9"/>
<path d="M23.3602 19.2798L23.3602 15.4238L19.4668 15.4238L19.4668 19.2798L23.3602 19.2798Z" fill="#FAF9F9"/>
<path d="M27.2538 19.2798L27.2538 15.4238L23.3604 15.4238L23.3604 19.2798L27.2538 19.2798Z" fill="#FAF9F9"/>
<path d="M31.1469 19.2798L31.1469 15.4238L27.2535 15.4238L27.2535 19.2798L31.1469 19.2798Z" fill="#999599"/>
<path d="M35.0403 19.2798L35.0403 15.4238L31.1469 15.4238L31.1469 19.2798L35.0403 19.2798Z" fill="#FAF9F9"/>
<path d="M38.9338 19.2798L38.9338 15.4238L35.0405 15.4238L35.0405 19.2798L38.9338 19.2798Z" fill="#F5F4F4"/>
<path d="M42.8274 19.2798L42.8274 15.4238L38.934 15.4238L38.934 19.2798L42.8274 19.2798Z" fill="#F5F4F4"/>
<path d="M46.7205 19.2798L46.7205 15.4238L42.8271 15.4238L42.8271 19.2798L46.7205 19.2798Z" fill="#C4C4C4"/>
<path d="M50.6139 19.2798L50.6139 15.4238L46.7205 15.4238L46.7205 19.2798L50.6139 19.2798Z" fill="#C4C4C4"/>
<path d="M23.3602 15.4238L23.3602 11.5679L19.4668 11.5679L19.4668 15.4238L23.3602 15.4238Z" fill="#EDECEC"/>
<path d="M27.2538 15.4238L27.2538 11.5679L23.3604 11.5679L23.3604 15.4238L27.2538 15.4238Z" fill="#EDECEC"/>
<path d="M31.1469 15.4238L31.1469 11.5679L27.2535 11.5679L27.2535 15.4238L31.1469 15.4238Z" fill="#EDECEC"/>
<path d="M35.0403 15.4238L35.0403 11.5679L31.1469 11.5679L31.1469 15.4238L35.0403 15.4238Z" fill="#999599"/>
<path d="M38.9338 15.4238L38.9338 11.5679L35.0405 11.5679L35.0405 15.4238L38.9338 15.4238Z" fill="#C4C4C4"/>
<path d="M23.3602 11.5681L23.3602 7.71216L19.4668 7.71216L19.4668 11.5681L23.3602 11.5681Z" fill="#EDECEC"/>
<path d="M27.2538 11.5681L27.2538 7.71216L23.3604 7.71216L23.3604 11.5681L27.2538 11.5681Z" fill="#EDECEC"/>
<path d="M31.1467 11.5681L31.1467 7.71216L27.2533 7.71216L27.2533 11.5681L31.1467 11.5681Z" fill="#F5F4F4"/>
<path d="M35.0403 11.5681L35.0403 7.71216L31.1469 7.71216L31.1469 11.5681L35.0403 11.5681Z" fill="#C4C4C4"/>
<path d="M23.3602 7.71189L23.3602 3.85596L19.4668 3.85596L19.4668 7.71189L23.3602 7.71189Z" fill="#EDECEC"/>
<path d="M27.2538 7.71189L27.2538 3.85596L23.3604 3.85596L23.3604 7.71189L27.2538 7.71189Z" fill="#F5F4F4"/>
<path d="M31.1467 7.71189L31.1467 3.85596L27.2533 3.85596L27.2533 7.71189L31.1467 7.71189Z" fill="#C4C4C4"/>
<path d="M23.3602 3.85599L23.3602 0L19.4668 -1.70185e-07L19.4668 3.85599L23.3602 3.85599Z" fill="#F5F4F4"/>
<path d="M27.2538 3.85599L27.2538 0L23.3604 -1.70185e-07L23.3604 3.85599L27.2538 3.85599Z" fill="#C4C4C4"/>
</svg>
