<svg width="132" height="9" viewBox="0 0 132 9" fill="none" xmlns="http://www.w3.org/2000/svg">
<rect x="12" width="60" height="3" fill="#FFF200"/>
<rect x="120" y="9" width="48" height="3" transform="rotate(-180 120 9)" fill="#FFF200"/>
<rect x="102" y="3" width="13" height="3" transform="rotate(-180 102 3)" fill="#FFF200"/>
<rect width="12" height="3" fill="#FFF200"/>
<rect y="6" width="12" height="3" fill="#FFF200"/>
<rect x="12" y="3" width="60" height="3" fill="white"/>
<rect x="132" y="6" width="60" height="3" transform="rotate(-180 132 6)" fill="white"/>
<rect x="12" y="6" width="60" height="3" fill="#F68A00"/>
<rect x="132" y="3" width="30" height="3" transform="rotate(-180 132 3)" fill="#F68A00"/>
<rect x="89" y="3" width="17" height="3" transform="rotate(-180 89 3)" fill="#F68A00"/>
<rect x="132" y="9" width="12" height="3" transform="rotate(-180 132 9)" fill="#F68A00"/>
<rect x="30" y="3" width="12" height="3" fill="#FFF200"/>
<rect x="114" y="6" width="12" height="3" transform="rotate(-180 114 6)" fill="#FFF200"/>
<rect x="55" y="3" width="12" height="3" fill="#FFF200"/>
</svg>
