<svg width="32" height="32" viewBox="0 0 32 32" fill="none" xmlns="http://www.w3.org/2000/svg">
<path d="M6.00043 0H4V2.00043H6.00043V0Z" fill="black"/>
<path d="M7.99982 0H5.99939V2.00043H7.99982V0Z" fill="black"/>
<path d="M9.99994 0H7.99951V2.00043H9.99994V0Z" fill="black"/>
<path d="M11.9998 0H9.99939V2.00043H11.9998V0Z" fill="black"/>
<path d="M13.9999 0H11.9995V2.00043H13.9999V0Z" fill="black"/>
<path d="M16.0004 0H14V2.00043H16.0004V0Z" fill="black"/>
<path d="M17.9999 0H15.9995V2.00043H17.9999V0Z" fill="black"/>
<path d="M20.0004 0H18V2.00043H20.0004V0Z" fill="black"/>
<path d="M21.9999 0H19.9995V2.00043H21.9999V0Z" fill="black"/>
<path d="M23.9999 0H21.9995V2.00043H23.9999V0Z" fill="black"/>
<path d="M25.9999 0H23.9995V2.00043H25.9999V0Z" fill="black"/>
<path d="M27.9999 0H25.9995V2.00043H27.9999V0Z" fill="black"/>
<path d="M3.99982 2H1.99939V4.00043H3.99982V2Z" fill="black"/>
<path d="M6.00043 2H4V4.00043H6.00043V2Z" fill="#FF2722"/>
<path d="M7.99982 2H5.99939V4.00043H7.99982V2Z" fill="#FF2722"/>
<path d="M9.99994 2H7.99951V4.00043H9.99994V2Z" fill="#FF2722"/>
<path d="M11.9998 2H9.99939V4.00043H11.9998V2Z" fill="#FF2722"/>
<path d="M13.9999 2H11.9995V4.00043H13.9999V2Z" fill="#FF2722"/>
<path d="M16.0004 2H14V4.00043H16.0004V2Z" fill="#FF2722"/>
<path d="M17.9999 2H15.9995V4.00043H17.9999V2Z" fill="#FF2722"/>
<path d="M20.0004 2H18V4.00043H20.0004V2Z" fill="#FF2722"/>
<path d="M21.9999 2H19.9995V4.00043H21.9999V2Z" fill="#FF2722"/>
<path d="M23.9999 2H21.9995V4.00043H23.9999V2Z" fill="#FF2722"/>
<path d="M25.9999 2H23.9995V4.00043H25.9999V2Z" fill="#FF2722"/>
<path d="M27.9999 2H25.9995V4.00043H27.9999V2Z" fill="#FF2722"/>
<path d="M29.9996 2H27.9991V4.00043H29.9996V2Z" fill="black"/>
<path d="M2.00043 4H0V6.00043H2.00043V4Z" fill="black"/>
<path d="M3.99982 4H1.99939V6.00043H3.99982V4Z" fill="#FF2722"/>
<path d="M6.00043 4H4V6.00043H6.00043V4Z" fill="#FF2722"/>
<path d="M7.99982 4H5.99939V6.00043H7.99982V4Z" fill="#FF2722"/>
<path d="M9.99994 4H7.99951V6.00043H9.99994V4Z" fill="#FF2722"/>
<path d="M11.9998 4H9.99939V6.00043H11.9998V4Z" fill="#FF2722"/>
<path d="M13.9999 4H11.9995V6.00043H13.9999V4Z" fill="#FF2722"/>
<path d="M16.0004 4H14V6.00043H16.0004V4Z" fill="#FF2722"/>
<path d="M17.9999 4H15.9995V6.00043H17.9999V4Z" fill="#FF2722"/>
<path d="M20.0004 4H18V6.00043H20.0004V4Z" fill="#FF2722"/>
<path d="M21.9999 4H19.9995V6.00043H21.9999V4Z" fill="#FF2722"/>
<path d="M23.9999 4H21.9995V6.00043H23.9999V4Z" fill="#FF2722"/>
<path d="M25.9999 4H23.9995V6.00043H25.9999V4Z" fill="#FF2722"/>
<path d="M27.9999 4H25.9995V6.00043H27.9999V4Z" fill="#FF2722"/>
<path d="M29.9996 4H27.9991V6.00043H29.9996V4Z" fill="#FF2722"/>
<path d="M31.9999 4H29.9995V6.00043H31.9999V4Z" fill="black"/>
<path d="M2.00043 6H0V8.00043H2.00043V6Z" fill="black"/>
<path d="M3.99982 6H1.99939V8.00043H3.99982V6Z" fill="#FF2722"/>
<path d="M6.00043 6H4V8.00043H6.00043V6Z" fill="#FF2722"/>
<path d="M7.99982 6H5.99939V8.00043H7.99982V6Z" fill="#FF2722"/>
<path d="M9.99994 6H7.99951V8.00043H9.99994V6Z" fill="#FF2722"/>
<path d="M11.9998 6H9.99939V8.00043H11.9998V6Z" fill="#FF2722"/>
<path d="M13.9999 6H11.9995V8.00043H13.9999V6Z" fill="#FF2722"/>
<path d="M16.0004 6H14V8.00043H16.0004V6Z" fill="#FF2722"/>
<path d="M17.9999 6H15.9995V8.00043H17.9999V6Z" fill="#FF2722"/>
<path d="M20.0004 6H18V8.00043H20.0004V6Z" fill="#FF2722"/>
<path d="M21.9999 6H19.9995V8.00043H21.9999V6Z" fill="#FF2722"/>
<path d="M23.9999 6H21.9995V8.00043H23.9999V6Z" fill="#FF2722"/>
<path d="M25.9999 6H23.9995V8.00043H25.9999V6Z" fill="#FF2722"/>
<path d="M27.9999 6H25.9995V8.00043H27.9999V6Z" fill="#FF2722"/>
<path d="M29.9996 6H27.9991V8.00043H29.9996V6Z" fill="#FF2722"/>
<path d="M31.9999 6H29.9995V8.00043H31.9999V6Z" fill="black"/>
<path d="M2.00043 8.00098H0V10.0014H2.00043V8.00098Z" fill="black"/>
<path d="M3.99982 8.00098H1.99939V10.0014H3.99982V8.00098Z" fill="#FF2722"/>
<path d="M6.00043 8.00098H4V10.0014H6.00043V8.00098Z" fill="#FF2722"/>
<path d="M7.99982 8.00098H5.99939V10.0014H7.99982V8.00098Z" fill="#FF2722"/>
<path d="M9.99994 8.00098H7.99951V10.0014H9.99994V8.00098Z" fill="#FF2722"/>
<path d="M11.9998 8.00098H9.99939V10.0014H11.9998V8.00098Z" fill="#FF2722"/>
<path d="M13.9999 8.00098H11.9995V10.0014H13.9999V8.00098Z" fill="#FF2722"/>
<path d="M16.0004 8.00098H14V10.0014H16.0004V8.00098Z" fill="#FF2722"/>
<path d="M17.9999 8.00098H15.9995V10.0014H17.9999V8.00098Z" fill="#FF2722"/>
<path d="M20.0004 8.00098H18V10.0014H20.0004V8.00098Z" fill="#FF2722"/>
<path d="M21.9999 8.00098H19.9995V10.0014H21.9999V8.00098Z" fill="#FF2722"/>
<path d="M23.9999 8.00098H21.9995V10.0014H23.9999V8.00098Z" fill="#FF2722"/>
<path d="M25.9999 8.00098H23.9995V10.0014H25.9999V8.00098Z" fill="#FF2722"/>
<path d="M27.9999 8.00098H25.9995V10.0014H27.9999V8.00098Z" fill="#FF2722"/>
<path d="M29.9996 8.00098H27.9991V10.0014H29.9996V8.00098Z" fill="#FF2722"/>
<path d="M31.9999 8.00098H29.9995V10.0014H31.9999V8.00098Z" fill="black"/>
<path d="M2.00043 10H0V12.0004H2.00043V10Z" fill="black"/>
<path d="M3.99982 10H1.99939V12.0004H3.99982V10Z" fill="#FF2722"/>
<path d="M6.00043 10H4V12.0004H6.00043V10Z" fill="#FF2722"/>
<path d="M7.99982 10H5.99939V12.0004H7.99982V10Z" fill="#FF2722"/>
<path d="M9.99994 10H7.99951V12.0004H9.99994V10Z" fill="#FF2722"/>
<path d="M11.9998 10H9.99939V12.0004H11.9998V10Z" fill="#FF2722"/>
<path d="M13.9999 10H11.9995V12.0004H13.9999V10Z" fill="#FF2722"/>
<path d="M16.0004 10H14V12.0004H16.0004V10Z" fill="#FF2722"/>
<path d="M17.9999 10H15.9995V12.0004H17.9999V10Z" fill="#FF2722"/>
<path d="M20.0004 10H18V12.0004H20.0004V10Z" fill="#FF2722"/>
<path d="M21.9999 10H19.9995V12.0004H21.9999V10Z" fill="#FF2722"/>
<path d="M23.9999 10H21.9995V12.0004H23.9999V10Z" fill="#FF2722"/>
<path d="M25.9999 10H23.9995V12.0004H25.9999V10Z" fill="#FF2722"/>
<path d="M27.9999 10H25.9995V12.0004H27.9999V10Z" fill="#FF2722"/>
<path d="M29.9996 10H27.9991V12.0004H29.9996V10Z" fill="#FF2722"/>
<path d="M31.9999 10H29.9995V12.0004H31.9999V10Z" fill="black"/>
<path d="M2.00043 12.001H0V14.0014H2.00043V12.001Z" fill="black"/>
<path d="M3.99982 12.001H1.99939V14.0014H3.99982V12.001Z" fill="#FF2722"/>
<path d="M6.00043 12.001H4V14.0014H6.00043V12.001Z" fill="#FF2722"/>
<path d="M7.99982 12.001H5.99939V14.0014H7.99982V12.001Z" fill="#FF2722"/>
<path d="M9.99994 12.001H7.99951V14.0014H9.99994V12.001Z" fill="#FF2722"/>
<path d="M11.9998 12.001H9.99939V14.0014H11.9998V12.001Z" fill="#FF2722"/>
<path d="M13.9999 12.001H11.9995V14.0014H13.9999V12.001Z" fill="#FF2722"/>
<path d="M16.0004 12.001H14V14.0014H16.0004V12.001Z" fill="#FF2722"/>
<path d="M17.9999 12.001H15.9995V14.0014H17.9999V12.001Z" fill="#FF2722"/>
<path d="M20.0004 12.001H18V14.0014H20.0004V12.001Z" fill="#FF2722"/>
<path d="M21.9999 12.001H19.9995V14.0014H21.9999V12.001Z" fill="#FF2722"/>
<path d="M23.9999 12.001H21.9995V14.0014H23.9999V12.001Z" fill="#FF2722"/>
<path d="M25.9999 12.001H23.9995V14.0014H25.9999V12.001Z" fill="#FF2722"/>
<path d="M27.9999 12.001H25.9995V14.0014H27.9999V12.001Z" fill="#FF2722"/>
<path d="M29.9996 12.001H27.9991V14.0014H29.9996V12.001Z" fill="#FF2722"/>
<path d="M31.9999 12.001H29.9995V14.0014H31.9999V12.001Z" fill="black"/>
<path d="M2.00043 14H0V16.0004H2.00043V14Z" fill="black"/>
<path d="M3.99982 14H1.99939V16.0004H3.99982V14Z" fill="#FF2722"/>
<path d="M6.00043 14H4V16.0004H6.00043V14Z" fill="#FF2722"/>
<path d="M7.99982 14H5.99939V16.0004H7.99982V14Z" fill="#FF2722"/>
<path d="M9.99994 14H7.99951V16.0004H9.99994V14Z" fill="#FF2722"/>
<path d="M11.9998 14H9.99939V16.0004H11.9998V14Z" fill="#FF2722"/>
<path d="M13.9999 14H11.9995V16.0004H13.9999V14Z" fill="#FF2722"/>
<path d="M16.0004 14H14V16.0004H16.0004V14Z" fill="#FF2722"/>
<path d="M17.9999 14H15.9995V16.0004H17.9999V14Z" fill="#FF2722"/>
<path d="M20.0004 14H18V16.0004H20.0004V14Z" fill="#FF2722"/>
<path d="M21.9999 14H19.9995V16.0004H21.9999V14Z" fill="#FF2722"/>
<path d="M23.9999 14H21.9995V16.0004H23.9999V14Z" fill="#FF2722"/>
<path d="M25.9999 14H23.9995V16.0004H25.9999V14Z" fill="#FF2722"/>
<path d="M27.9999 14H25.9995V16.0004H27.9999V14Z" fill="#FF2722"/>
<path d="M29.9996 14H27.9991V16.0004H29.9996V14Z" fill="#FF2722"/>
<path d="M31.9999 14H29.9995V16.0004H31.9999V14Z" fill="black"/>
<path d="M2.00043 16.001H0V18.0014H2.00043V16.001Z" fill="black"/>
<path d="M3.99982 16.001H1.99939V18.0014H3.99982V16.001Z" fill="#FF2722"/>
<path d="M6.00043 16.001H4V18.0014H6.00043V16.001Z" fill="#FF2722"/>
<path d="M7.99982 16.001H5.99939V18.0014H7.99982V16.001Z" fill="#FF2722"/>
<path d="M9.99994 16.001H7.99951V18.0014H9.99994V16.001Z" fill="#FF2722"/>
<path d="M11.9998 16.001H9.99939V18.0014H11.9998V16.001Z" fill="#FF2722"/>
<path d="M13.9999 16.001H11.9995V18.0014H13.9999V16.001Z" fill="#FF2722"/>
<path d="M16.0004 16.001H14V18.0014H16.0004V16.001Z" fill="#FF2722"/>
<path d="M17.9999 16.001H15.9995V18.0014H17.9999V16.001Z" fill="#FF2722"/>
<path d="M20.0004 16.001H18V18.0014H20.0004V16.001Z" fill="#FF2722"/>
<path d="M21.9999 16.001H19.9995V18.0014H21.9999V16.001Z" fill="#FF2722"/>
<path d="M23.9999 16.001H21.9995V18.0014H23.9999V16.001Z" fill="#FF2722"/>
<path d="M25.9999 16.001H23.9995V18.0014H25.9999V16.001Z" fill="#FF2722"/>
<path d="M27.9999 16.001H25.9995V18.0014H27.9999V16.001Z" fill="#FF2722"/>
<path d="M29.9996 16.001H27.9991V18.0014H29.9996V16.001Z" fill="#FF2722"/>
<path d="M31.9999 16.001H29.9995V18.0014H31.9999V16.001Z" fill="black"/>
<path d="M2.00043 18H0V20.0004H2.00043V18Z" fill="black"/>
<path d="M3.99982 18H1.99939V20.0004H3.99982V18Z" fill="#FF2722"/>
<path d="M6.00043 18H4V20.0004H6.00043V18Z" fill="#FF2722"/>
<path d="M7.99982 18H5.99939V20.0004H7.99982V18Z" fill="#FF2722"/>
<path d="M9.99994 18H7.99951V20.0004H9.99994V18Z" fill="#FF2722"/>
<path d="M11.9998 18H9.99939V20.0004H11.9998V18Z" fill="#FF2722"/>
<path d="M13.9999 18H11.9995V20.0004H13.9999V18Z" fill="#FF2722"/>
<path d="M16.0004 18H14V20.0004H16.0004V18Z" fill="#FF2722"/>
<path d="M17.9999 18H15.9995V20.0004H17.9999V18Z" fill="#FF2722"/>
<path d="M20.0004 18H18V20.0004H20.0004V18Z" fill="#FF2722"/>
<path d="M21.9999 18H19.9995V20.0004H21.9999V18Z" fill="#FF2722"/>
<path d="M23.9999 18H21.9995V20.0004H23.9999V18Z" fill="#FF2722"/>
<path d="M25.9999 18H23.9995V20.0004H25.9999V18Z" fill="#FF2722"/>
<path d="M27.9999 18H25.9995V20.0004H27.9999V18Z" fill="#FF2722"/>
<path d="M29.9996 18H27.9991V20.0004H29.9996V18Z" fill="#FF2722"/>
<path d="M31.9999 18H29.9995V20.0004H31.9999V18Z" fill="black"/>
<path d="M2.00043 20H0V22.0004H2.00043V20Z" fill="black"/>
<path d="M3.99982 20H1.99939V22.0004H3.99982V20Z" fill="#FF2722"/>
<path d="M6.00043 20H4V22.0004H6.00043V20Z" fill="#FF2722"/>
<path d="M7.99982 20H5.99939V22.0004H7.99982V20Z" fill="#FF2722"/>
<path d="M9.99994 20H7.99951V22.0004H9.99994V20Z" fill="#FF2722"/>
<path d="M11.9998 20H9.99939V22.0004H11.9998V20Z" fill="#FF2722"/>
<path d="M13.9999 20H11.9995V22.0004H13.9999V20Z" fill="#FF2722"/>
<path d="M16.0004 20H14V22.0004H16.0004V20Z" fill="#FF2722"/>
<path d="M17.9999 20H15.9995V22.0004H17.9999V20Z" fill="#FF2722"/>
<path d="M20.0004 20H18V22.0004H20.0004V20Z" fill="#FF2722"/>
<path d="M21.9999 20H19.9995V22.0004H21.9999V20Z" fill="#FF2722"/>
<path d="M23.9999 20H21.9995V22.0004H23.9999V20Z" fill="#FF2722"/>
<path d="M25.9999 20H23.9995V22.0004H25.9999V20Z" fill="#FF2722"/>
<path d="M27.9999 20H25.9995V22.0004H27.9999V20Z" fill="#FF2722"/>
<path d="M29.9996 20H27.9991V22.0004H29.9996V20Z" fill="#FF2722"/>
<path d="M31.9999 20H29.9995V22.0004H31.9999V20Z" fill="black"/>
<path d="M2.00043 22H0V24.0004H2.00043V22Z" fill="black"/>
<path d="M3.99982 22H1.99939V24.0004H3.99982V22Z" fill="#FF2722"/>
<path d="M6.00043 22H4V24.0004H6.00043V22Z" fill="#FF2722"/>
<path d="M7.99982 22H5.99939V24.0004H7.99982V22Z" fill="#FF2722"/>
<path d="M9.99994 22H7.99951V24.0004H9.99994V22Z" fill="#FF2722"/>
<path d="M11.9998 22H9.99939V24.0004H11.9998V22Z" fill="#FF2722"/>
<path d="M13.9999 22H11.9995V24.0004H13.9999V22Z" fill="#FF2722"/>
<path d="M16.0004 22H14V24.0004H16.0004V22Z" fill="#FF2722"/>
<path d="M17.9999 22H15.9995V24.0004H17.9999V22Z" fill="#FF2722"/>
<path d="M20.0004 22H18V24.0004H20.0004V22Z" fill="#FF2722"/>
<path d="M21.9999 22H19.9995V24.0004H21.9999V22Z" fill="#FF2722"/>
<path d="M23.9999 22H21.9995V24.0004H23.9999V22Z" fill="#FF2722"/>
<path d="M25.9999 22H23.9995V24.0004H25.9999V22Z" fill="#FF2722"/>
<path d="M27.9999 22H25.9995V24.0004H27.9999V22Z" fill="#FF2722"/>
<path d="M29.9996 22H27.9991V24.0004H29.9996V22Z" fill="#FF2722"/>
<path d="M31.9999 22H29.9995V24.0004H31.9999V22Z" fill="black"/>
<path d="M2.00043 24H0V26.0004H2.00043V24Z" fill="black"/>
<path d="M3.99982 24H1.99939V26.0004H3.99982V24Z" fill="#FF2722"/>
<path d="M6.00043 24H4V26.0004H6.00043V24Z" fill="#FF2722"/>
<path d="M7.99982 24H5.99939V26.0004H7.99982V24Z" fill="#FF2722"/>
<path d="M9.99994 24H7.99951V26.0004H9.99994V24Z" fill="#FF2722"/>
<path d="M11.9998 24H9.99939V26.0004H11.9998V24Z" fill="#FF2722"/>
<path d="M13.9999 24H11.9995V26.0004H13.9999V24Z" fill="#FF2722"/>
<path d="M16.0004 24H14V26.0004H16.0004V24Z" fill="#FF2722"/>
<path d="M17.9999 24H15.9995V26.0004H17.9999V24Z" fill="#FF2722"/>
<path d="M20.0004 24H18V26.0004H20.0004V24Z" fill="#FF2722"/>
<path d="M21.9999 24H19.9995V26.0004H21.9999V24Z" fill="#FF2722"/>
<path d="M23.9999 24H21.9995V26.0004H23.9999V24Z" fill="#FF2722"/>
<path d="M25.9999 24H23.9995V26.0004H25.9999V24Z" fill="#FF2722"/>
<path d="M27.9999 24H25.9995V26.0004H27.9999V24Z" fill="#FF2722"/>
<path d="M29.9996 24H27.9991V26.0004H29.9996V24Z" fill="#FF2722"/>
<path d="M31.9999 24H29.9995V26.0004H31.9999V24Z" fill="black"/>
<path d="M2.00043 26H0V28.0004H2.00043V26Z" fill="black"/>
<path d="M3.99982 26H1.99939V28.0004H3.99982V26Z" fill="#FF2722"/>
<path d="M6.00043 26H4V28.0004H6.00043V26Z" fill="#FF2722"/>
<path d="M7.99982 26H5.99939V28.0004H7.99982V26Z" fill="#FF2722"/>
<path d="M9.99994 26H7.99951V28.0004H9.99994V26Z" fill="#FF2722"/>
<path d="M11.9998 26H9.99939V28.0004H11.9998V26Z" fill="#FF2722"/>
<path d="M13.9999 26H11.9995V28.0004H13.9999V26Z" fill="#FF2722"/>
<path d="M16.0004 26H14V28.0004H16.0004V26Z" fill="#FF2722"/>
<path d="M17.9999 26H15.9995V28.0004H17.9999V26Z" fill="#FF2722"/>
<path d="M20.0004 26H18V28.0004H20.0004V26Z" fill="#FF2722"/>
<path d="M21.9999 26H19.9995V28.0004H21.9999V26Z" fill="#FF2722"/>
<path d="M23.9999 26H21.9995V28.0004H23.9999V26Z" fill="#FF2722"/>
<path d="M25.9999 26H23.9995V28.0004H25.9999V26Z" fill="#FF2722"/>
<path d="M27.9999 26H25.9995V28.0004H27.9999V26Z" fill="#FF2722"/>
<path d="M29.9996 26H27.9991V28.0004H29.9996V26Z" fill="#FF2722"/>
<path d="M31.9999 26H29.9995V28.0004H31.9999V26Z" fill="black"/>
<path d="M3.99982 28H1.99939V30.0004H3.99982V28Z" fill="black"/>
<path d="M6.00043 28H4V30.0004H6.00043V28Z" fill="#FF2722"/>
<path d="M7.99982 28H5.99939V30.0004H7.99982V28Z" fill="#FF2722"/>
<path d="M9.99994 28H7.99951V30.0004H9.99994V28Z" fill="#FF2722"/>
<path d="M11.9998 28H9.99939V30.0004H11.9998V28Z" fill="#FF2722"/>
<path d="M13.9999 28H11.9995V30.0004H13.9999V28Z" fill="#FF2722"/>
<path d="M16.0004 28H14V30.0004H16.0004V28Z" fill="#FF2722"/>
<path d="M17.9999 28H15.9995V30.0004H17.9999V28Z" fill="#FF2722"/>
<path d="M20.0004 28H18V30.0004H20.0004V28Z" fill="#FF2722"/>
<path d="M21.9999 28H19.9995V30.0004H21.9999V28Z" fill="#FF2722"/>
<path d="M23.9999 28H21.9995V30.0004H23.9999V28Z" fill="#FF2722"/>
<path d="M25.9999 28H23.9995V30.0004H25.9999V28Z" fill="#FF2722"/>
<path d="M27.9999 28H25.9995V30.0004H27.9999V28Z" fill="#FF2722"/>
<path d="M29.9996 28H27.9991V30.0004H29.9996V28Z" fill="black"/>
<path d="M6.00043 30H4V32.0004H6.00043V30Z" fill="black"/>
<path d="M7.99982 30H5.99939V32.0004H7.99982V30Z" fill="black"/>
<path d="M9.99994 30H7.99951V32.0004H9.99994V30Z" fill="black"/>
<path d="M11.9998 30H9.99939V32.0004H11.9998V30Z" fill="black"/>
<path d="M13.9999 30H11.9995V32.0004H13.9999V30Z" fill="black"/>
<path d="M16.0004 30H14V32.0004H16.0004V30Z" fill="black"/>
<path d="M17.9999 30H15.9995V32.0004H17.9999V30Z" fill="black"/>
<path d="M20.0004 30H18V32.0004H20.0004V30Z" fill="black"/>
<path d="M21.9999 30H19.9995V32.0004H21.9999V30Z" fill="black"/>
<path d="M23.9999 30H21.9995V32.0004H23.9999V30Z" fill="black"/>
<path d="M25.9999 30H23.9995V32.0004H25.9999V30Z" fill="black"/>
<path d="M27.9999 30H25.9995V32.0004H27.9999V30Z" fill="black"/>
<rect x="10" y="10" width="12" height="15" fill="#FF2722"/>
<path d="M10 8H22V10H10V8Z" fill="white"/>
<path d="M18 6H20V12H18V6Z" fill="white"/>
<path d="M10 25H22V27H10V25Z" fill="white"/>
<path d="M8 10H10V25H8V10Z" fill="white"/>
<path d="M22 10H24V25H22V10Z" fill="white"/>
<path d="M14 4H16V6H14V4Z" fill="white"/>
<path d="M12 6H14V12H12V6Z" fill="white"/>
<path d="M16 4H18V6H16V4Z" fill="white"/>
</svg>
