<svg width="100" height="64" viewBox="0 0 100 64" fill="none" xmlns="http://www.w3.org/2000/svg">
<path d="M100 41.1494H95.4546V45.6512H100V41.1494Z" fill="#121E6B"/>
<path d="M100 36.6475H95.4546V41.1492H100V36.6475Z" fill="#17278C"/>
<path d="M100 32.1455H95.4546V36.6472H100V32.1455Z" fill="#17278C"/>
<path d="M100 27.6445H95.4546V32.1463H100V27.6445Z" fill="#2640E6"/>
<path d="M100 23.1426H95.4546V27.6443H100V23.1426Z" fill="#334FFF"/>
<path d="M100 18.6416H95.4546V23.1433H100V18.6416Z" fill="#334FFF"/>
<path d="M90.9284 14.1438L90.9229 18.6455L95.4683 18.6511L95.4738 14.1493L90.9284 14.1438Z" fill="#2843F0"/>
<path d="M95.4544 45.6514H90.9089V50.1531H95.4544V45.6514Z" fill="#121E6B"/>
<path d="M95.4544 41.1494H90.9089V45.6512H95.4544V41.1494Z" fill="#17278C"/>
<path d="M95.4544 36.6475H90.9089V41.1492H95.4544V36.6475Z" fill="#17278C"/>
<path d="M95.4544 32.1455H90.9089V36.6472H95.4544V32.1455Z" fill="#2843F0"/>
<path d="M95.4544 27.6445H90.9089V32.1463H95.4544V27.6445Z" fill="#2640E6"/>
<path d="M95.4544 23.1426H90.9089V27.6443H95.4544V23.1426Z" fill="#334FFF"/>
<path d="M95.4544 18.6416H90.9089V23.1433H95.4544V18.6416Z" fill="#334FFF"/>
<path d="M90.9092 50.1533H86.3638V54.6551H90.9092V50.1533Z" fill="#121E6B"/>
<path d="M90.9092 45.6514H86.3638V50.1531H90.9092V45.6514Z" fill="#17278C"/>
<path d="M90.9092 41.1494H86.3638V45.6512H90.9092V41.1494Z" fill="#17278C"/>
<path d="M90.9092 36.6475H86.3638V41.1492H90.9092V36.6475Z" fill="#2843F0"/>
<path d="M90.9092 32.1455H86.3638V36.6472H90.9092V32.1455Z" fill="#2843F0"/>
<path d="M90.9092 27.6445H86.3638V32.1463H90.9092V27.6445Z" fill="#2640E6"/>
<path d="M90.9092 23.1426H86.3638V27.6443H90.9092V23.1426Z" fill="#334FFF"/>
<path d="M90.9092 18.6416H86.3638V23.1433H90.9092V18.6416Z" fill="#334FFF"/>
<path d="M90.9092 14.1396H86.3638V18.6414H90.9092V14.1396Z" fill="#2843F0"/>
<path d="M90.9092 9.6377H86.3638V14.1394H90.9092V9.6377Z" fill="#2843F0"/>
<path d="M86.3633 54.6543H81.8179V59.1561H86.3633V54.6543Z" fill="#121E6B"/>
<path d="M86.3633 50.1533H81.8179V54.6551H86.3633V50.1533Z" fill="#121E6B"/>
<path d="M86.3633 45.6514H81.8179V50.1531H86.3633V45.6514Z" fill="#17278C"/>
<path d="M86.3633 41.1494H81.8179V45.6512H86.3633V41.1494Z" fill="#2843F0"/>
<path d="M86.3633 36.6475H81.8179V41.1492H86.3633V36.6475Z" fill="#2843F0"/>
<path d="M86.3633 32.1455H81.8179V36.6472H86.3633V32.1455Z" fill="#2843F0"/>
<path d="M86.3633 27.6445H81.8179V32.1463H86.3633V27.6445Z" fill="#2640E6"/>
<path d="M86.3633 23.1426H81.8179V27.6443H86.3633V23.1426Z" fill="#334FFF"/>
<path d="M86.3633 18.6416H81.8179V23.1433H86.3633V18.6416Z" fill="#334FFF"/>
<path d="M86.3633 14.1396H81.8179V18.6414H86.3633V14.1396Z" fill="#2843F0"/>
<path d="M86.3633 9.6377H81.8179V14.1394H86.3633V9.6377Z" fill="#2843F0"/>
<path d="M86.3633 5.13574H81.8179V9.63748H86.3633V5.13574Z" fill="#2843F0"/>
<path d="M81.8179 59.1562H77.2725V63.658H81.8179V59.1562Z" fill="#121E6B"/>
<path d="M81.8179 54.6543H77.2725V59.1561H81.8179V54.6543Z" fill="#17278C"/>
<path d="M81.8179 50.1533H77.2725V54.6551H81.8179V50.1533Z" fill="#1A2B9C"/>
<path d="M81.8179 45.6514H77.2725V50.1531H81.8179V45.6514Z" fill="#2640E6"/>
<path d="M81.8179 41.1494H77.2725V45.6512H81.8179V41.1494Z" fill="#2843F0"/>
<path d="M81.8179 36.6475H77.2725V41.1492H81.8179V36.6475Z" fill="#2843F0"/>
<path d="M81.8179 32.1455H77.2725V36.6472H81.8179V32.1455Z" fill="#2843F0"/>
<path d="M81.8179 27.6445H77.2725V32.1463H81.8179V27.6445Z" fill="#2640E6"/>
<path d="M81.8179 23.1426H77.2725V27.6443H81.8179V23.1426Z" fill="#334FFF"/>
<path d="M81.8179 18.6416H77.2725V23.1433H81.8179V18.6416Z" fill="#334FFF"/>
<path d="M81.8179 14.1396H77.2725V18.6414H81.8179V14.1396Z" fill="#2843F0"/>
<path d="M81.8179 9.6377H77.2725V14.1394H81.8179V9.6377Z" fill="#2843F0"/>
<path d="M81.8179 5.13574H77.2725V9.63748H81.8179V5.13574Z" fill="#2843F0"/>
<path d="M81.8179 0.633789H77.2725V5.13553H81.8179V0.633789Z" fill="#556BFF"/>
<path d="M77.2727 59.1562H72.7273V63.658H77.2727V59.1562Z" fill="#121E6B"/>
<path d="M77.2727 54.6543H72.7273V59.1561H77.2727V54.6543Z" fill="#121E6B"/>
<path d="M77.2727 50.1533H72.7273V54.6551H77.2727V50.1533Z" fill="#17278C"/>
<path d="M77.2727 45.6514H72.7273V50.1531H77.2727V45.6514Z" fill="#334FFF"/>
<path d="M77.2727 41.1494H72.7273V45.6512H77.2727V41.1494Z" fill="#2843F0"/>
<path d="M77.2727 36.6475H72.7273V41.1492H77.2727V36.6475Z" fill="#2843F0"/>
<path d="M77.2727 32.1455H72.7273V36.6472H77.2727V32.1455Z" fill="#2843F0"/>
<path d="M77.2727 27.6445H72.7273V32.1463H77.2727V27.6445Z" fill="#2640E6"/>
<path d="M77.2727 23.1426H72.7273V27.6443H77.2727V23.1426Z" fill="#334FFF"/>
<path d="M77.2727 18.6416H72.7273V23.1433H77.2727V18.6416Z" fill="#334FFF"/>
<path d="M77.2727 14.1396H72.7273V18.6414H77.2727V14.1396Z" fill="#2843F0"/>
<path d="M77.2727 9.6377H72.7273V14.1394H77.2727V9.6377Z" fill="#2843F0"/>
<path d="M77.2727 5.13574H72.7273V9.63748H77.2727V5.13574Z" fill="#2843F0"/>
<path d="M77.2727 0.633789H72.7273V5.13553H77.2727V0.633789Z" fill="#556BFF"/>
<path d="M72.7271 59.1562H68.1816V63.658H72.7271V59.1562Z" fill="#121E6B"/>
<path d="M72.7271 54.6543H68.1816V59.1561H72.7271V54.6543Z" fill="#17278C"/>
<path d="M72.7271 50.1533H68.1816V54.6551H72.7271V50.1533Z" fill="#1A2B9C"/>
<path d="M72.7271 45.6514H68.1816V50.1531H72.7271V45.6514Z" fill="#2640E6"/>
<path d="M72.7271 41.1494H68.1816V45.6512H72.7271V41.1494Z" fill="#2843F0"/>
<path d="M72.7271 36.6475H68.1816V41.1492H72.7271V36.6475Z" fill="#2843F0"/>
<path d="M72.7271 32.1455H68.1816V36.6472H72.7271V32.1455Z" fill="#2843F0"/>
<path d="M72.7271 27.6445H68.1816V32.1463H72.7271V27.6445Z" fill="#2640E6"/>
<path d="M72.7271 23.1426H68.1816V27.6443H72.7271V23.1426Z" fill="#334FFF"/>
<path d="M72.7271 18.6416H68.1816V23.1433H72.7271V18.6416Z" fill="#334FFF"/>
<path d="M72.7271 14.1396H68.1816V18.6414H72.7271V14.1396Z" fill="#2843F0"/>
<path d="M72.7271 9.6377H68.1816V14.1394H72.7271V9.6377Z" fill="#2843F0"/>
<path d="M72.7271 5.13574H68.1816V9.63748H72.7271V5.13574Z" fill="#2843F0"/>
<path d="M72.7271 0.633789H68.1816V5.13553H72.7271V0.633789Z" fill="#556BFF"/>
<path d="M68.1817 59.1562H63.6362V63.658H68.1817V59.1562Z" fill="#121E6B"/>
<path d="M68.1817 54.6543H63.6362V59.1561H68.1817V54.6543Z" fill="#121E6B"/>
<path d="M68.1817 50.1533H63.6362V54.6551H68.1817V50.1533Z" fill="#17278C"/>
<path d="M68.1817 45.6514H63.6362V50.1531H68.1817V45.6514Z" fill="#334FFF"/>
<path d="M68.1817 41.1494H63.6362V45.6512H68.1817V41.1494Z" fill="#2843F0"/>
<path d="M68.1817 36.6475H63.6362V41.1492H68.1817V36.6475Z" fill="#2843F0"/>
<path d="M68.1817 32.1455H63.6362V36.6472H68.1817V32.1455Z" fill="#2843F0"/>
<path d="M68.1817 27.6445H63.6362V32.1463H68.1817V27.6445Z" fill="#2640E6"/>
<path d="M68.1817 23.1426H63.6362V27.6443H68.1817V23.1426Z" fill="#334FFF"/>
<path d="M68.1817 18.6416H63.6362V23.1433H68.1817V18.6416Z" fill="#334FFF"/>
<path d="M68.1817 14.1396H63.6362V18.6414H68.1817V14.1396Z" fill="#2843F0"/>
<path d="M68.1817 9.6377H63.6362V14.1394H68.1817V9.6377Z" fill="#2843F0"/>
<path d="M68.1817 5.13574H63.6362V9.63748H68.1817V5.13574Z" fill="#2843F0"/>
<path d="M68.1817 0.633789H63.6362V5.13553H68.1817V0.633789Z" fill="#556BFF"/>
<path d="M63.6363 59.1562H59.0908V63.658H63.6363V59.1562Z" fill="#121E6B"/>
<path d="M63.6363 54.6543H59.0908V59.1561H63.6363V54.6543Z" fill="#17278C"/>
<path d="M63.6363 50.1533H59.0908V54.6551H63.6363V50.1533Z" fill="#1A2B9C"/>
<path d="M63.6363 45.6514H59.0908V50.1531H63.6363V45.6514Z" fill="#334FFF"/>
<path d="M63.6363 41.1494H59.0908V45.6512H63.6363V41.1494Z" fill="#2843F0"/>
<path d="M63.6363 36.6475H59.0908V41.1492H63.6363V36.6475Z" fill="#2843F0"/>
<path d="M63.6363 32.1455H59.0908V36.6472H63.6363V32.1455Z" fill="#2843F0"/>
<path d="M63.6363 27.6445H59.0908V32.1463H63.6363V27.6445Z" fill="#2640E6"/>
<path d="M63.6363 23.1426H59.0908V27.6443H63.6363V23.1426Z" fill="#334FFF"/>
<path d="M63.6363 18.6416H59.0908V23.1433H63.6363V18.6416Z" fill="#334FFF"/>
<path d="M63.6363 14.1396H59.0908V18.6414H63.6363V14.1396Z" fill="#2843F0"/>
<path d="M63.6363 9.6377H59.0908V14.1394H63.6363V9.6377Z" fill="#2843F0"/>
<path d="M63.6363 5.13574H59.0908V9.63748H63.6363V5.13574Z" fill="#2843F0"/>
<path d="M63.6363 0.633789H59.0908V5.13553H63.6363V0.633789Z" fill="#556BFF"/>
<path d="M59.0906 59.1562H54.5452V63.658H59.0906V59.1562Z" fill="#121E6B"/>
<path d="M59.0906 54.6543H54.5452V59.1561H59.0906V54.6543Z" fill="#121E6B"/>
<path d="M59.0906 50.1533H54.5452V54.6551H59.0906V50.1533Z" fill="#17278C"/>
<path d="M59.0906 45.6514H54.5452V50.1531H59.0906V45.6514Z" fill="#2640E6"/>
<path d="M59.0906 41.1494H54.5452V45.6512H59.0906V41.1494Z" fill="#2843F0"/>
<path d="M59.0906 36.6475H54.5452V41.1492H59.0906V36.6475Z" fill="#2843F0"/>
<path d="M59.0906 32.1455H54.5452V36.6472H59.0906V32.1455Z" fill="#2843F0"/>
<path d="M59.0906 27.6445H54.5452V32.1463H59.0906V27.6445Z" fill="#1D2FAB"/>
<path d="M59.0906 23.1426H54.5452V27.6443H59.0906V23.1426Z" fill="#CDDEFF"/>
<path d="M59.0906 18.6416H54.5452V23.1433H59.0906V18.6416Z" fill="#334FFF"/>
<path d="M59.0906 14.1396H54.5452V18.6414H59.0906V14.1396Z" fill="#2843F0"/>
<path d="M59.0906 9.6377H54.5452V14.1394H59.0906V9.6377Z" fill="#2843F0"/>
<path d="M59.0906 5.13574H54.5452V9.63748H59.0906V5.13574Z" fill="#2843F0"/>
<path d="M59.0906 0.633789H54.5452V5.13553H59.0906V0.633789Z" fill="#556BFF"/>
<path d="M54.5455 59.1562H50V63.658H54.5455V59.1562Z" fill="#121E6B"/>
<path d="M54.5455 54.6543H50V59.1561H54.5455V54.6543Z" fill="#17278C"/>
<path d="M54.5455 50.1533H50V54.6551H54.5455V50.1533Z" fill="#1A2B9C"/>
<path d="M54.5455 45.6514H50V50.1531H54.5455V45.6514Z" fill="#334FFF"/>
<path d="M54.5455 41.1494H50V45.6512H54.5455V41.1494Z" fill="#2843F0"/>
<path d="M54.5455 36.6475H50V41.1492H54.5455V36.6475Z" fill="#2843F0"/>
<path d="M54.5455 32.1455H50V36.6472H54.5455V32.1455Z" fill="#2239CC"/>
<path d="M54.5455 27.6445H50V32.1463H54.5455V27.6445Z" fill="#CDDEFF"/>
<path d="M54.5455 23.1426H50V27.6443H54.5455V23.1426Z" fill="#CDDEFF"/>
<path d="M54.5455 18.6416H50V23.1433H54.5455V18.6416Z" fill="white"/>
<path d="M54.5455 14.1396H50V18.6414H54.5455V14.1396Z" fill="#2843F0"/>
<path d="M54.5674 9.6377H50.022V14.1394H54.5674V9.6377Z" fill="#2843F0"/>
<path d="M54.5674 5.13574H50.022V9.63748H54.5674V5.13574Z" fill="#2843F0"/>
<path d="M54.5674 0.633789H50.022V5.13553H54.5674V0.633789Z" fill="#556BFF"/>
<path d="M50.022 9.6377H45.4766V14.1394H50.022V9.6377Z" fill="#2843F0"/>
<path d="M50.022 5.13574H45.4766V9.63748H50.022V5.13574Z" fill="#2843F0"/>
<path d="M50.022 0.633789H45.4766V5.13553H50.022V0.633789Z" fill="#556BFF"/>
<path d="M45.462 14.1438L45.4565 18.6455L50.002 18.6511L50.0075 14.1493L45.462 14.1438Z" fill="white"/>
<path d="M50 59.1562H45.4546V63.658H50V59.1562Z" fill="#121E6B"/>
<path d="M50 54.6543H45.4546V59.1561H50V54.6543Z" fill="#121E6B"/>
<path d="M50 50.1533H45.4546V54.6551H50V50.1533Z" fill="#17278C"/>
<path d="M50 45.6514H45.4546V50.1531H50V45.6514Z" fill="#334FFF"/>
<path d="M50 41.1494H45.4546V45.6512H50V41.1494Z" fill="#2843F0"/>
<path d="M50 36.6475H45.4546V41.1492H50V36.6475Z" fill="#2239CC"/>
<path d="M50 32.1455H45.4546V36.6472H50V32.1455Z" fill="#CDDEFF"/>
<path d="M50 27.6445H45.4546V32.1463H50V27.6445Z" fill="#CDDEFF"/>
<path d="M50 23.1426H45.4546V27.6443H50V23.1426Z" fill="#CDDEFF"/>
<path d="M50 18.6416H45.4546V23.1433H50V18.6416Z" fill="white"/>
<path d="M45.4544 9.6377H40.9089V14.1394H45.4544V9.6377Z" fill="#CDDEFF"/>
<path d="M45.4544 5.13574H40.9089V9.63748H45.4544V5.13574Z" fill="#2843F0"/>
<path d="M45.4544 0.633789H40.9089V5.13553H45.4544V0.633789Z" fill="#556BFF"/>
<path d="M45.4544 14.1396H40.9089V18.6414H45.4544V14.1396Z" fill="white"/>
<path d="M45.4544 59.1562H40.9089V63.658H45.4544V59.1562Z" fill="#121E6B"/>
<path d="M45.4544 54.6543H40.9089V59.1561H45.4544V54.6543Z" fill="#17278C"/>
<path d="M45.4544 50.1533H40.9089V54.6551H45.4544V50.1533Z" fill="#1A2B9C"/>
<path d="M45.4544 45.6514H40.9089V50.1531H45.4544V45.6514Z" fill="#334FFF"/>
<path d="M45.4544 41.1494H40.9089V45.6512H45.4544V41.1494Z" fill="#1D2FAB"/>
<path d="M45.4544 36.6475H40.9089V41.1492H45.4544V36.6475Z" fill="#CDDEFF"/>
<path d="M45.4544 32.1455H40.9089V36.6472H45.4544V32.1455Z" fill="#CDDEFF"/>
<path d="M45.4544 27.6445H40.9089V32.1463H45.4544V27.6445Z" fill="#CDDEFF"/>
<path d="M45.4544 23.1426H40.9089V27.6443H45.4544V23.1426Z" fill="#CDDEFF"/>
<path d="M45.4544 18.6416H40.9089V23.1433H45.4544V18.6416Z" fill="white"/>
<path d="M40.909 59.1562H36.3635V63.658H40.909V59.1562Z" fill="#121E6B"/>
<path d="M40.909 54.6543H36.3635V59.1561H40.909V54.6543Z" fill="#121E6B"/>
<path d="M40.909 50.1533H36.3635V54.6551H40.909V50.1533Z" fill="#17278C"/>
<path d="M40.909 45.6514H36.3635V50.1531H40.909V45.6514Z" fill="#2640E6"/>
<path d="M40.909 41.1494H36.3635V45.6512H40.909V41.1494Z" fill="#2843F0"/>
<path d="M40.909 36.6475H36.3635V41.1492H40.909V36.6475Z" fill="#2843F0"/>
<path d="M40.909 32.1455H36.3635V36.6472H40.909V32.1455Z" fill="#2843F0"/>
<path d="M40.909 27.6445H36.3635V32.1463H40.909V27.6445Z" fill="#2640E6"/>
<path d="M40.909 23.1426H36.3635V27.6443H40.909V23.1426Z" fill="#334FFF"/>
<path d="M40.909 18.6416H36.3635V23.1433H40.909V18.6416Z" fill="#334FFF"/>
<path d="M40.909 14.1396H36.3635V18.6414H40.909V14.1396Z" fill="#2843F0"/>
<path d="M40.909 9.6377H36.3635V14.1394H40.909V9.6377Z" fill="#2843F0"/>
<path d="M40.909 5.13574H36.3635V9.63748H40.909V5.13574Z" fill="#2843F0"/>
<path d="M40.909 0.633789H36.3635V5.13553H40.909V0.633789Z" fill="#556BFF"/>
<path d="M36.3638 59.1562H31.8184V63.658H36.3638V59.1562Z" fill="#121E6B"/>
<path d="M36.3638 54.6543H31.8184V59.1561H36.3638V54.6543Z" fill="#17278C"/>
<path d="M36.3638 50.1533H31.8184V54.6551H36.3638V50.1533Z" fill="#1A2B9C"/>
<path d="M36.3638 45.6514H31.8184V50.1531H36.3638V45.6514Z" fill="#334FFF"/>
<path d="M36.3638 41.1494H31.8184V45.6512H36.3638V41.1494Z" fill="#2843F0"/>
<path d="M36.3638 36.6475H31.8184V41.1492H36.3638V36.6475Z" fill="#2843F0"/>
<path d="M36.3638 32.1455H31.8184V36.6472H36.3638V32.1455Z" fill="#2843F0"/>
<path d="M36.3638 27.6445H31.8184V32.1463H36.3638V27.6445Z" fill="#2640E6"/>
<path d="M36.3638 23.1426H31.8184V27.6443H36.3638V23.1426Z" fill="#334FFF"/>
<path d="M36.3638 18.6416H31.8184V23.1433H36.3638V18.6416Z" fill="#334FFF"/>
<path d="M36.3638 14.1396H31.8184V18.6414H36.3638V14.1396Z" fill="#2843F0"/>
<path d="M36.3638 9.6377H31.8184V14.1394H36.3638V9.6377Z" fill="#2843F0"/>
<path d="M36.3638 5.13574H31.8184V9.63748H36.3638V5.13574Z" fill="#2843F0"/>
<path d="M36.3638 0.633789H31.8184V5.13553H36.3638V0.633789Z" fill="#556BFF"/>
<path d="M31.8181 59.1562H27.2727V63.658H31.8181V59.1562Z" fill="#121E6B"/>
<path d="M31.8181 54.6543H27.2727V59.1561H31.8181V54.6543Z" fill="#121E6B"/>
<path d="M31.8181 50.1533H27.2727V54.6551H31.8181V50.1533Z" fill="#17278C"/>
<path d="M31.8181 45.6514H27.2727V50.1531H31.8181V45.6514Z" fill="#334FFF"/>
<path d="M31.8181 41.1494H27.2727V45.6512H31.8181V41.1494Z" fill="#2843F0"/>
<path d="M31.8181 36.6475H27.2727V41.1492H31.8181V36.6475Z" fill="#2843F0"/>
<path d="M31.8181 32.1455H27.2727V36.6472H31.8181V32.1455Z" fill="#2843F0"/>
<path d="M31.8181 27.6445H27.2727V32.1463H31.8181V27.6445Z" fill="#2640E6"/>
<path d="M31.8181 23.1426H27.2727V27.6443H31.8181V23.1426Z" fill="#334FFF"/>
<path d="M31.8181 18.6416H27.2727V23.1433H31.8181V18.6416Z" fill="#334FFF"/>
<path d="M31.8181 14.1396H27.2727V18.6414H31.8181V14.1396Z" fill="#2843F0"/>
<path d="M31.8181 9.6377H27.2727V14.1394H31.8181V9.6377Z" fill="#2843F0"/>
<path d="M31.8181 5.13574H27.2727V9.63748H31.8181V5.13574Z" fill="#2843F0"/>
<path d="M31.8181 0.633789H27.2727V5.13553H31.8181V0.633789Z" fill="#556BFF"/>
<path d="M27.2727 59.1562H22.7273V63.658H27.2727V59.1562Z" fill="#121E6B"/>
<path d="M27.2727 54.6543H22.7273V59.1561H27.2727V54.6543Z" fill="#17278C"/>
<path d="M27.2727 50.1533H22.7273V54.6551H27.2727V50.1533Z" fill="#1A2B9C"/>
<path d="M27.2727 45.6514H22.7273V50.1531H27.2727V45.6514Z" fill="#2843F0"/>
<path d="M27.2727 41.1494H22.7273V45.6512H27.2727V41.1494Z" fill="#2843F0"/>
<path d="M27.2727 36.6475H22.7273V41.1492H27.2727V36.6475Z" fill="#2843F0"/>
<path d="M27.2727 32.1455H22.7273V36.6472H27.2727V32.1455Z" fill="#2843F0"/>
<path d="M27.2727 27.6445H22.7273V32.1463H27.2727V27.6445Z" fill="#2640E6"/>
<path d="M27.2727 23.1426H22.7273V27.6443H27.2727V23.1426Z" fill="#334FFF"/>
<path d="M27.2727 18.6416H22.7273V23.1433H27.2727V18.6416Z" fill="#334FFF"/>
<path d="M27.2727 14.1396H22.7273V18.6414H27.2727V14.1396Z" fill="#2843F0"/>
<path d="M27.2727 9.6377H22.7273V14.1394H27.2727V9.6377Z" fill="#2843F0"/>
<path d="M27.2727 5.13574H22.7273V9.63748H27.2727V5.13574Z" fill="#2843F0"/>
<path d="M27.2727 0.633789H22.7273V5.13553H27.2727V0.633789Z" fill="#556BFF"/>
<path d="M22.7271 59.1562H18.1816V63.658H22.7271V59.1562Z" fill="#121E6B"/>
<path d="M22.7271 54.6543H18.1816V59.1561H22.7271V54.6543Z" fill="#121E6B"/>
<path d="M22.7271 50.1533H18.1816V54.6551H22.7271V50.1533Z" fill="#17278C"/>
<path d="M22.7271 45.6514H18.1816V50.1531H22.7271V45.6514Z" fill="#2640E6"/>
<path d="M22.7271 41.1494H18.1816V45.6512H22.7271V41.1494Z" fill="#2843F0"/>
<path d="M22.7271 36.6475H18.1816V41.1492H22.7271V36.6475Z" fill="#2843F0"/>
<path d="M22.7271 32.1455H18.1816V36.6472H22.7271V32.1455Z" fill="#2843F0"/>
<path d="M22.7271 27.6445H18.1816V32.1463H22.7271V27.6445Z" fill="#2640E6"/>
<path d="M22.7271 23.1426H18.1816V27.6443H22.7271V23.1426Z" fill="#334FFF"/>
<path d="M22.7271 18.6416H18.1816V23.1433H22.7271V18.6416Z" fill="#334FFF"/>
<path d="M22.7271 14.1396H18.1816V18.6414H22.7271V14.1396Z" fill="#2843F0"/>
<path d="M22.7271 9.6377H18.1816V14.1394H22.7271V9.6377Z" fill="#2843F0"/>
<path d="M22.7271 5.13574H18.1816V9.63748H22.7271V5.13574Z" fill="#2843F0"/>
<path d="M22.7271 0.633789H18.1816V5.13553H22.7271V0.633789Z" fill="#556BFF"/>
<path d="M18.2037 54.6543H13.6582V59.1561H18.2037V54.6543Z" fill="#121E6B"/>
<path d="M18.2037 50.1533H13.6582V54.6551H18.2037V50.1533Z" fill="#1A2B9C"/>
<path d="M18.2037 45.6514H13.6582V50.1531H18.2037V45.6514Z" fill="#17278C"/>
<path d="M18.2037 41.1494H13.6582V45.6512H18.2037V41.1494Z" fill="#2843F0"/>
<path d="M18.2037 36.6475H13.6582V41.1492H18.2037V36.6475Z" fill="#2843F0"/>
<path d="M18.2037 32.1455H13.6582V36.6472H18.2037V32.1455Z" fill="#2843F0"/>
<path d="M18.2037 27.6445H13.6582V32.1463H18.2037V27.6445Z" fill="#2640E6"/>
<path d="M18.2037 23.1426H13.6582V27.6443H18.2037V23.1426Z" fill="#334FFF"/>
<path d="M18.2037 18.6416H13.6582V23.1433H18.2037V18.6416Z" fill="#334FFF"/>
<path d="M18.2037 14.1396H13.6582V18.6414H18.2037V14.1396Z" fill="#2843F0"/>
<path d="M18.2037 9.6377H13.6582V14.1394H18.2037V9.6377Z" fill="#2843F0"/>
<path d="M18.2037 5.13574H13.6582V9.63748H18.2037V5.13574Z" fill="#556BFF"/>
<path d="M13.6582 50.1533H9.11279V54.6551H13.6582V50.1533Z" fill="#121E6B"/>
<path d="M13.6582 45.6514H9.11279V50.1531H13.6582V45.6514Z" fill="#17278C"/>
<path d="M13.6582 41.1494H9.11279V45.6512H13.6582V41.1494Z" fill="#17278C"/>
<path d="M13.6582 36.6475H9.11279V41.1492H13.6582V36.6475Z" fill="#2843F0"/>
<path d="M13.6582 32.1455H9.11279V36.6472H13.6582V32.1455Z" fill="#2843F0"/>
<path d="M13.6582 27.6445H9.11279V32.1463H13.6582V27.6445Z" fill="#2640E6"/>
<path d="M13.6582 23.1426H9.11279V27.6443H13.6582V23.1426Z" fill="#334FFF"/>
<path d="M13.6582 18.6416H9.11279V23.1433H13.6582V18.6416Z" fill="#334FFF"/>
<path d="M13.6582 14.1396H9.11279V18.6414H13.6582V14.1396Z" fill="#2843F0"/>
<path d="M13.6582 9.6377H9.11279V14.1394H13.6582V9.6377Z" fill="#556BFF"/>
<path d="M9.09086 45.6514H4.54541V50.1531H9.09086V45.6514Z" fill="#121E6B"/>
<path d="M9.09086 41.1494H4.54541V45.6512H9.09086V41.1494Z" fill="#17278C"/>
<path d="M9.09086 36.6475H4.54541V41.1492H9.09086V36.6475Z" fill="#17278C"/>
<path d="M9.09086 32.1455H4.54541V36.6472H9.09086V32.1455Z" fill="#2843F0"/>
<path d="M9.09086 27.6445H4.54541V32.1463H9.09086V27.6445Z" fill="#2640E6"/>
<path d="M9.09086 23.1426H4.54541V27.6443H9.09086V23.1426Z" fill="#334FFF"/>
<path d="M9.09086 18.6416H4.54541V23.1433H9.09086V18.6416Z" fill="#334FFF"/>
<path d="M9.09086 14.1396H4.54541V18.6414H9.09086V14.1396Z" fill="#556BFF"/>
<path d="M4.54545 41.1494H0V45.6512H4.54545V41.1494Z" fill="#121E6B"/>
<path d="M4.54545 36.6475H0V41.1492H4.54545V36.6475Z" fill="#17278C"/>
<path d="M4.54545 32.1455H0V36.6472H4.54545V32.1455Z" fill="#17278C"/>
<path d="M4.54545 27.6445H0V32.1463H4.54545V27.6445Z" fill="#2640E6"/>
<path d="M4.54545 23.1426H0V27.6443H4.54545V23.1426Z" fill="#334FFF"/>
<path d="M4.54545 18.6416H0V23.1433H4.54545V18.6416Z" fill="#556BFF"/>
</svg>
