<svg width="100" height="64" viewBox="0 0 100 64" fill="none" xmlns="http://www.w3.org/2000/svg">
<path d="M-4.29153e-05 41.1494H4.54541V45.6512H-4.29153e-05V41.1494Z" fill="#121E6B"/>
<path d="M-4.29153e-05 36.6475H4.54541V41.1492H-4.29153e-05V36.6475Z" fill="#17278C"/>
<path d="M-4.29153e-05 32.1455H4.54541V36.6472H-4.29153e-05V32.1455Z" fill="#17278C"/>
<path d="M-4.29153e-05 27.6445H4.54541V32.1463H-4.29153e-05V27.6445Z" fill="#2640E6"/>
<path d="M-4.29153e-05 23.1426H4.54541V27.6443H-4.29153e-05V23.1426Z" fill="#334FFF"/>
<path d="M-4.29153e-05 18.6416H4.54541V23.1433H-4.29153e-05V18.6416Z" fill="#334FFF"/>
<path d="M9.07165 14.1438L9.07715 18.6455L4.53167 18.6511L4.52617 14.1493L9.07165 14.1438Z" fill="#2843F0"/>
<path d="M4.54562 45.6514H9.09106V50.1531H4.54562V45.6514Z" fill="#121E6B"/>
<path d="M4.54562 41.1494H9.09106V45.6512H4.54562V41.1494Z" fill="#17278C"/>
<path d="M4.54562 36.6475H9.09106V41.1492H4.54562V36.6475Z" fill="#17278C"/>
<path d="M4.54562 32.1455H9.09106V36.6472H4.54562V32.1455Z" fill="#2843F0"/>
<path d="M4.54562 27.6445H9.09106V32.1463H4.54562V27.6445Z" fill="#2640E6"/>
<path d="M4.54562 23.1426H9.09106V27.6443H4.54562V23.1426Z" fill="#334FFF"/>
<path d="M4.54562 18.6416H9.09106V23.1433H4.54562V18.6416Z" fill="#334FFF"/>
<path d="M9.09078 50.1533H13.6362V54.6551H9.09078V50.1533Z" fill="#121E6B"/>
<path d="M9.09078 45.6514H13.6362V50.1531H9.09078V45.6514Z" fill="#17278C"/>
<path d="M9.09078 41.1494H13.6362V45.6512H9.09078V41.1494Z" fill="#17278C"/>
<path d="M9.09078 36.6475H13.6362V41.1492H9.09078V36.6475Z" fill="#2843F0"/>
<path d="M9.09078 32.1455H13.6362V36.6472H9.09078V32.1455Z" fill="#2843F0"/>
<path d="M9.09078 27.6445H13.6362V32.1463H9.09078V27.6445Z" fill="#2640E6"/>
<path d="M9.09078 23.1426H13.6362V27.6443H9.09078V23.1426Z" fill="#334FFF"/>
<path d="M9.09078 18.6416H13.6362V23.1433H9.09078V18.6416Z" fill="#334FFF"/>
<path d="M9.09078 14.1396H13.6362V18.6414H9.09078V14.1396Z" fill="#2843F0"/>
<path d="M9.09078 9.6377H13.6362V14.1394H9.09078V9.6377Z" fill="#2843F0"/>
<path d="M13.6367 54.6543H18.1821V59.1561H13.6367V54.6543Z" fill="#121E6B"/>
<path d="M13.6367 50.1533H18.1821V54.6551H13.6367V50.1533Z" fill="#121E6B"/>
<path d="M13.6367 45.6514H18.1821V50.1531H13.6367V45.6514Z" fill="#17278C"/>
<path d="M13.6367 41.1494H18.1821V45.6512H13.6367V41.1494Z" fill="#2843F0"/>
<path d="M13.6367 36.6475H18.1821V41.1492H13.6367V36.6475Z" fill="#2843F0"/>
<path d="M13.6367 32.1455H18.1821V36.6472H13.6367V32.1455Z" fill="#2843F0"/>
<path d="M13.6367 27.6445H18.1821V32.1463H13.6367V27.6445Z" fill="#2640E6"/>
<path d="M13.6367 23.1426H18.1821V27.6443H13.6367V23.1426Z" fill="#334FFF"/>
<path d="M13.6367 18.6416H18.1821V23.1433H13.6367V18.6416Z" fill="#334FFF"/>
<path d="M13.6367 14.1396H18.1821V18.6414H13.6367V14.1396Z" fill="#2843F0"/>
<path d="M13.6367 9.6377H18.1821V14.1394H13.6367V9.6377Z" fill="#2843F0"/>
<path d="M13.6367 5.13574H18.1821V9.63748H13.6367V5.13574Z" fill="#2843F0"/>
<path d="M18.1821 59.1562H22.7275V63.658H18.1821V59.1562Z" fill="#121E6B"/>
<path d="M18.1821 54.6543H22.7275V59.1561H18.1821V54.6543Z" fill="#17278C"/>
<path d="M18.1821 50.1533H22.7275V54.6551H18.1821V50.1533Z" fill="#1A2B9C"/>
<path d="M18.1821 45.6514H22.7275V50.1531H18.1821V45.6514Z" fill="#2640E6"/>
<path d="M18.1821 41.1494H22.7275V45.6512H18.1821V41.1494Z" fill="#2843F0"/>
<path d="M18.1821 36.6475H22.7275V41.1492H18.1821V36.6475Z" fill="#2843F0"/>
<path d="M18.1821 32.1455H22.7275V36.6472H18.1821V32.1455Z" fill="#2843F0"/>
<path d="M18.1821 27.6445H22.7275V32.1463H18.1821V27.6445Z" fill="#2640E6"/>
<path d="M18.1821 23.1426H22.7275V27.6443H18.1821V23.1426Z" fill="#334FFF"/>
<path d="M18.1821 18.6416H22.7275V23.1433H18.1821V18.6416Z" fill="#334FFF"/>
<path d="M18.1821 14.1396H22.7275V18.6414H18.1821V14.1396Z" fill="#2843F0"/>
<path d="M18.1821 9.6377H22.7275V14.1394H18.1821V9.6377Z" fill="#2843F0"/>
<path d="M18.1821 5.13574H22.7275V9.63748H18.1821V5.13574Z" fill="#2843F0"/>
<path d="M18.1821 0.633789H22.7275V5.13553H18.1821V0.633789Z" fill="#556BFF"/>
<path d="M22.7273 59.1562H27.2727V63.658H22.7273V59.1562Z" fill="#121E6B"/>
<path d="M22.7273 54.6543H27.2727V59.1561H22.7273V54.6543Z" fill="#121E6B"/>
<path d="M22.7273 50.1533H27.2727V54.6551H22.7273V50.1533Z" fill="#17278C"/>
<path d="M22.7273 45.6514H27.2727V50.1531H22.7273V45.6514Z" fill="#334FFF"/>
<path d="M22.7273 41.1494H27.2727V45.6512H22.7273V41.1494Z" fill="#2843F0"/>
<path d="M22.7273 36.6475H27.2727V41.1492H22.7273V36.6475Z" fill="#2843F0"/>
<path d="M22.7273 32.1455H27.2727V36.6472H22.7273V32.1455Z" fill="#2843F0"/>
<path d="M22.7273 27.6445H27.2727V32.1463H22.7273V27.6445Z" fill="#2640E6"/>
<path d="M22.7273 23.1426H27.2727V27.6443H22.7273V23.1426Z" fill="#334FFF"/>
<path d="M22.7273 18.6416H27.2727V23.1433H22.7273V18.6416Z" fill="#334FFF"/>
<path d="M22.7273 14.1396H27.2727V18.6414H22.7273V14.1396Z" fill="#2843F0"/>
<path d="M22.7273 9.6377H27.2727V14.1394H22.7273V9.6377Z" fill="#2843F0"/>
<path d="M22.7273 5.13574H27.2727V9.63748H22.7273V5.13574Z" fill="#2843F0"/>
<path d="M22.7273 0.633789H27.2727V5.13553H22.7273V0.633789Z" fill="#556BFF"/>
<path d="M27.2729 59.1562H31.8184V63.658H27.2729V59.1562Z" fill="#121E6B"/>
<path d="M27.2729 54.6543H31.8184V59.1561H27.2729V54.6543Z" fill="#17278C"/>
<path d="M27.2729 50.1533H31.8184V54.6551H27.2729V50.1533Z" fill="#1A2B9C"/>
<path d="M27.2729 45.6514H31.8184V50.1531H27.2729V45.6514Z" fill="#2640E6"/>
<path d="M27.2729 41.1494H31.8184V45.6512H27.2729V41.1494Z" fill="#2843F0"/>
<path d="M27.2729 36.6475H31.8184V41.1492H27.2729V36.6475Z" fill="#2843F0"/>
<path d="M27.2729 32.1455H31.8184V36.6472H27.2729V32.1455Z" fill="#2843F0"/>
<path d="M27.2729 27.6445H31.8184V32.1463H27.2729V27.6445Z" fill="#2640E6"/>
<path d="M27.2729 23.1426H31.8184V27.6443H27.2729V23.1426Z" fill="#334FFF"/>
<path d="M27.2729 18.6416H31.8184V23.1433H27.2729V18.6416Z" fill="#334FFF"/>
<path d="M27.2729 14.1396H31.8184V18.6414H27.2729V14.1396Z" fill="#2843F0"/>
<path d="M27.2729 9.6377H31.8184V14.1394H27.2729V9.6377Z" fill="#2843F0"/>
<path d="M27.2729 5.13574H31.8184V9.63748H27.2729V5.13574Z" fill="#2843F0"/>
<path d="M27.2729 0.633789H31.8184V5.13553H27.2729V0.633789Z" fill="#556BFF"/>
<path d="M31.8183 59.1562H36.3638V63.658H31.8183V59.1562Z" fill="#121E6B"/>
<path d="M31.8183 54.6543H36.3638V59.1561H31.8183V54.6543Z" fill="#121E6B"/>
<path d="M31.8183 50.1533H36.3638V54.6551H31.8183V50.1533Z" fill="#17278C"/>
<path d="M31.8183 45.6514H36.3638V50.1531H31.8183V45.6514Z" fill="#334FFF"/>
<path d="M31.8183 41.1494H36.3638V45.6512H31.8183V41.1494Z" fill="#2843F0"/>
<path d="M31.8183 36.6475H36.3638V41.1492H31.8183V36.6475Z" fill="#2843F0"/>
<path d="M31.8183 32.1455H36.3638V36.6472H31.8183V32.1455Z" fill="#2843F0"/>
<path d="M31.8183 27.6445H36.3638V32.1463H31.8183V27.6445Z" fill="#2640E6"/>
<path d="M31.8183 23.1426H36.3638V27.6443H31.8183V23.1426Z" fill="#334FFF"/>
<path d="M31.8183 18.6416H36.3638V23.1433H31.8183V18.6416Z" fill="#334FFF"/>
<path d="M31.8183 14.1396H36.3638V18.6414H31.8183V14.1396Z" fill="#2843F0"/>
<path d="M31.8183 9.6377H36.3638V14.1394H31.8183V9.6377Z" fill="#2843F0"/>
<path d="M31.8183 5.13574H36.3638V9.63748H31.8183V5.13574Z" fill="#2843F0"/>
<path d="M31.8183 0.633789H36.3638V5.13553H31.8183V0.633789Z" fill="#556BFF"/>
<path d="M36.3637 59.1562H40.9092V63.658H36.3637V59.1562Z" fill="#121E6B"/>
<path d="M36.3637 54.6543H40.9092V59.1561H36.3637V54.6543Z" fill="#17278C"/>
<path d="M36.3637 50.1533H40.9092V54.6551H36.3637V50.1533Z" fill="#1A2B9C"/>
<path d="M36.3637 45.6514H40.9092V50.1531H36.3637V45.6514Z" fill="#334FFF"/>
<path d="M36.3637 41.1494H40.9092V45.6512H36.3637V41.1494Z" fill="#2843F0"/>
<path d="M36.3637 36.6475H40.9092V41.1492H36.3637V36.6475Z" fill="#2843F0"/>
<path d="M36.3637 32.1455H40.9092V36.6472H36.3637V32.1455Z" fill="#2843F0"/>
<path d="M36.3637 27.6445H40.9092V32.1463H36.3637V27.6445Z" fill="#2640E6"/>
<path d="M36.3637 23.1426H40.9092V27.6443H36.3637V23.1426Z" fill="#334FFF"/>
<path d="M36.3637 18.6416H40.9092V23.1433H36.3637V18.6416Z" fill="#334FFF"/>
<path d="M36.3637 14.1396H40.9092V18.6414H36.3637V14.1396Z" fill="#2843F0"/>
<path d="M36.3637 9.6377H40.9092V14.1394H36.3637V9.6377Z" fill="#2843F0"/>
<path d="M36.3637 5.13574H40.9092V9.63748H36.3637V5.13574Z" fill="#2843F0"/>
<path d="M36.3637 0.633789H40.9092V5.13553H36.3637V0.633789Z" fill="#556BFF"/>
<path d="M40.9094 59.1562H45.4548V63.658H40.9094V59.1562Z" fill="#121E6B"/>
<path d="M40.9094 54.6543H45.4548V59.1561H40.9094V54.6543Z" fill="#121E6B"/>
<path d="M40.9094 50.1533H45.4548V54.6551H40.9094V50.1533Z" fill="#17278C"/>
<path d="M40.9094 45.6514H45.4548V50.1531H40.9094V45.6514Z" fill="#2640E6"/>
<path d="M40.9094 41.1494H45.4548V45.6512H40.9094V41.1494Z" fill="#2843F0"/>
<path d="M40.9094 36.6475H45.4548V41.1492H40.9094V36.6475Z" fill="#2843F0"/>
<path d="M40.9094 32.1455H45.4548V36.6472H40.9094V32.1455Z" fill="#2843F0"/>
<path d="M40.9094 27.6445H45.4548V32.1463H40.9094V27.6445Z" fill="#1D2FAB"/>
<path d="M40.9094 23.1426H45.4548V27.6443H40.9094V23.1426Z" fill="#CDDEFF"/>
<path d="M40.9094 18.6416H45.4548V23.1433H40.9094V18.6416Z" fill="#334FFF"/>
<path d="M40.9094 14.1396H45.4548V18.6414H40.9094V14.1396Z" fill="#2843F0"/>
<path d="M40.9094 9.6377H45.4548V14.1394H40.9094V9.6377Z" fill="#2843F0"/>
<path d="M40.9094 5.13574H45.4548V9.63748H40.9094V5.13574Z" fill="#2843F0"/>
<path d="M40.9094 0.633789H45.4548V5.13553H40.9094V0.633789Z" fill="#556BFF"/>
<path d="M45.4545 59.1562H50V63.658H45.4545V59.1562Z" fill="#121E6B"/>
<path d="M45.4545 54.6543H50V59.1561H45.4545V54.6543Z" fill="#17278C"/>
<path d="M45.4545 50.1533H50V54.6551H45.4545V50.1533Z" fill="#1A2B9C"/>
<path d="M45.4545 45.6514H50V50.1531H45.4545V45.6514Z" fill="#334FFF"/>
<path d="M45.4545 41.1494H50V45.6512H45.4545V41.1494Z" fill="#2843F0"/>
<path d="M45.4545 36.6475H50V41.1492H45.4545V36.6475Z" fill="#2843F0"/>
<path d="M45.4545 32.1455H50V36.6472H45.4545V32.1455Z" fill="#2239CC"/>
<path d="M45.4545 27.6445H50V32.1463H45.4545V27.6445Z" fill="#CDDEFF"/>
<path d="M45.4545 23.1426H50V27.6443H45.4545V23.1426Z" fill="#CDDEFF"/>
<path d="M45.4545 18.6416H50V23.1433H45.4545V18.6416Z" fill="white"/>
<path d="M45.4545 14.1396H50V18.6414H45.4545V14.1396Z" fill="#2843F0"/>
<path d="M45.4326 9.6377H49.978V14.1394H45.4326V9.6377Z" fill="#2843F0"/>
<path d="M45.4326 5.13574H49.978V9.63748H45.4326V5.13574Z" fill="#2843F0"/>
<path d="M45.4326 0.633789H49.978V5.13553H45.4326V0.633789Z" fill="#556BFF"/>
<path d="M49.978 9.6377H54.5234V14.1394H49.978V9.6377Z" fill="#2843F0"/>
<path d="M49.978 5.13574H54.5234V9.63748H49.978V5.13574Z" fill="#2843F0"/>
<path d="M49.978 0.633789H54.5234V5.13553H49.978V0.633789Z" fill="#556BFF"/>
<path d="M54.538 14.1438L54.5435 18.6455L49.998 18.6511L49.9925 14.1493L54.538 14.1438Z" fill="white"/>
<path d="M50 59.1562H54.5454V63.658H50V59.1562Z" fill="#121E6B"/>
<path d="M50 54.6543H54.5454V59.1561H50V54.6543Z" fill="#121E6B"/>
<path d="M50 50.1533H54.5454V54.6551H50V50.1533Z" fill="#17278C"/>
<path d="M50 45.6514H54.5454V50.1531H50V45.6514Z" fill="#334FFF"/>
<path d="M50 41.1494H54.5454V45.6512H50V41.1494Z" fill="#2843F0"/>
<path d="M50 36.6475H54.5454V41.1492H50V36.6475Z" fill="#2239CC"/>
<path d="M50 32.1455H54.5454V36.6472H50V32.1455Z" fill="#CDDEFF"/>
<path d="M50 27.6445H54.5454V32.1463H50V27.6445Z" fill="#CDDEFF"/>
<path d="M50 23.1426H54.5454V27.6443H50V23.1426Z" fill="#CDDEFF"/>
<path d="M50 18.6416H54.5454V23.1433H50V18.6416Z" fill="white"/>
<path d="M54.5456 9.6377H59.0911V14.1394H54.5456V9.6377Z" fill="#CDDEFF"/>
<path d="M54.5456 5.13574H59.0911V9.63748H54.5456V5.13574Z" fill="#2843F0"/>
<path d="M54.5456 0.633789H59.0911V5.13553H54.5456V0.633789Z" fill="#556BFF"/>
<path d="M54.5456 14.1396H59.0911V18.6414H54.5456V14.1396Z" fill="white"/>
<path d="M54.5456 59.1562H59.0911V63.658H54.5456V59.1562Z" fill="#121E6B"/>
<path d="M54.5456 54.6543H59.0911V59.1561H54.5456V54.6543Z" fill="#17278C"/>
<path d="M54.5456 50.1533H59.0911V54.6551H54.5456V50.1533Z" fill="#1A2B9C"/>
<path d="M54.5456 45.6514H59.0911V50.1531H54.5456V45.6514Z" fill="#334FFF"/>
<path d="M54.5456 41.1494H59.0911V45.6512H54.5456V41.1494Z" fill="#1D2FAB"/>
<path d="M54.5456 36.6475H59.0911V41.1492H54.5456V36.6475Z" fill="#CDDEFF"/>
<path d="M54.5456 32.1455H59.0911V36.6472H54.5456V32.1455Z" fill="#CDDEFF"/>
<path d="M54.5456 27.6445H59.0911V32.1463H54.5456V27.6445Z" fill="#CDDEFF"/>
<path d="M54.5456 23.1426H59.0911V27.6443H54.5456V23.1426Z" fill="#CDDEFF"/>
<path d="M54.5456 18.6416H59.0911V23.1433H54.5456V18.6416Z" fill="white"/>
<path d="M59.091 59.1562H63.6365V63.658H59.091V59.1562Z" fill="#121E6B"/>
<path d="M59.091 54.6543H63.6365V59.1561H59.091V54.6543Z" fill="#121E6B"/>
<path d="M59.091 50.1533H63.6365V54.6551H59.091V50.1533Z" fill="#17278C"/>
<path d="M59.091 45.6514H63.6365V50.1531H59.091V45.6514Z" fill="#2640E6"/>
<path d="M59.091 41.1494H63.6365V45.6512H59.091V41.1494Z" fill="#2843F0"/>
<path d="M59.091 36.6475H63.6365V41.1492H59.091V36.6475Z" fill="#2843F0"/>
<path d="M59.091 32.1455H63.6365V36.6472H59.091V32.1455Z" fill="#2843F0"/>
<path d="M59.091 27.6445H63.6365V32.1463H59.091V27.6445Z" fill="#2640E6"/>
<path d="M59.091 23.1426H63.6365V27.6443H59.091V23.1426Z" fill="#334FFF"/>
<path d="M59.091 18.6416H63.6365V23.1433H59.091V18.6416Z" fill="#334FFF"/>
<path d="M59.091 14.1396H63.6365V18.6414H59.091V14.1396Z" fill="#2843F0"/>
<path d="M59.091 9.6377H63.6365V14.1394H59.091V9.6377Z" fill="#2843F0"/>
<path d="M59.091 5.13574H63.6365V9.63748H59.091V5.13574Z" fill="#2843F0"/>
<path d="M59.091 0.633789H63.6365V5.13553H59.091V0.633789Z" fill="#556BFF"/>
<path d="M63.6362 59.1562H68.1816V63.658H63.6362V59.1562Z" fill="#121E6B"/>
<path d="M63.6362 54.6543H68.1816V59.1561H63.6362V54.6543Z" fill="#17278C"/>
<path d="M63.6362 50.1533H68.1816V54.6551H63.6362V50.1533Z" fill="#1A2B9C"/>
<path d="M63.6362 45.6514H68.1816V50.1531H63.6362V45.6514Z" fill="#334FFF"/>
<path d="M63.6362 41.1494H68.1816V45.6512H63.6362V41.1494Z" fill="#2843F0"/>
<path d="M63.6362 36.6475H68.1816V41.1492H63.6362V36.6475Z" fill="#2843F0"/>
<path d="M63.6362 32.1455H68.1816V36.6472H63.6362V32.1455Z" fill="#2843F0"/>
<path d="M63.6362 27.6445H68.1816V32.1463H63.6362V27.6445Z" fill="#2640E6"/>
<path d="M63.6362 23.1426H68.1816V27.6443H63.6362V23.1426Z" fill="#334FFF"/>
<path d="M63.6362 18.6416H68.1816V23.1433H63.6362V18.6416Z" fill="#334FFF"/>
<path d="M63.6362 14.1396H68.1816V18.6414H63.6362V14.1396Z" fill="#2843F0"/>
<path d="M63.6362 9.6377H68.1816V14.1394H63.6362V9.6377Z" fill="#2843F0"/>
<path d="M63.6362 5.13574H68.1816V9.63748H63.6362V5.13574Z" fill="#2843F0"/>
<path d="M63.6362 0.633789H68.1816V5.13553H63.6362V0.633789Z" fill="#556BFF"/>
<path d="M68.1819 59.1562H72.7273V63.658H68.1819V59.1562Z" fill="#121E6B"/>
<path d="M68.1819 54.6543H72.7273V59.1561H68.1819V54.6543Z" fill="#121E6B"/>
<path d="M68.1819 50.1533H72.7273V54.6551H68.1819V50.1533Z" fill="#17278C"/>
<path d="M68.1819 45.6514H72.7273V50.1531H68.1819V45.6514Z" fill="#334FFF"/>
<path d="M68.1819 41.1494H72.7273V45.6512H68.1819V41.1494Z" fill="#2843F0"/>
<path d="M68.1819 36.6475H72.7273V41.1492H68.1819V36.6475Z" fill="#2843F0"/>
<path d="M68.1819 32.1455H72.7273V36.6472H68.1819V32.1455Z" fill="#2843F0"/>
<path d="M68.1819 27.6445H72.7273V32.1463H68.1819V27.6445Z" fill="#2640E6"/>
<path d="M68.1819 23.1426H72.7273V27.6443H68.1819V23.1426Z" fill="#334FFF"/>
<path d="M68.1819 18.6416H72.7273V23.1433H68.1819V18.6416Z" fill="#334FFF"/>
<path d="M68.1819 14.1396H72.7273V18.6414H68.1819V14.1396Z" fill="#2843F0"/>
<path d="M68.1819 9.6377H72.7273V14.1394H68.1819V9.6377Z" fill="#2843F0"/>
<path d="M68.1819 5.13574H72.7273V9.63748H68.1819V5.13574Z" fill="#2843F0"/>
<path d="M68.1819 0.633789H72.7273V5.13553H68.1819V0.633789Z" fill="#556BFF"/>
<path d="M72.7273 59.1562H77.2727V63.658H72.7273V59.1562Z" fill="#121E6B"/>
<path d="M72.7273 54.6543H77.2727V59.1561H72.7273V54.6543Z" fill="#17278C"/>
<path d="M72.7273 50.1533H77.2727V54.6551H72.7273V50.1533Z" fill="#1A2B9C"/>
<path d="M72.7273 45.6514H77.2727V50.1531H72.7273V45.6514Z" fill="#2843F0"/>
<path d="M72.7273 41.1494H77.2727V45.6512H72.7273V41.1494Z" fill="#2843F0"/>
<path d="M72.7273 36.6475H77.2727V41.1492H72.7273V36.6475Z" fill="#2843F0"/>
<path d="M72.7273 32.1455H77.2727V36.6472H72.7273V32.1455Z" fill="#2843F0"/>
<path d="M72.7273 27.6445H77.2727V32.1463H72.7273V27.6445Z" fill="#2640E6"/>
<path d="M72.7273 23.1426H77.2727V27.6443H72.7273V23.1426Z" fill="#334FFF"/>
<path d="M72.7273 18.6416H77.2727V23.1433H72.7273V18.6416Z" fill="#334FFF"/>
<path d="M72.7273 14.1396H77.2727V18.6414H72.7273V14.1396Z" fill="#2843F0"/>
<path d="M72.7273 9.6377H77.2727V14.1394H72.7273V9.6377Z" fill="#2843F0"/>
<path d="M72.7273 5.13574H77.2727V9.63748H72.7273V5.13574Z" fill="#2843F0"/>
<path d="M72.7273 0.633789H77.2727V5.13553H72.7273V0.633789Z" fill="#556BFF"/>
<path d="M77.2729 59.1562H81.8184V63.658H77.2729V59.1562Z" fill="#121E6B"/>
<path d="M77.2729 54.6543H81.8184V59.1561H77.2729V54.6543Z" fill="#121E6B"/>
<path d="M77.2729 50.1533H81.8184V54.6551H77.2729V50.1533Z" fill="#17278C"/>
<path d="M77.2729 45.6514H81.8184V50.1531H77.2729V45.6514Z" fill="#2640E6"/>
<path d="M77.2729 41.1494H81.8184V45.6512H77.2729V41.1494Z" fill="#2843F0"/>
<path d="M77.2729 36.6475H81.8184V41.1492H77.2729V36.6475Z" fill="#2843F0"/>
<path d="M77.2729 32.1455H81.8184V36.6472H77.2729V32.1455Z" fill="#2843F0"/>
<path d="M77.2729 27.6445H81.8184V32.1463H77.2729V27.6445Z" fill="#2640E6"/>
<path d="M77.2729 23.1426H81.8184V27.6443H77.2729V23.1426Z" fill="#334FFF"/>
<path d="M77.2729 18.6416H81.8184V23.1433H77.2729V18.6416Z" fill="#334FFF"/>
<path d="M77.2729 14.1396H81.8184V18.6414H77.2729V14.1396Z" fill="#2843F0"/>
<path d="M77.2729 9.6377H81.8184V14.1394H77.2729V9.6377Z" fill="#2843F0"/>
<path d="M77.2729 5.13574H81.8184V9.63748H77.2729V5.13574Z" fill="#2843F0"/>
<path d="M77.2729 0.633789H81.8184V5.13553H77.2729V0.633789Z" fill="#556BFF"/>
<path d="M81.7963 54.6543H86.3418V59.1561H81.7963V54.6543Z" fill="#121E6B"/>
<path d="M81.7963 50.1533H86.3418V54.6551H81.7963V50.1533Z" fill="#1A2B9C"/>
<path d="M81.7963 45.6514H86.3418V50.1531H81.7963V45.6514Z" fill="#17278C"/>
<path d="M81.7963 41.1494H86.3418V45.6512H81.7963V41.1494Z" fill="#2843F0"/>
<path d="M81.7963 36.6475H86.3418V41.1492H81.7963V36.6475Z" fill="#2843F0"/>
<path d="M81.7963 32.1455H86.3418V36.6472H81.7963V32.1455Z" fill="#2843F0"/>
<path d="M81.7963 27.6445H86.3418V32.1463H81.7963V27.6445Z" fill="#2640E6"/>
<path d="M81.7963 23.1426H86.3418V27.6443H81.7963V23.1426Z" fill="#334FFF"/>
<path d="M81.7963 18.6416H86.3418V23.1433H81.7963V18.6416Z" fill="#334FFF"/>
<path d="M81.7963 14.1396H86.3418V18.6414H81.7963V14.1396Z" fill="#2843F0"/>
<path d="M81.7963 9.6377H86.3418V14.1394H81.7963V9.6377Z" fill="#2843F0"/>
<path d="M81.7963 5.13574H86.3418V9.63748H81.7963V5.13574Z" fill="#556BFF"/>
<path d="M86.3418 50.1533H90.8872V54.6551H86.3418V50.1533Z" fill="#121E6B"/>
<path d="M86.3418 45.6514H90.8872V50.1531H86.3418V45.6514Z" fill="#17278C"/>
<path d="M86.3418 41.1494H90.8872V45.6512H86.3418V41.1494Z" fill="#17278C"/>
<path d="M86.3418 36.6475H90.8872V41.1492H86.3418V36.6475Z" fill="#2843F0"/>
<path d="M86.3418 32.1455H90.8872V36.6472H86.3418V32.1455Z" fill="#2843F0"/>
<path d="M86.3418 27.6445H90.8872V32.1463H86.3418V27.6445Z" fill="#2640E6"/>
<path d="M86.3418 23.1426H90.8872V27.6443H86.3418V23.1426Z" fill="#334FFF"/>
<path d="M86.3418 18.6416H90.8872V23.1433H86.3418V18.6416Z" fill="#334FFF"/>
<path d="M86.3418 14.1396H90.8872V18.6414H86.3418V14.1396Z" fill="#2843F0"/>
<path d="M86.3418 9.6377H90.8872V14.1394H86.3418V9.6377Z" fill="#556BFF"/>
<path d="M90.9091 45.6514H95.4546V50.1531H90.9091V45.6514Z" fill="#121E6B"/>
<path d="M90.9091 41.1494H95.4546V45.6512H90.9091V41.1494Z" fill="#17278C"/>
<path d="M90.9091 36.6475H95.4546V41.1492H90.9091V36.6475Z" fill="#17278C"/>
<path d="M90.9091 32.1455H95.4546V36.6472H90.9091V32.1455Z" fill="#2843F0"/>
<path d="M90.9091 27.6445H95.4546V32.1463H90.9091V27.6445Z" fill="#2640E6"/>
<path d="M90.9091 23.1426H95.4546V27.6443H90.9091V23.1426Z" fill="#334FFF"/>
<path d="M90.9091 18.6416H95.4546V23.1433H90.9091V18.6416Z" fill="#334FFF"/>
<path d="M90.9091 14.1396H95.4546V18.6414H90.9091V14.1396Z" fill="#556BFF"/>
<path d="M95.4546 41.1494H100V45.6512H95.4546V41.1494Z" fill="#121E6B"/>
<path d="M95.4546 36.6475H100V41.1492H95.4546V36.6475Z" fill="#17278C"/>
<path d="M95.4546 32.1455H100V36.6472H95.4546V32.1455Z" fill="#17278C"/>
<path d="M95.4546 27.6445H100V32.1463H95.4546V27.6445Z" fill="#2640E6"/>
<path d="M95.4546 23.1426H100V27.6443H95.4546V23.1426Z" fill="#334FFF"/>
<path d="M95.4546 18.6416H100V23.1433H95.4546V18.6416Z" fill="#556BFF"/>
</svg>
